<?xml version="1.0" encoding="UTF-8"?>
<svg id="Layer_1" data-name="Layer 1" xmlns="http://www.w3.org/2000/svg" viewBox="0 0 440 105">
  <defs>
    <style>
      .cls-1 {
        stroke-dasharray: 0 0 1.12 3.35;
      }

      .cls-1, .cls-2 {
        fill: none;
        stroke: #000;
      }
    </style>
  </defs>
  <g>
    <path class="cls-1" d="m265.55,8.18h60v80h-60V8.18Z"/>
    <path class="cls-1" d="m355.55,28.18h50v70h-50V28.18Z"/>
    <path class="cls-1" d="m25.55,28.18h50v70H25.55V28.18Z"/>
    <path class="cls-2" d="m5.55,78.18h30"/>
    <path class="cls-2" d="m235.55,78.18h130"/>
    <path class="cls-2" d="m235.55,48.18h50"/>
    <path class="cls-2" d="m5.55,48.18h100"/>
    <path class="cls-2" d="m305.55,48.18h130"/>
    <path class="cls-2" d="m125.55,48.18h50"/>
  </g>
  <g>
    <g>
      <path d="m44.36,76.42l-2.04,10.1c-.22,1.06-.59,1.77-.96,1.77-.29,0-.65-.12-1.08-.39l-.16,1.16c.2.1.47.14.78.14.82,0,1.63-.88,2.37-2.53.41-.92.69-1.94,1.26-4.53l1.55-7.14c.08-.37.12-.63.12-.75,0-.33-.18-.51-.51-.51-.45,0-1.2.43-2.73,1.51l-.57.41.14.41.65-.43c.75-.47.82-.51.96-.51.2,0,.37.2.37.47,0,.18-.14.71-.14.82Zm1.86-7.36c-.59,0-1.18.67-1.18,1.37,0,.51.31.84.8.84.63,0,1.12-.59,1.12-1.37,0-.49-.31-.84-.73-.84Z"/>
      <path d="m52.57,83.2h.33c.11-.93.21-1.46.34-1.83-.34-.21-.84-.34-1.37-.34-.64-.01-1.69.27-2.5,1.17-.77.69-1.33,2.27-1.33,3.77,0,1.37.6,2.1,1.74,2.1.77,0,1.46-.29,2.24-.93l.71-.59-.11-.29-.21.14c-1.03.69-1.57.93-2.07.93-.8,0-1.21-.57-1.21-1.7,0-1.54.5-3.03,1.2-3.57.3-.23.64-.34,1.09-.34.64,0,1.16.27,1.16.61v.86Z"/>
    </g>
    <rect x="35.32" y="68.21" width="1" height="22.33"/>
    <polyline class="cls-2" points="56.63 68.21 63.66 79.37 56.63 90.54"/>
  </g>
  <path d="m209.4,64.17v-1.44h-13.19v1.44h13.19Zm0,5.21v-1.44h-13.19v1.44h13.19Z"/>
  <path d="m117.28,36.85l2.59-.1c1.52,0,2.5.22,2.52.59l.2,2.18h.59c.07-1.54.24-2.79.51-3.72-.54-.05-1.22-.07-1.64-.07l-1,.02-4.04.05h-.71c-.61,0-1.59-.02-2.52-.05l-1.2-.02-.07.69,1.37.05c.59.02.86.24.86.66,0,.34-.1,1.13-.22,1.86l-1.84,10.62c-.42,2.25-.42,2.28-1.42,2.37l-.88.07-.1.69.83-.02c.98-.02,1.76-.05,2.28-.05.44,0,1.15.02,2.11.05l1.27.02.07-.69-1.57-.07c-.66-.02-.88-.22-.88-.71,0-.15.02-.42.05-.51l.88-5.46h2.86c.66,0,1.42.02,2.59.07l.64.02.47-1.1-.1-.17c-1.98.1-3.45.15-5.36.15h-.91l1.13-6.63c.07-.39.1-.51.22-.78h.42Z"/>
  <path d="m17.88,41.44l-.49,2.16c-.07.29-.1.6-.1.87,0,.37.15.6.41.6.39,0,1.09-.44,2.48-1.6l-.12-.36c-.41.34-.9.8-1.28.8-.15,0-.26-.15-.26-.39,0-.09,0-.14.02-.19l1.56-6.44-.17-.15-.56.31c-.7-.26-.99-.32-1.45-.32s-.82.09-1.28.31c-1.05.53-1.62,1.04-2.04,1.87-.75,1.51-1.28,3.55-1.28,4.88,0,.75.26,1.33.58,1.33.63,0,1.99-.88,3.96-3.66Zm.82-3.57c-.37,1.85-.7,2.74-1.28,3.62-.97,1.43-2.01,2.41-2.55,2.41-.2,0-.31-.22-.31-.68,0-1.09.48-3.08,1.07-4.44.41-.94.8-1.24,1.62-1.24.39,0,.7.07,1.45.32Z"/>
  <path d="m19.09,69.3h.39c.14-1.11.26-1.73.41-2.18-.41-.26-1-.41-1.63-.41-.77-.02-2.01.32-2.98,1.39-.92.82-1.58,2.7-1.58,4.49,0,1.63.71,2.5,2.07,2.5.92,0,1.73-.34,2.67-1.11l.85-.7-.14-.34-.26.17c-1.22.82-1.87,1.11-2.47,1.11-.95,0-1.45-.68-1.45-2.02,0-1.84.6-3.6,1.43-4.25.36-.27.77-.41,1.29-.41.77,0,1.38.32,1.38.73v1.02Z"/>
  <path d="m157.27,32.64l-.2-.19c-.88.44-1.5.6-2.72.71l-.07.36h.82c.41,0,.58.12.58.41,0,.12-.02.31-.03.41l-1.72,9.37c-.02.05-.02.12-.02.17,0,.66.82,1.22,1.75,1.22.63,0,1.5-.32,2.23-.85,1.63-1.16,2.75-3.49,2.75-5.73,0-.65-.15-1.31-.36-1.56-.12-.15-.34-.24-.6-.24-.41,0-.92.14-1.39.37-.87.46-1.43.97-2.48,2.31l1.46-6.77Zm1.48,5.07c.44,0,.66.39.66,1.22,0,1.09-.36,2.55-.87,3.66-.56,1.17-1.24,1.72-2.16,1.72-.78,0-1.21-.39-1.21-1.11,0-.58.26-2.98,1.63-4.42.56-.58,1.45-1.07,1.94-1.07Z"/>
  <g>
    <g>
      <path d="m373.69,76.42l-2.04,10.1c-.22,1.06-.59,1.77-.96,1.77-.29,0-.65-.12-1.08-.39l-.16,1.16c.2.1.47.14.78.14.82,0,1.63-.88,2.37-2.53.41-.92.69-1.94,1.26-4.53l1.55-7.14c.08-.37.12-.63.12-.75,0-.33-.18-.51-.51-.51-.45,0-1.2.43-2.73,1.51l-.57.41.14.41.65-.43c.75-.47.82-.51.96-.51.2,0,.37.2.37.47,0,.18-.14.71-.14.82Zm1.86-7.36c-.59,0-1.18.67-1.18,1.37,0,.51.31.84.8.84.63,0,1.12-.59,1.12-1.37,0-.49-.31-.84-.73-.84Z"/>
      <path d="m381.9,83.2h.33c.11-.93.21-1.46.34-1.83-.34-.21-.84-.34-1.37-.34-.64-.01-1.69.27-2.5,1.17-.77.69-1.33,2.27-1.33,3.77,0,1.37.6,2.1,1.74,2.1.77,0,1.46-.29,2.24-.93l.71-.59-.11-.29-.21.14c-1.03.69-1.57.93-2.07.93-.8,0-1.21-.57-1.21-1.7,0-1.54.5-3.03,1.2-3.57.3-.23.64-.34,1.09-.34.64,0,1.16.27,1.16.61v.86Z"/>
    </g>
    <rect x="364.65" y="68.21" width="1" height="22.33"/>
    <polyline class="cls-2" points="385.96 68.21 392.99 79.37 385.96 90.54"/>
  </g>
  <path d="m296.28,41.85l2.59-.1c1.52,0,2.5.22,2.52.59l.2,2.18h.59c.07-1.54.24-2.79.51-3.72-.54-.05-1.22-.07-1.64-.07l-1,.02-4.04.05h-.71c-.61,0-1.59-.02-2.52-.05l-1.2-.02-.07.69,1.37.05c.59.02.86.24.86.66,0,.34-.1,1.13-.22,1.86l-1.84,10.62c-.42,2.25-.42,2.28-1.42,2.37l-.88.07-.1.69.83-.02c.98-.02,1.76-.05,2.28-.05.44,0,1.15.02,2.11.05l1.27.02.07-.69-1.57-.07c-.66-.02-.88-.22-.88-.71,0-.15.02-.42.05-.51l.88-5.46h2.86c.66,0,1.42.02,2.59.07l.64.02.47-1.1-.1-.17c-1.98.1-3.45.15-5.36.15h-.91l1.13-6.63c.07-.39.1-.51.22-.78h.42Z"/>
  <path d="m251.88,41.44l-.49,2.16c-.07.29-.1.6-.1.87,0,.37.15.6.41.6.39,0,1.09-.44,2.48-1.6l-.12-.36c-.41.34-.9.8-1.28.8-.15,0-.26-.15-.26-.39,0-.09,0-.14.02-.19l1.56-6.44-.17-.15-.56.31c-.7-.26-.99-.32-1.45-.32s-.82.09-1.28.31c-1.05.53-1.62,1.04-2.04,1.87-.75,1.51-1.28,3.55-1.28,4.88,0,.75.26,1.33.58,1.33.63,0,1.99-.88,3.96-3.66Zm.82-3.57c-.37,1.85-.7,2.74-1.28,3.62-.97,1.43-2.01,2.41-2.55,2.41-.2,0-.31-.22-.31-.68,0-1.09.48-3.08,1.07-4.44.41-.94.8-1.24,1.62-1.24.39,0,.7.07,1.45.32Z"/>
  <path d="m253.09,69.3h.39c.14-1.11.26-1.73.41-2.18-.41-.26-1-.41-1.63-.41-.77-.02-2.01.32-2.98,1.39-.92.82-1.58,2.7-1.58,4.49,0,1.63.71,2.5,2.07,2.5.92,0,1.73-.34,2.67-1.11l.85-.7-.14-.34-.26.17c-1.22.82-1.87,1.11-2.47,1.11-.95,0-1.45-.68-1.45-2.02,0-1.84.6-3.6,1.43-4.25.36-.27.77-.41,1.29-.41.77,0,1.38.32,1.38.73v1.02Z"/>
  <path d="m337.27,32.64l-.2-.19c-.88.44-1.5.6-2.72.71l-.07.36h.82c.41,0,.58.12.58.41,0,.12-.02.31-.03.41l-1.72,9.37c-.02.05-.02.12-.02.17,0,.66.82,1.22,1.75,1.22.63,0,1.5-.32,2.23-.85,1.63-1.16,2.75-3.49,2.75-5.73,0-.65-.15-1.31-.36-1.56-.12-.15-.34-.24-.6-.24-.41,0-.92.14-1.39.37-.87.46-1.43.97-2.48,2.31l1.46-6.77Zm1.48,5.07c.44,0,.66.39.66,1.22,0,1.09-.36,2.55-.87,3.66-.56,1.17-1.24,1.72-2.16,1.72-.78,0-1.21-.39-1.21-1.11,0-.58.26-2.98,1.63-4.42.56-.58,1.45-1.07,1.94-1.07Z"/>
  <path d="m268.56,17.64h3.14c1.06,0,1.78-.71,1.78-1.46,0-.7-.66-1.3-1.54-1.39.78-.15,1.33-.66,1.33-1.26,0-.7-.74-1.35-1.78-1.35h-2.93v.25h.19c.62,0,.63.09.63.38v4.22c0,.29-.02.38-.63.38h-.19v.25Zm1.49-.57v-2.18h1.5c.79,0,1.13.74,1.13,1.28,0,.57-.42,1.22-1.24,1.22h-1c-.38,0-.39-.06-.39-.32Zm0-2.36v-1.97c0-.26.02-.32.39-.32h.99c.78,0,1.06.68,1.06,1.1,0,.51-.39,1.18-1.28,1.18h-1.16Zm4.11,2.93c.31,0,.69-.02.91-.02.32,0,.7,0,1.02.02v-.25h-.17c-.59,0-.61-.09-.61-.38v-1.23c0-.79.34-1.5.94-1.5.06,0,.07,0,.09,0-.02,0-.18.1-.18.31,0,.22.17.34.34.34.14,0,.34-.1.34-.35s-.25-.49-.59-.49c-.58,0-.87.54-.98.88v-.88l-1.11.09v.25c.56,0,.62.06.62.45v2.14c0,.36-.09.36-.62.36v.25Zm3.13-1.71c0,1.03.83,1.8,1.77,1.8s1.78-.78,1.78-1.8-.8-1.87-1.77-1.87-1.78.87-1.78,1.87Zm.66-.06c0-.31,0-.74.19-1.1.22-.37.59-.54.91-.54.35,0,.7.18.9.52s.21.81.21,1.11c0,.29,0,.72-.18,1.07-.18.36-.53.59-.93.59-.34,0-.7-.17-.91-.54-.2-.35-.2-.84-.2-1.13Zm3.45,1.02c0,.65.78.85,1.28.85s.9-.32,1.05-.7c.03.32.25.66.62.66.17,0,.66-.11.66-.76v-.45h-.2v.45c0,.46-.2.51-.29.51-.26,0-.3-.36-.3-.4v-1.6c0-.34,0-.65-.29-.94-.31-.31-.71-.44-1.1-.44-.66,0-1.21.38-1.21.9,0,.24.16.38.37.38.22,0,.37-.16.37-.37,0-.1-.04-.36-.41-.37.22-.28.61-.37.86-.37.39,0,.85.31.85,1.02v.3c-.41.02-.97.05-1.47.29-.6.27-.8.69-.8,1.04Zm.62,0c0-.44.34-1.1,1.66-1.15v.8c0,.76-.58,1.03-.94,1.03-.39,0-.72-.28-.72-.68Zm3.32-.95c0,1.02.78,1.81,1.7,1.81.51,0,.87-.27,1.07-.53v.53l1.18-.09v-.25c-.56,0-.62-.06-.62-.45v-4.86l-1.15.09v.25c.56,0,.62.06.62.45v1.73c-.23-.29-.58-.5-1.01-.5-.94,0-1.78.78-1.78,1.82Zm.66,0c0-.3.02-.78.25-1.14.17-.25.47-.51.9-.51.28,0,.62.12.86.48.09.14.09.15.09.3v1.64c0,.14,0,.16-.09.3-.24.38-.6.56-.94.56s-.65-.21-.84-.51c-.21-.33-.23-.78-.23-1.11Zm3.78-.02c0,1.02.79,1.82,1.72,1.82,1.07,0,1.33-.96,1.33-1.04s-.08-.08-.1-.08c-.07,0-.09.03-.1.08-.23.74-.75.84-1.05.84-.42,0-1.13-.34-1.13-1.63s.66-1.64,1.08-1.64c.07,0,.58,0,.86.3-.33.02-.38.26-.38.37,0,.21.14.37.37.37.21,0,.37-.14.37-.38,0-.54-.61-.86-1.22-.86-1,0-1.74.86-1.74,1.86Zm3.62.97c0,.65.78.85,1.28.85s.9-.32,1.05-.7c.03.32.25.66.62.66.17,0,.66-.11.66-.76v-.45h-.2v.45c0,.46-.2.51-.29.51-.26,0-.3-.36-.3-.4v-1.6c0-.34,0-.65-.29-.94-.31-.31-.71-.44-1.1-.44-.66,0-1.21.38-1.21.9,0,.24.16.38.37.38.22,0,.37-.16.37-.37,0-.1-.04-.36-.41-.37.22-.28.61-.37.86-.37.39,0,.85.31.85,1.02v.3c-.41.02-.97.05-1.47.29-.6.27-.8.69-.8,1.04Zm.62,0c0-.44.34-1.1,1.66-1.15v.8c0,.76-.58,1.03-.94,1.03-.39,0-.72-.28-.72-.68Zm3.31.66c0,.14,0,.19.09.19.04,0,.05,0,.2-.16.02-.02.02-.03.16-.18.35.34.71.34.88.34.92,0,1.29-.54,1.29-1.11,0-.42-.24-.66-.34-.76-.26-.26-.58-.32-.91-.38-.45-.09-.98-.19-.98-.66,0-.28.21-.61.9-.61.88,0,.92.72.94.97,0,.07.08.07.1.07.1,0,.1-.04.1-.19v-.81c0-.14,0-.19-.09-.19-.04,0-.06,0-.16.1-.02.03-.1.1-.14.13-.3-.22-.63-.22-.75-.22-.98,0-1.28.54-1.28.98,0,.28.13.5.34.68.26.21.48.26,1.06.37.18.03.83.16.83.74,0,.41-.28.73-.9.73-.67,0-.96-.46-1.11-1.14-.02-.1-.03-.14-.11-.14-.1,0-.1.06-.1.2v1.06Zm3.04-3.1h.68v2.21c0,.98.74,1.08,1.03,1.08.57,0,.79-.57.79-1.08v-.46h-.2v.44c0,.59-.24.9-.54.9-.54,0-.54-.73-.54-.86v-2.22h1.14v-.25h-1.14v-1.47h-.2c0,.66-.25,1.51-1.03,1.54v.18Zm3.18,1.44c0,1.07.84,1.85,1.76,1.85.98,0,1.34-.89,1.34-1.04,0-.08-.06-.1-.1-.1-.07,0-.09.05-.1.11-.28.82-1,.82-1.08.82-.4,0-.72-.24-.9-.54-.24-.38-.24-.91-.24-1.2h2.23c.18,0,.2,0,.2-.17,0-.79-.43-1.57-1.43-1.57-.93,0-1.66.82-1.66,1.82Zm.67-.26c.05-1.19.72-1.39.99-1.39.82,0,.9,1.08.9,1.39h-1.9Zm2.93.3c0,1.02.78,1.81,1.7,1.81.51,0,.87-.27,1.07-.53v.53l1.18-.09v-.25c-.56,0-.62-.06-.62-.45v-4.86l-1.15.09v.25c.56,0,.62.06.62.45v1.73c-.23-.29-.58-.5-1.01-.5-.94,0-1.78.78-1.78,1.82Zm.66,0c0-.3.02-.78.25-1.14.17-.25.47-.51.9-.51.28,0,.62.12.86.48.09.14.09.15.09.3v1.64c0,.14,0,.16-.09.3-.24.38-.6.56-.94.56s-.65-.21-.84-.51c-.21-.33-.23-.78-.23-1.11Z"/>
  <path d="m339.09,69.3h.39c.14-1.11.26-1.73.41-2.18-.41-.26-1-.41-1.63-.41-.77-.02-2.01.32-2.98,1.39-.92.82-1.58,2.7-1.58,4.49,0,1.63.71,2.5,2.07,2.5.92,0,1.73-.34,2.67-1.11l.85-.7-.14-.34-.26.17c-1.22.82-1.87,1.11-2.47,1.11-.95,0-1.45-.68-1.45-2.02,0-1.84.6-3.6,1.43-4.25.36-.27.77-.41,1.29-.41.77,0,1.38.32,1.38.73v1.02Z"/>
  <path d="m27.55,36.64c.28-.02.87-.02,1.18-.02s.9,0,1.18.02v-.25h-.19c-.62,0-.63-.09-.63-.38v-1.9h1.35c.96,0,1.82-.65,1.82-1.45s-.79-1.49-1.89-1.49h-2.82v.25h.19c.62,0,.63.09.63.38v4.22c0,.29-.02.38-.63.38h-.19v.25Zm1.51-2.74v-2.16c0-.26.02-.32.39-.32h.71c1.27,0,1.27.85,1.27,1.24s0,1.24-1.27,1.24h-1.1Zm3.87,2.74c.31,0,.69-.02.91-.02.32,0,.7,0,1.02.02v-.25h-.17c-.59,0-.61-.09-.61-.38v-1.23c0-.79.34-1.5.94-1.5.06,0,.07,0,.09,0-.02,0-.18.1-.18.31,0,.22.17.34.34.34.14,0,.34-.1.34-.35s-.25-.49-.59-.49c-.58,0-.87.54-.98.88v-.88l-1.11.09v.25c.56,0,.62.06.62.45v2.14c0,.36-.09.36-.62.36v.25Zm3.13-1.71c0,1.03.83,1.8,1.77,1.8s1.78-.78,1.78-1.8-.8-1.87-1.77-1.87-1.78.87-1.78,1.87Zm.66-.06c0-.31,0-.74.19-1.1.22-.37.59-.54.91-.54.35,0,.7.18.9.52s.21.81.21,1.11c0,.29,0,.72-.18,1.07-.18.36-.53.59-.93.59-.34,0-.7-.17-.91-.54-.2-.35-.2-.84-.2-1.13Zm4.39-3.15c0,.23.19.42.42.42s.42-.19.42-.42-.19-.42-.42-.42-.42.19-.42.42Zm-1.15,5.93c0,.42.45.64.9.64.6,0,1.1-.51,1.1-1.24v-3.94l-1.22.09v.25c.62,0,.69.06.69.45v3.17c0,.36-.07,1.05-.58,1.05-.04,0-.22,0-.43-.1.12-.03.28-.14.28-.36s-.14-.37-.37-.37-.37.16-.37.37Zm2.98-2.76c0,1.07.84,1.85,1.76,1.85.98,0,1.34-.89,1.34-1.04,0-.08-.06-.1-.1-.1-.07,0-.09.05-.1.11-.28.82-1,.82-1.08.82-.4,0-.72-.24-.9-.54-.24-.38-.24-.91-.24-1.2h2.23c.18,0,.2,0,.2-.17,0-.79-.43-1.57-1.43-1.57-.93,0-1.66.82-1.66,1.82Zm.67-.26c.05-1.19.72-1.39.99-1.39.82,0,.9,1.08.9,1.39h-1.9Zm2.93.29c0,1.02.79,1.82,1.72,1.82,1.07,0,1.33-.96,1.33-1.04s-.08-.08-.1-.08c-.07,0-.09.03-.1.08-.23.74-.75.84-1.05.84-.42,0-1.13-.34-1.13-1.63s.66-1.64,1.08-1.64c.07,0,.58,0,.86.3-.33.02-.38.26-.38.37,0,.21.14.37.37.37.21,0,.37-.14.37-.38,0-.54-.61-.86-1.22-.86-1,0-1.74.86-1.74,1.86Zm3.43-1.47h.68v2.21c0,.98.74,1.08,1.03,1.08.57,0,.79-.57.79-1.08v-.46h-.2v.44c0,.59-.24.9-.54.9-.54,0-.54-.73-.54-.86v-2.22h1.14v-.25h-1.14v-1.47h-.2c0,.66-.25,1.51-1.03,1.54v.18Zm3.55-1.73c0,.22.18.42.42.42.22,0,.42-.17.42-.42s-.2-.42-.42-.42c-.25,0-.42.22-.42.42Zm-.34,4.93c.26,0,.69-.02.88-.02.28,0,.56.02.83.02v-.25c-.53,0-.56-.04-.56-.35v-2.94l-1.12.09v.25c.52,0,.59.05.59.44v2.15c0,.36-.09.36-.62.36v.25Zm2.18-1.71c0,1.03.83,1.8,1.77,1.8s1.78-.78,1.78-1.8-.8-1.87-1.77-1.87-1.78.87-1.78,1.87Zm.66-.06c0-.31,0-.74.19-1.1.22-.37.59-.54.91-.54.35,0,.7.18.9.52s.21.81.21,1.11c0,.29,0,.72-.18,1.07-.18.36-.53.59-.93.59-.34,0-.7-.17-.91-.54-.2-.35-.2-.84-.2-1.13Zm3.37,1.78c.28,0,.69-.02.9-.02s.62.02.9.02v-.25c-.54,0-.62,0-.62-.36v-1.47c0-.83.57-1.28,1.08-1.28s.59.43.59.89v1.86c0,.36-.09.36-.62.36v.25c.28,0,.69-.02.9-.02s.62.02.9.02v-.25c-.42,0-.62,0-.62-.24v-1.53c0-.69,0-.94-.25-1.22-.11-.14-.38-.3-.84-.3-.58,0-.96.34-1.18.84v-.84l-1.13.09v.25c.56,0,.62.06.62.45v2.14c0,.36-.09.36-.62.36v.25Zm4.45-.1c0,.14,0,.19.09.19.04,0,.05,0,.2-.16.02-.02.02-.03.16-.18.35.34.71.34.88.34.92,0,1.29-.54,1.29-1.11,0-.42-.24-.66-.34-.76-.26-.26-.58-.32-.91-.38-.45-.09-.98-.19-.98-.66,0-.28.21-.61.9-.61.88,0,.92.72.94.97,0,.07.08.07.1.07.1,0,.1-.04.1-.19v-.81c0-.14,0-.19-.09-.19-.04,0-.06,0-.16.1-.02.03-.1.1-.14.13-.3-.22-.63-.22-.75-.22-.98,0-1.28.54-1.28.98,0,.28.13.5.34.68.26.21.48.26,1.06.37.18.03.83.16.83.74,0,.41-.28.73-.9.73-.67,0-.96-.46-1.11-1.14-.02-.1-.03-.14-.11-.14-.1,0-.1.06-.1.2v1.06Z"/>
  <path d="m357.55,36.64c.28-.02.87-.02,1.18-.02s.9,0,1.18.02v-.25h-.19c-.62,0-.63-.09-.63-.38v-1.9h1.35c.96,0,1.82-.65,1.82-1.45s-.79-1.49-1.89-1.49h-2.82v.25h.19c.62,0,.63.09.63.38v4.22c0,.29-.02.38-.63.38h-.19v.25Zm1.51-2.74v-2.16c0-.26.02-.32.39-.32h.71c1.27,0,1.27.85,1.27,1.24s0,1.24-1.27,1.24h-1.1Zm3.87,2.74c.31,0,.69-.02.91-.02.32,0,.7,0,1.02.02v-.25h-.17c-.59,0-.61-.09-.61-.38v-1.23c0-.79.34-1.5.94-1.5.06,0,.07,0,.09,0-.02,0-.18.1-.18.31,0,.22.17.34.34.34.14,0,.34-.1.34-.35s-.25-.49-.59-.49c-.58,0-.87.54-.98.88v-.88l-1.11.09v.25c.56,0,.62.06.62.45v2.14c0,.36-.09.36-.62.36v.25Zm3.13-1.71c0,1.03.83,1.8,1.77,1.8s1.78-.78,1.78-1.8-.8-1.87-1.77-1.87-1.78.87-1.78,1.87Zm.66-.06c0-.31,0-.74.19-1.1.22-.37.59-.54.91-.54.35,0,.7.18.9.52s.21.81.21,1.11c0,.29,0,.72-.18,1.07-.18.36-.53.59-.93.59-.34,0-.7-.17-.91-.54-.2-.35-.2-.84-.2-1.13Zm4.39-3.15c0,.23.19.42.42.42s.42-.19.42-.42-.19-.42-.42-.42-.42.19-.42.42Zm-1.15,5.93c0,.42.45.64.9.64.6,0,1.1-.51,1.1-1.24v-3.94l-1.22.09v.25c.62,0,.69.06.69.45v3.17c0,.36-.07,1.05-.58,1.05-.04,0-.22,0-.43-.1.12-.03.28-.14.28-.36s-.14-.37-.37-.37-.37.16-.37.37Zm2.98-2.76c0,1.07.84,1.85,1.76,1.85.98,0,1.34-.89,1.34-1.04,0-.08-.06-.1-.1-.1-.07,0-.09.05-.1.11-.28.82-1,.82-1.08.82-.4,0-.72-.24-.9-.54-.24-.38-.24-.91-.24-1.2h2.23c.18,0,.2,0,.2-.17,0-.79-.43-1.57-1.43-1.57-.93,0-1.66.82-1.66,1.82Zm.67-.26c.05-1.19.72-1.39.99-1.39.82,0,.9,1.08.9,1.39h-1.9Zm2.93.29c0,1.02.79,1.82,1.72,1.82,1.07,0,1.33-.96,1.33-1.04s-.08-.08-.1-.08c-.07,0-.09.03-.1.08-.23.74-.75.84-1.05.84-.42,0-1.13-.34-1.13-1.63s.66-1.64,1.08-1.64c.07,0,.58,0,.86.3-.33.02-.38.26-.38.37,0,.21.14.37.37.37.21,0,.37-.14.37-.38,0-.54-.61-.86-1.22-.86-1,0-1.74.86-1.74,1.86Zm3.43-1.47h.68v2.21c0,.98.74,1.08,1.03,1.08.57,0,.79-.57.79-1.08v-.46h-.2v.44c0,.59-.24.9-.54.9-.54,0-.54-.73-.54-.86v-2.22h1.14v-.25h-1.14v-1.47h-.2c0,.66-.25,1.51-1.03,1.54v.18Zm3.55-1.73c0,.22.18.42.42.42.22,0,.42-.17.42-.42s-.2-.42-.42-.42c-.25,0-.42.22-.42.42Zm-.34,4.93c.26,0,.69-.02.88-.02.28,0,.56.02.83.02v-.25c-.53,0-.56-.04-.56-.35v-2.94l-1.12.09v.25c.52,0,.59.05.59.44v2.15c0,.36-.09.36-.62.36v.25Zm2.18-1.71c0,1.03.83,1.8,1.77,1.8s1.78-.78,1.78-1.8-.8-1.87-1.77-1.87-1.78.87-1.78,1.87Zm.66-.06c0-.31,0-.74.19-1.1.22-.37.59-.54.91-.54.35,0,.7.18.9.52s.21.81.21,1.11c0,.29,0,.72-.18,1.07-.18.36-.53.59-.93.59-.34,0-.7-.17-.91-.54-.2-.35-.2-.84-.2-1.13Zm3.37,1.78c.28,0,.69-.02.9-.02s.62.02.9.02v-.25c-.54,0-.62,0-.62-.36v-1.47c0-.83.57-1.28,1.08-1.28s.59.43.59.89v1.86c0,.36-.09.36-.62.36v.25c.28,0,.69-.02.9-.02s.62.02.9.02v-.25c-.42,0-.62,0-.62-.24v-1.53c0-.69,0-.94-.25-1.22-.11-.14-.38-.3-.84-.3-.58,0-.96.34-1.18.84v-.84l-1.13.09v.25c.56,0,.62.06.62.45v2.14c0,.36-.09.36-.62.36v.25Zm4.45-.1c0,.14,0,.19.09.19.04,0,.05,0,.2-.16.02-.02.02-.03.16-.18.35.34.71.34.88.34.92,0,1.29-.54,1.29-1.11,0-.42-.24-.66-.34-.76-.26-.26-.58-.32-.91-.38-.45-.09-.98-.19-.98-.66,0-.28.21-.61.9-.61.88,0,.92.72.94.97,0,.07.08.07.1.07.1,0,.1-.04.1-.19v-.81c0-.14,0-.19-.09-.19-.04,0-.06,0-.16.1-.02.03-.1.1-.14.13-.3-.22-.63-.22-.75-.22-.98,0-1.28.54-1.28.98,0,.28.13.5.34.68.26.21.48.26,1.06.37.18.03.83.16.83.74,0,.41-.28.73-.9.73-.67,0-.96-.46-1.11-1.14-.02-.1-.03-.14-.11-.14-.1,0-.1.06-.1.2v1.06Z"/>
</svg>