<?xml version="1.0" encoding="UTF-8"?>
<svg xmlns="http://www.w3.org/2000/svg" xmlns:xlink="http://www.w3.org/1999/xlink" viewBox="0 0 595 185">
  <defs>
    <style>
      .cls-1, .cls-2, .cls-3, .cls-4, .cls-5, .cls-6 {
        fill: none;
      }

      .cls-1, .cls-4 {
        stroke-width: 3px;
      }

      .cls-1, .cls-6 {
        stroke: #000;
      }

      .cls-7 {
        fill: #fff591;
      }

      .cls-7, .cls-8, .cls-9, .cls-10, .cls-2, .cls-11, .cls-12, .cls-13, .cls-14 {
        stroke-width: 0px;
      }

      .cls-15 {
        filter: url(#drop-shadow-170);
      }

      .cls-8 {
        fill: #1346fe;
      }

      .cls-16 {
        filter: url(#drop-shadow-167);
      }

      .cls-17 {
        filter: url(#drop-shadow-159);
      }

      .cls-9, .cls-18 {
        fill: #9013fe;
      }

      .cls-19 {
        filter: url(#drop-shadow-173);
      }

      .cls-18 {
        stroke-width: .41px;
      }

      .cls-18, .cls-20 {
        stroke-miterlimit: 10;
      }

      .cls-18, .cls-4 {
        stroke: #9013fe;
      }

      .cls-21 {
        filter: url(#drop-shadow-157);
      }

      .cls-22 {
        filter: url(#drop-shadow-162);
      }

      .cls-23 {
        filter: url(#drop-shadow-161);
      }

      .cls-24 {
        filter: url(#drop-shadow-158);
      }

      .cls-25 {
        filter: url(#drop-shadow-172);
      }

      .cls-26 {
        filter: url(#drop-shadow-164);
      }

      .cls-11 {
        fill: #f3f3f4;
      }

      .cls-3 {
        stroke-miterlimit: 4;
        stroke-width: 2px;
      }

      .cls-3, .cls-5 {
        stroke: #1346fe;
      }

      .cls-12 {
        fill: #e28ff1;
      }

      .cls-13 {
        fill: #9dc7ff;
      }

      .cls-14, .cls-20 {
        fill: #fff;
      }

      .cls-20 {
        stroke: #fff;
        stroke-width: .37px;
      }

      .cls-27 {
        filter: url(#drop-shadow-160);
      }

      .cls-28 {
        filter: url(#drop-shadow-165);
      }

      .cls-29 {
        filter: url(#drop-shadow-166);
      }

      .cls-30 {
        filter: url(#drop-shadow-217);
      }

      .cls-31 {
        filter: url(#drop-shadow-216);
      }

      .cls-32 {
        filter: url(#drop-shadow-171);
      }

      .cls-33 {
        filter: url(#drop-shadow-169);
      }

      .cls-34 {
        filter: url(#drop-shadow-163);
      }

      .cls-5 {
        stroke-width: 2px;
      }

      .cls-35 {
        filter: url(#drop-shadow-168);
      }

      .cls-36 {
        filter: url(#drop-shadow-218);
      }
    </style>
    <filter id="drop-shadow-157" filterUnits="userSpaceOnUse">
      <feOffset dx="0" dy="0"/>
      <feGaussianBlur result="blur" stdDeviation="3"/>
      <feFlood flood-color="#000" flood-opacity="1"/>
      <feComposite in2="blur" operator="in"/>
      <feComposite in="SourceGraphic"/>
    </filter>
    <filter id="drop-shadow-158" filterUnits="userSpaceOnUse">
      <feOffset dx="0" dy="0"/>
      <feGaussianBlur result="blur-2" stdDeviation="3"/>
      <feFlood flood-color="#000" flood-opacity="1"/>
      <feComposite in2="blur-2" operator="in"/>
      <feComposite in="SourceGraphic"/>
    </filter>
    <filter id="drop-shadow-159" filterUnits="userSpaceOnUse">
      <feOffset dx="0" dy="0"/>
      <feGaussianBlur result="blur-3" stdDeviation="3"/>
      <feFlood flood-color="#000" flood-opacity="1"/>
      <feComposite in2="blur-3" operator="in"/>
      <feComposite in="SourceGraphic"/>
    </filter>
    <filter id="drop-shadow-160" filterUnits="userSpaceOnUse">
      <feOffset dx="0" dy="0"/>
      <feGaussianBlur result="blur-4" stdDeviation="3"/>
      <feFlood flood-color="#000" flood-opacity="1"/>
      <feComposite in2="blur-4" operator="in"/>
      <feComposite in="SourceGraphic"/>
    </filter>
    <filter id="drop-shadow-161" filterUnits="userSpaceOnUse">
      <feOffset dx="0" dy="0"/>
      <feGaussianBlur result="blur-5" stdDeviation="3"/>
      <feFlood flood-color="#000" flood-opacity="1"/>
      <feComposite in2="blur-5" operator="in"/>
      <feComposite in="SourceGraphic"/>
    </filter>
    <filter id="drop-shadow-162" filterUnits="userSpaceOnUse">
      <feOffset dx="0" dy="0"/>
      <feGaussianBlur result="blur-6" stdDeviation="3"/>
      <feFlood flood-color="#000" flood-opacity="1"/>
      <feComposite in2="blur-6" operator="in"/>
      <feComposite in="SourceGraphic"/>
    </filter>
    <filter id="drop-shadow-163" filterUnits="userSpaceOnUse">
      <feOffset dx="0" dy="0"/>
      <feGaussianBlur result="blur-7" stdDeviation="3"/>
      <feFlood flood-color="#000" flood-opacity="1"/>
      <feComposite in2="blur-7" operator="in"/>
      <feComposite in="SourceGraphic"/>
    </filter>
    <filter id="drop-shadow-164" filterUnits="userSpaceOnUse">
      <feOffset dx="0" dy="0"/>
      <feGaussianBlur result="blur-8" stdDeviation="3"/>
      <feFlood flood-color="#000" flood-opacity="1"/>
      <feComposite in2="blur-8" operator="in"/>
      <feComposite in="SourceGraphic"/>
    </filter>
    <filter id="drop-shadow-165" filterUnits="userSpaceOnUse">
      <feOffset dx="0" dy="0"/>
      <feGaussianBlur result="blur-9" stdDeviation="3"/>
      <feFlood flood-color="#000" flood-opacity="1"/>
      <feComposite in2="blur-9" operator="in"/>
      <feComposite in="SourceGraphic"/>
    </filter>
    <filter id="drop-shadow-166" filterUnits="userSpaceOnUse">
      <feOffset dx="0" dy="0"/>
      <feGaussianBlur result="blur-10" stdDeviation="3"/>
      <feFlood flood-color="#000" flood-opacity="1"/>
      <feComposite in2="blur-10" operator="in"/>
      <feComposite in="SourceGraphic"/>
    </filter>
    <filter id="drop-shadow-167" filterUnits="userSpaceOnUse">
      <feOffset dx="0" dy="0"/>
      <feGaussianBlur result="blur-11" stdDeviation="3"/>
      <feFlood flood-color="#000" flood-opacity="1"/>
      <feComposite in2="blur-11" operator="in"/>
      <feComposite in="SourceGraphic"/>
    </filter>
    <filter id="drop-shadow-168" filterUnits="userSpaceOnUse">
      <feOffset dx="0" dy="0"/>
      <feGaussianBlur result="blur-12" stdDeviation="3"/>
      <feFlood flood-color="#000" flood-opacity="1"/>
      <feComposite in2="blur-12" operator="in"/>
      <feComposite in="SourceGraphic"/>
    </filter>
    <filter id="drop-shadow-169" filterUnits="userSpaceOnUse">
      <feOffset dx="0" dy="0"/>
      <feGaussianBlur result="blur-13" stdDeviation="3"/>
      <feFlood flood-color="#000" flood-opacity="1"/>
      <feComposite in2="blur-13" operator="in"/>
      <feComposite in="SourceGraphic"/>
    </filter>
    <filter id="drop-shadow-170" filterUnits="userSpaceOnUse">
      <feOffset dx="0" dy="0"/>
      <feGaussianBlur result="blur-14" stdDeviation="3"/>
      <feFlood flood-color="#000" flood-opacity="1"/>
      <feComposite in2="blur-14" operator="in"/>
      <feComposite in="SourceGraphic"/>
    </filter>
    <filter id="drop-shadow-171" filterUnits="userSpaceOnUse">
      <feOffset dx="0" dy="0"/>
      <feGaussianBlur result="blur-15" stdDeviation="3"/>
      <feFlood flood-color="#000" flood-opacity="1"/>
      <feComposite in2="blur-15" operator="in"/>
      <feComposite in="SourceGraphic"/>
    </filter>
    <filter id="drop-shadow-172" filterUnits="userSpaceOnUse">
      <feOffset dx="0" dy="0"/>
      <feGaussianBlur result="blur-16" stdDeviation="3"/>
      <feFlood flood-color="#000" flood-opacity="1"/>
      <feComposite in2="blur-16" operator="in"/>
      <feComposite in="SourceGraphic"/>
    </filter>
    <filter id="drop-shadow-173" filterUnits="userSpaceOnUse">
      <feOffset dx="0" dy="0"/>
      <feGaussianBlur result="blur-17" stdDeviation="3"/>
      <feFlood flood-color="#000" flood-opacity="1"/>
      <feComposite in2="blur-17" operator="in"/>
      <feComposite in="SourceGraphic"/>
    </filter>
    <filter id="drop-shadow-216" filterUnits="userSpaceOnUse">
      <feOffset dx="0" dy="0"/>
      <feGaussianBlur result="blur-18" stdDeviation="3"/>
      <feFlood flood-color="#000" flood-opacity="1"/>
      <feComposite in2="blur-18" operator="in"/>
      <feComposite in="SourceGraphic"/>
    </filter>
    <filter id="drop-shadow-217" filterUnits="userSpaceOnUse">
      <feOffset dx="0" dy="0"/>
      <feGaussianBlur result="blur-19" stdDeviation="3"/>
      <feFlood flood-color="#000" flood-opacity="1"/>
      <feComposite in2="blur-19" operator="in"/>
      <feComposite in="SourceGraphic"/>
    </filter>
    <filter id="drop-shadow-218" filterUnits="userSpaceOnUse">
      <feOffset dx="0" dy="0"/>
      <feGaussianBlur result="blur-20" stdDeviation="3"/>
      <feFlood flood-color="#000" flood-opacity="1"/>
      <feComposite in2="blur-20" operator="in"/>
      <feComposite in="SourceGraphic"/>
    </filter>
  </defs>
  <g id="Layer_1" data-name="Layer 1">
    <g class="cls-21">
      <polygon class="cls-7" points="587.83 55 12.83 55 12.83 5 587.83 5 587.83 55"/>
    </g>
    <g class="cls-24">
      <path class="cls-9" d="m372.83,80h150v30h-150v-30Z"/>
    </g>
    <g class="cls-17">
      <path class="cls-13" d="m427.83,75h40v70h-40v-70Z"/>
    </g>
    <g class="cls-27">
      <path class="cls-12" d="m382.83,75h40v70h-40v-70Z"/>
    </g>
    <g class="cls-23">
      <path class="cls-12" d="m472.83,75h40v70h-40v-70Z"/>
    </g>
    <g class="cls-22">
      <path class="cls-13" d="m132.83,80h40v35h-40v-35Z"/>
    </g>
    <g class="cls-34">
      <path class="cls-12" d="m87.83,80h40v35h-40v-35Z"/>
    </g>
    <g class="cls-26">
      <path class="cls-12" d="m177.83,80h40v35h-40v-35Z"/>
    </g>
    <g class="cls-28">
      <path class="cls-11" d="m232.83,95h40v20h-40v-20Z"/>
    </g>
    <g class="cls-29">
      <path class="cls-11" d="m12.83,95h60v20H12.83v-20Z"/>
    </g>
    <g class="cls-16">
      <path class="cls-11" d="m537.83,75h40v80h-40v-80Z"/>
    </g>
    <g class="cls-35">
      <path class="cls-11" d="m297.83,75h60v80h-60v-80Z"/>
    </g>
    <g class="cls-33">
      <path class="cls-9" d="m152.83,63.82h122.87v-3.82l22.13,10-22.13,10v-3.82h-122.87v-12.36Z"/>
    </g>
    <g class="cls-15">
      <path class="cls-9" d="m497.83,9.76h85v20.24h-85V9.76Z"/>
    </g>
    <g class="cls-32">
      <path class="cls-5" d="m364,139.06c10.09,12.59,48.93,21.49,87.53,21.6h.7c30.95,0,61.86-5.7,73.27-16.51m-163.84-3.21c10.36,12.92,50,22.61,89.86,22.72h.71c31.82,0,63.45-6.09,75.44-17.39"/>
      <path class="cls-3" d="m525.83,153.09c1.91-5.4,4.24-9.76,7-13.09-3.31,2.77-7.67,5.12-13.06,7.04"/>
    </g>
    <g class="cls-25">
      <path class="cls-8" d="m537.83,115h40v20h-40v-20Z"/>
    </g>
    <g class="cls-19">
      <path class="cls-8" d="m297.83,119.78h40.2v-4.78l19.8,12.5-19.8,12.5v-4.78h-40.2v-15.44Z"/>
    </g>
  </g>
  <g id="Layer_4" data-name="Layer 4">
    <path class="cls-18" d="m290.59,113.92v1.28c0,1.02-.19,1.26-1.02,1.29l-1.05.05v.51q2.26-.05,2.67-.05t2.67.05v-.51l-.82-.05c-.83-.05-1.02-.27-1.02-1.29v-1.28c1,0,1.36.02,1.84.07v-1.21l-1.84.05.02-7.68-1.36.51-4.81,7.87v.39h4.73Zm0-1.09h-3.66l3.66-5.98v5.98Z"/>
    <path class="cls-18" d="m585.59,113.92v1.28c0,1.02-.19,1.26-1.02,1.29l-1.05.05v.51q2.26-.05,2.67-.05t2.67.05v-.51l-.82-.05c-.83-.05-1.02-.27-1.02-1.29v-1.28c1,0,1.36.02,1.84.07v-1.21l-1.84.05.02-7.68-1.36.51-4.81,7.87v.39h4.73Zm0-1.09h-3.66l3.66-5.98v5.98Z"/>
    <path class="cls-8" d="m414.68,167.08c1.57,0,2.67.29,3.81,1.02v1.71h.55c.1-1.16.27-2.04.55-2.98-1.69-.61-2.86-.84-4.26-.84-1.88,0-3.37.47-4.83,1.51-2.39,1.71-3.65,4.24-3.65,7.3,0,3.81,2.22,5.96,6.22,5.96,1.16.06,4.16-.49,5.16-1.12.41-3.18.49-3.65.51-3.71.04-.18.29-.39.55-.43l.65-.12.04-.57c-.8.08-1.51.1-2.55.1s-1.77-.02-2.63-.1l-.1.57.69.04c1.53.08,1.71.16,1.71.65,0,.31-.41,2.61-.51,3.1-.92.49-1.71.67-2.82.67-3.39,0-5.14-1.9-5.14-5.51,0-2.98,1.2-7.26,6.04-7.26Z"/>
    <g>
      <g>
        <path class="cls-14" d="m163.23,74.73l-3.6-3.58,3.6-3.58-.66-.64-3.56,3.58-3.58-3.58-.64.64,3.58,3.58-3.58,3.58.64.64,3.58-3.58,3.56,3.58.66-.64Z"/>
        <path class="cls-20" d="m171.44,72.53v1.15c0,.92-.17,1.13-.92,1.16l-.95.05v.46q2.03-.05,2.4-.05t2.4.05v-.46l-.73-.05c-.75-.05-.92-.24-.92-1.16v-1.15c.9,0,1.22.02,1.65.06v-1.09l-1.65.05.02-6.92-1.22.46-4.33,7.08v.35h4.25Zm0-.98h-3.29l3.29-5.39v5.39Z"/>
      </g>
      <path class="cls-14" d="m185.94,73.88c0,.36.11.62.63.62h3.31c.88,0,1.8-.01,2.59-.42,1.15-.58,1.3-1.65,1.3-2.17,0-1.39-1.01-2.13-2.4-2.31.32-.09,2-.41,2-2.04,0-.58-.23-1.22-.7-1.65-.85-.78-2.3-.78-3.21-.78h-2.88c-.57,0-.63.31-.63.62v8.13Zm1.85-.54v-3.21h2.03c1.81.07,2.16,1.03,2.16,1.71,0,.32-.09.63-.31.89-.42.49-1.11.61-2.05.61h-1.82Zm0-4.2v-2.85h1.42c.53,0,1.07.01,1.57.2.66.26.82.72.82,1.11s-.14.69-.39,1c-.62.51-1.19.54-2.15.54h-1.27Zm7.63,4.78c0,.26.05.58.61.58h.58c.23,0,.24-.01.38-.08.22-.18.24-.22.24-.59v-2.36c0-.18,0-.34.04-.51.14-.61.65-1.08,1.23-1.28.45-.15.69-.08.85-.2.05-.08.07-.09.07-.24v-.76c0-.19-.03-.3-.27-.3h-.01c-.24,0-1.26.09-1.97,1.09-.01-.68-.01-.69-.14-.84-.15-.15-.2-.18-.54-.18h-.45c-.28,0-.62.03-.62.61v5.06Zm4.62-2.44c0,2.54,1.57,3.17,3.31,3.17s3.28-.62,3.28-3.12c0-3.31-2.19-3.44-3.5-3.44-1.53,0-3.09.69-3.09,3.39Zm1.85.14v-.36c0-.93-.03-2.17,1.43-2.17s1.44,1.2,1.46,1.98v.36c-.01.9.03,2.17-1.44,2.17s-1.42-1.19-1.44-1.98Zm5.58,1.04c0,.92.68,2,1.97,2,1.11,0,1.78-.46,2.08-.69,0,.23.12.54.55.54h.65c.54,0,.61-.31.61-.61v-3.55c0-1.35-.62-2.25-2.79-2.25-.85,0-1.51.16-2.12.43-.3.15-.38.14-.38.35,0,0,.04.88.14,1.04l.05.04h.05c.3,0,.7-.92,2.25-.92.85,0,.96.62.96,1.26v.28c-1.2.01-4.02.24-4.02,2.08Zm1.77,0c0-1.05,1.43-1.22,2.25-1.28v1.05c0,1-.88,1.24-1.32,1.24-.58,0-.93-.53-.93-1.01Zm5.4-1.38c0,.45,0,.9.15,1.47.38,1.44,1.46,1.9,2.54,1.9.74,0,1.23-.23,1.71-.58.12.42.38.43.62.43h.62c.57,0,.61-.36.61-.62v-8.52c0-.28-.04-.61-.68-.61h-.54c-.53,0-.59.34-.59.59v3.31c-.49-.31-1.01-.49-1.69-.49-1.42,0-2.71.7-2.75,3.11Zm1.85.24v-.28c0-.82.01-2.08,1.5-2.08.63,0,.96.34,1.05.41v3.31c0,.41-.61.8-1.19.8-1.34,0-1.36-1.19-1.36-2.15Zm5.72-.09c0,2.38,1.34,3.23,3.21,3.23.89,0,1.59-.2,2.19-.51.15-.08.27-.14.27-.34v-.11c-.08-.89-.07-.88-.18-.95h-.07c-.28.03-.77.85-2.17.85s-1.4-1.26-1.4-2.11v-.26c0-.73.01-2.04,1.31-2.09.2,0,.65-.01,1.04.12.58.2.85.65,1.07.65.26,0,.32-1.05.32-1.05,0-.11-.03-.16-.11-.22-.77-.42-1.31-.55-2.19-.55-1.76,0-3.29.68-3.29,3.33Zm6.52,1.23c0,.92.68,2,1.97,2,1.11,0,1.78-.46,2.08-.69,0,.23.12.54.55.54h.65c.54,0,.61-.31.61-.61v-3.55c0-1.35-.62-2.25-2.79-2.25-.85,0-1.51.16-2.12.43-.3.15-.38.14-.38.35,0,0,.04.88.14,1.04l.05.04h.05c.3,0,.7-.92,2.25-.92.85,0,.96.62.96,1.26v.28c-1.2.01-4.02.24-4.02,2.08Zm1.77,0c0-1.05,1.43-1.22,2.25-1.28v1.05c0,1-.88,1.24-1.32,1.24-.58,0-.93-.53-.93-1.01Zm5.33,1.17s.01.07.03.11l.05.07c.34.22,1.22.65,2.42.65,1.34,0,2.43-.41,2.43-2.04,0-1.09-.81-1.63-1.19-1.82-.84-.43-2.34-.27-2.34-1.07,0-.51.45-.65,1-.65,1.31,0,1.67.73,1.96.73.07,0,.12-.05.16-.2.08-.46.14-.7.14-.85,0-.19-.08-.23-.32-.32-.5-.2-1.01-.32-1.65-.34h-.35c-1.13.03-2.27.39-2.27,1.94,0,1.09.9,1.63,1.4,1.82.77.28,2.11.18,2.11,1.01,0,.57-.45.72-1.05.72-1.44,0-1.93-1.01-2.17-1.01-.16,0-.18.22-.19.31-.11.59-.16.82-.16.95Zm5.56-5.02c0,.15.05.5.59.5h.28v3.15c0,.42,0,.82.12,1.23.23.74.74.97,1.28.97,1,0,2.46-.43,2.46-.78,0,0-.11-.74-.31-.74-.18,0-.58.47-1.22.47-.38,0-.57-.24-.57-1.24,0-.12.01-.23.01-.35v-2.7h1.26c.51-.01.58-.35.58-.49,0-.12-.07-.5-.61-.5h-1.23v-1.16c0-.32-.14-.61-.61-.61h-.49c-.23,0-.65.01-.65.61v1.16h-.32c-.54,0-.59.34-.59.49Zm5.93-2.75c0,.54.31.62.62.62h.7c.12-.01.59.01.59-.59v-.7c0-.54-.31-.62-.62-.62h-.69c-.26.01-.61,0-.61.62v.68Zm.05,7.78c0,.23-.01.68.59.68h.62c.61,0,.59-.45.59-.61v-4.9c0-.35-.03-.68-.66-.68h-.55c-.61,0-.59.45-.59.61v4.9Zm3.43.07c0,.53.32.61.63.61h.59c.62,0,.62-.72.62-.72v-2.81c0-.24.01-.49.08-.73.12-.42.55-1.09,1.39-1.09s.8.55.8,1.05v3.7c0,.34.09.59.62.59h.63c.55,0,.58-.38.58-.59v-3.56c0-.97,0-2.17-2-2.17-1.09,0-1.71.46-2.19.93v-.27c0-.58-.38-.58-.62-.58h-.54c-.26,0-.61.04-.61.61v5.04Zm7.1,1.49c0,.24.05.49.16.7.58,1.2,2.39,1.2,3.21,1.2.72,0,1.44-.03,2.12-.28.93-.35,1.24-.99,1.24-1.65,0-2.04-1.8-2.09-3.43-2.09h-1.16c-.69,0-.8-.41-.8-.65,0-.07.01-.16.04-.26.58.23,1.01.27,1.55.27,1.98,0,2.73-.89,2.73-2.23,0-.76-.27-1.15-.32-1.26h.35c.55-.01.84.05.93.05.14,0,.24-.05.23-.26-.11-.66-.09-.77-.39-.77-.86,0-1.61.34-1.74.34-.2,0-.5-.34-1.73-.34h-.04c-2.38,0-2.73,1.35-2.73,2.24,0,.72.26,1.17.54,1.5v.03c-.22.32-.36.69-.36,1.11,0,.45.16.78.35,1.07-.66.36-.76.95-.76,1.27Zm1.39-.03c0-.66.55-.62.77-.62h1.32c1.22,0,1.86.14,1.86.68,0,.36-.3.9-1.9.9h-.05c-1.05,0-2-.19-2-.96Zm.58-4.85v-.22c0-.81.19-1.15,1.01-1.15s.96.46.96,1.15v.22c0,.8-.18,1.15-1.01,1.15s-.96-.51-.96-1.15Z"/>
    </g>
    <path class="cls-10" d="m494.59,98.92v1.28c0,1.02-.19,1.26-1.02,1.29l-1.05.05v.51q2.26-.05,2.67-.05t2.67.05v-.51l-.82-.05c-.83-.05-1.02-.27-1.02-1.29v-1.28c1,0,1.36.02,1.84.07v-1.21l-1.84.05.02-7.68-1.36.51-4.81,7.87v.39h4.73Zm0-1.09h-3.66l3.66-5.98v5.98Z"/>
    <path class="cls-10" d="m404.59,98.92v1.28c0,1.02-.19,1.26-1.02,1.29l-1.05.05v.51q2.26-.05,2.67-.05t2.67.05v-.51l-.82-.05c-.83-.05-1.02-.27-1.02-1.29v-1.28c1,0,1.36.02,1.84.07v-1.21l-1.84.05.02-7.68-1.36.51-4.81,7.87v.39h4.73Zm0-1.09h-3.66l3.66-5.98v5.98Z"/>
    <path class="cls-10" d="m407.68,128.19c0-2.06-1.82-2.41-2.62-2.55,1.36-1.05,1.87-1.84,1.87-2.84,0-1.51-1.26-2.52-3.15-2.52-1.16,0-1.92.32-2.74,1.14l-.49,2.11h.53l.31-.95c.19-.58,1.26-1.16,2.14-1.16,1.11,0,2.01.9,2.01,1.97,0,1.28-1,2.35-2.21,2.35-.14,0-.32-.02-.54-.03l-.26-.02-.2.9.12.1c.65-.29.97-.37,1.43-.37,1.41,0,2.23.9,2.23,2.45,0,1.73-1.04,2.87-2.62,2.87-.78,0-1.48-.26-1.99-.73-.41-.37-.63-.77-.95-1.68l-.46.17c.36,1.04.49,1.65.6,2.5.9.31,1.65.44,2.28.44,2.09,0,4.73-1.82,4.73-4.15Z"/>
    <path class="cls-10" d="m448.68,123.08c1.57,0,2.67.29,3.81,1.02v1.71h.55c.1-1.16.27-2.04.55-2.98-1.69-.61-2.86-.84-4.26-.84-1.88,0-3.37.47-4.83,1.51-2.39,1.71-3.65,4.24-3.65,7.3,0,3.81,2.22,5.96,6.22,5.96,1.16.06,4.16-.49,5.16-1.12.41-3.18.49-3.65.51-3.71.04-.18.29-.39.55-.43l.65-.12.04-.57c-.8.08-1.51.1-2.55.1s-1.77-.02-2.63-.1l-.1.57.69.04c1.53.08,1.71.16,1.71.65,0,.31-.41,2.61-.51,3.1-.92.49-1.71.67-2.82.67-3.39,0-5.14-1.9-5.14-5.51,0-2.98,1.2-7.26,6.04-7.26Z"/>
    <path class="cls-10" d="m195.1,101.61v.44c3.18,0,3.18-.05,3.79-.05s.61.05,3.89.05v-1.45c-1.96.09-2.74.02-5.88.09l3.09-3.28c1.65-1.75,2.16-2.69,2.16-3.96,0-1.96-1.33-3.16-3.49-3.16-1.22,0-2.06.34-2.89,1.19l-.29,2.31h.49l.22-.78c.27-.99.88-1.41,2.02-1.41,1.46,0,2.4.92,2.4,2.36,0,1.28-.71,2.53-2.64,4.57l-2.89,3.08Z"/>
    <path class="cls-10" d="m112.68,98.19c0-2.06-1.82-2.41-2.62-2.55,1.36-1.05,1.87-1.84,1.87-2.84,0-1.51-1.26-2.52-3.15-2.52-1.16,0-1.92.32-2.74,1.14l-.49,2.11h.53l.31-.95c.19-.58,1.26-1.16,2.14-1.16,1.11,0,2.01.9,2.01,1.97,0,1.28-1,2.35-2.21,2.35-.14,0-.32-.02-.54-.03l-.26-.02-.2.9.12.1c.65-.29.97-.37,1.43-.37,1.41,0,2.23.9,2.23,2.45,0,1.73-1.04,2.87-2.62,2.87-.78,0-1.48-.26-1.99-.73-.41-.37-.63-.77-.95-1.68l-.46.17c.36,1.04.49,1.65.6,2.5.9.31,1.65.44,2.28.44,2.09,0,4.73-1.82,4.73-4.15Z"/>
    <path class="cls-10" d="m153.68,93.08c1.57,0,2.67.29,3.81,1.02v1.71h.55c.1-1.16.27-2.04.55-2.98-1.69-.61-2.86-.84-4.26-.84-1.88,0-3.37.47-4.83,1.51-2.39,1.71-3.65,4.24-3.65,7.3,0,3.81,2.22,5.96,6.22,5.96,1.16.06,4.16-.49,5.16-1.12.41-3.18.49-3.65.51-3.71.04-.18.29-.39.55-.43l.65-.12.04-.57c-.8.08-1.51.1-2.55.1s-1.77-.02-2.63-.1l-.1.57.69.04c1.53.08,1.71.16,1.71.65,0,.31-.41,2.61-.51,3.1-.92.49-1.71.67-2.82.67-3.39,0-5.14-1.9-5.14-5.51,0-2.98,1.2-7.26,6.04-7.26Z"/>
    <path class="cls-10" d="m43.68,88.19c0-2.06-1.82-2.41-2.62-2.55,1.36-1.05,1.87-1.84,1.87-2.84,0-1.51-1.26-2.52-3.15-2.52-1.16,0-1.92.32-2.74,1.14l-.49,2.11h.53l.31-.95c.19-.58,1.26-1.16,2.14-1.16,1.11,0,2.01.9,2.01,1.97,0,1.28-1,2.35-2.21,2.35-.14,0-.32-.02-.54-.03l-.26-.02-.2.9.12.1c.65-.29.97-.37,1.43-.37,1.41,0,2.23.9,2.23,2.45,0,1.73-1.04,2.87-2.62,2.87-.78,0-1.48-.26-1.99-.73-.41-.37-.63-.77-.95-1.68l-.46.17c.36,1.04.49,1.65.6,2.5.9.31,1.65.44,2.28.44,2.09,0,4.73-1.82,4.73-4.15Z"/>
    <path class="cls-10" d="m328.68,68.19c0-2.06-1.82-2.41-2.62-2.55,1.36-1.05,1.87-1.84,1.87-2.84,0-1.51-1.26-2.52-3.15-2.52-1.16,0-1.92.32-2.74,1.14l-.49,2.11h.53l.31-.95c.19-.58,1.26-1.16,2.14-1.16,1.11,0,2.01.9,2.01,1.97,0,1.28-1,2.35-2.21,2.35-.14,0-.32-.02-.54-.03l-.26-.02-.2.9.12.1c.65-.29.97-.37,1.43-.37,1.41,0,2.23.9,2.23,2.45,0,1.73-1.04,2.87-2.62,2.87-.78,0-1.48-.26-1.99-.73-.41-.37-.63-.77-.95-1.68l-.46.17c.36,1.04.49,1.65.6,2.5.9.31,1.65.44,2.28.44,2.09,0,4.73-1.82,4.73-4.15Z"/>
    <g>
      <g>
        <path class="cls-10" d="m16.19,25.5h1.01l1.03-2.75h3.92l1.04,2.75h1.24l-3.51-9.37h-1.2l-3.52,9.37Zm2.32-3.51c1.07-2.92,1.57-4.41,1.67-4.91.08.5.45,1.51,1.67,4.91h-3.35Zm7.4,3.51h1.05v-3.24c0-1,.34-2.08,1.38-2.08,1.32,0,1.32,1.01,1.32,1.53v3.79h1.05v-3.89c0-.95-.12-2.25-1.85-2.25-1.19,0-1.78.77-1.97,1.01v-.95h-.99v6.08Zm10.8-2.98c0,1.84,1.42,3.13,2.96,3.13s2.97-1.28,2.97-3.12c0-1.69-1.24-3.25-2.97-3.25-1.59,0-2.96,1.4-2.96,3.24Zm1.05-.14c0-1.63,1.04-2.27,1.9-2.27s1.9.62,1.9,2.27-1,2.4-1.9,2.4-1.9-.7-1.9-2.4Zm6.39,5.75h1.05v-3.25c.45.42,1.03.77,1.82.77,1.31,0,2.51-1.27,2.51-3.17,0-1.61-.85-3.12-2.13-3.12-.46,0-1.38.09-2.24.8v-.66h-1.01v8.64Zm1.05-4.33v-2.81c.08-.09.54-.77,1.43-.77,1.11,0,1.84,1.09,1.84,2.28,0,1.43-1.01,2.32-1.96,2.32-.8,0-1.31-.7-1.31-1.03Zm5.67-1.35c0,1.67,1.17,3.2,2.94,3.2.85,0,1.55-.3,2.13-.69l-.08-.89c-.59.43-1.2.74-2.05.74-1.03,0-1.94-.89-2-2.28h4.19v-.39c-.12-2.31-1.44-2.86-2.4-2.86-1.43,0-2.73,1.36-2.73,3.17Zm1.01-.66c.15-.66.69-1.67,1.71-1.67.39,0,1.4.18,1.63,1.67h-3.35Zm5.62,3.71h1.01v-2.78c0-1.97,1.5-2.43,2.3-2.46v-.9c-1.43.03-2.15.95-2.36,1.28v-1.22h-.95v6.08Zm4.12-1.53c0,.62.41,1.67,1.54,1.67,1.49,0,2.23-.61,2.24-.62v.47h1.03v-4.12c-.07-1.13-.96-2.11-2.24-2.11-.85,0-1.47.22-2.12.59l.08.9c.45-.31,1.01-.69,2.03-.69.18,0,.53.01.85.41.34.41.34.86.35,1.24v.46c-1.39.01-3.75.35-3.75,1.78Zm.99-.01c0-.85,1.8-1.05,2.77-1.07v.85c0,.88-.93,1.07-1.51,1.07-.73,0-1.26-.36-1.26-.85Zm5.14-3.67h1.13v3.63c0,1.49.66,1.73,1.11,1.73.61,0,1.3-.14,2-.51l-.22-.8c-.19.14-.61.45-1.19.45-.7,0-.73-.8-.73-1.17v-3.32h1.9v-.8h-1.9v-1.7h-.95v1.7h-1.16v.8Zm5.72,5.21h1.01v-6.01h-1.01v6.01Zm-.09-7.97h1.22v-1.2h-1.22v1.2Zm2.63,4.98c0,1.84,1.42,3.13,2.96,3.13s2.97-1.28,2.97-3.12c0-1.69-1.24-3.25-2.97-3.25-1.59,0-2.96,1.4-2.96,3.24Zm1.05-.14c0-1.63,1.04-2.27,1.9-2.27s1.9.62,1.9,2.27-1,2.4-1.9,2.4-1.9-.7-1.9-2.4Zm6.37,3.12h1.05v-3.24c0-1,.34-2.08,1.38-2.08,1.32,0,1.32,1.01,1.32,1.53v3.79h1.05v-3.89c0-.95-.12-2.25-1.85-2.25-1.19,0-1.78.77-1.97,1.01v-.95h-.99v6.08Zm10.8-2.98c0,1.84,1.42,3.13,2.96,3.13s2.97-1.28,2.97-3.12c0-1.69-1.24-3.25-2.97-3.25-1.59,0-2.96,1.4-2.96,3.24Zm1.05-.14c0-1.63,1.04-2.27,1.9-2.27s1.9.62,1.9,2.27-1,2.4-1.9,2.4-1.9-.7-1.9-2.4Zm5.48-2.89l2.32,6.01h1.19l2.32-6.01h-1c-1.31,3.4-1.81,4.79-1.89,5.33-.07-.42-.15-.63-.65-2.04l-1.26-3.29h-1.04Zm6.49,2.96c0,1.67,1.17,3.2,2.94,3.2.85,0,1.55-.3,2.13-.69l-.08-.89c-.59.43-1.2.74-2.05.74-1.03,0-1.94-.89-2-2.28h4.19v-.39c-.12-2.31-1.44-2.86-2.4-2.86-1.43,0-2.73,1.36-2.73,3.17Zm1.01-.66c.15-.66.69-1.67,1.71-1.67.39,0,1.4.18,1.63,1.67h-3.35Zm5.62,3.71h1.01v-2.78c0-1.97,1.5-2.43,2.3-2.46v-.9c-1.43.03-2.15.95-2.36,1.28v-1.22h-.95v6.08Zm8.61-1.53c0,.62.41,1.67,1.54,1.67,1.49,0,2.23-.61,2.24-.62v.47h1.03v-4.12c-.07-1.13-.96-2.11-2.24-2.11-.85,0-1.47.22-2.12.59l.08.9c.45-.31,1.01-.69,2.03-.69.18,0,.53.01.85.41.34.41.34.86.35,1.24v.46c-1.39.01-3.75.35-3.75,1.78Zm.99-.01c0-.85,1.8-1.05,2.77-1.07v.85c0,.88-.93,1.07-1.51,1.07-.73,0-1.26-.36-1.26-.85Zm9.76,1.08c1.01.55,1.84.61,2.3.61,1.81,0,2.2-1.12,2.2-1.86,0-.88-.62-1.44-1.17-1.69-.84-.38-2.28-.2-2.28-1.19,0-.34.2-.82,1.13-.82s1.4.24,1.94.5l.15-.89c-.74-.31-1.22-.42-1.97-.42-1.84,0-2.21,1.07-2.21,1.78,0,.95.81,1.47,1.4,1.66.42.14,1,.2,1.3.3.27.08.76.35.76.86,0,.36-.24.92-1.26.92-1.09,0-1.74-.46-2.12-.68l-.16.92Zm5.9.46h1.01v-6.01h-1.01v6.01Zm-.09-7.97h1.22v-1.2h-1.22v1.2Zm3.31,7.97h1.05v-3.24c0-1,.34-2.08,1.38-2.08,1.32,0,1.32,1.01,1.32,1.53v3.79h1.05v-3.89c0-.95-.12-2.25-1.85-2.25-1.19,0-1.78.77-1.97,1.01v-.95h-.99v6.08Zm6.26.96c0,1.04,1.34,1.82,3,1.82s3-.78,3-1.84c0-.16-.03-.34-.07-.5-.38-1.35-2.03-1.38-2.92-1.38h-1.01c-.65,0-.76-.46-.76-.72,0-.09.01-.23.15-.5.3.19.63.41,1.23.41,1.26,0,2.16-1.05,2.16-2.2,0-.58-.18-.97-.53-1.44l.12.11c.24-.01.66-.05,1.01-.05.27,0,.53.01.8.04l-.15-.85c-.73,0-1.44.14-2.12.42l.03.03c-.45-.31-.82-.45-1.32-.45-1.11,0-2.15.89-2.15,2.2,0,.27.04.81.45,1.34h0c-.24.34-.39.7-.39,1.15s.12.72.34,1.03c-.53.31-.86.84-.86,1.39Zm.95,0c0-.39.3-.85.85-.9h.39s.85-.01.85-.01c1.46,0,2.01.38,2.01.93,0,.62-.97,1.04-2.07,1.04-.74,0-2.04-.3-2.04-1.05Zm.47-4.9c0-1.15.72-1.43,1.2-1.43.73,0,1.22.54,1.22,1.42,0,1.15-.72,1.43-1.2,1.43-.73,0-1.22-.54-1.22-1.42Zm6.06,3.94h1.01v-9.75h-1.01v9.75Zm2.59-3.05c0,1.67,1.17,3.2,2.94,3.2.85,0,1.55-.3,2.13-.69l-.08-.89c-.59.43-1.2.74-2.05.74-1.03,0-1.94-.89-2-2.28h4.19v-.39c-.12-2.31-1.44-2.86-2.4-2.86-1.43,0-2.73,1.36-2.73,3.17Zm1.01-.66c.15-.66.69-1.67,1.71-1.67.39,0,1.4.18,1.63,1.67h-3.35Z"/>
        <path class="cls-10" d="m175.8,22.87c0-1.85-1.64-2.17-2.36-2.3,1.22-.95,1.68-1.65,1.68-2.56,0-1.36-1.13-2.26-2.83-2.26-1.04,0-1.73.29-2.46,1.03l-.44,1.9h.47l.28-.86c.17-.52,1.13-1.04,1.93-1.04.99,0,1.81.81,1.81,1.77,0,1.15-.9,2.11-1.99,2.11-.12,0-.29-.02-.49-.03l-.23-.02-.18.81.11.09c.58-.26.87-.34,1.29-.34,1.27,0,2,.81,2,2.2,0,1.56-.93,2.59-2.36,2.59-.7,0-1.33-.23-1.79-.66-.37-.34-.57-.69-.86-1.51l-.41.15c.32.93.44,1.48.54,2.25.81.28,1.48.4,2.05.4,1.88,0,4.25-1.64,4.25-3.73Z"/>
        <path class="cls-10" d="m176.51,22.89h3.59v-.8h-3.59v.8Zm5.45,2.61h1.01v-9.75h-1.01v9.75Zm2.59-3.05c0,1.67,1.17,3.2,2.94,3.2.85,0,1.55-.3,2.13-.69l-.08-.89c-.59.43-1.2.74-2.05.74-1.03,0-1.94-.89-2-2.28h4.19v-.39c-.12-2.31-1.44-2.86-2.4-2.86-1.43,0-2.73,1.36-2.73,3.17Zm1.01-.66c.15-.66.69-1.67,1.71-1.67.39,0,1.4.18,1.63,1.67h-3.35Zm5.6,3.71h1.05v-3.24c0-1,.34-2.08,1.38-2.08,1.32,0,1.32,1.01,1.32,1.53v3.79h1.05v-3.89c0-.95-.12-2.25-1.85-2.25-1.19,0-1.78.77-1.97,1.01v-.95h-.99v6.08Zm6.26.96c0,1.04,1.34,1.82,3,1.82s3-.78,3-1.84c0-.16-.03-.34-.07-.5-.38-1.35-2.03-1.38-2.92-1.38h-1.01c-.65,0-.76-.46-.76-.72,0-.09.01-.23.15-.5.3.19.63.41,1.23.41,1.26,0,2.16-1.05,2.16-2.2,0-.58-.18-.97-.53-1.44l.12.11c.24-.01.66-.05,1.01-.05.27,0,.53.01.8.04l-.15-.85c-.73,0-1.44.14-2.12.42l.03.03c-.45-.31-.82-.45-1.32-.45-1.11,0-2.15.89-2.15,2.2,0,.27.04.81.45,1.34h0c-.24.34-.39.7-.39,1.15s.12.72.34,1.03c-.53.31-.86.84-.86,1.39Zm.95,0c0-.39.3-.85.85-.9h.39s.85-.01.85-.01c1.46,0,2.01.38,2.01.93,0,.62-.97,1.04-2.07,1.04-.74,0-2.04-.3-2.04-1.05Zm.47-4.9c0-1.15.72-1.43,1.2-1.43.73,0,1.22.54,1.22,1.42,0,1.15-.72,1.43-1.2,1.43-.73,0-1.22-.54-1.22-1.42Zm5.21-1.27h1.13v3.63c0,1.49.66,1.73,1.11,1.73.61,0,1.3-.14,2-.51l-.22-.8c-.19.14-.61.45-1.19.45-.7,0-.73-.8-.73-1.17v-3.32h1.9v-.8h-1.9v-1.7h-.95v1.7h-1.16v.8Zm5.71,5.21h1.05v-3.24c0-1,.34-2.08,1.38-2.08,1.32,0,1.32,1.01,1.32,1.53v3.79h1.05v-3.89c0-.82-.05-2.25-1.85-2.25-.93,0-1.51.45-1.94.96v-4.56h-1.01v9.75Zm11.49,0h1.01v-2.78c0-1.97,1.5-2.43,2.3-2.46v-.9c-1.43.03-2.15.95-2.36,1.28v-1.22h-.95v6.08Zm3.93-2.98c0,1.84,1.42,3.13,2.96,3.13s2.97-1.28,2.97-3.12c0-1.69-1.24-3.25-2.97-3.25-1.59,0-2.96,1.4-2.96,3.24Zm1.05-.14c0-1.63,1.04-2.27,1.9-2.27s1.9.62,1.9,2.27-1,2.4-1.9,2.4-1.9-.7-1.9-2.4Zm5.1-2.89l1.86,6.01h1.07c.53-1.74,1.39-4.47,1.43-5.32.14,1,.24,1.36,1.44,5.32h1.17l1.86-6.01h-.99c-1.12,3.66-1.44,4.81-1.5,5.33-.05-.42-.12-.62-.51-2.04l-.99-3.29h-.96c-.46,1.49-1.39,4.48-1.43,5.33-.07-.51-.12-1.07-1.46-5.33h-1.01Zm14.62,6.01h1.01v-6.01h-1.01v6.01Zm-.09-7.97h1.22v-1.2h-1.22v1.2Zm2.59,7.51c1.01.55,1.84.61,2.3.61,1.81,0,2.2-1.12,2.2-1.86,0-.88-.62-1.44-1.17-1.69-.84-.38-2.28-.2-2.28-1.19,0-.34.2-.82,1.13-.82s1.4.24,1.94.5l.15-.89c-.74-.31-1.22-.42-1.97-.42-1.84,0-2.21,1.07-2.21,1.78,0,.95.81,1.47,1.4,1.66.42.14,1,.2,1.3.3.27.08.76.35.76.86,0,.36-.24.92-1.26.92-1.09,0-1.74-.46-2.12-.68l-.16.92Zm9.9-1.07c0,.62.41,1.67,1.54,1.67,1.49,0,2.23-.61,2.24-.62v.47h1.03v-4.12c-.07-1.13-.96-2.11-2.24-2.11-.85,0-1.47.22-2.12.59l.08.9c.45-.31,1.01-.69,2.03-.69.18,0,.53.01.85.41.34.41.34.86.35,1.24v.46c-1.39.01-3.75.35-3.75,1.78Zm.99-.01c0-.85,1.8-1.05,2.77-1.07v.85c0,.88-.93,1.07-1.51,1.07-.73,0-1.26-.36-1.26-.85Zm5.99,4.17h1.05v-3.25c.45.42,1.03.77,1.82.77,1.31,0,2.51-1.27,2.51-3.17,0-1.61-.85-3.12-2.13-3.12-.46,0-1.38.09-2.24.8v-.66h-1.01v8.64Zm1.05-4.33v-2.81c.08-.09.54-.77,1.43-.77,1.11,0,1.84,1.09,1.84,2.28,0,1.43-1.01,2.32-1.96,2.32-.8,0-1.31-.7-1.31-1.03Zm5.93,4.33h1.05v-3.25c.45.42,1.03.77,1.82.77,1.31,0,2.51-1.27,2.51-3.17,0-1.61-.85-3.12-2.13-3.12-.46,0-1.38.09-2.24.8v-.66h-1.01v8.64Zm1.05-4.33v-2.81c.08-.09.54-.77,1.43-.77,1.11,0,1.84,1.09,1.84,2.28,0,1.43-1.01,2.32-1.96,2.32-.8,0-1.31-.7-1.31-1.03Zm5.93,1.7h1.01v-9.75h-1.01v9.75Zm3.23,0h1.01v-6.01h-1.01v6.01Zm-.09-7.97h1.22v-1.2h-1.22v1.2Zm2.69,4.91c0,1.67,1.17,3.2,2.94,3.2.85,0,1.55-.3,2.13-.69l-.08-.89c-.59.43-1.2.74-2.05.74-1.03,0-1.94-.89-2-2.28h4.19v-.39c-.12-2.31-1.44-2.86-2.4-2.86-1.43,0-2.73,1.36-2.73,3.17Zm1.01-.66c.15-.66.69-1.67,1.71-1.67.39,0,1.4.18,1.63,1.67h-3.35Zm5,.73c0,1.61.95,3.13,2.32,3.13.89,0,1.54-.41,2-.85v.7h1.07v-9.75h-1.03v4.33c-.47-.38-1.11-.74-1.96-.74-1.34,0-2.4,1.39-2.4,3.17Zm1.05-.01c0-1.77,1.17-2.32,1.96-2.32h.03c.15,0,.58.01,1,.41.24.23.28.31.28.53v2.58c0,.42-.63,1.12-1.44,1.12-.73,0-1.82-.53-1.82-2.31Zm11.04,3h1.01v-6.01h-1.01v6.01Zm-.09-7.97h1.22v-1.2h-1.22v1.2Zm3.31,7.97h1.05v-3.24c0-1,.34-2.08,1.38-2.08,1.32,0,1.32,1.01,1.32,1.53v3.79h1.05v-3.89c0-.95-.12-2.25-1.85-2.25-1.19,0-1.78.77-1.97,1.01v-.95h-.99v6.08Zm11.49,2.63h1.05v-3.25c.45.42,1.03.77,1.82.77,1.31,0,2.51-1.27,2.51-3.17,0-1.61-.85-3.12-2.13-3.12-.46,0-1.38.09-2.24.8v-.66h-1.01v8.64Zm1.05-4.33v-2.81c.08-.09.54-.77,1.43-.77,1.11,0,1.84,1.09,1.84,2.28,0,1.43-1.01,2.32-1.96,2.32-.8,0-1.31-.7-1.31-1.03Zm5.43.18c0,.62.41,1.67,1.54,1.67,1.49,0,2.23-.61,2.24-.62v.47h1.03v-4.12c-.07-1.13-.96-2.11-2.24-2.11-.85,0-1.47.22-2.12.59l.08.9c.45-.31,1.01-.69,2.03-.69.18,0,.53.01.85.41.34.41.34.86.35,1.24v.46c-1.39.01-3.75.35-3.75,1.78Zm.99-.01c0-.85,1.8-1.05,2.77-1.07v.85c0,.88-.93,1.07-1.51,1.07-.73,0-1.26-.36-1.26-.85Zm5.62,1.54h1.01v-2.78c0-1.97,1.5-2.43,2.3-2.46v-.9c-1.43.03-2.15.95-2.36,1.28v-1.22h-.95v6.08Zm4.12-1.53c0,.62.41,1.67,1.54,1.67,1.49,0,2.23-.61,2.24-.62v.47h1.03v-4.12c-.07-1.13-.96-2.11-2.24-2.11-.85,0-1.47.22-2.12.59l.08.9c.45-.31,1.01-.69,2.03-.69.18,0,.53.01.85.41.34.41.34.86.35,1.24v.46c-1.39.01-3.75.35-3.75,1.78Zm.99-.01c0-.85,1.8-1.05,2.77-1.07v.85c0,.88-.93,1.07-1.51,1.07-.73,0-1.26-.36-1.26-.85Zm5.99,1.54h1.01v-9.75h-1.01v9.75Zm3.23,0h1.01v-9.75h-1.01v9.75Zm2.59-3.05c0,1.67,1.17,3.2,2.94,3.2.85,0,1.55-.3,2.13-.69l-.08-.89c-.59.43-1.2.74-2.05.74-1.03,0-1.94-.89-2-2.28h4.19v-.39c-.12-2.31-1.44-2.86-2.4-2.86-1.43,0-2.73,1.36-2.73,3.17Zm1.01-.66c.15-.66.69-1.67,1.71-1.67.39,0,1.4.18,1.63,1.67h-3.35Zm5.62,3.71h1.01v-9.75h-1.01v9.75Zm7.03-2.98c0,1.84,1.42,3.13,2.96,3.13s2.97-1.28,2.97-3.12c0-1.69-1.24-3.25-2.97-3.25-1.59,0-2.96,1.4-2.96,3.24Zm1.05-.14c0-1.63,1.04-2.27,1.9-2.27s1.9.62,1.9,2.27-1,2.4-1.9,2.4-1.9-.7-1.9-2.4Zm5.48-2.89l2.32,6.01h1.19l2.32-6.01h-1c-1.31,3.4-1.81,4.79-1.89,5.33-.07-.42-.15-.63-.65-2.04l-1.26-3.29h-1.04Zm6.49,2.96c0,1.67,1.17,3.2,2.94,3.2.85,0,1.55-.3,2.13-.69l-.08-.89c-.59.43-1.2.74-2.05.74-1.03,0-1.94-.89-2-2.28h4.19v-.39c-.12-2.31-1.44-2.86-2.4-2.86-1.43,0-2.73,1.36-2.73,3.17Zm1.01-.66c.15-.66.69-1.67,1.71-1.67.39,0,1.4.18,1.63,1.67h-3.35Zm5.62,3.71h1.01v-2.78c0-1.97,1.5-2.43,2.3-2.46v-.9c-1.43.03-2.15.95-2.36,1.28v-1.22h-.95v6.08Z"/>
        <path class="cls-10" d="m393.55,23.53v1.15c0,.92-.17,1.13-.92,1.16l-.95.05v.46q2.03-.05,2.4-.05t2.4.05v-.46l-.73-.05c-.75-.05-.92-.24-.92-1.16v-1.15c.9,0,1.22.02,1.65.06v-1.09l-1.65.05.02-6.92-1.22.46-4.33,7.08v.35h4.25Zm0-.98h-3.29l3.29-5.39v5.39Z"/>
        <path class="cls-10" d="m401.77,25.04c1.01.55,1.84.61,2.3.61,1.81,0,2.2-1.12,2.2-1.86,0-.88-.62-1.44-1.17-1.69-.84-.38-2.28-.2-2.28-1.19,0-.34.2-.82,1.13-.82s1.4.24,1.94.5l.15-.89c-.74-.31-1.22-.42-1.97-.42-1.84,0-2.21,1.07-2.21,1.78,0,.95.81,1.47,1.4,1.66.42.14,1,.2,1.3.3.27.08.76.35.76.86,0,.36-.24.92-1.26.92-1.09,0-1.74-.46-2.12-.68l-.16.92Zm5.27-2.59c0,1.67,1.17,3.2,2.94,3.2.85,0,1.55-.3,2.13-.69l-.08-.89c-.59.43-1.2.74-2.05.74-1.03,0-1.94-.89-2-2.28h4.19v-.39c-.12-2.31-1.44-2.86-2.4-2.86-1.43,0-2.73,1.36-2.73,3.17Zm1.01-.66c.15-.66.69-1.67,1.71-1.67.39,0,1.4.18,1.63,1.67h-3.35Zm5.62,6.35h1.05v-3.25c.45.42,1.03.77,1.82.77,1.31,0,2.51-1.27,2.51-3.17,0-1.61-.85-3.12-2.13-3.12-.46,0-1.38.09-2.24.8v-.66h-1.01v8.64Zm1.05-4.33v-2.81c.08-.09.54-.77,1.43-.77,1.11,0,1.84,1.09,1.84,2.28,0,1.43-1.01,2.32-1.96,2.32-.8,0-1.31-.7-1.31-1.03Zm5.43.18c0,.62.41,1.67,1.54,1.67,1.49,0,2.23-.61,2.24-.62v.47h1.03v-4.12c-.07-1.13-.96-2.11-2.24-2.11-.85,0-1.47.22-2.12.59l.08.9c.45-.31,1.01-.69,2.03-.69.18,0,.53.01.85.41.34.41.34.86.35,1.24v.46c-1.39.01-3.75.35-3.75,1.78Zm.99-.01c0-.85,1.8-1.05,2.77-1.07v.85c0,.88-.93,1.07-1.51,1.07-.73,0-1.26-.36-1.26-.85Zm5.62,1.54h1.01v-2.78c0-1.97,1.5-2.43,2.3-2.46v-.9c-1.43.03-2.15.95-2.36,1.28v-1.22h-.95v6.08Zm4.12-1.53c0,.62.41,1.67,1.54,1.67,1.49,0,2.23-.61,2.24-.62v.47h1.03v-4.12c-.07-1.13-.96-2.11-2.24-2.11-.85,0-1.47.22-2.12.59l.08.9c.45-.31,1.01-.69,2.03-.69.18,0,.53.01.85.41.34.41.34.86.35,1.24v.46c-1.39.01-3.75.35-3.75,1.78Zm.99-.01c0-.85,1.8-1.05,2.77-1.07v.85c0,.88-.93,1.07-1.51,1.07-.73,0-1.26-.36-1.26-.85Zm5.14-3.67h1.13v3.63c0,1.49.66,1.73,1.11,1.73.61,0,1.3-.14,2-.51l-.22-.8c-.19.14-.61.45-1.19.45-.7,0-.73-.8-.73-1.17v-3.32h1.9v-.8h-1.9v-1.7h-.95v1.7h-1.16v.8Zm5.09,2.16c0,1.67,1.17,3.2,2.94,3.2.85,0,1.55-.3,2.13-.69l-.08-.89c-.59.43-1.2.74-2.05.74-1.03,0-1.94-.89-2-2.28h4.19v-.39c-.12-2.31-1.44-2.86-2.4-2.86-1.43,0-2.73,1.36-2.73,3.17Zm1.01-.66c.15-.66.69-1.67,1.71-1.67.39,0,1.4.18,1.63,1.67h-3.35Zm10.11,3.71h1.01v-2.78c0-1.97,1.5-2.43,2.3-2.46v-.9c-1.43.03-2.15.95-2.36,1.28v-1.22h-.95v6.08Zm3.93-2.98c0,1.84,1.42,3.13,2.96,3.13s2.97-1.28,2.97-3.12c0-1.69-1.24-3.25-2.97-3.25-1.59,0-2.96,1.4-2.96,3.24Zm1.05-.14c0-1.63,1.04-2.27,1.9-2.27s1.9.62,1.9,2.27-1,2.4-1.9,2.4-1.9-.7-1.9-2.4Zm5.1-2.89l1.86,6.01h1.07c.53-1.74,1.39-4.47,1.43-5.32.14,1,.24,1.36,1.44,5.32h1.17l1.86-6.01h-.99c-1.12,3.66-1.44,4.81-1.5,5.33-.05-.42-.12-.62-.51-2.04l-.99-3.29h-.96c-.46,1.49-1.39,4.48-1.43,5.33-.07-.51-.12-1.07-1.46-5.33h-1.01Zm9.4,5.55c1.01.55,1.84.61,2.3.61,1.81,0,2.2-1.12,2.2-1.86,0-.88-.62-1.44-1.17-1.69-.84-.38-2.28-.2-2.28-1.19,0-.34.2-.82,1.13-.82s1.4.24,1.94.5l.15-.89c-.74-.31-1.22-.42-1.97-.42-1.84,0-2.21,1.07-2.21,1.78,0,.95.81,1.47,1.4,1.66.42.14,1,.2,1.3.3.27.08.76.35.76.86,0,.36-.24.92-1.26.92-1.09,0-1.74-.46-2.12-.68l-.16.92Zm10.4.46h1.05v-.62c.46.42,1.01.77,1.81.77,1.34,0,2.52-1.31,2.52-3.17,0-1.62-.88-3.12-2.21-3.12-.42,0-1.3.09-2.16.78v-4.39h-1.01v9.75Zm1.05-1.8v-2.52c0-.5.74-1,1.44-1s1.82.51,1.82,2.31-1.16,2.34-1.93,2.34c-.39,0-.8-.16-1.11-.54-.18-.26-.23-.23-.23-.58Zm4.64-4.21l2.52,5.76c.05.11.07.16.07.23,0,.05-.01.12-.05.22-.58,1.4-.69,1.81-1.26,1.81-.23,0-.53-.08-.99-.23l.07.88c.32.08.73.11.99.11.62,0,1.01-.31,1.55-1.55l2.93-7.22h-1.01c-.89,2.21-1.77,4.41-1.8,5.33-.12-.77-.12-1.13-1.96-5.33h-1.07Z"/>
        <path class="cls-14" d="m500.12,24.88c0,.34.09.62.62.62h.62c.34,0,.46-.08.59-.36.39.3.88.51,1.53.51,1.38,0,2.88-.62,2.89-3.17,0-.3,0-.92-.15-1.49-.34-1.26-1.23-1.82-2.42-1.82-.77,0-1.36.22-1.88.54v-3.36c0-.32-.12-.59-.59-.59h-.59c-.53,0-.62.27-.62.62v8.51Zm1.85-.74v-3.52c.34-.28.69-.47,1.2-.47,1.32,0,1.35,1.16,1.35,2.2,0,.93.07,2.32-1.5,2.32-.63,0-.9-.36-1.05-.53Zm5.31.78c0,.26.05.58.61.58h.58c.23,0,.24-.01.38-.08.22-.18.24-.22.24-.59v-2.36c0-.18,0-.34.04-.51.14-.61.65-1.08,1.23-1.28.45-.15.69-.08.85-.2.05-.08.07-.09.07-.24v-.76c0-.19-.03-.3-.27-.3h-.01c-.24,0-1.26.09-1.97,1.09-.01-.68-.01-.69-.14-.84-.15-.15-.2-.18-.54-.18h-.45c-.28,0-.62.03-.62.61v5.06Zm4.62-2.44c0,2.54,1.57,3.17,3.31,3.17s3.28-.62,3.28-3.12c0-3.31-2.19-3.44-3.5-3.44-1.53,0-3.09.69-3.09,3.39Zm1.85.14v-.36c0-.93-.03-2.17,1.43-2.17s1.44,1.2,1.46,1.98v.36c-.01.9.03,2.17-1.44,2.17s-1.42-1.19-1.44-1.98Zm5.58,1.04c0,.92.68,2,1.97,2,1.11,0,1.78-.46,2.08-.69,0,.23.12.54.55.54h.65c.54,0,.61-.31.61-.61v-3.55c0-1.35-.62-2.25-2.79-2.25-.85,0-1.51.16-2.12.43-.3.15-.38.14-.38.35,0,0,.04.88.14,1.04l.05.04h.05c.3,0,.7-.92,2.25-.92.85,0,.96.62.96,1.26v.28c-1.2.01-4.02.24-4.02,2.08Zm1.77,0c0-1.05,1.43-1.22,2.25-1.28v1.05c0,1-.88,1.24-1.32,1.24-.58,0-.93-.53-.93-1.01Zm5.4-1.38c0,.45,0,.9.15,1.47.38,1.44,1.46,1.9,2.54,1.9.74,0,1.23-.23,1.71-.58.12.42.38.43.62.43h.62c.57,0,.61-.36.61-.62v-8.52c0-.28-.04-.61-.68-.61h-.54c-.53,0-.59.34-.59.59v3.31c-.49-.31-1.01-.49-1.69-.49-1.42,0-2.71.7-2.75,3.11Zm1.85.24v-.28c0-.82.01-2.08,1.5-2.08.63,0,.96.34,1.05.41v3.31c0,.41-.61.8-1.19.8-1.34,0-1.36-1.19-1.36-2.15Zm5.72-.09c0,2.38,1.34,3.23,3.21,3.23.89,0,1.59-.2,2.19-.51.15-.08.27-.14.27-.34v-.11c-.08-.89-.07-.88-.18-.95h-.07c-.28.03-.77.85-2.17.85s-1.4-1.26-1.4-2.11v-.26c0-.73.01-2.04,1.31-2.09.2,0,.65-.01,1.04.12.58.2.85.65,1.07.65.26,0,.32-1.05.32-1.05,0-.11-.03-.16-.11-.22-.77-.42-1.31-.55-2.19-.55-1.76,0-3.29.68-3.29,3.33Zm6.52,1.23c0,.92.68,2,1.97,2,1.11,0,1.78-.46,2.08-.69,0,.23.12.54.55.54h.65c.54,0,.61-.31.61-.61v-3.55c0-1.35-.62-2.25-2.79-2.25-.85,0-1.51.16-2.12.43-.3.15-.38.14-.38.35,0,0,.04.88.14,1.04l.05.04h.05c.3,0,.7-.92,2.25-.92.85,0,.96.62.96,1.26v.28c-1.2.01-4.02.24-4.02,2.08Zm1.77,0c0-1.05,1.43-1.22,2.25-1.28v1.05c0,1-.88,1.24-1.32,1.24-.58,0-.93-.53-.93-1.01Zm5.33,1.17s.01.07.03.11l.05.07c.34.22,1.22.65,2.42.65,1.34,0,2.43-.41,2.43-2.04,0-1.09-.81-1.63-1.19-1.82-.84-.43-2.34-.27-2.34-1.07,0-.51.45-.65,1-.65,1.31,0,1.67.73,1.96.73.07,0,.12-.05.16-.2.08-.46.14-.7.14-.85,0-.19-.08-.23-.32-.32-.5-.2-1.01-.32-1.65-.34h-.35c-1.13.03-2.27.39-2.27,1.94,0,1.09.9,1.63,1.4,1.82.77.28,2.11.18,2.11,1.01,0,.57-.45.72-1.05.72-1.44,0-1.93-1.01-2.17-1.01-.16,0-.18.22-.19.31-.11.59-.16.82-.16.95Zm5.56-5.02c0,.15.05.5.59.5h.28v3.15c0,.42,0,.82.12,1.23.23.74.74.97,1.28.97,1,0,2.46-.43,2.46-.78,0,0-.11-.74-.31-.74-.18,0-.58.47-1.22.47-.38,0-.57-.24-.57-1.24,0-.12.01-.23.01-.35v-2.7h1.26c.51-.01.58-.35.58-.49,0-.12-.07-.5-.61-.5h-1.23v-1.16c0-.32-.14-.61-.61-.61h-.49c-.23,0-.65.01-.65.61v1.16h-.32c-.54,0-.59.34-.59.49Zm5.93-2.75c0,.54.31.62.62.62h.7c.12-.01.59.01.59-.59v-.7c0-.54-.31-.62-.62-.62h-.69c-.26.01-.61,0-.61.62v.68Zm.05,7.78c0,.23-.01.68.59.68h.62c.61,0,.59-.45.59-.61v-4.9c0-.35-.03-.68-.66-.68h-.55c-.61,0-.59.45-.59.61v4.9Zm3.43.07c0,.53.32.61.63.61h.59c.62,0,.62-.72.62-.72v-2.81c0-.24.01-.49.08-.73.12-.42.55-1.09,1.39-1.09s.8.55.8,1.05v3.7c0,.34.09.59.62.59h.63c.55,0,.58-.38.58-.59v-3.56c0-.97,0-2.17-2-2.17-1.09,0-1.71.46-2.19.93v-.27c0-.58-.38-.58-.62-.58h-.54c-.26,0-.61.04-.61.61v5.04Zm7.1,1.49c0,.24.05.49.16.7.58,1.2,2.39,1.2,3.21,1.2.72,0,1.44-.03,2.12-.28.93-.35,1.24-.99,1.24-1.65,0-2.04-1.8-2.09-3.43-2.09h-1.16c-.69,0-.8-.41-.8-.65,0-.07.01-.16.04-.26.58.23,1.01.27,1.55.27,1.98,0,2.73-.89,2.73-2.23,0-.76-.27-1.15-.32-1.26h.35c.55-.01.84.05.93.05.14,0,.24-.05.23-.26-.11-.66-.09-.77-.39-.77-.86,0-1.61.34-1.74.34-.2,0-.5-.34-1.73-.34h-.04c-2.38,0-2.73,1.35-2.73,2.24,0,.72.26,1.17.54,1.5v.03c-.22.32-.36.69-.36,1.11,0,.45.16.78.35,1.07-.66.36-.76.95-.76,1.27Zm1.39-.03c0-.66.55-.62.77-.62h1.32c1.22,0,1.86.14,1.86.68,0,.36-.3.9-1.9.9h-.05c-1.05,0-2-.19-2-.96Zm.58-4.85v-.22c0-.81.19-1.15,1.01-1.15s.96.46.96,1.15v.22c0,.8-.18,1.15-1.01,1.15s-.96-.51-.96-1.15Zm6.29,3.69c0,.16.03.31.31.31h1.17c.3-.01.28-.14.28-.38v-1.11c0-.16-.01-.28-.3-.28h-1.17c-.3,0-.28.12-.3.38v1.08Z"/>
      </g>
      <g>
        <path class="cls-10" d="m16.3,38.42h3.51s0,8.41,0,8.41h1.2v-8.42h1.58s1.92.01,1.92.01v-.89h-8.21v.89Zm9.79,8.41h1.05v-3.24c0-1,.34-2.08,1.38-2.08,1.32,0,1.32,1.01,1.32,1.53v3.79h1.05v-3.89c0-.82-.05-2.25-1.85-2.25-.93,0-1.51.45-1.94.96v-4.56h-1.01v9.75Zm6.99,0h1.01v-6.01h-1.01v6.01Zm-.09-7.97h1.22v-1.2h-1.22v1.2Zm2.59,7.51c1.01.55,1.84.61,2.3.61,1.81,0,2.2-1.12,2.2-1.86,0-.88-.62-1.44-1.17-1.69-.84-.38-2.28-.2-2.28-1.19,0-.34.2-.82,1.13-.82s1.4.24,1.94.5l.15-.89c-.74-.31-1.22-.42-1.97-.42-1.84,0-2.21,1.07-2.21,1.78,0,.95.81,1.47,1.4,1.66.42.14,1,.2,1.3.3.27.08.76.35.76.86,0,.36-.24.92-1.26.92-1.09,0-1.74-.46-2.12-.68l-.16.92Zm10.4.46h1.01v-9.75h-1.01v9.75Zm3.23,0h1.01v-6.01h-1.01v6.01Zm-.09-7.97h1.22v-1.2h-1.22v1.2Zm2.59,2.75h1v5.21h1.01v-5.21h1.49v-.8h-1.53v-1.84c0-1.04.82-1.23,1.26-1.23s.78.11,1.09.23v-.9c-.31-.08-.65-.15-1.07-.15-1.09,0-2.27.81-2.27,2.58,0,.11.01.22.01.32v.99h-1v.8Zm4,0h1.13v3.63c0,1.49.66,1.73,1.11,1.73.61,0,1.3-.14,2-.51l-.22-.8c-.19.14-.61.45-1.19.45-.7,0-.73-.8-.73-1.17v-3.32h1.9v-.8h-1.9v-1.7h-.95v1.7h-1.16v.8Zm5,4.75c1.01.55,1.84.61,2.3.61,1.81,0,2.2-1.12,2.2-1.86,0-.88-.62-1.44-1.17-1.69-.84-.38-2.28-.2-2.28-1.19,0-.34.2-.82,1.13-.82s1.4.24,1.94.5l.15-.89c-.74-.31-1.22-.42-1.97-.42-1.84,0-2.21,1.07-2.21,1.78,0,.95.81,1.47,1.4,1.66.42.14,1,.2,1.3.3.27.08.76.35.76.86,0,.36-.24.92-1.26.92-1.09,0-1.74-.46-2.12-.68l-.16.92Zm9.9-1.07c0,.62.41,1.67,1.54,1.67,1.49,0,2.23-.61,2.24-.62v.47h1.03v-4.12c-.07-1.13-.96-2.11-2.24-2.11-.85,0-1.47.22-2.12.59l.08.9c.45-.31,1.01-.69,2.03-.69.18,0,.53.01.85.41.34.41.34.86.35,1.24v.46c-1.39.01-3.75.35-3.75,1.78Zm.99-.01c0-.85,1.8-1.05,2.77-1.07v.85c0,.88-.93,1.07-1.51,1.07-.73,0-1.26-.36-1.26-.85Zm5.98,1.54h1.05v-3.24c0-1,.34-2.08,1.38-2.08,1.32,0,1.32,1.01,1.32,1.53v3.79h1.05v-3.89c0-.95-.12-2.25-1.85-2.25-1.19,0-1.78.77-1.97,1.01v-.95h-.99v6.08Zm10.8-2.98c0,1.84,1.42,3.13,2.96,3.13s2.97-1.28,2.97-3.12c0-1.69-1.24-3.25-2.97-3.25-1.59,0-2.96,1.4-2.96,3.24Zm1.05-.14c0-1.63,1.04-2.27,1.9-2.27s1.9.62,1.9,2.27-1,2.4-1.9,2.4-1.9-.7-1.9-2.4Zm6.39,5.75h1.05v-3.25c.45.42,1.03.77,1.82.77,1.31,0,2.51-1.27,2.51-3.17,0-1.61-.85-3.12-2.13-3.12-.46,0-1.38.09-2.24.8v-.66h-1.01v8.64Zm1.05-4.33v-2.81c.08-.09.54-.77,1.43-.77,1.11,0,1.84,1.09,1.84,2.28,0,1.43-1.01,2.32-1.96,2.32-.8,0-1.31-.7-1.31-1.03Zm5.67-1.35c0,1.67,1.17,3.2,2.94,3.2.85,0,1.55-.3,2.13-.69l-.08-.89c-.59.43-1.2.74-2.05.74-1.03,0-1.94-.89-2-2.28h4.19v-.39c-.12-2.31-1.44-2.86-2.4-2.86-1.43,0-2.73,1.36-2.73,3.17Zm1.01-.66c.15-.66.69-1.67,1.71-1.67.39,0,1.4.18,1.63,1.67h-3.35Zm5.62,3.71h1.01v-2.78c0-1.97,1.5-2.43,2.3-2.46v-.9c-1.43.03-2.15.95-2.36,1.28v-1.22h-.95v6.08Zm4.12-1.53c0,.62.41,1.67,1.54,1.67,1.49,0,2.23-.61,2.24-.62v.47h1.03v-4.12c-.07-1.13-.96-2.11-2.24-2.11-.85,0-1.47.22-2.12.59l.08.9c.45-.31,1.01-.69,2.03-.69.18,0,.53.01.85.41.34.41.34.86.35,1.24v.46c-1.39.01-3.75.35-3.75,1.78Zm.99-.01c0-.85,1.8-1.05,2.77-1.07v.85c0,.88-.93,1.07-1.51,1.07-.73,0-1.26-.36-1.26-.85Zm5.14-3.67h1.13v3.63c0,1.49.66,1.73,1.11,1.73.61,0,1.3-.14,2-.51l-.22-.8c-.19.14-.61.45-1.19.45-.7,0-.73-.8-.73-1.17v-3.32h1.9v-.8h-1.9v-1.7h-.95v1.7h-1.16v.8Zm5.72,5.21h1.01v-6.01h-1.01v6.01Zm-.09-7.97h1.22v-1.2h-1.22v1.2Zm2.63,4.98c0,1.84,1.42,3.13,2.96,3.13s2.97-1.28,2.97-3.12c0-1.69-1.24-3.25-2.97-3.25-1.59,0-2.96,1.4-2.96,3.24Zm1.05-.14c0-1.63,1.04-2.27,1.9-2.27s1.9.62,1.9,2.27-1,2.4-1.9,2.4-1.9-.7-1.9-2.4Zm6.37,3.12h1.05v-3.24c0-1,.34-2.08,1.38-2.08,1.32,0,1.32,1.01,1.32,1.53v3.79h1.05v-3.89c0-.95-.12-2.25-1.85-2.25-1.19,0-1.78.77-1.97,1.01v-.95h-.99v6.08Z"/>
        <g>
          <path class="cls-10" d="m152.11,37.64c1.18,0,2,.21,2.86.77v1.29h.41c.08-.87.2-1.53.41-2.23-1.27-.46-2.14-.63-3.2-.63-1.41,0-2.52.35-3.63,1.13-1.79,1.29-2.74,3.18-2.74,5.48,0,2.86,1.67,4.47,4.67,4.47.87.05,3.12-.37,3.87-.84.31-2.39.37-2.74.38-2.78.03-.14.21-.29.41-.32l.49-.09.03-.43c-.6.06-1.13.08-1.91.08s-1.33-.02-1.97-.08l-.08.43.52.03c1.15.06,1.29.12,1.29.49,0,.23-.31,1.96-.38,2.33-.69.37-1.29.5-2.11.5-2.54,0-3.86-1.42-3.86-4.13,0-2.23.9-5.45,4.53-5.45Z"/>
          <path class="cls-10" d="m161.45,45.93c-.46,0-.87.43-.87.89s.41.89.86.89c.49,0,.92-.41.92-.89s-.43-.89-.9-.89Zm0-5.28c-.46,0-.87.43-.87.89s.41.89.86.89c.49,0,.92-.41.92-.87s-.43-.9-.9-.9Z"/>
          <path class="cls-10" d="m172.57,41.95c-.14,0-.28,0-.41-.02l-.09.18,4.24,5.55c.35-.02.69-.05,1.04-.05s.7.03,1.1.05v-.46c-.37-.03-.7-.11-.93-.4l-3.47-4.53c1.48-.29,2.98-1.29,2.98-2.95,0-1.07-.61-2.3-2.92-2.3h-7.34v.46l.67.05c.63.05.78.17.78,1.38v6.87c0,1.21-.15,1.36-.78,1.39l-.67.03v.46s.84-.05,3.27-.05c.7,0,2.2.02,3,.05v-.46l-.73-.03c-.67-.03-.78-.18-.78-1.39v-7.99c.43-.11.86-.18,1.56-.18,1.19,0,2.42.46,2.42,2.11,0,.89-.63,2.22-2.92,2.22Zm-3.17,5.2c-.41,0-.49-.23-.49-1.36v-6.87c0-1.13.09-1.32.5-1.36.58.06.64.17.64,1.36v6.87c0,1.15-.08,1.36-.66,1.36Z"/>
          <path class="cls-10" d="m184.25,39.2c0-1.3-1.15-1.52-1.65-1.61.86-.66,1.18-1.16,1.18-1.79,0-.95-.79-1.59-1.98-1.59-.73,0-1.21.2-1.72.72l-.31,1.33h.33l.19-.6c.12-.36.79-.73,1.35-.73.7,0,1.26.57,1.26,1.24,0,.8-.63,1.48-1.39,1.48-.09,0-.2-.01-.34-.02h-.16s-.13.56-.13.56l.07.06c.41-.18.61-.24.9-.24.89,0,1.4.57,1.4,1.54,0,1.09-.65,1.81-1.65,1.81-.49,0-.93-.16-1.25-.46-.26-.24-.4-.48-.6-1.06l-.29.11c.22.65.31,1.04.37,1.57.57.19,1.04.28,1.44.28,1.32,0,2.98-1.15,2.98-2.61Z"/>
          <path class="cls-10" d="m203.13,43.47l-3.15-3.27-.49.52,1.91,2.33h-11.8v.9h11.8l-1.91,2.33.49.52,3.15-3.32Z"/>
          <path class="cls-10" d="m213.31,41.95c-.14,0-.28,0-.41-.02l-.09.18,4.24,5.55c.35-.02.69-.05,1.04-.05s.7.03,1.1.05v-.46c-.37-.03-.7-.11-.93-.4l-3.47-4.53c1.48-.29,2.98-1.29,2.98-2.95,0-1.07-.61-2.3-2.92-2.3h-7.34v.46l.67.05c.63.05.78.17.78,1.38v6.87c0,1.21-.15,1.36-.78,1.39l-.67.03v.46s.84-.05,3.27-.05c.7,0,2.2.02,3,.05v-.46l-.73-.03c-.67-.03-.78-.18-.78-1.39v-7.99c.43-.11.86-.18,1.56-.18,1.19,0,2.42.46,2.42,2.11,0,.89-.63,2.22-2.92,2.22Zm-3.17,5.2c-.41,0-.49-.23-.49-1.36v-6.87c0-1.13.09-1.32.5-1.36.58.06.64.17.64,1.36v6.87c0,1.15-.08,1.36-.66,1.36Z"/>
          <path class="cls-10" d="m220.2,41.35v.28c2,0,2-.03,2.39-.03s.39.03,2.45.03v-.91c-1.23.05-1.72.01-3.71.05l1.95-2.07c1.04-1.1,1.36-1.69,1.36-2.5,0-1.23-.84-1.99-2.2-1.99-.77,0-1.3.21-1.82.75l-.18,1.46h.31l.14-.49c.17-.62.56-.89,1.27-.89.92,0,1.51.58,1.51,1.49,0,.8-.45,1.6-1.66,2.88l-1.82,1.94Z"/>
        </g>
        <path class="cls-10" d="m231.04,41.62h1.13v3.63c0,1.49.66,1.73,1.11,1.73.61,0,1.3-.14,2-.51l-.22-.8c-.19.14-.61.45-1.19.45-.7,0-.73-.8-.73-1.17v-3.32h1.9v-.8h-1.9v-1.7h-.95v1.7h-1.16v.8Zm5.04,2.23c0,1.84,1.42,3.13,2.96,3.13s2.97-1.28,2.97-3.12c0-1.69-1.24-3.25-2.97-3.25-1.59,0-2.96,1.4-2.96,3.24Zm1.05-.14c0-1.63,1.04-2.27,1.9-2.27s1.9.62,1.9,2.27-1,2.4-1.9,2.4-1.9-.7-1.9-2.4Z"/>
        <g>
          <path class="cls-10" d="m253.07,41.95c-.14,0-.28,0-.41-.02l-.09.18,4.24,5.55c.35-.02.69-.05,1.04-.05s.7.03,1.1.05v-.46c-.37-.03-.7-.11-.93-.4l-3.47-4.53c1.48-.29,2.98-1.29,2.98-2.95,0-1.07-.61-2.3-2.92-2.3h-7.34v.46l.67.05c.63.05.78.17.78,1.38v6.87c0,1.21-.15,1.36-.78,1.39l-.67.03v.46s.84-.05,3.27-.05c.7,0,2.2.02,3,.05v-.46l-.73-.03c-.67-.03-.78-.18-.78-1.39v-7.99c.43-.11.86-.18,1.56-.18,1.19,0,2.42.46,2.42,2.11,0,.89-.63,2.22-2.92,2.22Zm-3.17,5.2c-.41,0-.49-.23-.49-1.36v-6.87c0-1.13.09-1.32.5-1.36.58.06.64.17.64,1.36v6.87c0,1.15-.08,1.36-.66,1.36Z"/>
          <path class="cls-10" d="m262.8,38.66v.8c0,.64-.12.79-.64.81l-.66.03v.32q1.42-.03,1.68-.03t1.68.03v-.32l-.51-.03c-.52-.03-.64-.17-.64-.81v-.8c.63,0,.86.01,1.16.04v-.76l-1.16.03v-4.84s-.85.32-.85.32l-3.03,4.96v.25h2.98Zm0-.69h-2.3l2.3-3.77v3.77Zm8.89,2.23l-2.52-2.51,2.52-2.51-.46-.45-2.5,2.51-2.51-2.51-.45.45,2.51,2.51-2.51,2.51.45.45,2.51-2.51,2.5,2.51.46-.45Zm5.56-2c0-1.3-1.15-1.52-1.65-1.61.86-.66,1.18-1.16,1.18-1.79,0-.95-.79-1.59-1.98-1.59-.73,0-1.21.2-1.72.72l-.31,1.33h.33l.19-.6c.12-.36.79-.73,1.35-.73.7,0,1.26.57,1.26,1.24,0,.8-.63,1.48-1.39,1.48-.09,0-.2-.01-.34-.02h-.16s-.13.56-.13.56l.07.06c.41-.18.61-.24.9-.24.89,0,1.4.57,1.4,1.54,0,1.09-.65,1.81-1.65,1.81-.49,0-.93-.16-1.25-.46-.26-.24-.4-.48-.6-1.06l-.29.11c.22.65.31,1.04.37,1.57.57.19,1.04.28,1.44.28,1.32,0,2.98-1.15,2.98-2.61Z"/>
          <path class="cls-10" d="m296.12,43.47l-3.15-3.27-.49.52,1.91,2.33h-11.8v.9h11.8l-1.91,2.33.49.52,3.15-3.32Z"/>
          <path class="cls-10" d="m306.29,41.95c-.14,0-.28,0-.41-.02l-.09.18,4.24,5.55c.35-.02.69-.05,1.04-.05s.7.03,1.1.05v-.46c-.37-.03-.7-.11-.93-.4l-3.47-4.53c1.48-.29,2.98-1.29,2.98-2.95,0-1.07-.61-2.3-2.92-2.3h-7.34v.46l.67.05c.63.05.78.17.78,1.38v6.87c0,1.21-.15,1.36-.78,1.39l-.67.03v.46s.84-.05,3.27-.05c.7,0,2.2.02,3,.05v-.46l-.73-.03c-.67-.03-.78-.18-.78-1.39v-7.99c.43-.11.86-.18,1.56-.18,1.19,0,2.42.46,2.42,2.11,0,.89-.63,2.22-2.92,2.22Zm-3.17,5.2c-.41,0-.49-.23-.49-1.36v-6.87c0-1.13.09-1.32.5-1.36.58.06.64.17.64,1.36v6.87c0,1.15-.08,1.36-.66,1.36Z"/>
          <path class="cls-10" d="m316.02,38.66v.8c0,.64-.12.79-.64.81l-.66.03v.32q1.42-.03,1.68-.03t1.68.03v-.32l-.51-.03c-.52-.03-.64-.17-.64-.81v-.8c.63,0,.86.01,1.16.04v-.76l-1.16.03v-4.84s-.85.32-.85.32l-3.03,4.96v.25h2.98Zm0-.69h-2.3l2.3-3.77v3.77Zm8.89,2.23l-2.52-2.51,2.52-2.51-.46-.45-2.5,2.51-2.51-2.51-.45.45,2.51,2.51-2.51,2.51.45.45,2.51-2.51,2.5,2.51.46-.45Zm.78.15v.28c2,0,2-.03,2.39-.03s.39.03,2.45.03v-.91c-1.23.05-1.72.01-3.71.05l1.95-2.07c1.04-1.1,1.36-1.69,1.36-2.5,0-1.23-.84-1.99-2.2-1.99-.77,0-1.3.21-1.82.75l-.18,1.46h.31l.14-.49c.17-.62.56-.89,1.27-.89.92,0,1.51.58,1.51,1.49,0,.8-.45,1.6-1.66,2.88l-1.82,1.94Z"/>
        </g>
        <path class="cls-10" d="m333.06,46.83h1.13v-1.13h-1.13v1.13Z"/>
      </g>
    </g>
    <path class="cls-10" d="m491.1,131.61v.44c3.18,0,3.18-.05,3.79-.05s.61.05,3.89.05v-1.45c-1.96.09-2.74.02-5.88.09l3.09-3.28c1.65-1.75,2.16-2.69,2.16-3.96,0-1.96-1.33-3.16-3.49-3.16-1.22,0-2.06.34-2.89,1.19l-.29,2.31h.49l.22-.78c.27-.99.88-1.41,2.02-1.41,1.46,0,2.4.92,2.4,2.36,0,1.28-.71,2.53-2.64,4.57l-2.89,3.08Z"/>
    <path class="cls-10" d="m250.1,91.61v.44c3.18,0,3.18-.05,3.79-.05s.61.05,3.89.05v-1.45c-1.96.09-2.74.02-5.88.09l3.09-3.28c1.65-1.75,2.16-2.69,2.16-3.96,0-1.96-1.33-3.16-3.49-3.16-1.22,0-2.06.34-2.89,1.19l-.29,2.31h.49l.22-.78c.27-.99.88-1.41,2.02-1.41,1.46,0,2.4.92,2.4,2.36,0,1.28-.71,2.53-2.64,4.57l-2.89,3.08Z"/>
    <path class="cls-10" d="m555.1,71.61v.44c3.18,0,3.18-.05,3.79-.05s.61.05,3.89.05v-1.45c-1.96.09-2.74.02-5.88.09l3.09-3.28c1.65-1.75,2.16-2.69,2.16-3.96,0-1.96-1.33-3.16-3.49-3.16-1.22,0-2.06.34-2.89,1.19l-.29,2.31h.49l.22-.78c.27-.99.88-1.41,2.02-1.41,1.46,0,2.4.92,2.4,2.36,0,1.28-.71,2.53-2.64,4.57l-2.89,3.08Z"/>
    <path class="cls-6" d="m447.83,105h80"/>
    <path class="cls-6" d="m367.83,135h70"/>
    <path class="cls-6" d="m82.83,105h60"/>
    <path class="cls-6" d="m162.83,105h60"/>
    <g>
      <path class="cls-2" d="m232.83,95h40v20h-40v-20Z"/>
      <path class="cls-6" d="m252.83,95v20"/>
      <path class="cls-6" d="m232.83,95h40v20h-40v-20Z"/>
    </g>
    <g>
      <path class="cls-2" d="m12.83,95h60v20H12.83v-20Z"/>
      <path class="cls-6" d="m32.83,95v20m20-20v20M729.83-5"/>
      <path class="cls-6" d="m12.83,95h60v20H12.83v-20Z"/>
    </g>
    <g>
      <path class="cls-1" d="m297.83,75h60"/>
      <path class="cls-1" d="m357.83,67.17v15.66"/>
    </g>
    <g>
      <path class="cls-1" d="m12.83,95h60"/>
      <path class="cls-1" d="m72.83,87.17v15.66"/>
    </g>
    <path class="cls-6" d="m457.83,135h70"/>
    <path class="cls-6" d="m367.83,105h80"/>
    <g>
      <path class="cls-1" d="m232.83,95h40"/>
      <path class="cls-1" d="m272.83,87.17v15.66"/>
    </g>
    <g>
      <path class="cls-1" d="m537.83,75h40"/>
      <path class="cls-1" d="m577.83,67.17v15.66"/>
    </g>
    <g>
      <path class="cls-2" d="m537.83,75h40v80h-40v-80Z"/>
      <path class="cls-6" d="m557.83,75v80"/>
      <path class="cls-6" d="m537.83,95h40m-40,20h40m-40,20h40"/>
      <path class="cls-6" d="m537.83,75h40v80h-40v-80Z"/>
    </g>
    <g>
      <path class="cls-2" d="m297.83,75h60v80h-60v-80Z"/>
      <path class="cls-6" d="m317.83,75v80m20-80v80"/>
      <path class="cls-6" d="m297.83,95h60m-60,20h60m-60,20h60"/>
      <path class="cls-6" d="m297.83,75h60v80h-60v-80Z"/>
    </g>
  </g>
  <g id="Layer_6" data-name="Layer 6">
    <g class="cls-31">
      <path class="cls-4" d="m537.83,75v80"/>
      <path class="cls-4" d="m545.66,155h-15.66"/>
    </g>
    <g class="cls-30">
      <path class="cls-4" d="m12.83,75v80"/>
      <path class="cls-4" d="m20.66,155H5"/>
      <path class="cls-4" d="m20.66,75H5"/>
    </g>
    <g class="cls-36">
      <path class="cls-4" d="m297.83,75v80"/>
      <path class="cls-4" d="m305.66,155h-15.66"/>
    </g>
  </g>
</svg>