<?xml version="1.0" encoding="UTF-8"?>
<svg xmlns="http://www.w3.org/2000/svg" xmlns:xlink="http://www.w3.org/1999/xlink" viewBox="0 0 455 230">
  <defs>
    <style>
      .cls-1 {
        fill: #fff591;
      }

      .cls-1, .cls-2, .cls-3, .cls-4, .cls-5, .cls-6, .cls-7, .cls-8, .cls-9 {
        stroke-width: 0px;
      }

      .cls-10 {
        filter: url(#drop-shadow-74);
      }

      .cls-11 {
        filter: url(#drop-shadow-76);
      }

      .cls-2 {
        fill: #9013fe;
      }

      .cls-12 {
        filter: url(#drop-shadow-81);
      }

      .cls-13 {
        filter: url(#drop-shadow-83);
      }

      .cls-4, .cls-14 {
        fill: #c1dea1;
      }

      .cls-15 {
        filter: url(#drop-shadow-80);
      }

      .cls-5 {
        fill: #f3f3f4;
      }

      .cls-6 {
        fill: #e28ff1;
      }

      .cls-7 {
        fill: #9dc7ff;
      }

      .cls-16 {
        filter: url(#drop-shadow-79);
      }

      .cls-17 {
        filter: url(#drop-shadow-82);
      }

      .cls-8, .cls-18 {
        fill: #fff;
      }

      .cls-18 {
        stroke: #fff;
        stroke-miterlimit: 10;
        stroke-width: .37px;
      }

      .cls-19 {
        filter: url(#drop-shadow-73);
      }

      .cls-20 {
        filter: url(#drop-shadow-72);
      }

      .cls-9 {
        fill: #adcd86;
      }

      .cls-21 {
        filter: url(#drop-shadow-215);
      }

      .cls-14 {
        stroke-dasharray: 0 0 1.12 3.35;
      }

      .cls-14, .cls-22 {
        stroke: #000;
      }

      .cls-23 {
        filter: url(#drop-shadow-75);
      }

      .cls-24 {
        filter: url(#drop-shadow-78);
      }

      .cls-22 {
        fill: none;
      }

      .cls-25 {
        filter: url(#drop-shadow-77);
      }
    </style>
    <filter id="drop-shadow-72" filterUnits="userSpaceOnUse">
      <feOffset dx="0" dy="0"/>
      <feGaussianBlur result="blur" stdDeviation="3"/>
      <feFlood flood-color="#000" flood-opacity="1"/>
      <feComposite in2="blur" operator="in"/>
      <feComposite in="SourceGraphic"/>
    </filter>
    <filter id="drop-shadow-73" filterUnits="userSpaceOnUse">
      <feOffset dx="0" dy="0"/>
      <feGaussianBlur result="blur-2" stdDeviation="3"/>
      <feFlood flood-color="#000" flood-opacity="1"/>
      <feComposite in2="blur-2" operator="in"/>
      <feComposite in="SourceGraphic"/>
    </filter>
    <filter id="drop-shadow-74" filterUnits="userSpaceOnUse">
      <feOffset dx="0" dy="0"/>
      <feGaussianBlur result="blur-3" stdDeviation="3"/>
      <feFlood flood-color="#000" flood-opacity="1"/>
      <feComposite in2="blur-3" operator="in"/>
      <feComposite in="SourceGraphic"/>
    </filter>
    <filter id="drop-shadow-75" filterUnits="userSpaceOnUse">
      <feOffset dx="0" dy="0"/>
      <feGaussianBlur result="blur-4" stdDeviation="3"/>
      <feFlood flood-color="#000" flood-opacity="1"/>
      <feComposite in2="blur-4" operator="in"/>
      <feComposite in="SourceGraphic"/>
    </filter>
    <filter id="drop-shadow-76" filterUnits="userSpaceOnUse">
      <feOffset dx="0" dy="0"/>
      <feGaussianBlur result="blur-5" stdDeviation="3"/>
      <feFlood flood-color="#000" flood-opacity="1"/>
      <feComposite in2="blur-5" operator="in"/>
      <feComposite in="SourceGraphic"/>
    </filter>
    <filter id="drop-shadow-77" filterUnits="userSpaceOnUse">
      <feOffset dx="0" dy="0"/>
      <feGaussianBlur result="blur-6" stdDeviation="3"/>
      <feFlood flood-color="#000" flood-opacity="1"/>
      <feComposite in2="blur-6" operator="in"/>
      <feComposite in="SourceGraphic"/>
    </filter>
    <filter id="drop-shadow-78" filterUnits="userSpaceOnUse">
      <feOffset dx="0" dy="0"/>
      <feGaussianBlur result="blur-7" stdDeviation="3"/>
      <feFlood flood-color="#000" flood-opacity="1"/>
      <feComposite in2="blur-7" operator="in"/>
      <feComposite in="SourceGraphic"/>
    </filter>
    <filter id="drop-shadow-79" filterUnits="userSpaceOnUse">
      <feOffset dx="0" dy="0"/>
      <feGaussianBlur result="blur-8" stdDeviation="3"/>
      <feFlood flood-color="#000" flood-opacity="1"/>
      <feComposite in2="blur-8" operator="in"/>
      <feComposite in="SourceGraphic"/>
    </filter>
    <filter id="drop-shadow-80" filterUnits="userSpaceOnUse">
      <feOffset dx="0" dy="0"/>
      <feGaussianBlur result="blur-9" stdDeviation="3"/>
      <feFlood flood-color="#000" flood-opacity="1"/>
      <feComposite in2="blur-9" operator="in"/>
      <feComposite in="SourceGraphic"/>
    </filter>
    <filter id="drop-shadow-81" filterUnits="userSpaceOnUse">
      <feOffset dx="0" dy="0"/>
      <feGaussianBlur result="blur-10" stdDeviation="3"/>
      <feFlood flood-color="#000" flood-opacity="1"/>
      <feComposite in2="blur-10" operator="in"/>
      <feComposite in="SourceGraphic"/>
    </filter>
    <filter id="drop-shadow-82" filterUnits="userSpaceOnUse">
      <feOffset dx="0" dy="0"/>
      <feGaussianBlur result="blur-11" stdDeviation="3"/>
      <feFlood flood-color="#000" flood-opacity="1"/>
      <feComposite in2="blur-11" operator="in"/>
      <feComposite in="SourceGraphic"/>
    </filter>
    <filter id="drop-shadow-83" filterUnits="userSpaceOnUse">
      <feOffset dx="0" dy="0"/>
      <feGaussianBlur result="blur-12" stdDeviation="3"/>
      <feFlood flood-color="#000" flood-opacity="1"/>
      <feComposite in2="blur-12" operator="in"/>
      <feComposite in="SourceGraphic"/>
    </filter>
    <filter id="drop-shadow-215" filterUnits="userSpaceOnUse">
      <feOffset dx="0" dy="0"/>
      <feGaussianBlur result="blur-13" stdDeviation="3"/>
      <feFlood flood-color="#000" flood-opacity="1"/>
      <feComposite in2="blur-13" operator="in"/>
      <feComposite in="SourceGraphic"/>
    </filter>
  </defs>
  <g id="Layer_1" data-name="Layer 1">
    <g class="cls-20">
      <polygon class="cls-5" points="15 100 15 45 385 45 385 225 15 225 15 100"/>
    </g>
    <g class="cls-19">
      <path class="cls-9" d="m195,50h185v155h-185V50Z"/>
    </g>
    <g class="cls-10">
      <path class="cls-2" d="m205,130h165v55h-165v-55Z"/>
    </g>
    <g class="cls-23">
      <path class="cls-6" d="m215,115h30v80h-30v-80Z"/>
    </g>
    <g class="cls-11">
      <path class="cls-6" d="m325,115h30v80h-30v-80Z"/>
    </g>
    <g class="cls-25">
      <polygon class="cls-1" points="15 45 15 5 450 5 450 45 205 45 235 100 350 100 350 120 220 120 220 110 170 45 15 45"/>
    </g>
    <g class="cls-24">
      <path class="cls-4" d="m20,50h130v105H20V50Z"/>
    </g>
    <g class="cls-16">
      <path class="cls-7" d="m65,105h40v40h-40v-40Z"/>
    </g>
    <g class="cls-15">
      <path class="cls-6" d="m25,105h30v40h-30v-40Z"/>
    </g>
    <g class="cls-12">
      <path class="cls-7" d="m255,85h60v110h-60v-110Z"/>
    </g>
    <g class="cls-17">
      <path class="cls-6" d="m115,105h30v40h-30v-40Z"/>
    </g>
    <g class="cls-13">
      <path class="cls-2" d="m65,153.31h131.34v-8.31l23.66,15-23.66,15v-8.31H65v-13.38Z"/>
    </g>
    <g class="cls-21">
      <path class="cls-14" d="m265,94h40v26h-40v-26Z"/>
    </g>
  </g>
  <g id="Layer_4" data-name="Layer 4">
    <g>
      <g>
        <path class="cls-8" d="m79.4,164.73l-3.6-3.58,3.6-3.58-.66-.64-3.56,3.58-3.58-3.58-.64.64,3.58,3.58-3.58,3.58.64.64,3.58-3.58,3.56,3.58.66-.64Z"/>
        <path class="cls-18" d="m87.61,162.53v1.15c0,.92-.17,1.13-.92,1.16l-.95.05v.46q2.03-.05,2.4-.05t2.4.05v-.46l-.73-.05c-.75-.05-.92-.24-.92-1.16v-1.15c.9,0,1.22.02,1.65.06v-1.09l-1.65.05.02-6.92-1.22.46-4.33,7.08v.35h4.25Zm0-.98h-3.29l3.29-5.39v5.39Z"/>
        <path class="cls-18" d="m103.36,164.73l-3.6-3.58,3.6-3.58-.66-.64-3.56,3.58-3.58-3.58-.64.64,3.58,3.58-3.58,3.58.64.64,3.58-3.58,3.56,3.58.66-.64Z"/>
        <path class="cls-18" d="m114.37,161.87c0-1.85-1.64-2.17-2.36-2.3,1.22-.95,1.68-1.65,1.68-2.56,0-1.36-1.13-2.26-2.83-2.26-1.04,0-1.73.29-2.46,1.03l-.44,1.9h.47l.28-.86c.17-.52,1.13-1.04,1.93-1.04.99,0,1.81.81,1.81,1.77,0,1.15-.9,2.11-1.99,2.11-.12,0-.29-.02-.49-.03l-.23-.02-.18.81.11.09c.58-.26.87-.34,1.29-.34,1.27,0,2,.81,2,2.2,0,1.56-.93,2.59-2.36,2.59-.7,0-1.33-.23-1.79-.66-.37-.34-.57-.69-.86-1.51l-.41.15c.32.93.44,1.48.54,2.25.81.28,1.48.4,2.05.4,1.88,0,4.25-1.64,4.25-3.73Z"/>
      </g>
      <path class="cls-8" d="m121.12,163.88c0,.36.11.62.63.62h3.31c.88,0,1.8-.01,2.59-.42,1.15-.58,1.3-1.65,1.3-2.17,0-1.39-1.01-2.13-2.4-2.31.32-.09,2-.41,2-2.04,0-.58-.23-1.22-.7-1.65-.85-.78-2.3-.78-3.21-.78h-2.88c-.57,0-.63.31-.63.62v8.13Zm1.85-.54v-3.21h2.03c1.81.07,2.16,1.03,2.16,1.71,0,.32-.09.63-.31.89-.42.49-1.11.61-2.05.61h-1.82Zm0-4.2v-2.85h1.42c.53,0,1.07.01,1.57.2.66.26.82.72.82,1.11s-.14.69-.39,1c-.62.51-1.19.54-2.15.54h-1.27Zm7.63,4.78c0,.26.05.58.61.58h.58c.23,0,.24-.01.38-.08.22-.18.24-.22.24-.59v-2.36c0-.18,0-.34.04-.51.14-.61.65-1.08,1.23-1.28.45-.15.69-.08.85-.2.05-.08.07-.09.07-.24v-.76c0-.19-.03-.3-.27-.3h-.01c-.24,0-1.26.09-1.97,1.09-.01-.68-.01-.69-.14-.84-.15-.15-.2-.18-.54-.18h-.45c-.28,0-.62.03-.62.61v5.06Zm4.62-2.44c0,2.54,1.57,3.17,3.31,3.17s3.28-.62,3.28-3.12c0-3.31-2.19-3.44-3.5-3.44-1.53,0-3.09.69-3.09,3.39Zm1.85.14v-.36c0-.93-.03-2.17,1.43-2.17s1.44,1.2,1.46,1.98v.36c-.01.9.03,2.17-1.44,2.17s-1.42-1.19-1.44-1.98Zm5.58,1.04c0,.92.68,2,1.97,2,1.11,0,1.78-.46,2.08-.69,0,.23.12.54.55.54h.65c.54,0,.61-.31.61-.61v-3.55c0-1.35-.62-2.25-2.79-2.25-.85,0-1.51.16-2.12.43-.3.15-.38.14-.38.35,0,0,.04.88.14,1.04l.05.04h.05c.3,0,.7-.92,2.25-.92.85,0,.96.62.96,1.26v.28c-1.2.01-4.02.24-4.02,2.08Zm1.77,0c0-1.05,1.43-1.22,2.25-1.28v1.05c0,1-.88,1.24-1.32,1.24-.58,0-.93-.53-.93-1.01Zm5.4-1.38c0,.45,0,.9.15,1.47.38,1.44,1.46,1.9,2.54,1.9.74,0,1.23-.23,1.71-.58.12.42.38.43.62.43h.62c.57,0,.61-.36.61-.62v-8.52c0-.28-.04-.61-.68-.61h-.54c-.53,0-.59.34-.59.59v3.31c-.49-.31-1.01-.49-1.69-.49-1.42,0-2.71.7-2.75,3.11Zm1.85.24v-.28c0-.82.01-2.08,1.5-2.08.63,0,.96.34,1.05.41v3.31c0,.41-.61.8-1.19.8-1.34,0-1.36-1.19-1.36-2.15Zm5.72-.09c0,2.38,1.34,3.23,3.21,3.23.89,0,1.59-.2,2.19-.51.15-.08.27-.14.27-.34v-.11c-.08-.89-.07-.88-.18-.95h-.07c-.28.03-.77.85-2.17.85s-1.4-1.26-1.4-2.11v-.26c0-.73.01-2.04,1.31-2.09.2,0,.65-.01,1.04.12.58.2.85.65,1.07.65.26,0,.32-1.05.32-1.05,0-.11-.03-.16-.11-.22-.77-.42-1.31-.55-2.19-.55-1.76,0-3.29.68-3.29,3.33Zm6.52,1.23c0,.92.68,2,1.97,2,1.11,0,1.78-.46,2.08-.69,0,.23.12.54.55.54h.65c.54,0,.61-.31.61-.61v-3.55c0-1.35-.62-2.25-2.79-2.25-.85,0-1.51.16-2.12.43-.3.15-.38.14-.38.35,0,0,.04.88.14,1.04l.05.04h.05c.3,0,.7-.92,2.25-.92.85,0,.96.62.96,1.26v.28c-1.2.01-4.02.24-4.02,2.08Zm1.77,0c0-1.05,1.43-1.22,2.25-1.28v1.05c0,1-.88,1.24-1.32,1.24-.58,0-.93-.53-.93-1.01Zm5.33,1.17s.01.07.03.11l.05.07c.34.22,1.22.65,2.42.65,1.34,0,2.43-.41,2.43-2.04,0-1.09-.81-1.63-1.19-1.82-.84-.43-2.34-.27-2.34-1.07,0-.51.45-.65,1-.65,1.31,0,1.67.73,1.96.73.07,0,.12-.05.16-.2.08-.46.14-.7.14-.85,0-.19-.08-.23-.32-.32-.5-.2-1.01-.32-1.65-.34h-.35c-1.13.03-2.27.39-2.27,1.94,0,1.09.9,1.63,1.4,1.82.77.28,2.11.18,2.11,1.01,0,.57-.45.72-1.05.72-1.44,0-1.93-1.01-2.17-1.01-.16,0-.18.22-.19.31-.11.59-.16.82-.16.95Zm5.56-5.02c0,.15.05.5.59.5h.28v3.15c0,.42,0,.82.12,1.23.23.74.74.97,1.28.97,1,0,2.46-.43,2.46-.78,0,0-.11-.74-.31-.74-.18,0-.58.47-1.22.47-.38,0-.57-.24-.57-1.24,0-.12.01-.23.01-.35v-2.7h1.26c.51-.01.58-.35.58-.49,0-.12-.07-.5-.61-.5h-1.23v-1.16c0-.32-.14-.61-.61-.61h-.49c-.23,0-.65.01-.65.61v1.16h-.32c-.54,0-.59.34-.59.49Zm5.93-2.75c0,.54.31.62.62.62h.7c.12-.01.59.01.59-.59v-.7c0-.54-.31-.62-.62-.62h-.69c-.26.01-.61,0-.61.62v.68Zm.05,7.78c0,.23-.01.68.59.68h.62c.61,0,.59-.45.59-.61v-4.9c0-.35-.03-.68-.66-.68h-.55c-.61,0-.59.45-.59.61v4.9Zm3.43.07c0,.53.32.61.63.61h.59c.62,0,.62-.72.62-.72v-2.81c0-.24.01-.49.08-.73.12-.42.55-1.09,1.39-1.09s.8.55.8,1.05v3.7c0,.34.09.59.62.59h.63c.55,0,.58-.38.58-.59v-3.56c0-.97,0-2.17-2-2.17-1.09,0-1.71.46-2.19.93v-.27c0-.58-.38-.58-.62-.58h-.54c-.26,0-.61.04-.61.61v5.04Zm7.1,1.49c0,.24.05.49.16.7.58,1.2,2.39,1.2,3.21,1.2.72,0,1.44-.03,2.12-.28.93-.35,1.24-.99,1.24-1.65,0-2.04-1.8-2.09-3.43-2.09h-1.16c-.69,0-.8-.41-.8-.65,0-.07.01-.16.04-.26.58.23,1.01.27,1.55.27,1.98,0,2.73-.89,2.73-2.23,0-.76-.27-1.15-.32-1.26h.35c.55-.01.84.05.93.05.14,0,.24-.05.23-.26-.11-.66-.09-.77-.39-.77-.86,0-1.61.34-1.74.34-.2,0-.5-.34-1.73-.34h-.04c-2.38,0-2.73,1.35-2.73,2.24,0,.72.26,1.17.54,1.5v.03c-.22.32-.36.69-.36,1.11,0,.45.16.78.35,1.07-.66.36-.76.95-.76,1.27Zm1.39-.03c0-.66.55-.62.77-.62h1.32c1.22,0,1.86.14,1.86.68,0,.36-.3.9-1.9.9h-.05c-1.05,0-2-.19-2-.96Zm.58-4.85v-.22c0-.81.19-1.15,1.01-1.15s.96.46.96,1.15v.22c0,.8-.18,1.15-1.01,1.15s-.96-.51-.96-1.15Z"/>
    </g>
    <path class="cls-3" d="m344.85,168.19c0-2.06-1.82-2.41-2.62-2.55,1.36-1.05,1.87-1.84,1.87-2.84,0-1.51-1.26-2.52-3.15-2.52-1.16,0-1.92.32-2.74,1.14l-.49,2.11h.53l.31-.95c.19-.58,1.26-1.16,2.14-1.16,1.11,0,2.01.9,2.01,1.97,0,1.28-1,2.35-2.21,2.35-.14,0-.32-.02-.54-.03l-.26-.02-.2.9.12.1c.65-.29.97-.37,1.43-.37,1.41,0,2.23.9,2.23,2.45,0,1.73-1.04,2.87-2.62,2.87-.78,0-1.48-.26-1.99-.73-.41-.37-.63-.77-.95-1.68l-.46.17c.36,1.04.49,1.65.6,2.5.9.31,1.65.44,2.28.44,2.09,0,4.73-1.82,4.73-4.15Z"/>
    <path class="cls-3" d="m231.76,138.92v1.28c0,1.02-.19,1.26-1.02,1.29l-1.05.05v.51q2.26-.05,2.67-.05t2.67.05v-.51l-.82-.05c-.83-.05-1.02-.27-1.02-1.29v-1.28c1,0,1.36.02,1.84.07v-1.21l-1.84.05.02-7.68-1.36.51-4.81,7.87v.39h4.73Zm0-1.09h-3.66l3.66-5.98v5.98Z"/>
    <path class="cls-3" d="m234.85,168.19c0-2.06-1.82-2.41-2.62-2.55,1.36-1.05,1.87-1.84,1.87-2.84,0-1.51-1.26-2.52-3.15-2.52-1.16,0-1.92.32-2.74,1.14l-.49,2.11h.53l.31-.95c.19-.58,1.26-1.16,2.14-1.16,1.11,0,2.01.9,2.01,1.97,0,1.28-1,2.35-2.21,2.35-.14,0-.32-.02-.54-.03l-.26-.02-.2.9.12.1c.65-.29.97-.37,1.43-.37,1.41,0,2.23.9,2.23,2.45,0,1.73-1.04,2.87-2.62,2.87-.78,0-1.48-.26-1.99-.73-.41-.37-.63-.77-.95-1.68l-.46.17c.36,1.04.49,1.65.6,2.5.9.31,1.65.44,2.28.44,2.09,0,4.73-1.82,4.73-4.15Z"/>
    <path class="cls-3" d="m341.76,138.92v1.28c0,1.02-.19,1.26-1.02,1.29l-1.05.05v.51q2.26-.05,2.67-.05t2.67.05v-.51l-.82-.05c-.83-.05-1.02-.27-1.02-1.29v-1.28c1,0,1.36.02,1.84.07v-1.21l-1.84.05.02-7.68-1.36.51-4.81,7.87v.39h4.73Zm0-1.09h-3.66l3.66-5.98v5.98Z"/>
    <path class="cls-3" d="m285.45,103.78h-.39l.51-2.74c.39-2.11,1.08-3.04,2.2-3.04.73,0,1.4.37,1.76.95l.24-.1c.12-.39.37-1.15.56-1.64l.12-.37c-.39-.17-1.15-.32-1.71-.32-.27,0-.66.07-.86.17-.59.27-2.59,1.76-3.16,2.35-.54.54-.83,1.27-1.1,2.67l-.37,1.93c-1,.49-1.49.69-2.11.91l-.12.54h1.98l-.22,1.37c-.73,4.77-1.64,9.33-2.18,11.02-.44,1.44-1.18,2.2-2.06,2.2-.56,0-.83-.17-1.27-.71l-.34.1c-.1.56-.44,1.74-.56,1.96.22.12.59.2.86.2,1,0,2.33-.76,3.28-1.91,1.74-2.06,2.23-4.41,4.28-14.22h2.55c.1-.47.27-1.03.42-1.37l-.1-.17c-.71.17-.69.22-2.23.22Z"/>
    <g>
      <path class="cls-3" d="m238.41,67h6.91v-1.08h-1.02s-2.91.01-2.91.01h-.36s-1.27.01-1.27.01v-3.88h4.95v-.91h-4.95v-3.55h.52s3.6.01,3.6.01h.37s.85.01.85.01v-.99h-6.7v10.36Zm8.76,0h1.12v-10.83h-1.12v10.83Zm2.88-3.39c0,1.86,1.3,3.55,3.27,3.55.94,0,1.72-.33,2.37-.76l-.09-.99c-.66.48-1.33.82-2.28.82-1.14,0-2.16-.99-2.22-2.53h4.65v-.43c-.13-2.56-1.6-3.18-2.67-3.18-1.59,0-3.03,1.51-3.03,3.52Zm1.12-.73c.16-.73.76-1.86,1.9-1.86.43,0,1.56.19,1.81,1.86h-3.72Zm6.22,4.12h1.17v-3.6c0-1.11.37-2.31,1.53-2.31,1.47,0,1.47,1.12,1.47,1.69v4.21h1.17v-3.6c0-1.11.37-2.31,1.53-2.31,1.47,0,1.45,1.69,1.45,1.69v4.21h1.18v-4.32c0-.87-.04-2.5-2.05-2.5-1.36,0-2.04.91-2.26,1.21-.21-.57-.66-1.21-1.9-1.21-1.32,0-1.98.85-2.19,1.12v-1.05h-1.09v6.75Zm11.22-3.39c0,1.86,1.3,3.55,3.27,3.55.94,0,1.72-.33,2.37-.76l-.09-.99c-.66.48-1.33.82-2.28.82-1.14,0-2.16-.99-2.22-2.53h4.65v-.43c-.13-2.56-1.6-3.18-2.67-3.18-1.59,0-3.03,1.51-3.03,3.52Zm1.12-.73c.16-.73.76-1.86,1.9-1.86.43,0,1.56.19,1.81,1.86h-3.72Zm6.22,4.12h1.17v-3.6c0-1.11.37-2.31,1.53-2.31,1.47,0,1.47,1.12,1.47,1.69v4.21h1.17v-4.32c0-1.05-.13-2.5-2.05-2.5-1.32,0-1.98.85-2.19,1.12v-1.05h-1.09v6.75Zm6.82-5.79h1.26v4.03c0,1.65.73,1.92,1.23,1.92.67,0,1.44-.15,2.22-.57l-.24-.88c-.21.15-.67.49-1.32.49-.78,0-.81-.88-.81-1.3v-3.69h2.11v-.88h-2.11v-1.89h-1.05v1.89h-1.29v.88Zm5.29,2.89h3.99v-.88h-3.99v.88Zm5.05-3.78l2.07,6.67h1.18c.58-1.93,1.54-4.96,1.59-5.91.15,1.11.27,1.51,1.6,5.91h1.3l2.07-6.67h-1.09c-1.24,4.06-1.6,5.34-1.66,5.92-.06-.46-.13-.69-.57-2.26l-1.09-3.66h-1.06c-.51,1.65-1.54,4.98-1.59,5.92-.07-.57-.13-1.18-1.62-5.92h-1.12Zm11.25,6.67h1.12v-6.67h-1.12v6.67Zm-.1-8.85h1.35v-1.33h-1.35v1.33Zm2.88,8.34c1.12.61,2.04.67,2.55.67,2.01,0,2.44-1.24,2.44-2.07,0-.97-.69-1.6-1.3-1.87-.93-.42-2.53-.22-2.53-1.32,0-.37.22-.91,1.26-.91s1.56.27,2.16.55l.16-.99c-.82-.34-1.35-.46-2.19-.46-2.04,0-2.46,1.18-2.46,1.98,0,1.05.9,1.63,1.56,1.84.46.15,1.11.22,1.44.33.3.09.84.39.84.96,0,.4-.27,1.02-1.39,1.02-1.21,0-1.93-.51-2.35-.75l-.18,1.02Zm5.85-2.88c0,1.86,1.3,3.55,3.27,3.55.94,0,1.72-.33,2.37-.76l-.09-.99c-.66.48-1.33.82-2.28.82-1.14,0-2.16-.99-2.22-2.53h4.65v-.43c-.13-2.56-1.6-3.18-2.67-3.18-1.59,0-3.03,1.51-3.03,3.52Zm1.12-.73c.16-.73.76-1.86,1.9-1.86.43,0,1.56.19,1.81,1.86h-3.72Z"/>
      <path class="cls-3" d="m330.04,59.57h-.27l.36-1.9c.27-1.46.75-2.11,1.53-2.11.51,0,.97.26,1.22.66l.17-.07c.09-.27.26-.8.39-1.14l.09-.26c-.27-.12-.8-.22-1.19-.22-.19,0-.46.05-.6.12-.41.19-1.8,1.22-2.19,1.63-.37.37-.58.88-.77,1.85l-.26,1.34c-.7.34-1.04.48-1.46.63l-.09.37h1.38l-.15.95c-.51,3.32-1.14,6.48-1.51,7.65-.31,1-.82,1.53-1.43,1.53-.39,0-.58-.12-.88-.49l-.24.07c-.07.39-.31,1.21-.39,1.36.15.09.41.14.6.14.7,0,1.62-.53,2.28-1.33,1.21-1.43,1.55-3.06,2.98-9.88h1.77c.07-.32.19-.71.29-.95l-.07-.12c-.49.12-.48.15-1.55.15Z"/>
    </g>
    <path class="cls-3" d="m85.45,119.78h-.39l.51-2.74c.39-2.11,1.08-3.04,2.2-3.04.73,0,1.4.37,1.76.95l.24-.1c.12-.39.37-1.15.56-1.64l.12-.37c-.39-.17-1.15-.32-1.71-.32-.27,0-.66.07-.86.17-.59.27-2.59,1.76-3.16,2.35-.54.54-.83,1.27-1.1,2.67l-.37,1.93c-1,.49-1.49.69-2.11.91l-.12.54h1.98l-.22,1.37c-.73,4.77-1.64,9.33-2.18,11.02-.44,1.44-1.18,2.2-2.06,2.2-.56,0-.83-.17-1.27-.71l-.34.1c-.1.56-.44,1.74-.56,1.96.22.12.59.2.86.2,1,0,2.33-.76,3.28-1.91,1.74-2.06,2.23-4.41,4.28-14.22h2.55c.1-.47.27-1.03.42-1.37l-.1-.17c-.71.17-.69.22-2.23.22Z"/>
    <path class="cls-3" d="m44.11,122.05v-.51l-.88-.05c-.94-.05-1.11-.24-1.11-1.12v-10.27l-4.1,1.73.12.85,2.55-1.12v8.81c0,.88-.19,1.07-1.11,1.12l-.95.05v.51q2.62-.05,2.81-.05c.53,0,2.4.05,2.67.05Z"/>
    <path class="cls-3" d="m134.11,122.05v-.51l-.88-.05c-.94-.05-1.11-.24-1.11-1.12v-10.27l-4.1,1.73.12.85,2.55-1.12v8.81c0,.88-.19,1.07-1.11,1.12l-.95.05v.51q2.62-.05,2.81-.05c.53,0,2.4.05,2.67.05Z"/>
    <g>
      <path class="cls-3" d="m52.87,79.57h-.27l.36-1.9c.27-1.46.75-2.11,1.53-2.11.51,0,.97.26,1.22.66l.17-.07c.09-.27.26-.8.39-1.14l.09-.26c-.27-.12-.8-.22-1.19-.22-.19,0-.46.05-.6.12-.41.19-1.8,1.22-2.19,1.63-.37.37-.58.88-.77,1.85l-.26,1.34c-.7.34-1.04.48-1.46.63l-.09.37h1.38l-.15.95c-.51,3.32-1.14,6.48-1.51,7.65-.31,1-.82,1.53-1.43,1.53-.39,0-.58-.12-.88-.49l-.24.07c-.07.39-.31,1.21-.39,1.36.15.09.41.14.6.14.7,0,1.62-.53,2.28-1.33,1.21-1.43,1.55-3.06,2.98-9.88h1.77c.07-.32.19-.71.29-.95l-.07-.12c-.49.12-.48.15-1.55.15Z"/>
      <path class="cls-3" d="m61.84,85.11c-.51,0-.97.48-.97.99s.46.99.95.99c.54,0,1.02-.46,1.02-.99s-.48-.99-1-.99Zm0-5.87c-.51,0-.97.48-.97.99s.46.99.95.99c.54,0,1.02-.46,1.02-.97s-.48-1-1-1Z"/>
      <path class="cls-3" d="m74.21,80.69c-.15,0-.31,0-.46-.02l-.1.2,4.71,6.17c.39-.02.77-.05,1.16-.05s.78.03,1.22.05v-.51c-.41-.03-.78-.12-1.04-.44l-3.86-5.03c1.65-.32,3.32-1.43,3.32-3.28,0-1.19-.68-2.55-3.25-2.55h-8.16v.51l.75.05c.7.05.87.19.87,1.53v7.63c0,1.34-.17,1.51-.87,1.55l-.75.03v.51s.94-.05,3.64-.05c.78,0,2.45.02,3.33.05v-.51l-.82-.03c-.75-.03-.87-.2-.87-1.55v-8.87c.48-.12.95-.2,1.73-.2,1.33,0,2.69.51,2.69,2.35,0,.99-.7,2.47-3.25,2.47Zm-3.52,5.78c-.46,0-.54-.26-.54-1.51v-7.63c0-1.26.1-1.46.56-1.51.65.07.71.19.71,1.51v7.63c0,1.28-.09,1.51-.73,1.51Z"/>
      <path class="cls-3" d="m100.23,82.38l-3.5-3.64-.54.58,2.13,2.58h-13.11v1h13.11l-2.13,2.58.54.58,3.5-3.69Z"/>
      <path class="cls-3" d="m111.55,80.69c-.15,0-.31,0-.46-.02l-.1.2,4.71,6.17c.39-.02.77-.05,1.16-.05s.78.03,1.22.05v-.51c-.41-.03-.78-.12-1.04-.44l-3.86-5.03c1.65-.32,3.32-1.43,3.32-3.28,0-1.19-.68-2.55-3.25-2.55h-8.16v.51l.75.05c.7.05.87.19.87,1.53v7.63c0,1.34-.17,1.51-.87,1.55l-.75.03v.51s.94-.05,3.64-.05c.78,0,2.45.02,3.33.05v-.51l-.82-.03c-.75-.03-.87-.2-.87-1.55v-8.87c.48-.12.95-.2,1.73-.2,1.33,0,2.69.51,2.69,2.35,0,.99-.7,2.47-3.25,2.47Zm-3.52,5.78c-.46,0-.54-.26-.54-1.51v-7.63c0-1.26.1-1.46.56-1.51.65.07.71.19.71,1.51v7.63c0,1.28-.09,1.51-.73,1.51Z"/>
    </g>
    <g>
      <g>
        <path class="cls-3" d="m19.17,17.55h3.35c.23,0,.46,0,.69-.03,1.54-.15,2.9-1.16,2.9-2.51,0-1.27-1.3-2.15-2.65-2.36,1.55-.39,2.27-1.27,2.27-2.12,0-.95-.95-2.35-3.56-2.35h-3v9.37Zm1.13-.76v-3.7h1.62c.23,0,.46-.01.69.01,1.27.12,2.39.88,2.39,1.89,0,.72-.74,1.8-2.78,1.8h-1.92Zm0-4.54v-3.32h1.55c2.08,0,2.81.96,2.81,1.61,0,.81-.95,1.71-2.74,1.71h-1.62Zm7.67,5.29h1.01v-2.78c0-1.97,1.5-2.43,2.3-2.46v-.9c-1.43.03-2.15.95-2.36,1.28v-1.22h-.95v6.08Zm3.93-2.98c0,1.84,1.42,3.13,2.96,3.13s2.97-1.28,2.97-3.12c0-1.69-1.24-3.25-2.97-3.25-1.59,0-2.96,1.4-2.96,3.24Zm1.05-.14c0-1.63,1.04-2.27,1.9-2.27s1.9.62,1.9,2.27-1,2.4-1.9,2.4-1.9-.7-1.9-2.4Zm5.89,1.59c0,.62.41,1.67,1.54,1.67,1.49,0,2.23-.61,2.24-.62v.47h1.03v-4.12c-.07-1.13-.96-2.11-2.24-2.11-.85,0-1.47.22-2.12.59l.08.9c.45-.31,1.01-.69,2.03-.69.18,0,.53.01.85.41.34.41.34.86.35,1.24v.46c-1.39.01-3.75.35-3.75,1.78Zm.99-.01c0-.85,1.8-1.05,2.77-1.07v.85c0,.88-.93,1.07-1.51,1.07-.73,0-1.26-.36-1.26-.85Zm5.37-1.44c0,1.61.95,3.13,2.32,3.13.89,0,1.54-.41,2-.85v.7h1.07V7.8h-1.03v4.33c-.47-.38-1.11-.74-1.96-.74-1.34,0-2.4,1.39-2.4,3.17Zm1.05-.01c0-1.77,1.17-2.32,1.96-2.32h.03c.15,0,.58.01,1,.41.24.23.28.31.28.53v2.58c0,.42-.63,1.12-1.44,1.12-.73,0-1.82-.53-1.82-2.31Zm5.93-.01c0,1.73,1.27,3.16,2.93,3.16.93,0,1.59-.3,2.2-.69l-.07-.9c-.43.3-1.07.73-2.12.73-1.13,0-1.89-.99-1.89-2.3,0-1.17.59-2.35,1.9-2.35,1.07,0,1.42.28,1.94.62l.16-.89c-.82-.47-1.26-.59-2.09-.59-1.89,0-2.97,1.65-2.97,3.21Zm6.12,1.49c0,.62.41,1.67,1.54,1.67,1.49,0,2.23-.61,2.24-.62v.47h1.03v-4.12c-.07-1.13-.96-2.11-2.24-2.11-.85,0-1.47.22-2.12.59l.08.9c.45-.31,1.01-.69,2.03-.69.18,0,.53.01.85.41.34.41.34.86.35,1.24v.46c-1.39.01-3.75.35-3.75,1.78Zm.99-.01c0-.85,1.8-1.05,2.77-1.07v.85c0,.88-.93,1.07-1.51,1.07-.73,0-1.26-.36-1.26-.85Zm5.27,1.08c1.01.55,1.84.61,2.3.61,1.81,0,2.2-1.12,2.2-1.86,0-.88-.62-1.44-1.17-1.69-.84-.38-2.28-.2-2.28-1.19,0-.34.2-.82,1.13-.82s1.4.24,1.94.5l.15-.89c-.74-.31-1.22-.42-1.97-.42-1.84,0-2.21,1.07-2.21,1.78,0,.95.81,1.47,1.4,1.66.42.14,1,.2,1.3.3.27.08.76.35.76.86,0,.36-.24.92-1.26.92-1.09,0-1.74-.46-2.12-.68l-.16.92Zm5.05-4.75h1.13v3.63c0,1.49.66,1.73,1.11,1.73.61,0,1.3-.14,2-.51l-.22-.8c-.19.14-.61.45-1.19.45-.7,0-.73-.8-.73-1.17v-3.32h1.9v-.8h-1.9v-1.7h-.95v1.7h-1.16v.8Zm5.72,5.21h1.01v-6.01h-1.01v6.01Zm-.09-7.97h1.22v-1.2h-1.22v1.2Zm3.31,7.97h1.05v-3.24c0-1,.34-2.08,1.38-2.08,1.32,0,1.32,1.01,1.32,1.53v3.79h1.05v-3.89c0-.95-.12-2.25-1.85-2.25-1.19,0-1.78.77-1.97,1.01v-.95h-.99v6.08Zm6.26.96c0,1.04,1.34,1.82,3,1.82s3-.78,3-1.84c0-.16-.03-.34-.07-.5-.38-1.35-2.03-1.38-2.92-1.38h-1.01c-.65,0-.76-.46-.76-.72,0-.09.01-.23.15-.5.3.19.63.41,1.23.41,1.26,0,2.16-1.05,2.16-2.2,0-.58-.18-.97-.53-1.44l.12.11c.24-.01.66-.05,1.01-.05.27,0,.53.01.8.04l-.15-.85c-.73,0-1.44.14-2.12.42l.03.03c-.45-.31-.82-.45-1.32-.45-1.11,0-2.15.89-2.15,2.2,0,.27.04.81.45,1.34h0c-.24.34-.39.7-.39,1.15s.12.72.34,1.03c-.53.31-.86.84-.86,1.39Zm.95,0c0-.39.3-.85.85-.9h.39s.85-.01.85-.01c1.46,0,2.01.38,2.01.93,0,.62-.97,1.04-2.07,1.04-.74,0-2.04-.3-2.04-1.05Zm.47-4.9c0-1.15.72-1.43,1.2-1.43.73,0,1.22.54,1.22,1.42,0,1.15-.72,1.43-1.2,1.43-.73,0-1.22-.54-1.22-1.42Zm9.65-2.07l1.86,6.01h1.07c.53-1.74,1.39-4.47,1.43-5.32.14,1,.24,1.36,1.44,5.32h1.17l1.86-6.01h-.99c-1.12,3.66-1.44,4.81-1.5,5.33-.05-.42-.12-.62-.51-2.04l-.99-3.29h-.96c-.46,1.49-1.39,4.48-1.43,5.33-.07-.51-.12-1.07-1.46-5.33h-1.01Zm10.13,6.01h1.01v-6.01h-1.01v6.01Zm-.09-7.97h1.22v-1.2h-1.22v1.2Zm2.47,2.75h1.13v3.63c0,1.49.66,1.73,1.11,1.73.61,0,1.3-.14,2-.51l-.22-.8c-.19.14-.61.45-1.19.45-.7,0-.73-.8-.73-1.17v-3.32h1.9v-.8h-1.9v-1.7h-.95v1.7h-1.16v.8Zm5.71,5.21h1.05v-3.24c0-1,.34-2.08,1.38-2.08,1.32,0,1.32,1.01,1.32,1.53v3.79h1.05v-3.89c0-.82-.05-2.25-1.85-2.25-.93,0-1.51.45-1.94.96v-4.56h-1.01v9.75Zm10.99-1.53c0,.62.41,1.67,1.54,1.67,1.49,0,2.23-.61,2.24-.62v.47h1.03v-4.12c-.07-1.13-.96-2.11-2.24-2.11-.85,0-1.47.22-2.12.59l.08.9c.45-.31,1.01-.69,2.03-.69.18,0,.53.01.85.41.34.41.34.86.35,1.24v.46c-1.39.01-3.75.35-3.75,1.78Zm.99-.01c0-.85,1.8-1.05,2.77-1.07v.85c0,.88-.93,1.07-1.51,1.07-.73,0-1.26-.36-1.26-.85Z"/>
        <path class="cls-3" d="m141.85,18.4v-.46l-.8-.05c-.84-.05-.99-.21-.99-1.01V7.64l-3.69,1.56.11.77,2.3-1.01v7.93c0,.8-.17.96-.99,1.01l-.86.05v.46q2.36-.05,2.52-.05c.47,0,2.16.05,2.4.05Z"/>
        <path class="cls-3" d="m143.23,14.95h3.59v-.8h-3.59v.8Zm5.45,2.61h1.01V7.8h-1.01v9.75Zm2.59-3.05c0,1.67,1.17,3.2,2.94,3.2.85,0,1.55-.3,2.13-.69l-.08-.89c-.59.43-1.2.74-2.05.74-1.03,0-1.94-.89-2-2.28h4.19v-.39c-.12-2.31-1.44-2.86-2.4-2.86-1.43,0-2.73,1.36-2.73,3.17Zm1.01-.66c.15-.66.69-1.67,1.71-1.67.39,0,1.4.18,1.63,1.67h-3.35Zm5.6,3.71h1.05v-3.24c0-1,.34-2.08,1.38-2.08,1.32,0,1.32,1.01,1.32,1.53v3.79h1.05v-3.89c0-.95-.12-2.25-1.85-2.25-1.19,0-1.78.77-1.97,1.01v-.95h-.99v6.08Zm6.26.96c0,1.04,1.34,1.82,3,1.82s3-.78,3-1.84c0-.16-.03-.34-.07-.5-.38-1.35-2.03-1.38-2.92-1.38h-1.01c-.65,0-.76-.46-.76-.72,0-.09.01-.23.15-.5.3.19.63.41,1.23.41,1.26,0,2.16-1.05,2.16-2.2,0-.58-.18-.97-.53-1.44l.12.11c.24-.01.66-.05,1.01-.05.27,0,.53.01.8.04l-.15-.85c-.73,0-1.44.14-2.12.42l.03.03c-.45-.31-.82-.45-1.32-.45-1.11,0-2.15.89-2.15,2.2,0,.27.04.81.45,1.34h0c-.24.34-.39.7-.39,1.15s.12.72.34,1.03c-.53.31-.86.84-.86,1.39Zm.95,0c0-.39.3-.85.85-.9h.39s.85-.01.85-.01c1.46,0,2.01.38,2.01.93,0,.62-.97,1.04-2.07,1.04-.74,0-2.04-.3-2.04-1.05Zm.47-4.9c0-1.15.72-1.43,1.2-1.43.73,0,1.22.54,1.22,1.42,0,1.15-.72,1.43-1.2,1.43-.73,0-1.22-.54-1.22-1.42Zm5.21-1.27h1.13v3.63c0,1.49.66,1.73,1.11,1.73.61,0,1.3-.14,2-.51l-.22-.8c-.19.14-.61.45-1.19.45-.7,0-.73-.8-.73-1.17v-3.32h1.9v-.8h-1.9v-1.7h-.95v1.7h-1.16v.8Zm5.71,5.21h1.05v-3.24c0-1,.34-2.08,1.38-2.08,1.32,0,1.32,1.01,1.32,1.53v3.79h1.05v-3.89c0-.82-.05-2.25-1.85-2.25-.93,0-1.51.45-1.94.96v-4.56h-1.01v9.75Zm10.99-1.53c0,.62.41,1.67,1.54,1.67,1.49,0,2.23-.61,2.24-.62v.47h1.03v-4.12c-.07-1.13-.96-2.11-2.24-2.11-.85,0-1.47.22-2.12.59l.08.9c.45-.31,1.01-.69,2.03-.69.18,0,.53.01.85.41.34.41.34.86.35,1.24v.46c-1.39.01-3.75.35-3.75,1.78Zm.99-.01c0-.85,1.8-1.05,2.77-1.07v.85c0,.88-.93,1.07-1.51,1.07-.73,0-1.26-.36-1.26-.85Zm4.9,1.54h1.12l1.94-2.54,2.03,2.54h1.12l-2.7-3.09h0s2.48-2.92,2.48-2.92h-1.12l-1.8,2.23h-.01l-1.86-2.23h-1.12l2.54,2.9v.03l-2.62,3.08Zm7.32,0h1.01v-6.01h-1.01v6.01Zm-.09-7.97h1.22v-1.2h-1.22v1.2Zm2.59,7.51c1.01.55,1.84.61,2.3.61,1.81,0,2.2-1.12,2.2-1.86,0-.88-.62-1.44-1.17-1.69-.84-.38-2.28-.2-2.28-1.19,0-.34.2-.82,1.13-.82s1.4.24,1.94.5l.15-.89c-.74-.31-1.22-.42-1.97-.42-1.84,0-2.21,1.07-2.21,1.78,0,.95.81,1.47,1.4,1.66.42.14,1,.2,1.3.3.27.08.76.35.76.86,0,.36-.24.92-1.26.92-1.09,0-1.74-.46-2.12-.68l-.16.92Zm10.4.46h1.01V7.8h-1.01v9.75Zm2.59-3.05c0,1.67,1.17,3.2,2.94,3.2.85,0,1.55-.3,2.13-.69l-.08-.89c-.59.43-1.2.74-2.05.74-1.03,0-1.94-.89-2-2.28h4.19v-.39c-.12-2.31-1.44-2.86-2.4-2.86-1.43,0-2.73,1.36-2.73,3.17Zm1.01-.66c.15-.66.69-1.67,1.71-1.67.39,0,1.4.18,1.63,1.67h-3.35Zm5.12,2.19c0,.62.41,1.67,1.54,1.67,1.49,0,2.23-.61,2.24-.62v.47h1.03v-4.12c-.07-1.13-.96-2.11-2.24-2.11-.85,0-1.47.22-2.12.59l.08.9c.45-.31,1.01-.69,2.03-.69.18,0,.53.01.85.41.34.41.34.86.35,1.24v.46c-1.39.01-3.75.35-3.75,1.78Zm.99-.01c0-.85,1.8-1.05,2.77-1.07v.85c0,.88-.93,1.07-1.51,1.07-.73,0-1.26-.36-1.26-.85Zm5.09-4.47l2.32,6.01h1.19l2.32-6.01h-1c-1.31,3.4-1.81,4.79-1.89,5.33-.07-.42-.15-.63-.65-2.04l-1.26-3.29h-1.04Zm6.49,2.96c0,1.67,1.17,3.2,2.94,3.2.85,0,1.55-.3,2.13-.69l-.08-.89c-.59.43-1.2.74-2.05.74-1.03,0-1.94-.89-2-2.28h4.19v-.39c-.12-2.31-1.44-2.86-2.4-2.86-1.43,0-2.73,1.36-2.73,3.17Zm1.01-.66c.15-.66.69-1.67,1.71-1.67.39,0,1.4.18,1.63,1.67h-3.35Zm4.89,3.25c1.01.55,1.84.61,2.3.61,1.81,0,2.2-1.12,2.2-1.86,0-.88-.62-1.44-1.17-1.69-.84-.38-2.28-.2-2.28-1.19,0-.34.2-.82,1.13-.82s1.4.24,1.94.5l.15-.89c-.74-.31-1.22-.42-1.97-.42-1.84,0-2.21,1.07-2.21,1.78,0,.95.81,1.47,1.4,1.66.42.14,1,.2,1.3.3.27.08.76.35.76.86,0,.36-.24.92-1.26.92-1.09,0-1.74-.46-2.12-.68l-.16.92Zm9.77-2.52c0,1.61.95,3.13,2.32,3.13.89,0,1.54-.41,2-.85v.7h1.07V7.8h-1.03v4.33c-.47-.38-1.11-.74-1.96-.74-1.34,0-2.4,1.39-2.4,3.17Zm1.05-.01c0-1.77,1.17-2.32,1.96-2.32h.03c.15,0,.58.01,1,.41.24.23.28.31.28.53v2.58c0,.42-.63,1.12-1.44,1.12-.73,0-1.82-.53-1.82-2.31Zm6.05,1.47c0,.62.41,1.67,1.54,1.67,1.49,0,2.23-.61,2.24-.62v.47h1.03v-4.12c-.07-1.13-.96-2.11-2.24-2.11-.85,0-1.47.22-2.12.59l.08.9c.45-.31,1.01-.69,2.03-.69.18,0,.53.01.85.41.34.41.34.86.35,1.24v.46c-1.39.01-3.75.35-3.75,1.78Zm.99-.01c0-.85,1.8-1.05,2.77-1.07v.85c0,.88-.93,1.07-1.51,1.07-.73,0-1.26-.36-1.26-.85Zm5.14-3.67h1.13v3.63c0,1.49.66,1.73,1.11,1.73.61,0,1.3-.14,2-.51l-.22-.8c-.19.14-.61.45-1.19.45-.7,0-.73-.8-.73-1.17v-3.32h1.9v-.8h-1.9v-1.7h-.95v1.7h-1.16v.8Zm5.22,3.69c0,.62.41,1.67,1.54,1.67,1.49,0,2.23-.61,2.24-.62v.47h1.03v-4.12c-.07-1.13-.96-2.11-2.24-2.11-.85,0-1.47.22-2.12.59l.08.9c.45-.31,1.01-.69,2.03-.69.18,0,.53.01.85.41.34.41.34.86.35,1.24v.46c-1.39.01-3.75.35-3.75,1.78Zm.99-.01c0-.85,1.8-1.05,2.77-1.07v.85c0,.88-.93,1.07-1.51,1.07-.73,0-1.26-.36-1.26-.85Zm9.64-3.67h1.13v3.63c0,1.49.66,1.73,1.11,1.73.61,0,1.3-.14,2-.51l-.22-.8c-.19.14-.61.45-1.19.45-.7,0-.73-.8-.73-1.17v-3.32h1.9v-.8h-1.9v-1.7h-.95v1.7h-1.16v.8Zm4.44-.8l2.52,5.76c.05.11.07.16.07.23,0,.05-.01.12-.05.22-.58,1.4-.69,1.81-1.26,1.81-.23,0-.53-.08-.99-.23l.07.88c.32.08.73.11.99.11.62,0,1.01-.31,1.55-1.55l2.93-7.22h-1.01c-.89,2.21-1.77,4.41-1.8,5.33-.12-.77-.12-1.13-1.96-5.33h-1.07Zm7.13,8.64h1.05v-3.25c.45.42,1.03.77,1.82.77,1.31,0,2.51-1.27,2.51-3.17,0-1.61-.85-3.12-2.13-3.12-.46,0-1.38.09-2.24.8v-.66h-1.01v8.64Zm1.05-4.33v-2.81c.08-.09.54-.77,1.43-.77,1.11,0,1.84,1.09,1.84,2.28,0,1.43-1.01,2.32-1.96,2.32-.8,0-1.31-.7-1.31-1.03Zm5.67-1.35c0,1.67,1.17,3.2,2.94,3.2.85,0,1.55-.3,2.13-.69l-.08-.89c-.59.43-1.2.74-2.05.74-1.03,0-1.94-.89-2-2.28h4.19v-.39c-.12-2.31-1.44-2.86-2.4-2.86-1.43,0-2.73,1.36-2.73,3.17Zm1.01-.66c.15-.66.69-1.67,1.71-1.67.39,0,1.4.18,1.63,1.67h-3.35Zm4.89,3.25c1.01.55,1.84.61,2.3.61,1.81,0,2.2-1.12,2.2-1.86,0-.88-.62-1.44-1.17-1.69-.84-.38-2.28-.2-2.28-1.19,0-.34.2-.82,1.13-.82s1.4.24,1.94.5l.15-.89c-.74-.31-1.22-.42-1.97-.42-1.84,0-2.21,1.07-2.21,1.78,0,.95.81,1.47,1.4,1.66.42.14,1,.2,1.3.3.27.08.76.35.76.86,0,.36-.24.92-1.26.92-1.09,0-1.74-.46-2.12-.68l-.16.92Zm10.38-1.19c0,.7,0,1.8,1.42,1.8.74,0,1.66-.19,2.36-.8v.65h1.03v-6.01h-1.05v3.78c0,.14,0,.26-.01.39-.07.58-.59,1.23-1.61,1.23-.92,0-1.07-.3-1.08-.88v-4.52h-1.05v4.36Zm6.98,1.65h1.05v-3.24c0-1,.34-2.08,1.38-2.08,1.32,0,1.32,1.01,1.32,1.53v3.79h1.05v-3.89c0-.95-.12-2.25-1.85-2.25-1.19,0-1.78.77-1.97,1.01v-.95h-.99v6.08Zm6.37-3.01c0,1.73,1.27,3.16,2.93,3.16.93,0,1.59-.3,2.2-.69l-.07-.9c-.43.3-1.07.73-2.12.73-1.13,0-1.89-.99-1.89-2.3,0-1.17.59-2.35,1.9-2.35,1.07,0,1.42.28,1.94.62l.16-.89c-.82-.47-1.26-.59-2.09-.59-1.89,0-2.97,1.65-2.97,3.21Zm6.6,3.01h1.05v-3.24c0-1,.34-2.08,1.38-2.08,1.32,0,1.32,1.01,1.32,1.53v3.79h1.05v-3.89c0-.82-.05-2.25-1.85-2.25-.93,0-1.51.45-1.94.96v-4.56h-1.01v9.75Zm6.49-1.53c0,.62.41,1.67,1.54,1.67,1.49,0,2.23-.61,2.24-.62v.47h1.03v-4.12c-.07-1.13-.96-2.11-2.24-2.11-.85,0-1.47.22-2.12.59l.08.9c.45-.31,1.01-.69,2.03-.69.18,0,.53.01.85.41.34.41.34.86.35,1.24v.46c-1.39.01-3.75.35-3.75,1.78Zm.99-.01c0-.85,1.8-1.05,2.77-1.07v.85c0,.88-.93,1.07-1.51,1.07-.73,0-1.26-.36-1.26-.85Zm5.98,1.54h1.05v-3.24c0-1,.34-2.08,1.38-2.08,1.32,0,1.32,1.01,1.32,1.53v3.79h1.05v-3.89c0-.95-.12-2.25-1.85-2.25-1.19,0-1.78.77-1.97,1.01v-.95h-.99v6.08Zm6.26.96c0,1.04,1.34,1.82,3,1.82s3-.78,3-1.84c0-.16-.03-.34-.07-.5-.38-1.35-2.03-1.38-2.92-1.38h-1.01c-.65,0-.76-.46-.76-.72,0-.09.01-.23.15-.5.3.19.63.41,1.23.41,1.26,0,2.16-1.05,2.16-2.2,0-.58-.18-.97-.53-1.44l.12.11c.24-.01.66-.05,1.01-.05.27,0,.53.01.8.04l-.15-.85c-.73,0-1.44.14-2.12.42l.03.03c-.45-.31-.82-.45-1.32-.45-1.11,0-2.15.89-2.15,2.2,0,.27.04.81.45,1.34h0c-.24.34-.39.7-.39,1.15s.12.72.34,1.03c-.53.31-.86.84-.86,1.39Zm.95,0c0-.39.3-.85.85-.9h.39s.85-.01.85-.01c1.46,0,2.01.38,2.01.93,0,.62-.97,1.04-2.07,1.04-.74,0-2.04-.3-2.04-1.05Zm.47-4.9c0-1.15.72-1.43,1.2-1.43.73,0,1.22.54,1.22,1.42,0,1.15-.72,1.43-1.2,1.43-.73,0-1.22-.54-1.22-1.42Zm5.43.89c0,1.67,1.17,3.2,2.94,3.2.85,0,1.55-.3,2.13-.69l-.08-.89c-.59.43-1.2.74-2.05.74-1.03,0-1.94-.89-2-2.28h4.19v-.39c-.12-2.31-1.44-2.86-2.4-2.86-1.43,0-2.73,1.36-2.73,3.17Zm1.01-.66c.15-.66.69-1.67,1.71-1.67.39,0,1.4.18,1.63,1.67h-3.35Zm5,.73c0,1.61.95,3.13,2.32,3.13.89,0,1.54-.41,2-.85v.7h1.07V7.8h-1.03v4.33c-.47-.38-1.11-.74-1.96-.74-1.34,0-2.4,1.39-2.4,3.17Zm1.05-.01c0-1.77,1.17-2.32,1.96-2.32h.03c.15,0,.58.01,1,.41.24.23.28.31.28.53v2.58c0,.42-.63,1.12-1.44,1.12-.73,0-1.82-.53-1.82-2.31Zm6.75,3h.35l-.35,1.69h.57l.55-1.69v-.19s.01-.95.01-.95h-1.13v1.13Zm7.32-.46c1.01.55,1.84.61,2.3.61,1.81,0,2.2-1.12,2.2-1.86,0-.88-.62-1.44-1.17-1.69-.84-.38-2.28-.2-2.28-1.19,0-.34.2-.82,1.13-.82s1.4.24,1.94.5l.15-.89c-.74-.31-1.22-.42-1.97-.42-1.84,0-2.21,1.07-2.21,1.78,0,.95.81,1.47,1.4,1.66.42.14,1,.2,1.3.3.27.08.76.35.76.86,0,.36-.24.92-1.26.92-1.09,0-1.74-.46-2.12-.68l-.16.92Zm5.21-2.52c0,1.84,1.42,3.13,2.96,3.13s2.97-1.28,2.97-3.12c0-1.69-1.24-3.25-2.97-3.25-1.59,0-2.96,1.4-2.96,3.24Zm1.05-.14c0-1.63,1.04-2.27,1.9-2.27s1.9.62,1.9,2.27-1,2.4-1.9,2.4-1.9-.7-1.9-2.4Z"/>
        <path class="cls-3" d="m404.3,18.4v-.46l-.8-.05c-.84-.05-.99-.21-.99-1.01V7.64l-3.69,1.56.11.77,2.3-1.01v7.93c0,.8-.17.96-.99,1.01l-.86.05v.46q2.36-.05,2.52-.05c.47,0,2.16.05,2.4.05Z"/>
        <path class="cls-3" d="m405.68,14.95h3.59v-.8h-3.59v.8Zm5.45,2.61h1.01V7.8h-1.01v9.75Zm2.59-3.05c0,1.67,1.17,3.2,2.94,3.2.85,0,1.55-.3,2.13-.69l-.08-.89c-.59.43-1.2.74-2.05.74-1.03,0-1.94-.89-2-2.28h4.19v-.39c-.12-2.31-1.44-2.86-2.4-2.86-1.43,0-2.73,1.36-2.73,3.17Zm1.01-.66c.15-.66.69-1.67,1.71-1.67.39,0,1.4.18,1.63,1.67h-3.35Zm5.6,3.71h1.05v-3.24c0-1,.34-2.08,1.38-2.08,1.32,0,1.32,1.01,1.32,1.53v3.79h1.05v-3.89c0-.95-.12-2.25-1.85-2.25-1.19,0-1.78.77-1.97,1.01v-.95h-.99v6.08Zm6.26.96c0,1.04,1.34,1.82,3,1.82s3-.78,3-1.84c0-.16-.03-.34-.07-.5-.38-1.35-2.03-1.38-2.92-1.38h-1.01c-.65,0-.76-.46-.76-.72,0-.09.01-.23.15-.5.3.19.63.41,1.23.41,1.26,0,2.16-1.05,2.16-2.2,0-.58-.18-.97-.53-1.44l.12.11c.24-.01.66-.05,1.01-.05.27,0,.53.01.8.04l-.15-.85c-.73,0-1.44.14-2.12.42l.03.03c-.45-.31-.82-.45-1.32-.45-1.11,0-2.15.89-2.15,2.2,0,.27.04.81.45,1.34h0c-.24.34-.39.7-.39,1.15s.12.72.34,1.03c-.53.31-.86.84-.86,1.39Zm.95,0c0-.39.3-.85.85-.9h.39s.85-.01.85-.01c1.46,0,2.01.38,2.01.93,0,.62-.97,1.04-2.07,1.04-.74,0-2.04-.3-2.04-1.05Zm.47-4.9c0-1.15.72-1.43,1.2-1.43.73,0,1.22.54,1.22,1.42,0,1.15-.72,1.43-1.2,1.43-.73,0-1.22-.54-1.22-1.42Zm5.21-1.27h1.13v3.63c0,1.49.66,1.73,1.11,1.73.61,0,1.3-.14,2-.51l-.22-.8c-.19.14-.61.45-1.19.45-.7,0-.73-.8-.73-1.17v-3.32h1.9v-.8h-1.9v-1.7h-.95v1.7h-1.16v.8Zm5.71,5.21h1.05v-3.24c0-1,.34-2.08,1.38-2.08,1.32,0,1.32,1.01,1.32,1.53v3.79h1.05v-3.89c0-.82-.05-2.25-1.85-2.25-.93,0-1.51.45-1.94.96v-4.56h-1.01v9.75Z"/>
      </g>
      <g>
        <path class="cls-3" d="m18.47,35.92c0,.62.41,1.67,1.54,1.67,1.49,0,2.23-.61,2.24-.62v.47h1.03v-4.12c-.07-1.13-.96-2.11-2.24-2.11-.85,0-1.47.22-2.12.59l.08.9c.45-.31,1.01-.69,2.03-.69.18,0,.53.01.85.41.34.41.34.86.35,1.24v.46c-1.39.01-3.75.35-3.75,1.78Zm.99-.01c0-.85,1.8-1.05,2.77-1.07v.85c0,.88-.93,1.07-1.51,1.07-.73,0-1.26-.36-1.26-.85Zm4.9,1.54h1.12l1.94-2.54,2.03,2.54h1.12l-2.7-3.09h0s2.48-2.92,2.48-2.92h-1.12l-1.8,2.23h-.01l-1.86-2.23h-1.12l2.54,2.9v.03l-2.62,3.08Zm6.68-3.05c0,1.67,1.17,3.2,2.94,3.2.85,0,1.55-.3,2.13-.69l-.08-.89c-.59.43-1.2.74-2.05.74-1.03,0-1.94-.89-2-2.28h4.19v-.39c-.12-2.31-1.44-2.86-2.4-2.86-1.43,0-2.73,1.36-2.73,3.17Zm1.01-.66c.15-.66.69-1.67,1.71-1.67.39,0,1.4.18,1.63,1.67h-3.35Zm4.89,3.25c1.01.55,1.84.61,2.3.61,1.81,0,2.2-1.12,2.2-1.86,0-.88-.62-1.44-1.17-1.69-.84-.38-2.28-.2-2.28-1.19,0-.34.2-.82,1.13-.82s1.4.24,1.94.5l.15-.89c-.74-.31-1.22-.42-1.97-.42-1.84,0-2.21,1.07-2.21,1.78,0,.95.81,1.47,1.4,1.66.42.14,1,.2,1.3.3.27.08.76.35.76.86,0,.36-.24.92-1.26.92-1.09,0-1.74-.46-2.12-.68l-.16.92Zm9.77-2.55c0,1.73,1.27,3.16,2.93,3.16.93,0,1.59-.3,2.2-.69l-.07-.9c-.43.3-1.07.73-2.12.73-1.13,0-1.89-.99-1.89-2.3,0-1.17.59-2.35,1.9-2.35,1.07,0,1.42.28,1.94.62l.16-.89c-.82-.47-1.26-.59-2.09-.59-1.89,0-2.97,1.65-2.97,3.21Zm6.12,1.49c0,.62.41,1.67,1.54,1.67,1.49,0,2.23-.61,2.24-.62v.47h1.03v-4.12c-.07-1.13-.96-2.11-2.24-2.11-.85,0-1.47.22-2.12.59l.08.9c.45-.31,1.01-.69,2.03-.69.18,0,.53.01.85.41.34.41.34.86.35,1.24v.46c-1.39.01-3.75.35-3.75,1.78Zm.99-.01c0-.85,1.8-1.05,2.77-1.07v.85c0,.88-.93,1.07-1.51,1.07-.73,0-1.26-.36-1.26-.85Zm5.98,1.54h1.05v-3.24c0-1,.34-2.08,1.38-2.08,1.32,0,1.32,1.01,1.32,1.53v3.79h1.05v-3.89c0-.95-.12-2.25-1.85-2.25-1.19,0-1.78.77-1.97,1.01v-.95h-.99v6.08Zm11.49,0h1.05v-.62c.46.42,1.01.77,1.81.77,1.34,0,2.52-1.31,2.52-3.17,0-1.62-.88-3.12-2.21-3.12-.42,0-1.3.09-2.16.78v-4.39h-1.01v9.75Zm1.05-1.8v-2.52c0-.5.74-1,1.44-1s1.82.51,1.82,2.31-1.16,2.34-1.93,2.34c-.39,0-.8-.16-1.11-.54-.18-.26-.23-.23-.23-.58Zm5.67-1.26c0,1.67,1.17,3.2,2.94,3.2.85,0,1.55-.3,2.13-.69l-.08-.89c-.59.43-1.2.74-2.05.74-1.03,0-1.94-.89-2-2.28h4.19v-.39c-.12-2.31-1.44-2.86-2.4-2.86-1.43,0-2.73,1.36-2.73,3.17Zm1.01-.66c.15-.66.69-1.67,1.71-1.67.39,0,1.4.18,1.63,1.67h-3.35Zm9.38-1.5h1v5.21h1.01v-5.21h1.49v-.8h-1.53v-1.84c0-1.04.82-1.23,1.26-1.23s.78.11,1.09.23v-.9c-.31-.08-.65-.15-1.07-.15-1.09,0-2.27.81-2.27,2.58,0,.11.01.22.01.32v.99h-1v.8Zm4.85,5.21h1.01v-2.78c0-1.97,1.5-2.43,2.3-2.46v-.9c-1.43.03-2.15.95-2.36,1.28v-1.22h-.95v6.08Zm3.98-3.05c0,1.67,1.17,3.2,2.94,3.2.85,0,1.55-.3,2.13-.69l-.08-.89c-.59.43-1.2.74-2.05.74-1.03,0-1.94-.89-2-2.28h4.19v-.39c-.12-2.31-1.44-2.86-2.4-2.86-1.43,0-2.73,1.36-2.73,3.17Zm1.01-.66c.15-.66.69-1.67,1.71-1.67.39,0,1.4.18,1.63,1.67h-3.35Zm4.98.66c0,1.67,1.17,3.2,2.94,3.2.85,0,1.55-.3,2.13-.69l-.08-.89c-.59.43-1.2.74-2.05.74-1.03,0-1.94-.89-2-2.28h4.19v-.39c-.12-2.31-1.44-2.86-2.4-2.86-1.43,0-2.73,1.36-2.73,3.17Zm1.01-.66c.15-.66.69-1.67,1.71-1.67.39,0,1.4.18,1.63,1.67h-3.35Zm5.62,3.71h1.01v-9.75h-1.01v9.75Zm2.32-6.01l2.52,5.76c.05.11.07.16.07.23,0,.05-.01.12-.05.22-.58,1.4-.69,1.81-1.26,1.81-.23,0-.53-.08-.99-.23l.07.88c.32.08.73.11.99.11.62,0,1.01-.31,1.55-1.55l2.93-7.22h-1.01c-.89,2.21-1.77,4.41-1.8,5.33-.12-.77-.12-1.13-1.96-5.33h-1.07Zm11.62,6.01h1.01v-6.01h-1.01v6.01Zm-.09-7.97h1.22v-1.2h-1.22v1.2Zm3.31,7.97h1.05v-3.24c0-1,.34-2.08,1.38-2.08,1.32,0,1.32,1.01,1.32,1.53v3.79h1.05v-3.89c0-.95-.12-2.25-1.85-2.25-1.19,0-1.78.77-1.97,1.01v-.95h-.99v6.08Zm6.14-5.21h1.13v3.63c0,1.49.66,1.73,1.11,1.73.61,0,1.3-.14,2-.51l-.22-.8c-.19.14-.61.45-1.19.45-.7,0-.73-.8-.73-1.17v-3.32h1.9v-.8h-1.9v-1.7h-.95v1.7h-1.16v.8Zm5.72,5.21h1.01v-2.78c0-1.97,1.5-2.43,2.3-2.46v-.9c-1.43.03-2.15.95-2.36,1.28v-1.22h-.95v6.08Zm3.93-2.98c0,1.84,1.42,3.13,2.96,3.13s2.97-1.28,2.97-3.12c0-1.69-1.24-3.25-2.97-3.25-1.59,0-2.96,1.4-2.96,3.24Zm1.05-.14c0-1.63,1.04-2.27,1.9-2.27s1.9.62,1.9,2.27-1,2.4-1.9,2.4-1.9-.7-1.9-2.4Zm6.14.14c0,1.61.95,3.13,2.32,3.13.89,0,1.54-.41,2-.85v.7h1.07v-9.75h-1.03v4.33c-.47-.38-1.11-.74-1.96-.74-1.34,0-2.4,1.39-2.4,3.17Zm1.05-.01c0-1.77,1.17-2.32,1.96-2.32h.03c.15,0,.58.01,1,.41.24.23.28.31.28.53v2.58c0,.42-.63,1.12-1.44,1.12-.73,0-1.82-.53-1.82-2.31Zm6.53,1.35c0,.7,0,1.8,1.42,1.8.74,0,1.66-.19,2.36-.8v.65h1.03v-6.01h-1.05v3.78c0,.14,0,.26-.01.39-.07.58-.59,1.23-1.61,1.23-.92,0-1.07-.3-1.08-.88v-4.52h-1.05v4.36Zm6.37-1.36c0,1.73,1.27,3.16,2.93,3.16.93,0,1.59-.3,2.2-.69l-.07-.9c-.43.3-1.07.73-2.12.73-1.13,0-1.89-.99-1.89-2.3,0-1.17.59-2.35,1.9-2.35,1.07,0,1.42.28,1.94.62l.16-.89c-.82-.47-1.26-.59-2.09-.59-1.89,0-2.97,1.65-2.97,3.21Zm5.98-.04c0,1.67,1.17,3.2,2.94,3.2.85,0,1.55-.3,2.13-.69l-.08-.89c-.59.43-1.2.74-2.05.74-1.03,0-1.94-.89-2-2.28h4.19v-.39c-.12-2.31-1.44-2.86-2.4-2.86-1.43,0-2.73,1.36-2.73,3.17Zm1.01-.66c.15-.66.69-1.67,1.71-1.67.39,0,1.4.18,1.63,1.67h-3.35Zm5,.73c0,1.61.95,3.13,2.32,3.13.89,0,1.54-.41,2-.85v.7h1.07v-9.75h-1.03v4.33c-.47-.38-1.11-.74-1.96-.74-1.34,0-2.4,1.39-2.4,3.17Zm1.05-.01c0-1.77,1.17-2.32,1.96-2.32h.03c.15,0,.58.01,1,.41.24.23.28.31.28.53v2.58c0,.42-.63,1.12-1.44,1.12-.73,0-1.82-.53-1.82-2.31Zm10.54,1.47c0,.62.41,1.67,1.54,1.67,1.49,0,2.23-.61,2.24-.62v.47h1.03v-4.12c-.07-1.13-.96-2.11-2.24-2.11-.85,0-1.47.22-2.12.59l.08.9c.45-.31,1.01-.69,2.03-.69.18,0,.53.01.85.41.34.41.34.86.35,1.24v.46c-1.39.01-3.75.35-3.75,1.78Zm.99-.01c0-.85,1.8-1.05,2.77-1.07v.85c0,.88-.93,1.07-1.51,1.07-.73,0-1.26-.36-1.26-.85Zm5.98,1.54h1.05v-3.24c0-1,.34-2.08,1.38-2.08,1.32,0,1.32,1.01,1.32,1.53v3.79h1.05v-3.89c0-.95-.12-2.25-1.85-2.25-1.19,0-1.78.77-1.97,1.01v-.95h-.99v6.08Zm6.37-2.98c0,1.61.95,3.13,2.32,3.13.89,0,1.54-.41,2-.85v.7h1.07v-9.75h-1.03v4.33c-.47-.38-1.11-.74-1.96-.74-1.34,0-2.4,1.39-2.4,3.17Zm1.05-.01c0-1.77,1.17-2.32,1.96-2.32h.03c.15,0,.58.01,1,.41.24.23.28.31.28.53v2.58c0,.42-.63,1.12-1.44,1.12-.73,0-1.82-.53-1.82-2.31Zm11.04,3h1.01v-2.78c0-1.97,1.5-2.43,2.3-2.46v-.9c-1.43.03-2.15.95-2.36,1.28v-1.22h-.95v6.08Zm3.98-3.05c0,1.67,1.17,3.2,2.94,3.2.85,0,1.55-.3,2.13-.69l-.08-.89c-.59.43-1.2.74-2.05.74-1.03,0-1.94-.89-2-2.28h4.19v-.39c-.12-2.31-1.44-2.86-2.4-2.86-1.43,0-2.73,1.36-2.73,3.17Zm1.01-.66c.15-.66.69-1.67,1.71-1.67.39,0,1.4.18,1.63,1.67h-3.35Zm5.6,3.71h1.05v-3.24c0-1,.34-2.08,1.38-2.08,1.32,0,1.32,1.01,1.32,1.53v3.79h1.05v-3.24c0-1,.34-2.08,1.38-2.08,1.32,0,1.31,1.53,1.31,1.53v3.79h1.07v-3.89c0-.78-.04-2.25-1.85-2.25-1.23,0-1.84.82-2.04,1.09-.19-.51-.59-1.09-1.71-1.09-1.19,0-1.78.77-1.97,1.01v-.95h-.99v6.08Zm10.04-2.98c0,1.84,1.42,3.13,2.96,3.13s2.97-1.28,2.97-3.12c0-1.69-1.24-3.25-2.97-3.25-1.59,0-2.96,1.4-2.96,3.24Zm1.05-.14c0-1.63,1.04-2.27,1.9-2.27s1.9.62,1.9,2.27-1,2.4-1.9,2.4-1.9-.7-1.9-2.4Zm5.48-2.89l2.32,6.01h1.19l2.32-6.01h-1c-1.31,3.4-1.81,4.79-1.89,5.33-.07-.42-.15-.63-.65-2.04l-1.26-3.29h-1.04Zm6.49,2.96c0,1.67,1.17,3.2,2.94,3.2.85,0,1.55-.3,2.13-.69l-.08-.89c-.59.43-1.2.74-2.05.74-1.03,0-1.94-.89-2-2.28h4.19v-.39c-.12-2.31-1.44-2.86-2.4-2.86-1.43,0-2.73,1.36-2.73,3.17Zm1.01-.66c.15-.66.69-1.67,1.71-1.67.39,0,1.4.18,1.63,1.67h-3.35Zm5,.73c0,1.61.95,3.13,2.32,3.13.89,0,1.54-.41,2-.85v.7h1.07v-9.75h-1.03v4.33c-.47-.38-1.11-.74-1.96-.74-1.34,0-2.4,1.39-2.4,3.17Zm1.05-.01c0-1.77,1.17-2.32,1.96-2.32h.03c.15,0,.58.01,1,.41.24.23.28.31.28.53v2.58c0,.42-.63,1.12-1.44,1.12-.73,0-1.82-.53-1.82-2.31Zm10.14-3.01l1.86,6.01h1.07c.53-1.74,1.39-4.47,1.43-5.32.14,1,.24,1.36,1.44,5.32h1.17l1.86-6.01h-.99c-1.12,3.66-1.44,4.81-1.5,5.33-.05-.42-.12-.62-.51-2.04l-.99-3.29h-.96c-.46,1.49-1.39,4.48-1.43,5.33-.07-.51-.12-1.07-1.46-5.33h-1.01Zm10.13,6.01h1.01v-6.01h-1.01v6.01Zm-.09-7.97h1.22v-1.2h-1.22v1.2Zm2.47,2.75h1.13v3.63c0,1.49.66,1.73,1.11,1.73.61,0,1.3-.14,2-.51l-.22-.8c-.19.14-.61.45-1.19.45-.7,0-.73-.8-.73-1.17v-3.32h1.9v-.8h-1.9v-1.7h-.95v1.7h-1.16v.8Zm5.71,5.21h1.05v-3.24c0-1,.34-2.08,1.38-2.08,1.32,0,1.32,1.01,1.32,1.53v3.79h1.05v-3.89c0-.82-.05-2.25-1.85-2.25-.93,0-1.51.45-1.94.96v-4.56h-1.01v9.75Zm10.99-1.53c0,.62.41,1.67,1.54,1.67,1.49,0,2.23-.61,2.24-.62v.47h1.03v-4.12c-.07-1.13-.96-2.11-2.24-2.11-.85,0-1.47.22-2.12.59l.08.9c.45-.31,1.01-.69,2.03-.69.18,0,.53.01.85.41.34.41.34.86.35,1.24v.46c-1.39.01-3.75.35-3.75,1.78Zm.99-.01c0-.85,1.8-1.05,2.77-1.07v.85c0,.88-.93,1.07-1.51,1.07-.73,0-1.26-.36-1.26-.85Zm5.62,1.54h1.01v-2.78c0-1.97,1.5-2.43,2.3-2.46v-.9c-1.43.03-2.15.95-2.36,1.28v-1.22h-.95v6.08Zm4.62,0h1.01v-2.78c0-1.97,1.5-2.43,2.3-2.46v-.9c-1.43.03-2.15.95-2.36,1.28v-1.22h-.95v6.08Zm3.93-2.98c0,1.84,1.42,3.13,2.96,3.13s2.97-1.28,2.97-3.12c0-1.69-1.24-3.25-2.97-3.25-1.59,0-2.96,1.4-2.96,3.24Zm1.05-.14c0-1.63,1.04-2.27,1.9-2.27s1.9.62,1.9,2.27-1,2.4-1.9,2.4-1.9-.7-1.9-2.4Zm5.1-2.89l1.86,6.01h1.07c.53-1.74,1.39-4.47,1.43-5.32.14,1,.24,1.36,1.44,5.32h1.17l1.86-6.01h-.99c-1.12,3.66-1.44,4.81-1.5,5.33-.05-.42-.12-.62-.51-2.04l-.99-3.29h-.96c-.46,1.49-1.39,4.48-1.43,5.33-.07-.51-.12-1.07-1.46-5.33h-1.01Zm9.4,5.55c1.01.55,1.84.61,2.3.61,1.81,0,2.2-1.12,2.2-1.86,0-.88-.62-1.44-1.17-1.69-.84-.38-2.28-.2-2.28-1.19,0-.34.2-.82,1.13-.82s1.4.24,1.94.5l.15-.89c-.74-.31-1.22-.42-1.97-.42-1.84,0-2.21,1.07-2.21,1.78,0,.95.81,1.47,1.4,1.66.42.14,1,.2,1.3.3.27.08.76.35.76.86,0,.36-.24.92-1.26.92-1.09,0-1.74-.46-2.12-.68l-.16.92Zm6.1.46h.35l-.35,1.69h.57l.55-1.69v-.19s.01-.95.01-.95h-1.13v1.13Zm0-4.87h1.13v-1.13h-1.13v1.13Z"/>
        <path class="cls-3" d="m357.99,34.08l-3.15-3.27-.5.52,1.93,2.33h-10.48l-2.74-2.85-.49.52,1.91,2.33v.9l-1.91,2.33.49.52,2.71-2.85h10.51l-1.93,2.33.5.52,3.15-3.32Z"/>
        <path class="cls-3" d="m364.87,37.44h1.13v-1.13h-1.13v1.13Z"/>
      </g>
    </g>
    <path class="cls-3" d="m23.74,59.84c0,2.88,2,4.95,4.21,4.95s4.21-2.05,4.21-4.95-1.96-5.01-4.2-5.01-4.23,2.19-4.23,5.01Zm1.22-.19c0-2.44,1.44-3.96,3-3.96s3.01,1.51,3.01,3.96-1.3,4.27-3.01,4.27c-1.81,0-3-1.98-3-4.27Zm9.07,7.48h1.05v-3.25c.45.42,1.03.77,1.82.77,1.31,0,2.51-1.27,2.51-3.17,0-1.61-.85-3.12-2.13-3.12-.46,0-1.38.09-2.24.8v-.66h-1.01v8.64Zm1.05-4.33v-2.81c.08-.09.54-.77,1.43-.77,1.11,0,1.84,1.09,1.84,2.28,0,1.43-1.01,2.32-1.96,2.32-.8,0-1.31-.7-1.31-1.03Zm5.67-1.35c0,1.67,1.17,3.2,2.94,3.2.85,0,1.55-.3,2.13-.69l-.08-.89c-.59.43-1.2.74-2.05.74-1.03,0-1.94-.89-2-2.28h4.19v-.39c-.12-2.31-1.44-2.86-2.4-2.86-1.43,0-2.73,1.36-2.73,3.17Zm1.01-.66c.15-.66.69-1.67,1.71-1.67.39,0,1.4.18,1.63,1.67h-3.35Zm5.62,3.71h1.01v-2.78c0-1.97,1.5-2.43,2.3-2.46v-.9c-1.43.03-2.15.95-2.36,1.28v-1.22h-.95v6.08Zm4.12-1.53c0,.62.41,1.67,1.54,1.67,1.49,0,2.23-.61,2.24-.62v.47h1.03v-4.12c-.07-1.13-.96-2.11-2.24-2.11-.85,0-1.47.22-2.12.59l.08.9c.45-.31,1.01-.69,2.03-.69.18,0,.53.01.85.41.34.41.34.86.35,1.24v.46c-1.39.01-3.75.35-3.75,1.78Zm.99-.01c0-.85,1.8-1.05,2.77-1.07v.85c0,.88-.93,1.07-1.51,1.07-.73,0-1.26-.36-1.26-.85Zm5.14-3.67h1.13v3.63c0,1.49.66,1.73,1.11,1.73.61,0,1.3-.14,2-.51l-.22-.8c-.19.14-.61.45-1.19.45-.7,0-.73-.8-.73-1.17v-3.32h1.9v-.8h-1.9v-1.7h-.95v1.7h-1.16v.8Zm5.72,5.21h1.01v-6.01h-1.01v6.01Zm-.09-7.97h1.22v-1.2h-1.22v1.2Zm2.63,4.98c0,1.84,1.42,3.13,2.96,3.13s2.97-1.28,2.97-3.12c0-1.69-1.24-3.25-2.97-3.25-1.59,0-2.96,1.4-2.96,3.24Zm1.05-.14c0-1.63,1.04-2.27,1.9-2.27s1.9.62,1.9,2.27-1,2.4-1.9,2.4-1.9-.7-1.9-2.4Zm6.37,3.12h1.05v-3.24c0-1,.34-2.08,1.38-2.08,1.32,0,1.32,1.01,1.32,1.53v3.79h1.05v-3.89c0-.95-.12-2.25-1.85-2.25-1.19,0-1.78.77-1.97,1.01v-.95h-.99v6.08Zm10.8-2.98c0,1.84,1.42,3.13,2.96,3.13s2.97-1.28,2.97-3.12c0-1.69-1.24-3.25-2.97-3.25-1.59,0-2.96,1.4-2.96,3.24Zm1.05-.14c0-1.63,1.04-2.27,1.9-2.27s1.9.62,1.9,2.27-1,2.4-1.9,2.4-1.9-.7-1.9-2.4Zm6.37,3.12h1.05v-3.24c0-1,.34-2.08,1.38-2.08,1.32,0,1.32,1.01,1.32,1.53v3.79h1.05v-3.89c0-.95-.12-2.25-1.85-2.25-1.19,0-1.78.77-1.97,1.01v-.95h-.99v6.08Zm10.99-1.53c0,.62.41,1.67,1.54,1.67,1.49,0,2.23-.61,2.24-.62v.47h1.03v-4.12c-.07-1.13-.96-2.11-2.24-2.11-.85,0-1.47.22-2.12.59l.08.9c.45-.31,1.01-.69,2.03-.69.18,0,.53.01.85.41.34.41.34.86.35,1.24v.46c-1.39.01-3.75.35-3.75,1.78Zm.99-.01c0-.85,1.8-1.05,2.77-1.07v.85c0,.88-.93,1.07-1.51,1.07-.73,0-1.26-.36-1.26-.85Zm9.59-7.83l3.69,9.37h1.24l3.69-9.37h-1.05l-2.09,5.39c-.76,1.96-1,2.7-1.05,3.04-.15-.63-.41-1.26-1.09-3.11l-2.07-5.32h-1.26Zm9.03,7.84c0,.62.41,1.67,1.54,1.67,1.49,0,2.23-.61,2.24-.62v.47h1.03v-4.12c-.07-1.13-.96-2.11-2.24-2.11-.85,0-1.47.22-2.12.59l.08.9c.45-.31,1.01-.69,2.03-.69.18,0,.53.01.85.41.34.41.34.86.35,1.24v.46c-1.39.01-3.75.35-3.75,1.78Zm.99-.01c0-.85,1.8-1.05,2.77-1.07v.85c0,.88-.93,1.07-1.51,1.07-.73,0-1.26-.36-1.26-.85Zm5.99,1.54h1.01v-9.75h-1.01v9.75Zm3.21-1.65c0,.7,0,1.8,1.42,1.8.74,0,1.66-.19,2.36-.8v.65h1.03v-6.01h-1.05v3.78c0,.14,0,.26-.01.39-.07.58-.59,1.23-1.61,1.23-.92,0-1.07-.3-1.08-.88v-4.52h-1.05v4.36Zm6.36-1.4c0,1.67,1.17,3.2,2.94,3.2.85,0,1.55-.3,2.13-.69l-.08-.89c-.59.43-1.2.74-2.05.74-1.03,0-1.94-.89-2-2.28h4.19v-.39c-.12-2.31-1.44-2.86-2.4-2.86-1.43,0-2.73,1.36-2.73,3.17Zm1.01-.66c.15-.66.69-1.67,1.71-1.67.39,0,1.4.18,1.63,1.67h-3.35Z"/>
    <g>
      <path class="cls-3" d="m18.59,181.37c.85.54,1.85.93,3.09.93,1.85,0,3.05-1.39,3.05-2.85,0-1.35-.95-2.24-1.81-2.61-.49-.2-1.63-.41-2.03-.57-.59-.24-1.08-.78-1.08-1.44,0-.8.73-1.59,1.96-1.59,1.11,0,1.67.38,2.3.86l.19-1.12c-.7-.38-1.38-.65-2.47-.65-1.9,0-3.05,1.35-3.05,2.66,0,1.4,1.12,2.27,2.08,2.52,1.17.31,1.35.32,1.67.45.69.28,1.16.9,1.16,1.62,0,.88-.74,1.78-1.97,1.78-1.34,0-2.24-.61-2.89-1.12l-.2,1.12Zm7.14-4.58h1.13v3.63c0,1.49.66,1.73,1.11,1.73.61,0,1.3-.14,2-.51l-.22-.8c-.19.14-.61.45-1.19.45-.7,0-.73-.8-.73-1.17v-3.32h1.9v-.8h-1.9v-1.7h-.95v1.7h-1.16v.8Zm5.22,3.69c0,.62.41,1.67,1.54,1.67,1.49,0,2.23-.61,2.24-.62v.47h1.03v-4.12c-.07-1.13-.96-2.11-2.24-2.11-.85,0-1.47.22-2.12.59l.08.9c.45-.31,1.01-.69,2.03-.69.18,0,.53.01.85.41.34.41.34.86.35,1.24v.46c-1.39.01-3.75.35-3.75,1.78Zm.99-.01c0-.85,1.8-1.05,2.77-1.07v.85c0,.88-.93,1.07-1.51,1.07-.73,0-1.26-.36-1.26-.85Zm5.62,1.54h1.01v-2.78c0-1.97,1.5-2.43,2.3-2.46v-.9c-1.43.03-2.15.95-2.36,1.28v-1.22h-.95v6.08Zm3.77-5.21h1.13v3.63c0,1.49.66,1.73,1.11,1.73.61,0,1.3-.14,2-.51l-.22-.8c-.19.14-.61.45-1.19.45-.7,0-.73-.8-.73-1.17v-3.32h1.9v-.8h-1.9v-1.7h-.95v1.7h-1.16v.8Zm5.72,5.21h1.01v-6.01h-1.01v6.01Zm-.09-7.97h1.22v-1.2h-1.22v1.2Zm3.31,7.97h1.05v-3.24c0-1,.34-2.08,1.38-2.08,1.32,0,1.32,1.01,1.32,1.53v3.79h1.05v-3.89c0-.95-.12-2.25-1.85-2.25-1.19,0-1.78.77-1.97,1.01v-.95h-.99v6.08Zm6.26.96c0,1.04,1.34,1.82,3,1.82s3-.78,3-1.84c0-.16-.03-.34-.07-.5-.38-1.35-2.03-1.38-2.92-1.38h-1.01c-.65,0-.76-.46-.76-.72,0-.09.01-.23.15-.5.3.19.63.41,1.23.41,1.26,0,2.16-1.05,2.16-2.2,0-.58-.18-.97-.53-1.44l.12.11c.24-.01.66-.05,1.01-.05.27,0,.53.01.8.04l-.15-.85c-.73,0-1.44.14-2.12.42l.03.03c-.45-.31-.82-.45-1.32-.45-1.11,0-2.15.89-2.15,2.2,0,.27.04.81.45,1.34h0c-.24.34-.39.7-.39,1.15s.12.72.34,1.03c-.53.31-.86.84-.86,1.39Zm.95,0c0-.39.3-.85.85-.9h.39s.85-.01.85-.01c1.46,0,2.01.38,2.01.93,0,.62-.97,1.04-2.07,1.04-.74,0-2.04-.3-2.04-1.05Zm.47-4.9c0-1.15.72-1.43,1.2-1.43.73,0,1.22.54,1.22,1.42,0,1.15-.72,1.43-1.2,1.43-.73,0-1.22-.54-1.22-1.42Zm9.65-2.07l1.86,6.01h1.07c.53-1.74,1.39-4.47,1.43-5.32.14,1,.24,1.36,1.44,5.32h1.17l1.86-6.01h-.99c-1.12,3.66-1.44,4.81-1.5,5.33-.05-.42-.12-.62-.51-2.04l-.99-3.29h-.96c-.46,1.49-1.39,4.48-1.43,5.33-.07-.51-.12-1.07-1.46-5.33h-1.01Zm10.13,6.01h1.01v-6.01h-1.01v6.01Zm-.09-7.97h1.22v-1.2h-1.22v1.2Zm2.47,2.75h1.13v3.63c0,1.49.66,1.73,1.11,1.73.61,0,1.3-.14,2-.51l-.22-.8c-.19.14-.61.45-1.19.45-.7,0-.73-.8-.73-1.17v-3.32h1.9v-.8h-1.9v-1.7h-.95v1.7h-1.16v.8Zm5.71,5.21h1.05v-3.24c0-1,.34-2.08,1.38-2.08,1.32,0,1.32,1.01,1.32,1.53v3.79h1.05v-3.89c0-.82-.05-2.25-1.85-2.25-.93,0-1.51.45-1.94.96v-4.56h-1.01v9.75Zm10.99-1.53c0,.62.41,1.67,1.54,1.67,1.49,0,2.23-.61,2.24-.62v.47h1.03v-4.12c-.07-1.13-.96-2.11-2.24-2.11-.85,0-1.47.22-2.12.59l.08.9c.45-.31,1.01-.69,2.03-.69.18,0,.53.01.85.41.34.41.34.86.35,1.24v.46c-1.39.01-3.75.35-3.75,1.78Zm.99-.01c0-.85,1.8-1.05,2.77-1.07v.85c0,.88-.93,1.07-1.51,1.07-.73,0-1.26-.36-1.26-.85Zm9.76-3.67h1v5.21h1.01v-5.21h1.49v-.8h-1.53v-1.84c0-1.04.82-1.23,1.26-1.23s.78.11,1.09.23v-.9c-.31-.08-.65-.15-1.07-.15-1.09,0-2.27.81-2.27,2.58,0,.11.01.22.01.32v.99h-1v.8Zm4.83,3.56c0,.7,0,1.8,1.42,1.8.74,0,1.66-.19,2.36-.8v.65h1.03v-6.01h-1.05v3.78c0,.14,0,.26-.01.39-.07.58-.59,1.23-1.61,1.23-.92,0-1.07-.3-1.08-.88v-4.52h-1.05v4.36Zm6.98,1.65h1.05v-3.24c0-1,.34-2.08,1.38-2.08,1.32,0,1.32,1.01,1.32,1.53v3.79h1.05v-3.89c0-.95-.12-2.25-1.85-2.25-1.19,0-1.78.77-1.97,1.01v-.95h-.99v6.08Zm6.37-3.01c0,1.73,1.27,3.16,2.93,3.16.93,0,1.59-.3,2.2-.69l-.07-.9c-.43.3-1.07.73-2.12.73-1.13,0-1.89-.99-1.89-2.3,0-1.17.59-2.35,1.9-2.35,1.07,0,1.42.28,1.94.62l.16-.89c-.82-.47-1.26-.59-2.09-.59-1.89,0-2.97,1.65-2.97,3.21Zm5.76-2.2h1.13v3.63c0,1.49.66,1.73,1.11,1.73.61,0,1.3-.14,2-.51l-.22-.8c-.19.14-.61.45-1.19.45-.7,0-.73-.8-.73-1.17v-3.32h1.9v-.8h-1.9v-1.7h-.95v1.7h-1.16v.8Zm5.72,5.21h1.01v-6.01h-1.01v6.01Zm-.09-7.97h1.22v-1.2h-1.22v1.2Zm2.63,4.98c0,1.84,1.42,3.13,2.96,3.13s2.97-1.28,2.97-3.12c0-1.69-1.24-3.25-2.97-3.25-1.59,0-2.96,1.4-2.96,3.24Zm1.05-.14c0-1.63,1.04-2.27,1.9-2.27s1.9.62,1.9,2.27-1,2.4-1.9,2.4-1.9-.7-1.9-2.4Zm6.37,3.12h1.05v-3.24c0-1,.34-2.08,1.38-2.08,1.32,0,1.32,1.01,1.32,1.53v3.79h1.05v-3.89c0-.95-.12-2.25-1.85-2.25-1.19,0-1.78.77-1.97,1.01v-.95h-.99v6.08Zm10.8-2.98c0,1.84,1.42,3.13,2.96,3.13s2.97-1.28,2.97-3.12c0-1.69-1.24-3.25-2.97-3.25-1.59,0-2.96,1.4-2.96,3.24Zm1.05-.14c0-1.63,1.04-2.27,1.9-2.27s1.9.62,1.9,2.27-1,2.4-1.9,2.4-1.9-.7-1.9-2.4Zm6.37,3.12h1.05v-3.24c0-1,.34-2.08,1.38-2.08,1.32,0,1.32,1.01,1.32,1.53v3.79h1.05v-3.89c0-.95-.12-2.25-1.85-2.25-1.19,0-1.78.77-1.97,1.01v-.95h-.99v6.08Z"/>
      <path class="cls-3" d="m18.19,194.88l2.32,6.01h1.19l2.32-6.01h-1c-1.31,3.4-1.81,4.79-1.89,5.33-.07-.42-.15-.63-.65-2.04l-1.26-3.29h-1.04Zm6.63,4.48c0,.62.41,1.67,1.54,1.67,1.49,0,2.23-.61,2.24-.62v.47h1.03v-4.12c-.07-1.13-.96-2.11-2.24-2.11-.85,0-1.47.22-2.12.59l.08.9c.45-.31,1.01-.69,2.03-.69.18,0,.53.01.85.41.34.41.34.86.35,1.24v.46c-1.39.01-3.75.35-3.75,1.78Zm.99-.01c0-.85,1.8-1.05,2.77-1.07v.85c0,.88-.93,1.07-1.51,1.07-.73,0-1.26-.36-1.26-.85Zm5.99,1.54h1.01v-9.75h-1.01v9.75Zm3.21-1.65c0,.7,0,1.8,1.42,1.8.74,0,1.66-.19,2.36-.8v.65h1.03v-6.01h-1.05v3.78c0,.14,0,.26-.01.39-.07.58-.59,1.23-1.61,1.23-.92,0-1.07-.3-1.08-.88v-4.52h-1.05v4.36Zm6.36-1.4c0,1.67,1.17,3.2,2.94,3.2.85,0,1.55-.3,2.13-.69l-.08-.89c-.59.43-1.2.74-2.05.74-1.03,0-1.94-.89-2-2.28h4.19v-.39c-.12-2.31-1.44-2.86-2.4-2.86-1.43,0-2.73,1.36-2.73,3.17Zm1.01-.66c.15-.66.69-1.67,1.71-1.67.39,0,1.4.18,1.63,1.67h-3.35Zm4.89,3.25c1.01.55,1.84.61,2.3.61,1.81,0,2.2-1.12,2.2-1.86,0-.88-.62-1.44-1.17-1.69-.84-.38-2.28-.2-2.28-1.19,0-.34.2-.82,1.13-.82s1.4.24,1.94.5l.15-.89c-.74-.31-1.22-.42-1.97-.42-1.84,0-2.21,1.07-2.21,1.78,0,.95.81,1.47,1.4,1.66.42.14,1,.2,1.3.3.27.08.76.35.76.86,0,.36-.24.92-1.26.92-1.09,0-1.74-.46-2.12-.68l-.16.92Zm6.1.46h.35l-.35,1.69h.57l.55-1.69v-.19s.01-.95.01-.95h-1.13v1.13Zm7.14-6.01l1.86,6.01h1.07c.53-1.74,1.39-4.47,1.43-5.32.14,1,.24,1.36,1.44,5.32h1.17l1.86-6.01h-.99c-1.12,3.66-1.44,4.81-1.5,5.33-.05-.42-.12-.62-.51-2.04l-.99-3.29h-.96c-.46,1.49-1.39,4.48-1.43,5.33-.07-.51-.12-1.07-1.46-5.33h-1.01Zm9.11,2.96c0,1.67,1.17,3.2,2.94,3.2.85,0,1.55-.3,2.13-.69l-.08-.89c-.59.43-1.2.74-2.05.74-1.03,0-1.94-.89-2-2.28h4.19v-.39c-.12-2.31-1.44-2.86-2.4-2.86-1.43,0-2.73,1.36-2.73,3.17Zm1.01-.66c.15-.66.69-1.67,1.71-1.67.39,0,1.4.18,1.63,1.67h-3.35Zm9.61,2.19c0,.62.41,1.67,1.54,1.67,1.49,0,2.23-.61,2.24-.62v.47h1.03v-4.12c-.07-1.13-.96-2.11-2.24-2.11-.85,0-1.47.22-2.12.59l.08.9c.45-.31,1.01-.69,2.03-.69.18,0,.53.01.85.41.34.41.34.86.35,1.24v.46c-1.39.01-3.75.35-3.75,1.78Zm.99-.01c0-.85,1.8-1.05,2.77-1.07v.85c0,.88-.93,1.07-1.51,1.07-.73,0-1.26-.36-1.26-.85Zm5.99,4.17h1.05v-3.25c.45.42,1.03.77,1.82.77,1.31,0,2.51-1.27,2.51-3.17,0-1.61-.85-3.12-2.13-3.12-.46,0-1.38.09-2.24.8v-.66h-1.01v8.64Zm1.05-4.33v-2.81c.08-.09.54-.77,1.43-.77,1.11,0,1.84,1.09,1.84,2.28,0,1.43-1.01,2.32-1.96,2.32-.8,0-1.31-.7-1.31-1.03Zm5.93,4.33h1.05v-3.25c.45.42,1.03.77,1.82.77,1.31,0,2.51-1.27,2.51-3.17,0-1.61-.85-3.12-2.13-3.12-.46,0-1.38.09-2.24.8v-.66h-1.01v8.64Zm1.05-4.33v-2.81c.08-.09.54-.77,1.43-.77,1.11,0,1.84,1.09,1.84,2.28,0,1.43-1.01,2.32-1.96,2.32-.8,0-1.31-.7-1.31-1.03Zm5.93,1.7h1.01v-9.75h-1.01v9.75Zm2.32-6.01l2.52,5.76c.05.11.07.16.07.23,0,.05-.01.12-.05.22-.58,1.4-.69,1.81-1.26,1.81-.23,0-.53-.08-.99-.23l.07.88c.32.08.73.11.99.11.62,0,1.01-.31,1.55-1.55l2.93-7.22h-1.01c-.89,2.21-1.77,4.41-1.8,5.33-.12-.77-.12-1.13-1.96-5.33h-1.07Zm11.62,6.01h1.01v-6.01h-1.01v6.01Zm-.09-7.97h1.22v-1.2h-1.22v1.2Zm2.47,2.75h1.13v3.63c0,1.49.66,1.73,1.11,1.73.61,0,1.3-.14,2-.51l-.22-.8c-.19.14-.61.45-1.19.45-.7,0-.73-.8-.73-1.17v-3.32h1.9v-.8h-1.9v-1.7h-.95v1.7h-1.16v.8Zm9.53,2.23c0,1.84,1.42,3.13,2.96,3.13s2.97-1.28,2.97-3.12c0-1.69-1.24-3.25-2.97-3.25-1.59,0-2.96,1.4-2.96,3.24Zm1.05-.14c0-1.63,1.04-2.27,1.9-2.27s1.9.62,1.9,2.27-1,2.4-1.9,2.4-1.9-.7-1.9-2.4Zm6.37,3.12h1.05v-3.24c0-1,.34-2.08,1.38-2.08,1.32,0,1.32,1.01,1.32,1.53v3.79h1.05v-3.89c0-.95-.12-2.25-1.85-2.25-1.19,0-1.78.77-1.97,1.01v-.95h-.99v6.08Zm6.14-5.21h1.13v3.63c0,1.49.66,1.73,1.11,1.73.61,0,1.3-.14,2-.51l-.22-.8c-.19.14-.61.45-1.19.45-.7,0-.73-.8-.73-1.17v-3.32h1.9v-.8h-1.9v-1.7h-.95v1.7h-1.16v.8Zm5.04,2.23c0,1.84,1.42,3.13,2.96,3.13s2.97-1.28,2.97-3.12c0-1.69-1.24-3.25-2.97-3.25-1.59,0-2.96,1.4-2.96,3.24Zm1.05-.14c0-1.63,1.04-2.27,1.9-2.27s1.9.62,1.9,2.27-1,2.4-1.9,2.4-1.9-.7-1.9-2.4Zm10.25.07c0,1.67,1.17,3.2,2.94,3.2.85,0,1.55-.3,2.13-.69l-.08-.89c-.59.43-1.2.74-2.05.74-1.03,0-1.94-.89-2-2.28h4.19v-.39c-.12-2.31-1.44-2.86-2.4-2.86-1.43,0-2.73,1.36-2.73,3.17Zm1.01-.66c.15-.66.69-1.67,1.71-1.67.39,0,1.4.18,1.63,1.67h-3.35Zm4.71-2.3l2.32,6.01h1.19l2.32-6.01h-1c-1.31,3.4-1.81,4.79-1.89,5.33-.07-.42-.15-.63-.65-2.04l-1.26-3.29h-1.04Zm6.49,2.96c0,1.67,1.17,3.2,2.94,3.2.85,0,1.55-.3,2.13-.69l-.08-.89c-.59.43-1.2.74-2.05.74-1.03,0-1.94-.89-2-2.28h4.19v-.39c-.12-2.31-1.44-2.86-2.4-2.86-1.43,0-2.73,1.36-2.73,3.17Zm1.01-.66c.15-.66.69-1.67,1.71-1.67.39,0,1.4.18,1.63,1.67h-3.35Zm5.62,3.71h1.01v-2.78c0-1.97,1.5-2.43,2.3-2.46v-.9c-1.43.03-2.15.95-2.36,1.28v-1.22h-.95v6.08Zm3.71-6.01l2.52,5.76c.05.11.07.16.07.23,0,.05-.01.12-.05.22-.58,1.4-.69,1.81-1.26,1.81-.23,0-.53-.08-.99-.23l.07.88c.32.08.73.11.99.11.62,0,1.01-.31,1.55-1.55l2.93-7.22h-1.01c-.89,2.21-1.77,4.41-1.8,5.33-.12-.77-.12-1.13-1.96-5.33h-1.07Z"/>
      <g>
        <path class="cls-3" d="m18.19,213.77l2.32,6.01h1.19l2.32-6.01h-1c-1.31,3.4-1.81,4.79-1.89,5.33-.07-.42-.15-.63-.65-2.04l-1.26-3.29h-1.04Zm6.63,4.48c0,.62.41,1.67,1.54,1.67,1.49,0,2.23-.61,2.24-.62v.47h1.03v-4.12c-.07-1.13-.96-2.11-2.24-2.11-.85,0-1.47.22-2.12.59l.08.9c.45-.31,1.01-.69,2.03-.69.18,0,.53.01.85.41.34.41.34.86.35,1.24v.46c-1.39.01-3.75.35-3.75,1.78Zm.99-.01c0-.85,1.8-1.05,2.77-1.07v.85c0,.88-.93,1.07-1.51,1.07-.73,0-1.26-.36-1.26-.85Zm5.99,1.54h1.01v-9.75h-1.01v9.75Zm3.21-1.65c0,.7,0,1.8,1.42,1.8.74,0,1.66-.19,2.36-.8v.65h1.03v-6.01h-1.05v3.78c0,.14,0,.26-.01.39-.07.58-.59,1.23-1.61,1.23-.92,0-1.07-.3-1.08-.88v-4.52h-1.05v4.36Zm6.36-1.4c0,1.67,1.17,3.2,2.94,3.2.85,0,1.55-.3,2.13-.69l-.08-.89c-.59.43-1.2.74-2.05.74-1.03,0-1.94-.89-2-2.28h4.19v-.39c-.12-2.31-1.44-2.86-2.4-2.86-1.43,0-2.73,1.36-2.73,3.17Zm1.01-.66c.15-.66.69-1.67,1.71-1.67.39,0,1.4.18,1.63,1.67h-3.35Zm10.11,3.71h1.01v-6.01h-1.01v6.01Zm-.09-7.97h1.22v-1.2h-1.22v1.2Zm3.31,7.97h1.05v-3.24c0-1,.34-2.08,1.38-2.08,1.32,0,1.32,1.01,1.32,1.53v3.79h1.05v-3.89c0-.95-.12-2.25-1.85-2.25-1.19,0-1.78.77-1.97,1.01v-.95h-.99v6.08Zm10.87-2.98c0,1.61.95,3.13,2.32,3.13.89,0,1.54-.41,2-.85v.7h1.07v-9.75h-1.03v4.33c-.47-.38-1.11-.74-1.96-.74-1.34,0-2.4,1.39-2.4,3.17Zm1.05-.01c0-1.77,1.17-2.32,1.96-2.32h.03c.15,0,.58.01,1,.41.24.23.28.31.28.53v2.58c0,.42-.63,1.12-1.44,1.12-.73,0-1.82-.53-1.82-2.31Zm6.05,1.47c0,.62.41,1.67,1.54,1.67,1.49,0,2.23-.61,2.24-.62v.47h1.03v-4.12c-.07-1.13-.96-2.11-2.24-2.11-.85,0-1.47.22-2.12.59l.08.9c.45-.31,1.01-.69,2.03-.69.18,0,.53.01.85.41.34.41.34.86.35,1.24v.46c-1.39.01-3.75.35-3.75,1.78Zm.99-.01c0-.85,1.8-1.05,2.77-1.07v.85c0,.88-.93,1.07-1.51,1.07-.73,0-1.26-.36-1.26-.85Zm5.14-3.67h1.13v3.63c0,1.49.66,1.73,1.11,1.73.61,0,1.3-.14,2-.51l-.22-.8c-.19.14-.61.45-1.19.45-.7,0-.73-.8-.73-1.17v-3.32h1.9v-.8h-1.9v-1.7h-.95v1.7h-1.16v.8Zm5.22,3.69c0,.62.41,1.67,1.54,1.67,1.49,0,2.23-.61,2.24-.62v.47h1.03v-4.12c-.07-1.13-.96-2.11-2.24-2.11-.85,0-1.47.22-2.12.59l.08.9c.45-.31,1.01-.69,2.03-.69.18,0,.53.01.85.41.34.41.34.86.35,1.24v.46c-1.39.01-3.75.35-3.75,1.78Zm.99-.01c0-.85,1.8-1.05,2.77-1.07v.85c0,.88-.93,1.07-1.51,1.07-.73,0-1.26-.36-1.26-.85Zm10.49,1.54h1.05v-.62c.46.42,1.01.77,1.81.77,1.34,0,2.52-1.31,2.52-3.17,0-1.62-.88-3.12-2.21-3.12-.42,0-1.3.09-2.16.78v-4.39h-1.01v9.75Zm1.05-1.8v-2.52c0-.5.74-1,1.44-1s1.82.51,1.82,2.31-1.16,2.34-1.93,2.34c-.39,0-.8-.16-1.11-.54-.18-.26-.23-.23-.23-.58Zm4.64-4.21l2.52,5.76c.05.11.07.16.07.23,0,.05-.01.12-.05.22-.58,1.4-.69,1.81-1.26,1.81-.23,0-.53-.08-.99-.23l.07.88c.32.08.73.11.99.11.62,0,1.01-.31,1.55-1.55l2.93-7.22h-1.01c-.89,2.21-1.77,4.41-1.8,5.33-.12-.77-.12-1.13-1.96-5.33h-1.07Z"/>
        <path class="cls-3" d="m113.54,219.16c0,.34.09.62.62.62h.62c.34,0,.46-.08.59-.36.39.3.88.51,1.53.51,1.38,0,2.88-.62,2.89-3.17,0-.3,0-.92-.15-1.49-.34-1.26-1.23-1.82-2.42-1.82-.77,0-1.36.22-1.88.54v-3.36c0-.32-.12-.59-.59-.59h-.59c-.53,0-.62.27-.62.62v8.51Zm1.85-.74v-3.52c.34-.28.69-.47,1.2-.47,1.32,0,1.35,1.16,1.35,2.2,0,.93.07,2.32-1.5,2.32-.63,0-.9-.36-1.05-.53Zm5.31.78c0,.26.05.58.61.58h.58c.23,0,.24-.01.38-.08.22-.18.24-.22.24-.59v-2.36c0-.18,0-.34.04-.51.14-.61.65-1.08,1.23-1.28.45-.15.69-.08.85-.2.05-.08.07-.09.07-.24v-.76c0-.19-.03-.3-.27-.3h-.01c-.24,0-1.26.09-1.97,1.09-.01-.68-.01-.69-.14-.84-.15-.15-.2-.18-.54-.18h-.45c-.28,0-.62.03-.62.61v5.06Zm4.62-2.44c0,2.54,1.57,3.17,3.31,3.17s3.28-.62,3.28-3.12c0-3.31-2.19-3.44-3.5-3.44-1.53,0-3.09.69-3.09,3.39Zm1.85.14v-.36c0-.93-.03-2.17,1.43-2.17s1.44,1.2,1.46,1.98v.36c-.01.9.03,2.17-1.44,2.17s-1.42-1.19-1.44-1.98Zm5.58,1.04c0,.92.68,2,1.97,2,1.11,0,1.78-.46,2.08-.69,0,.23.12.54.55.54h.65c.54,0,.61-.31.61-.61v-3.55c0-1.35-.62-2.25-2.79-2.25-.85,0-1.51.16-2.12.43-.3.15-.38.14-.38.35,0,0,.04.88.14,1.04l.05.04h.05c.3,0,.7-.92,2.25-.92.85,0,.96.62.96,1.26v.28c-1.2.01-4.02.24-4.02,2.08Zm1.77,0c0-1.05,1.43-1.22,2.25-1.28v1.05c0,1-.88,1.24-1.32,1.24-.58,0-.93-.53-.93-1.01Zm5.4-1.38c0,.45,0,.9.15,1.47.38,1.44,1.46,1.9,2.54,1.9.74,0,1.23-.23,1.71-.58.12.42.38.43.62.43h.62c.57,0,.61-.36.61-.62v-8.52c0-.28-.04-.61-.68-.61h-.54c-.53,0-.59.34-.59.59v3.31c-.49-.31-1.01-.49-1.69-.49-1.42,0-2.71.7-2.75,3.11Zm1.85.24v-.28c0-.82.01-2.08,1.5-2.08.63,0,.96.34,1.05.41v3.31c0,.41-.61.8-1.19.8-1.34,0-1.36-1.19-1.36-2.15Zm5.72-.09c0,2.38,1.34,3.23,3.21,3.23.89,0,1.59-.2,2.19-.51.15-.08.27-.14.27-.34v-.11c-.08-.89-.07-.88-.18-.95h-.07c-.28.03-.77.85-2.17.85s-1.4-1.26-1.4-2.11v-.26c0-.73.01-2.04,1.31-2.09.2,0,.65-.01,1.04.12.58.2.85.65,1.07.65.26,0,.32-1.05.32-1.05,0-.11-.03-.16-.11-.22-.77-.42-1.31-.55-2.19-.55-1.76,0-3.29.68-3.29,3.33Zm6.52,1.23c0,.92.68,2,1.97,2,1.11,0,1.78-.46,2.08-.69,0,.23.12.54.55.54h.65c.54,0,.61-.31.61-.61v-3.55c0-1.35-.62-2.25-2.79-2.25-.85,0-1.51.16-2.12.43-.3.15-.38.14-.38.35,0,0,.04.88.14,1.04l.05.04h.05c.3,0,.7-.92,2.25-.92.85,0,.96.62.96,1.26v.28c-1.2.01-4.02.24-4.02,2.08Zm1.77,0c0-1.05,1.43-1.22,2.25-1.28v1.05c0,1-.88,1.24-1.32,1.24-.58,0-.93-.53-.93-1.01Zm5.33,1.17s.01.07.03.11l.05.07c.34.22,1.22.65,2.42.65,1.34,0,2.43-.41,2.43-2.04,0-1.09-.81-1.63-1.19-1.82-.84-.43-2.34-.27-2.34-1.07,0-.51.45-.65,1-.65,1.31,0,1.67.73,1.96.73.07,0,.12-.05.16-.2.08-.46.14-.7.14-.85,0-.19-.08-.23-.32-.32-.5-.2-1.01-.32-1.65-.34h-.35c-1.13.03-2.27.39-2.27,1.94,0,1.09.9,1.63,1.4,1.82.77.28,2.11.18,2.11,1.01,0,.57-.45.72-1.05.72-1.44,0-1.93-1.01-2.17-1.01-.16,0-.18.22-.19.31-.11.59-.16.82-.16.95Zm5.56-5.02c0,.15.05.5.59.5h.28v3.15c0,.42,0,.82.12,1.23.23.74.74.97,1.28.97,1,0,2.46-.43,2.46-.78,0,0-.11-.74-.31-.74-.18,0-.58.47-1.22.47-.38,0-.57-.24-.57-1.24,0-.12.01-.23.01-.35v-2.7h1.26c.51-.01.58-.35.58-.49,0-.12-.07-.5-.61-.5h-1.23v-1.16c0-.32-.14-.61-.61-.61h-.49c-.23,0-.65.01-.65.61v1.16h-.32c-.54,0-.59.34-.59.49Zm5.93-2.75c0,.54.31.62.62.62h.7c.12-.01.59.01.59-.59v-.7c0-.54-.31-.62-.62-.62h-.69c-.26.01-.61,0-.61.62v.68Zm.05,7.78c0,.23-.01.68.59.68h.62c.61,0,.59-.45.59-.61v-4.9c0-.35-.03-.68-.66-.68h-.55c-.61,0-.59.45-.59.61v4.9Zm3.43.07c0,.53.32.61.63.61h.59c.62,0,.62-.72.62-.72v-2.81c0-.24.01-.49.08-.73.12-.42.55-1.09,1.39-1.09s.8.55.8,1.05v3.7c0,.34.09.59.62.59h.63c.55,0,.58-.38.58-.59v-3.56c0-.97,0-2.17-2-2.17-1.09,0-1.71.46-2.19.93v-.27c0-.58-.38-.58-.62-.58h-.54c-.26,0-.61.04-.61.61v5.04Zm7.1,1.49c0,.24.05.49.16.7.58,1.2,2.39,1.2,3.21,1.2.72,0,1.44-.03,2.12-.28.93-.35,1.24-.99,1.24-1.65,0-2.04-1.8-2.09-3.43-2.09h-1.16c-.69,0-.8-.41-.8-.65,0-.07.01-.16.04-.26.58.23,1.01.27,1.55.27,1.98,0,2.73-.89,2.73-2.23,0-.76-.27-1.15-.32-1.26h.35c.55-.01.84.05.93.05.14,0,.24-.05.23-.26-.11-.66-.09-.77-.39-.77-.86,0-1.61.34-1.74.34-.2,0-.5-.34-1.73-.34h-.04c-2.38,0-2.73,1.35-2.73,2.24,0,.72.26,1.17.54,1.5v.03c-.22.32-.36.69-.36,1.11,0,.45.16.78.35,1.07-.66.36-.76.95-.76,1.27Zm1.39-.03c0-.66.55-.62.77-.62h1.32c1.22,0,1.86.14,1.86.68,0,.36-.3.9-1.9.9h-.05c-1.05,0-2-.19-2-.96Zm.58-4.85v-.22c0-.81.19-1.15,1.01-1.15s.96.46.96,1.15v.22c0,.8-.18,1.15-1.01,1.15s-.96-.51-.96-1.15Z"/>
        <path class="cls-3" d="m191.58,219.78h1.13v-1.13h-1.13v1.13Z"/>
      </g>
    </g>
    <path class="cls-22" d="m5,125h70"/>
    <path class="cls-22" d="m95,125h65"/>
    <g>
      <path class="cls-22" d="m290,110h47"/>
      <path class="cls-3" d="m329.28,115.15l10.72-5.15-10.72-5.15,3.6,5.15-3.6,5.15Z"/>
    </g>
    <g>
      <path class="cls-22" d="m236,110h44"/>
      <path class="cls-3" d="m226.28,115.15l10.72-5.15-10.72-5.15,3.6,5.15-3.6,5.15Z"/>
    </g>
    <path class="cls-22" d="m200,145h175"/>
    <path class="cls-22" d="m200,175h100"/>
    <path class="cls-22" d="m295,175h80"/>
  </g>
</svg>