<?xml version="1.0" encoding="UTF-8"?>
<svg id="Layer_3" data-name="Layer 3" xmlns="http://www.w3.org/2000/svg" xmlns:xlink="http://www.w3.org/1999/xlink" viewBox="0 0 660 165">
  <defs>
    <style>
      .cls-1 {
        fill: #dbdfef;
      }

      .cls-1, .cls-2, .cls-3, .cls-4, .cls-5, .cls-6, .cls-7, .cls-8 {
        stroke-width: 0px;
      }

      .cls-9 {
        clip-path: url(#clippath-11);
      }

      .cls-10 {
        fill: #e5f2f9;
      }

      .cls-10, .cls-11, .cls-12, .cls-13, .cls-14, .cls-15, .cls-16, .cls-17 {
        stroke: #000;
      }

      .cls-10, .cls-15 {
        stroke-width: 2px;
      }

      .cls-18 {
        filter: url(#drop-shadow-49);
      }

      .cls-19 {
        filter: url(#drop-shadow-43);
      }

      .cls-11 {
        stroke-width: .37px;
      }

      .cls-11, .cls-14 {
        stroke-miterlimit: 10;
      }

      .cls-20 {
        clip-path: url(#clippath-2);
      }

      .cls-21 {
        clip-path: url(#clippath-6);
      }

      .cls-22 {
        filter: url(#drop-shadow-39);
      }

      .cls-23 {
        filter: url(#drop-shadow-44);
      }

      .cls-12 {
        fill: #e3cefa;
      }

      .cls-3 {
        fill: #e5e7f9;
      }

      .cls-4, .cls-24, .cls-15, .cls-16 {
        fill: none;
      }

      .cls-25 {
        clip-path: url(#clippath-7);
      }

      .cls-13 {
        fill: #a9e3ff;
      }

      .cls-26 {
        clip-path: url(#clippath-1);
      }

      .cls-27 {
        clip-path: url(#clippath-4);
      }

      .cls-5 {
        fill: #e8eeeb;
      }

      .cls-24 {
        stroke: #414042;
      }

      .cls-28 {
        filter: url(#drop-shadow-46);
      }

      .cls-29 {
        filter: url(#drop-shadow-47);
      }

      .cls-30 {
        filter: url(#drop-shadow-45);
      }

      .cls-31 {
        filter: url(#drop-shadow-41);
      }

      .cls-32 {
        clip-path: url(#clippath-9);
      }

      .cls-33 {
        clip-path: url(#clippath);
      }

      .cls-14 {
        stroke-width: .59px;
      }

      .cls-34 {
        filter: url(#drop-shadow-40);
      }

      .cls-6 {
        fill: #414042;
      }

      .cls-35 {
        clip-path: url(#clippath-3);
      }

      .cls-7 {
        fill: #fce0e1;
      }

      .cls-36 {
        clip-path: url(#clippath-8);
      }

      .cls-37 {
        clip-path: url(#clippath-5);
      }

      .cls-38 {
        filter: url(#drop-shadow-48);
      }

      .cls-39 {
        clip-path: url(#clippath-10);
      }

      .cls-40 {
        filter: url(#drop-shadow-42);
      }

      .cls-17 {
        fill: #b8e986;
      }

      .cls-8 {
        fill: #cce7cf;
      }
    </style>
    <filter id="drop-shadow-39" filterUnits="userSpaceOnUse">
      <feOffset dx="0" dy="0"/>
      <feGaussianBlur result="blur" stdDeviation="3"/>
      <feFlood flood-color="#000" flood-opacity="1"/>
      <feComposite in2="blur" operator="in"/>
      <feComposite in="SourceGraphic"/>
    </filter>
    <filter id="drop-shadow-40" filterUnits="userSpaceOnUse">
      <feOffset dx="0" dy="0"/>
      <feGaussianBlur result="blur-2" stdDeviation="3"/>
      <feFlood flood-color="#000" flood-opacity="1"/>
      <feComposite in2="blur-2" operator="in"/>
      <feComposite in="SourceGraphic"/>
    </filter>
    <filter id="drop-shadow-41" filterUnits="userSpaceOnUse">
      <feOffset dx="0" dy="0"/>
      <feGaussianBlur result="blur-3" stdDeviation="3"/>
      <feFlood flood-color="#000" flood-opacity="1"/>
      <feComposite in2="blur-3" operator="in"/>
      <feComposite in="SourceGraphic"/>
    </filter>
    <filter id="drop-shadow-42" filterUnits="userSpaceOnUse">
      <feOffset dx="0" dy="0"/>
      <feGaussianBlur result="blur-4" stdDeviation="3"/>
      <feFlood flood-color="#000" flood-opacity="1"/>
      <feComposite in2="blur-4" operator="in"/>
      <feComposite in="SourceGraphic"/>
    </filter>
    <filter id="drop-shadow-43" filterUnits="userSpaceOnUse">
      <feOffset dx="0" dy="0"/>
      <feGaussianBlur result="blur-5" stdDeviation="3"/>
      <feFlood flood-color="#000" flood-opacity="1"/>
      <feComposite in2="blur-5" operator="in"/>
      <feComposite in="SourceGraphic"/>
    </filter>
    <filter id="drop-shadow-44" filterUnits="userSpaceOnUse">
      <feOffset dx="0" dy="0"/>
      <feGaussianBlur result="blur-6" stdDeviation="3"/>
      <feFlood flood-color="#000" flood-opacity="1"/>
      <feComposite in2="blur-6" operator="in"/>
      <feComposite in="SourceGraphic"/>
    </filter>
    <filter id="drop-shadow-45" filterUnits="userSpaceOnUse">
      <feOffset dx="0" dy="0"/>
      <feGaussianBlur result="blur-7" stdDeviation="3"/>
      <feFlood flood-color="#000" flood-opacity="1"/>
      <feComposite in2="blur-7" operator="in"/>
      <feComposite in="SourceGraphic"/>
    </filter>
    <filter id="drop-shadow-46" filterUnits="userSpaceOnUse">
      <feOffset dx="0" dy="0"/>
      <feGaussianBlur result="blur-8" stdDeviation="3"/>
      <feFlood flood-color="#000" flood-opacity="1"/>
      <feComposite in2="blur-8" operator="in"/>
      <feComposite in="SourceGraphic"/>
    </filter>
    <filter id="drop-shadow-47" filterUnits="userSpaceOnUse">
      <feOffset dx="0" dy="0"/>
      <feGaussianBlur result="blur-9" stdDeviation="3"/>
      <feFlood flood-color="#000" flood-opacity="1"/>
      <feComposite in2="blur-9" operator="in"/>
      <feComposite in="SourceGraphic"/>
    </filter>
    <filter id="drop-shadow-48" filterUnits="userSpaceOnUse">
      <feOffset dx="0" dy="0"/>
      <feGaussianBlur result="blur-10" stdDeviation="3"/>
      <feFlood flood-color="#000" flood-opacity="1"/>
      <feComposite in2="blur-10" operator="in"/>
      <feComposite in="SourceGraphic"/>
    </filter>
    <filter id="drop-shadow-49" filterUnits="userSpaceOnUse">
      <feOffset dx="0" dy="0"/>
      <feGaussianBlur result="blur-11" stdDeviation="3"/>
      <feFlood flood-color="#000" flood-opacity="1"/>
      <feComposite in2="blur-11" operator="in"/>
      <feComposite in="SourceGraphic"/>
    </filter>
    <clipPath id="clippath">
      <rect class="cls-4" x="11.58" y="91.5" width="8.39" height="5.5"/>
    </clipPath>
    <clipPath id="clippath-1">
      <rect class="cls-4" x="11.58" y="91.5" width="15.81" height="18.84"/>
    </clipPath>
    <clipPath id="clippath-2">
      <rect class="cls-4" x="71.58" y="91.5" width="8.39" height="5.5"/>
    </clipPath>
    <clipPath id="clippath-3">
      <rect class="cls-4" x="71.58" y="91.5" width="15.81" height="18.84"/>
    </clipPath>
    <clipPath id="clippath-4">
      <rect class="cls-4" x="161.58" y="91.5" width="8.39" height="5.5"/>
    </clipPath>
    <clipPath id="clippath-5">
      <rect class="cls-4" x="161.58" y="91.5" width="15.81" height="18.84"/>
    </clipPath>
    <clipPath id="clippath-6">
      <rect class="cls-4" x="251.58" y="91.5" width="8.39" height="5.5"/>
    </clipPath>
    <clipPath id="clippath-7">
      <rect class="cls-4" x="251.58" y="91.5" width="15.81" height="18.84"/>
    </clipPath>
    <clipPath id="clippath-8">
      <rect class="cls-4" x="341.58" y="91.5" width="8.39" height="5.5"/>
    </clipPath>
    <clipPath id="clippath-9">
      <rect class="cls-4" x="341.58" y="91.5" width="15.81" height="18.84"/>
    </clipPath>
    <clipPath id="clippath-10">
      <rect class="cls-4" x="11.58" y=".5" width="8.39" height="5.5"/>
    </clipPath>
    <clipPath id="clippath-11">
      <rect class="cls-4" x="11.58" y=".5" width="15.81" height="18.84"/>
    </clipPath>
  </defs>
  <g class="cls-22">
    <path class="cls-7" d="m345,48.76h70v95l-45.67.24.67-55.24h-25v-40Z"/>
  </g>
  <g class="cls-34">
    <path class="cls-8" d="m569.33,79h58v75h-58v-75Z"/>
  </g>
  <g class="cls-31">
    <path class="cls-3" d="m424.33,58h85v71h-85V58Z"/>
  </g>
  <g class="cls-40">
    <path class="cls-10" d="m39.33,109h30v20h-30v-20Z"/>
  </g>
  <path class="cls-24" d="m9.33,129h30"/>
  <path class="cls-24" d="m69.33,129h30"/>
  <path class="cls-24" d="m9.33,107.5h30m-30,3h30"/>
  <path class="cls-24" d="m69.33,107.5h30m-30,3h30"/>
  <g class="cls-19">
    <path class="cls-17" d="m99.33,107.32l8.32-8.32h51.68v51.68l-8.32,8.32h-51.68v-51.68Z"/>
    <path class="cls-16" d="m159.33,99l-8.32,8.32h-51.68"/>
    <path class="cls-16" d="m151.01,107.32v51.68"/>
  </g>
  <path class="cls-24" d="m159.33,129h30"/>
  <path class="cls-24" d="m159.33,107.5h30m-30,3h30"/>
  <path class="cls-24" d="m9.33,149h90"/>
  <path class="cls-24" d="m159.33,149h30"/>
  <g class="cls-23">
    <path class="cls-17" d="m189.33,107.32l8.32-8.32h51.68v51.68l-8.32,8.32h-51.68v-51.68Z"/>
    <path class="cls-16" d="m249.33,99l-8.32,8.32h-51.68"/>
    <path class="cls-16" d="m241.01,107.32v51.68"/>
  </g>
  <path class="cls-24" d="m249.33,129h30"/>
  <path class="cls-24" d="m249.33,107.5h30m-30,3h30"/>
  <path class="cls-24" d="m249.33,149h30"/>
  <g class="cls-30">
    <path class="cls-17" d="m279.33,107.32l8.32-8.32h51.68v51.68l-8.32,8.32h-51.68v-51.68Z"/>
    <path class="cls-16" d="m339.33,99l-8.32,8.32h-51.68"/>
    <path class="cls-16" d="m331.01,107.32v51.68"/>
  </g>
  <path class="cls-24" d="m339.33,129h30"/>
  <path class="cls-24" d="m339.33,107.5h90m-90,3h90"/>
  <path class="cls-24" d="m339.33,149h15"/>
  <path class="cls-15" d="m369.33,129c0-5.52,4.48-10,10-10s10,4.48,10,10-4.48,10-10,10-10-4.48-10-10Z"/>
  <path class="cls-24" d="m409.33,159h245"/>
  <g>
    <path class="cls-2" d="m385.61,99.15l10.72-5.15-10.72-5.15,3.6,5.15-3.6,5.15Z"/>
    <g>
      <path class="cls-16" d="m411.33,94h7"/>
      <path class="cls-2" d="m410.61,99.15l10.72-5.15-10.72-5.15,3.6,5.15-3.6,5.15Z"/>
    </g>
  </g>
  <path class="cls-24" d="m389.33,129h20"/>
  <g class="cls-28">
    <polygon class="cls-13" points="449.33 89 449.33 119 429.33 109 429.33 89 449.33 89"/>
  </g>
  <path class="cls-16" d="m449.33,99l-20,10"/>
  <path class="cls-24" d="m449.33,117.5h20m-20,3h20"/>
  <g>
    <path class="cls-24" d="m449.33,97.5h21m-21,3h21"/>
    <path class="cls-6" d="m468.61,104.15l10.72-5.15-10.72-5.15,3.6,5.15-3.6,5.15Z"/>
  </g>
  <g>
    <path class="cls-24" d="m489.33,119h17"/>
    <path class="cls-6" d="m498.61,124.15l10.72-5.15-10.72-5.15,3.6,5.15-3.6,5.15Z"/>
  </g>
  <path class="cls-24" d="m409.33,129c22.3.06,16.3,10.06,40,10"/>
  <g class="cls-29">
    <path class="cls-1" d="m514.33,79h45v75h-45v-75Z"/>
  </g>
  <path class="cls-16" d="m579.33,139l20-14.06v28.12l-20-14.06Z"/>
  <path class="cls-24" d="m599.33,139h55"/>
  <g class="cls-38">
    <polygon class="cls-5" points="554.33 119 554.33 149 519.33 149 519.33 119 554.33 119"/>
  </g>
  <path class="cls-24" d="m549.33,139h30"/>
  <path class="cls-24" d="m449.33,139h70"/>
  <path class="cls-24" d="m9.33,17.5h25m-25,3h25"/>
  <path class="cls-24" d="m9.33,39h25"/>
  <path class="cls-24" d="m9.33,59.68h25"/>
  <g class="cls-18">
    <path class="cls-12" d="m34.33,17.32l8.32-8.32h206.68v51.68l-8.32,8.32H34.33V17.32Z"/>
    <path class="cls-16" d="m249.33,9l-8.32,8.32H34.33"/>
    <path class="cls-16" d="m241.01,17.32v51.68"/>
  </g>
  <path class="cls-24" d="m249.33,39h25"/>
  <path class="cls-24" d="m249.33,59h25"/>
  <path class="cls-16" d="m354.33,149c9.72.23,15.22-3.27,20-10"/>
  <path class="cls-16" d="m384.33,139c4.72,6.23,5.22,19.73,25,20"/>
  <g>
    <path class="cls-2" d="m41.56,51.23c0-3.98,1.48-5.6,2.37-6.64l-.29-.4c-.87.78-3.4,2.82-3.4,7.04,0,1.64.38,3.18,1.12,4.56.54,1.03,1.03,1.62,2.28,2.8l.29-.32c-.7-.87-2.37-2.74-2.37-7.04Z"/>
    <path class="cls-2" d="m53.33,53.72l-5.28-9.01h-2.48l-.08.43.54.03c.69.03,1.21.72,1.22.86l-1.42,7.71c-.18.95-.28,1.07-.83,1.13l-.47.05-.08.43,1.7-.05c.18,0,.2,0,1.68.05l.08-.43-.64-.05c-.61-.05-.75-.17-.75-.67,0-.12.02-.29.05-.46l1.22-7.1,5.17,8.83h.77l1.44-8.46c.32-1.73.35-1.79.92-1.84l.57-.03.05-.41-3.26-.02-.08.43.72.03c.4.02.55.12.55.37,0,.11-1.27,7.99-1.3,8.19Z"/>
    <path class="cls-2" d="m70.13,49.99v-.9h-8.25v.9h8.25Zm0,3.26v-.9h-8.25v.9h8.25Z"/>
    <path class="cls-2" d="m82.77,51.87c0-1.85-1.64-2.17-2.36-2.3,1.22-.95,1.68-1.65,1.68-2.56,0-1.36-1.13-2.26-2.83-2.26-1.04,0-1.73.29-2.46,1.03l-.44,1.9h.47l.28-.86c.17-.52,1.13-1.04,1.93-1.04.99,0,1.81.81,1.81,1.77,0,1.15-.9,2.11-1.99,2.11-.12,0-.29-.02-.49-.03l-.23-.02-.18.81.11.09c.58-.26.87-.34,1.29-.34,1.27,0,2,.81,2,2.2,0,1.56-.93,2.59-2.36,2.59-.7,0-1.33-.23-1.79-.66-.37-.34-.57-.69-.86-1.51l-.41.15c.32.93.44,1.48.54,2.25.81.28,1.48.4,2.05.4,1.88,0,4.25-1.64,4.25-3.73Z"/>
    <path class="cls-2" d="m86.47,53.42c-.41.14-.69.23-1.5.46-.11,1.16-.49,2.16-1.38,3.63l.21.17.63-.29c1.24-1.61,1.82-2.57,2.25-3.75l-.21-.21Z"/>
    <path class="cls-2" d="m90.57,49.36l.11.31.49-.32c.57-.35.61-.38.72-.38.17,0,.28.15.28.38,0,.78-.63,3.73-1.25,5.92l.11.17c.38-.11.73-.2,1.07-.26.29-1.93.61-2.92,1.32-3.98.83-1.29,1.97-2.23,2.66-2.23.17,0,.26.14.26.37,0,.28-.05.6-.17,1.09l-.8,3.24c-.14.57-.2.92-.2,1.16,0,.38.17.61.46.61.4,0,.95-.32,2.45-1.44l-.15-.28-.4.26c-.44.29-.78.46-.93.46-.11,0-.2-.14-.2-.31,0-.08.02-.24.03-.31l1.01-4.22c.11-.44.17-.87.17-1.13,0-.35-.17-.55-.47-.55-.64,0-1.7.58-2.6,1.42-.58.54-1.01,1.06-1.81,2.17l.58-2.46c.06-.28.09-.46.09-.63,0-.32-.12-.5-.35-.5-.32,0-.92.34-2.03,1.13l-.43.31Z"/>
    <path class="cls-2" d="m103.54,57.17c.52,0,1.3-.62,1.67-.95v-.07c-.03-.05-.07-.1-.13-.12-.24.17-.87.72-.99.16,0-.79.48-3.38.77-4.13v-.11c-.24.09-.48.15-.73.18l-.11.12c-.02.69-.36,2.59-.64,3.2-.25.52-.9,1.11-1.51,1.11s-.75-.51-.74-1.02c.03-1.19.57-2.35.6-3.53-.3.05-.58.11-.86.15.19,2.42-1.63,5.83-1.16,7.91.25-.01.6-.05.84-.14v-.13c-.54-.94-.11-2.39.07-3.18h0c.71,1.21,2.21-.01,2.75-.73v.03c-.09.39-.44,1.24.15,1.24Z"/>
    <path class="cls-2" d="m120.43,49.99v-.9h-8.25v.9h8.25Zm0,3.26v-.9h-8.25v.9h8.25Z"/>
    <path class="cls-2" d="m127.35,58.12l1.44-.02,1.53.02.09-.09v-.4l-.06-.08h-.58c-.41,0-.75-.09-.93-.24-.14-.14-.18-.35-.18-.86v-10.57c0-.5.05-.73.18-.87.18-.15.52-.24.93-.24h.58l.06-.08v-.4l-.09-.09-1.44.05-1.53-.05c-.06.14-.08.31-.08.54,0,.4.06.96.06,1.73v9.52c0,1.04-.03,1.47-.12,1.94l.14.2Z"/>
    <path class="cls-2" d="m137.49,55.35v-.46l-.8-.05c-.84-.05-.99-.21-.99-1.01v-9.24l-3.69,1.56.11.77,2.3-1.01v7.93c0,.8-.17.96-.99,1.01l-.86.05v.46q2.36-.05,2.52-.05c.47,0,2.16.05,2.4.05Zm3.24-5.11c.32-2.77,1.68-4.28,4.44-5.11l-.64-.37c-1.47.49-2.1.8-2.88,1.47-1.58,1.33-2.43,3.2-2.43,5.29,0,2.52,1.22,4.09,3.2,4.09s3.47-1.58,3.47-3.66c0-1.76-1.06-2.91-2.68-2.91-1.18,0-1.67.6-2.48,1.19Zm1.9-.28c1.16,0,1.94,1.01,1.94,2.52,0,1.59-.78,2.62-1.96,2.62-1.3,0-2-1.12-2-3.17,0-.54.06-.83.23-1.09.34-.52,1.06-.89,1.79-.89Z"/>
    <path class="cls-2" d="m149.5,53.42c-.41.14-.69.23-1.5.46-.11,1.16-.49,2.16-1.38,3.63l.21.17.63-.29c1.24-1.61,1.82-2.57,2.25-3.75l-.21-.21Z"/>
    <path class="cls-2" d="m155.24,50.24c.32-2.77,1.68-4.28,4.44-5.11l-.64-.37c-1.47.49-2.1.8-2.88,1.47-1.58,1.33-2.43,3.2-2.43,5.29,0,2.52,1.22,4.09,3.2,4.09s3.47-1.58,3.47-3.66c0-1.76-1.06-2.91-2.68-2.91-1.18,0-1.67.6-2.48,1.19Zm1.9-.28c1.16,0,1.94,1.01,1.94,2.52,0,1.59-.78,2.62-1.96,2.62-1.3,0-2-1.12-2-3.17,0-.54.06-.83.23-1.09.34-.52,1.06-.89,1.79-.89Zm8.02,2.57v1.15c0,.92-.17,1.13-.92,1.16l-.95.05v.46q2.03-.05,2.4-.05t2.4.05v-.46l-.73-.05c-.75-.05-.92-.24-.92-1.16v-1.15c.9,0,1.22.02,1.65.06v-1.09l-1.65.05.02-6.92-1.22.46-4.33,7.08v.35h4.25Zm0-.98h-3.29l3.29-5.39v5.39Z"/>
    <path class="cls-2" d="m171.64,53.42c-.41.14-.69.23-1.5.46-.11,1.16-.49,2.16-1.38,3.63l.21.17.63-.29c1.24-1.61,1.82-2.57,2.25-3.75l-.21-.21Z"/>
    <path class="cls-2" d="m181.77,55.35v-.46l-.8-.05c-.84-.05-.99-.21-.99-1.01v-9.24l-3.69,1.56.11.77,2.3-1.01v7.93c0,.8-.17.96-.99,1.01l-.86.05v.46q2.36-.05,2.52-.05c.47,0,2.16.05,2.4.05Zm1.48-.4v.4c2.86,0,2.86-.05,3.41-.05s.55.05,3.5.05v-1.3c-1.76.08-2.46.02-5.29.08l2.78-2.95c1.48-1.58,1.94-2.42,1.94-3.56,0-1.76-1.19-2.85-3.14-2.85-1.1,0-1.85.31-2.6,1.07l-.26,2.08h.44l.2-.7c.24-.89.8-1.27,1.82-1.27,1.32,0,2.16.83,2.16,2.13,0,1.15-.64,2.28-2.37,4.12l-2.6,2.77Zm9.96-4.93c-.63.29-.89.46-1.22.78-.58.58-.89,1.27-.89,2.07,0,1.58,1.27,2.74,3,2.74,1.99,0,3.64-1.56,3.64-3.46,0-1.22-.57-1.88-2.31-2.68,1.39-.95,1.88-1.59,1.88-2.51,0-1.32-1.09-2.2-2.71-2.2-1.82,0-3.15,1.16-3.15,2.77,0,1.04.41,1.62,1.76,2.49Zm1.77.77c.96.43,1.55,1.18,1.55,2,0,1.29-.96,2.3-2.2,2.3-1.3,0-2.14-.92-2.14-2.34,0-1.12.44-1.82,1.58-2.51l1.22.55Zm-.93-1.96c-.96-.47-1.45-1.09-1.45-1.85,0-1.01.73-1.7,1.82-1.7s1.85.73,1.85,1.85c0,.87-.38,1.47-1.38,2.11l-.84-.41Z"/>
    <path class="cls-2" d="m201.4,53.42c-.41.14-.69.23-1.5.46-.11,1.16-.49,2.16-1.38,3.63l.21.17.63-.29c1.24-1.61,1.82-2.57,2.25-3.75l-.21-.21Z"/>
    <path class="cls-2" d="m205.39,54.95v.4c2.86,0,2.86-.05,3.41-.05s.55.05,3.5.05v-1.3c-1.76.08-2.46.02-5.29.08l2.78-2.95c1.48-1.58,1.94-2.42,1.94-3.56,0-1.76-1.19-2.85-3.14-2.85-1.1,0-1.85.31-2.6,1.07l-.26,2.08h.44l.2-.7c.24-.89.8-1.27,1.82-1.27,1.32,0,2.16.83,2.16,2.13,0,1.15-.64,2.28-2.37,4.12l-2.6,2.77Zm14.41-3.52c0-1.73-1.24-2.95-2.98-2.95-.73,0-1.29.05-2.1.77v-3.2l4.67.02v-1.3l-5.46-.02v5.63l.31.09c.72-.72,1.13-.93,1.88-.93,1.47,0,2.39,1.04,2.39,2.69s-.98,2.69-2.65,2.69c-.83,0-1.59-.28-1.81-.67l-.7-1.25-.37.21c.35.87.54,1.36.75,2.03.43.23,1.04.37,1.7.37,1.96,0,4.38-1.67,4.38-4.18Zm2.62-1.19c.32-2.77,1.68-4.28,4.44-5.11l-.64-.37c-1.47.49-2.1.8-2.88,1.47-1.58,1.33-2.43,3.2-2.43,5.29,0,2.52,1.22,4.09,3.2,4.09s3.47-1.58,3.47-3.66c0-1.76-1.06-2.91-2.68-2.91-1.18,0-1.67.6-2.48,1.19Zm1.9-.28c1.16,0,1.94,1.01,1.94,2.52,0,1.59-.78,2.62-1.96,2.62-1.3,0-2-1.12-2-3.17,0-.54.06-.83.23-1.09.34-.52,1.06-.89,1.79-.89Z"/>
    <path class="cls-2" d="m231.8,58.12l.14-.2c-.09-.47-.12-.9-.12-1.94v-9.52c0-.77.06-1.33.06-1.73,0-.23-.02-.4-.08-.54h-2.97l-.09.09v.4l.06.08h.58c.41,0,.75.09.93.24.14.14.18.37.18.87v10.57c0,.5-.05.72-.18.86-.18.15-.52.24-.93.24h-.58l-.06.08v.4l.09.09h2.97Z"/>
    <path class="cls-2" d="m233.92,44.19l-.29.4c.84.98,2.37,2.66,2.37,6.64,0,4.22-1.59,6.07-2.37,7.04l.29.32c.81-.77,3.4-2.94,3.4-7.34s-2.52-6.27-3.4-7.05Z"/>
  </g>
  <g>
    <path class="cls-2" d="m55.25,120.15h-4.22l-1.29-3.96-1.28,3.98h-4.2l3.4,2.53-1.29,3.93,3.4-2.5,3.38,2.5-1.33-3.98,3.42-2.5Z"/>
    <path class="cls-2" d="m67.01,122.19c0-2.06-1.82-2.41-2.62-2.55,1.36-1.05,1.87-1.84,1.87-2.84,0-1.51-1.26-2.52-3.15-2.52-1.16,0-1.92.32-2.74,1.14l-.49,2.11h.53l.31-.95c.19-.58,1.26-1.16,2.14-1.16,1.11,0,2.01.9,2.01,1.97,0,1.28-1,2.35-2.21,2.35-.14,0-.32-.02-.54-.03l-.26-.02-.2.9.12.1c.65-.29.97-.37,1.43-.37,1.41,0,2.23.9,2.23,2.45,0,1.73-1.04,2.87-2.62,2.87-.78,0-1.48-.26-1.99-.73-.41-.37-.63-.77-.95-1.68l-.46.17c.36,1.04.49,1.65.6,2.5.9.31,1.65.44,2.28.44,2.09,0,4.73-1.82,4.73-4.15Z"/>
  </g>
  <path class="cls-2" d="m19.4,121.87c0-1.85-1.64-2.17-2.36-2.3,1.22-.95,1.68-1.65,1.68-2.56,0-1.36-1.13-2.26-2.83-2.26-1.04,0-1.73.29-2.46,1.03l-.44,1.9h.47l.28-.86c.17-.52,1.13-1.04,1.93-1.04.99,0,1.81.81,1.81,1.77,0,1.15-.9,2.11-1.99,2.11-.12,0-.29-.02-.49-.03l-.23-.02-.18.81.11.09c.58-.26.87-.34,1.29-.34,1.27,0,2,.81,2,2.2,0,1.56-.93,2.59-2.36,2.59-.7,0-1.33-.23-1.79-.66-.37-.34-.57-.69-.86-1.51l-.41.15c.32.93.44,1.48.54,2.25.81.28,1.48.4,2.05.4,1.88,0,4.25-1.64,4.25-3.73Z"/>
  <g>
    <path class="cls-2" d="m72.7,118.36l.11.31.49-.32c.57-.35.61-.38.72-.38.17,0,.28.15.28.38,0,.78-.63,3.73-1.25,5.92l.11.17c.38-.11.73-.2,1.07-.26.29-1.93.61-2.92,1.32-3.98.83-1.29,1.97-2.23,2.66-2.23.17,0,.26.14.26.37,0,.28-.05.6-.17,1.09l-.8,3.24c-.14.57-.2.92-.2,1.16,0,.38.17.61.46.61.4,0,.95-.32,2.45-1.44l-.15-.28-.4.26c-.44.29-.78.46-.93.46-.11,0-.2-.14-.2-.31,0-.08.02-.24.03-.31l1.01-4.22c.11-.44.17-.87.17-1.13,0-.35-.17-.55-.47-.55-.64,0-1.7.58-2.6,1.42-.58.54-1.01,1.06-1.81,2.17l.58-2.46c.06-.28.09-.46.09-.63,0-.32-.12-.5-.35-.5-.32,0-.92.34-2.03,1.13l-.43.31Z"/>
    <path class="cls-2" d="m85.76,127.04v-.32l-.56-.03c-.59-.03-.7-.15-.7-.71v-6.47l-2.58,1.09.07.54,1.61-.71v5.55c0,.56-.12.67-.7.71l-.6.03v.32q1.65-.03,1.77-.03c.33,0,1.51.03,1.68.03Z"/>
  </g>
  <path class="cls-2" d="m103.77,126h3.72c.25,0,.51,0,.76-.03,1.71-.16,3.22-1.29,3.22-2.79,0-1.41-1.44-2.38-2.94-2.62,1.72-.43,2.52-1.41,2.52-2.35,0-1.05-1.05-2.61-3.96-2.61h-3.33v10.41Zm1.26-.84v-4.11h1.8c.25,0,.51-.01.76.01,1.41.13,2.65.97,2.65,2.1,0,.79-.82,1.99-3.09,1.99h-2.13Zm0-5.04v-3.69h1.72c2.31,0,3.12,1.06,3.12,1.78,0,.9-1.05,1.9-3.04,1.9h-1.8Zm8.52,5.88h1.12v-10.83h-1.12v10.83Zm2.82-3.31c0,2.04,1.57,3.48,3.28,3.48s3.3-1.42,3.3-3.46c0-1.87-1.38-3.61-3.3-3.61-1.77,0-3.28,1.56-3.28,3.6Zm1.17-.15c0-1.81,1.15-2.52,2.11-2.52s2.11.69,2.11,2.52-1.11,2.67-2.11,2.67-2.11-.78-2.11-2.67Zm6.82.12c0,1.92,1.41,3.51,3.25,3.51,1.03,0,1.77-.33,2.44-.76l-.07-1c-.48.33-1.18.81-2.35.81-1.26,0-2.1-1.09-2.1-2.55,0-1.3.66-2.61,2.11-2.61,1.18,0,1.57.31,2.16.69l.18-.99c-.91-.52-1.39-.66-2.32-.66-2.1,0-3.3,1.83-3.3,3.57Zm7.38,3.34h1.05v-2.13l1.2-1.23,2.34,3.36h1.23l-2.85-4.09,2.52-2.58h-1.35l-3.06,3.13v-7.29h-1.08v10.83Z"/>
  <g>
    <path class="cls-2" d="m162.7,119.36l.11.31.49-.32c.57-.35.61-.38.72-.38.17,0,.28.15.28.38,0,.78-.63,3.73-1.25,5.92l.11.17c.38-.11.73-.2,1.07-.26.29-1.93.61-2.92,1.32-3.98.83-1.29,1.97-2.23,2.66-2.23.17,0,.26.14.26.37,0,.28-.05.6-.17,1.09l-.8,3.24c-.14.57-.2.92-.2,1.16,0,.38.17.61.46.61.4,0,.95-.32,2.45-1.44l-.15-.28-.4.26c-.44.29-.78.46-.93.46-.11,0-.2-.14-.2-.31,0-.08.02-.24.03-.31l1.01-4.22c.11-.44.17-.87.17-1.13,0-.35-.17-.55-.47-.55-.64,0-1.7.58-2.6,1.42-.58.54-1.01,1.06-1.81,2.17l.58-2.46c.06-.28.09-.46.09-.63,0-.32-.12-.5-.35-.5-.32,0-.92.34-2.03,1.13l-.43.31Z"/>
    <path class="cls-2" d="m171.45,127.76v.28c2,0,2-.03,2.39-.03s.39.03,2.45.03v-.91c-1.23.05-1.72.01-3.71.05l1.95-2.07c1.04-1.1,1.36-1.69,1.36-2.5,0-1.23-.84-1.99-2.2-1.99-.77,0-1.3.21-1.82.75l-.18,1.46h.31l.14-.49c.17-.62.56-.89,1.27-.89.92,0,1.51.58,1.51,1.49,0,.8-.45,1.6-1.66,2.88l-1.82,1.94Z"/>
  </g>
  <path class="cls-2" d="m15.93,134.25l-.18-.17c-.8.4-1.35.54-2.45.64l-.06.32h.73c.37,0,.52.11.52.37,0,.11-.02.28-.03.37l-1.55,8.43s-.02.11-.02.15c0,.6.73,1.1,1.58,1.1.57,0,1.35-.29,2-.77,1.47-1.04,2.48-3.14,2.48-5.16,0-.58-.14-1.18-.32-1.41-.11-.14-.31-.21-.54-.21-.37,0-.83.12-1.25.34-.78.41-1.29.87-2.23,2.08l1.32-6.09Zm1.33,4.56c.4,0,.6.35.6,1.1,0,.98-.32,2.3-.78,3.29-.5,1.06-1.12,1.55-1.94,1.55-.7,0-1.09-.35-1.09-.99,0-.52.23-2.68,1.47-3.98.5-.52,1.3-.96,1.74-.96Z"/>
  <path class="cls-2" d="m74.93,135.25l-.18-.17c-.8.4-1.35.54-2.45.64l-.06.32h.73c.37,0,.52.11.52.37,0,.11-.02.28-.03.37l-1.55,8.43s-.02.11-.02.15c0,.6.73,1.1,1.58,1.1.57,0,1.35-.29,2-.77,1.47-1.04,2.48-3.14,2.48-5.16,0-.58-.14-1.18-.32-1.41-.11-.14-.31-.21-.54-.21-.37,0-.83.12-1.25.34-.78.41-1.29.87-2.23,2.08l1.32-6.09Zm1.33,4.56c.4,0,.6.35.6,1.1,0,.98-.32,2.3-.78,3.29-.5,1.06-1.12,1.55-1.94,1.55-.7,0-1.09-.35-1.09-.99,0-.52.23-2.68,1.47-3.98.5-.52,1.3-.96,1.74-.96Z"/>
  <path class="cls-2" d="m165.93,134.25l-.18-.17c-.8.4-1.35.54-2.45.64l-.06.32h.73c.37,0,.52.11.52.37,0,.11-.02.28-.03.37l-1.55,8.43s-.02.11-.02.15c0,.6.73,1.1,1.58,1.1.57,0,1.35-.29,2-.77,1.47-1.04,2.48-3.14,2.48-5.16,0-.58-.14-1.18-.32-1.41-.11-.14-.31-.21-.54-.21-.37,0-.83.12-1.25.34-.78.41-1.29.87-2.23,2.08l1.32-6.09Zm1.33,4.56c.4,0,.6.35.6,1.1,0,.98-.32,2.3-.78,3.29-.5,1.06-1.12,1.55-1.94,1.55-.7,0-1.09-.35-1.09-.99,0-.52.23-2.68,1.47-3.98.5-.52,1.3-.96,1.74-.96Z"/>
  <path class="cls-2" d="m193.77,126h3.72c.25,0,.51,0,.76-.03,1.71-.16,3.22-1.29,3.22-2.79,0-1.41-1.44-2.38-2.94-2.62,1.72-.43,2.52-1.41,2.52-2.35,0-1.05-1.05-2.61-3.96-2.61h-3.33v10.41Zm1.26-.84v-4.11h1.8c.25,0,.51-.01.76.01,1.41.13,2.65.97,2.65,2.1,0,.79-.82,1.99-3.09,1.99h-2.13Zm0-5.04v-3.69h1.72c2.31,0,3.12,1.06,3.12,1.78,0,.9-1.05,1.9-3.04,1.9h-1.8Zm8.52,5.88h1.12v-10.83h-1.12v10.83Zm2.82-3.31c0,2.04,1.57,3.48,3.28,3.48s3.3-1.42,3.3-3.46c0-1.87-1.38-3.61-3.3-3.61-1.77,0-3.28,1.56-3.28,3.6Zm1.17-.15c0-1.81,1.15-2.52,2.11-2.52s2.11.69,2.11,2.52-1.11,2.67-2.11,2.67-2.11-.78-2.11-2.67Zm6.82.12c0,1.92,1.41,3.51,3.25,3.51,1.03,0,1.77-.33,2.44-.76l-.07-1c-.48.33-1.18.81-2.35.81-1.26,0-2.1-1.09-2.1-2.55,0-1.3.66-2.61,2.11-2.61,1.18,0,1.57.31,2.16.69l.18-.99c-.91-.52-1.39-.66-2.32-.66-2.1,0-3.3,1.83-3.3,3.57Zm7.38,3.34h1.05v-2.13l1.2-1.23,2.34,3.36h1.23l-2.85-4.09,2.52-2.58h-1.35l-3.06,3.13v-7.29h-1.08v10.83Z"/>
  <g>
    <path class="cls-2" d="m252.7,119.36l.11.31.49-.32c.57-.35.61-.38.72-.38.17,0,.28.15.28.38,0,.78-.63,3.73-1.25,5.92l.11.17c.38-.11.73-.2,1.07-.26.29-1.93.61-2.92,1.32-3.98.83-1.29,1.97-2.23,2.66-2.23.17,0,.26.14.26.37,0,.28-.05.6-.17,1.09l-.8,3.24c-.14.57-.2.92-.2,1.16,0,.38.17.61.46.61.4,0,.95-.32,2.45-1.44l-.15-.28-.4.26c-.44.29-.78.46-.93.46-.11,0-.2-.14-.2-.31,0-.08.02-.24.03-.31l1.01-4.22c.11-.44.17-.87.17-1.13,0-.35-.17-.55-.47-.55-.64,0-1.7.58-2.6,1.42-.58.54-1.01,1.06-1.81,2.17l.58-2.46c.06-.28.09-.46.09-.63,0-.32-.12-.5-.35-.5-.32,0-.92.34-2.03,1.13l-.43.31Z"/>
    <path class="cls-2" d="m266.23,125.61c0-1.3-1.15-1.52-1.65-1.61.86-.66,1.18-1.16,1.18-1.79,0-.95-.79-1.59-1.98-1.59-.73,0-1.21.2-1.72.72l-.31,1.33h.33l.19-.6c.12-.36.79-.73,1.35-.73.7,0,1.26.57,1.26,1.24,0,.8-.63,1.48-1.39,1.48-.09,0-.2-.01-.34-.02h-.16s-.13.56-.13.56l.07.06c.41-.18.61-.24.9-.24.89,0,1.4.57,1.4,1.54,0,1.09-.65,1.81-1.65,1.81-.49,0-.93-.16-1.25-.46-.26-.24-.4-.48-.6-1.06l-.29.11c.22.65.31,1.04.37,1.57.57.19,1.04.28,1.44.28,1.32,0,2.98-1.15,2.98-2.61Z"/>
  </g>
  <path class="cls-2" d="m255.93,134.25l-.18-.17c-.8.4-1.35.54-2.45.64l-.06.32h.73c.37,0,.52.11.52.37,0,.11-.02.28-.03.37l-1.55,8.43s-.02.11-.02.15c0,.6.73,1.1,1.58,1.1.57,0,1.35-.29,2-.77,1.47-1.04,2.48-3.14,2.48-5.16,0-.58-.14-1.18-.32-1.41-.11-.14-.31-.21-.54-.21-.37,0-.83.12-1.25.34-.78.41-1.29.87-2.23,2.08l1.32-6.09Zm1.33,4.56c.4,0,.6.35.6,1.1,0,.98-.32,2.3-.78,3.29-.5,1.06-1.12,1.55-1.94,1.55-.7,0-1.09-.35-1.09-.99,0-.52.23-2.68,1.47-3.98.5-.52,1.3-.96,1.74-.96Z"/>
  <path class="cls-2" d="m283.77,126h3.72c.25,0,.51,0,.76-.03,1.71-.16,3.22-1.29,3.22-2.79,0-1.41-1.44-2.38-2.94-2.62,1.72-.43,2.52-1.41,2.52-2.35,0-1.05-1.05-2.61-3.96-2.61h-3.33v10.41Zm1.26-.84v-4.11h1.8c.25,0,.51-.01.76.01,1.41.13,2.65.97,2.65,2.1,0,.79-.82,1.99-3.09,1.99h-2.13Zm0-5.04v-3.69h1.72c2.31,0,3.12,1.06,3.12,1.78,0,.9-1.05,1.9-3.04,1.9h-1.8Zm8.52,5.88h1.12v-10.83h-1.12v10.83Zm2.82-3.31c0,2.04,1.57,3.48,3.28,3.48s3.3-1.42,3.3-3.46c0-1.87-1.38-3.61-3.3-3.61-1.77,0-3.28,1.56-3.28,3.6Zm1.17-.15c0-1.81,1.15-2.52,2.11-2.52s2.11.69,2.11,2.52-1.11,2.67-2.11,2.67-2.11-.78-2.11-2.67Zm6.82.12c0,1.92,1.41,3.51,3.25,3.51,1.03,0,1.77-.33,2.44-.76l-.07-1c-.48.33-1.18.81-2.35.81-1.26,0-2.1-1.09-2.1-2.55,0-1.3.66-2.61,2.11-2.61,1.18,0,1.57.31,2.16.69l.18-.99c-.91-.52-1.39-.66-2.32-.66-2.1,0-3.3,1.83-3.3,3.57Zm7.38,3.34h1.05v-2.13l1.2-1.23,2.34,3.36h1.23l-2.85-4.09,2.52-2.58h-1.35l-3.06,3.13v-7.29h-1.08v10.83Z"/>
  <g>
    <path class="cls-2" d="m342.7,119.36l.11.31.49-.32c.57-.35.61-.38.72-.38.17,0,.28.15.28.38,0,.78-.63,3.73-1.25,5.92l.11.17c.38-.11.73-.2,1.07-.26.29-1.93.61-2.92,1.32-3.98.83-1.29,1.97-2.23,2.66-2.23.17,0,.26.14.26.37,0,.28-.05.6-.17,1.09l-.8,3.24c-.14.57-.2.92-.2,1.16,0,.38.17.61.46.61.4,0,.95-.32,2.45-1.44l-.15-.28-.4.26c-.44.29-.78.46-.93.46-.11,0-.2-.14-.2-.31,0-.08.02-.24.03-.31l1.01-4.22c.11-.44.17-.87.17-1.13,0-.35-.17-.55-.47-.55-.64,0-1.7.58-2.6,1.42-.58.54-1.01,1.06-1.81,2.17l.58-2.46c.06-.28.09-.46.09-.63,0-.32-.12-.5-.35-.5-.32,0-.92.34-2.03,1.13l-.43.31Z"/>
    <path class="cls-2" d="m354.28,126.07v.8c0,.64-.12.79-.64.81l-.66.03v.32q1.42-.03,1.68-.03t1.68.03v-.32l-.51-.03c-.52-.03-.64-.17-.64-.81v-.8c.63,0,.86.01,1.16.04v-.76l-1.16.03v-4.84s-.85.32-.85.32l-3.03,4.96v.25h2.98Zm0-.69h-2.3l2.3-3.77v3.77Z"/>
  </g>
  <path class="cls-2" d="m345.93,134.25l-.18-.17c-.8.4-1.35.54-2.45.64l-.06.32h.73c.37,0,.52.11.52.37,0,.11-.02.28-.03.37l-1.55,8.43s-.02.11-.02.15c0,.6.73,1.1,1.58,1.1.57,0,1.35-.29,2-.77,1.47-1.04,2.48-3.14,2.48-5.16,0-.58-.14-1.18-.32-1.41-.11-.14-.31-.21-.54-.21-.37,0-.83.12-1.25.34-.78.41-1.29.87-2.23,2.08l1.32-6.09Zm1.33,4.56c.4,0,.6.35.6,1.1,0,.98-.32,2.3-.78,3.29-.5,1.06-1.12,1.55-1.94,1.55-.7,0-1.09-.35-1.09-.99,0-.52.23-2.68,1.47-3.98.5-.52,1.3-.96,1.74-.96Z"/>
  <g>
    <path class="cls-2" d="m392.7,118.36l.11.31.49-.32c.57-.35.61-.38.72-.38.17,0,.28.15.28.38,0,.78-.63,3.73-1.25,5.92l.11.17c.38-.11.73-.2,1.07-.26.29-1.93.61-2.92,1.32-3.98.83-1.29,1.97-2.23,2.66-2.23.17,0,.26.14.26.37,0,.28-.05.6-.17,1.09l-.8,3.24c-.14.57-.2.92-.2,1.16,0,.38.17.61.46.61.4,0,.95-.32,2.45-1.44l-.15-.28-.4.26c-.44.29-.78.46-.93.46-.11,0-.2-.14-.2-.31,0-.08.02-.24.03-.31l1.01-4.22c.11-.44.17-.87.17-1.13,0-.35-.17-.55-.47-.55-.64,0-1.7.58-2.6,1.42-.58.54-1.01,1.06-1.81,2.17l.58-2.46c.06-.28.09-.46.09-.63,0-.32-.12-.5-.35-.5-.32,0-.92.34-2.03,1.13l-.43.31Z"/>
    <path class="cls-2" d="m404.28,125.07v.8c0,.64-.12.79-.64.81l-.66.03v.32q1.42-.03,1.68-.03t1.68.03v-.32l-.51-.03c-.52-.03-.64-.17-.64-.81v-.8c.63,0,.86.01,1.16.04v-.76l-1.16.03v-4.84s-.85.32-.85.32l-3.03,4.96v.25h2.98Zm0-.69h-2.3l2.3-3.77v3.77Z"/>
  </g>
  <path class="cls-2" d="m443.27,96.92h-3.37l-1.03-3.17-1.02,3.18h-3.36l2.72,2.03-1.03,3.14,2.72-2,2.71,2-1.06-3.18,2.73-2Z"/>
  <g>
    <path class="cls-2" d="m453.9,111.46c-.63.29-.89.46-1.22.78-.58.58-.89,1.27-.89,2.07,0,1.58,1.27,2.74,3,2.74,1.99,0,3.64-1.56,3.64-3.46,0-1.22-.57-1.88-2.31-2.68,1.39-.95,1.88-1.59,1.88-2.51,0-1.32-1.09-2.2-2.71-2.2-1.82,0-3.15,1.16-3.15,2.77,0,1.04.41,1.62,1.76,2.49Zm1.77.77c.96.43,1.55,1.18,1.55,2,0,1.29-.96,2.3-2.2,2.3-1.3,0-2.14-.92-2.14-2.34,0-1.12.44-1.82,1.58-2.51l1.22.55Zm-.93-1.96c-.96-.47-1.45-1.09-1.45-1.85,0-1.01.73-1.7,1.82-1.7s1.85.73,1.85,1.85c0,.87-.38,1.47-1.38,2.11l-.84-.41Z"/>
    <path class="cls-2" d="m460.02,110.46v.28c2,0,2-.03,2.39-.03s.39.03,2.45.03v-.91c-1.23.05-1.72.01-3.71.05l1.95-2.07c1.04-1.1,1.36-1.69,1.36-2.5,0-1.23-.84-1.99-2.2-1.99-.77,0-1.3.21-1.82.75l-.18,1.46h.31l.14-.49c.17-.62.56-.89,1.27-.89.92,0,1.51.58,1.51,1.49,0,.8-.45,1.6-1.66,2.88l-1.82,1.94Z"/>
  </g>
  <g>
    <path class="cls-2" d="m458.73,96.78v-.46l-.8-.05c-.84-.05-.99-.21-.99-1.01v-9.24l-3.69,1.56.11.77,2.3-1.01v7.93c0,.8-.17.96-.99,1.01l-.86.05v.46q2.36-.05,2.52-.05c.47,0,2.16.05,2.4.05Z"/>
    <path class="cls-2" d="m461.02,90.46v.28c2,0,2-.03,2.39-.03s.39.03,2.45.03v-.91c-1.23.05-1.72.01-3.71.05l1.95-2.07c1.04-1.1,1.36-1.69,1.36-2.5,0-1.23-.84-1.99-2.2-1.99-.77,0-1.3.21-1.82.75l-.18,1.46h.31l.14-.49c.17-.62.56-.89,1.27-.89.92,0,1.51.58,1.51,1.49,0,.8-.45,1.6-1.66,2.88l-1.82,1.94Z"/>
  </g>
  <g>
    <path class="cls-14" d="m536.16,144.48c.17-1.05.27-1.84.51-4.21h-.78c-.15.71-.69,2.69-.83,2.82-.22.2-2.35.32-4.63.32-.95,0-1.93-.02-2.82-.07v-12.78c0-1.93.12-2.13,1.25-2.2l1.18-.07v-.73c-1.79.07-2.33.07-3.6.07s-1.81-.02-3.57-.07v.73l1.18.07c1.13.07,1.25.27,1.25,2.2v11.6c0,.71-.22,1.25-.61,1.44l-.76.39v.56c1.62-.07,1.79-.07,2.42-.07.56,0,3.43.07,5.7.07q.78,0,4.11-.07Z"/>
    <path class="cls-2" d="m548.35,144.66v-1.01h-4.11v-4.08h-1.01v4.08h-4.11v1.01h4.11v4.13h1.01v-4.13h4.11Z"/>
  </g>
  <path class="cls-2" d="m518.74,96h6.07v-.99h-1.8s-2.92.01-2.92.01v-9.43h-1.35v10.41Zm7.93,0h1.12v-6.67h-1.12v6.67Zm-.1-8.85h1.35v-1.33h-1.35v1.33Zm3.67,8.85h1.17v-3.6c0-1.11.37-2.31,1.53-2.31,1.47,0,1.47,1.12,1.47,1.69v4.21h1.17v-4.32c0-1.05-.13-2.5-2.05-2.5-1.32,0-1.98.85-2.19,1.12v-1.05h-1.09v6.75Zm7.06-3.39c0,1.86,1.3,3.55,3.27,3.55.94,0,1.72-.33,2.37-.76l-.09-.99c-.66.48-1.33.82-2.28.82-1.14,0-2.16-.99-2.22-2.53h4.65v-.43c-.13-2.56-1.6-3.18-2.67-3.18-1.59,0-3.03,1.51-3.03,3.52Zm1.12-.73c.16-.73.76-1.86,1.9-1.86.43,0,1.56.19,1.81,1.86h-3.72Zm5.68,2.43c0,.69.45,1.86,1.71,1.86,1.65,0,2.47-.67,2.49-.69v.52h1.14v-4.57c-.07-1.26-1.06-2.34-2.49-2.34-.94,0-1.63.24-2.35.66l.09,1c.49-.34,1.12-.76,2.25-.76.19,0,.58.01.94.45.37.45.37.96.39,1.38v.51c-1.54.01-4.17.39-4.17,1.98Zm1.09-.01c0-.94,1.99-1.17,3.07-1.18v.94c0,.97-1.03,1.18-1.68,1.18-.81,0-1.39-.4-1.39-.94Zm6.24,1.71h1.12v-3.09c0-2.19,1.66-2.7,2.55-2.73v-1c-1.59.03-2.38,1.05-2.62,1.42v-1.35h-1.05v6.75Z"/>
  <path class="cls-2" d="m563.73,135.35v-.46l-.8-.05c-.84-.05-.99-.21-.99-1.01v-9.24l-3.69,1.56.11.77,2.3-1.01v7.93c0,.8-.17.96-.99,1.01l-.86.05v.46q2.36-.05,2.52-.05c.47,0,2.16.05,2.4.05Zm5.26-10.59c-2.37,0-3.58,1.88-3.58,5.58,0,1.79.32,3.34.86,4.09s1.39,1.18,2.34,1.18c2.31,0,3.47-1.99,3.47-5.91,0-3.35-.99-4.94-3.09-4.94Zm-.28.54c1.48,0,2.08,1.5,2.08,5.17,0,3.26-.58,4.61-1.99,4.61-1.48,0-2.11-1.55-2.11-5.28,0-3.23.57-4.5,2.02-4.5Z"/>
  <path class="cls-2" d="m572.99,95.3c.94.6,2.05,1.03,3.43,1.03,2.05,0,3.39-1.54,3.39-3.16,0-1.5-1.05-2.49-2.01-2.89-.54-.22-1.81-.45-2.25-.63-.66-.27-1.2-.87-1.2-1.6,0-.88.81-1.77,2.17-1.77,1.23,0,1.86.42,2.55.96l.21-1.24c-.78-.42-1.53-.72-2.74-.72-2.11,0-3.39,1.5-3.39,2.95,0,1.56,1.24,2.52,2.31,2.8,1.3.34,1.5.36,1.86.49.76.31,1.29,1,1.29,1.8,0,.97-.82,1.98-2.19,1.98-1.48,0-2.49-.67-3.21-1.24l-.22,1.24Zm8.11-2.61c0,2.04,1.57,3.48,3.28,3.48s3.3-1.42,3.3-3.46c0-1.87-1.38-3.61-3.3-3.61-1.77,0-3.28,1.56-3.28,3.6Zm1.17-.15c0-1.81,1.15-2.52,2.11-2.52s2.11.69,2.11,2.52-1.11,2.67-2.11,2.67-2.11-.78-2.11-2.67Zm6.28-2.32h1.11v5.79h1.12v-5.79h1.65v-.88h-1.69v-2.04c0-1.15.91-1.36,1.39-1.36s.87.12,1.21.25v-1c-.34-.09-.72-.16-1.18-.16-1.21,0-2.52.9-2.52,2.86,0,.12.01.24.01.36v1.09h-1.11v.88Zm4.44,0h1.26v4.03c0,1.65.73,1.92,1.23,1.92.67,0,1.44-.15,2.22-.57l-.24-.88c-.21.15-.67.49-1.32.49-.78,0-.81-.88-.81-1.3v-3.69h2.11v-.88h-2.11v-1.89h-1.05v1.89h-1.29v.88Zm6.64,5.79h1.17v-9.36c.13.66.49,1.6,1.08,3.19l2.25,5.83h1.08l2.31-6.01.9-2.46.15-.55v.48s.01,8.88.01,8.88h1.17v-10.41h-1.72l-2.31,6.03c-.73,1.92-.97,2.67-1.02,3h-.01c-.06-.34-.42-1.35-1.03-3.01l-2.31-6.01h-1.71v10.41Zm12.28-1.69c0,.69.45,1.86,1.71,1.86,1.65,0,2.47-.67,2.49-.69v.52h1.14v-4.57c-.07-1.26-1.06-2.34-2.49-2.34-.94,0-1.63.24-2.35.66l.09,1c.49-.34,1.12-.76,2.25-.76.19,0,.58.01.94.45.37.45.37.96.39,1.38v.51c-1.54.01-4.17.39-4.17,1.98Zm1.09-.01c0-.94,1.99-1.17,3.07-1.18v.94c0,.97-1.03,1.18-1.68,1.18-.81,0-1.39-.4-1.39-.94Zm5.44,1.71h1.24l2.16-2.82,2.25,2.82h1.24l-3-3.43h0s2.76-3.24,2.76-3.24h-1.24l-1.99,2.47h-.01l-2.07-2.47h-1.24l2.82,3.22v.03l-2.91,3.42Z"/>
  <path class="cls-2" d="m398.55,85.85l1.14.04c.49.02.71.18.71.55,0,.29-.08.94-.18,1.55l-1.53,8.85c-.33,1.86-.37,1.9-1.18,1.98l-.84.06-.08.57.86-.02c.96-.04,1.35-.04,1.84-.04l1.98.06h.53l.06-.57-1-.06c-.55-.04-.73-.2-.73-.61,0-.18.02-.37.08-.71l2.06-11.32c.59-.12,1-.16,1.55-.16,1.77,0,2.71.8,2.71,2.31,0,1.94-1.59,3.37-3.71,3.37h-.9l-.06.22c2.73,3.98,3.37,4.96,4.9,7.55l1.73-.06s.31.02.69.06h.27v-.55c-.82-.1-1.04-.27-1.63-1.12l-3.75-5.61c1.12-.2,1.71-.45,2.45-.98,1.18-.86,1.82-1.98,1.82-3.22,0-1.75-1.31-2.71-3.57-2.67h-6.14l-.06.55Z"/>
  <path class="cls-2" d="m82.74,35h1.35v-10.41h-1.35v10.41Zm3.28-3.31c0,1.78,1.05,3.48,2.58,3.48.99,0,1.71-.45,2.22-.94v.78h1.18v-10.83h-1.14v4.81c-.52-.42-1.23-.82-2.17-.82-1.48,0-2.67,1.54-2.67,3.52Zm1.17-.01c0-1.96,1.3-2.58,2.17-2.58h.03c.16,0,.64.01,1.11.45.27.25.31.34.31.58v2.86c0,.46-.7,1.24-1.6,1.24-.81,0-2.02-.58-2.02-2.56Zm6.57-.06c0,1.86,1.3,3.55,3.27,3.55.94,0,1.72-.33,2.37-.76l-.09-.99c-.66.48-1.33.82-2.28.82-1.14,0-2.16-.99-2.22-2.53h4.65v-.43c-.13-2.56-1.6-3.18-2.67-3.18-1.59,0-3.03,1.51-3.03,3.52Zm1.12-.73c.16-.73.76-1.86,1.9-1.86.43,0,1.56.19,1.81,1.86h-3.72Zm6.22,4.12h1.17v-3.6c0-1.11.37-2.31,1.53-2.31,1.47,0,1.47,1.12,1.47,1.69v4.21h1.17v-4.32c0-1.05-.13-2.5-2.05-2.5-1.32,0-1.98.85-2.19,1.12v-1.05h-1.09v6.75Zm6.82-5.79h1.26v4.03c0,1.65.73,1.92,1.23,1.92.67,0,1.44-.15,2.22-.57l-.24-.88c-.21.15-.67.49-1.32.49-.78,0-.81-.88-.81-1.3v-3.69h2.11v-.88h-2.11v-1.89h-1.05v1.89h-1.29v.88Zm6.36,5.79h1.12v-6.67h-1.12v6.67Zm-.1-8.85h1.35v-1.33h-1.35v1.33Zm2.74,3.06h1.26v4.03c0,1.65.73,1.92,1.23,1.92.67,0,1.44-.15,2.22-.57l-.24-.88c-.21.15-.67.49-1.32.49-.78,0-.81-.88-.81-1.3v-3.69h2.11v-.88h-2.11v-1.89h-1.05v1.89h-1.29v.88Zm4.93-.88l2.8,6.4c.06.12.07.18.07.25,0,.06-.01.13-.06.24-.64,1.56-.76,2.01-1.39,2.01-.25,0-.58-.09-1.09-.25l.07.97c.36.09.81.12,1.09.12.69,0,1.12-.34,1.72-1.72l3.25-8.02h-1.12c-.99,2.46-1.96,4.9-1.99,5.92-.13-.85-.13-1.26-2.17-5.92h-1.18Zm13.12,6.67h1.3v-4.74h2.37l2.8,4.74h1.35l-2.98-4.89c1.74-.49,2.56-1.63,2.56-2.73s-.99-2.79-4.02-2.79h-3.39v10.41Zm1.3-5.67v-3.9h2.02c2.29,0,2.86,1.18,2.86,1.96s-.55,1.93-2.91,1.93h-1.98Zm7.47,2.28c0,1.86,1.3,3.55,3.27,3.55.94,0,1.72-.33,2.37-.76l-.09-.99c-.66.48-1.33.82-2.28.82-1.14,0-2.16-.99-2.22-2.53h4.65v-.43c-.13-2.56-1.6-3.18-2.67-3.18-1.59,0-3.03,1.51-3.03,3.52Zm1.12-.73c.16-.73.76-1.86,1.9-1.86.43,0,1.56.19,1.81,1.86h-3.72Zm5.43,3.61c1.12.61,2.04.67,2.55.67,2.01,0,2.44-1.24,2.44-2.07,0-.97-.69-1.6-1.3-1.87-.93-.42-2.53-.22-2.53-1.32,0-.37.22-.91,1.26-.91s1.56.27,2.16.55l.16-.99c-.82-.34-1.35-.46-2.19-.46-2.04,0-2.46,1.18-2.46,1.98,0,1.05.9,1.63,1.56,1.84.46.15,1.11.22,1.44.33.3.09.84.39.84.96,0,.4-.27,1.02-1.39,1.02-1.21,0-1.93-.51-2.35-.75l-.18,1.02Zm6.76.51h1.17v-9.36l.58,1.2,4.11,8.16h1.87v-10.41h-1.17v9.36l-.58-1.2-4.11-8.16h-1.87v10.41Zm9.7-3.39c0,1.86,1.3,3.55,3.27,3.55.94,0,1.72-.33,2.37-.76l-.09-.99c-.66.48-1.33.82-2.28.82-1.14,0-2.16-.99-2.22-2.53h4.65v-.43c-.13-2.56-1.6-3.18-2.67-3.18-1.59,0-3.03,1.51-3.03,3.52Zm1.12-.73c.16-.73.76-1.86,1.9-1.86.43,0,1.56.19,1.81,1.86h-3.72Zm5.29-1.66h1.26v4.03c0,1.65.73,1.92,1.23,1.92.67,0,1.44-.15,2.22-.57l-.24-.88c-.21.15-.67.49-1.32.49-.78,0-.81-.88-.81-1.3v-3.69h2.11v-.88h-2.11v-1.89h-1.05v1.89h-1.29v.88Z"/>
  <g>
    <path class="cls-2" d="m103.81,140.48c0-4.42,1.65-6.22,2.64-7.38l-.32-.44c-.97.87-3.77,3.13-3.77,7.82,0,1.82.43,3.54,1.24,5.07.6,1.14,1.14,1.8,2.53,3.11l.32-.36c-.78-.97-2.64-3.04-2.64-7.82Z"/>
    <path class="cls-2" d="m114.09,145.05v-.51l-.88-.05c-.94-.05-1.11-.24-1.11-1.12v-10.27l-4.1,1.73.12.85,2.55-1.12v8.81c0,.88-.19,1.07-1.11,1.12l-.95.05v.51q2.62-.05,2.81-.05c.53,0,2.4.05,2.67.05Z"/>
    <path class="cls-2" d="m118.94,142.91c-.46.15-.77.26-1.67.51-.12,1.29-.54,2.4-1.53,4.03l.24.19.7-.32c1.38-1.79,2.02-2.86,2.5-4.17l-.24-.24Z"/>
    <path class="cls-2" d="m132.99,143.25l-5.87-10.01h-2.75l-.09.48.6.03c.77.03,1.34.8,1.36.95l-1.58,8.57c-.2,1.05-.31,1.19-.92,1.26l-.53.05-.09.48,1.89-.05c.2,0,.22,0,1.87.05l.09-.48-.71-.05c-.68-.05-.83-.19-.83-.75,0-.14.02-.32.05-.51l1.36-7.89,5.75,9.81h.85l1.6-9.4c.36-1.92.39-1.99,1.02-2.04l.63-.03.05-.46-3.62-.02-.09.48.8.03c.44.02.61.14.61.41,0,.12-1.41,8.87-1.45,9.1Z"/>
    <path class="cls-2" d="m137.18,132.66l-.32.44c.94,1.09,2.64,2.96,2.64,7.38,0,4.69-1.77,6.75-2.64,7.82l.32.36c.9-.85,3.77-3.26,3.77-8.16s-2.81-6.97-3.77-7.84Z"/>
  </g>
  <g>
    <path class="cls-2" d="m193.81,140.48c0-4.42,1.65-6.22,2.64-7.38l-.32-.44c-.97.87-3.77,3.13-3.77,7.82,0,1.82.43,3.54,1.24,5.07.6,1.14,1.14,1.8,2.53,3.11l.32-.36c-.78-.97-2.64-3.04-2.64-7.82Z"/>
    <path class="cls-2" d="m197.26,144.61v.44c3.18,0,3.18-.05,3.79-.05s.61.05,3.89.05v-1.45c-1.96.09-2.74.02-5.88.09l3.09-3.28c1.65-1.75,2.16-2.69,2.16-3.96,0-1.96-1.33-3.16-3.49-3.16-1.22,0-2.06.34-2.89,1.19l-.29,2.31h.49l.22-.78c.27-.99.88-1.41,2.02-1.41,1.46,0,2.4.92,2.4,2.36,0,1.28-.71,2.53-2.64,4.57l-2.89,3.08Z"/>
    <path class="cls-2" d="m208.94,142.91c-.46.15-.77.26-1.67.51-.12,1.29-.54,2.4-1.53,4.03l.24.19.7-.32c1.38-1.79,2.02-2.86,2.5-4.17l-.24-.24Z"/>
    <path class="cls-2" d="m222.99,143.25l-5.87-10.01h-2.75l-.09.48.6.03c.77.03,1.34.8,1.36.95l-1.58,8.57c-.2,1.05-.31,1.19-.92,1.26l-.53.05-.09.48,1.89-.05c.2,0,.22,0,1.87.05l.09-.48-.71-.05c-.68-.05-.83-.19-.83-.75,0-.14.02-.32.05-.51l1.36-7.89,5.75,9.81h.85l1.6-9.4c.36-1.92.39-1.99,1.02-2.04l.63-.03.05-.46-3.62-.02-.09.48.8.03c.44.02.61.14.61.41,0,.12-1.41,8.87-1.45,9.1Z"/>
    <path class="cls-2" d="m227.18,132.66l-.32.44c.94,1.09,2.64,2.96,2.64,7.38,0,4.69-1.77,6.75-2.64,7.82l.32.36c.9-.85,3.77-3.26,3.77-8.16s-2.81-6.97-3.77-7.84Z"/>
  </g>
  <g>
    <path class="cls-2" d="m283.81,140.48c0-4.42,1.65-6.22,2.64-7.38l-.32-.44c-.97.87-3.77,3.13-3.77,7.82,0,1.82.43,3.54,1.24,5.07.6,1.14,1.14,1.8,2.53,3.11l.32-.36c-.78-.97-2.64-3.04-2.64-7.82Z"/>
    <path class="cls-2" d="m287.26,144.61v.44c3.18,0,3.18-.05,3.79-.05s.61.05,3.89.05v-1.45c-1.96.09-2.74.02-5.88.09l3.09-3.28c1.65-1.75,2.16-2.69,2.16-3.96,0-1.96-1.33-3.16-3.49-3.16-1.22,0-2.06.34-2.89,1.19l-.29,2.31h.49l.22-.78c.27-.99.88-1.41,2.02-1.41,1.46,0,2.4.92,2.4,2.36,0,1.28-.71,2.53-2.64,4.57l-2.89,3.08Z"/>
    <path class="cls-2" d="m298.94,142.91c-.46.15-.77.26-1.67.51-.12,1.29-.54,2.4-1.53,4.03l.24.19.7-.32c1.38-1.79,2.02-2.86,2.5-4.17l-.24-.24Z"/>
    <path class="cls-2" d="m312.99,143.25l-5.87-10.01h-2.75l-.09.48.6.03c.77.03,1.34.8,1.36.95l-1.58,8.57c-.2,1.05-.31,1.19-.92,1.26l-.53.05-.09.48,1.89-.05c.2,0,.22,0,1.87.05l.09-.48-.71-.05c-.68-.05-.83-.19-.83-.75,0-.14.02-.32.05-.51l1.36-7.89,5.75,9.81h.85l1.6-9.4c.36-1.92.39-1.99,1.02-2.04l.63-.03.05-.46-3.62-.02-.09.48.8.03c.44.02.61.14.61.41,0,.12-1.41,8.87-1.45,9.1Z"/>
    <path class="cls-2" d="m317.18,132.66l-.32.44c.94,1.09,2.64,2.96,2.64,7.38,0,4.69-1.77,6.75-2.64,7.82l.32.36c.9-.85,3.77-3.26,3.77-8.16s-2.81-6.97-3.77-7.84Z"/>
  </g>
  <g>
    <path class="cls-11" d="m16.49,101.41l2.17-2.54c.09-.11.26-.17.52-.17h.21v-.43h-1.25l-1.9,2.68-1.16-1.77c-.23-.34-.4-.54-.92-1.06l-1.77.31.08.4.32.03c.28.02.61.23.77.44l1.84,2.66-2.28,2.69c-.11.14-.31.23-.46.23h-.26v.41h1.32l2.05-2.94,2.03,2.98q.8-.05.93-.05t.95.05v-.46l-.38-.05c-.18-.02-.37-.14-.54-.37l-2.26-3.06Z"/>
    <g class="cls-33">
      <g class="cls-26">
        <path class="cls-2" d="m-1.34,95.21h42.14v-.92H-1.34v.92Z"/>
      </g>
    </g>
  </g>
  <g>
    <path class="cls-11" d="m76.49,101.41l2.17-2.54c.09-.11.26-.17.52-.17h.21v-.43h-1.25l-1.9,2.68-1.16-1.77c-.23-.34-.4-.54-.92-1.06l-1.77.31.08.4.32.03c.28.02.61.23.77.44l1.84,2.66-2.28,2.69c-.11.14-.31.23-.46.23h-.26v.41h1.32l2.05-2.94,2.03,2.98q.8-.05.93-.05t.95.05v-.46l-.38-.05c-.18-.02-.37-.14-.54-.37l-2.26-3.06Z"/>
    <g class="cls-20">
      <g class="cls-35">
        <path class="cls-2" d="m58.66,95.21h42.14v-.92h-42.14v.92Z"/>
      </g>
    </g>
  </g>
  <g>
    <path class="cls-11" d="m166.49,101.41l2.17-2.54c.09-.11.26-.17.52-.17h.21v-.43h-1.25l-1.9,2.68-1.16-1.77c-.23-.34-.4-.54-.92-1.06l-1.77.31.08.4.32.03c.28.02.61.23.77.44l1.84,2.66-2.28,2.69c-.11.14-.31.23-.46.23h-.26v.41h1.32l2.05-2.94,2.03,2.98q.8-.05.93-.05t.95.05v-.46l-.38-.05c-.18-.02-.37-.14-.54-.37l-2.26-3.06Z"/>
    <g class="cls-27">
      <g class="cls-37">
        <path class="cls-2" d="m148.66,95.21h42.14v-.92h-42.14v.92Z"/>
      </g>
    </g>
  </g>
  <g>
    <g>
      <path class="cls-11" d="m256.49,101.41l2.17-2.54c.09-.11.26-.17.52-.17h.21v-.43h-1.25l-1.9,2.68-1.16-1.77c-.23-.34-.4-.54-.92-1.06l-1.77.31.08.4.32.03c.28.02.61.23.77.44l1.84,2.66-2.28,2.69c-.11.14-.31.23-.46.23h-.26v.41h1.32l2.05-2.94,2.03,2.98q.8-.05.93-.05t.95.05v-.46l-.38-.05c-.18-.02-.37-.14-.54-.37l-2.26-3.06Z"/>
      <g class="cls-21">
        <g class="cls-25">
          <path class="cls-2" d="m238.66,95.21h42.14v-.92h-42.14v.92Z"/>
        </g>
      </g>
    </g>
    <path class="cls-2" d="m268.31,94.38h-.84l-4.27,13.51h.84l4.27-13.51Z"/>
    <path class="cls-2" d="m271.45,104.95v.4c2.86,0,2.86-.05,3.41-.05s.55.05,3.5.05v-1.3c-1.76.08-2.46.02-5.29.08l2.78-2.95c1.48-1.58,1.94-2.42,1.94-3.56,0-1.76-1.19-2.85-3.14-2.85-1.1,0-1.85.31-2.6,1.07l-.26,2.08h.44l.2-.7c.24-.89.8-1.27,1.82-1.27,1.32,0,2.16.83,2.16,2.13,0,1.15-.64,2.28-2.37,4.12l-2.6,2.77Z"/>
  </g>
  <g>
    <g>
      <path class="cls-11" d="m346.49,101.41l2.17-2.54c.09-.11.26-.17.52-.17h.21v-.43h-1.25l-1.9,2.68-1.16-1.77c-.23-.34-.4-.54-.92-1.06l-1.77.31.08.4.32.03c.28.02.61.23.77.44l1.84,2.66-2.28,2.69c-.11.14-.31.23-.46.23h-.26v.41h1.32l2.05-2.94,2.03,2.98q.8-.05.93-.05t.95.05v-.46l-.38-.05c-.18-.02-.37-.14-.54-.37l-2.26-3.06Z"/>
      <g class="cls-36">
        <g class="cls-32">
          <path class="cls-2" d="m328.66,95.21h42.14v-.92h-42.14v.92Z"/>
        </g>
      </g>
    </g>
    <path class="cls-2" d="m358.31,94.38h-.84l-4.27,13.51h.84l4.27-13.51Z"/>
    <path class="cls-2" d="m365.49,102.53v1.15c0,.92-.17,1.13-.92,1.16l-.95.05v.46q2.03-.05,2.4-.05t2.4.05v-.46l-.73-.05c-.75-.05-.92-.24-.92-1.16v-1.15c.9,0,1.22.02,1.65.06v-1.09l-1.65.05.02-6.92-1.22.46-4.33,7.08v.35h4.25Zm0-.98h-3.29l3.29-5.39v5.39Z"/>
  </g>
  <path class="cls-2" d="m441.74,74h1.12l1.14-3.06h4.35l1.15,3.06h1.38l-3.9-10.41h-1.33l-3.91,10.41Zm2.58-3.9c1.18-3.24,1.74-4.9,1.86-5.46.09.55.49,1.68,1.86,5.46h-3.72Zm6.81-2.77l2.58,6.67h1.32l2.58-6.67h-1.11c-1.45,3.78-2.01,5.32-2.1,5.92-.07-.46-.16-.7-.72-2.26l-1.39-3.66h-1.15Zm7.11,7.74c0,1.15,1.48,2.02,3.33,2.02s3.33-.87,3.33-2.04c0-.18-.03-.37-.07-.55-.42-1.5-2.25-1.53-3.24-1.53h-1.12c-.72,0-.84-.51-.84-.79,0-.1.01-.25.16-.55.33.21.7.45,1.36.45,1.39,0,2.4-1.17,2.4-2.44,0-.64-.19-1.08-.58-1.6l.13.12c.27-.01.73-.06,1.12-.06.3,0,.58.01.88.04l-.16-.94c-.81,0-1.6.15-2.35.46l.03.03c-.49-.34-.91-.49-1.47-.49-1.23,0-2.38.99-2.38,2.44,0,.3.04.9.49,1.48h0c-.27.37-.43.78-.43,1.27s.13.79.37,1.14c-.58.34-.96.93-.96,1.54Zm1.05,0c0-.43.33-.94.94-1h.43s.94-.01.94-.01c1.62,0,2.23.42,2.23,1.03,0,.69-1.08,1.15-2.29,1.15-.82,0-2.26-.33-2.26-1.17Zm.52-5.44c0-1.27.79-1.59,1.33-1.59.81,0,1.35.6,1.35,1.57,0,1.27-.79,1.59-1.33,1.59-.81,0-1.35-.6-1.35-1.57Zm6.94,4.38h1.35v-4.33h1.75c.16,0,.33.01.49.01,2.55,0,3.7-1.69,3.7-3.07,0-.97-.54-1.86-1.45-2.43-.76-.48-1.5-.58-2.31-.58h-3.54v10.41Zm1.3-5.2v-4.36h1.99c2.32,0,2.79,1.41,2.79,2.17,0,.87-.57,2.19-2.79,2.19h-1.99Zm6.88,1.89c0,2.04,1.57,3.48,3.28,3.48s3.3-1.42,3.3-3.46c0-1.87-1.38-3.61-3.3-3.61-1.77,0-3.28,1.56-3.28,3.6Zm1.17-.15c0-1.81,1.15-2.52,2.11-2.52s2.11.69,2.11,2.52-1.11,2.67-2.11,2.67-2.11-.78-2.11-2.67Zm6.75.15c0,2.04,1.57,3.48,3.28,3.48s3.3-1.42,3.3-3.46c0-1.87-1.38-3.61-3.3-3.61-1.77,0-3.28,1.56-3.28,3.6Zm1.17-.15c0-1.81,1.15-2.52,2.11-2.52s2.11.69,2.11,2.52-1.11,2.67-2.11,2.67-2.11-.78-2.11-2.67Zm7.09,3.46h1.12v-10.83h-1.12v10.83Z"/>
  <path class="cls-2" d="m643.73,136.35v-.46l-.8-.05c-.84-.05-.99-.21-.99-1.01v-9.24l-3.69,1.56.11.77,2.3-1.01v7.93c0,.8-.17.96-.99,1.01l-.86.05v.46q2.36-.05,2.52-.05c.47,0,2.16.05,2.4.05Zm5.26-10.59c-2.37,0-3.58,1.88-3.58,5.58,0,1.79.32,3.34.86,4.09s1.39,1.18,2.34,1.18c2.31,0,3.47-1.99,3.47-5.91,0-3.35-.99-4.94-3.09-4.94Zm-.28.54c1.48,0,2.08,1.5,2.08,5.17,0,3.26-.58,4.61-1.99,4.61-1.48,0-2.11-1.55-2.11-5.28,0-3.23.57-4.5,2.02-4.5Z"/>
  <path class="cls-2" d="m644.93,145.25l-.18-.17c-.8.4-1.35.54-2.45.64l-.06.32h.73c.37,0,.52.11.52.37,0,.11-.02.28-.03.37l-1.55,8.43s-.02.11-.02.15c0,.6.73,1.1,1.58,1.1.57,0,1.35-.29,2-.77,1.47-1.04,2.48-3.14,2.48-5.16,0-.58-.14-1.18-.32-1.41-.11-.14-.31-.21-.54-.21-.37,0-.83.12-1.25.34-.78.41-1.29.87-2.23,2.08l1.32-6.09Zm1.33,4.56c.4,0,.6.35.6,1.1,0,.98-.32,2.3-.78,3.29-.5,1.06-1.12,1.55-1.94,1.55-.7,0-1.09-.35-1.09-.99,0-.52.23-2.68,1.47-3.98.5-.52,1.3-.96,1.74-.96Z"/>
  <g>
    <path class="cls-11" d="m16.49,10.41l2.17-2.54c.09-.11.26-.17.52-.17h.21v-.43h-1.25l-1.9,2.68-1.16-1.77c-.23-.34-.4-.54-.92-1.06l-1.77.31.08.4.32.03c.28.02.61.23.77.44l1.84,2.66-2.28,2.69c-.11.14-.31.23-.46.23h-.26v.41h1.32l2.05-2.94,2.03,2.98q.8-.05.93-.05t.95.05v-.46l-.38-.05c-.18-.02-.37-.14-.54-.37l-2.26-3.06Z"/>
    <g class="cls-39">
      <g class="cls-9">
        <path class="cls-2" d="m-1.34,4.21h42.14v-.92H-1.34v.92Z"/>
      </g>
    </g>
  </g>
  <path class="cls-2" d="m18.4,31.87c0-1.85-1.64-2.17-2.36-2.3,1.22-.95,1.68-1.65,1.68-2.56,0-1.36-1.13-2.26-2.83-2.26-1.04,0-1.73.29-2.46,1.03l-.44,1.9h.47l.28-.86c.17-.52,1.13-1.04,1.93-1.04.99,0,1.81.81,1.81,1.77,0,1.15-.9,2.11-1.99,2.11-.12,0-.29-.02-.49-.03l-.23-.02-.18.81.11.09c.58-.26.87-.34,1.29-.34,1.27,0,2,.81,2,2.2,0,1.56-.93,2.59-2.36,2.59-.7,0-1.33-.23-1.79-.66-.37-.34-.57-.69-.86-1.51l-.41.15c.32.93.44,1.48.54,2.25.81.28,1.48.4,2.05.4,1.88,0,4.25-1.64,4.25-3.73Z"/>
  <path class="cls-2" d="m15.93,45.25l-.18-.17c-.8.4-1.35.54-2.45.64l-.06.32h.73c.37,0,.52.11.52.37,0,.11-.02.28-.03.37l-1.55,8.43s-.02.11-.02.15c0,.6.73,1.1,1.58,1.1.57,0,1.35-.29,2-.77,1.47-1.04,2.48-3.14,2.48-5.16,0-.58-.14-1.18-.32-1.41-.11-.14-.31-.21-.54-.21-.37,0-.83.12-1.25.34-.78.41-1.29.87-2.23,2.08l1.32-6.09Zm1.33,4.56c.4,0,.6.35.6,1.1,0,.98-.32,2.3-.78,3.29-.5,1.06-1.12,1.55-1.94,1.55-.7,0-1.09-.35-1.09-.99,0-.52.23-2.68,1.47-3.98.5-.52,1.3-.96,1.74-.96Z"/>
  <path class="cls-2" d="m257.73,36.35v-.46l-.8-.05c-.84-.05-.99-.21-.99-1.01v-9.24l-3.69,1.56.11.77,2.3-1.01v7.93c0,.8-.17.96-.99,1.01l-.86.05v.46q2.36-.05,2.52-.05c.47,0,2.16.05,2.4.05Zm5.26-10.59c-2.37,0-3.58,1.88-3.58,5.58,0,1.79.32,3.34.86,4.09.54.75,1.39,1.18,2.34,1.18,2.31,0,3.47-1.99,3.47-5.91,0-3.35-.99-4.94-3.09-4.94Zm-.28.54c1.48,0,2.08,1.5,2.08,5.17,0,3.26-.58,4.61-1.99,4.61-1.48,0-2.11-1.55-2.11-5.28,0-3.23.57-4.5,2.02-4.5Z"/>
  <path class="cls-2" d="m255.93,45.25l-.18-.17c-.8.4-1.35.54-2.45.64l-.06.32h.73c.37,0,.52.11.52.37,0,.11-.02.28-.03.37l-1.55,8.43s-.02.11-.02.15c0,.6.73,1.1,1.58,1.1.57,0,1.35-.29,2-.77,1.47-1.04,2.48-3.14,2.48-5.16,0-.58-.14-1.18-.32-1.41-.11-.14-.31-.21-.54-.21-.37,0-.83.12-1.25.34-.78.41-1.29.87-2.23,2.08l1.32-6.09Zm1.33,4.56c.4,0,.6.35.6,1.1,0,.98-.32,2.3-.78,3.29-.5,1.06-1.12,1.55-1.94,1.55-.7,0-1.09-.35-1.09-.99,0-.52.23-2.68,1.47-3.98.5-.52,1.3-.96,1.74-.96Z"/>
  <path class="cls-2" d="m308.46,45.99v-1.44h-13.19v1.44h13.19Zm0,5.21v-1.44h-13.19v1.44h13.19Z"/>
  <path class="cls-2" d="m485.06,125.4c0-1.1.12-2.37.33-3.35h-.71c-.14,1.22-.41,2.12-.71,2.28-.37.2-2.45.27-4.12.27-.57,0-1.14-.02-1.71-.16v-5.71c.63-.04,1.39-.04,2.37-.04,2.26,0,2.28.14,2.33.73l.1,1.2h.61c-.02-.71-.06-1.51-.06-2.26s.04-1.53.06-2.37h-.61l-.1,1.06c-.02.27-.06.45-.16.53-.22.14-.94.22-2.16.22-.98,0-1.71-.02-2.37-.06v-5.45c.57-.14,1.14-.14,1.71-.14,1.31,0,2.92,0,4,.41.16.06.18.29.18.55v1.33h.71c0-1.04.1-2.2.33-3.1-.8-.04-1.71-.06-2.63-.06-1.16,0-3.04.06-4.81.06h-3.45c-.84,0-1.71-.04-2.39-.06v.61l.9.06c.84.06,1.04.22,1.04,1.84v9.16c0,1.61-.2,1.82-1.04,1.86l-.9.04v.61c.73-.02,1.73-.04,2.63-.06h2.18c4.22,0,2.28.14,8.47,0Zm-9.75-.63c-.55-.06-.65-.33-.65-1.82v-9.16c0-1.51.1-1.82.65-1.82.78,0,.88.29.88,1.82v9.16c0,1.55-.08,1.73-.88,1.82Z"/>
  <g>
    <path class="cls-2" d="m348.02,54.45c.53-.11,1.37-.2,2.23-.2,1.22,0,2,.21,2.59.69.49.36.79.92.79,1.67,0,.91-.6,1.71-1.6,2.07v.03c.9.22,1.95.97,1.95,2.37,0,.81-.32,1.43-.8,1.89-.66.6-1.72.88-3.26.88-.84,0-1.49-.06-1.89-.11v-9.29Zm1.22,3.87h1.11c1.29,0,2.04-.67,2.04-1.58,0-1.11-.84-1.54-2.07-1.54-.56,0-.88.04-1.08.08v3.04Zm0,4.52c.24.04.59.06,1.02.06,1.26,0,2.42-.46,2.42-1.83,0-1.29-1.11-1.82-2.44-1.82h-1.01v3.6Z"/>
    <path class="cls-2" d="m359.32,63.76l-.1-.85h-.04c-.38.53-1.11,1.01-2.07,1.01-1.37,0-2.07-.97-2.07-1.95,0-1.64,1.46-2.54,4.08-2.52v-.14c0-.56-.15-1.57-1.54-1.57-.63,0-1.29.2-1.76.5l-.28-.81c.56-.36,1.37-.6,2.23-.6,2.07,0,2.58,1.42,2.58,2.77v2.54c0,.59.03,1.16.11,1.62h-1.12Zm-.18-3.46c-1.34-.03-2.87.21-2.87,1.53,0,.8.53,1.18,1.16,1.18.88,0,1.44-.56,1.64-1.13.04-.13.07-.27.07-.39v-1.18Z"/>
    <path class="cls-2" d="m363.75,55.04v1.95h1.76v.94h-1.76v3.66c0,.84.24,1.32.92,1.32.32,0,.56-.04.71-.08l.06.92c-.24.1-.62.17-1.09.17-.57,0-1.04-.18-1.33-.52-.35-.36-.48-.97-.48-1.77v-3.7h-1.05v-.94h1.05v-1.62l1.21-.32Z"/>
    <path class="cls-2" d="m371.64,63.51c-.32.17-1.04.39-1.95.39-2.04,0-3.38-1.39-3.38-3.46s1.43-3.6,3.64-3.6c.73,0,1.37.18,1.71.35l-.28.95c-.29-.17-.76-.32-1.43-.32-1.55,0-2.39,1.15-2.39,2.56,0,1.57,1.01,2.54,2.35,2.54.7,0,1.16-.18,1.51-.34l.21.92Z"/>
    <path class="cls-2" d="m373.08,53.82h1.23v4.23h.03c.2-.35.5-.66.88-.87.36-.21.8-.35,1.26-.35.91,0,2.37.56,2.37,2.9v4.03h-1.23v-3.89c0-1.09-.41-2.02-1.57-2.02-.8,0-1.43.56-1.65,1.23-.07.17-.08.35-.08.59v4.09h-1.23v-9.95Z"/>
    <path class="cls-2" d="m380.89,63.76v-9.44h1.33l3.03,4.78c.7,1.11,1.25,2.1,1.7,3.07h.03c-.11-1.27-.14-2.42-.14-3.89v-3.95h1.15v9.44h-1.23l-3-4.79c-.66-1.05-1.29-2.13-1.76-3.15h-.04c.07,1.21.1,2.34.1,3.91v4.03h-1.15Z"/>
    <path class="cls-2" d="m396.2,60.32c0,2.51-1.74,3.6-3.38,3.6-1.83,0-3.25-1.34-3.25-3.49,0-2.27,1.48-3.6,3.36-3.6s3.26,1.42,3.26,3.49Zm-5.38.07c0,1.49.85,2.61,2.06,2.61s2.06-1.11,2.06-2.63c0-1.15-.57-2.6-2.03-2.6s-2.09,1.34-2.09,2.63Z"/>
    <path class="cls-2" d="m397.75,59.1c0-.8-.01-1.49-.06-2.12h1.08l.04,1.33h.06c.31-.91,1.05-1.48,1.88-1.48.14,0,.24.01.35.04v1.16c-.13-.03-.25-.04-.42-.04-.87,0-1.48.66-1.65,1.58-.03.17-.06.36-.06.57v3.61h-1.22v-4.66Z"/>
    <path class="cls-2" d="m402.38,58.82c0-.7-.01-1.28-.06-1.83h1.08l.06,1.09h.04c.38-.64,1.01-1.25,2.13-1.25.92,0,1.62.56,1.92,1.36h.03c.21-.38.48-.67.76-.88.41-.31.85-.48,1.5-.48.9,0,2.23.59,2.23,2.94v3.99h-1.21v-3.84c0-1.3-.48-2.09-1.47-2.09-.7,0-1.25.52-1.46,1.12-.06.17-.1.39-.1.62v4.19h-1.21v-4.06c0-1.08-.48-1.86-1.41-1.86-.77,0-1.33.62-1.53,1.23-.07.18-.1.39-.1.6v4.09h-1.21v-4.94Z"/>
    <path class="cls-2" d="m357.41,80.56c-.27-.27-.52-.53-.88-.92-.81.76-1.72,1.08-2.76,1.08-1.83,0-2.9-1.23-2.9-2.65,0-1.29.77-2.17,1.85-2.76v-.04c-.49-.62-.78-1.3-.78-1.97,0-1.15.83-2.33,2.4-2.33,1.18,0,2.09.78,2.09,2,0,.99-.57,1.78-2.07,2.52v.04c.8.92,1.69,1.96,2.3,2.63.43-.66.73-1.57.91-2.76h1.12c-.25,1.49-.66,2.66-1.36,3.49.5.53.99,1.06,1.55,1.67h-1.46Zm-1.48-1.62c-.56-.62-1.61-1.76-2.66-2.97-.5.32-1.22.92-1.22,1.92,0,1.08.8,1.91,1.93,1.91.81,0,1.5-.36,1.95-.85Zm-2.87-5.76c0,.67.31,1.19.71,1.69.95-.55,1.57-1.05,1.57-1.85,0-.57-.32-1.22-1.09-1.22s-1.19.64-1.19,1.37Z"/>
    <path class="cls-2" d="m364.46,77.59l-.98,2.97h-1.26l3.21-9.44h1.47l3.22,9.44h-1.3l-1.01-2.97h-3.35Zm3.1-.95l-.92-2.72c-.21-.62-.35-1.18-.49-1.72h-.03c-.14.56-.29,1.13-.48,1.71l-.92,2.73h2.84Z"/>
    <path class="cls-2" d="m376.12,80.31c-.32.17-1.04.39-1.95.39-2.04,0-3.38-1.39-3.38-3.46s1.43-3.6,3.64-3.6c.73,0,1.37.18,1.71.35l-.28.95c-.29-.17-.76-.32-1.43-.32-1.55,0-2.39,1.15-2.39,2.56,0,1.57,1.01,2.54,2.35,2.54.7,0,1.16-.18,1.51-.34l.21.92Z"/>
    <path class="cls-2" d="m379.23,71.83v1.95h1.76v.94h-1.76v3.66c0,.84.24,1.32.92,1.32.32,0,.56-.04.71-.08l.06.92c-.24.1-.62.17-1.09.17-.57,0-1.04-.18-1.33-.52-.35-.36-.48-.97-.48-1.77v-3.7h-1.05v-.94h1.05v-1.62l1.21-.32Z"/>
    <path class="cls-2" d="m383.75,71.88c.01.42-.29.76-.78.76-.43,0-.74-.34-.74-.76s.32-.77.77-.77.76.34.76.77Zm-1.37,8.68v-6.78h1.23v6.78h-1.23Z"/>
    <path class="cls-2" d="m386.13,73.78l1.33,3.81c.22.62.41,1.18.55,1.74h.04c.15-.56.35-1.12.57-1.74l1.32-3.81h1.29l-2.66,6.78h-1.18l-2.58-6.78h1.32Z"/>
    <path class="cls-2" d="m396.09,80.56l-.1-.85h-.04c-.38.53-1.11,1.01-2.07,1.01-1.37,0-2.07-.97-2.07-1.95,0-1.64,1.46-2.54,4.08-2.52v-.14c0-.56-.15-1.57-1.54-1.57-.63,0-1.29.2-1.76.5l-.28-.81c.56-.36,1.37-.6,2.23-.6,2.07,0,2.58,1.42,2.58,2.77v2.54c0,.59.03,1.16.11,1.62h-1.12Zm-.18-3.46c-1.34-.03-2.87.21-2.87,1.53,0,.8.53,1.18,1.16,1.18.88,0,1.44-.56,1.64-1.13.04-.13.07-.27.07-.39v-1.18Z"/>
    <path class="cls-2" d="m400.51,71.83v1.95h1.76v.94h-1.76v3.66c0,.84.24,1.32.92,1.32.32,0,.56-.04.71-.08l.06.92c-.24.1-.62.17-1.09.17-.57,0-1.04-.18-1.33-.52-.35-.36-.48-.97-.48-1.77v-3.7h-1.05v-.94h1.05v-1.62l1.21-.32Z"/>
    <path class="cls-2" d="m404.26,77.4c.03,1.67,1.09,2.35,2.33,2.35.88,0,1.42-.15,1.88-.35l.21.88c-.43.2-1.18.42-2.25.42-2.09,0-3.33-1.37-3.33-3.42s1.21-3.66,3.18-3.66c2.21,0,2.8,1.95,2.8,3.19,0,.25-.03.45-.04.57h-4.76Zm3.61-.88c.01-.79-.32-2-1.71-2-1.25,0-1.79,1.15-1.89,2h3.6Z"/>
  </g>
</svg>