<?xml version="1.0" encoding="UTF-8"?>
<svg xmlns="http://www.w3.org/2000/svg" xmlns:xlink="http://www.w3.org/1999/xlink" viewBox="0 0 545 135">
  <defs>
    <style>
      .cls-1 {
        stroke-width: 3px;
      }

      .cls-1, .cls-2, .cls-3, .cls-4, .cls-5 {
        fill: none;
      }

      .cls-1, .cls-6, .cls-5 {
        stroke: #000;
      }

      .cls-7 {
        fill: #fff591;
      }

      .cls-7, .cls-8, .cls-9, .cls-2, .cls-10, .cls-11, .cls-12, .cls-13 {
        stroke-width: 0px;
      }

      .cls-8, .cls-6 {
        fill: #1346fe;
      }

      .cls-14 {
        filter: url(#drop-shadow-65);
      }

      .cls-15 {
        filter: url(#drop-shadow-1);
      }

      .cls-10 {
        fill: #f3f3f4;
      }

      .cls-11 {
        fill: #e28ff1;
      }

      .cls-12 {
        fill: #9dc7ff;
      }

      .cls-13 {
        fill: #fff;
      }

      .cls-16 {
        filter: url(#drop-shadow-68);
      }

      .cls-17 {
        filter: url(#drop-shadow-2);
      }

      .cls-18 {
        filter: url(#drop-shadow-70);
      }

      .cls-19 {
        filter: url(#drop-shadow-66);
      }

      .cls-20 {
        filter: url(#drop-shadow-69);
      }

      .cls-3 {
        stroke-miterlimit: 4;
        stroke-width: 2px;
      }

      .cls-3, .cls-4 {
        stroke: #1346fe;
      }

      .cls-4 {
        stroke-width: 2px;
      }

      .cls-21 {
        filter: url(#drop-shadow-71);
      }

      .cls-22 {
        filter: url(#drop-shadow-67);
      }
    </style>
    <filter id="drop-shadow-1" filterUnits="userSpaceOnUse">
      <feOffset dx="0" dy="0"/>
      <feGaussianBlur result="blur" stdDeviation="3"/>
      <feFlood flood-color="#000" flood-opacity="1"/>
      <feComposite in2="blur" operator="in"/>
      <feComposite in="SourceGraphic"/>
    </filter>
    <filter id="drop-shadow-2" filterUnits="userSpaceOnUse">
      <feOffset dx="0" dy="0"/>
      <feGaussianBlur result="blur-2" stdDeviation="3"/>
      <feFlood flood-color="#000" flood-opacity="1"/>
      <feComposite in2="blur-2" operator="in"/>
      <feComposite in="SourceGraphic"/>
    </filter>
    <filter id="drop-shadow-65" filterUnits="userSpaceOnUse">
      <feOffset dx="0" dy="0"/>
      <feGaussianBlur result="blur-3" stdDeviation="3"/>
      <feFlood flood-color="#000" flood-opacity="1"/>
      <feComposite in2="blur-3" operator="in"/>
      <feComposite in="SourceGraphic"/>
    </filter>
    <filter id="drop-shadow-66" filterUnits="userSpaceOnUse">
      <feOffset dx="0" dy="0"/>
      <feGaussianBlur result="blur-4" stdDeviation="3"/>
      <feFlood flood-color="#000" flood-opacity="1"/>
      <feComposite in2="blur-4" operator="in"/>
      <feComposite in="SourceGraphic"/>
    </filter>
    <filter id="drop-shadow-67" filterUnits="userSpaceOnUse">
      <feOffset dx="0" dy="0"/>
      <feGaussianBlur result="blur-5" stdDeviation="3"/>
      <feFlood flood-color="#000" flood-opacity="1"/>
      <feComposite in2="blur-5" operator="in"/>
      <feComposite in="SourceGraphic"/>
    </filter>
    <filter id="drop-shadow-68" filterUnits="userSpaceOnUse">
      <feOffset dx="0" dy="0"/>
      <feGaussianBlur result="blur-6" stdDeviation="3"/>
      <feFlood flood-color="#000" flood-opacity="1"/>
      <feComposite in2="blur-6" operator="in"/>
      <feComposite in="SourceGraphic"/>
    </filter>
    <filter id="drop-shadow-69" filterUnits="userSpaceOnUse">
      <feOffset dx="0" dy="0"/>
      <feGaussianBlur result="blur-7" stdDeviation="3"/>
      <feFlood flood-color="#000" flood-opacity="1"/>
      <feComposite in2="blur-7" operator="in"/>
      <feComposite in="SourceGraphic"/>
    </filter>
    <filter id="drop-shadow-70" filterUnits="userSpaceOnUse">
      <feOffset dx="0" dy="0"/>
      <feGaussianBlur result="blur-8" stdDeviation="3"/>
      <feFlood flood-color="#000" flood-opacity="1"/>
      <feComposite in2="blur-8" operator="in"/>
      <feComposite in="SourceGraphic"/>
    </filter>
    <filter id="drop-shadow-71" filterUnits="userSpaceOnUse">
      <feOffset dx="0" dy="0"/>
      <feGaussianBlur result="blur-9" stdDeviation="3"/>
      <feFlood flood-color="#000" flood-opacity="1"/>
      <feComposite in2="blur-9" operator="in"/>
      <feComposite in="SourceGraphic"/>
    </filter>
  </defs>
  <g id="Layer_1" data-name="Layer 1">
    <g class="cls-15">
      <polygon class="cls-12" points="260 40 260 120 210 120 210 40 260 40"/>
    </g>
    <g class="cls-17">
      <polygon class="cls-6" points="245 60 255 72.5 245 85 220 85 220 60 245 60"/>
    </g>
    <g class="cls-14">
      <polygon class="cls-7" points="540 25 5 25 5 5 540 5 540 25"/>
    </g>
    <g class="cls-19">
      <path class="cls-11" d="m175,45h30v70h-30V45Z"/>
    </g>
    <g class="cls-22">
      <path class="cls-11" d="m265,80h35v35h-35v-35Z"/>
    </g>
    <g class="cls-16">
      <path class="cls-8" d="m325,85h60v20h-60v-20Z"/>
    </g>
    <g class="cls-20">
      <path class="cls-10" d="m85,45h60v80h-60V45Z"/>
    </g>
    <g class="cls-18">
      <path class="cls-8" d="m85,85h60v20h-60v-20Z"/>
    </g>
    <g class="cls-21">
      <path class="cls-4" d="m151.17,104.06c9.96,12.42,47.04,20.35,84.78,20.35,1.3,0,2.61-.01,3.92-.03,30.19-.45,60.43-6.11,72.55-15.81m-163.59-2.63c10.23,12.76,48.1,21.47,87.12,21.47,1.32,0,2.64-.01,3.96-.03,30.93-.46,61.82-6.43,74.52-16.53"/>
      <path class="cls-3" d="m311.89,117.43c2.37-5.22,5.07-9.36,8.11-12.43-3.54,2.47-8.08,4.43-13.62,5.89"/>
    </g>
  </g>
  <g id="Layer_4" data-name="Layer 4">
    <path class="cls-13" d="m227.33,79.93v.53c3.81,0,3.81-.06,4.55-.06s.73.06,4.67.06v-1.73c-2.35.1-3.28.02-7.06.1l3.71-3.94c1.98-2.1,2.59-3.22,2.59-4.75,0-2.35-1.59-3.79-4.18-3.79-1.47,0-2.47.41-3.47,1.43l-.35,2.77h.59l.27-.94c.33-1.18,1.06-1.69,2.43-1.69,1.75,0,2.88,1.1,2.88,2.84,0,1.53-.86,3.04-3.16,5.49l-3.47,3.69Z"/>
    <path class="cls-9" d="m190.26,68.92v1.28c0,1.02-.19,1.26-1.02,1.29l-1.05.05v.51q2.26-.05,2.67-.05t2.67.05v-.51l-.82-.05c-.83-.05-1.02-.27-1.02-1.29v-1.28c1,0,1.36.02,1.84.07v-1.21l-1.84.05.02-7.68-1.36.51-4.81,7.87v.39h4.73Zm0-1.09h-3.66l3.66-5.98v5.98Z"/>
    <path class="cls-9" d="m193.35,98.19c0-2.06-1.82-2.41-2.62-2.55,1.36-1.05,1.87-1.84,1.87-2.84,0-1.51-1.26-2.52-3.15-2.52-1.16,0-1.92.32-2.74,1.14l-.49,2.11h.53l.31-.95c.19-.58,1.26-1.16,2.14-1.16,1.11,0,2.01.9,2.01,1.97,0,1.28-1,2.35-2.21,2.35-.14,0-.32-.02-.54-.03l-.26-.02-.2.9.12.1c.65-.29.97-.37,1.43-.37,1.41,0,2.23.9,2.23,2.45,0,1.73-1.04,2.87-2.62,2.87-.78,0-1.48-.26-1.99-.73-.41-.37-.63-.77-.95-1.68l-.46.17c.36,1.04.49,1.65.6,2.5.9.31,1.65.44,2.28.44,2.09,0,4.73-1.82,4.73-4.15Z"/>
    <path class="cls-9" d="m355.85,78.19c0-2.06-1.82-2.41-2.62-2.55,1.36-1.05,1.87-1.84,1.87-2.84,0-1.51-1.26-2.52-3.15-2.52-1.16,0-1.92.32-2.74,1.14l-.49,2.11h.53l.31-.95c.19-.58,1.26-1.16,2.14-1.16,1.11,0,2.01.9,2.01,1.97,0,1.28-1,2.35-2.21,2.35-.14,0-.32-.02-.54-.03l-.26-.02-.2.9.12.1c.65-.29.97-.37,1.43-.37,1.41,0,2.23.9,2.23,2.45,0,1.73-1.04,2.87-2.62,2.87-.78,0-1.48-.26-1.99-.73-.41-.37-.63-.77-.95-1.68l-.46.17c.36,1.04.49,1.65.6,2.5.9.31,1.65.44,2.28.44,2.09,0,4.73-1.82,4.73-4.15Z"/>
    <path class="cls-9" d="m118.35,37.69c0-2.06-1.82-2.41-2.62-2.55,1.36-1.05,1.87-1.84,1.87-2.84,0-1.51-1.26-2.52-3.15-2.52-1.16,0-1.92.32-2.74,1.14l-.49,2.11h.53l.31-.95c.19-.58,1.26-1.16,2.14-1.16,1.11,0,2.01.9,2.01,1.97,0,1.28-1,2.35-2.21,2.35-.14,0-.32-.02-.54-.03l-.26-.02-.2.9.12.1c.65-.29.97-.37,1.43-.37,1.41,0,2.23.9,2.23,2.45,0,1.73-1.04,2.87-2.62,2.87-.78,0-1.48-.26-1.99-.73-.41-.37-.63-.77-.95-1.68l-.46.17c.36,1.04.49,1.65.6,2.5.9.31,1.65.44,2.28.44,2.09,0,4.73-1.82,4.73-4.15Z"/>
    <path class="cls-9" d="m76.76,83.92v1.28c0,1.02-.19,1.26-1.02,1.29l-1.05.05v.51q2.26-.05,2.67-.05t2.67.05v-.51l-.82-.05c-.83-.05-1.02-.27-1.02-1.29v-1.28c1,0,1.36.02,1.84.07v-1.21l-1.84.05.02-7.68-1.36.51-4.81,7.87v.39h4.73Zm0-1.09h-3.66l3.66-5.98v5.98Z"/>
    <g>
      <path class="cls-9" d="m8.19,10.13l2.75,9.37h1.08l1.51-5.24s.74-2.59.8-3.19q.11.7.85,3.44l1.44,4.98h1.17l2.74-9.37h-.97l-1.58,5.47c-.04.15-.68,2.36-.72,2.96l-.05-.35-.26-1.07-.39-1.46-1.59-5.55h-1.11l-1.55,5.45c-.24.89-.65,2.36-.7,2.97-.07-.59-.3-1.47-.69-2.93l-1.57-5.49h-1.17Zm12.64,6.32c0,1.67,1.17,3.2,2.94,3.2.85,0,1.55-.3,2.13-.69l-.08-.89c-.59.43-1.2.74-2.05.74-1.03,0-1.94-.89-2-2.28h4.19v-.39c-.12-2.31-1.44-2.86-2.4-2.86-1.43,0-2.73,1.36-2.73,3.17Zm1.01-.66c.15-.66.69-1.67,1.71-1.67.39,0,1.4.18,1.63,1.67h-3.35Zm9.48.66c0,1.67,1.17,3.2,2.94,3.2.85,0,1.55-.3,2.13-.69l-.08-.89c-.59.43-1.2.74-2.05.74-1.03,0-1.94-.89-2-2.28h4.19v-.39c-.12-2.31-1.44-2.86-2.4-2.86-1.43,0-2.73,1.36-2.73,3.17Zm1.01-.66c.15-.66.69-1.67,1.71-1.67.39,0,1.4.18,1.63,1.67h-3.35Zm4.52,3.71h1.12l1.94-2.54,2.03,2.54h1.12l-2.7-3.09h0s2.48-2.92,2.48-2.92h-1.12l-1.8,2.23h-.01l-1.86-2.23h-1.12l2.54,2.9v.03l-2.62,3.08Zm7.32,2.63h1.05v-3.25c.45.42,1.03.77,1.82.77,1.31,0,2.51-1.27,2.51-3.17,0-1.61-.85-3.12-2.13-3.12-.46,0-1.38.09-2.24.8v-.66h-1.01v8.64Zm1.05-4.33v-2.81c.08-.09.54-.77,1.43-.77,1.11,0,1.84,1.09,1.84,2.28,0,1.43-1.01,2.32-1.96,2.32-.8,0-1.31-.7-1.31-1.03Zm5.55,1.7h1.01v-2.78c0-1.97,1.5-2.43,2.3-2.46v-.9c-1.43.03-2.15.95-2.36,1.28v-1.22h-.95v6.08Zm3.98-3.05c0,1.67,1.17,3.2,2.94,3.2.85,0,1.55-.3,2.13-.69l-.08-.89c-.59.43-1.2.74-2.05.74-1.03,0-1.94-.89-2-2.28h4.19v-.39c-.12-2.31-1.44-2.86-2.4-2.86-1.43,0-2.73,1.36-2.73,3.17Zm1.01-.66c.15-.66.69-1.67,1.71-1.67.39,0,1.4.18,1.63,1.67h-3.35Zm4.89,3.25c1.01.55,1.84.61,2.3.61,1.81,0,2.2-1.12,2.2-1.86,0-.88-.62-1.44-1.17-1.69-.84-.38-2.28-.2-2.28-1.19,0-.34.2-.82,1.13-.82s1.4.24,1.94.5l.15-.89c-.74-.31-1.22-.42-1.97-.42-1.84,0-2.21,1.07-2.21,1.78,0,.95.81,1.47,1.4,1.66.42.14,1,.2,1.3.3.27.08.76.35.76.86,0,.36-.24.92-1.26.92-1.09,0-1.74-.46-2.12-.68l-.16.92Zm5.17,0c1.01.55,1.84.61,2.3.61,1.81,0,2.2-1.12,2.2-1.86,0-.88-.62-1.44-1.17-1.69-.84-.38-2.28-.2-2.28-1.19,0-.34.2-.82,1.13-.82s1.4.24,1.94.5l.15-.89c-.74-.31-1.22-.42-1.97-.42-1.84,0-2.21,1.07-2.21,1.78,0,.95.81,1.47,1.4,1.66.42.14,1,.2,1.3.3.27.08.76.35.76.86,0,.36-.24.92-1.26.92-1.09,0-1.74-.46-2.12-.68l-.16.92Zm9.67,0c1.01.55,1.84.61,2.3.61,1.81,0,2.2-1.12,2.2-1.86,0-.88-.62-1.44-1.17-1.69-.84-.38-2.28-.2-2.28-1.19,0-.34.2-.82,1.13-.82s1.4.24,1.94.5l.15-.89c-.74-.31-1.22-.42-1.97-.42-1.84,0-2.21,1.07-2.21,1.78,0,.95.81,1.47,1.4,1.66.42.14,1,.2,1.3.3.27.08.76.35.76.86,0,.36-.24.92-1.26.92-1.09,0-1.74-.46-2.12-.68l-.16.92Zm5.89-1.19c0,.7,0,1.8,1.42,1.8.74,0,1.66-.19,2.36-.8v.65h1.03v-6.01h-1.05v3.78c0,.14,0,.26-.01.39-.07.58-.59,1.23-1.61,1.23-.92,0-1.07-.3-1.08-.88v-4.52h-1.05v4.36Zm6.99,1.65h1.05v-.62c.46.42,1.01.77,1.81.77,1.34,0,2.52-1.31,2.52-3.17,0-1.62-.88-3.12-2.21-3.12-.42,0-1.3.09-2.16.78v-4.39h-1.01v9.75Zm1.05-1.8v-2.52c0-.5.74-1,1.44-1s1.82.51,1.82,2.31-1.16,2.34-1.93,2.34c-.39,0-.8-.16-1.11-.54-.18-.26-.23-.23-.23-.58Zm5.08-3.42h1.13v3.63c0,1.49.66,1.73,1.11,1.73.61,0,1.3-.14,2-.51l-.22-.8c-.19.14-.61.45-1.19.45-.7,0-.73-.8-.73-1.17v-3.32h1.9v-.8h-1.9v-1.7h-.95v1.7h-1.16v.8Zm5.09,2.16c0,1.67,1.17,3.2,2.94,3.2.85,0,1.55-.3,2.13-.69l-.08-.89c-.59.43-1.2.74-2.05.74-1.03,0-1.94-.89-2-2.28h4.19v-.39c-.12-2.31-1.44-2.86-2.4-2.86-1.43,0-2.73,1.36-2.73,3.17Zm1.01-.66c.15-.66.69-1.67,1.71-1.67.39,0,1.4.18,1.63,1.67h-3.35Zm5.6,3.71h1.05v-3.24c0-1,.34-2.08,1.38-2.08,1.32,0,1.32,1.01,1.32,1.53v3.79h1.05v-3.89c0-.95-.12-2.25-1.85-2.25-1.19,0-1.78.77-1.97,1.01v-.95h-.99v6.08Zm6.26-.46c1.01.55,1.84.61,2.3.61,1.81,0,2.2-1.12,2.2-1.86,0-.88-.62-1.44-1.17-1.69-.84-.38-2.28-.2-2.28-1.19,0-.34.2-.82,1.13-.82s1.4.24,1.94.5l.15-.89c-.74-.31-1.22-.42-1.97-.42-1.84,0-2.21,1.07-2.21,1.78,0,.95.81,1.47,1.4,1.66.42.14,1,.2,1.3.3.27.08.76.35.76.86,0,.36-.24.92-1.26.92-1.09,0-1.74-.46-2.12-.68l-.16.92Zm5.21-2.52c0,1.84,1.42,3.13,2.96,3.13s2.97-1.28,2.97-3.12c0-1.69-1.24-3.25-2.97-3.25-1.59,0-2.96,1.4-2.96,3.24Zm1.05-.14c0-1.63,1.04-2.27,1.9-2.27s1.9.62,1.9,2.27-1,2.4-1.9,2.4-1.9-.7-1.9-2.4Zm6.01,3.12h1.01v-2.78c0-1.97,1.5-2.43,2.3-2.46v-.9c-1.43.03-2.15.95-2.36,1.28v-1.22h-.95v6.08Zm8.48-3.05c0,1.67,1.17,3.2,2.94,3.2.85,0,1.55-.3,2.13-.69l-.08-.89c-.59.43-1.2.74-2.05.74-1.03,0-1.94-.89-2-2.28h4.19v-.39c-.12-2.31-1.44-2.86-2.4-2.86-1.43,0-2.73,1.36-2.73,3.17Zm1.01-.66c.15-.66.69-1.67,1.71-1.67.39,0,1.4.18,1.63,1.67h-3.35Zm4.52,3.71h1.12l1.94-2.54,2.03,2.54h1.12l-2.7-3.09h0s2.48-2.92,2.48-2.92h-1.12l-1.8,2.23h-.01l-1.86-2.23h-1.12l2.54,2.9v.03l-2.62,3.08Zm6.47-5.21h1.13v3.63c0,1.49.66,1.73,1.11,1.73.61,0,1.3-.14,2-.51l-.22-.8c-.19.14-.61.45-1.19.45-.7,0-.73-.8-.73-1.17v-3.32h1.9v-.8h-1.9v-1.7h-.95v1.7h-1.16v.8Zm5.72,5.21h1.01v-2.78c0-1.97,1.5-2.43,2.3-2.46v-.9c-1.43.03-2.15.95-2.36,1.28v-1.22h-.95v6.08Zm4.12-1.53c0,.62.41,1.67,1.54,1.67,1.49,0,2.23-.61,2.24-.62v.47h1.03v-4.12c-.07-1.13-.96-2.11-2.24-2.11-.85,0-1.47.22-2.12.59l.08.9c.45-.31,1.01-.69,2.03-.69.18,0,.53.01.85.41.34.41.34.86.35,1.24v.46c-1.39.01-3.75.35-3.75,1.78Zm.99-.01c0-.85,1.8-1.05,2.77-1.07v.85c0,.88-.93,1.07-1.51,1.07-.73,0-1.26-.36-1.26-.85Zm5.37-1.47c0,1.73,1.27,3.16,2.93,3.16.93,0,1.59-.3,2.2-.69l-.07-.9c-.43.3-1.07.73-2.12.73-1.13,0-1.89-.99-1.89-2.3,0-1.17.59-2.35,1.9-2.35,1.07,0,1.42.28,1.94.62l.16-.89c-.82-.47-1.26-.59-2.09-.59-1.89,0-2.97,1.65-2.97,3.21Zm5.76-2.2h1.13v3.63c0,1.49.66,1.73,1.11,1.73.61,0,1.3-.14,2-.51l-.22-.8c-.19.14-.61.45-1.19.45-.7,0-.73-.8-.73-1.17v-3.32h1.9v-.8h-1.9v-1.7h-.95v1.7h-1.16v.8Zm5.72,5.21h1.01v-6.01h-1.01v6.01Zm-.09-7.97h1.22v-1.2h-1.22v1.2Zm2.63,4.98c0,1.84,1.42,3.13,2.96,3.13s2.97-1.28,2.97-3.12c0-1.69-1.24-3.25-2.97-3.25-1.59,0-2.96,1.4-2.96,3.24Zm1.05-.14c0-1.63,1.04-2.27,1.9-2.27s1.9.62,1.9,2.27-1,2.4-1.9,2.4-1.9-.7-1.9-2.4Zm6.37,3.12h1.05v-3.24c0-1,.34-2.08,1.38-2.08,1.32,0,1.32,1.01,1.32,1.53v3.79h1.05v-3.89c0-.95-.12-2.25-1.85-2.25-1.19,0-1.78.77-1.97,1.01v-.95h-.99v6.08Zm6.26-.46c1.01.55,1.84.61,2.3.61,1.81,0,2.2-1.12,2.2-1.86,0-.88-.62-1.44-1.17-1.69-.84-.38-2.28-.2-2.28-1.19,0-.34.2-.82,1.13-.82s1.4.24,1.94.5l.15-.89c-.74-.31-1.22-.42-1.97-.42-1.84,0-2.21,1.07-2.21,1.78,0,.95.81,1.47,1.4,1.66.42.14,1,.2,1.3.3.27.08.76.35.76.86,0,.36-.24.92-1.26.92-1.09,0-1.74-.46-2.12-.68l-.16.92Zm6.1.46h.35l-.35,1.69h.57l.55-1.69v-.19s.01-.95.01-.95h-1.13v1.13Zm7.32.96c0,1.04,1.34,1.82,3,1.82s3-.78,3-1.84c0-.16-.03-.34-.07-.5-.38-1.35-2.03-1.38-2.92-1.38h-1.01c-.65,0-.76-.46-.76-.72,0-.09.01-.23.15-.5.3.19.63.41,1.23.41,1.26,0,2.16-1.05,2.16-2.2,0-.58-.18-.97-.53-1.44l.12.11c.24-.01.66-.05,1.01-.05.27,0,.53.01.8.04l-.15-.85c-.73,0-1.44.14-2.12.42l.03.03c-.45-.31-.82-.45-1.32-.45-1.11,0-2.15.89-2.15,2.2,0,.27.04.81.45,1.34h0c-.24.34-.39.7-.39,1.15s.12.72.34,1.03c-.53.31-.86.84-.86,1.39Zm.95,0c0-.39.3-.85.85-.9h.39s.85-.01.85-.01c1.46,0,2.01.38,2.01.93,0,.62-.97,1.04-2.07,1.04-.74,0-2.04-.3-2.04-1.05Zm.47-4.9c0-1.15.72-1.43,1.2-1.43.73,0,1.22.54,1.22,1.42,0,1.15-.72,1.43-1.2,1.43-.73,0-1.22-.54-1.22-1.42Zm6.06,3.94h1.01v-2.78c0-1.97,1.5-2.43,2.3-2.46v-.9c-1.43.03-2.15.95-2.36,1.28v-1.22h-.95v6.08Zm4.12-1.53c0,.62.41,1.67,1.54,1.67,1.49,0,2.23-.61,2.24-.62v.47h1.03v-4.12c-.07-1.13-.96-2.11-2.24-2.11-.85,0-1.47.22-2.12.59l.08.9c.45-.31,1.01-.69,2.03-.69.18,0,.53.01.85.41.34.41.34.86.35,1.24v.46c-1.39.01-3.75.35-3.75,1.78Zm.99-.01c0-.85,1.8-1.05,2.77-1.07v.85c0,.88-.93,1.07-1.51,1.07-.73,0-1.26-.36-1.26-.85Zm5.99,1.54h1.05v-.62c.46.42,1.01.77,1.81.77,1.34,0,2.52-1.31,2.52-3.17,0-1.62-.88-3.12-2.21-3.12-.42,0-1.3.09-2.16.78v-4.39h-1.01v9.75Zm1.05-1.8v-2.52c0-.5.74-1,1.44-1s1.82.51,1.82,2.31-1.16,2.34-1.93,2.34c-.39,0-.8-.16-1.11-.54-.18-.26-.23-.23-.23-.58Zm5.93,1.8h1.05v-.62c.46.42,1.01.77,1.81.77,1.34,0,2.52-1.31,2.52-3.17,0-1.62-.88-3.12-2.21-3.12-.42,0-1.3.09-2.16.78v-4.39h-1.01v9.75Zm1.05-1.8v-2.52c0-.5.74-1,1.44-1s1.82.51,1.82,2.31-1.16,2.34-1.93,2.34c-.39,0-.8-.16-1.11-.54-.18-.26-.23-.23-.23-.58Zm5.93,1.8h1.01v-6.01h-1.01v6.01Zm-.09-7.97h1.22v-1.2h-1.22v1.2Zm3.31,7.97h1.05v-3.24c0-1,.34-2.08,1.38-2.08,1.32,0,1.32,1.01,1.32,1.53v3.79h1.05v-3.89c0-.95-.12-2.25-1.85-2.25-1.19,0-1.78.77-1.97,1.01v-.95h-.99v6.08Zm6.26.96c0,1.04,1.34,1.82,3,1.82s3-.78,3-1.84c0-.16-.03-.34-.07-.5-.38-1.35-2.03-1.38-2.92-1.38h-1.01c-.65,0-.76-.46-.76-.72,0-.09.01-.23.15-.5.3.19.63.41,1.23.41,1.26,0,2.16-1.05,2.16-2.2,0-.58-.18-.97-.53-1.44l.12.11c.24-.01.66-.05,1.01-.05.27,0,.53.01.8.04l-.15-.85c-.73,0-1.44.14-2.12.42l.03.03c-.45-.31-.82-.45-1.32-.45-1.11,0-2.15.89-2.15,2.2,0,.27.04.81.45,1.34h0c-.24.34-.39.7-.39,1.15s.12.72.34,1.03c-.53.31-.86.84-.86,1.39Zm.95,0c0-.39.3-.85.85-.9h.39s.85-.01.85-.01c1.46,0,2.01.38,2.01.93,0,.62-.97,1.04-2.07,1.04-.74,0-2.04-.3-2.04-1.05Zm.47-4.9c0-1.15.72-1.43,1.2-1.43.73,0,1.22.54,1.22,1.42,0,1.15-.72,1.43-1.2,1.43-.73,0-1.22-.54-1.22-1.42Z"/>
      <g>
        <path class="cls-9" d="m264.13,19.46c0,.24-.23.38-.66.41l-.67.05v.43q1.56-.05,1.87-.05t1.87.05v-.43l-.4-.05c-.72-.11-.73-.11-.86-.8l-1.33-9.56h-.7l-5.71,9.07c-.55.86-.83,1.1-1.35,1.22l-.31.08v.46q1.41-.05,1.71-.05c.29,0,.32,0,1.64.05v-.43l-.8-.05c-.24-.02-.47-.15-.47-.29,0-.12.11-.34.4-.84l1.56-2.68h3.76l.38,2.88v.05s.06.26.06.47Zm-1.09-8.35l.57,4.41h-3.3l2.74-4.41Z"/>
        <path class="cls-9" d="m268.3,23.12l1.44-.02,1.53.02.09-.09v-.4l-.06-.08h-.58c-.41,0-.75-.09-.93-.24-.14-.14-.18-.35-.18-.86v-10.57c0-.5.05-.73.18-.87.18-.15.52-.24.93-.24h.58l.06-.08v-.4l-.09-.09-1.44.05-1.53-.05c-.06.14-.08.31-.08.54,0,.4.06.96.06,1.73v9.52c0,1.04-.03,1.47-.12,1.94l.14.2Z"/>
        <path class="cls-9" d="m272.29,19.95v.4c2.86,0,2.86-.05,3.41-.05s.55.05,3.5.05v-1.3c-1.76.08-2.46.02-5.29.08l2.78-2.95c1.48-1.58,1.94-2.42,1.94-3.56,0-1.76-1.19-2.85-3.14-2.85-1.1,0-1.85.31-2.6,1.07l-.26,2.08h.44l.2-.7c.24-.89.8-1.27,1.82-1.27,1.32,0,2.16.83,2.16,2.13,0,1.15-.64,2.28-2.37,4.12l-2.6,2.77Z"/>
        <path class="cls-9" d="m282.81,18.42c-.41.14-.69.23-1.5.46-.11,1.16-.49,2.16-1.38,3.63l.21.17.63-.29c1.24-1.61,1.82-2.57,2.25-3.75l-.21-.21Z"/>
        <path class="cls-9" d="m291.48,18.6c-.46,0-.87.43-.87.89s.41.89.86.89c.49,0,.92-.41.92-.89s-.43-.89-.9-.89Zm0-5.28c-.46,0-.87.43-.87.89s.41.89.86.89c.49,0,.92-.41.92-.87s-.43-.9-.9-.9Z"/>
        <path class="cls-9" d="m300.2,23.12l.14-.2c-.09-.47-.12-.9-.12-1.94v-9.52c0-.77.06-1.33.06-1.73,0-.23-.02-.4-.08-.54h-2.97l-.09.09v.4l.06.08h.58c.41,0,.75.09.93.24.14.14.18.37.18.87v10.57c0,.5-.05.72-.18.86-.18.15-.52.24-.93.24h-.58l-.06.08v.4l.09.09h2.97Z"/>
      </g>
      <path class="cls-9" d="m302.84,19.5h.35l-.35,1.69h.57l.55-1.69v-.19s.01-.95.01-.95h-1.13v1.13Zm8.05,0h1.05v-.62c.46.42,1.01.77,1.81.77,1.34,0,2.52-1.31,2.52-3.17,0-1.62-.88-3.12-2.21-3.12-.42,0-1.3.09-2.16.78v-4.39h-1.01v9.75Zm1.05-1.8v-2.52c0-.5.74-1,1.44-1s1.82.51,1.82,2.31-1.16,2.34-1.93,2.34c-.39,0-.8-.16-1.11-.54-.18-.26-.23-.23-.23-.58Zm4.64-4.21l2.52,5.76c.05.11.07.16.07.23,0,.05-.01.12-.05.22-.58,1.4-.69,1.81-1.26,1.81-.23,0-.53-.08-.99-.23l.07.88c.32.08.73.11.99.11.62,0,1.01-.31,1.55-1.55l2.93-7.22h-1.01c-.89,2.21-1.77,4.41-1.8,5.33-.12-.77-.12-1.13-1.96-5.33h-1.07Zm11.12,4.48c0,.62.41,1.67,1.54,1.67,1.49,0,2.23-.61,2.24-.62v.47h1.03v-4.12c-.07-1.13-.96-2.11-2.24-2.11-.85,0-1.47.22-2.12.59l.08.9c.45-.31,1.01-.69,2.03-.69.18,0,.53.01.85.41.34.41.34.86.35,1.24v.46c-1.39.01-3.75.35-3.75,1.78Zm.99-.01c0-.85,1.8-1.05,2.77-1.07v.85c0,.88-.93,1.07-1.51,1.07-.73,0-1.26-.36-1.26-.85Zm5.98,1.54h1.05v-3.24c0-1,.34-2.08,1.38-2.08,1.32,0,1.32,1.01,1.32,1.53v3.79h1.05v-3.89c0-.95-.12-2.25-1.85-2.25-1.19,0-1.78.77-1.97,1.01v-.95h-.99v6.08Zm11.49,0h1.01v-6.01h-1.01v6.01Zm-.09-7.97h1.22v-1.2h-1.22v1.2Zm3.31,7.97h1.05v-3.24c0-1,.34-2.08,1.38-2.08,1.32,0,1.32,1.01,1.32,1.53v3.79h1.05v-3.89c0-.95-.12-2.25-1.85-2.25-1.19,0-1.78.77-1.97,1.01v-.95h-.99v6.08Zm6.37-2.98c0,1.61.95,3.13,2.32,3.13.89,0,1.54-.41,2-.85v.7h1.07v-9.75h-1.03v4.33c-.47-.38-1.11-.74-1.96-.74-1.34,0-2.4,1.39-2.4,3.17Zm1.05-.01c0-1.77,1.17-2.32,1.96-2.32h.03c.15,0,.58.01,1,.41.24.23.28.31.28.53v2.58c0,.42-.63,1.12-1.44,1.12-.73,0-1.82-.53-1.82-2.31Zm5.91-.05c0,1.67,1.17,3.2,2.94,3.2.85,0,1.55-.3,2.13-.69l-.08-.89c-.59.43-1.2.74-2.05.74-1.03,0-1.94-.89-2-2.28h4.19v-.39c-.12-2.31-1.44-2.86-2.4-2.86-1.43,0-2.73,1.36-2.73,3.17Zm1.01-.66c.15-.66.69-1.67,1.71-1.67.39,0,1.4.18,1.63,1.67h-3.35Zm4.52,3.71h1.12l1.94-2.54,2.03,2.54h1.12l-2.7-3.09h0s2.48-2.92,2.48-2.92h-1.12l-1.8,2.23h-.01l-1.86-2.23h-1.12l2.54,2.9v.03l-2.62,3.08Zm11.31-1.53c0,.62.41,1.67,1.54,1.67,1.49,0,2.23-.61,2.24-.62v.47h1.03v-4.12c-.07-1.13-.96-2.11-2.24-2.11-.85,0-1.47.22-2.12.59l.08.9c.45-.31,1.01-.69,2.03-.69.18,0,.53.01.85.41.34.41.34.86.35,1.24v.46c-1.39.01-3.75.35-3.75,1.78Zm.99-.01c0-.85,1.8-1.05,2.77-1.07v.85c0,.88-.93,1.07-1.51,1.07-.73,0-1.26-.36-1.26-.85Zm5.99,4.17h1.05v-3.25c.45.42,1.03.77,1.82.77,1.31,0,2.51-1.27,2.51-3.17,0-1.61-.85-3.12-2.13-3.12-.46,0-1.38.09-2.24.8v-.66h-1.01v8.64Zm1.05-4.33v-2.81c.08-.09.54-.77,1.43-.77,1.11,0,1.84,1.09,1.84,2.28,0,1.43-1.01,2.32-1.96,2.32-.8,0-1.31-.7-1.31-1.03Zm5.93,4.33h1.05v-3.25c.45.42,1.03.77,1.82.77,1.31,0,2.51-1.27,2.51-3.17,0-1.61-.85-3.12-2.13-3.12-.46,0-1.38.09-2.24.8v-.66h-1.01v8.64Zm1.05-4.33v-2.81c.08-.09.54-.77,1.43-.77,1.11,0,1.84,1.09,1.84,2.28,0,1.43-1.01,2.32-1.96,2.32-.8,0-1.31-.7-1.31-1.03Zm5.93,1.7h1.01v-9.75h-1.01v9.75Zm3.23,0h1.01v-6.01h-1.01v6.01Zm-.09-7.97h1.22v-1.2h-1.22v1.2Zm2.69,4.91c0,1.67,1.17,3.2,2.94,3.2.85,0,1.55-.3,2.13-.69l-.08-.89c-.59.43-1.2.74-2.05.74-1.03,0-1.94-.89-2-2.28h4.19v-.39c-.12-2.31-1.44-2.86-2.4-2.86-1.43,0-2.73,1.36-2.73,3.17Zm1.01-.66c.15-.66.69-1.67,1.71-1.67.39,0,1.4.18,1.63,1.67h-3.35Zm5,.73c0,1.61.95,3.13,2.32,3.13.89,0,1.54-.41,2-.85v.7h1.07v-9.75h-1.03v4.33c-.47-.38-1.11-.74-1.96-.74-1.34,0-2.4,1.39-2.4,3.17Zm1.05-.01c0-1.77,1.17-2.32,1.96-2.32h.03c.15,0,.58.01,1,.41.24.23.28.31.28.53v2.58c0,.42-.63,1.12-1.44,1.12-.73,0-1.82-.53-1.82-2.31Zm10.35.01c0,1.84,1.42,3.13,2.96,3.13s2.97-1.28,2.97-3.12c0-1.69-1.24-3.25-2.97-3.25-1.59,0-2.96,1.4-2.96,3.24Zm1.05-.14c0-1.63,1.04-2.27,1.9-2.27s1.9.62,1.9,2.27-1,2.4-1.9,2.4-1.9-.7-1.9-2.4Zm6.37,3.12h1.05v-3.24c0-1,.34-2.08,1.38-2.08,1.32,0,1.32,1.01,1.32,1.53v3.79h1.05v-3.89c0-.95-.12-2.25-1.85-2.25-1.19,0-1.78.77-1.97,1.01v-.95h-.99v6.08Zm10.64-5.21h1.13v3.63c0,1.49.66,1.73,1.11,1.73.61,0,1.3-.14,2-.51l-.22-.8c-.19.14-.61.45-1.19.45-.7,0-.73-.8-.73-1.17v-3.32h1.9v-.8h-1.9v-1.7h-.95v1.7h-1.16v.8Zm5.71,5.21h1.05v-3.24c0-1,.34-2.08,1.38-2.08,1.32,0,1.32,1.01,1.32,1.53v3.79h1.05v-3.89c0-.82-.05-2.25-1.85-2.25-.93,0-1.51.45-1.94.96v-4.56h-1.01v9.75Zm6.36-3.05c0,1.67,1.17,3.2,2.94,3.2.85,0,1.55-.3,2.13-.69l-.08-.89c-.59.43-1.2.74-2.05.74-1.03,0-1.94-.89-2-2.28h4.19v-.39c-.12-2.31-1.44-2.86-2.4-2.86-1.43,0-2.73,1.36-2.73,3.17Zm1.01-.66c.15-.66.69-1.67,1.71-1.67.39,0,1.4.18,1.63,1.67h-3.35Zm10.11,3.71h1.01v-2.78c0-1.97,1.5-2.43,2.3-2.46v-.9c-1.43.03-2.15.95-2.36,1.28v-1.22h-.95v6.08Zm3.98-3.05c0,1.67,1.17,3.2,2.94,3.2.85,0,1.55-.3,2.13-.69l-.08-.89c-.59.43-1.2.74-2.05.74-1.03,0-1.94-.89-2-2.28h4.19v-.39c-.12-2.31-1.44-2.86-2.4-2.86-1.43,0-2.73,1.36-2.73,3.17Zm1.01-.66c.15-.66.69-1.67,1.71-1.67.39,0,1.4.18,1.63,1.67h-3.35Zm5.62,3.71h1.01v-9.75h-1.01v9.75Zm2.59-3.05c0,1.67,1.17,3.2,2.94,3.2.85,0,1.55-.3,2.13-.69l-.08-.89c-.59.43-1.2.74-2.05.74-1.03,0-1.94-.89-2-2.28h4.19v-.39c-.12-2.31-1.44-2.86-2.4-2.86-1.43,0-2.73,1.36-2.73,3.17Zm1.01-.66c.15-.66.69-1.67,1.71-1.67.39,0,1.4.18,1.63,1.67h-3.35Zm4.71-2.3l2.32,6.01h1.19l2.32-6.01h-1c-1.31,3.4-1.81,4.79-1.89,5.33-.07-.42-.15-.63-.65-2.04l-1.26-3.29h-1.04Zm6.63,4.48c0,.62.41,1.67,1.54,1.67,1.49,0,2.23-.61,2.24-.62v.47h1.03v-4.12c-.07-1.13-.96-2.11-2.24-2.11-.85,0-1.47.22-2.12.59l.08.9c.45-.31,1.01-.69,2.03-.69.18,0,.53.01.85.41.34.41.34.86.35,1.24v.46c-1.39.01-3.75.35-3.75,1.78Zm.99-.01c0-.85,1.8-1.05,2.77-1.07v.85c0,.88-.93,1.07-1.51,1.07-.73,0-1.26-.36-1.26-.85Zm5.98,1.54h1.05v-3.24c0-1,.34-2.08,1.38-2.08,1.32,0,1.32,1.01,1.32,1.53v3.79h1.05v-3.89c0-.95-.12-2.25-1.85-2.25-1.19,0-1.78.77-1.97,1.01v-.95h-.99v6.08Zm6.14-5.21h1.13v3.63c0,1.49.66,1.73,1.11,1.73.61,0,1.3-.14,2-.51l-.22-.8c-.19.14-.61.45-1.19.45-.7,0-.73-.8-.73-1.17v-3.32h1.9v-.8h-1.9v-1.7h-.95v1.7h-1.16v.8Zm9.72,3.69c0,.62.41,1.67,1.54,1.67,1.49,0,2.23-.61,2.24-.62v.47h1.03v-4.12c-.07-1.13-.96-2.11-2.24-2.11-.85,0-1.47.22-2.12.59l.08.9c.45-.31,1.01-.69,2.03-.69.18,0,.53.01.85.41.34.41.34.86.35,1.24v.46c-1.39.01-3.75.35-3.75,1.78Zm.99-.01c0-.85,1.8-1.05,2.77-1.07v.85c0,.88-.93,1.07-1.51,1.07-.73,0-1.26-.36-1.26-.85Zm4.9,1.54h1.12l1.94-2.54,2.03,2.54h1.12l-2.7-3.09h0s2.48-2.92,2.48-2.92h-1.12l-1.8,2.23h-.01l-1.86-2.23h-1.12l2.54,2.9v.03l-2.62,3.08Zm7.32,0h1.01v-6.01h-1.01v6.01Zm-.09-7.97h1.22v-1.2h-1.22v1.2Zm2.59,7.51c1.01.55,1.84.61,2.3.61,1.81,0,2.2-1.12,2.2-1.86,0-.88-.62-1.44-1.17-1.69-.84-.38-2.28-.2-2.28-1.19,0-.34.2-.82,1.13-.82s1.4.24,1.94.5l.15-.89c-.74-.31-1.22-.42-1.97-.42-1.84,0-2.21,1.07-2.21,1.78,0,.95.81,1.47,1.4,1.66.42.14,1,.2,1.3.3.27.08.76.35.76.86,0,.36-.24.92-1.26.92-1.09,0-1.74-.46-2.12-.68l-.16.92Zm6.1.46h1.13v-1.13h-1.13v1.13Z"/>
    </g>
    <path class="cls-9" d="m285.85,98.19c0-2.06-1.82-2.41-2.62-2.55,1.36-1.05,1.87-1.84,1.87-2.84,0-1.51-1.26-2.52-3.15-2.52-1.16,0-1.92.32-2.74,1.14l-.49,2.11h.53l.31-.95c.19-.58,1.26-1.16,2.14-1.16,1.11,0,2.01.9,2.01,1.97,0,1.28-1,2.35-2.21,2.35-.14,0-.32-.02-.54-.03l-.26-.02-.2.9.12.1c.65-.29.97-.37,1.43-.37,1.41,0,2.23.9,2.23,2.45,0,1.73-1.04,2.87-2.62,2.87-.78,0-1.48-.26-1.99-.73-.41-.37-.63-.77-.95-1.68l-.46.17c.36,1.04.49,1.65.6,2.5.9.31,1.65.44,2.28.44,2.09,0,4.73-1.82,4.73-4.15Z"/>
    <path class="cls-5" d="m155,105h90"/>
    <g>
      <path class="cls-2" d="m325,85h60v20h-60v-20Z"/>
      <path class="cls-5" d="m345,85v20m20-20v20M702-10"/>
      <path class="cls-5" d="m325,85h60v20h-60v-20Z"/>
    </g>
    <g>
      <path class="cls-1" d="m85,45h60"/>
      <path class="cls-1" d="m145,37.17v15.66"/>
    </g>
    <g>
      <path class="cls-1" d="m325,85h60"/>
      <path class="cls-1" d="m385,77.17v15.66"/>
    </g>
    <path class="cls-5" d="m245,105h70"/>
    <path class="cls-5" d="m155,75h65"/>
    <g>
      <path class="cls-2" d="m85,45h60v80h-60V45Z"/>
      <path class="cls-5" d="m105,45v80m20-80v80"/>
      <path class="cls-5" d="m85,65h60m-60,20h60m-60,20h60"/>
      <path class="cls-5" d="m85,45h60v80h-60V45Z"/>
    </g>
    <g>
      <path class="cls-1" d="m85,45v80"/>
      <path class="cls-1" d="m92.83,125h-15.66"/>
    </g>
  </g>
</svg>