<?xml version="1.0" encoding="UTF-8"?>
<svg xmlns="http://www.w3.org/2000/svg" xmlns:xlink="http://www.w3.org/1999/xlink" viewBox="0 0 630 245">
  <defs>
    <style>
      .cls-1 {
        filter: url(#drop-shadow-199);
      }

      .cls-2, .cls-3, .cls-4, .cls-5, .cls-6, .cls-7, .cls-8 {
        fill: none;
      }

      .cls-2, .cls-5, .cls-8 {
        stroke: #000;
      }

      .cls-2, .cls-6 {
        stroke-width: 3px;
      }

      .cls-9 {
        fill: #fff591;
      }

      .cls-9, .cls-10, .cls-11, .cls-3, .cls-12, .cls-13, .cls-14, .cls-15, .cls-16 {
        stroke-width: 0px;
      }

      .cls-17 {
        filter: url(#drop-shadow-267);
      }

      .cls-18 {
        filter: url(#drop-shadow-187);
      }

      .cls-10 {
        fill: #1346fe;
      }

      .cls-19 {
        filter: url(#drop-shadow-191);
      }

      .cls-20 {
        filter: url(#drop-shadow-259);
      }

      .cls-21 {
        filter: url(#drop-shadow-194);
      }

      .cls-22 {
        filter: url(#drop-shadow-186);
      }

      .cls-23 {
        filter: url(#drop-shadow-264);
      }

      .cls-24 {
        filter: url(#drop-shadow-185);
      }

      .cls-25 {
        filter: url(#drop-shadow-265);
      }

      .cls-12 {
        fill: #f3f3f4;
      }

      .cls-4 {
        stroke-miterlimit: 4;
        stroke-width: 2px;
      }

      .cls-4, .cls-7 {
        stroke: #1346fe;
      }

      .cls-13 {
        fill: #e28ff1;
      }

      .cls-14 {
        fill: #9dc7ff;
      }

      .cls-26 {
        filter: url(#drop-shadow-192);
      }

      .cls-27 {
        filter: url(#drop-shadow-200);
      }

      .cls-15, .cls-28 {
        fill: #fff;
      }

      .cls-28 {
        stroke: #fff;
        stroke-width: .37px;
      }

      .cls-28, .cls-29 {
        stroke-miterlimit: 10;
      }

      .cls-30 {
        filter: url(#drop-shadow-196);
      }

      .cls-31 {
        filter: url(#drop-shadow-190);
      }

      .cls-5 {
        stroke-dasharray: 0 0 6 6;
      }

      .cls-6, .cls-29 {
        stroke: #f96264;
      }

      .cls-32 {
        filter: url(#drop-shadow-266);
      }

      .cls-33 {
        filter: url(#drop-shadow-188);
      }

      .cls-29 {
        stroke-width: .41px;
      }

      .cls-29, .cls-16 {
        fill: #f96264;
      }

      .cls-34 {
        filter: url(#drop-shadow-193);
      }

      .cls-35 {
        filter: url(#drop-shadow-197);
      }

      .cls-7 {
        stroke-width: 2px;
      }

      .cls-36 {
        filter: url(#drop-shadow-195);
      }

      .cls-37 {
        filter: url(#drop-shadow-184);
      }

      .cls-38 {
        filter: url(#drop-shadow-198);
      }

      .cls-39 {
        filter: url(#drop-shadow-189);
      }
    </style>
    <filter id="drop-shadow-184" filterUnits="userSpaceOnUse">
      <feOffset dx="0" dy="0"/>
      <feGaussianBlur result="blur" stdDeviation="3"/>
      <feFlood flood-color="#000" flood-opacity="1"/>
      <feComposite in2="blur" operator="in"/>
      <feComposite in="SourceGraphic"/>
    </filter>
    <filter id="drop-shadow-185" filterUnits="userSpaceOnUse">
      <feOffset dx="0" dy="0"/>
      <feGaussianBlur result="blur-2" stdDeviation="3"/>
      <feFlood flood-color="#000" flood-opacity="1"/>
      <feComposite in2="blur-2" operator="in"/>
      <feComposite in="SourceGraphic"/>
    </filter>
    <filter id="drop-shadow-186" filterUnits="userSpaceOnUse">
      <feOffset dx="0" dy="0"/>
      <feGaussianBlur result="blur-3" stdDeviation="3"/>
      <feFlood flood-color="#000" flood-opacity="1"/>
      <feComposite in2="blur-3" operator="in"/>
      <feComposite in="SourceGraphic"/>
    </filter>
    <filter id="drop-shadow-187" filterUnits="userSpaceOnUse">
      <feOffset dx="0" dy="0"/>
      <feGaussianBlur result="blur-4" stdDeviation="3"/>
      <feFlood flood-color="#000" flood-opacity="1"/>
      <feComposite in2="blur-4" operator="in"/>
      <feComposite in="SourceGraphic"/>
    </filter>
    <filter id="drop-shadow-188" filterUnits="userSpaceOnUse">
      <feOffset dx="0" dy="0"/>
      <feGaussianBlur result="blur-5" stdDeviation="3"/>
      <feFlood flood-color="#000" flood-opacity="1"/>
      <feComposite in2="blur-5" operator="in"/>
      <feComposite in="SourceGraphic"/>
    </filter>
    <filter id="drop-shadow-189" filterUnits="userSpaceOnUse">
      <feOffset dx="0" dy="0"/>
      <feGaussianBlur result="blur-6" stdDeviation="3"/>
      <feFlood flood-color="#000" flood-opacity="1"/>
      <feComposite in2="blur-6" operator="in"/>
      <feComposite in="SourceGraphic"/>
    </filter>
    <filter id="drop-shadow-190" filterUnits="userSpaceOnUse">
      <feOffset dx="0" dy="0"/>
      <feGaussianBlur result="blur-7" stdDeviation="3"/>
      <feFlood flood-color="#000" flood-opacity="1"/>
      <feComposite in2="blur-7" operator="in"/>
      <feComposite in="SourceGraphic"/>
    </filter>
    <filter id="drop-shadow-191" filterUnits="userSpaceOnUse">
      <feOffset dx="0" dy="0"/>
      <feGaussianBlur result="blur-8" stdDeviation="3"/>
      <feFlood flood-color="#000" flood-opacity="1"/>
      <feComposite in2="blur-8" operator="in"/>
      <feComposite in="SourceGraphic"/>
    </filter>
    <filter id="drop-shadow-192" filterUnits="userSpaceOnUse">
      <feOffset dx="0" dy="0"/>
      <feGaussianBlur result="blur-9" stdDeviation="3"/>
      <feFlood flood-color="#000" flood-opacity="1"/>
      <feComposite in2="blur-9" operator="in"/>
      <feComposite in="SourceGraphic"/>
    </filter>
    <filter id="drop-shadow-193" filterUnits="userSpaceOnUse">
      <feOffset dx="0" dy="0"/>
      <feGaussianBlur result="blur-10" stdDeviation="3"/>
      <feFlood flood-color="#000" flood-opacity="1"/>
      <feComposite in2="blur-10" operator="in"/>
      <feComposite in="SourceGraphic"/>
    </filter>
    <filter id="drop-shadow-194" filterUnits="userSpaceOnUse">
      <feOffset dx="0" dy="0"/>
      <feGaussianBlur result="blur-11" stdDeviation="3"/>
      <feFlood flood-color="#000" flood-opacity="1"/>
      <feComposite in2="blur-11" operator="in"/>
      <feComposite in="SourceGraphic"/>
    </filter>
    <filter id="drop-shadow-195" filterUnits="userSpaceOnUse">
      <feOffset dx="0" dy="0"/>
      <feGaussianBlur result="blur-12" stdDeviation="3"/>
      <feFlood flood-color="#000" flood-opacity="1"/>
      <feComposite in2="blur-12" operator="in"/>
      <feComposite in="SourceGraphic"/>
    </filter>
    <filter id="drop-shadow-196" filterUnits="userSpaceOnUse">
      <feOffset dx="0" dy="0"/>
      <feGaussianBlur result="blur-13" stdDeviation="3"/>
      <feFlood flood-color="#000" flood-opacity="1"/>
      <feComposite in2="blur-13" operator="in"/>
      <feComposite in="SourceGraphic"/>
    </filter>
    <filter id="drop-shadow-197" filterUnits="userSpaceOnUse">
      <feOffset dx="0" dy="0"/>
      <feGaussianBlur result="blur-14" stdDeviation="3"/>
      <feFlood flood-color="#000" flood-opacity="1"/>
      <feComposite in2="blur-14" operator="in"/>
      <feComposite in="SourceGraphic"/>
    </filter>
    <filter id="drop-shadow-198" filterUnits="userSpaceOnUse">
      <feOffset dx="0" dy="0"/>
      <feGaussianBlur result="blur-15" stdDeviation="3"/>
      <feFlood flood-color="#000" flood-opacity="1"/>
      <feComposite in2="blur-15" operator="in"/>
      <feComposite in="SourceGraphic"/>
    </filter>
    <filter id="drop-shadow-199" filterUnits="userSpaceOnUse">
      <feOffset dx="0" dy="0"/>
      <feGaussianBlur result="blur-16" stdDeviation="3"/>
      <feFlood flood-color="#000" flood-opacity="1"/>
      <feComposite in2="blur-16" operator="in"/>
      <feComposite in="SourceGraphic"/>
    </filter>
    <filter id="drop-shadow-200" filterUnits="userSpaceOnUse">
      <feOffset dx="0" dy="0"/>
      <feGaussianBlur result="blur-17" stdDeviation="3"/>
      <feFlood flood-color="#000" flood-opacity="1"/>
      <feComposite in2="blur-17" operator="in"/>
      <feComposite in="SourceGraphic"/>
    </filter>
    <filter id="drop-shadow-259" filterUnits="userSpaceOnUse">
      <feOffset dx="0" dy="0"/>
      <feGaussianBlur result="blur-18" stdDeviation="3"/>
      <feFlood flood-color="#000" flood-opacity="1"/>
      <feComposite in2="blur-18" operator="in"/>
      <feComposite in="SourceGraphic"/>
    </filter>
    <filter id="drop-shadow-264" filterUnits="userSpaceOnUse">
      <feOffset dx="0" dy="0"/>
      <feGaussianBlur result="blur-19" stdDeviation="3"/>
      <feFlood flood-color="#000" flood-opacity="1"/>
      <feComposite in2="blur-19" operator="in"/>
      <feComposite in="SourceGraphic"/>
    </filter>
    <filter id="drop-shadow-265" filterUnits="userSpaceOnUse">
      <feOffset dx="0" dy="0"/>
      <feGaussianBlur result="blur-20" stdDeviation="3"/>
      <feFlood flood-color="#000" flood-opacity="1"/>
      <feComposite in2="blur-20" operator="in"/>
      <feComposite in="SourceGraphic"/>
    </filter>
    <filter id="drop-shadow-266" filterUnits="userSpaceOnUse">
      <feOffset dx="0" dy="0"/>
      <feGaussianBlur result="blur-21" stdDeviation="3"/>
      <feFlood flood-color="#000" flood-opacity="1"/>
      <feComposite in2="blur-21" operator="in"/>
      <feComposite in="SourceGraphic"/>
    </filter>
    <filter id="drop-shadow-267" filterUnits="userSpaceOnUse">
      <feOffset dx="0" dy="0"/>
      <feGaussianBlur result="blur-22" stdDeviation="3"/>
      <feFlood flood-color="#000" flood-opacity="1"/>
      <feComposite in2="blur-22" operator="in"/>
      <feComposite in="SourceGraphic"/>
    </filter>
  </defs>
  <g id="Layer_1" data-name="Layer 1">
    <g class="cls-37">
      <path class="cls-16" d="m411.97,114.54h150v30h-150v-30Z"/>
    </g>
    <g class="cls-24">
      <path class="cls-14" d="m466.97,109.54h40v95h-40v-95Z"/>
    </g>
    <g class="cls-22">
      <path class="cls-13" d="m416.97,109.54h45v85h-45v-85Z"/>
    </g>
    <g class="cls-18">
      <path class="cls-7" d="m403.14,198.6c10.09,12.59,48.93,21.49,87.53,21.6h.7c30.95,0,61.86-5.7,73.27-16.51m-163.84-3.21c10.36,12.92,50,22.61,89.86,22.72h.71c31.82,0,63.45-6.09,75.44-17.39"/>
      <path class="cls-4" d="m564.97,212.63c1.91-5.4,4.24-9.76,7-13.09-3.31,2.77-7.67,5.12-13.06,7.04"/>
    </g>
    <g class="cls-33">
      <path class="cls-10" d="m316.97,189.54h80v20h-80v-20Z"/>
    </g>
    <g class="cls-39">
      <path class="cls-12" d="m326.97,84.54h60v80h-60v-80Z"/>
    </g>
    <g class="cls-31">
      <path class="cls-13" d="m511.97,109.54h45v85h-45v-85Z"/>
    </g>
    <g class="cls-19">
      <path class="cls-12" d="m576.97,109.54h40v80h-40v-80Z"/>
    </g>
    <g class="cls-26">
      <path class="cls-10" d="m576.97,149.54h40v20h-40v-20Z"/>
    </g>
    <g class="cls-34">
      <path class="cls-14" d="m158,130h40v60h-40v-60Z"/>
    </g>
    <g class="cls-21">
      <path class="cls-13" d="m108,125h45v56h-45v-56Z"/>
    </g>
    <g class="cls-36">
      <path class="cls-12" d="m8,175h80v20H8v-20Z"/>
    </g>
    <g class="cls-30">
      <path class="cls-13" d="m203,125h45v25h-45v-25Z"/>
    </g>
    <g class="cls-35">
      <path class="cls-12" d="m18,125h60v20H18v-20Z"/>
    </g>
    <g class="cls-38">
      <path class="cls-12" d="m268,135h40v20h-40v-20Z"/>
    </g>
    <g class="cls-1">
      <polygon class="cls-9" points="616.96 57.45 11.96 57.45 11.96 7.45 616.96 7.45 616.96 57.45"/>
    </g>
    <g class="cls-27">
      <path class="cls-16" d="m441.96,32.21h120v20.24h-120v-20.24Z"/>
    </g>
  </g>
  <g id="Layer_4" data-name="Layer 4">
    <path class="cls-10" d="m433.47,232.08l.86-4.65c.14-.8.29-.92,1.04-.98l.86-.06.06-.57h-.49l-1.84.06c-.33,0-.69,0-1.57-.02l-1.31-.04-.06.57.96.04c.49.02.71.18.71.55,0,.29-.08.92-.18,1.55l-1.51,8.85c-.35,1.88-.37,1.9-1.18,1.98l-.84.06-.08.57.86-.02c.98-.02,1.45-.04,1.84-.04l1.98.06h.53l.06-.57-1-.06c-.55-.04-.73-.18-.73-.61,0-.18.02-.33.08-.71l.86-5.04,1.24-.02c1.26-.02,2.12-.04,2.51-.04s1.22.02,2.51.04l1.24.02-.82,4.39c-.18,1-.33,1.57-.43,1.69-.08.16-.31.24-.75.29l-1.02.06-.08.57,1.14-.02c.9-.02,1.51-.04,1.73-.04.33,0,.96.02,1.84.04l.86.02.06-.57-1.18-.06c-.53-.02-.73-.18-.73-.61,0-.18.02-.37.08-.71l1.88-10.61c.14-.8.27-.9,1.04-.98l.73-.06.06-.57h-.33l-1.86.06c-.31,0-.73,0-1.63-.02l-1.29-.04-.06.57.98.04c.49.02.71.18.71.55,0,.29-.08.94-.18,1.55l-.61,3.55h-7.55Z"/>
    <path class="cls-29" d="m319.73,123.46v1.28c0,1.02-.19,1.26-1.02,1.29l-1.05.05v.51q2.26-.05,2.67-.05t2.67.05v-.51l-.82-.05c-.83-.05-1.02-.27-1.02-1.29v-1.28c1,0,1.36.02,1.84.07v-1.21l-1.84.05.02-7.68-1.36.51-4.81,7.87v.39h4.73Zm0-1.09h-3.66l3.66-5.98v5.98Z"/>
    <path class="cls-29" d="m624.73,153.46v1.28c0,1.02-.19,1.26-1.02,1.29l-1.05.05v.51q2.26-.05,2.67-.05t2.67.05v-.51l-.82-.05c-.83-.05-1.02-.27-1.02-1.29v-1.28c1,0,1.36.02,1.84.07v-1.21l-1.84.05.02-7.68-1.36.51-4.81,7.87v.39h4.73Zm0-1.09h-3.66l3.66-5.98v5.98Z"/>
    <g>
      <path class="cls-11" d="m14.32,25.39h1.01l1.03-2.75h3.92l1.04,2.75h1.24l-3.51-9.37h-1.2l-3.52,9.37Zm2.32-3.51c1.07-2.92,1.57-4.41,1.67-4.91.08.5.45,1.51,1.67,4.91h-3.35Z"/>
      <g>
        <path class="cls-11" d="m33.61,20.51c-.14,0-.28,0-.41-.02l-.09.18,4.24,5.55c.35-.02.69-.05,1.04-.05s.7.03,1.1.05v-.46c-.37-.03-.7-.11-.93-.4l-3.47-4.53c1.48-.29,2.98-1.29,2.98-2.95,0-1.07-.61-2.3-2.92-2.3h-7.34v.46l.67.05c.63.05.78.17.78,1.38v6.87c0,1.21-.15,1.36-.78,1.39l-.67.03v.46s.84-.05,3.27-.05c.7,0,2.2.02,3,.05v-.46l-.73-.03c-.67-.03-.78-.18-.78-1.39v-7.99c.43-.11.86-.18,1.56-.18,1.19,0,2.42.46,2.42,2.11,0,.89-.63,2.22-2.92,2.22Zm-3.17,5.2c-.41,0-.49-.23-.49-1.36v-6.87c0-1.13.09-1.32.5-1.36.58.06.64.17.64,1.36v6.87c0,1.15-.08,1.36-.66,1.36Z"/>
        <path class="cls-11" d="m43.33,17.22v.8c0,.64-.12.79-.64.81l-.66.03v.32q1.42-.03,1.68-.03t1.68.03v-.32l-.51-.03c-.52-.03-.64-.17-.64-.81v-.8c.63,0,.86.01,1.16.04v-.76l-1.16.03v-4.84s-.85.32-.85.32l-3.03,4.96v.25h2.98Zm0-.69h-2.3l2.3-3.77v3.77Zm8.89,2.23l-2.52-2.51,2.52-2.51-.46-.45-2.5,2.51-2.51-2.51-.45.45,2.51,2.51-2.51,2.51.45.45,2.51-2.51,2.5,2.51.46-.45Zm5.56-2c0-1.3-1.15-1.52-1.65-1.61.86-.66,1.18-1.16,1.18-1.79,0-.95-.79-1.59-1.98-1.59-.73,0-1.21.2-1.72.72l-.31,1.33h.33l.19-.6c.12-.36.79-.73,1.35-.73.7,0,1.26.57,1.26,1.24,0,.8-.63,1.48-1.39,1.48-.09,0-.2-.01-.34-.02h-.16s-.13.56-.13.56l.07.06c.41-.18.61-.24.9-.24.89,0,1.4.57,1.4,1.54,0,1.09-.65,1.81-1.65,1.81-.49,0-.93-.16-1.25-.46-.26-.24-.4-.48-.6-1.06l-.29.11c.22.65.31,1.04.37,1.57.57.19,1.04.28,1.44.28,1.32,0,2.98-1.15,2.98-2.61Z"/>
        <path class="cls-11" d="m71.48,25.62l-3.6-3.58,3.6-3.58-.66-.64-3.56,3.58-3.58-3.58-.64.64,3.58,3.58-3.58,3.58.64.64,3.58-3.58,3.56,3.58.66-.64Z"/>
        <path class="cls-11" d="m81.56,20.51c-.14,0-.28,0-.41-.02l-.09.18,4.24,5.55c.35-.02.69-.05,1.04-.05s.7.03,1.1.05v-.46c-.37-.03-.7-.11-.93-.4l-3.47-4.53c1.48-.29,2.98-1.29,2.98-2.95,0-1.07-.61-2.3-2.92-2.3h-7.34v.46l.67.05c.63.05.78.17.78,1.38v6.87c0,1.21-.15,1.36-.78,1.39l-.67.03v.46s.84-.05,3.27-.05c.7,0,2.2.02,3,.05v-.46l-.73-.03c-.67-.03-.78-.18-.78-1.39v-7.99c.43-.11.86-.18,1.56-.18,1.19,0,2.42.46,2.42,2.11,0,.89-.63,2.22-2.92,2.22Zm-3.17,5.2c-.41,0-.49-.23-.49-1.36v-6.87c0-1.13.09-1.32.5-1.36.58.06.64.17.64,1.36v6.87c0,1.15-.08,1.36-.66,1.36Z"/>
        <path class="cls-11" d="m91.29,18.22v.8c0,.64-.12.79-.64.81l-.66.03v.32q1.42-.03,1.68-.03t1.68.03v-.32l-.51-.03c-.52-.03-.64-.17-.64-.81v-.8c.63,0,.86.01,1.16.04v-.76l-1.16.03v-4.84s-.85.32-.85.32l-3.03,4.96v.25h2.98Zm0-.69h-2.3l2.3-3.77v3.77Z"/>
      </g>
      <path class="cls-11" d="m99.52,22.38c0,1.73,1.27,3.16,2.93,3.16.93,0,1.59-.3,2.2-.69l-.07-.9c-.43.3-1.07.73-2.12.73-1.13,0-1.89-.99-1.89-2.3,0-1.17.59-2.35,1.9-2.35,1.07,0,1.42.28,1.94.62l.16-.89c-.82-.47-1.26-.59-2.09-.59-1.89,0-2.97,1.65-2.97,3.21Zm5.93.03c0,1.84,1.42,3.13,2.96,3.13s2.97-1.28,2.97-3.12c0-1.69-1.24-3.25-2.97-3.25-1.59,0-2.96,1.4-2.96,3.24Zm1.05-.14c0-1.63,1.04-2.27,1.9-2.27s1.9.62,1.9,2.27-1,2.4-1.9,2.4-1.9-.7-1.9-2.4Zm6.39,3.12h1.01v-9.75h-1.01v9.75Zm3.23,0h1.01v-9.75h-1.01v9.75Zm2.59-3.05c0,1.67,1.17,3.2,2.94,3.2.85,0,1.55-.3,2.13-.69l-.08-.89c-.59.43-1.2.74-2.05.74-1.03,0-1.94-.89-2-2.28h4.19v-.39c-.12-2.31-1.44-2.86-2.4-2.86-1.43,0-2.73,1.36-2.73,3.17Zm1.01-.66c.15-.66.69-1.67,1.71-1.67.39,0,1.4.18,1.63,1.67h-3.35Zm5,.7c0,1.73,1.27,3.16,2.93,3.16.93,0,1.59-.3,2.2-.69l-.07-.9c-.43.3-1.07.73-2.12.73-1.13,0-1.89-.99-1.89-2.3,0-1.17.59-2.35,1.9-2.35,1.07,0,1.42.28,1.94.62l.16-.89c-.82-.47-1.26-.59-2.09-.59-1.89,0-2.97,1.65-2.97,3.21Zm5.76-2.2h1.13v3.63c0,1.49.66,1.73,1.11,1.73.61,0,1.3-.14,2-.51l-.22-.8c-.19.14-.61.45-1.19.45-.7,0-.73-.8-.73-1.17v-3.32h1.9v-.8h-1.9v-1.7h-.95v1.7h-1.16v.8Zm5.72,5.21h1.01v-6.01h-1.01v6.01Zm-.09-7.97h1.22v-1.2h-1.22v1.2Zm2.63,4.98c0,1.84,1.42,3.13,2.96,3.13s2.97-1.28,2.97-3.12c0-1.69-1.24-3.25-2.97-3.25-1.59,0-2.96,1.4-2.96,3.24Zm1.05-.14c0-1.63,1.04-2.27,1.9-2.27s1.9.62,1.9,2.27-1,2.4-1.9,2.4-1.9-.7-1.9-2.4Zm6.37,3.12h1.05v-3.24c0-1,.34-2.08,1.38-2.08,1.32,0,1.32,1.01,1.32,1.53v3.79h1.05v-3.89c0-.95-.12-2.25-1.85-2.25-1.19,0-1.78.77-1.97,1.01v-.95h-.99v6.08Zm10.8-2.98c0,1.84,1.42,3.13,2.96,3.13s2.97-1.28,2.97-3.12c0-1.69-1.24-3.25-2.97-3.25-1.59,0-2.96,1.4-2.96,3.24Zm1.05-.14c0-1.63,1.04-2.27,1.9-2.27s1.9.62,1.9,2.27-1,2.4-1.9,2.4-1.9-.7-1.9-2.4Zm5.66-2.09h1v5.21h1.01v-5.21h1.49v-.8h-1.53v-1.84c0-1.04.82-1.23,1.26-1.23s.78.11,1.09.23v-.9c-.31-.08-.65-.15-1.07-.15-1.09,0-2.27.81-2.27,2.58,0,.11.01.22.01.32v.99h-1v.8Zm8.72,2.23c0,1.61.95,3.13,2.32,3.13.89,0,1.54-.41,2-.85v.7h1.07v-9.75h-1.03v4.33c-.47-.38-1.11-.74-1.96-.74-1.34,0-2.4,1.39-2.4,3.17Zm1.05-.01c0-1.77,1.17-2.32,1.96-2.32h.03c.15,0,.58.01,1,.41.24.23.28.31.28.53v2.58c0,.42-.63,1.12-1.44,1.12-.73,0-1.82-.53-1.82-2.31Zm6.05,1.47c0,.62.41,1.67,1.54,1.67,1.49,0,2.23-.61,2.24-.62v.47h1.03v-4.12c-.07-1.13-.96-2.11-2.24-2.11-.85,0-1.47.22-2.12.59l.08.9c.45-.31,1.01-.69,2.03-.69.18,0,.53.01.85.41.34.41.34.86.35,1.24v.46c-1.39.01-3.75.35-3.75,1.78Zm.99-.01c0-.85,1.8-1.05,2.77-1.07v.85c0,.88-.93,1.07-1.51,1.07-.73,0-1.26-.36-1.26-.85Zm5.14-3.67h1.13v3.63c0,1.49.66,1.73,1.11,1.73.61,0,1.3-.14,2-.51l-.22-.8c-.19.14-.61.45-1.19.45-.7,0-.73-.8-.73-1.17v-3.32h1.9v-.8h-1.9v-1.7h-.95v1.7h-1.16v.8Zm5.22,3.69c0,.62.41,1.67,1.54,1.67,1.49,0,2.23-.61,2.24-.62v.47h1.03v-4.12c-.07-1.13-.96-2.11-2.24-2.11-.85,0-1.47.22-2.12.59l.08.9c.45-.31,1.01-.69,2.03-.69.18,0,.53.01.85.41.34.41.34.86.35,1.24v.46c-1.39.01-3.75.35-3.75,1.78Zm.99-.01c0-.85,1.8-1.05,2.77-1.07v.85c0,.88-.93,1.07-1.51,1.07-.73,0-1.26-.36-1.26-.85Zm9.87-1.47c0,1.73,1.27,3.16,2.93,3.16.93,0,1.59-.3,2.2-.69l-.07-.9c-.43.3-1.07.73-2.12.73-1.13,0-1.89-.99-1.89-2.3,0-1.17.59-2.35,1.9-2.35,1.07,0,1.42.28,1.94.62l.16-.89c-.82-.47-1.26-.59-2.09-.59-1.89,0-2.97,1.65-2.97,3.21Zm6.12,1.49c0,.62.41,1.67,1.54,1.67,1.49,0,2.23-.61,2.24-.62v.47h1.03v-4.12c-.07-1.13-.96-2.11-2.24-2.11-.85,0-1.47.22-2.12.59l.08.9c.45-.31,1.01-.69,2.03-.69.18,0,.53.01.85.41.34.41.34.86.35,1.24v.46c-1.39.01-3.75.35-3.75,1.78Zm.99-.01c0-.85,1.8-1.05,2.77-1.07v.85c0,.88-.93,1.07-1.51,1.07-.73,0-1.26-.36-1.26-.85Zm5.98,1.54h1.05v-3.24c0-1,.34-2.08,1.38-2.08,1.32,0,1.32,1.01,1.32,1.53v3.79h1.05v-3.89c0-.95-.12-2.25-1.85-2.25-1.19,0-1.78.77-1.97,1.01v-.95h-.99v6.08Zm11.49,0h1.05v-.62c.46.42,1.01.77,1.81.77,1.34,0,2.52-1.31,2.52-3.17,0-1.62-.88-3.12-2.21-3.12-.42,0-1.3.09-2.16.78v-4.39h-1.01v9.75Zm1.05-1.8v-2.52c0-.5.74-1,1.44-1s1.82.51,1.82,2.31-1.16,2.34-1.93,2.34c-.39,0-.8-.16-1.11-.54-.18-.26-.23-.23-.23-.58Zm5.67-1.26c0,1.67,1.17,3.2,2.94,3.2.85,0,1.55-.3,2.13-.69l-.08-.89c-.59.43-1.2.74-2.05.74-1.03,0-1.94-.89-2-2.28h4.19v-.39c-.12-2.31-1.44-2.86-2.4-2.86-1.43,0-2.73,1.36-2.73,3.17Zm1.01-.66c.15-.66.69-1.67,1.71-1.67.39,0,1.4.18,1.63,1.67h-3.35Zm10.11,3.71h1.01v-2.78c0-1.97,1.5-2.43,2.3-2.46v-.9c-1.43.03-2.15.95-2.36,1.28v-1.22h-.95v6.08Zm3.98-3.05c0,1.67,1.17,3.2,2.94,3.2.85,0,1.55-.3,2.13-.69l-.08-.89c-.59.43-1.2.74-2.05.74-1.03,0-1.94-.89-2-2.28h4.19v-.39c-.12-2.31-1.44-2.86-2.4-2.86-1.43,0-2.73,1.36-2.73,3.17Zm1.01-.66c.15-.66.69-1.67,1.71-1.67.39,0,1.4.18,1.63,1.67h-3.35Zm5,.73c0,1.61.95,3.13,2.32,3.13.89,0,1.54-.41,2-.85v.7h1.07v-9.75h-1.03v4.33c-.47-.38-1.11-.74-1.96-.74-1.34,0-2.4,1.39-2.4,3.17Zm1.05-.01c0-1.77,1.17-2.32,1.96-2.32h.03c.15,0,.58.01,1,.41.24.23.28.31.28.53v2.58c0,.42-.63,1.12-1.44,1.12-.73,0-1.82-.53-1.82-2.31Zm6.53,1.35c0,.7,0,1.8,1.42,1.8.74,0,1.66-.19,2.36-.8v.65h1.03v-6.01h-1.05v3.78c0,.14,0,.26-.01.39-.07.58-.59,1.23-1.61,1.23-.92,0-1.07-.3-1.08-.88v-4.52h-1.05v4.36Zm6.37-1.36c0,1.73,1.27,3.16,2.93,3.16.93,0,1.59-.3,2.2-.69l-.07-.9c-.43.3-1.07.73-2.12.73-1.13,0-1.89-.99-1.89-2.3,0-1.17.59-2.35,1.9-2.35,1.07,0,1.42.28,1.94.62l.16-.89c-.82-.47-1.26-.59-2.09-.59-1.89,0-2.97,1.65-2.97,3.21Zm5.98-.04c0,1.67,1.17,3.2,2.94,3.2.85,0,1.55-.3,2.13-.69l-.08-.89c-.59.43-1.2.74-2.05.74-1.03,0-1.94-.89-2-2.28h4.19v-.39c-.12-2.31-1.44-2.86-2.4-2.86-1.43,0-2.73,1.36-2.73,3.17Zm1.01-.66c.15-.66.69-1.67,1.71-1.67.39,0,1.4.18,1.63,1.67h-3.35Zm5,.73c0,1.61.95,3.13,2.32,3.13.89,0,1.54-.41,2-.85v.7h1.07v-9.75h-1.03v4.33c-.47-.38-1.11-.74-1.96-.74-1.34,0-2.4,1.39-2.4,3.17Zm1.05-.01c0-1.77,1.17-2.32,1.96-2.32h.03c.15,0,.58.01,1,.41.24.23.28.31.28.53v2.58c0,.42-.63,1.12-1.44,1.12-.73,0-1.82-.53-1.82-2.31Zm10.19-2.21h1.13v3.63c0,1.49.66,1.73,1.11,1.73.61,0,1.3-.14,2-.51l-.22-.8c-.19.14-.61.45-1.19.45-.7,0-.73-.8-.73-1.17v-3.32h1.9v-.8h-1.9v-1.7h-.95v1.7h-1.16v.8Zm5.04,2.23c0,1.84,1.42,3.13,2.96,3.13s2.97-1.28,2.97-3.12c0-1.69-1.24-3.25-2.97-3.25-1.59,0-2.96,1.4-2.96,3.24Zm1.05-.14c0-1.63,1.04-2.27,1.9-2.27s1.9.62,1.9,2.27-1,2.4-1.9,2.4-1.9-.7-1.9-2.4Z"/>
      <g>
        <path class="cls-11" d="m313.33,20.51c-.14,0-.28,0-.41-.02l-.09.18,4.24,5.55c.35-.02.69-.05,1.04-.05s.7.03,1.1.05v-.46c-.37-.03-.7-.11-.93-.4l-3.47-4.53c1.48-.29,2.98-1.29,2.98-2.95,0-1.07-.61-2.3-2.92-2.3h-7.34v.46l.67.05c.63.05.78.17.78,1.38v6.87c0,1.21-.15,1.36-.78,1.39l-.67.03v.46s.84-.05,3.27-.05c.7,0,2.2.02,3,.05v-.46l-.73-.03c-.67-.03-.78-.18-.78-1.39v-7.99c.43-.11.86-.18,1.56-.18,1.19,0,2.42.46,2.42,2.11,0,.89-.63,2.22-2.92,2.22Zm-3.17,5.2c-.41,0-.49-.23-.49-1.36v-6.87c0-1.13.09-1.32.5-1.36.58.06.64.17.64,1.36v6.87c0,1.15-.08,1.36-.66,1.36Z"/>
        <path class="cls-11" d="m325,17.76c0-1.3-1.15-1.52-1.65-1.61.86-.66,1.18-1.16,1.18-1.79,0-.95-.79-1.59-1.98-1.59-.73,0-1.21.2-1.72.72l-.31,1.33h.33l.19-.6c.12-.36.79-.73,1.35-.73.7,0,1.26.57,1.26,1.24,0,.8-.63,1.48-1.39,1.48-.09,0-.2-.01-.34-.02h-.16s-.13.56-.13.56l.07.06c.41-.18.61-.24.9-.24.89,0,1.4.57,1.4,1.54,0,1.09-.65,1.81-1.65,1.81-.49,0-.93-.16-1.25-.46-.26-.24-.4-.48-.6-1.06l-.29.11c.22.65.31,1.04.37,1.57.57.19,1.04.28,1.44.28,1.32,0,2.98-1.15,2.98-2.61Z"/>
        <path class="cls-11" d="m338.71,25.62l-3.6-3.58,3.6-3.58-.66-.64-3.56,3.58-3.58-3.58-.64.64,3.58,3.58-3.58,3.58.64.64,3.58-3.58,3.56,3.58.66-.64Z"/>
        <path class="cls-11" d="m348.8,20.51c-.14,0-.28,0-.41-.02l-.09.18,4.24,5.55c.35-.02.69-.05,1.04-.05s.7.03,1.1.05v-.46c-.37-.03-.7-.11-.93-.4l-3.47-4.53c1.48-.29,2.98-1.29,2.98-2.95,0-1.07-.61-2.3-2.92-2.3h-7.34v.46l.67.05c.63.05.78.17.78,1.38v6.87c0,1.21-.15,1.36-.78,1.39l-.67.03v.46s.84-.05,3.27-.05c.7,0,2.2.02,3,.05v-.46l-.73-.03c-.67-.03-.78-.18-.78-1.39v-7.99c.43-.11.86-.18,1.56-.18,1.19,0,2.42.46,2.42,2.11,0,.89-.63,2.22-2.92,2.22Zm-3.17,5.2c-.41,0-.49-.23-.49-1.36v-6.87c0-1.13.09-1.32.5-1.36.58.06.64.17.64,1.36v6.87c0,1.15-.08,1.36-.66,1.36Z"/>
        <path class="cls-11" d="m358.52,18.22v.8c0,.64-.12.79-.64.81l-.66.03v.32q1.42-.03,1.68-.03t1.68.03v-.32l-.51-.03c-.52-.03-.64-.17-.64-.81v-.8c.63,0,.86.01,1.16.04v-.76l-1.16.03v-4.84s-.85.32-.85.32l-3.03,4.96v.25h2.98Zm0-.69h-2.3l2.3-3.77v3.77Z"/>
      </g>
      <path class="cls-11" d="m367.38,25.39h1.01v-6.01h-1.01v6.01Zm-.09-7.97h1.22v-1.2h-1.22v1.2Zm3.31,7.97h1.05v-3.24c0-1,.34-2.08,1.38-2.08,1.32,0,1.32,1.01,1.32,1.53v3.79h1.05v-3.89c0-.95-.12-2.25-1.85-2.25-1.19,0-1.78.77-1.97,1.01v-.95h-.99v6.08Z"/>
      <path class="cls-11" d="m385.27,23.42v1.15c0,.92-.17,1.13-.92,1.16l-.95.05v.46q2.03-.05,2.4-.05t2.4.05v-.46l-.73-.05c-.75-.05-.92-.24-.92-1.16v-1.15c.9,0,1.22.02,1.65.06v-1.09l-1.65.05.02-6.92-1.22.46-4.33,7.08v.35h4.25Zm0-.98h-3.29l3.29-5.39v5.39Z"/>
      <path class="cls-11" d="m393.6,22.4c0,1.61.95,3.13,2.32,3.13.89,0,1.54-.41,2-.85v.7h1.07v-9.75h-1.03v4.33c-.47-.38-1.11-.74-1.96-.74-1.34,0-2.4,1.39-2.4,3.17Zm1.05-.01c0-1.77,1.17-2.32,1.96-2.32h.03c.15,0,.58.01,1,.41.24.23.28.31.28.53v2.58c0,.42-.63,1.12-1.44,1.12-.73,0-1.82-.53-1.82-2.31Zm6.55,3h1.01v-6.01h-1.01v6.01Zm-.09-7.97h1.22v-1.2h-1.22v1.2Zm7.33,7.97h1.03v-5.21h1.49v-.8h-1.53v-1.84c0-1.04.82-1.23,1.26-1.23s.77.11,1.08.23v-.9c-.42-.11-.76-.15-1.08-.15-1.07,0-2.24.8-2.24,2.58v7.32Zm-4.74-5.21h1v5.21h1.01v-5.21h1.49v-.8h-1.53v-1.84c0-1.04.82-1.23,1.26-1.23s.78.11,1.09.23v-.9c-.31-.08-.65-.15-1.07-.15-1.09,0-2.27.81-2.27,2.58,0,.11.01.22.01.32v.99h-1v.8Zm7.97,2.16c0,1.67,1.17,3.2,2.94,3.2.85,0,1.55-.3,2.13-.69l-.08-.89c-.59.43-1.2.74-2.05.74-1.03,0-1.94-.89-2-2.28h4.19v-.39c-.12-2.31-1.44-2.86-2.4-2.86-1.43,0-2.73,1.36-2.73,3.17Zm1.01-.66c.15-.66.69-1.67,1.71-1.67.39,0,1.4.18,1.63,1.67h-3.35Zm5.62,3.71h1.01v-2.78c0-1.97,1.5-2.43,2.3-2.46v-.9c-1.43.03-2.15.95-2.36,1.28v-1.22h-.95v6.08Zm3.98-3.05c0,1.67,1.17,3.2,2.94,3.2.85,0,1.55-.3,2.13-.69l-.08-.89c-.59.43-1.2.74-2.05.74-1.03,0-1.94-.89-2-2.28h4.19v-.39c-.12-2.31-1.44-2.86-2.4-2.86-1.43,0-2.73,1.36-2.73,3.17Zm1.01-.66c.15-.66.69-1.67,1.71-1.67.39,0,1.4.18,1.63,1.67h-3.35Zm5.6,3.71h1.05v-3.24c0-1,.34-2.08,1.38-2.08,1.32,0,1.32,1.01,1.32,1.53v3.79h1.05v-3.89c0-.95-.12-2.25-1.85-2.25-1.19,0-1.78.77-1.97,1.01v-.95h-.99v6.08Zm6.14-5.21h1.13v3.63c0,1.49.66,1.73,1.11,1.73.61,0,1.3-.14,2-.51l-.22-.8c-.19.14-.61.45-1.19.45-.7,0-.73-.8-.73-1.17v-3.32h1.9v-.8h-1.9v-1.7h-.95v1.7h-1.16v.8Zm9.32-.8l1.86,6.01h1.07c.53-1.74,1.39-4.47,1.43-5.32.14,1,.24,1.36,1.44,5.32h1.17l1.86-6.01h-.99c-1.12,3.66-1.44,4.81-1.5,5.33-.05-.42-.12-.62-.51-2.04l-.99-3.29h-.96c-.46,1.49-1.39,4.48-1.43,5.33-.07-.51-.12-1.07-1.46-5.33h-1.01Zm9.25,4.48c0,.62.41,1.67,1.54,1.67,1.49,0,2.23-.61,2.24-.62v.47h1.03v-4.12c-.07-1.13-.96-2.11-2.24-2.11-.85,0-1.47.22-2.12.59l.08.9c.45-.31,1.01-.69,2.03-.69.18,0,.53.01.85.41.34.41.34.86.35,1.24v.46c-1.39.01-3.75.35-3.75,1.78Zm.99-.01c0-.85,1.8-1.05,2.77-1.07v.85c0,.88-.93,1.07-1.51,1.07-.73,0-1.26-.36-1.26-.85Zm4.71-4.47l2.52,5.76c.05.11.07.16.07.23,0,.05-.01.12-.05.22-.58,1.4-.69,1.81-1.26,1.81-.23,0-.53-.08-.99-.23l.07.88c.32.08.73.11.99.11.62,0,1.01-.31,1.55-1.55l2.93-7.22h-1.01c-.89,2.21-1.77,4.41-1.8,5.33-.12-.77-.12-1.13-1.96-5.33h-1.07Zm6.4,5.55c1.01.55,1.84.61,2.3.61,1.81,0,2.2-1.12,2.2-1.86,0-.88-.62-1.44-1.17-1.69-.84-.38-2.28-.2-2.28-1.19,0-.34.2-.82,1.13-.82s1.4.24,1.94.5l.15-.89c-.74-.31-1.22-.42-1.97-.42-1.84,0-2.21,1.07-2.21,1.78,0,.95.81,1.47,1.4,1.66.42.14,1,.2,1.3.3.27.08.76.35.76.86,0,.36-.24.92-1.26.92-1.09,0-1.74-.46-2.12-.68l-.16.92Zm6.1.46h1.13v-1.13h-1.13v1.13Zm7.43-8.41h3.51s0,8.41,0,8.41h1.2v-8.42h1.58s1.92.01,1.92.01v-.89h-8.21v.89Zm9.79,8.41h1.05v-3.24c0-1,.34-2.08,1.38-2.08,1.32,0,1.32,1.01,1.32,1.53v3.79h1.05v-3.89c0-.82-.05-2.25-1.85-2.25-.93,0-1.51.45-1.94.96v-4.56h-1.01v9.75Zm6.36-3.05c0,1.67,1.17,3.2,2.94,3.2.85,0,1.55-.3,2.13-.69l-.08-.89c-.59.43-1.2.74-2.05.74-1.03,0-1.94-.89-2-2.28h4.19v-.39c-.12-2.31-1.44-2.86-2.4-2.86-1.43,0-2.73,1.36-2.73,3.17Zm1.01-.66c.15-.66.69-1.67,1.71-1.67.39,0,1.4.18,1.63,1.67h-3.35Zm5.62,3.71h1.01v-2.78c0-1.97,1.5-2.43,2.3-2.46v-.9c-1.43.03-2.15.95-2.36,1.28v-1.22h-.95v6.08Zm3.98-3.05c0,1.67,1.17,3.2,2.94,3.2.85,0,1.55-.3,2.13-.69l-.08-.89c-.59.43-1.2.74-2.05.74-1.03,0-1.94-.89-2-2.28h4.19v-.39c-.12-2.31-1.44-2.86-2.4-2.86-1.43,0-2.73,1.36-2.73,3.17Zm1.01-.66c.15-.66.69-1.67,1.71-1.67.39,0,1.4.18,1.63,1.67h-3.35Zm4.89-1.5h1v5.21h1.01v-5.21h1.49v-.8h-1.53v-1.84c0-1.04.82-1.23,1.26-1.23s.78.11,1.09.23v-.9c-.31-.08-.65-.15-1.07-.15-1.09,0-2.27.81-2.27,2.58,0,.11.01.22.01.32v.99h-1v.8Zm4.16,2.23c0,1.84,1.42,3.13,2.96,3.13s2.97-1.28,2.97-3.12c0-1.69-1.24-3.25-2.97-3.25-1.59,0-2.96,1.4-2.96,3.24Zm1.05-.14c0-1.63,1.04-2.27,1.9-2.27s1.9.62,1.9,2.27-1,2.4-1.9,2.4-1.9-.7-1.9-2.4Zm6.01,3.12h1.01v-2.78c0-1.97,1.5-2.43,2.3-2.46v-.9c-1.43.03-2.15.95-2.36,1.28v-1.22h-.95v6.08Zm3.98-3.05c0,1.67,1.17,3.2,2.94,3.2.85,0,1.55-.3,2.13-.69l-.08-.89c-.59.43-1.2.74-2.05.74-1.03,0-1.94-.89-2-2.28h4.19v-.39c-.12-2.31-1.44-2.86-2.4-2.86-1.43,0-2.73,1.36-2.73,3.17Zm1.01-.66c.15-.66.69-1.67,1.71-1.67.39,0,1.4.18,1.63,1.67h-3.35Zm5.82,3.71h.35l-.35,1.69h.57l.55-1.69v-.19s.01-.95.01-.95h-1.13v1.13Zm7.55-1.53c0,.62.41,1.67,1.54,1.67,1.49,0,2.23-.61,2.24-.62v.47h1.03v-4.12c-.07-1.13-.96-2.11-2.24-2.11-.85,0-1.47.22-2.12.59l.08.9c.45-.31,1.01-.69,2.03-.69.18,0,.53.01.85.41.34.41.34.86.35,1.24v.46c-1.39.01-3.75.35-3.75,1.78Zm.99-.01c0-.85,1.8-1.05,2.77-1.07v.85c0,.88-.93,1.07-1.51,1.07-.73,0-1.26-.36-1.26-.85Zm5.98,1.54h1.05v-3.24c0-1,.34-2.08,1.38-2.08,1.32,0,1.32,1.01,1.32,1.53v3.79h1.05v-3.89c0-.95-.12-2.25-1.85-2.25-1.19,0-1.78.77-1.97,1.01v-.95h-.99v6.08Zm10.8-2.98c0,1.84,1.42,3.13,2.96,3.13s2.97-1.28,2.97-3.12c0-1.69-1.24-3.25-2.97-3.25-1.59,0-2.96,1.4-2.96,3.24Zm1.05-.14c0-1.63,1.04-2.27,1.9-2.27s1.9.62,1.9,2.27-1,2.4-1.9,2.4-1.9-.7-1.9-2.4Zm6.39,5.75h1.05v-3.25c.45.42,1.03.77,1.82.77,1.31,0,2.51-1.27,2.51-3.17,0-1.61-.85-3.12-2.13-3.12-.46,0-1.38.09-2.24.8v-.66h-1.01v8.64Zm1.05-4.33v-2.81c.08-.09.54-.77,1.43-.77,1.11,0,1.84,1.09,1.84,2.28,0,1.43-1.01,2.32-1.96,2.32-.8,0-1.31-.7-1.31-1.03Zm5.67-1.35c0,1.67,1.17,3.2,2.94,3.2.85,0,1.55-.3,2.13-.69l-.08-.89c-.59.43-1.2.74-2.05.74-1.03,0-1.94-.89-2-2.28h4.19v-.39c-.12-2.31-1.44-2.86-2.4-2.86-1.43,0-2.73,1.36-2.73,3.17Zm1.01-.66c.15-.66.69-1.67,1.71-1.67.39,0,1.4.18,1.63,1.67h-3.35Zm5.62,3.71h1.01v-2.78c0-1.97,1.5-2.43,2.3-2.46v-.9c-1.43.03-2.15.95-2.36,1.28v-1.22h-.95v6.08Zm4.12-1.53c0,.62.41,1.67,1.54,1.67,1.49,0,2.23-.61,2.24-.62v.47h1.03v-4.12c-.07-1.13-.96-2.11-2.24-2.11-.85,0-1.47.22-2.12.59l.08.9c.45-.31,1.01-.69,2.03-.69.18,0,.53.01.85.41.34.41.34.86.35,1.24v.46c-1.39.01-3.75.35-3.75,1.78Zm.99-.01c0-.85,1.8-1.05,2.77-1.07v.85c0,.88-.93,1.07-1.51,1.07-.73,0-1.26-.36-1.26-.85Zm5.14-3.67h1.13v3.63c0,1.49.66,1.73,1.11,1.73.61,0,1.3-.14,2-.51l-.22-.8c-.19.14-.61.45-1.19.45-.7,0-.73-.8-.73-1.17v-3.32h1.9v-.8h-1.9v-1.7h-.95v1.7h-1.16v.8Zm5.72,5.21h1.01v-6.01h-1.01v6.01Zm-.09-7.97h1.22v-1.2h-1.22v1.2Zm2.63,4.98c0,1.84,1.42,3.13,2.96,3.13s2.97-1.28,2.97-3.12c0-1.69-1.24-3.25-2.97-3.25-1.59,0-2.96,1.4-2.96,3.24Zm1.05-.14c0-1.63,1.04-2.27,1.9-2.27s1.9.62,1.9,2.27-1,2.4-1.9,2.4-1.9-.7-1.9-2.4Zm6.37,3.12h1.05v-3.24c0-1,.34-2.08,1.38-2.08,1.32,0,1.32,1.01,1.32,1.53v3.79h1.05v-3.89c0-.95-.12-2.25-1.85-2.25-1.19,0-1.78.77-1.97,1.01v-.95h-.99v6.08Z"/>
    </g>
    <g>
      <g>
        <path class="cls-11" d="m17.34,41.62l.64-3.49c.11-.6.21-.69.78-.73l.64-.05.05-.43h-.37l-1.38.05c-.24,0-.52,0-1.18-.02l-.98-.03-.05.43.72.03c.37.02.54.14.54.41,0,.21-.06.69-.14,1.16l-1.13,6.64c-.26,1.41-.28,1.42-.89,1.48l-.63.05-.06.43.64-.02c.73-.02,1.09-.03,1.38-.03l1.48.05h.4l.05-.43-.75-.05c-.41-.03-.55-.14-.55-.46,0-.14.02-.24.06-.54l.64-3.78.93-.02c.95-.02,1.59-.03,1.88-.03s.92.02,1.88.03l.93.02-.61,3.29c-.14.75-.24,1.18-.32,1.27-.06.12-.23.18-.57.21l-.77.05-.06.43.86-.02c.67-.02,1.13-.03,1.3-.03.24,0,.72.02,1.38.03l.64.02.05-.43-.89-.05c-.4-.02-.55-.14-.55-.46,0-.14.02-.28.06-.54l1.41-7.96c.11-.6.2-.67.78-.73l.55-.05.05-.43h-.24l-1.39.05c-.23,0-.55,0-1.22-.02l-.96-.03-.05.43.73.03c.37.02.54.14.54.41,0,.21-.06.7-.14,1.16l-.46,2.66h-5.66Z"/>
        <path class="cls-11" d="m30.78,45.82c-.46,0-.87.43-.87.89s.41.89.86.89c.49,0,.92-.41.92-.89s-.43-.89-.9-.89Zm0-5.28c-.46,0-.87.43-.87.89s.41.89.86.89c.49,0,.92-.41.92-.87s-.43-.9-.9-.9Z"/>
        <path class="cls-11" d="m41.91,41.84c-.14,0-.28,0-.41-.02l-.09.18,4.24,5.55c.35-.02.69-.05,1.04-.05s.7.03,1.1.05v-.46c-.37-.03-.7-.11-.93-.4l-3.47-4.53c1.48-.29,2.98-1.29,2.98-2.95,0-1.07-.61-2.3-2.92-2.3h-7.34v.46l.67.05c.63.05.78.17.78,1.38v6.87c0,1.21-.15,1.36-.78,1.39l-.67.03v.46s.84-.05,3.27-.05c.7,0,2.2.02,3,.05v-.46l-.73-.03c-.67-.03-.78-.18-.78-1.39v-7.99c.43-.11.86-.18,1.56-.18,1.19,0,2.42.46,2.42,2.11,0,.89-.63,2.22-2.92,2.22Zm-3.17,5.2c-.41,0-.49-.23-.49-1.36v-6.87c0-1.13.09-1.32.5-1.36.58.06.64.17.64,1.36v6.87c0,1.15-.08,1.36-.66,1.36Z"/>
        <path class="cls-11" d="m53.58,39.09c0-1.3-1.15-1.52-1.65-1.61.86-.66,1.18-1.16,1.18-1.79,0-.95-.79-1.59-1.98-1.59-.73,0-1.21.2-1.72.72l-.31,1.33h.33l.19-.6c.12-.36.79-.73,1.35-.73.7,0,1.26.57,1.26,1.24,0,.8-.63,1.48-1.39,1.48-.09,0-.2-.01-.34-.02h-.16s-.13.56-.13.56l.07.06c.41-.18.61-.24.9-.24.89,0,1.4.57,1.4,1.54,0,1.09-.65,1.81-1.65,1.81-.49,0-.93-.16-1.25-.46-.26-.24-.4-.48-.6-1.06l-.29.11c.22.65.31,1.04.37,1.57.57.19,1.04.28,1.44.28,1.32,0,2.98-1.15,2.98-2.61Z"/>
        <path class="cls-11" d="m67.29,46.95l-3.6-3.58,3.6-3.58-.66-.64-3.56,3.58-3.58-3.58-.64.64,3.58,3.58-3.58,3.58.64.64,3.58-3.58,3.56,3.58.66-.64Z"/>
        <path class="cls-11" d="m77.38,41.84c-.14,0-.28,0-.41-.02l-.09.18,4.24,5.55c.35-.02.69-.05,1.04-.05s.7.03,1.1.05v-.46c-.37-.03-.7-.11-.93-.4l-3.47-4.53c1.48-.29,2.98-1.29,2.98-2.95,0-1.07-.61-2.3-2.92-2.3h-7.34v.46l.67.05c.63.05.78.17.78,1.38v6.87c0,1.21-.15,1.36-.78,1.39l-.67.03v.46s.84-.05,3.27-.05c.7,0,2.2.02,3,.05v-.46l-.73-.03c-.67-.03-.78-.18-.78-1.39v-7.99c.43-.11.86-.18,1.56-.18,1.19,0,2.42.46,2.42,2.11,0,.89-.63,2.22-2.92,2.22Zm-3.17,5.2c-.41,0-.49-.23-.49-1.36v-6.87c0-1.13.09-1.32.5-1.36.58.06.64.17.64,1.36v6.87c0,1.15-.08,1.36-.66,1.36Z"/>
        <path class="cls-11" d="m87.1,39.55v.8c0,.64-.12.79-.64.81l-.66.03v.32q1.42-.03,1.68-.03t1.68.03v-.32l-.51-.03c-.52-.03-.64-.17-.64-.81v-.8c.63,0,.86.01,1.16.04v-.76l-1.16.03v-4.84s-.85.32-.85.32l-3.03,4.96v.25h2.98Zm0-.69h-2.3l2.3-3.77v3.77Z"/>
        <path class="cls-11" d="m107.93,43.35l-3.15-3.27-.49.52,1.91,2.33h-11.8v.9h11.8l-1.91,2.33.49.52,3.15-3.32Z"/>
        <path class="cls-11" d="m118.11,41.84c-.14,0-.28,0-.41-.02l-.09.18,4.24,5.55c.35-.02.69-.05,1.04-.05s.7.03,1.1.05v-.46c-.37-.03-.7-.11-.93-.4l-3.47-4.53c1.48-.29,2.98-1.29,2.98-2.95,0-1.07-.61-2.3-2.92-2.3h-7.34v.46l.67.05c.63.05.78.17.78,1.38v6.87c0,1.21-.15,1.36-.78,1.39l-.67.03v.46s.84-.05,3.27-.05c.7,0,2.2.02,3,.05v-.46l-.73-.03c-.67-.03-.78-.18-.78-1.39v-7.99c.43-.11.86-.18,1.56-.18,1.19,0,2.42.46,2.42,2.11,0,.89-.63,2.22-2.92,2.22Zm-3.17,5.2c-.41,0-.49-.23-.49-1.36v-6.87c0-1.13.09-1.32.5-1.36.58.06.64.17.64,1.36v6.87c0,1.15-.08,1.36-.66,1.36Z"/>
        <path class="cls-11" d="m125.01,41.24v.28c2,0,2-.03,2.39-.03s.39.03,2.45.03v-.91c-1.23.05-1.72.01-3.71.05l1.95-2.07c1.04-1.1,1.36-1.69,1.36-2.5,0-1.23-.84-1.99-2.2-1.99-.77,0-1.3.21-1.82.75l-.18,1.46h.31l.14-.49c.17-.62.56-.89,1.27-.89.92,0,1.51.58,1.51,1.49,0,.8-.45,1.6-1.66,2.88l-1.82,1.94Z"/>
      </g>
      <path class="cls-11" d="m136.07,43.7c0,1.73,1.27,3.16,2.93,3.16.93,0,1.59-.3,2.2-.69l-.07-.9c-.43.3-1.07.73-2.12.73-1.13,0-1.89-.99-1.89-2.3,0-1.17.59-2.35,1.9-2.35,1.07,0,1.42.28,1.94.62l.16-.89c-.82-.47-1.26-.59-2.09-.59-1.89,0-2.97,1.65-2.97,3.21Zm6.12,1.49c0,.62.41,1.67,1.54,1.67,1.49,0,2.23-.61,2.24-.62v.47h1.03v-4.12c-.07-1.13-.96-2.11-2.24-2.11-.85,0-1.47.22-2.12.59l.08.9c.45-.31,1.01-.69,2.03-.69.18,0,.53.01.85.41.34.41.34.86.35,1.24v.46c-1.39.01-3.75.35-3.75,1.78Zm.99-.01c0-.85,1.8-1.05,2.77-1.07v.85c0,.88-.93,1.07-1.51,1.07-.73,0-1.26-.36-1.26-.85Zm5.98,1.54h1.05v-3.24c0-1,.34-2.08,1.38-2.08,1.32,0,1.32,1.01,1.32,1.53v3.79h1.05v-3.89c0-.95-.12-2.25-1.85-2.25-1.19,0-1.78.77-1.97,1.01v-.95h-.99v6.08Zm11.49,0h1.05v-.62c.46.42,1.01.77,1.81.77,1.34,0,2.52-1.31,2.52-3.17,0-1.62-.88-3.12-2.21-3.12-.42,0-1.3.09-2.16.78v-4.39h-1.01v9.75Zm1.05-1.8v-2.52c0-.5.74-1,1.44-1s1.82.51,1.82,2.31-1.16,2.34-1.93,2.34c-.39,0-.8-.16-1.11-.54-.18-.26-.23-.23-.23-.58Zm5.67-1.26c0,1.67,1.17,3.2,2.94,3.2.85,0,1.55-.3,2.13-.69l-.08-.89c-.59.43-1.2.74-2.05.74-1.03,0-1.94-.89-2-2.28h4.19v-.39c-.12-2.31-1.44-2.86-2.4-2.86-1.43,0-2.73,1.36-2.73,3.17Zm1.01-.66c.15-.66.69-1.67,1.71-1.67.39,0,1.4.18,1.63,1.67h-3.35Zm10.11,3.71h1.01v-9.75h-1.01v9.75Zm3.23,0h1.01v-6.01h-1.01v6.01Zm-.09-7.97h1.22v-1.2h-1.22v1.2Zm2.59,2.75h1v5.21h1.01v-5.21h1.49v-.8h-1.53v-1.84c0-1.04.82-1.23,1.26-1.23s.78.11,1.09.23v-.9c-.31-.08-.65-.15-1.07-.15-1.09,0-2.27.81-2.27,2.58,0,.11.01.22.01.32v.99h-1v.8Zm4,0h1.13v3.63c0,1.49.66,1.73,1.11,1.73.61,0,1.3-.14,2-.51l-.22-.8c-.19.14-.61.45-1.19.45-.7,0-.73-.8-.73-1.17v-3.32h1.9v-.8h-1.9v-1.7h-.95v1.7h-1.16v.8Zm5.09,2.16c0,1.67,1.17,3.2,2.94,3.2.85,0,1.55-.3,2.13-.69l-.08-.89c-.59.43-1.2.74-2.05.74-1.03,0-1.94-.89-2-2.28h4.19v-.39c-.12-2.31-1.44-2.86-2.4-2.86-1.43,0-2.73,1.36-2.73,3.17Zm1.01-.66c.15-.66.69-1.67,1.71-1.67.39,0,1.4.18,1.63,1.67h-3.35Zm5,.73c0,1.61.95,3.13,2.32,3.13.89,0,1.54-.41,2-.85v.7h1.07v-9.75h-1.03v4.33c-.47-.38-1.11-.74-1.96-.74-1.34,0-2.4,1.39-2.4,3.17Zm1.05-.01c0-1.77,1.17-2.32,1.96-2.32h.03c.15,0,.58.01,1,.41.24.23.28.31.28.53v2.58c0,.42-.63,1.12-1.44,1.12-.73,0-1.82-.53-1.82-2.31Zm10.19-2.21h1.13v3.63c0,1.49.66,1.73,1.11,1.73.61,0,1.3-.14,2-.51l-.22-.8c-.19.14-.61.45-1.19.45-.7,0-.73-.8-.73-1.17v-3.32h1.9v-.8h-1.9v-1.7h-.95v1.7h-1.16v.8Zm5.04,2.23c0,1.84,1.42,3.13,2.96,3.13s2.97-1.28,2.97-3.12c0-1.69-1.24-3.25-2.97-3.25-1.59,0-2.96,1.4-2.96,3.24Zm1.05-.14c0-1.63,1.04-2.27,1.9-2.27s1.9.62,1.9,2.27-1,2.4-1.9,2.4-1.9-.7-1.9-2.4Zm10.38,1.59c0,.62.41,1.67,1.54,1.67,1.49,0,2.23-.61,2.24-.62v.47h1.03v-4.12c-.07-1.13-.96-2.11-2.24-2.11-.85,0-1.47.22-2.12.59l.08.9c.45-.31,1.01-.69,2.03-.69.18,0,.53.01.85.41.34.41.34.86.35,1.24v.46c-1.39.01-3.75.35-3.75,1.78Zm.99-.01c0-.85,1.8-1.05,2.77-1.07v.85c0,.88-.93,1.07-1.51,1.07-.73,0-1.26-.36-1.26-.85Zm5.98,1.54h1.05v-3.24c0-1,.34-2.08,1.38-2.08,1.32,0,1.32,1.01,1.32,1.53v3.79h1.05v-3.89c0-.95-.12-2.25-1.85-2.25-1.19,0-1.78.77-1.97,1.01v-.95h-.99v6.08Zm10.8-2.98c0,1.84,1.42,3.13,2.96,3.13s2.97-1.28,2.97-3.12c0-1.69-1.24-3.25-2.97-3.25-1.59,0-2.96,1.4-2.96,3.24Zm1.05-.14c0-1.63,1.04-2.27,1.9-2.27s1.9.62,1.9,2.27-1,2.4-1.9,2.4-1.9-.7-1.9-2.4Zm6.39,5.75h1.05v-3.25c.45.42,1.03.77,1.82.77,1.31,0,2.51-1.27,2.51-3.17,0-1.61-.85-3.12-2.13-3.12-.46,0-1.38.09-2.24.8v-.66h-1.01v8.64Zm1.05-4.33v-2.81c.08-.09.54-.77,1.43-.77,1.11,0,1.84,1.09,1.84,2.28,0,1.43-1.01,2.32-1.96,2.32-.8,0-1.31-.7-1.31-1.03Zm5.67-1.35c0,1.67,1.17,3.2,2.94,3.2.85,0,1.55-.3,2.13-.69l-.08-.89c-.59.43-1.2.74-2.05.74-1.03,0-1.94-.89-2-2.28h4.19v-.39c-.12-2.31-1.44-2.86-2.4-2.86-1.43,0-2.73,1.36-2.73,3.17Zm1.01-.66c.15-.66.69-1.67,1.71-1.67.39,0,1.4.18,1.63,1.67h-3.35Zm5.62,3.71h1.01v-2.78c0-1.97,1.5-2.43,2.3-2.46v-.9c-1.43.03-2.15.95-2.36,1.28v-1.22h-.95v6.08Zm4.12-1.53c0,.62.41,1.67,1.54,1.67,1.49,0,2.23-.61,2.24-.62v.47h1.03v-4.12c-.07-1.13-.96-2.11-2.24-2.11-.85,0-1.47.22-2.12.59l.08.9c.45-.31,1.01-.69,2.03-.69.18,0,.53.01.85.41.34.41.34.86.35,1.24v.46c-1.39.01-3.75.35-3.75,1.78Zm.99-.01c0-.85,1.8-1.05,2.77-1.07v.85c0,.88-.93,1.07-1.51,1.07-.73,0-1.26-.36-1.26-.85Zm5.14-3.67h1.13v3.63c0,1.49.66,1.73,1.11,1.73.61,0,1.3-.14,2-.51l-.22-.8c-.19.14-.61.45-1.19.45-.7,0-.73-.8-.73-1.17v-3.32h1.9v-.8h-1.9v-1.7h-.95v1.7h-1.16v.8Zm5.72,5.21h1.01v-6.01h-1.01v6.01Zm-.09-7.97h1.22v-1.2h-1.22v1.2Zm2.63,4.98c0,1.84,1.42,3.13,2.96,3.13s2.97-1.28,2.97-3.12c0-1.69-1.24-3.25-2.97-3.25-1.59,0-2.96,1.4-2.96,3.24Zm1.05-.14c0-1.63,1.04-2.27,1.9-2.27s1.9.62,1.9,2.27-1,2.4-1.9,2.4-1.9-.7-1.9-2.4Zm6.37,3.12h1.05v-3.24c0-1,.34-2.08,1.38-2.08,1.32,0,1.32,1.01,1.32,1.53v3.79h1.05v-3.89c0-.95-.12-2.25-1.85-2.25-1.19,0-1.78.77-1.97,1.01v-.95h-.99v6.08Z"/>
      <g>
        <path class="cls-11" d="m308.06,41.84c-.14,0-.28,0-.41-.02l-.09.18,4.24,5.55c.35-.02.69-.05,1.04-.05s.7.03,1.1.05v-.46c-.37-.03-.7-.11-.93-.4l-3.47-4.53c1.48-.29,2.98-1.29,2.98-2.95,0-1.07-.61-2.3-2.92-2.3h-7.34v.46l.67.05c.63.05.78.17.78,1.38v6.87c0,1.21-.15,1.36-.78,1.39l-.67.03v.46s.84-.05,3.27-.05c.7,0,2.2.02,3,.05v-.46l-.73-.03c-.67-.03-.78-.18-.78-1.39v-7.99c.43-.11.86-.18,1.56-.18,1.19,0,2.42.46,2.42,2.11,0,.89-.63,2.22-2.92,2.22Zm-3.17,5.2c-.41,0-.49-.23-.49-1.36v-6.87c0-1.13.09-1.32.5-1.36.58.06.64.17.64,1.36v6.87c0,1.15-.08,1.36-.66,1.36Z"/>
        <path class="cls-11" d="m317.79,38.55v.8c0,.64-.12.79-.64.81l-.66.03v.32q1.42-.03,1.68-.03t1.68.03v-.32l-.51-.03c-.52-.03-.64-.17-.64-.81v-.8c.63,0,.86.01,1.16.04v-.76l-1.16.03v-4.84s-.85.32-.85.32l-3.03,4.96v.25h2.98Zm0-.69h-2.3l2.3-3.77v3.77Zm8.89,2.23l-2.52-2.51,2.52-2.51-.46-.45-2.5,2.51-2.51-2.51-.45.45,2.51,2.51-2.51,2.51.45.45,2.51-2.51,2.5,2.51.46-.45Zm5.56-2c0-1.3-1.15-1.52-1.65-1.61.86-.66,1.18-1.16,1.18-1.79,0-.95-.79-1.59-1.98-1.59-.73,0-1.21.2-1.72.72l-.31,1.33h.33l.19-.6c.12-.36.79-.73,1.35-.73.7,0,1.26.57,1.26,1.24,0,.8-.63,1.48-1.39,1.48-.09,0-.2-.01-.34-.02h-.16s-.13.56-.13.56l.07.06c.41-.18.61-.24.9-.24.89,0,1.4.57,1.4,1.54,0,1.09-.65,1.81-1.65,1.81-.49,0-.93-.16-1.25-.46-.26-.24-.4-.48-.6-1.06l-.29.11c.22.65.31,1.04.37,1.57.57.19,1.04.28,1.44.28,1.32,0,2.98-1.15,2.98-2.61Z"/>
        <path class="cls-11" d="m345.93,46.95l-3.6-3.58,3.6-3.58-.66-.64-3.56,3.58-3.58-3.58-.64.64,3.58,3.58-3.58,3.58.64.64,3.58-3.58,3.56,3.58.66-.64Z"/>
        <path class="cls-11" d="m356.02,41.84c-.14,0-.28,0-.41-.02l-.09.18,4.24,5.55c.35-.02.69-.05,1.04-.05s.7.03,1.1.05v-.46c-.37-.03-.7-.11-.93-.4l-3.47-4.53c1.48-.29,2.98-1.29,2.98-2.95,0-1.07-.61-2.3-2.92-2.3h-7.34v.46l.67.05c.63.05.78.17.78,1.38v6.87c0,1.21-.15,1.36-.78,1.39l-.67.03v.46s.84-.05,3.27-.05c.7,0,2.2.02,3,.05v-.46l-.73-.03c-.67-.03-.78-.18-.78-1.39v-7.99c.43-.11.86-.18,1.56-.18,1.19,0,2.42.46,2.42,2.11,0,.89-.63,2.22-2.92,2.22Zm-3.17,5.2c-.41,0-.49-.23-.49-1.36v-6.87c0-1.13.09-1.32.5-1.36.58.06.64.17.64,1.36v6.87c0,1.15-.08,1.36-.66,1.36Z"/>
        <path class="cls-11" d="m365.74,39.55v.8c0,.64-.12.79-.64.81l-.66.03v.32q1.42-.03,1.68-.03t1.68.03v-.32l-.51-.03c-.52-.03-.64-.17-.64-.81v-.8c.63,0,.86.01,1.16.04v-.76l-1.16.03v-4.84s-.85.32-.85.32l-3.03,4.96v.25h2.98Zm0-.69h-2.3l2.3-3.77v3.77Z"/>
        <path class="cls-11" d="m386.57,43.35l-3.15-3.27-.49.52,1.91,2.33h-11.8v.9h11.8l-1.91,2.33.49.52,3.15-3.32Z"/>
        <path class="cls-11" d="m396.75,41.84c-.14,0-.28,0-.41-.02l-.09.18,4.24,5.55c.35-.02.69-.05,1.04-.05s.7.03,1.1.05v-.46c-.37-.03-.7-.11-.93-.4l-3.47-4.53c1.48-.29,2.98-1.29,2.98-2.95,0-1.07-.61-2.3-2.92-2.3h-7.34v.46l.67.05c.63.05.78.17.78,1.38v6.87c0,1.21-.15,1.36-.78,1.39l-.67.03v.46s.84-.05,3.27-.05c.7,0,2.2.02,3,.05v-.46l-.73-.03c-.67-.03-.78-.18-.78-1.39v-7.99c.43-.11.86-.18,1.56-.18,1.19,0,2.42.46,2.42,2.11,0,.89-.63,2.22-2.92,2.22Zm-3.17,5.2c-.41,0-.49-.23-.49-1.36v-6.87c0-1.13.09-1.32.5-1.36.58.06.64.17.64,1.36v6.87c0,1.15-.08,1.36-.66,1.36Z"/>
        <path class="cls-11" d="m406.47,38.55v.8c0,.64-.12.79-.64.81l-.66.03v.32q1.42-.03,1.68-.03t1.68.03v-.32l-.51-.03c-.52-.03-.64-.17-.64-.81v-.8c.63,0,.86.01,1.16.04v-.76l-1.16.03v-4.84s-.85.32-.85.32l-3.03,4.96v.25h2.98Zm0-.69h-2.3l2.3-3.77v3.77Zm8.89,2.23l-2.52-2.51,2.52-2.51-.46-.45-2.5,2.51-2.51-2.51-.45.45,2.51,2.51-2.51,2.51.45.45,2.51-2.51,2.5,2.51.46-.45Zm.78.15v.28c2,0,2-.03,2.39-.03s.39.03,2.45.03v-.91c-1.23.05-1.72.01-3.71.05l1.95-2.07c1.04-1.1,1.36-1.69,1.36-2.5,0-1.23-.84-1.99-2.2-1.99-.77,0-1.3.21-1.82.75l-.18,1.46h.31l.14-.49c.17-.62.56-.89,1.27-.89.92,0,1.51.58,1.51,1.49,0,.8-.45,1.6-1.66,2.88l-1.82,1.94Z"/>
      </g>
      <path class="cls-11" d="m427.81,46.71h1.05v-.62c.46.42,1.01.77,1.81.77,1.34,0,2.52-1.31,2.52-3.17,0-1.62-.88-3.12-2.21-3.12-.42,0-1.3.09-2.16.78v-4.39h-1.01v9.75Zm1.05-1.8v-2.52c0-.5.74-1,1.44-1s1.82.51,1.82,2.31-1.16,2.34-1.93,2.34c-.39,0-.8-.16-1.11-.54-.18-.26-.23-.23-.23-.58Zm4.64-4.21l2.52,5.76c.05.11.07.16.07.23,0,.05-.01.12-.05.22-.58,1.4-.69,1.81-1.26,1.81-.23,0-.53-.08-.99-.23l.07.88c.32.08.73.11.99.11.62,0,1.01-.31,1.55-1.55l2.93-7.22h-1.01c-.89,2.21-1.77,4.41-1.8,5.33-.12-.77-.12-1.13-1.96-5.33h-1.07Z"/>
      <path class="cls-15" d="m444.81,38.26c0,.54.31.62.62.62h.7c.12-.01.59.01.59-.59v-.7c0-.54-.31-.62-.62-.62h-.69c-.26.01-.61,0-.61.62v.68Zm.05,7.78c0,.23-.01.68.59.68h.62c.61,0,.59-.45.59-.61v-4.9c0-.35-.03-.68-.66-.68h-.55c-.61,0-.59.45-.59.61v4.9Zm3.43.07c0,.53.32.61.63.61h.59c.62,0,.62-.72.62-.72v-2.81c0-.24.01-.49.08-.73.12-.42.55-1.09,1.39-1.09s.8.55.8,1.05v3.7c0,.34.09.59.62.59h.63c.55,0,.58-.38.58-.59v-3.56c0-.97,0-2.17-2-2.17-1.09,0-1.71.46-2.19.93v-.27c0-.58-.38-.58-.62-.58h-.54c-.26,0-.61.04-.61.61v5.04Zm7.57,0c0,.53.32.61.63.61h.59c.62,0,.62-.72.62-.72v-2.81c0-.24.01-.49.08-.73.12-.42.55-1.09,1.39-1.09s.8.55.8,1.05v3.7c0,.34.09.59.62.59h.63c.55,0,.58-.38.58-.59v-3.56c0-.97,0-2.17-2-2.17-1.09,0-1.71.46-2.19.93v-.27c0-.58-.38-.58-.62-.58h-.54c-.26,0-.61.04-.61.61v5.04Zm7.18-2.54c0,2.15,1.17,3.29,3.43,3.29.93,0,1.77-.27,2.34-.59.16-.09.22-.15.22-.3,0,0,0-.8-.15-.95l-.07-.03h-.05c-.27.08-.9.88-2.25.88s-1.69-1-1.71-2.05h3.73c.24,0,.59-.03.59-.58,0-1.44-.57-2.94-2.82-2.94-1.94,0-3.24,1-3.24,3.27Zm1.76-.62c.08-.84.41-1.66,1.49-1.66s1.27.76,1.31,1.66h-2.79Zm5.55,3.19c0,.26.05.58.61.58h.58c.23,0,.24-.01.38-.08.22-.18.24-.22.24-.59v-2.36c0-.18,0-.34.04-.51.14-.61.65-1.08,1.23-1.28.45-.15.69-.08.85-.2.05-.08.07-.09.07-.24v-.76c0-.19-.03-.3-.27-.3h-.01c-.24,0-1.26.09-1.97,1.09-.01-.68-.01-.69-.14-.84-.15-.15-.2-.18-.54-.18h-.45c-.28,0-.62.03-.62.61v5.06Zm9.98-.04c0,.34.09.62.62.62h.62c.34,0,.46-.08.59-.36.39.3.88.51,1.53.51,1.38,0,2.88-.62,2.89-3.17,0-.3,0-.92-.15-1.49-.34-1.26-1.23-1.82-2.42-1.82-.77,0-1.36.22-1.88.54v-3.36c0-.32-.12-.59-.59-.59h-.59c-.53,0-.62.27-.62.62v8.51Zm1.85-.74v-3.52c.34-.28.69-.47,1.2-.47,1.32,0,1.35,1.16,1.35,2.2,0,.93.07,2.32-1.5,2.32-.63,0-.9-.36-1.05-.53Zm5.31.78c0,.26.05.58.61.58h.58c.23,0,.24-.01.38-.08.22-.18.24-.22.24-.59v-2.36c0-.18,0-.34.04-.51.14-.61.65-1.08,1.23-1.28.45-.15.69-.08.85-.2.05-.08.07-.09.07-.24v-.76c0-.19-.03-.3-.27-.3h-.01c-.24,0-1.26.09-1.97,1.09-.01-.68-.01-.69-.14-.84-.15-.15-.2-.18-.54-.18h-.45c-.28,0-.62.03-.62.61v5.06Zm4.62-2.44c0,2.54,1.57,3.17,3.31,3.17s3.28-.62,3.28-3.12c0-3.31-2.19-3.44-3.5-3.44-1.53,0-3.09.69-3.09,3.39Zm1.85.14v-.36c0-.93-.03-2.17,1.43-2.17s1.44,1.2,1.46,1.98v.36c-.01.9.03,2.17-1.44,2.17s-1.42-1.19-1.44-1.98Zm5.58,1.04c0,.92.68,2,1.97,2,1.11,0,1.78-.46,2.08-.69,0,.23.12.54.55.54h.65c.54,0,.61-.31.61-.61v-3.55c0-1.35-.62-2.25-2.79-2.25-.85,0-1.51.16-2.12.43-.3.15-.38.14-.38.35,0,0,.04.88.14,1.04l.05.04h.05c.3,0,.7-.92,2.25-.92.85,0,.96.62.96,1.26v.28c-1.2.01-4.02.24-4.02,2.08Zm1.77,0c0-1.05,1.43-1.22,2.25-1.28v1.05c0,1-.88,1.24-1.32,1.24-.58,0-.93-.53-.93-1.01Zm5.4-1.38c0,.45,0,.9.15,1.47.38,1.44,1.46,1.9,2.54,1.9.74,0,1.23-.23,1.71-.58.12.42.38.43.62.43h.62c.57,0,.61-.36.61-.62v-8.52c0-.28-.04-.61-.68-.61h-.54c-.53,0-.59.34-.59.59v3.31c-.49-.31-1.01-.49-1.69-.49-1.42,0-2.71.7-2.75,3.11Zm1.85.24v-.28c0-.82.01-2.08,1.5-2.08.63,0,.96.34,1.05.41v3.31c0,.41-.61.8-1.19.8-1.34,0-1.36-1.19-1.36-2.15Zm5.72-.09c0,2.38,1.34,3.23,3.21,3.23.89,0,1.59-.2,2.19-.51.15-.08.27-.14.27-.34v-.11c-.08-.89-.07-.88-.18-.95h-.07c-.28.03-.77.85-2.17.85s-1.4-1.26-1.4-2.11v-.26c0-.73.01-2.04,1.31-2.09.2,0,.65-.01,1.04.12.58.2.85.65,1.07.65.26,0,.32-1.05.32-1.05,0-.11-.03-.16-.11-.22-.77-.42-1.31-.55-2.19-.55-1.76,0-3.29.68-3.29,3.33Zm6.52,1.23c0,.92.68,2,1.97,2,1.11,0,1.78-.46,2.08-.69,0,.23.12.54.55.54h.65c.54,0,.61-.31.61-.61v-3.55c0-1.35-.62-2.25-2.79-2.25-.85,0-1.51.16-2.12.43-.3.15-.38.14-.38.35,0,0,.04.88.14,1.04l.05.04h.05c.3,0,.7-.92,2.25-.92.85,0,.96.62.96,1.26v.28c-1.2.01-4.02.24-4.02,2.08Zm1.77,0c0-1.05,1.43-1.22,2.25-1.28v1.05c0,1-.88,1.24-1.32,1.24-.58,0-.93-.53-.93-1.01Zm5.33,1.17s.01.07.03.11l.05.07c.34.22,1.22.65,2.42.65,1.34,0,2.43-.41,2.43-2.04,0-1.09-.81-1.63-1.19-1.82-.84-.43-2.34-.27-2.34-1.07,0-.51.45-.65,1-.65,1.31,0,1.67.73,1.96.73.07,0,.12-.05.16-.2.08-.46.14-.7.14-.85,0-.19-.08-.23-.32-.32-.5-.2-1.01-.32-1.65-.34h-.35c-1.13.03-2.27.39-2.27,1.94,0,1.09.9,1.63,1.4,1.82.77.28,2.11.18,2.11,1.01,0,.57-.45.72-1.05.72-1.44,0-1.93-1.01-2.17-1.01-.16,0-.18.22-.19.31-.11.59-.16.82-.16.95Zm5.56-5.02c0,.15.05.5.59.5h.28v3.15c0,.42,0,.82.12,1.23.23.74.74.97,1.28.97,1,0,2.46-.43,2.46-.78,0,0-.11-.74-.31-.74-.18,0-.58.47-1.22.47-.38,0-.57-.24-.57-1.24,0-.12.01-.23.01-.35v-2.7h1.26c.51-.01.58-.35.58-.49,0-.12-.07-.5-.61-.5h-1.23v-1.16c0-.32-.14-.61-.61-.61h-.49c-.23,0-.65.01-.65.61v1.16h-.32c-.54,0-.59.34-.59.49Zm5.93-2.75c0,.54.31.62.62.62h.7c.12-.01.59.01.59-.59v-.7c0-.54-.31-.62-.62-.62h-.69c-.26.01-.61,0-.61.62v.68Zm.05,7.78c0,.23-.01.68.59.68h.62c.61,0,.59-.45.59-.61v-4.9c0-.35-.03-.68-.66-.68h-.55c-.61,0-.59.45-.59.61v4.9Zm3.43.07c0,.53.32.61.63.61h.59c.62,0,.62-.72.62-.72v-2.81c0-.24.01-.49.08-.73.12-.42.55-1.09,1.39-1.09s.8.55.8,1.05v3.7c0,.34.09.59.62.59h.63c.55,0,.58-.38.58-.59v-3.56c0-.97,0-2.17-2-2.17-1.09,0-1.71.46-2.19.93v-.27c0-.58-.38-.58-.62-.58h-.54c-.26,0-.61.04-.61.61v5.04Zm7.1,1.49c0,.24.05.49.16.7.58,1.2,2.39,1.2,3.21,1.2.72,0,1.44-.03,2.12-.28.93-.35,1.24-.99,1.24-1.65,0-2.04-1.8-2.09-3.43-2.09h-1.16c-.69,0-.8-.41-.8-.65,0-.07.01-.16.04-.26.58.23,1.01.27,1.55.27,1.98,0,2.73-.89,2.73-2.23,0-.76-.27-1.15-.32-1.26h.35c.55-.01.84.05.93.05.14,0,.24-.05.23-.26-.11-.66-.09-.77-.39-.77-.86,0-1.61.34-1.74.34-.2,0-.5-.34-1.73-.34h-.04c-2.38,0-2.73,1.35-2.73,2.24,0,.72.26,1.17.54,1.5v.03c-.22.32-.36.69-.36,1.11,0,.45.16.78.35,1.07-.66.36-.76.95-.76,1.27Zm1.39-.03c0-.66.55-.62.77-.62h1.32c1.22,0,1.86.14,1.86.68,0,.36-.3.9-1.9.9h-.05c-1.05,0-2-.19-2-.96Zm.58-4.85v-.22c0-.81.19-1.15,1.01-1.15s.96.46.96,1.15v.22c0,.8-.18,1.15-1.01,1.15s-.96-.51-.96-1.15Zm6.29,3.69c0,.16.03.31.31.31h1.17c.3-.01.28-.14.28-.38v-1.11c0-.16-.01-.28-.3-.28h-1.17c-.3,0-.28.12-.3.38v1.08Z"/>
    </g>
    <path class="cls-11" d="m439.25,182.07v1.15c0,.92-.17,1.13-.92,1.16l-.95.05v.46q2.03-.05,2.4-.05t2.4.05v-.46l-.73-.05c-.75-.05-.92-.24-.92-1.16v-1.15c.9,0,1.22.02,1.65.06v-1.09l-1.65.05.02-6.92-1.22.46-4.33,7.08v.35h4.25Zm0-.98h-3.29l3.29-5.39v5.39Z"/>
    <path class="cls-11" d="m442.82,152.73c0-2.06-1.82-2.41-2.62-2.55,1.36-1.05,1.87-1.84,1.87-2.84,0-1.51-1.26-2.52-3.15-2.52-1.16,0-1.92.32-2.74,1.14l-.49,2.11h.53l.31-.95c.19-.58,1.26-1.16,2.14-1.16,1.11,0,2.01.9,2.01,1.97,0,1.28-1,2.35-2.21,2.35-.14,0-.32-.02-.54-.03l-.26-.02-.2.9.12.1c.65-.29.97-.37,1.43-.37,1.41,0,2.23.9,2.23,2.45,0,1.73-1.04,2.87-2.62,2.87-.78,0-1.48-.26-1.99-.73-.41-.37-.63-.77-.95-1.68l-.46.17c.36,1.04.49,1.65.6,2.5.9.31,1.65.44,2.28.44,2.09,0,4.73-1.82,4.73-4.15Z"/>
    <path class="cls-11" d="m354.73,183.46v1.28c0,1.02-.19,1.26-1.02,1.29l-1.05.05v.51q2.26-.05,2.67-.05t2.67.05v-.51l-.82-.05c-.83-.05-1.02-.27-1.02-1.29v-1.28c1,0,1.36.02,1.84.07v-1.21l-1.84.05.02-7.68-1.36.51-4.81,7.87v.39h4.73Zm0-1.09h-3.66l3.66-5.98v5.98Z"/>
    <path class="cls-11" d="m357.82,77.73c0-2.06-1.82-2.41-2.62-2.55,1.36-1.05,1.87-1.84,1.87-2.84,0-1.51-1.26-2.52-3.15-2.52-1.16,0-1.92.32-2.74,1.14l-.49,2.11h.53l.31-.95c.19-.58,1.26-1.16,2.14-1.16,1.11,0,2.01.9,2.01,1.97,0,1.28-1,2.35-2.21,2.35-.14,0-.32-.02-.54-.03l-.26-.02-.2.9.12.1c.65-.29.97-.37,1.43-.37,1.41,0,2.23.9,2.23,2.45,0,1.73-1.04,2.87-2.62,2.87-.78,0-1.48-.26-1.99-.73-.41-.37-.63-.77-.95-1.68l-.46.17c.36,1.04.49,1.65.6,2.5.9.31,1.65.44,2.28.44,2.09,0,4.73-1.82,4.73-4.15Z"/>
    <path class="cls-11" d="m439.73,128.46v1.28c0,1.02-.19,1.26-1.02,1.29l-1.05.05v.51q2.26-.05,2.67-.05t2.67.05v-.51l-.82-.05c-.83-.05-1.02-.27-1.02-1.29v-1.28c1,0,1.36.02,1.84.07v-1.21l-1.84.05.02-7.68-1.36.51-4.81,7.87v.39h4.73Zm0-1.09h-3.66l3.66-5.98v5.98Z"/>
    <path class="cls-11" d="m483.47,173.08l.86-4.65c.14-.8.29-.92,1.04-.98l.86-.06.06-.57h-.49l-1.84.06c-.33,0-.69,0-1.57-.02l-1.31-.04-.06.57.96.04c.49.02.71.18.71.55,0,.29-.08.92-.18,1.55l-1.51,8.85c-.35,1.88-.37,1.9-1.18,1.98l-.84.06-.08.57.86-.02c.98-.02,1.45-.04,1.84-.04l1.98.06h.53l.06-.57-1-.06c-.55-.04-.73-.18-.73-.61,0-.18.02-.33.08-.71l.86-5.04,1.24-.02c1.26-.02,2.12-.04,2.51-.04s1.22.02,2.51.04l1.24.02-.82,4.39c-.18,1-.33,1.57-.43,1.69-.08.16-.31.24-.75.29l-1.02.06-.08.57,1.14-.02c.9-.02,1.51-.04,1.73-.04.33,0,.96.02,1.84.04l.86.02.06-.57-1.18-.06c-.53-.02-.73-.18-.73-.61,0-.18.02-.37.08-.71l1.88-10.61c.14-.8.27-.9,1.04-.98l.73-.06.06-.57h-.33l-1.86.06c-.31,0-.73,0-1.63-.02l-1.29-.04-.06.57.98.04c.49.02.71.18.71.55,0,.29-.08.94-.18,1.55l-.61,3.55h-7.55Z"/>
    <path class="cls-11" d="m529.24,156.15v.44c3.18,0,3.18-.05,3.79-.05s.61.05,3.89.05v-1.45c-1.96.09-2.74.02-5.88.09l3.09-3.28c1.65-1.75,2.16-2.69,2.16-3.96,0-1.96-1.33-3.16-3.49-3.16-1.22,0-2.06.34-2.89,1.19l-.29,2.31h.49l.22-.78c.27-.99.88-1.41,2.02-1.41,1.46,0,2.4.92,2.4,2.36,0,1.28-.71,2.53-2.64,4.57l-2.89,3.08Z"/>
    <path class="cls-11" d="m533.73,128.46v1.28c0,1.02-.19,1.26-1.02,1.29l-1.05.05v.51q2.26-.05,2.67-.05t2.67.05v-.51l-.82-.05c-.83-.05-1.02-.27-1.02-1.29v-1.28c1,0,1.36.02,1.84.07v-1.21l-1.84.05.02-7.68-1.36.51-4.81,7.87v.39h4.73Zm0-1.09h-3.66l3.66-5.98v5.98Z"/>
    <path class="cls-11" d="m590.24,106.15v.44c3.18,0,3.18-.05,3.79-.05s.61.05,3.89.05v-1.45c-1.96.09-2.74.02-5.88.09l3.09-3.28c1.65-1.75,2.16-2.69,2.16-3.96,0-1.96-1.33-3.16-3.49-3.16-1.22,0-2.06.34-2.89,1.19l-.29,2.31h.49l.22-.78c.27-.99.88-1.41,2.02-1.41,1.46,0,2.4.92,2.4,2.36,0,1.28-.71,2.53-2.64,4.57l-2.89,3.08Z"/>
    <path class="cls-11" d="m130.28,168.53v1.15c0,.92-.17,1.13-.92,1.16l-.95.05v.46q2.03-.05,2.4-.05t2.4.05v-.46l-.73-.05c-.75-.05-.92-.24-.92-1.16v-1.15c.9,0,1.22.02,1.65.06v-1.09l-1.65.05.02-6.92-1.22.46-4.33,7.08v.35h4.25Zm0-.98h-3.29l3.29-5.39v5.39Z"/>
    <path class="cls-11" d="m133.85,139.19c0-2.06-1.82-2.41-2.62-2.55,1.36-1.05,1.87-1.84,1.87-2.84,0-1.51-1.26-2.52-3.15-2.52-1.16,0-1.92.32-2.74,1.14l-.49,2.11h.53l.31-.95c.19-.58,1.26-1.16,2.14-1.16,1.11,0,2.01.9,2.01,1.97,0,1.28-1,2.35-2.21,2.35-.14,0-.32-.02-.54-.03l-.26-.02-.2.9.12.1c.65-.29.97-.37,1.43-.37,1.41,0,2.23.9,2.23,2.45,0,1.73-1.04,2.87-2.62,2.87-.78,0-1.48-.26-1.99-.73-.41-.37-.63-.77-.95-1.68l-.46.17c.36,1.04.49,1.65.6,2.5.9.31,1.65.44,2.28.44,2.09,0,4.73-1.82,4.73-4.15Z"/>
    <path class="cls-11" d="m45.76,168.92v1.28c0,1.02-.19,1.26-1.02,1.29l-1.05.05v.51q2.26-.05,2.67-.05t2.67.05v-.51l-.82-.05c-.83-.05-1.02-.27-1.02-1.29v-1.28c1,0,1.36.02,1.84.07v-1.21l-1.84.05.02-7.68-1.36.51-4.81,7.87v.39h4.73Zm0-1.09h-3.66l3.66-5.98v5.98Z"/>
    <path class="cls-11" d="m174.51,159.55l.86-4.65c.14-.8.29-.92,1.04-.98l.86-.06.06-.57h-.49l-1.84.06c-.33,0-.69,0-1.57-.02l-1.31-.04-.06.57.96.04c.49.02.71.18.71.55,0,.29-.08.92-.18,1.55l-1.51,8.85c-.35,1.88-.37,1.9-1.18,1.98l-.84.06-.08.57.86-.02c.98-.02,1.45-.04,1.84-.04l1.98.06h.53l.06-.57-1-.06c-.55-.04-.73-.18-.73-.61,0-.18.02-.33.08-.71l.86-5.04,1.24-.02c1.26-.02,2.12-.04,2.51-.04s1.22.02,2.51.04l1.24.02-.82,4.39c-.18,1-.33,1.57-.43,1.69-.08.16-.31.24-.75.29l-1.02.06-.08.57,1.14-.02c.9-.02,1.51-.04,1.73-.04.33,0,.96.02,1.84.04l.86.02.06-.57-1.18-.06c-.53-.02-.73-.18-.73-.61,0-.18.02-.37.08-.71l1.88-10.61c.14-.8.27-.9,1.04-.98l.73-.06.06-.57h-.33l-1.86.06c-.31,0-.73,0-1.63-.02l-1.29-.04-.06.57.98.04c.49.02.71.18.71.55,0,.29-.08.94-.18,1.55l-.61,3.55h-7.55Z"/>
    <path class="cls-11" d="m220.27,142.61v.44c3.18,0,3.18-.05,3.79-.05s.61.05,3.89.05v-1.45c-1.96.09-2.74.02-5.88.09l3.09-3.28c1.65-1.75,2.16-2.69,2.16-3.96,0-1.96-1.33-3.16-3.49-3.16-1.22,0-2.06.34-2.89,1.19l-.29,2.31h.49l.22-.78c.27-.99.88-1.41,2.02-1.41,1.46,0,2.4.92,2.4,2.36,0,1.28-.71,2.53-2.64,4.57l-2.89,3.08Z"/>
    <path class="cls-11" d="m48.85,118.19c0-2.06-1.82-2.41-2.62-2.55,1.36-1.05,1.87-1.84,1.87-2.84,0-1.51-1.26-2.52-3.15-2.52-1.16,0-1.92.32-2.74,1.14l-.49,2.11h.53l.31-.95c.19-.58,1.26-1.16,2.14-1.16,1.11,0,2.01.9,2.01,1.97,0,1.28-1,2.35-2.21,2.35-.14,0-.32-.02-.54-.03l-.26-.02-.2.9.12.1c.65-.29.97-.37,1.43-.37,1.41,0,2.23.9,2.23,2.45,0,1.73-1.04,2.87-2.62,2.87-.78,0-1.48-.26-1.99-.73-.41-.37-.63-.77-.95-1.68l-.46.17c.36,1.04.49,1.65.6,2.5.9.31,1.65.44,2.28.44,2.09,0,4.73-1.82,4.73-4.15Z"/>
    <path class="cls-11" d="m281.27,131.61v.44c3.18,0,3.18-.05,3.79-.05s.61.05,3.89.05v-1.45c-1.96.09-2.74.02-5.88.09l3.09-3.28c1.65-1.75,2.16-2.69,2.16-3.96,0-1.96-1.33-3.16-3.49-3.16-1.22,0-2.06.34-2.89,1.19l-.29,2.31h.49l.22-.78c.27-.99.88-1.41,2.02-1.41,1.46,0,2.4.92,2.4,2.36,0,1.28-.71,2.53-2.64,4.57l-2.89,3.08Z"/>
    <path class="cls-8" d="m406.97,159.54h65"/>
    <path class="cls-5" d="m316.97,169.54h155"/>
    <path class="cls-8" d="m406.97,189.54h65"/>
    <g>
      <path class="cls-3" d="m316.97,189.54h80v20h-80v-20Z"/>
      <path class="cls-8" d="m336.97,189.54v20m20-20v20m20-20v20M688.97,4.54"/>
      <path class="cls-8" d="m316.97,189.54h80v20h-80v-20Z"/>
    </g>
    <g>
      <path class="cls-2" d="m316.97,189.54h80"/>
      <path class="cls-2" d="m396.97,181.71v15.66"/>
    </g>
    <g>
      <path class="cls-2" d="m326.97,84.54h60"/>
      <path class="cls-2" d="m386.97,76.71v15.66"/>
    </g>
    <g>
      <path class="cls-3" d="m326.97,84.54h60v80h-60v-80Z"/>
      <path class="cls-8" d="m346.97,84.54v80m20-80v80"/>
      <path class="cls-8" d="m326.97,104.54h60m-60,20h60m-60,20h60"/>
      <path class="cls-8" d="m326.97,84.54h60v80h-60v-80Z"/>
    </g>
    <path class="cls-8" d="m471.97,149.54h30v50h-30v-50Z"/>
    <path class="cls-8" d="m406.97,134.54h80"/>
    <path class="cls-8" d="m501.97,159.54h65"/>
    <path class="cls-8" d="m486.97,134.54h80"/>
    <g>
      <path class="cls-2" d="m576.97,109.54h40"/>
      <path class="cls-2" d="m616.97,101.71v15.66"/>
    </g>
    <g>
      <path class="cls-3" d="m576.97,109.54h40v80h-40v-80Z"/>
      <path class="cls-8" d="m596.97,109.54v80"/>
      <path class="cls-8" d="m576.97,129.54h40m-40,20h40m-40,20h40"/>
      <path class="cls-8" d="m576.97,109.54h40v80h-40v-80Z"/>
    </g>
    <path class="cls-8" d="m98,146h65"/>
    <path class="cls-5" d="m13,155l150,1"/>
    <path class="cls-8" d="m98,176h65"/>
    <g>
      <path class="cls-3" d="m8,175h80v20H8v-20Z"/>
      <path class="cls-8" d="m28,175v20m20-20v20m20-20v20M705-15"/>
      <path class="cls-8" d="m8,175h80v20H8v-20Z"/>
    </g>
    <g>
      <path class="cls-2" d="m8,175h80"/>
      <path class="cls-2" d="m88,167.17v15.66"/>
    </g>
    <path class="cls-8" d="m163,136h30v50h-30v-50Z"/>
    <path class="cls-8" d="m193,146h65"/>
    <g>
      <path class="cls-3" d="m18,125h60v20H18v-20Z"/>
      <path class="cls-8" d="m38,125v20m20-20v20M705-15"/>
      <path class="cls-8" d="m18,125h60v20H18v-20Z"/>
    </g>
    <g>
      <path class="cls-2" d="m18,125h60"/>
      <path class="cls-2" d="m78,117.17v15.66"/>
    </g>
    <g>
      <path class="cls-3" d="m268,135h40v20h-40v-20Z"/>
      <path class="cls-8" d="m288,135v20"/>
      <path class="cls-8" d="m268,135h40v20h-40v-20Z"/>
    </g>
    <g>
      <path class="cls-2" d="m268,135h40"/>
      <path class="cls-2" d="m308,127.17v15.66"/>
    </g>
  </g>
  <g id="Layer_6" data-name="Layer 6">
    <g class="cls-20">
      <path class="cls-10" d="m326.97,129.32h40.2v-4.78l19.8,12.5-19.8,12.5v-4.78h-40.2v-15.44Z"/>
    </g>
    <g class="cls-23">
      <path class="cls-6" d="m576.97,109.54v80"/>
      <path class="cls-6" d="m584.8,189.54h-15.66"/>
    </g>
    <g class="cls-25">
      <path class="cls-6" d="m18,65v80"/>
      <path class="cls-6" d="m25.83,145h-15.66"/>
      <path class="cls-6" d="m25.83,65h-15.66"/>
    </g>
    <g class="cls-32">
      <path class="cls-6" d="m326.97,84.54v80"/>
      <path class="cls-6" d="m334.8,164.54h-15.66"/>
    </g>
    <g class="cls-17">
      <path class="cls-16" d="m145,88.52h168.4v-3.52l21.6,10-21.6,10v-3.52h-168.4v-12.96Z"/>
    </g>
    <path class="cls-15" d="m183.23,97.88c0,.54.3.62.62.62h.69c.15-.01.43.01.57-.3.04-.09.04-.23.04-.35v-8.11c0-.54-.31-.61-.62-.61h-.73c-.38,0-.57.24-.57.63v8.11Zm3.96.01c0,.53.32.61.63.61h.59c.62,0,.62-.72.62-.72v-2.81c0-.24.01-.49.08-.73.12-.42.55-1.09,1.39-1.09s.8.55.8,1.05v3.7c0,.34.09.59.62.59h.63c.55,0,.58-.38.58-.59v-3.56c0-.97,0-2.17-2-2.17-1.09,0-1.71.46-2.19.93v-.27c0-.58-.38-.58-.62-.58h-.54c-.26,0-.61.04-.61.61v5.04Zm7.57,0c0,.53.32.61.63.61h.59c.62,0,.62-.72.62-.72v-2.81c0-.24.01-.49.08-.73.12-.42.55-1.09,1.39-1.09s.8.55.8,1.05v3.7c0,.34.09.59.62.59h.63c.55,0,.58-.38.58-.59v-3.56c0-.97,0-2.17-2-2.17-1.09,0-1.71.46-2.19.93v-.27c0-.58-.38-.58-.62-.58h-.54c-.26,0-.61.04-.61.61v5.04Zm7.18-2.54c0,2.15,1.17,3.29,3.43,3.29.93,0,1.77-.27,2.34-.59.16-.09.22-.15.22-.3,0,0,0-.8-.15-.95l-.07-.03h-.05c-.27.08-.9.88-2.25.88s-1.69-1-1.71-2.05h3.73c.24,0,.59-.03.59-.58,0-1.44-.57-2.94-2.82-2.94-1.94,0-3.24,1-3.24,3.27Zm1.76-.62c.08-.84.41-1.66,1.49-1.66s1.27.76,1.31,1.66h-2.79Zm5.55,3.19c0,.26.05.58.61.58h.58c.23,0,.24-.01.38-.08.22-.18.24-.22.24-.59v-2.36c0-.18,0-.34.04-.51.14-.61.65-1.08,1.23-1.28.45-.15.69-.08.85-.2.05-.08.07-.09.07-.24v-.76c0-.19-.03-.3-.27-.3h-.01c-.24,0-1.26.09-1.97,1.09-.01-.68-.01-.69-.14-.84-.15-.15-.2-.18-.54-.18h-.45c-.28,0-.62.03-.62.61v5.06Zm10.4-.04c0,.36.11.62.63.62h3.31c.88,0,1.8-.01,2.59-.42,1.15-.58,1.3-1.65,1.3-2.17,0-1.39-1.01-2.13-2.4-2.31.32-.09,2-.41,2-2.04,0-.58-.23-1.22-.7-1.65-.85-.78-2.3-.78-3.21-.78h-2.88c-.57,0-.63.31-.63.62v8.13Zm1.85-.54v-3.21h2.03c1.81.07,2.16,1.03,2.16,1.71,0,.32-.09.63-.31.89-.42.49-1.11.61-2.05.61h-1.82Zm0-4.2v-2.85h1.42c.53,0,1.07.01,1.57.2.66.26.82.72.82,1.11s-.14.69-.39,1c-.62.51-1.19.54-2.15.54h-1.27Zm7.63,4.78c0,.26.05.58.61.58h.58c.23,0,.24-.01.38-.08.22-.18.24-.22.24-.59v-2.36c0-.18,0-.34.04-.51.14-.61.65-1.08,1.23-1.28.45-.15.69-.08.85-.2.05-.08.07-.09.07-.24v-.76c0-.19-.03-.3-.27-.3h-.01c-.24,0-1.26.09-1.97,1.09-.01-.68-.01-.69-.14-.84-.15-.15-.2-.18-.54-.18h-.45c-.28,0-.62.03-.62.61v5.06Zm4.62-2.44c0,2.54,1.57,3.17,3.31,3.17s3.28-.62,3.28-3.12c0-3.31-2.19-3.44-3.5-3.44-1.53,0-3.09.69-3.09,3.39Zm1.85.14v-.36c0-.93-.03-2.17,1.43-2.17s1.44,1.2,1.46,1.98v.36c-.01.9.03,2.17-1.44,2.17s-1.42-1.19-1.44-1.98Zm5.58,1.04c0,.92.68,2,1.97,2,1.11,0,1.78-.46,2.08-.69,0,.23.12.54.55.54h.65c.54,0,.61-.31.61-.61v-3.55c0-1.35-.62-2.25-2.79-2.25-.85,0-1.51.16-2.12.43-.3.15-.38.14-.38.35,0,0,.04.88.14,1.04l.05.04h.05c.3,0,.7-.92,2.25-.92.85,0,.96.62.96,1.26v.28c-1.2.01-4.02.24-4.02,2.08Zm1.77,0c0-1.05,1.43-1.22,2.25-1.28v1.05c0,1-.88,1.24-1.32,1.24-.58,0-.93-.53-.93-1.01Zm5.4-1.38c0,.45,0,.9.15,1.47.38,1.44,1.46,1.9,2.54,1.9.74,0,1.23-.23,1.71-.58.12.42.38.43.62.43h.62c.57,0,.61-.36.61-.62v-8.52c0-.28-.04-.61-.68-.61h-.54c-.53,0-.59.34-.59.59v3.31c-.49-.31-1.01-.49-1.69-.49-1.42,0-2.71.7-2.75,3.11Zm1.85.24v-.28c0-.82.01-2.08,1.5-2.08.63,0,.96.34,1.05.41v3.31c0,.41-.61.8-1.19.8-1.34,0-1.36-1.19-1.36-2.15Zm5.72-.09c0,2.38,1.34,3.23,3.21,3.23.89,0,1.59-.2,2.19-.51.15-.08.27-.14.27-.34v-.11c-.08-.89-.07-.88-.18-.95h-.07c-.28.03-.77.85-2.17.85s-1.4-1.26-1.4-2.11v-.26c0-.73.01-2.04,1.31-2.09.2,0,.65-.01,1.04.12.58.2.85.65,1.07.65.26,0,.32-1.05.32-1.05,0-.11-.03-.16-.11-.22-.77-.42-1.31-.55-2.19-.55-1.76,0-3.29.68-3.29,3.33Zm6.52,1.23c0,.92.68,2,1.97,2,1.11,0,1.78-.46,2.08-.69,0,.23.12.54.55.54h.65c.54,0,.61-.31.61-.61v-3.55c0-1.35-.62-2.25-2.79-2.25-.85,0-1.51.16-2.12.43-.3.15-.38.14-.38.35,0,0,.04.88.14,1.04l.05.04h.05c.3,0,.7-.92,2.25-.92.85,0,.96.62.96,1.26v.28c-1.2.01-4.02.24-4.02,2.08Zm1.77,0c0-1.05,1.43-1.22,2.25-1.28v1.05c0,1-.88,1.24-1.32,1.24-.58,0-.93-.53-.93-1.01Zm5.33,1.17s.01.07.03.11l.05.07c.34.22,1.22.65,2.42.65,1.34,0,2.43-.41,2.43-2.04,0-1.09-.81-1.63-1.19-1.82-.84-.43-2.34-.27-2.34-1.07,0-.51.45-.65,1-.65,1.31,0,1.67.73,1.96.73.07,0,.12-.05.16-.2.08-.46.14-.7.14-.85,0-.19-.08-.23-.32-.32-.5-.2-1.01-.32-1.65-.34h-.35c-1.13.03-2.27.39-2.27,1.94,0,1.09.9,1.63,1.4,1.82.77.28,2.11.18,2.11,1.01,0,.57-.45.72-1.05.72-1.44,0-1.93-1.01-2.17-1.01-.16,0-.18.22-.19.31-.11.59-.16.82-.16.95Zm5.56-5.02c0,.15.05.5.59.5h.28v3.15c0,.42,0,.82.12,1.23.23.74.74.97,1.28.97,1,0,2.46-.43,2.46-.78,0,0-.11-.74-.31-.74-.18,0-.58.47-1.22.47-.38,0-.57-.24-.57-1.24,0-.12.01-.23.01-.35v-2.7h1.26c.51-.01.58-.35.58-.49,0-.12-.07-.5-.61-.5h-1.23v-1.16c0-.32-.14-.61-.61-.61h-.49c-.23,0-.65.01-.65.61v1.16h-.32c-.54,0-.59.34-.59.49Zm5.93-2.75c0,.54.31.62.62.62h.7c.12-.01.59.01.59-.59v-.7c0-.54-.31-.62-.62-.62h-.69c-.26.01-.61,0-.61.62v.68Zm.05,7.78c0,.23-.01.68.59.68h.62c.61,0,.59-.45.59-.61v-4.9c0-.35-.03-.68-.66-.68h-.55c-.61,0-.59.45-.59.61v4.9Zm3.43.07c0,.53.32.61.63.61h.59c.62,0,.62-.72.62-.72v-2.81c0-.24.01-.49.08-.73.12-.42.55-1.09,1.39-1.09s.8.55.8,1.05v3.7c0,.34.09.59.62.59h.63c.55,0,.58-.38.58-.59v-3.56c0-.97,0-2.17-2-2.17-1.09,0-1.71.46-2.19.93v-.27c0-.58-.38-.58-.62-.58h-.54c-.26,0-.61.04-.61.61v5.04Zm7.1,1.49c0,.24.05.49.16.7.58,1.2,2.39,1.2,3.21,1.2.72,0,1.44-.03,2.12-.28.93-.35,1.24-.99,1.24-1.65,0-2.04-1.8-2.09-3.43-2.09h-1.16c-.69,0-.8-.41-.8-.65,0-.07.01-.16.04-.26.58.23,1.01.27,1.55.27,1.98,0,2.73-.89,2.73-2.23,0-.76-.27-1.15-.32-1.26h.35c.55-.01.84.05.93.05.14,0,.24-.05.23-.26-.11-.66-.09-.77-.39-.77-.86,0-1.61.34-1.74.34-.2,0-.5-.34-1.73-.34h-.04c-2.38,0-2.73,1.35-2.73,2.24,0,.72.26,1.17.54,1.5v.03c-.22.32-.36.69-.36,1.11,0,.45.16.78.35,1.07-.66.36-.76.95-.76,1.27Zm1.39-.03c0-.66.55-.62.77-.62h1.32c1.22,0,1.86.14,1.86.68,0,.36-.3.9-1.9.9h-.05c-1.05,0-2-.19-2-.96Zm.58-4.85v-.22c0-.81.19-1.15,1.01-1.15s.96.46.96,1.15v.22c0,.8-.18,1.15-1.01,1.15s-.96-.51-.96-1.15Z"/>
    <g>
      <path class="cls-28" d="m156.4,99.73l-3.6-3.58,3.6-3.58-.66-.64-3.56,3.58-3.58-3.58-.64.64,3.58,3.58-3.58,3.58.64.64,3.58-3.58,3.56,3.58.66-.64Z"/>
      <path class="cls-28" d="m164.61,97.53v1.15c0,.92-.17,1.13-.92,1.16l-.95.05v.46q2.03-.05,2.4-.05t2.4.05v-.46l-.73-.05c-.75-.05-.92-.24-.92-1.16v-1.15c.9,0,1.22.02,1.65.06v-1.09l-1.65.05.02-6.92-1.22.46-4.33,7.08v.35h4.25Zm0-.98h-3.29l3.29-5.39v5.39Z"/>
    </g>
  </g>
</svg>