<?xml version="1.0" encoding="UTF-8"?>
<svg xmlns="http://www.w3.org/2000/svg" xmlns:xlink="http://www.w3.org/1999/xlink" viewBox="0 0 620 451">
  <defs>
    <style>
      .cls-1 {
        fill: #fff591;
      }

      .cls-1, .cls-2, .cls-3 {
        stroke-width: 0px;
      }

      .cls-4 {
        filter: url(#drop-shadow-170);
      }

      .cls-5 {
        stroke: #50e3c2;
        stroke-width: 3px;
      }

      .cls-5, .cls-3, .cls-6, .cls-7, .cls-8, .cls-9 {
        fill: none;
      }

      .cls-10 {
        filter: url(#drop-shadow-167);
      }

      .cls-6 {
        stroke-dasharray: 0 0 6 6;
      }

      .cls-6, .cls-7, .cls-8, .cls-9 {
        stroke: #000;
      }

      .cls-11 {
        filter: url(#drop-shadow-166);
      }

      .cls-7 {
        stroke-dasharray: 0 0 1.12 3.35;
      }

      .cls-12 {
        filter: url(#drop-shadow-169);
      }

      .cls-8 {
        stroke-width: 2px;
      }

      .cls-13 {
        filter: url(#drop-shadow-168);
      }
    </style>
    <filter id="drop-shadow-166" filterUnits="userSpaceOnUse">
      <feOffset dx="0" dy="0"/>
      <feGaussianBlur result="blur" stdDeviation="3"/>
      <feFlood flood-color="#000" flood-opacity="1"/>
      <feComposite in2="blur" operator="in"/>
      <feComposite in="SourceGraphic"/>
    </filter>
    <filter id="drop-shadow-167" filterUnits="userSpaceOnUse">
      <feOffset dx="0" dy="0"/>
      <feGaussianBlur result="blur-2" stdDeviation="3"/>
      <feFlood flood-color="#000" flood-opacity="1"/>
      <feComposite in2="blur-2" operator="in"/>
      <feComposite in="SourceGraphic"/>
    </filter>
    <filter id="drop-shadow-168" filterUnits="userSpaceOnUse">
      <feOffset dx="0" dy="0"/>
      <feGaussianBlur result="blur-3" stdDeviation="3"/>
      <feFlood flood-color="#000" flood-opacity="1"/>
      <feComposite in2="blur-3" operator="in"/>
      <feComposite in="SourceGraphic"/>
    </filter>
    <filter id="drop-shadow-169" filterUnits="userSpaceOnUse">
      <feOffset dx="0" dy="0"/>
      <feGaussianBlur result="blur-4" stdDeviation="3"/>
      <feFlood flood-color="#000" flood-opacity="1"/>
      <feComposite in2="blur-4" operator="in"/>
      <feComposite in="SourceGraphic"/>
    </filter>
    <filter id="drop-shadow-170" filterUnits="userSpaceOnUse">
      <feOffset dx="0" dy="0"/>
      <feGaussianBlur result="blur-5" stdDeviation="3"/>
      <feFlood flood-color="#000" flood-opacity="1"/>
      <feComposite in2="blur-5" operator="in"/>
      <feComposite in="SourceGraphic"/>
    </filter>
  </defs>
  <g id="Layer_7" data-name="Layer 7">
    <path class="cls-7" d="m160,229.96h50v90h-50v-90Z"/>
    <path class="cls-7" d="m312.56,140.85h50v90h-50v-90Z"/>
  </g>
  <g id="Layer_1" data-name="Layer 1">
    <g class="cls-11">
      <path class="cls-1" d="m372.56,140.85h240v40h-240v-40Z"/>
    </g>
    <g class="cls-10">
      <path class="cls-1" d="m17.56,200.31h300v40H17.56v-40Z"/>
    </g>
    <g class="cls-13">
      <path class="cls-1" d="m10,340.5h310v40H10v-40Z"/>
    </g>
    <g class="cls-12">
      <path class="cls-5" d="m75,420.5c0-2.76,2.24-5,5-5s5,2.24,5,5-2.24,5-5,5-5-2.24-5-5Z"/>
    </g>
    <g class="cls-4">
      <path class="cls-5" d="m355,420.5c0-2.76,2.24-5,5-5s5,2.24,5,5-2.24,5-5,5-5-2.24-5-5Z"/>
    </g>
  </g>
  <g id="Layer_4" data-name="Layer 4">
    <path class="cls-2" d="m70.41,60.91l3.12-.12c1.82,0,3,.26,3.03.71l.24,2.62h.71c.09-1.85.29-3.35.62-4.47-.65-.06-1.47-.09-1.97-.09l-1.21.03-4.85.06h-.85c-.74,0-1.91-.03-3.03-.06l-1.44-.03-.09.82,1.65.06c.71.03,1.03.29,1.03.79,0,.41-.12,1.35-.26,2.24l-2.21,12.76c-.5,2.71-.5,2.74-1.71,2.85l-1.06.09-.12.82,1-.03c1.18-.03,2.12-.06,2.74-.06.53,0,1.38.03,2.53.06l1.53.03.09-.82-1.88-.09c-.79-.03-1.06-.26-1.06-.85,0-.18.03-.5.06-.62l1.06-6.56h3.44c.79,0,1.71.03,3.12.09l.76.03.56-1.32-.12-.21c-2.38.12-4.15.18-6.44.18h-1.09l1.35-7.97c.09-.47.12-.62.26-.94h.5Z"/>
    <path class="cls-2" d="m26.61,54.03l-.49,2.16c-.07.29-.1.6-.1.87,0,.37.15.6.41.6.39,0,1.09-.44,2.48-1.6l-.12-.36c-.41.34-.9.8-1.28.8-.15,0-.26-.15-.26-.39,0-.09,0-.14.02-.19l1.56-6.44-.17-.15-.56.31c-.7-.26-.99-.32-1.45-.32s-.82.09-1.28.31c-1.05.53-1.62,1.04-2.04,1.87-.75,1.51-1.28,3.55-1.28,4.88,0,.75.26,1.33.58,1.33.63,0,1.99-.88,3.96-3.66Zm.82-3.57c-.37,1.85-.7,2.74-1.28,3.62-.97,1.43-2.01,2.41-2.55,2.41-.2,0-.31-.22-.31-.68,0-1.09.48-3.08,1.07-4.44.41-.94.8-1.24,1.62-1.24.39,0,.7.07,1.45.32Z"/>
    <path class="cls-2" d="m116,45.23l-.2-.19c-.88.44-1.5.6-2.72.71l-.07.36h.82c.41,0,.58.12.58.41,0,.12-.02.31-.03.41l-1.72,9.37c-.02.05-.02.12-.02.17,0,.66.82,1.22,1.75,1.22.63,0,1.5-.32,2.23-.85,1.63-1.16,2.75-3.49,2.75-5.73,0-.65-.15-1.31-.36-1.56-.12-.15-.34-.24-.6-.24-.41,0-.92.14-1.39.37-.87.46-1.43.97-2.48,2.31l1.46-6.77Zm1.48,5.07c.44,0,.66.39.66,1.22,0,1.09-.36,2.55-.87,3.66-.56,1.17-1.24,1.72-2.16,1.72-.78,0-1.21-.39-1.21-1.11,0-.58.26-2.98,1.63-4.42.56-.58,1.45-1.07,1.94-1.07Z"/>
    <path class="cls-2" d="m117.81,71.89h.39c.14-1.11.26-1.73.41-2.18-.41-.26-1-.41-1.63-.41-.77-.02-2.01.32-2.98,1.39-.92.82-1.58,2.7-1.58,4.49,0,1.63.71,2.5,2.07,2.5.92,0,1.73-.34,2.67-1.11l.85-.7-.14-.34-.26.17c-1.22.82-1.87,1.11-2.47,1.11-.95,0-1.45-.68-1.45-2.02,0-1.84.6-3.6,1.43-4.25.36-.27.77-.41,1.29-.41.77,0,1.38.32,1.38.73v1.02Z"/>
    <path class="cls-2" d="m424.13,67.49v-1.44h-13.19v1.44h13.19Zm0,5.21v-1.44h-13.19v1.44h13.19Z"/>
    <path class="cls-2" d="m290.41,70.91l3.12-.12c1.82,0,3,.26,3.03.71l.24,2.62h.71c.09-1.85.29-3.35.62-4.47-.65-.06-1.47-.09-1.97-.09l-1.21.03-4.85.06h-.85c-.74,0-1.91-.03-3.03-.06l-1.44-.03-.09.82,1.65.06c.71.03,1.03.29,1.03.79,0,.41-.12,1.35-.26,2.24l-2.21,12.76c-.5,2.71-.5,2.74-1.71,2.85l-1.06.09-.12.82,1-.03c1.18-.03,2.12-.06,2.74-.06.53,0,1.38.03,2.53.06l1.53.03.09-.82-1.88-.09c-.79-.03-1.06-.26-1.06-.85,0-.18.03-.5.06-.62l1.06-6.56h3.44c.79,0,1.71.03,3.12.09l.76.03.56-1.32-.12-.21c-2.38.12-4.15.18-6.44.18h-1.09l1.35-7.97c.09-.47.12-.62.26-.94h.5Z"/>
    <path class="cls-2" d="m256.61,74.03l-.49,2.16c-.07.29-.1.6-.1.87,0,.37.15.6.41.6.39,0,1.09-.44,2.48-1.6l-.12-.36c-.41.34-.9.8-1.28.8-.15,0-.26-.15-.26-.39,0-.09,0-.14.02-.19l1.56-6.44-.17-.15-.56.31c-.7-.26-.99-.32-1.45-.32s-.82.09-1.28.31c-1.05.53-1.62,1.04-2.04,1.87-.75,1.51-1.28,3.55-1.28,4.88,0,.75.26,1.33.58,1.33.63,0,1.99-.88,3.96-3.66Zm.82-3.57c-.37,1.85-.7,2.74-1.28,3.62-.97,1.43-2.01,2.41-2.55,2.41-.2,0-.31-.22-.31-.68,0-1.09.48-3.08,1.07-4.44.41-.94.8-1.24,1.62-1.24.39,0,.7.07,1.45.32Z"/>
    <path class="cls-2" d="m342,55.23l-.2-.19c-.88.44-1.5.6-2.72.71l-.07.36h.82c.41,0,.58.12.58.41,0,.12-.02.31-.03.41l-1.72,9.37c-.02.05-.02.12-.02.17,0,.66.82,1.22,1.75,1.22.63,0,1.5-.32,2.23-.85,1.63-1.16,2.75-3.49,2.75-5.73,0-.65-.15-1.31-.36-1.56-.12-.15-.34-.24-.6-.24-.41,0-.92.14-1.39.37-.87.46-1.43.97-2.48,2.31l1.46-6.77Zm1.48,5.07c.44,0,.66.39.66,1.22,0,1.09-.36,2.55-.87,3.66-.56,1.17-1.24,1.72-2.16,1.72-.78,0-1.21-.39-1.21-1.11,0-.58.26-2.98,1.63-4.42.56-.58,1.45-1.07,1.94-1.07Z"/>
    <path class="cls-2" d="m343.81,81.89h.39c.14-1.11.26-1.73.41-2.18-.41-.26-1-.41-1.63-.41-.77-.02-2.01.32-2.98,1.39-.92.82-1.58,2.7-1.58,4.49,0,1.63.71,2.5,2.07,2.5.92,0,1.73-.34,2.67-1.11l.85-.7-.14-.34-.26.17c-1.22.82-1.87,1.11-2.47,1.11-.95,0-1.45-.68-1.45-2.02,0-1.84.6-3.6,1.43-4.25.36-.27.77-.41,1.29-.41.77,0,1.38.32,1.38.73v1.02Z"/>
    <path class="cls-2" d="m256,35.23l-.2-.19c-.88.44-1.5.6-2.72.71l-.07.36h.82c.41,0,.58.12.58.41,0,.12-.02.31-.03.41l-1.72,9.37c-.02.05-.02.12-.02.17,0,.66.82,1.22,1.75,1.22.63,0,1.5-.32,2.23-.85,1.63-1.16,2.75-3.49,2.75-5.73,0-.65-.15-1.31-.36-1.56-.12-.15-.34-.24-.6-.24-.41,0-.92.14-1.39.37-.87.46-1.43.97-2.48,2.31l1.46-6.77Zm1.48,5.07c.44,0,.66.39.66,1.22,0,1.09-.36,2.55-.87,3.66-.56,1.17-1.24,1.72-2.16,1.72-.78,0-1.21-.39-1.21-1.11,0-.58.26-2.98,1.63-4.42.56-.58,1.45-1.07,1.94-1.07Z"/>
    <path class="cls-2" d="m500.41,60.91l3.12-.12c1.82,0,3,.26,3.03.71l.24,2.62h.71c.09-1.85.29-3.35.62-4.47-.65-.06-1.47-.09-1.97-.09l-1.21.03-4.85.06h-.85c-.74,0-1.91-.03-3.03-.06l-1.44-.03-.09.82,1.65.06c.71.03,1.03.29,1.03.79,0,.41-.12,1.35-.26,2.24l-2.21,12.76c-.5,2.71-.5,2.74-1.71,2.85l-1.06.09-.12.82,1-.03c1.18-.03,2.12-.06,2.74-.06.53,0,1.38.03,2.53.06l1.53.03.09-.82-1.88-.09c-.79-.03-1.06-.26-1.06-.85,0-.18.03-.5.06-.62l1.06-6.56h3.44c.79,0,1.71.03,3.12.09l.76.03.56-1.32-.12-.21c-2.38.12-4.15.18-6.44.18h-1.09l1.35-7.97c.09-.47.12-.62.26-.94h.5Z"/>
    <path class="cls-2" d="m456.61,74.03l-.49,2.16c-.07.29-.1.6-.1.87,0,.37.15.6.41.6.39,0,1.09-.44,2.48-1.6l-.12-.36c-.41.34-.9.8-1.28.8-.15,0-.26-.15-.26-.39,0-.09,0-.14.02-.19l1.56-6.44-.17-.15-.56.31c-.7-.26-.99-.32-1.45-.32s-.82.09-1.28.31c-1.05.53-1.62,1.04-2.04,1.87-.75,1.51-1.28,3.55-1.28,4.88,0,.75.26,1.33.58,1.33.63,0,1.99-.88,3.96-3.66Zm.82-3.57c-.37,1.85-.7,2.74-1.28,3.62-.97,1.43-2.01,2.41-2.55,2.41-.2,0-.31-.22-.31-.68,0-1.09.48-3.08,1.07-4.44.41-.94.8-1.24,1.62-1.24.39,0,.7.07,1.45.32Z"/>
    <path class="cls-2" d="m537.81,71.89h.39c.14-1.11.26-1.73.41-2.18-.41-.26-1-.41-1.63-.41-.77-.02-2.01.32-2.98,1.39-.92.82-1.58,2.7-1.58,4.49,0,1.63.71,2.5,2.07,2.5.92,0,1.73-.34,2.67-1.11l.85-.7-.14-.34-.26.17c-1.22.82-1.87,1.11-2.47,1.11-.95,0-1.45-.68-1.45-2.02,0-1.84.6-3.6,1.43-4.25.36-.27.77-.41,1.29-.41.77,0,1.38.32,1.38.73v1.02Z"/>
    <path class="cls-2" d="m456,45.23l-.2-.19c-.88.44-1.5.6-2.72.71l-.07.36h.82c.41,0,.58.12.58.41,0,.12-.02.31-.03.41l-1.72,9.37c-.02.05-.02.12-.02.17,0,.66.82,1.22,1.75,1.22.63,0,1.5-.32,2.23-.85,1.63-1.16,2.75-3.49,2.75-5.73,0-.65-.15-1.31-.36-1.56-.12-.15-.34-.24-.6-.24-.41,0-.92.14-1.39.37-.87.46-1.43.97-2.48,2.31l1.46-6.77Zm1.48,5.07c.44,0,.66.39.66,1.22,0,1.09-.36,2.55-.87,3.66-.56,1.17-1.24,1.72-2.16,1.72-.78,0-1.21-.39-1.21-1.11,0-.58.26-2.98,1.63-4.42.56-.58,1.45-1.07,1.94-1.07Z"/>
    <g>
      <path class="cls-2" d="m315.66,11.21c-.56,0-2.45,1.17-3.01,1.53v.1l.2.19v.03c.39-.15,1.41-1.11,1.58-.31-.03,1.12-.77,5.25-1.12,6.6v.17c.36-.17.85-.32,1.22-.43.27-2.13.48-7.04,3.43-7.09.77,0,1.19.41,1.19,1.19.05,2.89-2.01,7.97-1.62,10.73.41-.19.92-.34,1.34-.41-.73-2.07,1.53-8.93,1.56-10.76.03-1.05-.65-1.55-1.65-1.55-1.29,0-2.47.83-3.23,1.8v-.03c.27-1.09.54-1.77.09-1.77Z"/>
      <g>
        <path class="cls-2" d="m324.8,3.81l-.14-.13c-.62.31-1.05.42-1.9.5l-.05.25h.57c.29,0,.4.08.4.29,0,.08-.01.21-.02.29l-1.2,6.56s-.01.08-.01.12c0,.46.57.86,1.23.86.44,0,1.05-.23,1.56-.6,1.14-.81,1.93-2.44,1.93-4.01,0-.45-.11-.92-.25-1.09-.08-.11-.24-.17-.42-.17-.29,0-.64.1-.98.26-.61.32-1,.68-1.74,1.62l1.02-4.74Zm1.04,3.55c.31,0,.46.27.46.86,0,.76-.25,1.79-.61,2.56-.39.82-.87,1.2-1.51,1.2-.55,0-.84-.27-.84-.77,0-.4.18-2.08,1.14-3.09.39-.4,1.01-.75,1.36-.75Zm11.9,4.61l-2.8-2.78,2.8-2.78-.51-.5-2.77,2.78-2.78-2.78-.5.5,2.78,2.78-2.78,2.78.5.5,2.78-2.78,2.77,2.78.51-.5Zm6.44-8.15l-.14-.13c-.62.31-1.05.42-1.9.5l-.05.25h.57c.29,0,.4.08.4.29,0,.08-.01.21-.02.29l-1.2,6.56s-.01.08-.01.12c0,.46.57.86,1.23.86.44,0,1.05-.23,1.56-.6,1.14-.81,1.93-2.44,1.93-4.01,0-.45-.11-.92-.25-1.09-.08-.11-.24-.17-.42-.17-.29,0-.64.1-.98.26-.61.32-1,.68-1.74,1.62l1.02-4.74Zm1.04,3.55c.31,0,.46.27.46.86,0,.76-.25,1.79-.61,2.56-.39.82-.87,1.2-1.51,1.2-.55,0-.84-.27-.84-.77,0-.4.18-2.08,1.14-3.09.39-.4,1.01-.75,1.36-.75Z"/>
        <path class="cls-2" d="m326.51,23.95v-.36l-.62-.04c-.65-.04-.77-.17-.77-.79v-7.19l-2.87,1.21.08.6,1.79-.79v6.16c0,.62-.13.75-.77.79l-.67.04v.36q1.83-.04,1.96-.04c.37,0,1.68.04,1.87.04Z"/>
      </g>
      <path class="cls-2" d="m361.67,18.62l-4-3.98,4-3.98-.73-.71-3.96,3.98-3.98-3.98-.71.71,3.98,3.98-3.98,3.98.71.71,3.98-3.98,3.96,3.98.73-.71Z"/>
      <path class="cls-2" d="m367.44,19.25h1.35v-10.41h-1.35v10.41Zm3.28-3.31c0,1.78,1.05,3.48,2.58,3.48.99,0,1.71-.45,2.22-.94v.78h1.18v-10.83h-1.14v4.81c-.52-.42-1.23-.82-2.17-.82-1.48,0-2.67,1.54-2.67,3.52Zm1.17-.01c0-1.96,1.3-2.58,2.17-2.58h.03c.16,0,.64.01,1.11.45.27.25.31.34.31.58v2.86c0,.46-.7,1.24-1.6,1.24-.81,0-2.02-.58-2.02-2.56Z"/>
      <g>
        <path class="cls-2" d="m385.01,8.47h.27c.1-.77.18-1.21.29-1.52-.29-.18-.7-.29-1.14-.29-.54-.01-1.4.23-2.08.98-.64.57-1.11,1.89-1.11,3.14,0,1.14.5,1.75,1.45,1.75.64,0,1.21-.24,1.87-.77l.6-.49-.1-.24-.18.12c-.86.57-1.31.77-1.73.77-.67,0-1.01-.48-1.01-1.42,0-1.29.42-2.52,1-2.98.25-.19.54-.29.9-.29.54,0,.96.23.96.51v.71Z"/>
        <path class="cls-2" d="m384.54,18.99h.27c.1-.77.18-1.21.29-1.52-.29-.18-.7-.29-1.14-.29-.54-.01-1.4.23-2.08.98-.64.57-1.11,1.89-1.11,3.14,0,1.14.5,1.75,1.45,1.75.64,0,1.21-.24,1.87-.77l.6-.49-.1-.24-.18.12c-.86.57-1.31.77-1.73.77-.67,0-1.01-.48-1.01-1.42,0-1.29.42-2.52,1-2.98.25-.19.54-.29.9-.29.54,0,.96.23.96.51v.71Z"/>
      </g>
    </g>
    <path class="cls-2" d="m342,35.23l-.2-.19c-.88.44-1.5.6-2.72.71l-.07.36h.82c.41,0,.58.12.58.41,0,.12-.02.31-.03.41l-1.72,9.37c-.02.05-.02.12-.02.17,0,.66.82,1.22,1.75,1.22.63,0,1.5-.32,2.23-.85,1.63-1.16,2.75-3.49,2.75-5.73,0-.65-.15-1.31-.36-1.56-.12-.15-.34-.24-.6-.24-.41,0-.92.14-1.39.37-.87.46-1.43.97-2.48,2.31l1.46-6.77Zm1.48,5.07c.44,0,.66.39.66,1.22,0,1.09-.36,2.55-.87,3.66-.56,1.17-1.24,1.72-2.16,1.72-.78,0-1.21-.39-1.21-1.11,0-.58.26-2.98,1.63-4.42.56-.58,1.45-1.07,1.94-1.07Z"/>
    <path class="cls-2" d="m77.32,171.06c2.26,0,3.85.41,5.5,1.47v2.47h.79c.15-1.68.38-2.94.79-4.29-2.44-.88-4.12-1.21-6.15-1.21-2.71,0-4.85.68-6.97,2.18-3.44,2.47-5.26,6.12-5.26,10.53,0,5.5,3.21,8.59,8.97,8.59,1.68.09,6-.71,7.44-1.62.59-4.59.71-5.26.74-5.35.06-.26.41-.56.79-.62l.94-.18.06-.82c-1.15.12-2.18.15-3.68.15s-2.56-.03-3.79-.15l-.15.82,1,.06c2.21.12,2.47.24,2.47.94,0,.44-.59,3.76-.74,4.47-1.32.71-2.47.97-4.06.97-4.88,0-7.41-2.74-7.41-7.94,0-4.29,1.74-10.47,8.71-10.47Z"/>
    <path class="cls-2" d="m39.16,174.38l-.49,2.16c-.07.29-.1.6-.1.87,0,.37.15.6.41.6.39,0,1.09-.44,2.48-1.6l-.12-.36c-.41.34-.9.8-1.28.8-.15,0-.26-.15-.26-.39,0-.09,0-.14.02-.19l1.56-6.44-.17-.15-.56.31c-.7-.26-.99-.32-1.45-.32s-.82.09-1.28.31c-1.05.53-1.62,1.04-2.04,1.87-.75,1.51-1.28,3.55-1.28,4.88,0,.75.26,1.33.58,1.33.63,0,1.99-.88,3.96-3.66Zm.82-3.57c-.37,1.85-.7,2.74-1.28,3.62-.97,1.43-2.01,2.41-2.55,2.41-.2,0-.31-.22-.31-.68,0-1.09.48-3.08,1.07-4.44.41-.94.8-1.24,1.62-1.24.39,0,.7.07,1.45.32Z"/>
    <path class="cls-2" d="m141.06,178.94l1.24-6.71c.21-1.15.41-1.32,1.5-1.41l1.24-.09.09-.82h-.71l-2.65.09c-.47,0-1,0-2.26-.03l-1.88-.06-.09.82,1.38.06c.71.03,1.03.26,1.03.79,0,.41-.12,1.32-.26,2.24l-2.18,12.76c-.5,2.71-.53,2.74-1.71,2.85l-1.21.09-.12.82,1.24-.03c1.41-.03,2.09-.06,2.65-.06l2.85.09h.76l.09-.82-1.44-.09c-.79-.06-1.06-.26-1.06-.88,0-.26.03-.47.12-1.03l1.24-7.26,1.79-.03c1.82-.03,3.06-.06,3.62-.06s1.76.03,3.62.06l1.79.03-1.18,6.32c-.26,1.44-.47,2.26-.62,2.44-.12.24-.44.35-1.09.41l-1.47.09-.12.82,1.65-.03c1.29-.03,2.18-.06,2.5-.06.47,0,1.38.03,2.65.06l1.24.03.09-.82-1.71-.09c-.76-.03-1.06-.26-1.06-.88,0-.26.03-.53.12-1.03l2.71-15.29c.21-1.15.38-1.29,1.5-1.41l1.06-.09.09-.82h-.47l-2.68.09c-.44,0-1.06,0-2.35-.03l-1.85-.06-.09.82,1.41.06c.71.03,1.03.26,1.03.79,0,.41-.12,1.35-.26,2.24l-.88,5.12h-10.88Z"/>
    <path class="cls-2" d="m108.55,165.58l-.2-.19c-.88.44-1.5.6-2.72.71l-.07.36h.82c.41,0,.58.12.58.41,0,.12-.02.31-.03.41l-1.72,9.37c-.02.05-.02.12-.02.17,0,.66.82,1.22,1.75,1.22.63,0,1.5-.32,2.23-.85,1.63-1.16,2.75-3.49,2.75-5.73,0-.65-.15-1.31-.36-1.56-.12-.15-.34-.24-.6-.24-.41,0-.92.14-1.39.37-.87.46-1.43.97-2.48,2.31l1.46-6.77Zm1.48,5.07c.44,0,.66.39.66,1.22,0,1.09-.36,2.55-.87,3.66-.56,1.17-1.24,1.72-2.16,1.72-.78,0-1.21-.39-1.21-1.11,0-.58.26-2.98,1.63-4.42.56-.58,1.45-1.07,1.94-1.07Z"/>
    <path class="cls-2" d="m180.37,172.24h.39c.14-1.11.26-1.73.41-2.18-.41-.26-1-.41-1.63-.41-.77-.02-2.01.32-2.98,1.39-.92.82-1.58,2.7-1.58,4.49,0,1.63.71,2.5,2.07,2.5.92,0,1.73-.34,2.67-1.11l.85-.7-.14-.34-.26.17c-1.22.82-1.87,1.11-2.47,1.11-.95,0-1.45-.68-1.45-2.02,0-1.84.6-3.6,1.43-4.25.36-.27.77-.41,1.29-.41.77,0,1.38.32,1.38.73v1.02Z"/>
    <path class="cls-2" d="m297.32,171.06c2.26,0,3.85.41,5.5,1.47v2.47h.79c.15-1.68.38-2.94.79-4.29-2.44-.88-4.12-1.21-6.15-1.21-2.71,0-4.85.68-6.97,2.18-3.44,2.47-5.26,6.12-5.26,10.53,0,5.5,3.21,8.59,8.97,8.59,1.68.09,6-.71,7.44-1.62.59-4.59.71-5.26.74-5.35.06-.26.41-.56.79-.62l.94-.18.06-.82c-1.15.12-2.18.15-3.68.15s-2.56-.03-3.79-.15l-.15.82,1,.06c2.21.12,2.47.24,2.47.94,0,.44-.59,3.76-.74,4.47-1.32.71-2.47.97-4.06.97-4.88,0-7.41-2.74-7.41-7.94,0-4.29,1.74-10.47,8.71-10.47Z"/>
    <path class="cls-2" d="m259.16,174.38l-.49,2.16c-.07.29-.1.6-.1.87,0,.37.15.6.41.6.39,0,1.09-.44,2.48-1.6l-.12-.36c-.41.34-.9.8-1.28.8-.15,0-.26-.15-.26-.39,0-.09,0-.14.02-.19l1.56-6.44-.17-.15-.56.31c-.7-.26-.99-.32-1.45-.32s-.82.09-1.28.31c-1.05.53-1.62,1.04-2.04,1.87-.75,1.51-1.28,3.55-1.28,4.88,0,.75.26,1.33.58,1.33.63,0,1.99-.88,3.96-3.66Zm.82-3.57c-.37,1.85-.7,2.74-1.28,3.62-.97,1.43-2.01,2.41-2.55,2.41-.2,0-.31-.22-.31-.68,0-1.09.48-3.08,1.07-4.44.41-.94.8-1.24,1.62-1.24.39,0,.7.07,1.45.32Z"/>
    <path class="cls-2" d="m371.06,223.94l1.24-6.71c.21-1.15.41-1.32,1.5-1.41l1.24-.09.09-.82h-.71l-2.65.09c-.47,0-1,0-2.26-.03l-1.88-.06-.09.82,1.38.06c.71.03,1.03.26,1.03.79,0,.41-.12,1.32-.26,2.24l-2.18,12.76c-.5,2.71-.53,2.74-1.71,2.85l-1.21.09-.12.82,1.24-.03c1.41-.03,2.09-.06,2.65-.06l2.85.09h.76l.09-.82-1.44-.09c-.79-.06-1.06-.26-1.06-.88,0-.26.03-.47.12-1.03l1.24-7.26,1.79-.03c1.82-.03,3.06-.06,3.62-.06s1.76.03,3.62.06l1.79.03-1.18,6.32c-.26,1.44-.47,2.26-.62,2.44-.12.24-.44.35-1.09.41l-1.47.09-.12.82,1.65-.03c1.29-.03,2.18-.06,2.5-.06.47,0,1.38.03,2.65.06l1.24.03.09-.82-1.71-.09c-.76-.03-1.06-.26-1.06-.88,0-.26.03-.53.12-1.03l2.71-15.29c.21-1.15.38-1.29,1.5-1.41l1.06-.09.09-.82h-.47l-2.68.09c-.44,0-1.06,0-2.35-.03l-1.85-.06-.09.82,1.41.06c.71.03,1.03.26,1.03.79,0,.41-.12,1.35-.26,2.24l-.88,5.12h-10.88Z"/>
    <path class="cls-2" d="m328.55,165.58l-.2-.19c-.88.44-1.5.6-2.72.71l-.07.36h.82c.41,0,.58.12.58.41,0,.12-.02.31-.03.41l-1.72,9.37c-.02.05-.02.12-.02.17,0,.66.82,1.22,1.75,1.22.63,0,1.5-.32,2.23-.85,1.63-1.16,2.75-3.49,2.75-5.73,0-.65-.15-1.31-.36-1.56-.12-.15-.34-.24-.6-.24-.41,0-.92.14-1.39.37-.87.46-1.43.97-2.48,2.31l1.46-6.77Zm1.48,5.07c.44,0,.66.39.66,1.22,0,1.09-.36,2.55-.87,3.66-.56,1.17-1.24,1.72-2.16,1.72-.78,0-1.21-.39-1.21-1.11,0-.58.26-2.98,1.63-4.42.56-.58,1.45-1.07,1.94-1.07Z"/>
    <path class="cls-2" d="m354.55,205.58l-.2-.19c-.88.44-1.5.6-2.72.71l-.07.36h.82c.41,0,.58.12.58.41,0,.12-.02.31-.03.41l-1.72,9.37c-.02.05-.02.12-.02.17,0,.66.82,1.22,1.75,1.22.63,0,1.5-.32,2.23-.85,1.63-1.16,2.75-3.49,2.75-5.73,0-.65-.15-1.31-.36-1.56-.12-.15-.34-.24-.6-.24-.41,0-.92.14-1.39.37-.87.46-1.43.97-2.48,2.31l1.46-6.77Zm1.48,5.07c.44,0,.66.39.66,1.22,0,1.09-.36,2.55-.87,3.66-.56,1.17-1.24,1.72-2.16,1.72-.78,0-1.21-.39-1.21-1.11,0-.58.26-2.98,1.63-4.42.56-.58,1.45-1.07,1.94-1.07Z"/>
    <path class="cls-2" d="m410.37,212.24h.39c.14-1.11.26-1.73.41-2.18-.41-.26-1-.41-1.63-.41-.77-.02-2.01.32-2.98,1.39-.92.82-1.58,2.7-1.58,4.49,0,1.63.71,2.5,2.07,2.5.92,0,1.73-.34,2.67-1.11l.85-.7-.14-.34-.26.17c-1.22.82-1.87,1.11-2.47,1.11-.95,0-1.45-.68-1.45-2.02,0-1.84.6-3.6,1.43-4.25.36-.27.77-.41,1.29-.41.77,0,1.38.32,1.38.73v1.02Z"/>
    <path class="cls-2" d="m104.76,250.16c2.26,0,3.85.41,5.5,1.47v2.47h.79c.15-1.68.38-2.94.79-4.29-2.44-.88-4.12-1.21-6.15-1.21-2.71,0-4.85.68-6.97,2.18-3.44,2.47-5.26,6.12-5.26,10.53,0,5.5,3.21,8.59,8.97,8.59,1.68.09,6-.71,7.44-1.62.59-4.59.71-5.26.74-5.35.06-.26.41-.56.79-.62l.94-.18.06-.82c-1.15.12-2.18.15-3.68.15s-2.56-.03-3.79-.15l-.15.82,1,.06c2.21.12,2.47.24,2.47.94,0,.44-.59,3.76-.74,4.47-1.32.71-2.47.97-4.06.97-4.88,0-7.41-2.74-7.41-7.94,0-4.29,1.74-10.47,8.71-10.47Z"/>
    <path class="cls-2" d="m66.61,253.49l-.49,2.16c-.07.29-.1.6-.1.87,0,.37.15.6.41.6.39,0,1.09-.44,2.48-1.6l-.12-.36c-.41.34-.9.8-1.28.8-.15,0-.26-.15-.26-.39,0-.09,0-.14.02-.19l1.56-6.44-.17-.15-.56.31c-.7-.26-.99-.32-1.45-.32s-.82.09-1.28.31c-1.05.53-1.62,1.04-2.04,1.87-.75,1.51-1.28,3.55-1.28,4.88,0,.75.26,1.33.58,1.33.63,0,1.99-.88,3.96-3.66Zm.82-3.57c-.37,1.85-.7,2.74-1.28,3.62-.97,1.43-2.01,2.41-2.55,2.41-.2,0-.31-.22-.31-.68,0-1.09.48-3.08,1.07-4.44.41-.94.8-1.24,1.62-1.24.39,0,.7.07,1.45.32Z"/>
    <path class="cls-2" d="m182.5,298.04l1.24-6.71c.21-1.15.41-1.32,1.5-1.41l1.24-.09.09-.82h-.71l-2.65.09c-.47,0-1,0-2.26-.03l-1.88-.06-.09.82,1.38.06c.71.03,1.03.26,1.03.79,0,.41-.12,1.32-.26,2.24l-2.18,12.76c-.5,2.71-.53,2.74-1.71,2.85l-1.21.09-.12.82,1.24-.03c1.41-.03,2.09-.06,2.65-.06l2.85.09h.76l.09-.82-1.44-.09c-.79-.06-1.06-.26-1.06-.88,0-.26.03-.47.12-1.03l1.24-7.26,1.79-.03c1.82-.03,3.06-.06,3.62-.06s1.76.03,3.62.06l1.79.03-1.18,6.32c-.26,1.44-.47,2.26-.62,2.44-.12.24-.44.35-1.09.41l-1.47.09-.12.82,1.65-.03c1.29-.03,2.18-.06,2.5-.06.47,0,1.38.03,2.65.06l1.24.03.09-.82-1.71-.09c-.76-.03-1.06-.26-1.06-.88,0-.26.03-.53.12-1.03l2.71-15.29c.21-1.15.38-1.29,1.5-1.41l1.06-.09.09-.82h-.47l-2.68.09c-.44,0-1.06,0-2.35-.03l-1.85-.06-.09.82,1.41.06c.71.03,1.03.26,1.03.79,0,.41-.12,1.35-.26,2.24l-.88,5.12h-10.88Z"/>
    <path class="cls-2" d="m146,244.68l-.2-.19c-.88.44-1.5.6-2.72.71l-.07.36h.82c.41,0,.58.12.58.41,0,.12-.02.31-.03.41l-1.72,9.37c-.02.05-.02.12-.02.17,0,.66.82,1.22,1.75,1.22.63,0,1.5-.32,2.23-.85,1.63-1.16,2.75-3.49,2.75-5.73,0-.65-.15-1.31-.36-1.56-.12-.15-.34-.24-.6-.24-.41,0-.92.14-1.39.37-.87.46-1.43.97-2.48,2.31l1.46-6.77Zm1.48,5.07c.44,0,.66.39.66,1.22,0,1.09-.36,2.55-.87,3.66-.56,1.17-1.24,1.72-2.16,1.72-.78,0-1.21-.39-1.21-1.11,0-.58.26-2.98,1.63-4.42.56-.58,1.45-1.07,1.94-1.07Z"/>
    <path class="cls-2" d="m146,284.68l-.2-.19c-.88.44-1.5.6-2.72.71l-.07.36h.82c.41,0,.58.12.58.41,0,.12-.02.31-.03.41l-1.72,9.37c-.02.05-.02.12-.02.17,0,.66.82,1.22,1.75,1.22.63,0,1.5-.32,2.23-.85,1.63-1.16,2.75-3.49,2.75-5.73,0-.65-.15-1.31-.36-1.56-.12-.15-.34-.24-.6-.24-.41,0-.92.14-1.39.37-.87.46-1.43.97-2.48,2.31l1.46-6.77Zm1.48,5.07c.44,0,.66.39.66,1.22,0,1.09-.36,2.55-.87,3.66-.56,1.17-1.24,1.72-2.16,1.72-.78,0-1.21-.39-1.21-1.11,0-.58.26-2.98,1.63-4.42.56-.58,1.45-1.07,1.94-1.07Z"/>
    <path class="cls-2" d="m217.81,291.35h.39c.14-1.11.26-1.73.41-2.18-.41-.26-1-.41-1.63-.41-.77-.02-2.01.32-2.98,1.39-.92.82-1.58,2.7-1.58,4.49,0,1.63.71,2.5,2.07,2.5.92,0,1.73-.34,2.67-1.11l.85-.7-.14-.34-.26.17c-1.22.82-1.87,1.11-2.47,1.11-.95,0-1.45-.68-1.45-2.02,0-1.84.6-3.6,1.43-4.25.36-.27.77-.41,1.29-.41.77,0,1.38.32,1.38.73v1.02Z"/>
    <path class="cls-2" d="m324.76,250.16c2.26,0,3.85.41,5.5,1.47v2.47h.79c.15-1.68.38-2.94.79-4.29-2.44-.88-4.12-1.21-6.15-1.21-2.71,0-4.85.68-6.97,2.18-3.44,2.47-5.26,6.12-5.26,10.53,0,5.5,3.21,8.59,8.97,8.59,1.68.09,6-.71,7.44-1.62.59-4.59.71-5.26.74-5.35.06-.26.41-.56.79-.62l.94-.18.06-.82c-1.15.12-2.18.15-3.68.15s-2.56-.03-3.79-.15l-.15.82,1,.06c2.21.12,2.47.24,2.47.94,0,.44-.59,3.76-.74,4.47-1.32.71-2.47.97-4.06.97-4.88,0-7.41-2.74-7.41-7.94,0-4.29,1.74-10.47,8.71-10.47Z"/>
    <path class="cls-2" d="m286.61,253.49l-.49,2.16c-.07.29-.1.6-.1.87,0,.37.15.6.41.6.39,0,1.09-.44,2.48-1.6l-.12-.36c-.41.34-.9.8-1.28.8-.15,0-.26-.15-.26-.39,0-.09,0-.14.02-.19l1.56-6.44-.17-.15-.56.31c-.7-.26-.99-.32-1.45-.32s-.82.09-1.28.31c-1.05.53-1.62,1.04-2.04,1.87-.75,1.51-1.28,3.55-1.28,4.88,0,.75.26,1.33.58,1.33.63,0,1.99-.88,3.96-3.66Zm.82-3.57c-.37,1.85-.7,2.74-1.28,3.62-.97,1.43-2.01,2.41-2.55,2.41-.2,0-.31-.22-.31-.68,0-1.09.48-3.08,1.07-4.44.41-.94.8-1.24,1.62-1.24.39,0,.7.07,1.45.32Z"/>
    <path class="cls-2" d="m388.5,288.04l1.24-6.71c.21-1.15.41-1.32,1.5-1.41l1.24-.09.09-.82h-.71l-2.65.09c-.47,0-1,0-2.26-.03l-1.88-.06-.09.82,1.38.06c.71.03,1.03.26,1.03.79,0,.41-.12,1.32-.26,2.24l-2.18,12.76c-.5,2.71-.53,2.74-1.71,2.85l-1.21.09-.12.82,1.24-.03c1.41-.03,2.09-.06,2.65-.06l2.85.09h.76l.09-.82-1.44-.09c-.79-.06-1.06-.26-1.06-.88,0-.26.03-.47.12-1.03l1.24-7.26,1.79-.03c1.82-.03,3.06-.06,3.62-.06s1.76.03,3.62.06l1.79.03-1.18,6.32c-.26,1.44-.47,2.26-.62,2.44-.12.24-.44.35-1.09.41l-1.47.09-.12.82,1.65-.03c1.29-.03,2.18-.06,2.5-.06.47,0,1.38.03,2.65.06l1.24.03.09-.82-1.71-.09c-.76-.03-1.06-.26-1.06-.88,0-.26.03-.53.12-1.03l2.71-15.29c.21-1.15.38-1.29,1.5-1.41l1.06-.09.09-.82h-.47l-2.68.09c-.44,0-1.06,0-2.35-.03l-1.85-.06-.09.82,1.41.06c.71.03,1.03.26,1.03.79,0,.41-.12,1.35-.26,2.24l-.88,5.12h-10.88Z"/>
    <path class="cls-2" d="m356,244.68l-.2-.19c-.88.44-1.5.6-2.72.71l-.07.36h.82c.41,0,.58.12.58.41,0,.12-.02.31-.03.41l-1.72,9.37c-.02.05-.02.12-.02.17,0,.66.82,1.22,1.75,1.22.63,0,1.5-.32,2.23-.85,1.63-1.16,2.75-3.49,2.75-5.73,0-.65-.15-1.31-.36-1.56-.12-.15-.34-.24-.6-.24-.41,0-.92.14-1.39.37-.87.46-1.43.97-2.48,2.31l1.46-6.77Zm1.48,5.07c.44,0,.66.39.66,1.22,0,1.09-.36,2.55-.87,3.66-.56,1.17-1.24,1.72-2.16,1.72-.78,0-1.21-.39-1.21-1.11,0-.58.26-2.98,1.63-4.42.56-.58,1.45-1.07,1.94-1.07Z"/>
    <path class="cls-2" d="m437.81,291.35h.39c.14-1.11.26-1.73.41-2.18-.41-.26-1-.41-1.63-.41-.77-.02-2.01.32-2.98,1.39-.92.82-1.58,2.7-1.58,4.49,0,1.63.71,2.5,2.07,2.5.92,0,1.73-.34,2.67-1.11l.85-.7-.14-.34-.26.17c-1.22.82-1.87,1.11-2.47,1.11-.95,0-1.45-.68-1.45-2.02,0-1.84.6-3.6,1.43-4.25.36-.27.77-.41,1.29-.41.77,0,1.38.32,1.38.73v1.02Z"/>
    <path class="cls-2" d="m518.63,56.52h1.24c1.33,0,1.94.09,1.99.29.05.14.09.46.07.63l-.07,1.09h.48l.46-2.79-1.55.02c-1.5.02-2.65.03-3.25.03-.63,0-1.72-.02-3.18-.03l-1.62-.02-.31,2.79h.49l.26-1.02c.09-.37.2-.65.31-.77s.75-.22,1.38-.22h1.9l-1.46,8.86c-.27,1.55-.31,1.6-.99,1.65l-.87.05-.07.48.97-.02c.68-.02,1.17-.03,1.45-.03.32,0,.85.02,1.51.03l.75.02.05-.48-1-.05c-.44-.02-.61-.15-.61-.51,0-.15.02-.27.07-.6l1.6-9.4Z"/>
    <path class="cls-2" d="m414.63,275.97h1.24c1.33,0,1.94.09,1.99.29.05.14.09.46.07.63l-.07,1.09h.48l.46-2.79-1.55.02c-1.5.02-2.65.03-3.25.03-.63,0-1.72-.02-3.18-.03l-1.62-.02-.31,2.79h.49l.26-1.02c.09-.37.2-.65.31-.77s.75-.22,1.38-.22h1.9l-1.46,8.86c-.27,1.55-.31,1.6-.99,1.65l-.87.05-.07.48.97-.02c.68-.02,1.17-.03,1.45-.03.32,0,.85.02,1.51.03l.75.02.05-.48-1-.05c-.44-.02-.61-.15-.61-.51,0-.15.02-.27.07-.6l1.6-9.4Z"/>
    <g>
      <path class="cls-2" d="m376.03,146.94h3.51s0,8.41,0,8.41h1.2v-8.42h1.58s1.92.01,1.92.01v-.89h-8.21v.89Zm9.79,8.41h1.05v-3.24c0-1,.34-2.08,1.38-2.08,1.32,0,1.32,1.01,1.32,1.53v3.79h1.05v-3.89c0-.82-.05-2.25-1.85-2.25-.93,0-1.51.45-1.94.96v-4.56h-1.01v9.75Zm6.36-3.05c0,1.67,1.17,3.2,2.94,3.2.85,0,1.55-.3,2.13-.69l-.08-.89c-.59.43-1.2.74-2.05.74-1.03,0-1.94-.89-2-2.28h4.19v-.39c-.12-2.31-1.44-2.86-2.4-2.86-1.43,0-2.73,1.36-2.73,3.17Zm1.01-.66c.15-.66.69-1.67,1.71-1.67.39,0,1.4.18,1.63,1.67h-3.35Zm10.1,2.07c0,.7,0,1.8,1.42,1.8.74,0,1.66-.19,2.36-.8v.65h1.03v-6.01h-1.05v3.78c0,.14,0,.26-.01.39-.07.58-.59,1.23-1.61,1.23-.92,0-1.07-.3-1.08-.88v-4.52h-1.05v4.36Zm6.98,1.65h1.05v-3.24c0-1,.34-2.08,1.38-2.08,1.32,0,1.32,1.01,1.32,1.53v3.79h1.05v-3.89c0-.95-.12-2.25-1.85-2.25-1.19,0-1.78.77-1.97,1.01v-.95h-.99v6.08Zm6.99,0h1.01v-6.01h-1.01v6.01Zm-.09-7.97h1.22v-1.2h-1.22v1.2Zm2.47,2.75h1.13v3.63c0,1.49.66,1.73,1.11,1.73.61,0,1.3-.14,2-.51l-.22-.8c-.19.14-.61.45-1.19.45-.7,0-.73-.8-.73-1.17v-3.32h1.9v-.8h-1.9v-1.7h-.95v1.7h-1.16v.8Zm9.72,3.69c0,.62.41,1.67,1.54,1.67,1.49,0,2.23-.61,2.24-.62v.47h1.03v-4.12c-.07-1.13-.96-2.11-2.24-2.11-.85,0-1.47.22-2.12.59l.08.9c.45-.31,1.01-.69,2.03-.69.18,0,.53.01.85.41.34.41.34.86.35,1.24v.46c-1.39.01-3.75.35-3.75,1.78Zm.99-.01c0-.85,1.8-1.05,2.77-1.07v.85c0,.88-.93,1.07-1.51,1.07-.73,0-1.26-.36-1.26-.85Zm5.98,1.54h1.05v-3.24c0-1,.34-2.08,1.38-2.08,1.32,0,1.32,1.01,1.32,1.53v3.79h1.05v-3.89c0-.95-.12-2.25-1.85-2.25-1.19,0-1.78.77-1.97,1.01v-.95h-.99v6.08Zm6.37-2.98c0,1.61.95,3.13,2.32,3.13.89,0,1.54-.41,2-.85v.7h1.07v-9.75h-1.03v4.33c-.47-.38-1.11-.74-1.96-.74-1.34,0-2.4,1.39-2.4,3.17Zm1.05-.01c0-1.77,1.17-2.32,1.96-2.32h.03c.15,0,.58.01,1,.41.24.23.28.31.28.53v2.58c0,.42-.63,1.12-1.44,1.12-.73,0-1.82-.53-1.82-2.31Zm10.19-2.21h1.13v3.63c0,1.49.66,1.73,1.11,1.73.61,0,1.3-.14,2-.51l-.22-.8c-.19.14-.61.45-1.19.45-.7,0-.73-.8-.73-1.17v-3.32h1.9v-.8h-1.9v-1.7h-.95v1.7h-1.16v.8Zm5.71,5.21h1.05v-3.24c0-1,.34-2.08,1.38-2.08,1.32,0,1.32,1.01,1.32,1.53v3.79h1.05v-3.89c0-.82-.05-2.25-1.85-2.25-.93,0-1.51.45-1.94.96v-4.56h-1.01v9.75Zm6.36-3.05c0,1.67,1.17,3.2,2.94,3.2.85,0,1.55-.3,2.13-.69l-.08-.89c-.59.43-1.2.74-2.05.74-1.03,0-1.94-.89-2-2.28h4.19v-.39c-.12-2.31-1.44-2.86-2.4-2.86-1.43,0-2.73,1.36-2.73,3.17Zm1.01-.66c.15-.66.69-1.67,1.71-1.67.39,0,1.4.18,1.63,1.67h-3.35Zm10.11,3.71h1.01v-6.01h-1.01v6.01Zm-.09-7.97h1.22v-1.2h-1.22v1.2Zm3.31,7.97h1.05v-3.24c0-1,.34-2.08,1.38-2.08,1.32,0,1.32,1.01,1.32,1.53v3.79h1.05v-3.89c0-.95-.12-2.25-1.85-2.25-1.19,0-1.78.77-1.97,1.01v-.95h-.99v6.08Zm6.98,0h1.05v-3.24c0-1,.34-2.08,1.38-2.08,1.32,0,1.32,1.01,1.32,1.53v3.79h1.05v-3.89c0-.95-.12-2.25-1.85-2.25-1.19,0-1.78.77-1.97,1.01v-.95h-.99v6.08Zm6.36-3.05c0,1.67,1.17,3.2,2.94,3.2.85,0,1.55-.3,2.13-.69l-.08-.89c-.59.43-1.2.74-2.05.74-1.03,0-1.94-.89-2-2.28h4.19v-.39c-.12-2.31-1.44-2.86-2.4-2.86-1.43,0-2.73,1.36-2.73,3.17Zm1.01-.66c.15-.66.69-1.67,1.71-1.67.39,0,1.4.18,1.63,1.67h-3.35Zm5.62,3.71h1.01v-2.78c0-1.97,1.5-2.43,2.3-2.46v-.9c-1.43.03-2.15.95-2.36,1.28v-1.22h-.95v6.08Zm9.11,2.63h1.05v-3.25c.45.42,1.03.77,1.82.77,1.31,0,2.51-1.27,2.51-3.17,0-1.61-.85-3.12-2.13-3.12-.46,0-1.38.09-2.24.8v-.66h-1.01v8.64Zm1.05-4.33v-2.81c.08-.09.54-.77,1.43-.77,1.11,0,1.84,1.09,1.84,2.28,0,1.43-1.01,2.32-1.96,2.32-.8,0-1.31-.7-1.31-1.03Zm5.55,1.7h1.01v-2.78c0-1.97,1.5-2.43,2.3-2.46v-.9c-1.43.03-2.15.95-2.36,1.28v-1.22h-.95v6.08Zm3.93-2.98c0,1.84,1.42,3.13,2.96,3.13s2.97-1.28,2.97-3.12c0-1.69-1.24-3.25-2.97-3.25-1.59,0-2.96,1.4-2.96,3.24Zm1.05-.14c0-1.63,1.04-2.27,1.9-2.27s1.9.62,1.9,2.27-1,2.4-1.9,2.4-1.9-.7-1.9-2.4Zm6.14.14c0,1.61.95,3.13,2.32,3.13.89,0,1.54-.41,2-.85v.7h1.07v-9.75h-1.03v4.33c-.47-.38-1.11-.74-1.96-.74-1.34,0-2.4,1.39-2.4,3.17Zm1.05-.01c0-1.77,1.17-2.32,1.96-2.32h.03c.15,0,.58.01,1,.41.24.23.28.31.28.53v2.58c0,.42-.63,1.12-1.44,1.12-.73,0-1.82-.53-1.82-2.31Zm6.53,1.35c0,.7,0,1.8,1.42,1.8.74,0,1.66-.19,2.36-.8v.65h1.03v-6.01h-1.05v3.78c0,.14,0,.26-.01.39-.07.58-.59,1.23-1.61,1.23-.92,0-1.07-.3-1.08-.88v-4.52h-1.05v4.36Zm6.37-1.36c0,1.73,1.27,3.16,2.93,3.16.93,0,1.59-.3,2.2-.69l-.07-.9c-.43.3-1.07.73-2.12.73-1.13,0-1.89-.99-1.89-2.3,0-1.17.59-2.35,1.9-2.35,1.07,0,1.42.28,1.94.62l.16-.89c-.82-.47-1.26-.59-2.09-.59-1.89,0-2.97,1.65-2.97,3.21Zm5.76-2.2h1.13v3.63c0,1.49.66,1.73,1.11,1.73.61,0,1.3-.14,2-.51l-.22-.8c-.19.14-.61.45-1.19.45-.7,0-.73-.8-.73-1.17v-3.32h1.9v-.8h-1.9v-1.7h-.95v1.7h-1.16v.8Zm9.72,3.69c0,.62.41,1.67,1.54,1.67,1.49,0,2.23-.61,2.24-.62v.47h1.03v-4.12c-.07-1.13-.96-2.11-2.24-2.11-.85,0-1.47.22-2.12.59l.08.9c.45-.31,1.01-.69,2.03-.69.18,0,.53.01.85.41.34.41.34.86.35,1.24v.46c-1.39.01-3.75.35-3.75,1.78Zm.99-.01c0-.85,1.8-1.05,2.77-1.07v.85c0,.88-.93,1.07-1.51,1.07-.73,0-1.26-.36-1.26-.85Zm5.62,1.54h1.01v-2.78c0-1.97,1.5-2.43,2.3-2.46v-.9c-1.43.03-2.15.95-2.36,1.28v-1.22h-.95v6.08Zm4.62,0h1.01v-2.78c0-1.97,1.5-2.43,2.3-2.46v-.9c-1.43.03-2.15.95-2.36,1.28v-1.22h-.95v6.08Zm4.12-1.53c0,.62.41,1.67,1.54,1.67,1.49,0,2.23-.61,2.24-.62v.47h1.03v-4.12c-.07-1.13-.96-2.11-2.24-2.11-.85,0-1.47.22-2.12.59l.08.9c.45-.31,1.01-.69,2.03-.69.18,0,.53.01.85.41.34.41.34.86.35,1.24v.46c-1.39.01-3.75.35-3.75,1.78Zm.99-.01c0-.85,1.8-1.05,2.77-1.07v.85c0,.88-.93,1.07-1.51,1.07-.73,0-1.26-.36-1.26-.85Zm5.98,1.54h1.05v-3.24c0-1,.34-2.08,1.38-2.08,1.32,0,1.32,1.01,1.32,1.53v3.79h1.05v-3.89c0-.95-.12-2.25-1.85-2.25-1.19,0-1.78.77-1.97,1.01v-.95h-.99v6.08Zm6.26.96c0,1.04,1.34,1.82,3,1.82s3-.78,3-1.84c0-.16-.03-.34-.07-.5-.38-1.35-2.03-1.38-2.92-1.38h-1.01c-.65,0-.76-.46-.76-.72,0-.09.01-.23.15-.5.3.19.63.41,1.23.41,1.26,0,2.16-1.05,2.16-2.2,0-.58-.18-.97-.53-1.44l.12.11c.24-.01.66-.05,1.01-.05.27,0,.53.01.8.04l-.15-.85c-.73,0-1.44.14-2.12.42l.03.03c-.45-.31-.82-.45-1.32-.45-1.11,0-2.15.89-2.15,2.2,0,.27.04.81.45,1.34h0c-.24.34-.39.7-.39,1.15s.12.72.34,1.03c-.53.31-.86.84-.86,1.39Zm.95,0c0-.39.3-.85.85-.9h.39s.85-.01.85-.01c1.46,0,2.01.38,2.01.93,0,.62-.97,1.04-2.07,1.04-.74,0-2.04-.3-2.04-1.05Zm.47-4.9c0-1.15.72-1.43,1.2-1.43.73,0,1.22.54,1.22,1.42,0,1.15-.72,1.43-1.2,1.43-.73,0-1.22-.54-1.22-1.42Zm5.43.89c0,1.67,1.17,3.2,2.94,3.2.85,0,1.55-.3,2.13-.69l-.08-.89c-.59.43-1.2.74-2.05.74-1.03,0-1.94-.89-2-2.28h4.19v-.39c-.12-2.31-1.44-2.86-2.4-2.86-1.43,0-2.73,1.36-2.73,3.17Zm1.01-.66c.15-.66.69-1.67,1.71-1.67.39,0,1.4.18,1.63,1.67h-3.35Zm5,.73c0,1.61.95,3.13,2.32,3.13.89,0,1.54-.41,2-.85v.7h1.07v-9.75h-1.03v4.33c-.47-.38-1.11-.74-1.96-.74-1.34,0-2.4,1.39-2.4,3.17Zm1.05-.01c0-1.77,1.17-2.32,1.96-2.32h.03c.15,0,.58.01,1,.41.24.23.28.31.28.53v2.58c0,.42-.63,1.12-1.44,1.12-.73,0-1.82-.53-1.82-2.31Z"/>
      <path class="cls-2" d="m376.65,174.24h1.01v-6.01h-1.01v6.01Zm-.09-7.97h1.22v-1.2h-1.22v1.2Zm3.31,7.97h1.05v-3.24c0-1,.34-2.08,1.38-2.08,1.32,0,1.32,1.01,1.32,1.53v3.79h1.05v-3.89c0-.95-.12-2.25-1.85-2.25-1.19,0-1.78.77-1.97,1.01v-.95h-.99v6.08Zm10.64-5.21h1.13v3.63c0,1.49.66,1.73,1.11,1.73.61,0,1.3-.14,2-.51l-.22-.8c-.19.14-.61.45-1.19.45-.7,0-.73-.8-.73-1.17v-3.32h1.9v-.8h-1.9v-1.7h-.95v1.7h-1.16v.8Zm5.71,5.21h1.05v-3.24c0-1,.34-2.08,1.38-2.08,1.32,0,1.32,1.01,1.32,1.53v3.79h1.05v-3.89c0-.82-.05-2.25-1.85-2.25-.93,0-1.51.45-1.94.96v-4.56h-1.01v9.75Zm6.99,0h1.01v-6.01h-1.01v6.01Zm-.09-7.97h1.22v-1.2h-1.22v1.2Zm2.59,7.51c1.01.55,1.84.61,2.3.61,1.81,0,2.2-1.12,2.2-1.86,0-.88-.62-1.44-1.17-1.69-.84-.38-2.28-.2-2.28-1.19,0-.34.2-.82,1.13-.82s1.4.24,1.94.5l.15-.89c-.74-.31-1.22-.42-1.97-.42-1.84,0-2.21,1.07-2.21,1.78,0,.95.81,1.47,1.4,1.66.42.14,1,.2,1.3.3.27.08.76.35.76.86,0,.36-.24.92-1.26.92-1.09,0-1.74-.46-2.12-.68l-.16.92Zm10.38.46h1.05v-3.24c0-1,.34-2.08,1.38-2.08,1.32,0,1.32,1.01,1.32,1.53v3.79h1.05v-3.24c0-1,.34-2.08,1.38-2.08,1.32,0,1.31,1.53,1.31,1.53v3.79h1.07v-3.89c0-.78-.04-2.25-1.85-2.25-1.23,0-1.84.82-2.04,1.09-.19-.51-.59-1.09-1.71-1.09-1.19,0-1.78.77-1.97,1.01v-.95h-.99v6.08Zm10.23-1.53c0,.62.41,1.67,1.54,1.67,1.49,0,2.23-.61,2.24-.62v.47h1.03v-4.12c-.07-1.13-.96-2.11-2.24-2.11-.85,0-1.47.22-2.12.59l.08.9c.45-.31,1.01-.69,2.03-.69.18,0,.53.01.85.41.34.41.34.86.35,1.24v.46c-1.39.01-3.75.35-3.75,1.78Zm.99-.01c0-.85,1.8-1.05,2.77-1.07v.85c0,.88-.93,1.07-1.51,1.07-.73,0-1.26-.36-1.26-.85Zm5.98,1.54h1.05v-3.24c0-1,.34-2.08,1.38-2.08,1.32,0,1.32,1.01,1.32,1.53v3.79h1.05v-3.89c0-.95-.12-2.25-1.85-2.25-1.19,0-1.78.77-1.97,1.01v-.95h-.99v6.08Zm6.98,0h1.05v-3.24c0-1,.34-2.08,1.38-2.08,1.32,0,1.32,1.01,1.32,1.53v3.79h1.05v-3.89c0-.95-.12-2.25-1.85-2.25-1.19,0-1.78.77-1.97,1.01v-.95h-.99v6.08Zm6.36-3.05c0,1.67,1.17,3.2,2.94,3.2.85,0,1.55-.3,2.13-.69l-.08-.89c-.59.43-1.2.74-2.05.74-1.03,0-1.94-.89-2-2.28h4.19v-.39c-.12-2.31-1.44-2.86-2.4-2.86-1.43,0-2.73,1.36-2.73,3.17Zm1.01-.66c.15-.66.69-1.67,1.71-1.67.39,0,1.4.18,1.63,1.67h-3.35Zm5.62,3.71h1.01v-2.78c0-1.97,1.5-2.43,2.3-2.46v-.9c-1.43.03-2.15.95-2.36,1.28v-1.22h-.95v6.08Zm8.38.96c0,1.04,1.34,1.82,3,1.82s3-.78,3-1.84c0-.16-.03-.34-.07-.5-.38-1.35-2.03-1.38-2.92-1.38h-1.01c-.65,0-.76-.46-.76-.72,0-.09.01-.23.15-.5.3.19.63.41,1.23.41,1.26,0,2.16-1.05,2.16-2.2,0-.58-.18-.97-.53-1.44l.12.11c.24-.01.66-.05,1.01-.05.27,0,.53.01.8.04l-.15-.85c-.73,0-1.44.14-2.12.42l.03.03c-.45-.31-.82-.45-1.32-.45-1.11,0-2.15.89-2.15,2.2,0,.27.04.81.45,1.34h0c-.24.34-.39.7-.39,1.15s.12.72.34,1.03c-.53.31-.86.84-.86,1.39Zm.95,0c0-.39.3-.85.85-.9h.39s.85-.01.85-.01c1.46,0,2.01.38,2.01.93,0,.62-.97,1.04-2.07,1.04-.74,0-2.04-.3-2.04-1.05Zm.47-4.9c0-1.15.72-1.43,1.2-1.43.73,0,1.22.54,1.22,1.42,0,1.15-.72,1.43-1.2,1.43-.73,0-1.22-.54-1.22-1.42Zm6.06,3.94h1.01v-6.01h-1.01v6.01Zm-.09-7.97h1.22v-1.2h-1.22v1.2Zm2.42,1.96l2.32,6.01h1.19l2.32-6.01h-1c-1.31,3.4-1.81,4.79-1.89,5.33-.07-.42-.15-.63-.65-2.04l-1.26-3.29h-1.04Zm6.49,2.96c0,1.67,1.17,3.2,2.94,3.2.85,0,1.55-.3,2.13-.69l-.08-.89c-.59.43-1.2.74-2.05.74-1.03,0-1.94-.89-2-2.28h4.19v-.39c-.12-2.31-1.44-2.86-2.4-2.86-1.43,0-2.73,1.36-2.73,3.17Zm1.01-.66c.15-.66.69-1.67,1.71-1.67.39,0,1.4.18,1.63,1.67h-3.35Zm9.26-1.5h1.13v3.63c0,1.49.66,1.73,1.11,1.73.61,0,1.3-.14,2-.51l-.22-.8c-.19.14-.61.45-1.19.45-.7,0-.73-.8-.73-1.17v-3.32h1.9v-.8h-1.9v-1.7h-.95v1.7h-1.16v.8Zm5.71,5.21h1.05v-3.24c0-1,.34-2.08,1.38-2.08,1.32,0,1.32,1.01,1.32,1.53v3.79h1.05v-3.89c0-.82-.05-2.25-1.85-2.25-.93,0-1.51.45-1.94.96v-4.56h-1.01v9.75Zm6.36-3.05c0,1.67,1.17,3.2,2.94,3.2.85,0,1.55-.3,2.13-.69l-.08-.89c-.59.43-1.2.74-2.05.74-1.03,0-1.94-.89-2-2.28h4.19v-.39c-.12-2.31-1.44-2.86-2.4-2.86-1.43,0-2.73,1.36-2.73,3.17Zm1.01-.66c.15-.66.69-1.67,1.71-1.67.39,0,1.4.18,1.63,1.67h-3.35Zm10.11,3.71h1.01v-6.01h-1.01v6.01Zm-.09-7.97h1.22v-1.2h-1.22v1.2Zm2.7,4.98c0,1.61.95,3.13,2.32,3.13.89,0,1.54-.41,2-.85v.7h1.07v-9.75h-1.03v4.33c-.47-.38-1.11-.74-1.96-.74-1.34,0-2.4,1.39-2.4,3.17Zm1.05-.01c0-1.77,1.17-2.32,1.96-2.32h.03c.15,0,.58.01,1,.41.24.23.28.31.28.53v2.58c0,.42-.63,1.12-1.44,1.12-.73,0-1.82-.53-1.82-2.31Zm5.91-.05c0,1.67,1.17,3.2,2.94,3.2.85,0,1.55-.3,2.13-.69l-.08-.89c-.59.43-1.2.74-2.05.74-1.03,0-1.94-.89-2-2.28h4.19v-.39c-.12-2.31-1.44-2.86-2.4-2.86-1.43,0-2.73,1.36-2.73,3.17Zm1.01-.66c.15-.66.69-1.67,1.71-1.67.39,0,1.4.18,1.63,1.67h-3.35Zm5.6,3.71h1.05v-3.24c0-1,.34-2.08,1.38-2.08,1.32,0,1.32,1.01,1.32,1.53v3.79h1.05v-3.89c0-.95-.12-2.25-1.85-2.25-1.19,0-1.78.77-1.97,1.01v-.95h-.99v6.08Zm6.14-5.21h1.13v3.63c0,1.49.66,1.73,1.11,1.73.61,0,1.3-.14,2-.51l-.22-.8c-.19.14-.61.45-1.19.45-.7,0-.73-.8-.73-1.17v-3.32h1.9v-.8h-1.9v-1.7h-.95v1.7h-1.16v.8Zm5.72,5.21h1.01v-6.01h-1.01v6.01Zm-.09-7.97h1.22v-1.2h-1.22v1.2Zm2.47,2.75h1.13v3.63c0,1.49.66,1.73,1.11,1.73.61,0,1.3-.14,2-.51l-.22-.8c-.19.14-.61.45-1.19.45-.7,0-.73-.8-.73-1.17v-3.32h1.9v-.8h-1.9v-1.7h-.95v1.7h-1.16v.8Zm4.44-.8l2.52,5.76c.05.11.07.16.07.23,0,.05-.01.12-.05.22-.58,1.4-.69,1.81-1.26,1.81-.23,0-.53-.08-.99-.23l.07.88c.32.08.73.11.99.11.62,0,1.01-.31,1.55-1.55l2.93-7.22h-1.01c-.89,2.21-1.77,4.41-1.8,5.33-.12-.77-.12-1.13-1.96-5.33h-1.07Zm6.21,6.01h1.13v-1.13h-1.13v1.13Z"/>
    </g>
    <path class="cls-2" d="m315.97,155.85h1.35v-10.41h-1.35v10.41Zm3.28-3.31c0,1.78,1.05,3.48,2.58,3.48.99,0,1.71-.45,2.22-.94v.78h1.18v-10.83h-1.14v4.81c-.52-.42-1.23-.82-2.17-.82-1.48,0-2.67,1.54-2.67,3.52Zm1.17-.01c0-1.96,1.3-2.58,2.17-2.58h.03c.16,0,.64.01,1.11.45.27.25.31.34.31.58v2.86c0,.46-.7,1.24-1.6,1.24-.81,0-2.02-.58-2.02-2.56Zm6.57-.06c0,1.86,1.3,3.55,3.27,3.55.94,0,1.72-.33,2.37-.76l-.09-.99c-.66.48-1.33.82-2.28.82-1.14,0-2.16-.99-2.22-2.53h4.65v-.43c-.13-2.56-1.6-3.18-2.67-3.18-1.59,0-3.03,1.51-3.03,3.52Zm1.12-.73c.16-.73.76-1.86,1.9-1.86.43,0,1.56.19,1.81,1.86h-3.72Zm6.22,4.12h1.17v-3.6c0-1.11.37-2.31,1.53-2.31,1.47,0,1.47,1.12,1.47,1.69v4.21h1.17v-4.32c0-1.05-.13-2.5-2.05-2.5-1.32,0-1.98.85-2.19,1.12v-1.05h-1.09v6.75Zm6.82-5.79h1.26v4.03c0,1.65.73,1.92,1.23,1.92.67,0,1.44-.15,2.22-.57l-.24-.88c-.21.15-.67.49-1.32.49-.78,0-.81-.88-.81-1.3v-3.69h2.11v-.88h-2.11v-1.89h-1.05v1.89h-1.29v.88Zm6.36,5.79h1.12v-6.67h-1.12v6.67Zm-.1-8.85h1.35v-1.33h-1.35v1.33Zm2.74,3.06h1.26v4.03c0,1.65.73,1.92,1.23,1.92.67,0,1.44-.15,2.22-.57l-.24-.88c-.21.15-.67.49-1.32.49-.78,0-.81-.88-.81-1.3v-3.69h2.11v-.88h-2.11v-1.89h-1.05v1.89h-1.29v.88Zm4.93-.88l2.8,6.4c.06.12.07.18.07.25,0,.06-.01.13-.06.24-.64,1.56-.76,2.01-1.39,2.01-.25,0-.58-.09-1.09-.25l.07.97c.36.09.81.12,1.09.12.69,0,1.12-.34,1.72-1.72l3.25-8.02h-1.12c-.99,2.46-1.96,4.9-1.99,5.92-.13-.85-.13-1.26-2.17-5.92h-1.18Z"/>
    <path class="cls-2" d="m544.76,250.16c2.26,0,3.85.41,5.5,1.47v2.47h.79c.15-1.68.38-2.94.79-4.29-2.44-.88-4.12-1.21-6.15-1.21-2.71,0-4.85.68-6.97,2.18-3.44,2.47-5.26,6.12-5.26,10.53,0,5.5,3.21,8.59,8.97,8.59,1.68.09,6-.71,7.44-1.62.59-4.59.71-5.26.74-5.35.06-.26.41-.56.79-.62l.94-.18.06-.82c-1.15.12-2.18.15-3.68.15s-2.56-.03-3.79-.15l-.15.82,1,.06c2.21.12,2.47.24,2.47.94,0,.44-.59,3.76-.74,4.47-1.32.71-2.47.97-4.06.97-4.88,0-7.41-2.74-7.41-7.94,0-4.29,1.74-10.47,8.71-10.47Z"/>
    <path class="cls-2" d="m506.61,253.49l-.49,2.16c-.07.29-.1.6-.1.87,0,.37.15.6.41.6.39,0,1.09-.44,2.48-1.6l-.12-.36c-.41.34-.9.8-1.28.8-.15,0-.26-.15-.26-.39,0-.09,0-.14.02-.19l1.56-6.44-.17-.15-.56.31c-.7-.26-.99-.32-1.45-.32s-.82.09-1.28.31c-1.05.53-1.62,1.04-2.04,1.87-.75,1.51-1.28,3.55-1.28,4.88,0,.75.26,1.33.58,1.33.63,0,1.99-.88,3.96-3.66Zm.82-3.57c-.37,1.85-.7,2.74-1.28,3.62-.97,1.43-2.01,2.41-2.55,2.41-.2,0-.31-.22-.31-.68,0-1.09.48-3.08,1.07-4.44.41-.94.8-1.24,1.62-1.24.39,0,.7.07,1.45.32Z"/>
    <path class="cls-2" d="m538.5,288.04l1.24-6.71c.21-1.15.41-1.32,1.5-1.41l1.24-.09.09-.82h-.71l-2.65.09c-.47,0-1,0-2.26-.03l-1.88-.06-.09.82,1.38.06c.71.03,1.03.26,1.03.79,0,.41-.12,1.32-.26,2.24l-2.18,12.76c-.5,2.71-.53,2.74-1.71,2.85l-1.21.09-.12.82,1.24-.03c1.41-.03,2.09-.06,2.65-.06l2.85.09h.76l.09-.82-1.44-.09c-.79-.06-1.06-.26-1.06-.88,0-.26.03-.47.12-1.03l1.24-7.26,1.79-.03c1.82-.03,3.06-.06,3.62-.06s1.76.03,3.62.06l1.79.03-1.18,6.32c-.26,1.44-.47,2.26-.62,2.44-.12.24-.44.35-1.09.41l-1.47.09-.12.82,1.65-.03c1.29-.03,2.18-.06,2.5-.06.47,0,1.38.03,2.65.06l1.24.03.09-.82-1.71-.09c-.76-.03-1.06-.26-1.06-.88,0-.26.03-.53.12-1.03l2.71-15.29c.21-1.15.38-1.29,1.5-1.41l1.06-.09.09-.82h-.47l-2.68.09c-.44,0-1.06,0-2.35-.03l-1.85-.06-.09.82,1.41.06c.71.03,1.03.26,1.03.79,0,.41-.12,1.35-.26,2.24l-.88,5.12h-10.88Z"/>
    <path class="cls-2" d="m576,244.68l-.2-.19c-.88.44-1.5.6-2.72.71l-.07.36h.82c.41,0,.58.12.58.41,0,.12-.02.31-.03.41l-1.72,9.37c-.02.05-.02.12-.02.17,0,.66.82,1.22,1.75,1.22.63,0,1.5-.32,2.23-.85,1.63-1.16,2.75-3.49,2.75-5.73,0-.65-.15-1.31-.36-1.56-.12-.15-.34-.24-.6-.24-.41,0-.92.14-1.39.37-.87.46-1.43.97-2.48,2.31l1.46-6.77Zm1.48,5.07c.44,0,.66.39.66,1.22,0,1.09-.36,2.55-.87,3.66-.56,1.17-1.24,1.72-2.16,1.72-.78,0-1.21-.39-1.21-1.11,0-.58.26-2.98,1.63-4.42.56-.58,1.45-1.07,1.94-1.07Z"/>
    <path class="cls-2" d="m577.81,291.35h.39c.14-1.11.26-1.73.41-2.18-.41-.26-1-.41-1.63-.41-.77-.02-2.01.32-2.98,1.39-.92.82-1.58,2.7-1.58,4.49,0,1.63.71,2.5,2.07,2.5.92,0,1.73-.34,2.67-1.11l.85-.7-.14-.34-.26.17c-1.22.82-1.87,1.11-2.47,1.11-.95,0-1.45-.68-1.45-2.02,0-1.84.6-3.6,1.43-4.25.36-.27.77-.41,1.29-.41.77,0,1.38.32,1.38.73v1.02Z"/>
    <path class="cls-2" d="m564.63,275.97h1.24c1.33,0,1.94.09,1.99.29.05.14.09.46.07.63l-.07,1.09h.48l.46-2.79-1.55.02c-1.5.02-2.65.03-3.25.03-.63,0-1.72-.02-3.18-.03l-1.62-.02-.31,2.79h.49l.26-1.02c.09-.37.2-.65.31-.77s.75-.22,1.38-.22h1.9l-1.46,8.86c-.27,1.55-.31,1.6-.99,1.65l-.87.05-.07.48.97-.02c.68-.02,1.17-.03,1.45-.03.32,0,.85.02,1.51.03l.75.02.05-.48-1-.05c-.44-.02-.61-.15-.61-.51,0-.15.02-.27.07-.6l1.6-9.4Z"/>
    <path class="cls-2" d="m576,264.68l-.2-.19c-.88.44-1.5.6-2.72.71l-.07.36h.82c.41,0,.58.12.58.41,0,.12-.02.31-.03.41l-1.72,9.37c-.02.05-.02.12-.02.17,0,.66.82,1.22,1.75,1.22.63,0,1.5-.32,2.23-.85,1.63-1.16,2.75-3.49,2.75-5.73,0-.65-.15-1.31-.36-1.56-.12-.15-.34-.24-.6-.24-.41,0-.92.14-1.39.37-.87.46-1.43.97-2.48,2.31l1.46-6.77Zm1.48,5.07c.44,0,.66.39.66,1.22,0,1.09-.36,2.55-.87,3.66-.56,1.17-1.24,1.72-2.16,1.72-.78,0-1.21-.39-1.21-1.11,0-.58.26-2.98,1.63-4.42.56-.58,1.45-1.07,1.94-1.07Z"/>
    <path class="cls-2" d="m226.69,176.84v-1.44h-13.19v1.44h13.19Zm0,5.21v-1.44h-13.19v1.44h13.19Z"/>
    <path class="cls-2" d="m34.13,255.94v-1.44h-13.19v1.44h13.19Zm0,5.21v-1.44h-13.19v1.44h13.19Z"/>
    <path class="cls-2" d="m254.13,256.94v-1.44h-13.19v1.44h13.19Zm0,5.21v-1.44h-13.19v1.44h13.19Z"/>
    <path class="cls-2" d="m474.13,255.94v-1.44h-13.19v1.44h13.19Zm0,5.21v-1.44h-13.19v1.44h13.19Z"/>
    <g>
      <path class="cls-2" d="m21.84,214.81h1.05v-8.42l.53,1.08,3.7,7.34h1.69v-9.37h-1.05v8.42l-.53-1.08-3.7-7.34h-1.69v9.37Zm8.87-1.53c0,.62.41,1.67,1.54,1.67,1.49,0,2.23-.61,2.24-.62v.47h1.03v-4.12c-.07-1.13-.96-2.11-2.24-2.11-.85,0-1.47.22-2.12.59l.08.9c.45-.31,1.01-.69,2.03-.69.18,0,.53.01.85.41.34.41.34.86.35,1.24v.46c-1.39.01-3.75.35-3.75,1.78Zm.99-.01c0-.85,1.8-1.05,2.77-1.07v.85c0,.88-.93,1.07-1.51,1.07-.73,0-1.26-.36-1.26-.85Zm5.14-3.67h1.13v3.63c0,1.49.66,1.73,1.11,1.73.61,0,1.3-.14,2-.51l-.22-.8c-.19.14-.61.45-1.19.45-.7,0-.73-.8-.73-1.17v-3.32h1.9v-.8h-1.9v-1.7h-.95v1.7h-1.16v.8Zm5.71,3.56c0,.7,0,1.8,1.42,1.8.74,0,1.66-.19,2.36-.8v.65h1.03v-6.01h-1.05v3.78c0,.14,0,.26-.01.39-.07.58-.59,1.23-1.61,1.23-.92,0-1.07-.3-1.08-.88v-4.52h-1.05v4.36Zm6.99,1.65h1.01v-2.78c0-1.97,1.5-2.43,2.3-2.46v-.9c-1.43.03-2.15.95-2.36,1.28v-1.22h-.95v6.08Zm4.12-1.53c0,.62.41,1.67,1.54,1.67,1.49,0,2.23-.61,2.24-.62v.47h1.03v-4.12c-.07-1.13-.96-2.11-2.24-2.11-.85,0-1.47.22-2.12.59l.08.9c.45-.31,1.01-.69,2.03-.69.18,0,.53.01.85.41.34.41.34.86.35,1.24v.46c-1.39.01-3.75.35-3.75,1.78Zm.99-.01c0-.85,1.8-1.05,2.77-1.07v.85c0,.88-.93,1.07-1.51,1.07-.73,0-1.26-.36-1.26-.85Zm5.99,1.54h1.01v-9.75h-1.01v9.75Zm3.23,0h1.01v-6.01h-1.01v6.01Zm-.09-7.97h1.22v-1.2h-1.22v1.2Zm2.47,2.75h1.13v3.63c0,1.49.66,1.73,1.11,1.73.61,0,1.3-.14,2-.51l-.22-.8c-.19.14-.61.45-1.19.45-.7,0-.73-.8-.73-1.17v-3.32h1.9v-.8h-1.9v-1.7h-.95v1.7h-1.16v.8Zm4.44-.8l2.52,5.76c.05.11.07.16.07.23,0,.05-.01.12-.05.22-.58,1.4-.69,1.81-1.26,1.81-.23,0-.53-.08-.99-.23l.07.88c.32.08.73.11.99.11.62,0,1.01-.31,1.55-1.55l2.93-7.22h-1.01c-.89,2.21-1.77,4.41-1.8,5.33-.12-.77-.12-1.13-1.96-5.33h-1.07Zm11.12,4.48c0,.62.41,1.67,1.54,1.67,1.49,0,2.23-.61,2.24-.62v.47h1.03v-4.12c-.07-1.13-.96-2.11-2.24-2.11-.85,0-1.47.22-2.12.59l.08.9c.45-.31,1.01-.69,2.03-.69.18,0,.53.01.85.41.34.41.34.86.35,1.24v.46c-1.39.01-3.75.35-3.75,1.78Zm.99-.01c0-.85,1.8-1.05,2.77-1.07v.85c0,.88-.93,1.07-1.51,1.07-.73,0-1.26-.36-1.26-.85Zm5.98,1.54h1.05v-3.24c0-1,.34-2.08,1.38-2.08,1.32,0,1.32,1.01,1.32,1.53v3.79h1.05v-3.24c0-1,.34-2.08,1.38-2.08,1.32,0,1.31,1.53,1.31,1.53v3.79h1.07v-3.89c0-.78-.04-2.25-1.85-2.25-1.23,0-1.84.82-2.04,1.09-.19-.51-.59-1.09-1.71-1.09-1.19,0-1.78.77-1.97,1.01v-.95h-.99v6.08Zm10.04-2.98c0,1.84,1.42,3.13,2.96,3.13s2.97-1.28,2.97-3.12c0-1.69-1.24-3.25-2.97-3.25-1.59,0-2.96,1.4-2.96,3.24Zm1.05-.14c0-1.63,1.04-2.27,1.9-2.27s1.9.62,1.9,2.27-1,2.4-1.9,2.4-1.9-.7-1.9-2.4Zm6.37,3.12h1.05v-3.24c0-1,.34-2.08,1.38-2.08,1.32,0,1.32,1.01,1.32,1.53v3.79h1.05v-3.89c0-.95-.12-2.25-1.85-2.25-1.19,0-1.78.77-1.97,1.01v-.95h-.99v6.08Zm6.26.96c0,1.04,1.34,1.82,3,1.82s3-.78,3-1.84c0-.16-.03-.34-.07-.5-.38-1.35-2.03-1.38-2.92-1.38h-1.01c-.65,0-.76-.46-.76-.72,0-.09.01-.23.15-.5.3.19.63.41,1.23.41,1.26,0,2.16-1.05,2.16-2.2,0-.58-.18-.97-.53-1.44l.12.11c.24-.01.66-.05,1.01-.05.27,0,.53.01.8.04l-.15-.85c-.73,0-1.44.14-2.12.42l.03.03c-.45-.31-.82-.45-1.32-.45-1.11,0-2.15.89-2.15,2.2,0,.27.04.81.45,1.34h0c-.24.34-.39.7-.39,1.15s.12.72.34,1.03c-.53.31-.86.84-.86,1.39Zm.95,0c0-.39.3-.85.85-.9h.39s.85-.01.85-.01c1.46,0,2.01.38,2.01.93,0,.62-.97,1.04-2.07,1.04-.74,0-2.04-.3-2.04-1.05Zm.47-4.9c0-1.15.72-1.43,1.2-1.43.73,0,1.22.54,1.22,1.42,0,1.15-.72,1.43-1.2,1.43-.73,0-1.22-.54-1.22-1.42Zm10.56,3.94h1.01v-9.75h-1.01v9.75Zm3.23,0h1.01v-6.01h-1.01v6.01Zm-.09-7.97h1.22v-1.2h-1.22v1.2Zm3.31,7.97h1.05v-3.24c0-1,.34-2.08,1.38-2.08,1.32,0,1.32,1.01,1.32,1.53v3.79h1.05v-3.89c0-.95-.12-2.25-1.85-2.25-1.19,0-1.78.77-1.97,1.01v-.95h-.99v6.08Zm6.36-3.05c0,1.67,1.17,3.2,2.94,3.2.85,0,1.55-.3,2.13-.69l-.08-.89c-.59.43-1.2.74-2.05.74-1.03,0-1.94-.89-2-2.28h4.19v-.39c-.12-2.31-1.44-2.86-2.4-2.86-1.43,0-2.73,1.36-2.73,3.17Zm1.01-.66c.15-.66.69-1.67,1.71-1.67.39,0,1.4.18,1.63,1.67h-3.35Zm5.12,2.19c0,.62.41,1.67,1.54,1.67,1.49,0,2.23-.61,2.24-.62v.47h1.03v-4.12c-.07-1.13-.96-2.11-2.24-2.11-.85,0-1.47.22-2.12.59l.08.9c.45-.31,1.01-.69,2.03-.69.18,0,.53.01.85.41.34.41.34.86.35,1.24v.46c-1.39.01-3.75.35-3.75,1.78Zm.99-.01c0-.85,1.8-1.05,2.77-1.07v.85c0,.88-.93,1.07-1.51,1.07-.73,0-1.26-.36-1.26-.85Zm5.62,1.54h1.01v-2.78c0-1.97,1.5-2.43,2.3-2.46v-.9c-1.43.03-2.15.95-2.36,1.28v-1.22h-.95v6.08Zm8.38-5.21h1v5.21h1.01v-5.21h1.49v-.8h-1.53v-1.84c0-1.04.82-1.23,1.26-1.23s.78.11,1.09.23v-.9c-.31-.08-.65-.15-1.07-.15-1.09,0-2.27.81-2.27,2.58,0,.11.01.22.01.32v.99h-1v.8Zm4.83,3.56c0,.7,0,1.8,1.42,1.8.74,0,1.66-.19,2.36-.8v.65h1.03v-6.01h-1.05v3.78c0,.14,0,.26-.01.39-.07.58-.59,1.23-1.61,1.23-.92,0-1.07-.3-1.08-.88v-4.52h-1.05v4.36Zm6.98,1.65h1.05v-3.24c0-1,.34-2.08,1.38-2.08,1.32,0,1.32,1.01,1.32,1.53v3.79h1.05v-3.89c0-.95-.12-2.25-1.85-2.25-1.19,0-1.78.77-1.97,1.01v-.95h-.99v6.08Zm6.37-3.01c0,1.73,1.27,3.16,2.93,3.16.93,0,1.59-.3,2.2-.69l-.07-.9c-.43.3-1.07.73-2.12.73-1.13,0-1.89-.99-1.89-2.3,0-1.17.59-2.35,1.9-2.35,1.07,0,1.42.28,1.94.62l.16-.89c-.82-.47-1.26-.59-2.09-.59-1.89,0-2.97,1.65-2.97,3.21Zm5.76-2.2h1.13v3.63c0,1.49.66,1.73,1.11,1.73.61,0,1.3-.14,2-.51l-.22-.8c-.19.14-.61.45-1.19.45-.7,0-.73-.8-.73-1.17v-3.32h1.9v-.8h-1.9v-1.7h-.95v1.7h-1.16v.8Zm5.72,5.21h1.01v-6.01h-1.01v6.01Zm-.09-7.97h1.22v-1.2h-1.22v1.2Zm2.63,4.98c0,1.84,1.42,3.13,2.96,3.13s2.97-1.28,2.97-3.12c0-1.69-1.24-3.25-2.97-3.25-1.59,0-2.96,1.4-2.96,3.24Zm1.05-.14c0-1.63,1.04-2.27,1.9-2.27s1.9.62,1.9,2.27-1,2.4-1.9,2.4-1.9-.7-1.9-2.4Zm6.37,3.12h1.05v-3.24c0-1,.34-2.08,1.38-2.08,1.32,0,1.32,1.01,1.32,1.53v3.79h1.05v-3.89c0-.95-.12-2.25-1.85-2.25-1.19,0-1.78.77-1.97,1.01v-.95h-.99v6.08Zm6.26-.46c1.01.55,1.84.61,2.3.61,1.81,0,2.2-1.12,2.2-1.86,0-.88-.62-1.44-1.17-1.69-.84-.38-2.28-.2-2.28-1.19,0-.34.2-.82,1.13-.82s1.4.24,1.94.5l.15-.89c-.74-.31-1.22-.42-1.97-.42-1.84,0-2.21,1.07-2.21,1.78,0,.95.81,1.47,1.4,1.66.42.14,1,.2,1.3.3.27.08.76.35.76.86,0,.36-.24.92-1.26.92-1.09,0-1.74-.46-2.12-.68l-.16.92Zm9.49-5.55l1.86,6.01h1.07c.53-1.74,1.39-4.47,1.43-5.32.14,1,.24,1.36,1.44,5.32h1.17l1.86-6.01h-.99c-1.12,3.66-1.44,4.81-1.5,5.33-.05-.42-.12-.62-.51-2.04l-.99-3.29h-.96c-.46,1.49-1.39,4.48-1.43,5.33-.07-.51-.12-1.07-1.46-5.33h-1.01Zm10.13,6.01h1.01v-6.01h-1.01v6.01Zm-.09-7.97h1.22v-1.2h-1.22v1.2Zm2.47,2.75h1.13v3.63c0,1.49.66,1.73,1.11,1.73.61,0,1.3-.14,2-.51l-.22-.8c-.19.14-.61.45-1.19.45-.7,0-.73-.8-.73-1.17v-3.32h1.9v-.8h-1.9v-1.7h-.95v1.7h-1.16v.8Zm5.71,5.21h1.05v-3.24c0-1,.34-2.08,1.38-2.08,1.32,0,1.32,1.01,1.32,1.53v3.79h1.05v-3.89c0-.82-.05-2.25-1.85-2.25-.93,0-1.51.45-1.94.96v-4.56h-1.01v9.75Zm11.49,0h1.01v-2.78c0-1.97,1.5-2.43,2.3-2.46v-.9c-1.43.03-2.15.95-2.36,1.28v-1.22h-.95v6.08Zm3.98-3.05c0,1.67,1.17,3.2,2.94,3.2.85,0,1.55-.3,2.13-.69l-.08-.89c-.59.43-1.2.74-2.05.74-1.03,0-1.94-.89-2-2.28h4.19v-.39c-.12-2.31-1.44-2.86-2.4-2.86-1.43,0-2.73,1.36-2.73,3.17Zm1.01-.66c.15-.66.69-1.67,1.71-1.67.39,0,1.4.18,1.63,1.67h-3.35Zm4.89,3.25c1.01.55,1.84.61,2.3.61,1.81,0,2.2-1.12,2.2-1.86,0-.88-.62-1.44-1.17-1.69-.84-.38-2.28-.2-2.28-1.19,0-.34.2-.82,1.13-.82s1.4.24,1.94.5l.15-.89c-.74-.31-1.22-.42-1.97-.42-1.84,0-2.21,1.07-2.21,1.78,0,.95.81,1.47,1.4,1.66.42.14,1,.2,1.3.3.27.08.76.35.76.86,0,.36-.24.92-1.26.92-1.09,0-1.74-.46-2.12-.68l-.16.92Zm5.9,3.09h1.05v-3.25c.45.42,1.03.77,1.82.77,1.31,0,2.51-1.27,2.51-3.17,0-1.61-.85-3.12-2.13-3.12-.46,0-1.38.09-2.24.8v-.66h-1.01v8.64Zm1.05-4.33v-2.81c.08-.09.54-.77,1.43-.77,1.11,0,1.84,1.09,1.84,2.28,0,1.43-1.01,2.32-1.96,2.32-.8,0-1.31-.7-1.31-1.03Zm5.67-1.35c0,1.67,1.17,3.2,2.94,3.2.85,0,1.55-.3,2.13-.69l-.08-.89c-.59.43-1.2.74-2.05.74-1.03,0-1.94-.89-2-2.28h4.19v-.39c-.12-2.31-1.44-2.86-2.4-2.86-1.43,0-2.73,1.36-2.73,3.17Zm1.01-.66c.15-.66.69-1.67,1.71-1.67.39,0,1.4.18,1.63,1.67h-3.35Zm5,.7c0,1.73,1.27,3.16,2.93,3.16.93,0,1.59-.3,2.2-.69l-.07-.9c-.43.3-1.07.73-2.12.73-1.13,0-1.89-.99-1.89-2.3,0-1.17.59-2.35,1.9-2.35,1.07,0,1.42.28,1.94.62l.16-.89c-.82-.47-1.26-.59-2.09-.59-1.89,0-2.97,1.65-2.97,3.21Zm5.76-2.2h1.13v3.63c0,1.49.66,1.73,1.11,1.73.61,0,1.3-.14,2-.51l-.22-.8c-.19.14-.61.45-1.19.45-.7,0-.73-.8-.73-1.17v-3.32h1.9v-.8h-1.9v-1.7h-.95v1.7h-1.16v.8Zm9.37,0h1.13v3.63c0,1.49.66,1.73,1.11,1.73.61,0,1.3-.14,2-.51l-.22-.8c-.19.14-.61.45-1.19.45-.7,0-.73-.8-.73-1.17v-3.32h1.9v-.8h-1.9v-1.7h-.95v1.7h-1.16v.8Zm5.04,2.23c0,1.84,1.42,3.13,2.96,3.13s2.97-1.28,2.97-3.12c0-1.69-1.24-3.25-2.97-3.25-1.59,0-2.96,1.4-2.96,3.24Zm1.05-.14c0-1.63,1.04-2.27,1.9-2.27s1.9.62,1.9,2.27-1,2.4-1.9,2.4-1.9-.7-1.9-2.4Z"/>
      <path class="cls-2" d="m21.65,233.7h1.05v-.62c.46.42,1.01.77,1.81.77,1.34,0,2.52-1.31,2.52-3.17,0-1.62-.88-3.12-2.21-3.12-.42,0-1.3.09-2.16.78v-4.39h-1.01v9.75Zm1.05-1.8v-2.52c0-.5.74-1,1.44-1s1.82.51,1.82,2.31-1.16,2.34-1.93,2.34c-.39,0-.8-.16-1.11-.54-.18-.26-.23-.23-.23-.58Zm5.55,1.8h1.01v-2.78c0-1.97,1.5-2.43,2.3-2.46v-.9c-1.43.03-2.15.95-2.36,1.28v-1.22h-.95v6.08Zm3.93-2.98c0,1.84,1.42,3.13,2.96,3.13s2.97-1.28,2.97-3.12c0-1.69-1.24-3.25-2.97-3.25-1.59,0-2.96,1.4-2.96,3.24Zm1.05-.14c0-1.63,1.04-2.27,1.9-2.27s1.9.62,1.9,2.27-1,2.4-1.9,2.4-1.9-.7-1.9-2.4Zm5.89,1.59c0,.62.41,1.67,1.54,1.67,1.49,0,2.23-.61,2.24-.62v.47h1.03v-4.12c-.07-1.13-.96-2.11-2.24-2.11-.85,0-1.47.22-2.12.59l.08.9c.45-.31,1.01-.69,2.03-.69.18,0,.53.01.85.41.34.41.34.86.35,1.24v.46c-1.39.01-3.75.35-3.75,1.78Zm.99-.01c0-.85,1.8-1.05,2.77-1.07v.85c0,.88-.93,1.07-1.51,1.07-.73,0-1.26-.36-1.26-.85Zm5.37-1.44c0,1.61.95,3.13,2.32,3.13.89,0,1.54-.41,2-.85v.7h1.07v-9.75h-1.03v4.33c-.47-.38-1.11-.74-1.96-.74-1.34,0-2.4,1.39-2.4,3.17Zm1.05-.01c0-1.77,1.17-2.32,1.96-2.32h.03c.15,0,.58.01,1,.41.24.23.28.31.28.53v2.58c0,.42-.63,1.12-1.44,1.12-.73,0-1.82-.53-1.82-2.31Zm5.93-.01c0,1.73,1.27,3.16,2.93,3.16.93,0,1.59-.3,2.2-.69l-.07-.9c-.43.3-1.07.73-2.12.73-1.13,0-1.89-.99-1.89-2.3,0-1.17.59-2.35,1.9-2.35,1.07,0,1.42.28,1.94.62l.16-.89c-.82-.47-1.26-.59-2.09-.59-1.89,0-2.97,1.65-2.97,3.21Zm6.12,1.49c0,.62.41,1.67,1.54,1.67,1.49,0,2.23-.61,2.24-.62v.47h1.03v-4.12c-.07-1.13-.96-2.11-2.24-2.11-.85,0-1.47.22-2.12.59l.08.9c.45-.31,1.01-.69,2.03-.69.18,0,.53.01.85.41.34.41.34.86.35,1.24v.46c-1.39.01-3.75.35-3.75,1.78Zm.99-.01c0-.85,1.8-1.05,2.77-1.07v.85c0,.88-.93,1.07-1.51,1.07-.73,0-1.26-.36-1.26-.85Zm5.27,1.08c1.01.55,1.84.61,2.3.61,1.81,0,2.2-1.12,2.2-1.86,0-.88-.62-1.44-1.17-1.69-.84-.38-2.28-.2-2.28-1.19,0-.34.2-.82,1.13-.82s1.4.24,1.94.5l.15-.89c-.74-.31-1.22-.42-1.97-.42-1.84,0-2.21,1.07-2.21,1.78,0,.95.81,1.47,1.4,1.66.42.14,1,.2,1.3.3.27.08.76.35.76.86,0,.36-.24.92-1.26.92-1.09,0-1.74-.46-2.12-.68l-.16.92Zm5.05-4.75h1.13v3.63c0,1.49.66,1.73,1.11,1.73.61,0,1.3-.14,2-.51l-.22-.8c-.19.14-.61.45-1.19.45-.7,0-.73-.8-.73-1.17v-3.32h1.9v-.8h-1.9v-1.7h-.95v1.7h-1.16v.8Zm5.72,5.21h1.01v-6.01h-1.01v6.01Zm-.09-7.97h1.22v-1.2h-1.22v1.2Zm3.31,7.97h1.05v-3.24c0-1,.34-2.08,1.38-2.08,1.32,0,1.32,1.01,1.32,1.53v3.79h1.05v-3.89c0-.95-.12-2.25-1.85-2.25-1.19,0-1.78.77-1.97,1.01v-.95h-.99v6.08Zm6.26.96c0,1.04,1.34,1.82,3,1.82s3-.78,3-1.84c0-.16-.03-.34-.07-.5-.38-1.35-2.03-1.38-2.92-1.38h-1.01c-.65,0-.76-.46-.76-.72,0-.09.01-.23.15-.5.3.19.63.41,1.23.41,1.26,0,2.16-1.05,2.16-2.2,0-.58-.18-.97-.53-1.44l.12.11c.24-.01.66-.05,1.01-.05.27,0,.53.01.8.04l-.15-.85c-.73,0-1.44.14-2.12.42l.03.03c-.45-.31-.82-.45-1.32-.45-1.11,0-2.15.89-2.15,2.2,0,.27.04.81.45,1.34h0c-.24.34-.39.7-.39,1.15s.12.72.34,1.03c-.53.31-.86.84-.86,1.39Zm.95,0c0-.39.3-.85.85-.9h.39s.85-.01.85-.01c1.46,0,2.01.38,2.01.93,0,.62-.97,1.04-2.07,1.04-.74,0-2.04-.3-2.04-1.05Zm.47-4.9c0-1.15.72-1.43,1.2-1.43.73,0,1.22.54,1.22,1.42,0,1.15-.72,1.43-1.2,1.43-.73,0-1.22-.54-1.22-1.42Zm10.06,2.42c0,.62.41,1.67,1.54,1.67,1.49,0,2.23-.61,2.24-.62v.47h1.03v-4.12c-.07-1.13-.96-2.11-2.24-2.11-.85,0-1.47.22-2.12.59l.08.9c.45-.31,1.01-.69,2.03-.69.18,0,.53.01.85.41.34.41.34.86.35,1.24v.46c-1.39.01-3.75.35-3.75,1.78Zm.99-.01c0-.85,1.8-1.05,2.77-1.07v.85c0,.88-.93,1.07-1.51,1.07-.73,0-1.26-.36-1.26-.85Zm5.99,1.54h1.01v-9.75h-1.01v9.75Zm3.23,0h1.01v-9.75h-1.01v9.75Zm2.54-2.98c0,1.84,1.42,3.13,2.96,3.13s2.97-1.28,2.97-3.12c0-1.69-1.24-3.25-2.97-3.25-1.59,0-2.96,1.4-2.96,3.24Zm1.05-.14c0-1.63,1.04-2.27,1.9-2.27s1.9.62,1.9,2.27-1,2.4-1.9,2.4-1.9-.7-1.9-2.4Zm5.1-2.89l1.86,6.01h1.07c.53-1.74,1.39-4.47,1.43-5.32.14,1,.24,1.36,1.44,5.32h1.17l1.86-6.01h-.99c-1.12,3.66-1.44,4.81-1.5,5.33-.05-.42-.12-.62-.51-2.04l-.99-3.29h-.96c-.46,1.49-1.39,4.48-1.43,5.33-.07-.51-.12-1.07-1.46-5.33h-1.01Zm9.4,5.55c1.01.55,1.84.61,2.3.61,1.81,0,2.2-1.12,2.2-1.86,0-.88-.62-1.44-1.17-1.69-.84-.38-2.28-.2-2.28-1.19,0-.34.2-.82,1.13-.82s1.4.24,1.94.5l.15-.89c-.74-.31-1.22-.42-1.97-.42-1.84,0-2.21,1.07-2.21,1.78,0,.95.81,1.47,1.4,1.66.42.14,1,.2,1.3.3.27.08.76.35.76.86,0,.36-.24.92-1.26.92-1.09,0-1.74-.46-2.12-.68l-.16.92Zm9.54-4.75h1.13v3.63c0,1.49.66,1.73,1.11,1.73.61,0,1.3-.14,2-.51l-.22-.8c-.19.14-.61.45-1.19.45-.7,0-.73-.8-.73-1.17v-3.32h1.9v-.8h-1.9v-1.7h-.95v1.7h-1.16v.8Zm5.71,5.21h1.05v-3.24c0-1,.34-2.08,1.38-2.08,1.32,0,1.32,1.01,1.32,1.53v3.79h1.05v-3.89c0-.82-.05-2.25-1.85-2.25-.93,0-1.51.45-1.94.96v-4.56h-1.01v9.75Zm6.36-3.05c0,1.67,1.17,3.2,2.94,3.2.85,0,1.55-.3,2.13-.69l-.08-.89c-.59.43-1.2.74-2.05.74-1.03,0-1.94-.89-2-2.28h4.19v-.39c-.12-2.31-1.44-2.86-2.4-2.86-1.43,0-2.73,1.36-2.73,3.17Zm1.01-.66c.15-.66.69-1.67,1.71-1.67.39,0,1.4.18,1.63,1.67h-3.35Zm5.6,3.71h1.05v-3.24c0-1,.34-2.08,1.38-2.08,1.32,0,1.32,1.01,1.32,1.53v3.79h1.05v-3.24c0-1,.34-2.08,1.38-2.08,1.32,0,1.31,1.53,1.31,1.53v3.79h1.07v-3.89c0-.78-.04-2.25-1.85-2.25-1.23,0-1.84.82-2.04,1.09-.19-.51-.59-1.09-1.71-1.09-1.19,0-1.78.77-1.97,1.01v-.95h-.99v6.08Zm14.38-5.21h1.13v3.63c0,1.49.66,1.73,1.11,1.73.61,0,1.3-.14,2-.51l-.22-.8c-.19.14-.61.45-1.19.45-.7,0-.73-.8-.73-1.17v-3.32h1.9v-.8h-1.9v-1.7h-.95v1.7h-1.16v.8Zm5.04,2.23c0,1.84,1.42,3.13,2.96,3.13s2.97-1.28,2.97-3.12c0-1.69-1.24-3.25-2.97-3.25-1.59,0-2.96,1.4-2.96,3.24Zm1.05-.14c0-1.63,1.04-2.27,1.9-2.27s1.9.62,1.9,2.27-1,2.4-1.9,2.4-1.9-.7-1.9-2.4Zm10.88,3.12h1.05v-.62c.46.42,1.01.77,1.81.77,1.34,0,2.52-1.31,2.52-3.17,0-1.62-.88-3.12-2.21-3.12-.42,0-1.3.09-2.16.78v-4.39h-1.01v9.75Zm1.05-1.8v-2.52c0-.5.74-1,1.44-1s1.82.51,1.82,2.31-1.16,2.34-1.93,2.34c-.39,0-.8-.16-1.11-.54-.18-.26-.23-.23-.23-.58Zm5.67-1.26c0,1.67,1.17,3.2,2.94,3.2.85,0,1.55-.3,2.13-.69l-.08-.89c-.59.43-1.2.74-2.05.74-1.03,0-1.94-.89-2-2.28h4.19v-.39c-.12-2.31-1.44-2.86-2.4-2.86-1.43,0-2.73,1.36-2.73,3.17Zm1.01-.66c.15-.66.69-1.67,1.71-1.67.39,0,1.4.18,1.63,1.67h-3.35Zm10.1,3.71h1.05v-3.24c0-1,.34-2.08,1.38-2.08,1.32,0,1.32,1.01,1.32,1.53v3.79h1.05v-3.89c0-.82-.05-2.25-1.85-2.25-.93,0-1.51.45-1.94.96v-4.56h-1.01v9.75Zm6.3-2.98c0,1.84,1.42,3.13,2.96,3.13s2.97-1.28,2.97-3.12c0-1.69-1.24-3.25-2.97-3.25-1.59,0-2.96,1.4-2.96,3.24Zm1.05-.14c0-1.63,1.04-2.27,1.9-2.27s1.9.62,1.9,2.27-1,2.4-1.9,2.4-1.9-.7-1.9-2.4Zm6.01,3.12h1.01v-2.78c0-1.97,1.5-2.43,2.3-2.46v-.9c-1.43.03-2.15.95-2.36,1.28v-1.22h-.95v6.08Zm4.62,0h1.01v-6.01h-1.01v6.01Zm-.09-7.97h1.22v-1.2h-1.22v1.2Zm2.59,7.97h5.05v-.85h-.9s-2.71.01-2.71.01l3.58-4.63v-.54h-4.82v.81h3.4s-3.59,4.64-3.59,4.64v.55Zm5.91-2.98c0,1.84,1.42,3.13,2.96,3.13s2.97-1.28,2.97-3.12c0-1.69-1.24-3.25-2.97-3.25-1.59,0-2.96,1.4-2.96,3.24Zm1.05-.14c0-1.63,1.04-2.27,1.9-2.27s1.9.62,1.9,2.27-1,2.4-1.9,2.4-1.9-.7-1.9-2.4Zm6.37,3.12h1.05v-3.24c0-1,.34-2.08,1.38-2.08,1.32,0,1.32,1.01,1.32,1.53v3.79h1.05v-3.89c0-.95-.12-2.25-1.85-2.25-1.19,0-1.78.77-1.97,1.01v-.95h-.99v6.08Zm6.14-5.21h1.13v3.63c0,1.49.66,1.73,1.11,1.73.61,0,1.3-.14,2-.51l-.22-.8c-.19.14-.61.45-1.19.45-.7,0-.73-.8-.73-1.17v-3.32h1.9v-.8h-1.9v-1.7h-.95v1.7h-1.16v.8Zm5.22,3.69c0,.62.41,1.67,1.54,1.67,1.49,0,2.23-.61,2.24-.62v.47h1.03v-4.12c-.07-1.13-.96-2.11-2.24-2.11-.85,0-1.47.22-2.12.59l.08.9c.45-.31,1.01-.69,2.03-.69.18,0,.53.01.85.41.34.41.34.86.35,1.24v.46c-1.39.01-3.75.35-3.75,1.78Zm.99-.01c0-.85,1.8-1.05,2.77-1.07v.85c0,.88-.93,1.07-1.51,1.07-.73,0-1.26-.36-1.26-.85Zm5.99,1.54h1.01v-9.75h-1.01v9.75Zm3.23,0h1.01v-9.75h-1.01v9.75Zm2.32-6.01l2.52,5.76c.05.11.07.16.07.23,0,.05-.01.12-.05.22-.58,1.4-.69,1.81-1.26,1.81-.23,0-.53-.08-.99-.23l.07.88c.32.08.73.11.99.11.62,0,1.01-.31,1.55-1.55l2.93-7.22h-1.01c-.89,2.21-1.77,4.41-1.8,5.33-.12-.77-.12-1.13-1.96-5.33h-1.07Zm10.89,5.55c1.01.55,1.84.61,2.3.61,1.81,0,2.2-1.12,2.2-1.86,0-.88-.62-1.44-1.17-1.69-.84-.38-2.28-.2-2.28-1.19,0-.34.2-.82,1.13-.82s1.4.24,1.94.5l.15-.89c-.74-.31-1.22-.42-1.97-.42-1.84,0-2.21,1.07-2.21,1.78,0,.95.81,1.47,1.4,1.66.42.14,1,.2,1.3.3.27.08.76.35.76.86,0,.36-.24.92-1.26.92-1.09,0-1.74-.46-2.12-.68l-.16.92Zm5.89.46h1.05v-3.24c0-1,.34-2.08,1.38-2.08,1.32,0,1.32,1.01,1.32,1.53v3.79h1.05v-3.89c0-.82-.05-2.25-1.85-2.25-.93,0-1.51.45-1.94.96v-4.56h-1.01v9.75Zm6.99,0h1.01v-6.01h-1.01v6.01Zm-.09-7.97h1.22v-1.2h-1.22v1.2Zm2.59,2.75h1v5.21h1.01v-5.21h1.49v-.8h-1.53v-1.84c0-1.04.82-1.23,1.26-1.23s.78.11,1.09.23v-.9c-.31-.08-.65-.15-1.07-.15-1.09,0-2.27.81-2.27,2.58,0,.11.01.22.01.32v.99h-1v.8Zm4,0h1.13v3.63c0,1.49.66,1.73,1.11,1.73.61,0,1.3-.14,2-.51l-.22-.8c-.19.14-.61.45-1.19.45-.7,0-.73-.8-.73-1.17v-3.32h1.9v-.8h-1.9v-1.7h-.95v1.7h-1.16v.8Zm5.09,2.16c0,1.67,1.17,3.2,2.94,3.2.85,0,1.55-.3,2.13-.69l-.08-.89c-.59.43-1.2.74-2.05.74-1.03,0-1.94-.89-2-2.28h4.19v-.39c-.12-2.31-1.44-2.86-2.4-2.86-1.43,0-2.73,1.36-2.73,3.17Zm1.01-.66c.15-.66.69-1.67,1.71-1.67.39,0,1.4.18,1.63,1.67h-3.35Zm5,.73c0,1.61.95,3.13,2.32,3.13.89,0,1.54-.41,2-.85v.7h1.07v-9.75h-1.03v4.33c-.47-.38-1.11-.74-1.96-.74-1.34,0-2.4,1.39-2.4,3.17Zm1.05-.01c0-1.77,1.17-2.32,1.96-2.32h.03c.15,0,.58.01,1,.41.24.23.28.31.28.53v2.58c0,.42-.63,1.12-1.44,1.12-.73,0-1.82-.53-1.82-2.31Zm6.75,3h1.13v-1.13h-1.13v1.13Z"/>
    </g>
    <path class="cls-2" d="m146,264.68l-.2-.19c-.88.44-1.5.6-2.72.71l-.07.36h.82c.41,0,.58.12.58.41,0,.12-.02.31-.03.41l-1.72,9.37c-.02.05-.02.12-.02.17,0,.66.82,1.22,1.75,1.22.63,0,1.5-.32,2.23-.85,1.63-1.16,2.75-3.49,2.75-5.73,0-.65-.15-1.31-.36-1.56-.12-.15-.34-.24-.6-.24-.41,0-.92.14-1.39.37-.87.46-1.43.97-2.48,2.31l1.46-6.77Zm1.48,5.07c.44,0,.66.39.66,1.22,0,1.09-.36,2.55-.87,3.66-.56,1.17-1.24,1.72-2.16,1.72-.78,0-1.21-.39-1.21-1.11,0-.58.26-2.98,1.63-4.42.56-.58,1.45-1.07,1.94-1.07Z"/>
    <g>
      <path class="cls-2" d="m151.4,36.5h1.12l1.14-3.06h4.35l1.15,3.06h1.38l-3.9-10.41h-1.33l-3.91,10.41Zm2.58-3.9c1.18-3.24,1.74-4.9,1.86-5.46.09.55.49,1.68,1.86,5.46h-3.72Zm7.42,3.39c1.12.61,2.04.67,2.55.67,2.01,0,2.44-1.24,2.44-2.07,0-.97-.69-1.6-1.3-1.87-.93-.42-2.53-.22-2.53-1.32,0-.37.22-.91,1.26-.91s1.56.27,2.16.55l.16-.99c-.82-.34-1.35-.46-2.19-.46-2.04,0-2.46,1.18-2.46,1.98,0,1.05.9,1.63,1.56,1.84.46.15,1.11.22,1.44.33.3.09.84.39.84.96,0,.4-.27,1.02-1.39,1.02-1.21,0-1.93-.51-2.35-.75l-.18,1.02Zm5.74,0c1.12.61,2.04.67,2.55.67,2.01,0,2.44-1.24,2.44-2.07,0-.97-.69-1.6-1.3-1.87-.93-.42-2.53-.22-2.53-1.32,0-.37.22-.91,1.26-.91s1.56.27,2.16.55l.16-.99c-.82-.34-1.35-.46-2.19-.46-2.04,0-2.46,1.18-2.46,1.98,0,1.05.9,1.63,1.56,1.84.46.15,1.11.22,1.44.33.3.09.84.39.84.96,0,.4-.27,1.02-1.39,1.02-1.21,0-1.93-.51-2.35-.75l-.18,1.02Zm5.79-2.8c0,2.04,1.57,3.48,3.28,3.48s3.3-1.42,3.3-3.46c0-1.87-1.38-3.61-3.3-3.61-1.77,0-3.28,1.56-3.28,3.6Zm1.17-.15c0-1.81,1.15-2.52,2.11-2.52s2.11.69,2.11,2.52-1.11,2.67-2.11,2.67-2.11-.78-2.11-2.67Zm6.82.12c0,1.92,1.41,3.51,3.25,3.51,1.03,0,1.77-.33,2.44-.76l-.07-1c-.48.33-1.18.81-2.35.81-1.26,0-2.1-1.09-2.1-2.55,0-1.3.66-2.61,2.11-2.61,1.18,0,1.57.31,2.16.69l.18-.99c-.91-.52-1.39-.66-2.32-.66-2.1,0-3.3,1.83-3.3,3.57Zm7.35,3.34h1.12v-6.67h-1.12v6.67Zm-.1-8.85h1.35v-1.33h-1.35v1.33Zm3.13,7.15c0,.69.45,1.86,1.71,1.86,1.65,0,2.47-.67,2.49-.69v.52h1.14v-4.57c-.07-1.26-1.06-2.34-2.49-2.34-.94,0-1.63.24-2.35.66l.09,1c.49-.34,1.12-.76,2.25-.76.19,0,.58.01.94.45.37.45.37.96.39,1.38v.51c-1.54.01-4.17.39-4.17,1.98Zm1.09-.01c0-.94,1.99-1.17,3.07-1.18v.94c0,.97-1.03,1.18-1.68,1.18-.81,0-1.39-.4-1.39-.94Zm5.71-4.08h1.26v4.03c0,1.65.73,1.92,1.23,1.92.67,0,1.44-.15,2.22-.57l-.24-.88c-.21.15-.67.49-1.32.49-.78,0-.81-.88-.81-1.3v-3.69h2.11v-.88h-2.11v-1.89h-1.05v1.89h-1.29v.88Zm5.65,2.4c0,1.86,1.3,3.55,3.27,3.55.94,0,1.72-.33,2.37-.76l-.09-.99c-.66.48-1.33.82-2.28.82-1.14,0-2.16-.99-2.22-2.53h4.65v-.43c-.13-2.56-1.6-3.18-2.67-3.18-1.59,0-3.03,1.51-3.03,3.52Zm1.12-.73c.16-.73.76-1.86,1.9-1.86.43,0,1.56.19,1.81,1.86h-3.72Zm5.55.81c0,1.78,1.05,3.48,2.58,3.48.99,0,1.71-.45,2.22-.94v.78h1.18v-10.83h-1.14v4.81c-.52-.42-1.23-.82-2.17-.82-1.48,0-2.67,1.54-2.67,3.52Zm1.17-.01c0-1.96,1.3-2.58,2.17-2.58h.03c.16,0,.64.01,1.11.45.27.25.31.34.31.58v2.86c0,.46-.7,1.24-1.6,1.24-.81,0-2.02-.58-2.02-2.56Z"/>
      <path class="cls-2" d="m153.43,48.16h3.9s0,9.34,0,9.34h1.33v-9.36h1.75s2.13.01,2.13.01v-.99h-9.12v.99Zm9.64,9.34h1.12v-3.09c0-2.19,1.66-2.7,2.55-2.73v-1c-1.59.03-2.38,1.05-2.62,1.42v-1.35h-1.05v6.75Zm4.57-1.69c0,.69.45,1.86,1.71,1.86,1.65,0,2.47-.67,2.49-.69v.52h1.14v-4.57c-.07-1.26-1.06-2.34-2.49-2.34-.94,0-1.63.24-2.35.66l.09,1c.49-.34,1.12-.76,2.25-.76.19,0,.58.01.94.45.37.45.37.96.39,1.38v.51c-1.54.01-4.17.39-4.17,1.98Zm1.09-.01c0-.94,1.99-1.17,3.07-1.18v.94c0,.97-1.03,1.18-1.68,1.18-.81,0-1.39-.4-1.39-.94Zm6.64,1.71h1.17v-3.6c0-1.11.37-2.31,1.53-2.31,1.47,0,1.47,1.12,1.47,1.69v4.21h1.17v-4.32c0-1.05-.13-2.5-2.05-2.5-1.32,0-1.98.85-2.19,1.12v-1.05h-1.09v6.75Zm6.96-.51c1.12.61,2.04.67,2.55.67,2.01,0,2.44-1.24,2.44-2.07,0-.97-.69-1.6-1.3-1.87-.93-.42-2.53-.22-2.53-1.32,0-.37.22-.91,1.26-.91s1.56.27,2.16.55l.16-.99c-.82-.34-1.35-.46-2.19-.46-2.04,0-2.46,1.18-2.46,1.98,0,1.05.9,1.63,1.56,1.84.46.15,1.11.22,1.44.33.3.09.84.39.84.96,0,.4-.27,1.02-1.39,1.02-1.21,0-1.93-.51-2.35-.75l-.18,1.02Zm6.55,3.43h1.17v-3.61c.49.46,1.14.85,2.02.85,1.45,0,2.79-1.41,2.79-3.52,0-1.78-.94-3.46-2.37-3.46-.51,0-1.53.1-2.49.88v-.73h-1.12v9.6Zm1.17-4.81v-3.12c.09-.1.6-.85,1.59-.85,1.23,0,2.04,1.21,2.04,2.53,0,1.59-1.12,2.58-2.17,2.58-.88,0-1.45-.78-1.45-1.14Zm6.24-1.42c0,2.04,1.57,3.48,3.28,3.48s3.3-1.42,3.3-3.46c0-1.87-1.38-3.61-3.3-3.61-1.77,0-3.28,1.56-3.28,3.6Zm1.17-.15c0-1.81,1.15-2.52,2.11-2.52s2.11.69,2.11,2.52-1.11,2.67-2.11,2.67-2.11-.78-2.11-2.67Zm6.28,2.95c1.12.61,2.04.67,2.55.67,2.01,0,2.44-1.24,2.44-2.07,0-.97-.69-1.6-1.3-1.87-.93-.42-2.53-.22-2.53-1.32,0-.37.22-.91,1.26-.91s1.56.27,2.16.55l.16-.99c-.82-.34-1.35-.46-2.19-.46-2.04,0-2.46,1.18-2.46,1.98,0,1.05.9,1.63,1.56,1.84.46.15,1.11.22,1.44.33.3.09.84.39.84.96,0,.4-.27,1.02-1.39,1.02-1.21,0-1.93-.51-2.35-.75l-.18,1.02Zm5.85-2.88c0,1.86,1.3,3.55,3.27,3.55.94,0,1.72-.33,2.37-.76l-.09-.99c-.66.48-1.33.82-2.28.82-1.14,0-2.16-.99-2.22-2.53h4.65v-.43c-.13-2.56-1.6-3.18-2.67-3.18-1.59,0-3.03,1.51-3.03,3.52Zm1.12-.73c.16-.73.76-1.86,1.9-1.86.43,0,1.56.19,1.81,1.86h-3.72Z"/>
    </g>
    <g>
      <path class="cls-2" d="m13.59,354.37c.85.54,1.85.93,3.09.93,1.85,0,3.05-1.39,3.05-2.85,0-1.35-.95-2.24-1.81-2.61-.49-.2-1.63-.41-2.03-.57-.59-.24-1.08-.78-1.08-1.44,0-.8.73-1.59,1.96-1.59,1.11,0,1.67.38,2.3.86l.19-1.12c-.7-.38-1.38-.65-2.47-.65-1.9,0-3.05,1.35-3.05,2.66,0,1.4,1.12,2.27,2.08,2.52,1.17.31,1.35.32,1.67.45.69.28,1.16.9,1.16,1.62,0,.88-.74,1.78-1.97,1.78-1.34,0-2.24-.61-2.89-1.12l-.2,1.12Zm7.99.63h1.01v-6.01h-1.01v6.01Zm-.09-7.97h1.22v-1.2h-1.22v1.2Zm3.31,7.97h1.05v-3.24c0-1,.34-2.08,1.38-2.08,1.32,0,1.32,1.01,1.32,1.53v3.79h1.05v-3.24c0-1,.34-2.08,1.38-2.08,1.32,0,1.31,1.53,1.31,1.53v3.79h1.07v-3.89c0-.78-.04-2.25-1.85-2.25-1.23,0-1.84.82-2.04,1.09-.19-.51-.59-1.09-1.71-1.09-1.19,0-1.78.77-1.97,1.01v-.95h-.99v6.08Zm10.72-1.65c0,.7,0,1.8,1.42,1.8.74,0,1.66-.19,2.36-.8v.65h1.03v-6.01h-1.05v3.78c0,.14,0,.26-.01.39-.07.58-.59,1.23-1.61,1.23-.92,0-1.07-.3-1.08-.88v-4.52h-1.05v4.36Zm6.99,1.65h1.01v-9.75h-1.01v9.75Zm2.38-5.21h1.13v3.63c0,1.49.66,1.73,1.11,1.73.61,0,1.3-.14,2-.51l-.22-.8c-.19.14-.61.45-1.19.45-.7,0-.73-.8-.73-1.17v-3.32h1.9v-.8h-1.9v-1.7h-.95v1.7h-1.16v.8Zm5.22,3.69c0,.62.41,1.67,1.54,1.67,1.49,0,2.23-.61,2.24-.62v.47h1.03v-4.12c-.07-1.13-.96-2.11-2.24-2.11-.85,0-1.47.22-2.12.59l.08.9c.45-.31,1.01-.69,2.03-.69.18,0,.53.01.85.41.34.41.34.86.35,1.24v.46c-1.39.01-3.75.35-3.75,1.78Zm.99-.01c0-.85,1.8-1.05,2.77-1.07v.85c0,.88-.93,1.07-1.51,1.07-.73,0-1.26-.36-1.26-.85Zm5.98,1.54h1.05v-3.24c0-1,.34-2.08,1.38-2.08,1.32,0,1.32,1.01,1.32,1.53v3.79h1.05v-3.89c0-.95-.12-2.25-1.85-2.25-1.19,0-1.78.77-1.97,1.01v-.95h-.99v6.08Zm6.36-3.05c0,1.67,1.17,3.2,2.94,3.2.85,0,1.55-.3,2.13-.69l-.08-.89c-.59.43-1.2.74-2.05.74-1.03,0-1.94-.89-2-2.28h4.19v-.39c-.12-2.31-1.44-2.86-2.4-2.86-1.43,0-2.73,1.36-2.73,3.17Zm1.01-.66c.15-.66.69-1.67,1.71-1.67.39,0,1.4.18,1.63,1.67h-3.35Zm4.93.73c0,1.84,1.42,3.13,2.96,3.13s2.97-1.28,2.97-3.12c0-1.69-1.24-3.25-2.97-3.25-1.59,0-2.96,1.4-2.96,3.24Zm1.05-.14c0-1.63,1.04-2.27,1.9-2.27s1.9.62,1.9,2.27-1,2.4-1.9,2.4-1.9-.7-1.9-2.4Zm6.37,1.47c0,.7,0,1.8,1.42,1.8.74,0,1.66-.19,2.36-.8v.65h1.03v-6.01h-1.05v3.78c0,.14,0,.26-.01.39-.07.58-.59,1.23-1.61,1.23-.92,0-1.07-.3-1.08-.88v-4.52h-1.05v4.36Zm6.26,1.19c1.01.55,1.84.61,2.3.61,1.81,0,2.2-1.12,2.2-1.86,0-.88-.62-1.44-1.17-1.69-.84-.38-2.28-.2-2.28-1.19,0-.34.2-.82,1.13-.82s1.4.24,1.94.5l.15-.89c-.74-.31-1.22-.42-1.97-.42-1.84,0-2.21,1.07-2.21,1.78,0,.95.81,1.47,1.4,1.66.42.14,1,.2,1.3.3.27.08.76.35.76.86,0,.36-.24.92-1.26.92-1.09,0-1.74-.46-2.12-.68l-.16.92Zm5.9.46h1.01v-9.75h-1.01v9.75Zm2.32-6.01l2.52,5.76c.05.11.07.16.07.23,0,.05-.01.12-.05.22-.58,1.4-.69,1.81-1.26,1.81-.23,0-.53-.08-.99-.23l.07.88c.32.08.73.11.99.11.62,0,1.01-.31,1.55-1.55l2.93-7.22h-1.01c-.89,2.21-1.77,4.41-1.8,5.33-.12-.77-.12-1.13-1.96-5.33h-1.07Zm11.62,6.01h1.05v-.62c.46.42,1.01.77,1.81.77,1.34,0,2.52-1.31,2.52-3.17,0-1.62-.88-3.12-2.21-3.12-.42,0-1.3.09-2.16.78v-4.39h-1.01v9.75Zm1.05-1.8v-2.52c0-.5.74-1,1.44-1s1.82.51,1.82,2.31-1.16,2.34-1.93,2.34c-.39,0-.8-.16-1.11-.54-.18-.26-.23-.23-.23-.58Zm5.55,1.8h1.01v-2.78c0-1.97,1.5-2.43,2.3-2.46v-.9c-1.43.03-2.15.95-2.36,1.28v-1.22h-.95v6.08Zm3.93-2.98c0,1.84,1.42,3.13,2.96,3.13s2.97-1.28,2.97-3.12c0-1.69-1.24-3.25-2.97-3.25-1.59,0-2.96,1.4-2.96,3.24Zm1.05-.14c0-1.63,1.04-2.27,1.9-2.27s1.9.62,1.9,2.27-1,2.4-1.9,2.4-1.9-.7-1.9-2.4Zm5.89,1.59c0,.62.41,1.67,1.54,1.67,1.49,0,2.23-.61,2.24-.62v.47h1.03v-4.12c-.07-1.13-.96-2.11-2.24-2.11-.85,0-1.47.22-2.12.59l.08.9c.45-.31,1.01-.69,2.03-.69.18,0,.53.01.85.41.34.41.34.86.35,1.24v.46c-1.39.01-3.75.35-3.75,1.78Zm.99-.01c0-.85,1.8-1.05,2.77-1.07v.85c0,.88-.93,1.07-1.51,1.07-.73,0-1.26-.36-1.26-.85Zm5.37-1.44c0,1.61.95,3.13,2.32,3.13.89,0,1.54-.41,2-.85v.7h1.07v-9.75h-1.03v4.33c-.47-.38-1.11-.74-1.96-.74-1.34,0-2.4,1.39-2.4,3.17Zm1.05-.01c0-1.77,1.17-2.32,1.96-2.32h.03c.15,0,.58.01,1,.41.24.23.28.31.28.53v2.58c0,.42-.63,1.12-1.44,1.12-.73,0-1.82-.53-1.82-2.31Zm5.93-.01c0,1.73,1.27,3.16,2.93,3.16.93,0,1.59-.3,2.2-.69l-.07-.9c-.43.3-1.07.73-2.12.73-1.13,0-1.89-.99-1.89-2.3,0-1.17.59-2.35,1.9-2.35,1.07,0,1.42.28,1.94.62l.16-.89c-.82-.47-1.26-.59-2.09-.59-1.89,0-2.97,1.65-2.97,3.21Zm6.12,1.49c0,.62.41,1.67,1.54,1.67,1.49,0,2.23-.61,2.24-.62v.47h1.03v-4.12c-.07-1.13-.96-2.11-2.24-2.11-.85,0-1.47.22-2.12.59l.08.9c.45-.31,1.01-.69,2.03-.69.18,0,.53.01.85.41.34.41.34.86.35,1.24v.46c-1.39.01-3.75.35-3.75,1.78Zm.99-.01c0-.85,1.8-1.05,2.77-1.07v.85c0,.88-.93,1.07-1.51,1.07-.73,0-1.26-.36-1.26-.85Zm5.27,1.08c1.01.55,1.84.61,2.3.61,1.81,0,2.2-1.12,2.2-1.86,0-.88-.62-1.44-1.17-1.69-.84-.38-2.28-.2-2.28-1.19,0-.34.2-.82,1.13-.82s1.4.24,1.94.5l.15-.89c-.74-.31-1.22-.42-1.97-.42-1.84,0-2.21,1.07-2.21,1.78,0,.95.81,1.47,1.4,1.66.42.14,1,.2,1.3.3.27.08.76.35.76.86,0,.36-.24.92-1.26.92-1.09,0-1.74-.46-2.12-.68l-.16.92Zm5.05-4.75h1.13v3.63c0,1.49.66,1.73,1.11,1.73.61,0,1.3-.14,2-.51l-.22-.8c-.19.14-.61.45-1.19.45-.7,0-.73-.8-.73-1.17v-3.32h1.9v-.8h-1.9v-1.7h-.95v1.7h-1.16v.8Zm5.72,5.21h1.01v-6.01h-1.01v6.01Zm-.09-7.97h1.22v-1.2h-1.22v1.2Zm3.31,7.97h1.05v-3.24c0-1,.34-2.08,1.38-2.08,1.32,0,1.32,1.01,1.32,1.53v3.79h1.05v-3.89c0-.95-.12-2.25-1.85-2.25-1.19,0-1.78.77-1.97,1.01v-.95h-.99v6.08Zm6.26.96c0,1.04,1.34,1.82,3,1.82s3-.78,3-1.84c0-.16-.03-.34-.07-.5-.38-1.35-2.03-1.38-2.92-1.38h-1.01c-.65,0-.76-.46-.76-.72,0-.09.01-.23.15-.5.3.19.63.41,1.23.41,1.26,0,2.16-1.05,2.16-2.2,0-.58-.18-.97-.53-1.44l.12.11c.24-.01.66-.05,1.01-.05.27,0,.53.01.8.04l-.15-.85c-.73,0-1.44.14-2.12.42l.03.03c-.45-.31-.82-.45-1.32-.45-1.11,0-2.15.89-2.15,2.2,0,.27.04.81.45,1.34h0c-.24.34-.39.7-.39,1.15s.12.72.34,1.03c-.53.31-.86.84-.86,1.39Zm.95,0c0-.39.3-.85.85-.9h.39s.85-.01.85-.01c1.46,0,2.01.38,2.01.93,0,.62-.97,1.04-2.07,1.04-.74,0-2.04-.3-2.04-1.05Zm.47-4.9c0-1.15.72-1.43,1.2-1.43.73,0,1.22.54,1.22,1.42,0,1.15-.72,1.43-1.2,1.43-.73,0-1.22-.54-1.22-1.42Zm10.56,3.94h1.01v-9.75h-1.01v9.75Zm3.23,0h1.01v-6.01h-1.01v6.01Zm-.09-7.97h1.22v-1.2h-1.22v1.2Zm3.31,7.97h1.05v-3.24c0-1,.34-2.08,1.38-2.08,1.32,0,1.32,1.01,1.32,1.53v3.79h1.05v-3.89c0-.95-.12-2.25-1.85-2.25-1.19,0-1.78.77-1.97,1.01v-.95h-.99v6.08Zm6.36-3.05c0,1.67,1.17,3.2,2.94,3.2.85,0,1.55-.3,2.13-.69l-.08-.89c-.59.43-1.2.74-2.05.74-1.03,0-1.94-.89-2-2.28h4.19v-.39c-.12-2.31-1.44-2.86-2.4-2.86-1.43,0-2.73,1.36-2.73,3.17Zm1.01-.66c.15-.66.69-1.67,1.71-1.67.39,0,1.4.18,1.63,1.67h-3.35Zm5.12,2.19c0,.62.41,1.67,1.54,1.67,1.49,0,2.23-.61,2.24-.62v.47h1.03v-4.12c-.07-1.13-.96-2.11-2.24-2.11-.85,0-1.47.22-2.12.59l.08.9c.45-.31,1.01-.69,2.03-.69.18,0,.53.01.85.41.34.41.34.86.35,1.24v.46c-1.39.01-3.75.35-3.75,1.78Zm.99-.01c0-.85,1.8-1.05,2.77-1.07v.85c0,.88-.93,1.07-1.51,1.07-.73,0-1.26-.36-1.26-.85Zm5.62,1.54h1.01v-2.78c0-1.97,1.5-2.43,2.3-2.46v-.9c-1.43.03-2.15.95-2.36,1.28v-1.22h-.95v6.08Zm8.42-2.98c0,1.84,1.42,3.13,2.96,3.13s2.97-1.28,2.97-3.12c0-1.69-1.24-3.25-2.97-3.25-1.59,0-2.96,1.4-2.96,3.24Zm1.05-.14c0-1.63,1.04-2.27,1.9-2.27s1.9.62,1.9,2.27-1,2.4-1.9,2.4-1.9-.7-1.9-2.4Zm6.39,5.75h1.05v-3.25c.45.42,1.03.77,1.82.77,1.31,0,2.51-1.27,2.51-3.17,0-1.61-.85-3.12-2.13-3.12-.46,0-1.38.09-2.24.8v-.66h-1.01v8.64Zm1.05-4.33v-2.81c.08-.09.54-.77,1.43-.77,1.11,0,1.84,1.09,1.84,2.28,0,1.43-1.01,2.32-1.96,2.32-.8,0-1.31-.7-1.31-1.03Zm5.67-1.35c0,1.67,1.17,3.2,2.94,3.2.85,0,1.55-.3,2.13-.69l-.08-.89c-.59.43-1.2.74-2.05.74-1.03,0-1.94-.89-2-2.28h4.19v-.39c-.12-2.31-1.44-2.86-2.4-2.86-1.43,0-2.73,1.36-2.73,3.17Zm1.01-.66c.15-.66.69-1.67,1.71-1.67.39,0,1.4.18,1.63,1.67h-3.35Zm5.62,3.71h1.01v-2.78c0-1.97,1.5-2.43,2.3-2.46v-.9c-1.43.03-2.15.95-2.36,1.28v-1.22h-.95v6.08Zm4.12-1.53c0,.62.41,1.67,1.54,1.67,1.49,0,2.23-.61,2.24-.62v.47h1.03v-4.12c-.07-1.13-.96-2.11-2.24-2.11-.85,0-1.47.22-2.12.59l.08.9c.45-.31,1.01-.69,2.03-.69.18,0,.53.01.85.41.34.41.34.86.35,1.24v.46c-1.39.01-3.75.35-3.75,1.78Zm.99-.01c0-.85,1.8-1.05,2.77-1.07v.85c0,.88-.93,1.07-1.51,1.07-.73,0-1.26-.36-1.26-.85Zm5.14-3.67h1.13v3.63c0,1.49.66,1.73,1.11,1.73.61,0,1.3-.14,2-.51l-.22-.8c-.19.14-.61.45-1.19.45-.7,0-.73-.8-.73-1.17v-3.32h1.9v-.8h-1.9v-1.7h-.95v1.7h-1.16v.8Zm5.72,5.21h1.01v-6.01h-1.01v6.01Zm-.09-7.97h1.22v-1.2h-1.22v1.2Zm2.63,4.98c0,1.84,1.42,3.13,2.96,3.13s2.97-1.28,2.97-3.12c0-1.69-1.24-3.25-2.97-3.25-1.59,0-2.96,1.4-2.96,3.24Zm1.05-.14c0-1.63,1.04-2.27,1.9-2.27s1.9.62,1.9,2.27-1,2.4-1.9,2.4-1.9-.7-1.9-2.4Zm6.37,3.12h1.05v-3.24c0-1,.34-2.08,1.38-2.08,1.32,0,1.32,1.01,1.32,1.53v3.79h1.05v-3.89c0-.95-.12-2.25-1.85-2.25-1.19,0-1.78.77-1.97,1.01v-.95h-.99v6.08Zm6.26-.46c1.01.55,1.84.61,2.3.61,1.81,0,2.2-1.12,2.2-1.86,0-.88-.62-1.44-1.17-1.69-.84-.38-2.28-.2-2.28-1.19,0-.34.2-.82,1.13-.82s1.4.24,1.94.5l.15-.89c-.74-.31-1.22-.42-1.97-.42-1.84,0-2.21,1.07-2.21,1.78,0,.95.81,1.47,1.4,1.66.42.14,1,.2,1.3.3.27.08.76.35.76.86,0,.36-.24.92-1.26.92-1.09,0-1.74-.46-2.12-.68l-.16.92Zm10.4.46h1.01v-6.01h-1.01v6.01Zm-.09-7.97h1.22v-1.2h-1.22v1.2Zm2.59,7.51c1.01.55,1.84.61,2.3.61,1.81,0,2.2-1.12,2.2-1.86,0-.88-.62-1.44-1.17-1.69-.84-.38-2.28-.2-2.28-1.19,0-.34.2-.82,1.13-.82s1.4.24,1.94.5l.15-.89c-.74-.31-1.22-.42-1.97-.42-1.84,0-2.21,1.07-2.21,1.78,0,.95.81,1.47,1.4,1.66.42.14,1,.2,1.3.3.27.08.76.35.76.86,0,.36-.24.92-1.26.92-1.09,0-1.74-.46-2.12-.68l-.16.92Zm9.9-1.07c0,.62.41,1.67,1.54,1.67,1.49,0,2.23-.61,2.24-.62v.47h1.03v-4.12c-.07-1.13-.96-2.11-2.24-2.11-.85,0-1.47.22-2.12.59l.08.9c.45-.31,1.01-.69,2.03-.69.18,0,.53.01.85.41.34.41.34.86.35,1.24v.46c-1.39.01-3.75.35-3.75,1.78Zm.99-.01c0-.85,1.8-1.05,2.77-1.07v.85c0,.88-.93,1.07-1.51,1.07-.73,0-1.26-.36-1.26-.85Zm5.98,1.54h1.05v-3.24c0-1,.34-2.08,1.38-2.08,1.32,0,1.32,1.01,1.32,1.53v3.79h1.05v-3.89c0-.95-.12-2.25-1.85-2.25-1.19,0-1.78.77-1.97,1.01v-.95h-.99v6.08Z"/>
      <path class="cls-2" d="m13.41,370.91c0,1.84,1.42,3.13,2.96,3.13s2.97-1.28,2.97-3.12c0-1.69-1.24-3.25-2.97-3.25-1.59,0-2.96,1.4-2.96,3.24Zm1.05-.14c0-1.63,1.04-2.27,1.9-2.27s1.9.62,1.9,2.27-1,2.4-1.9,2.4-1.9-.7-1.9-2.4Zm6.37,1.47c0,.7,0,1.8,1.42,1.8.74,0,1.66-.19,2.36-.8v.65h1.03v-6.01h-1.05v3.78c0,.14,0,.26-.01.39-.07.58-.59,1.23-1.61,1.23-.92,0-1.07-.3-1.08-.88v-4.52h-1.05v4.36Zm6.14-3.56h1.13v3.63c0,1.49.66,1.73,1.11,1.73.61,0,1.3-.14,2-.51l-.22-.8c-.19.14-.61.45-1.19.45-.7,0-.73-.8-.73-1.17v-3.32h1.9v-.8h-1.9v-1.7h-.95v1.7h-1.16v.8Zm5.09,2.16c0,1.67,1.17,3.2,2.94,3.2.85,0,1.55-.3,2.13-.69l-.08-.89c-.59.43-1.2.74-2.05.74-1.03,0-1.94-.89-2-2.28h4.19v-.39c-.12-2.31-1.44-2.86-2.4-2.86-1.43,0-2.73,1.36-2.73,3.17Zm1.01-.66c.15-.66.69-1.67,1.71-1.67.39,0,1.4.18,1.63,1.67h-3.35Zm5.62,3.71h1.01v-2.78c0-1.97,1.5-2.43,2.3-2.46v-.9c-1.43.03-2.15.95-2.36,1.28v-1.22h-.95v6.08Zm9.11,2.63h1.05v-3.25c.45.42,1.03.77,1.82.77,1.31,0,2.51-1.27,2.51-3.17,0-1.61-.85-3.12-2.13-3.12-.46,0-1.38.09-2.24.8v-.66h-1.01v8.64Zm1.05-4.33v-2.81c.08-.09.54-.77,1.43-.77,1.11,0,1.84,1.09,1.84,2.28,0,1.43-1.01,2.32-1.96,2.32-.8,0-1.31-.7-1.31-1.03Zm5.55,1.7h1.01v-2.78c0-1.97,1.5-2.43,2.3-2.46v-.9c-1.43.03-2.15.95-2.36,1.28v-1.22h-.95v6.08Zm3.93-2.98c0,1.84,1.42,3.13,2.96,3.13s2.97-1.28,2.97-3.12c0-1.69-1.24-3.25-2.97-3.25-1.59,0-2.96,1.4-2.96,3.24Zm1.05-.14c0-1.63,1.04-2.27,1.9-2.27s1.9.62,1.9,2.27-1,2.4-1.9,2.4-1.9-.7-1.9-2.4Zm6.14.14c0,1.61.95,3.13,2.32,3.13.89,0,1.54-.41,2-.85v.7h1.07v-9.75h-1.03v4.33c-.47-.38-1.11-.74-1.96-.74-1.34,0-2.4,1.39-2.4,3.17Zm1.05-.01c0-1.77,1.17-2.32,1.96-2.32h.03c.15,0,.58.01,1,.41.24.23.28.31.28.53v2.58c0,.42-.63,1.12-1.44,1.12-.73,0-1.82-.53-1.82-2.31Zm6.53,1.35c0,.7,0,1.8,1.42,1.8.74,0,1.66-.19,2.36-.8v.65h1.03v-6.01h-1.05v3.78c0,.14,0,.26-.01.39-.07.58-.59,1.23-1.61,1.23-.92,0-1.07-.3-1.08-.88v-4.52h-1.05v4.36Zm6.37-1.36c0,1.73,1.27,3.16,2.93,3.16.93,0,1.59-.3,2.2-.69l-.07-.9c-.43.3-1.07.73-2.12.73-1.13,0-1.89-.99-1.89-2.3,0-1.17.59-2.35,1.9-2.35,1.07,0,1.42.28,1.94.62l.16-.89c-.82-.47-1.26-.59-2.09-.59-1.89,0-2.97,1.65-2.97,3.21Zm5.76-2.2h1.13v3.63c0,1.49.66,1.73,1.11,1.73.61,0,1.3-.14,2-.51l-.22-.8c-.19.14-.61.45-1.19.45-.7,0-.73-.8-.73-1.17v-3.32h1.9v-.8h-1.9v-1.7h-.95v1.7h-1.16v.8Zm5.93,5.21h.35l-.35,1.69h.57l.55-1.69v-.19s.01-.95.01-.95h-1.13v1.13Zm8.03,0h1.05v-3.24c0-1,.34-2.08,1.38-2.08,1.32,0,1.32,1.01,1.32,1.53v3.79h1.05v-3.24c0-1,.34-2.08,1.38-2.08,1.32,0,1.31,1.53,1.31,1.53v3.79h1.07v-3.89c0-.78-.04-2.25-1.85-2.25-1.23,0-1.84.82-2.04,1.09-.19-.51-.59-1.09-1.71-1.09-1.19,0-1.78.77-1.97,1.01v-.95h-.99v6.08Zm10.1-3.05c0,1.67,1.17,3.2,2.94,3.2.85,0,1.55-.3,2.13-.69l-.08-.89c-.59.43-1.2.74-2.05.74-1.03,0-1.94-.89-2-2.28h4.19v-.39c-.12-2.31-1.44-2.86-2.4-2.86-1.43,0-2.73,1.36-2.73,3.17Zm1.01-.66c.15-.66.69-1.67,1.71-1.67.39,0,1.4.18,1.63,1.67h-3.35Zm5.12,2.19c0,.62.41,1.67,1.54,1.67,1.49,0,2.23-.61,2.24-.62v.47h1.03v-4.12c-.07-1.13-.96-2.11-2.24-2.11-.85,0-1.47.22-2.12.59l.08.9c.45-.31,1.01-.69,2.03-.69.18,0,.53.01.85.41.34.41.34.86.35,1.24v.46c-1.39.01-3.75.35-3.75,1.78Zm.99-.01c0-.85,1.8-1.05,2.77-1.07v.85c0,.88-.93,1.07-1.51,1.07-.73,0-1.26-.36-1.26-.85Zm5.98,1.54h1.05v-3.24c0-1,.34-2.08,1.38-2.08,1.32,0,1.32,1.01,1.32,1.53v3.79h1.05v-3.89c0-.95-.12-2.25-1.85-2.25-1.19,0-1.78.77-1.97,1.01v-.95h-.99v6.08Zm6.99,0h1.01v-6.01h-1.01v6.01Zm-.09-7.97h1.22v-1.2h-1.22v1.2Zm3.31,7.97h1.05v-3.24c0-1,.34-2.08,1.38-2.08,1.32,0,1.32,1.01,1.32,1.53v3.79h1.05v-3.89c0-.95-.12-2.25-1.85-2.25-1.19,0-1.78.77-1.97,1.01v-.95h-.99v6.08Zm6.26.96c0,1.04,1.34,1.82,3,1.82s3-.78,3-1.84c0-.16-.03-.34-.07-.5-.38-1.35-2.03-1.38-2.92-1.38h-1.01c-.65,0-.76-.46-.76-.72,0-.09.01-.23.15-.5.3.19.63.41,1.23.41,1.26,0,2.16-1.05,2.16-2.2,0-.58-.18-.97-.53-1.44l.12.11c.24-.01.66-.05,1.01-.05.27,0,.53.01.8.04l-.15-.85c-.73,0-1.44.14-2.12.42l.03.03c-.45-.31-.82-.45-1.32-.45-1.11,0-2.15.89-2.15,2.2,0,.27.04.81.45,1.34h0c-.24.34-.39.7-.39,1.15s.12.72.34,1.03c-.53.31-.86.84-.86,1.39Zm.95,0c0-.39.3-.85.85-.9h.39s.85-.01.85-.01c1.46,0,2.01.38,2.01.93,0,.62-.97,1.04-2.07,1.04-.74,0-2.04-.3-2.04-1.05Zm.47-4.9c0-1.15.72-1.43,1.2-1.43.73,0,1.22.54,1.22,1.42,0,1.15-.72,1.43-1.2,1.43-.73,0-1.22-.54-1.22-1.42Zm9.87.96c0,1.84,1.42,3.13,2.96,3.13s2.97-1.28,2.97-3.12c0-1.69-1.24-3.25-2.97-3.25-1.59,0-2.96,1.4-2.96,3.24Zm1.05-.14c0-1.63,1.04-2.27,1.9-2.27s1.9.62,1.9,2.27-1,2.4-1.9,2.4-1.9-.7-1.9-2.4Zm6.37,1.47c0,.7,0,1.8,1.42,1.8.74,0,1.66-.19,2.36-.8v.65h1.03v-6.01h-1.05v3.78c0,.14,0,.26-.01.39-.07.58-.59,1.23-1.61,1.23-.92,0-1.07-.3-1.08-.88v-4.52h-1.05v4.36Zm6.14-3.56h1.13v3.63c0,1.49.66,1.73,1.11,1.73.61,0,1.3-.14,2-.51l-.22-.8c-.19.14-.61.45-1.19.45-.7,0-.73-.8-.73-1.17v-3.32h1.9v-.8h-1.9v-1.7h-.95v1.7h-1.16v.8Zm5.09,2.16c0,1.67,1.17,3.2,2.94,3.2.85,0,1.55-.3,2.13-.69l-.08-.89c-.59.43-1.2.74-2.05.74-1.03,0-1.94-.89-2-2.28h4.19v-.39c-.12-2.31-1.44-2.86-2.4-2.86-1.43,0-2.73,1.36-2.73,3.17Zm1.01-.66c.15-.66.69-1.67,1.71-1.67.39,0,1.4.18,1.63,1.67h-3.35Zm5.62,3.71h1.01v-2.78c0-1.97,1.5-2.43,2.3-2.46v-.9c-1.43.03-2.15.95-2.36,1.28v-1.22h-.95v6.08Zm9.11,2.63h1.05v-3.25c.45.42,1.03.77,1.82.77,1.31,0,2.51-1.27,2.51-3.17,0-1.61-.85-3.12-2.13-3.12-.46,0-1.38.09-2.24.8v-.66h-1.01v8.64Zm1.05-4.33v-2.81c.08-.09.54-.77,1.43-.77,1.11,0,1.84,1.09,1.84,2.28,0,1.43-1.01,2.32-1.96,2.32-.8,0-1.31-.7-1.31-1.03Zm5.55,1.7h1.01v-2.78c0-1.97,1.5-2.43,2.3-2.46v-.9c-1.43.03-2.15.95-2.36,1.28v-1.22h-.95v6.08Zm3.93-2.98c0,1.84,1.42,3.13,2.96,3.13s2.97-1.28,2.97-3.12c0-1.69-1.24-3.25-2.97-3.25-1.59,0-2.96,1.4-2.96,3.24Zm1.05-.14c0-1.63,1.04-2.27,1.9-2.27s1.9.62,1.9,2.27-1,2.4-1.9,2.4-1.9-.7-1.9-2.4Zm6.14.14c0,1.61.95,3.13,2.32,3.13.89,0,1.54-.41,2-.85v.7h1.07v-9.75h-1.03v4.33c-.47-.38-1.11-.74-1.96-.74-1.34,0-2.4,1.39-2.4,3.17Zm1.05-.01c0-1.77,1.17-2.32,1.96-2.32h.03c.15,0,.58.01,1,.41.24.23.28.31.28.53v2.58c0,.42-.63,1.12-1.44,1.12-.73,0-1.82-.53-1.82-2.31Zm6.53,1.35c0,.7,0,1.8,1.42,1.8.74,0,1.66-.19,2.36-.8v.65h1.03v-6.01h-1.05v3.78c0,.14,0,.26-.01.39-.07.58-.59,1.23-1.61,1.23-.92,0-1.07-.3-1.08-.88v-4.52h-1.05v4.36Zm6.37-1.36c0,1.73,1.27,3.16,2.93,3.16.93,0,1.59-.3,2.2-.69l-.07-.9c-.43.3-1.07.73-2.12.73-1.13,0-1.89-.99-1.89-2.3,0-1.17.59-2.35,1.9-2.35,1.07,0,1.42.28,1.94.62l.16-.89c-.82-.47-1.26-.59-2.09-.59-1.89,0-2.97,1.65-2.97,3.21Zm5.76-2.2h1.13v3.63c0,1.49.66,1.73,1.11,1.73.61,0,1.3-.14,2-.51l-.22-.8c-.19.14-.61.45-1.19.45-.7,0-.73-.8-.73-1.17v-3.32h1.9v-.8h-1.9v-1.7h-.95v1.7h-1.16v.8Zm5,4.75c1.01.55,1.84.61,2.3.61,1.81,0,2.2-1.12,2.2-1.86,0-.88-.62-1.44-1.17-1.69-.84-.38-2.28-.2-2.28-1.19,0-.34.2-.82,1.13-.82s1.4.24,1.94.5l.15-.89c-.74-.31-1.22-.42-1.97-.42-1.84,0-2.21,1.07-2.21,1.78,0,.95.81,1.47,1.4,1.66.42.14,1,.2,1.3.3.27.08.76.35.76.86,0,.36-.24.92-1.26.92-1.09,0-1.74-.46-2.12-.68l-.16.92Zm9.77-2.55c0,1.73,1.27,3.16,2.93,3.16.93,0,1.59-.3,2.2-.69l-.07-.9c-.43.3-1.07.73-2.12.73-1.13,0-1.89-.99-1.89-2.3,0-1.17.59-2.35,1.9-2.35,1.07,0,1.42.28,1.94.62l.16-.89c-.82-.47-1.26-.59-2.09-.59-1.89,0-2.97,1.65-2.97,3.21Zm6.12,1.49c0,.62.41,1.67,1.54,1.67,1.49,0,2.23-.61,2.24-.62v.47h1.03v-4.12c-.07-1.13-.96-2.11-2.24-2.11-.85,0-1.47.22-2.12.59l.08.9c.45-.31,1.01-.69,2.03-.69.18,0,.53.01.85.41.34.41.34.86.35,1.24v.46c-1.39.01-3.75.35-3.75,1.78Zm.99-.01c0-.85,1.8-1.05,2.77-1.07v.85c0,.88-.93,1.07-1.51,1.07-.73,0-1.26-.36-1.26-.85Zm5.98,1.54h1.05v-3.24c0-1,.34-2.08,1.38-2.08,1.32,0,1.32,1.01,1.32,1.53v3.79h1.05v-3.89c0-.95-.12-2.25-1.85-2.25-1.19,0-1.78.77-1.97,1.01v-.95h-.99v6.08Zm11.49,0h1.05v-.62c.46.42,1.01.77,1.81.77,1.34,0,2.52-1.31,2.52-3.17,0-1.62-.88-3.12-2.21-3.12-.42,0-1.3.09-2.16.78v-4.39h-1.01v9.75Zm1.05-1.8v-2.52c0-.5.74-1,1.44-1s1.82.51,1.82,2.31-1.16,2.34-1.93,2.34c-.39,0-.8-.16-1.11-.54-.18-.26-.23-.23-.23-.58Zm5.67-1.26c0,1.67,1.17,3.2,2.94,3.2.85,0,1.55-.3,2.13-.69l-.08-.89c-.59.43-1.2.74-2.05.74-1.03,0-1.94-.89-2-2.28h4.19v-.39c-.12-2.31-1.44-2.86-2.4-2.86-1.43,0-2.73,1.36-2.73,3.17Zm1.01-.66c.15-.66.69-1.67,1.71-1.67.39,0,1.4.18,1.63,1.67h-3.35Zm9.38,3.25c1.01.55,1.84.61,2.3.61,1.81,0,2.2-1.12,2.2-1.86,0-.88-.62-1.44-1.17-1.69-.84-.38-2.28-.2-2.28-1.19,0-.34.2-.82,1.13-.82s1.4.24,1.94.5l.15-.89c-.74-.31-1.22-.42-1.97-.42-1.84,0-2.21,1.07-2.21,1.78,0,.95.81,1.47,1.4,1.66.42.14,1,.2,1.3.3.27.08.76.35.76.86,0,.36-.24.92-1.26.92-1.09,0-1.74-.46-2.12-.68l-.16.92Zm5.89.46h1.05v-3.24c0-1,.34-2.08,1.38-2.08,1.32,0,1.32,1.01,1.32,1.53v3.79h1.05v-3.89c0-.82-.05-2.25-1.85-2.25-.93,0-1.51.45-1.94.96v-4.56h-1.01v9.75Zm6.99,0h1.01v-6.01h-1.01v6.01Zm-.09-7.97h1.22v-1.2h-1.22v1.2Zm2.59,2.75h1v5.21h1.01v-5.21h1.49v-.8h-1.53v-1.84c0-1.04.82-1.23,1.26-1.23s.78.11,1.09.23v-.9c-.31-.08-.65-.15-1.07-.15-1.09,0-2.27.81-2.27,2.58,0,.11.01.22.01.32v.99h-1v.8Zm4,0h1.13v3.63c0,1.49.66,1.73,1.11,1.73.61,0,1.3-.14,2-.51l-.22-.8c-.19.14-.61.45-1.19.45-.7,0-.73-.8-.73-1.17v-3.32h1.9v-.8h-1.9v-1.7h-.95v1.7h-1.16v.8Zm5.09,2.16c0,1.67,1.17,3.2,2.94,3.2.85,0,1.55-.3,2.13-.69l-.08-.89c-.59.43-1.2.74-2.05.74-1.03,0-1.94-.89-2-2.28h4.19v-.39c-.12-2.31-1.44-2.86-2.4-2.86-1.43,0-2.73,1.36-2.73,3.17Zm1.01-.66c.15-.66.69-1.67,1.71-1.67.39,0,1.4.18,1.63,1.67h-3.35Zm5,.73c0,1.61.95,3.13,2.32,3.13.89,0,1.54-.41,2-.85v.7h1.07v-9.75h-1.03v4.33c-.47-.38-1.11-.74-1.96-.74-1.34,0-2.4,1.39-2.4,3.17Zm1.05-.01c0-1.77,1.17-2.32,1.96-2.32h.03c.15,0,.58.01,1,.41.24.23.28.31.28.53v2.58c0,.42-.63,1.12-1.44,1.12-.73,0-1.82-.53-1.82-2.31Zm6.75,3h1.13v-1.13h-1.13v1.13Z"/>
    </g>
    <path class="cls-2" d="m104.76,395.71c2.26,0,3.85.41,5.5,1.47v2.47h.79c.15-1.68.38-2.94.79-4.29-2.44-.88-4.12-1.21-6.15-1.21-2.71,0-4.85.68-6.97,2.18-3.44,2.47-5.26,6.12-5.26,10.53,0,5.5,3.21,8.59,8.97,8.59,1.68.09,6-.71,7.44-1.62.59-4.59.71-5.26.74-5.35.06-.26.41-.56.79-.62l.94-.18.06-.82c-1.15.12-2.18.15-3.68.15s-2.56-.03-3.79-.15l-.15.82,1,.06c2.21.12,2.47.24,2.47.94,0,.44-.59,3.76-.74,4.47-1.32.71-2.47.97-4.06.97-4.88,0-7.41-2.74-7.41-7.94,0-4.29,1.74-10.47,8.71-10.47Z"/>
    <path class="cls-2" d="m66.61,404.03l-.49,2.16c-.07.29-.1.6-.1.87,0,.37.15.6.41.6.39,0,1.09-.44,2.48-1.6l-.12-.36c-.41.34-.9.8-1.28.8-.15,0-.26-.15-.26-.39,0-.09,0-.14.02-.19l1.56-6.44-.17-.15-.56.31c-.7-.26-.99-.32-1.45-.32s-.82.09-1.28.31c-1.05.53-1.62,1.04-2.04,1.87-.75,1.51-1.28,3.55-1.28,4.88,0,.75.26,1.33.58,1.33.63,0,1.99-.88,3.96-3.66Zm.82-3.57c-.37,1.85-.7,2.74-1.28,3.62-.97,1.43-2.01,2.41-2.55,2.41-.2,0-.31-.22-.31-.68,0-1.09.48-3.08,1.07-4.44.41-.94.8-1.24,1.62-1.24.39,0,.7.07,1.45.32Z"/>
    <path class="cls-2" d="m101.5,438.59l1.24-6.71c.21-1.15.41-1.32,1.5-1.41l1.24-.09.09-.82h-.71l-2.65.09c-.47,0-1,0-2.26-.03l-1.88-.06-.09.82,1.38.06c.71.03,1.03.26,1.03.79,0,.41-.12,1.32-.26,2.24l-2.18,12.76c-.5,2.71-.53,2.74-1.71,2.85l-1.21.09-.12.82,1.24-.03c1.41-.03,2.09-.06,2.65-.06l2.85.09h.76l.09-.82-1.44-.09c-.79-.06-1.06-.26-1.06-.88,0-.26.03-.47.12-1.03l1.24-7.26,1.79-.03c1.82-.03,3.06-.06,3.62-.06s1.76.03,3.62.06l1.79.03-1.18,6.32c-.26,1.44-.47,2.26-.62,2.44-.12.24-.44.35-1.09.41l-1.47.09-.12.82,1.65-.03c1.29-.03,2.18-.06,2.5-.06.47,0,1.38.03,2.65.06l1.24.03.09-.82-1.71-.09c-.76-.03-1.06-.26-1.06-.88,0-.26.03-.53.12-1.03l2.71-15.29c.21-1.15.38-1.29,1.5-1.41l1.06-.09.09-.82h-.47l-2.68.09c-.44,0-1.06,0-2.35-.03l-1.85-.06-.09.82,1.41.06c.71.03,1.03.26,1.03.79,0,.41-.12,1.35-.26,2.24l-.88,5.12h-10.88Z"/>
    <path class="cls-2" d="m136,395.23l-.2-.19c-.88.44-1.5.6-2.72.71l-.07.36h.82c.41,0,.58.12.58.41,0,.12-.02.31-.03.41l-1.72,9.37c-.02.05-.02.12-.02.17,0,.66.82,1.22,1.75,1.22.63,0,1.5-.32,2.23-.85,1.63-1.16,2.75-3.49,2.75-5.73,0-.65-.15-1.31-.36-1.56-.12-.15-.34-.24-.6-.24-.41,0-.92.14-1.39.37-.87.46-1.43.97-2.48,2.31l1.46-6.77Zm1.48,5.07c.44,0,.66.39.66,1.22,0,1.09-.36,2.55-.87,3.66-.56,1.17-1.24,1.72-2.16,1.72-.78,0-1.21-.39-1.21-1.11,0-.58.26-2.98,1.63-4.42.56-.58,1.45-1.07,1.94-1.07Z"/>
    <path class="cls-2" d="m137.81,431.89h.39c.14-1.11.26-1.73.41-2.18-.41-.26-1-.41-1.63-.41-.77-.02-2.01.32-2.98,1.39-.92.82-1.58,2.7-1.58,4.49,0,1.63.71,2.5,2.07,2.5.92,0,1.73-.34,2.67-1.11l.85-.7-.14-.34-.26.17c-1.22.82-1.87,1.11-2.47,1.11-.95,0-1.45-.68-1.45-2.02,0-1.84.6-3.6,1.43-4.25.36-.27.77-.41,1.29-.41.77,0,1.38.32,1.38.73v1.02Z"/>
    <path class="cls-2" d="m178.91,415.38l.09-.82h-.71l-2.65.09c-.47,0-1,0-2.26-.03l-1.88-.06-.09.82,1.38.06c.71.03,1.03.26,1.03.79,0,.41-.09,1.26-.26,2.24l-2.15,12.76c-.5,2.71-.53,2.74-1.71,2.85l-1.21.09-.12.82,1.24-.03c1.41-.03,2.09-.06,2.65-.06l2.85.09h.76l.09-.82-1.44-.09c-.79-.06-1.06-.26-1.06-.85,0-.18.03-.5.06-.62l1.26-7.71c4.41,5.03,5.09,5.88,8.18,10.09l2.03-.09c1.06.03,1.24.06,2,.09v-.88h-.59c-.68,0-1.26-.35-1.88-1.12l-7.23-8.88,8.59-8.03c.47-.44,1.09-.74,1.59-.74h.62v-.79l-.68.03c-.62.03-1.09.06-1.32.06-.29,0-.76-.03-1.38-.06l-.59-.03v.85c0,.24-.29.62-1.12,1.44-1.29,1.32-6.26,6.21-8.15,7.68l1.32-7.65c.21-1.12.41-1.32,1.5-1.41l1.24-.09Z"/>
    <path class="cls-2" d="m66,425.23l-.2-.19c-.88.44-1.5.6-2.72.71l-.07.36h.82c.41,0,.58.12.58.41,0,.12-.02.31-.03.41l-1.72,9.37c-.02.05-.02.12-.02.17,0,.66.82,1.22,1.75,1.22.63,0,1.5-.32,2.23-.85,1.63-1.16,2.75-3.49,2.75-5.73,0-.65-.15-1.31-.36-1.56-.12-.15-.34-.24-.6-.24-.41,0-.92.14-1.39.37-.87.46-1.43.97-2.48,2.31l1.46-6.77Zm1.48,5.07c.44,0,.66.39.66,1.22,0,1.09-.36,2.55-.87,3.66-.56,1.17-1.24,1.72-2.16,1.72-.78,0-1.21-.39-1.21-1.11,0-.58.26-2.98,1.63-4.42.56-.58,1.45-1.07,1.94-1.07Z"/>
    <path class="cls-2" d="m220.21,415.23l-.2-.19c-.88.44-1.5.6-2.72.71l-.07.36h.82c.41,0,.58.12.58.41,0,.14-.02.29-.03.41l-.48,2.62c-.51-.15-.97-.24-1.39-.24-1.17,0-2.77,1.22-3.55,2.7-.53.99-.87,2.6-.87,4.03,0,1.11.26,1.65.75,1.65.46,0,1.09-.29,1.67-.75.92-.75,1.48-1.41,2.62-3.13l-.39,1.55c-.19.75-.27,1.29-.27,1.73,0,.36.15.56.44.56s.7-.2,1.28-.63l1.38-1.02-.17-.32-.75.53c-.24.17-.51.29-.66.29-.14,0-.24-.15-.24-.39,0-.14.02-.29.14-.78l2.14-10.1Zm-6.27,11.27c-.27,0-.43-.24-.43-.66,0-2.14.78-4.79,1.62-5.44.22-.17.54-.26,1-.26.75,0,1.24.1,1.8.39l-.2,1c-.63,3.06-3.03,4.96-3.79,4.96Z"/>
    <path class="cls-2" d="m324.76,395.71c2.26,0,3.85.41,5.5,1.47v2.47h.79c.15-1.68.38-2.94.79-4.29-2.44-.88-4.12-1.21-6.15-1.21-2.71,0-4.85.68-6.97,2.18-3.44,2.47-5.26,6.12-5.26,10.53,0,5.5,3.21,8.59,8.97,8.59,1.68.09,6-.71,7.44-1.62.59-4.59.71-5.26.74-5.35.06-.26.41-.56.79-.62l.94-.18.06-.82c-1.15.12-2.18.15-3.68.15s-2.56-.03-3.79-.15l-.15.82,1,.06c2.21.12,2.47.24,2.47.94,0,.44-.59,3.76-.74,4.47-1.32.71-2.47.97-4.06.97-4.88,0-7.41-2.74-7.41-7.94,0-4.29,1.74-10.47,8.71-10.47Z"/>
    <path class="cls-2" d="m286.61,404.03l-.49,2.16c-.07.29-.1.6-.1.87,0,.37.15.6.41.6.39,0,1.09-.44,2.48-1.6l-.12-.36c-.41.34-.9.8-1.28.8-.15,0-.26-.15-.26-.39,0-.09,0-.14.02-.19l1.56-6.44-.17-.15-.56.31c-.7-.26-.99-.32-1.45-.32s-.82.09-1.28.31c-1.05.53-1.62,1.04-2.04,1.87-.75,1.51-1.28,3.55-1.28,4.88,0,.75.26,1.33.58,1.33.63,0,1.99-.88,3.96-3.66Zm.82-3.57c-.37,1.85-.7,2.74-1.28,3.62-.97,1.43-2.01,2.41-2.55,2.41-.2,0-.31-.22-.31-.68,0-1.09.48-3.08,1.07-4.44.41-.94.8-1.24,1.62-1.24.39,0,.7.07,1.45.32Z"/>
    <path class="cls-2" d="m319.5,439.59l1.24-6.71c.21-1.15.41-1.32,1.5-1.41l1.24-.09.09-.82h-.71l-2.65.09c-.47,0-1,0-2.26-.03l-1.88-.06-.09.82,1.38.06c.71.03,1.03.26,1.03.79,0,.41-.12,1.32-.26,2.24l-2.18,12.76c-.5,2.71-.53,2.74-1.71,2.85l-1.21.09-.12.82,1.24-.03c1.41-.03,2.09-.06,2.65-.06l2.85.09h.76l.09-.82-1.44-.09c-.79-.06-1.06-.26-1.06-.88,0-.26.03-.47.12-1.03l1.24-7.26,1.79-.03c1.82-.03,3.06-.06,3.62-.06s1.76.03,3.62.06l1.79.03-1.18,6.32c-.26,1.44-.47,2.26-.62,2.44-.12.24-.44.35-1.09.41l-1.47.09-.12.82,1.65-.03c1.29-.03,2.18-.06,2.5-.06.47,0,1.38.03,2.65.06l1.24.03.09-.82-1.71-.09c-.76-.03-1.06-.26-1.06-.88,0-.26.03-.53.12-1.03l2.71-15.29c.21-1.15.38-1.29,1.5-1.41l1.06-.09.09-.82h-.47l-2.68.09c-.44,0-1.06,0-2.35-.03l-1.85-.06-.09.82,1.41.06c.71.03,1.03.26,1.03.79,0,.41-.12,1.35-.26,2.24l-.88,5.12h-10.88Z"/>
    <path class="cls-2" d="m356,395.23l-.2-.19c-.88.44-1.5.6-2.72.71l-.07.36h.82c.41,0,.58.12.58.41,0,.12-.02.31-.03.41l-1.72,9.37c-.02.05-.02.12-.02.17,0,.66.82,1.22,1.75,1.22.63,0,1.5-.32,2.23-.85,1.63-1.16,2.75-3.49,2.75-5.73,0-.65-.15-1.31-.36-1.56-.12-.15-.34-.24-.6-.24-.41,0-.92.14-1.39.37-.87.46-1.43.97-2.48,2.31l1.46-6.77Zm1.48,5.07c.44,0,.66.39.66,1.22,0,1.09-.36,2.55-.87,3.66-.56,1.17-1.24,1.72-2.16,1.72-.78,0-1.21-.39-1.21-1.11,0-.58.26-2.98,1.63-4.42.56-.58,1.45-1.07,1.94-1.07Z"/>
    <path class="cls-2" d="m357.81,431.89h.39c.14-1.11.26-1.73.41-2.18-.41-.26-1-.41-1.63-.41-.77-.02-2.01.32-2.98,1.39-.92.82-1.58,2.7-1.58,4.49,0,1.63.71,2.5,2.07,2.5.92,0,1.73-.34,2.67-1.11l.85-.7-.14-.34-.26.17c-1.22.82-1.87,1.11-2.47,1.11-.95,0-1.45-.68-1.45-2.02,0-1.84.6-3.6,1.43-4.25.36-.27.77-.41,1.29-.41.77,0,1.38.32,1.38.73v1.02Z"/>
    <path class="cls-2" d="m398.91,415.38l.09-.82h-.71l-2.65.09c-.47,0-1,0-2.26-.03l-1.88-.06-.09.82,1.38.06c.71.03,1.03.26,1.03.79,0,.41-.09,1.26-.26,2.24l-2.15,12.76c-.5,2.71-.53,2.74-1.71,2.85l-1.21.09-.12.82,1.24-.03c1.41-.03,2.09-.06,2.65-.06l2.85.09h.76l.09-.82-1.44-.09c-.79-.06-1.06-.26-1.06-.85,0-.18.03-.5.06-.62l1.26-7.71c4.41,5.03,5.09,5.88,8.18,10.09l2.03-.09c1.06.03,1.24.06,2,.09v-.88h-.59c-.68,0-1.26-.35-1.88-1.12l-7.23-8.88,8.59-8.03c.47-.44,1.09-.74,1.59-.74h.62v-.79l-.68.03c-.62.03-1.09.06-1.32.06-.29,0-.76-.03-1.38-.06l-.59-.03v.85c0,.24-.29.62-1.12,1.44-1.29,1.32-6.26,6.21-8.15,7.68l1.32-7.65c.21-1.12.41-1.32,1.5-1.41l1.24-.09Z"/>
    <path class="cls-2" d="m286,425.23l-.2-.19c-.88.44-1.5.6-2.72.71l-.07.36h.82c.41,0,.58.12.58.41,0,.12-.02.31-.03.41l-1.72,9.37c-.02.05-.02.12-.02.17,0,.66.82,1.22,1.75,1.22.63,0,1.5-.32,2.23-.85,1.63-1.16,2.75-3.49,2.75-5.73,0-.65-.15-1.31-.36-1.56-.12-.15-.34-.24-.6-.24-.41,0-.92.14-1.39.37-.87.46-1.43.97-2.48,2.31l1.46-6.77Zm1.48,5.07c.44,0,.66.39.66,1.22,0,1.09-.36,2.55-.87,3.66-.56,1.17-1.24,1.72-2.16,1.72-.78,0-1.21-.39-1.21-1.11,0-.58.26-2.98,1.63-4.42.56-.58,1.45-1.07,1.94-1.07Z"/>
    <path class="cls-2" d="m440.21,415.23l-.2-.19c-.88.44-1.5.6-2.72.71l-.07.36h.82c.41,0,.58.12.58.41,0,.14-.02.29-.03.41l-.48,2.62c-.51-.15-.97-.24-1.39-.24-1.17,0-2.77,1.22-3.55,2.7-.53.99-.87,2.6-.87,4.03,0,1.11.26,1.65.75,1.65.46,0,1.09-.29,1.67-.75.92-.75,1.48-1.41,2.62-3.13l-.39,1.55c-.19.75-.27,1.29-.27,1.73,0,.36.15.56.44.56s.7-.2,1.28-.63l1.38-1.02-.17-.32-.75.53c-.24.17-.51.29-.66.29-.14,0-.24-.15-.24-.39,0-.14.02-.29.14-.78l2.14-10.1Zm-6.27,11.27c-.27,0-.43-.24-.43-.66,0-2.14.78-4.79,1.62-5.44.22-.17.54-.26,1-.26.75,0,1.24.1,1.8.39l-.2,1c-.63,3.06-3.03,4.96-3.79,4.96Z"/>
    <path class="cls-2" d="m254.13,416.49v-1.44h-13.19v1.44h13.19Zm0,5.21v-1.44h-13.19v1.44h13.19Z"/>
    <path class="cls-9" d="m10,60.5h50"/>
    <path class="cls-9" d="m80,60.5h50"/>
    <path class="cls-9" d="m80,80.5h50"/>
    <g>
      <path class="cls-3" d="m360,70.5h0c5.52,0,10-4.48,10-10s-4.48-10-10-10v20Z"/>
      <path class="cls-9" d="m360,70.5h0c5.52,0,10-4.48,10-10s-4.48-10-10-10"/>
    </g>
    <path class="cls-9" d="m240,80.5h40"/>
    <path class="cls-9" d="m300,70.5h60"/>
    <path class="cls-9" d="m300,90.5h100"/>
    <path class="cls-9" d="m240,50.5h120"/>
    <path class="cls-9" d="m440,80.5h50"/>
    <path class="cls-9" d="m510,80.5h50"/>
    <path class="cls-9" d="m440,60.5h50"/>
    <path class="cls-7" d="m310,.5h80v100h-80V.5Z"/>
    <path class="cls-9" d="m22.56,180.85h40"/>
    <path class="cls-9" d="m92.56,180.85h40"/>
    <path class="cls-9" d="m162.56,180.85h40"/>
    <path class="cls-9" d="m242.56,180.85h40"/>
    <path class="cls-9" d="m312.56,180.85h20"/>
    <path class="cls-9" d="m332.56,220.85h30"/>
    <g>
      <path class="cls-3" d="m332.56,200.85h0c5.52,0,10-4.48,10-10s-4.48-10-10-10v20Z"/>
      <path class="cls-9" d="m332.56,200.85h0c5.52,0,10-4.48,10-10s-4.48-10-10-10"/>
    </g>
    <g>
      <path class="cls-3" d="m332.56,200.85h0c-5.52,0-10,4.48-10,10s4.48,10,10,10v-20Z"/>
      <path class="cls-9" d="m332.56,200.85h0c-5.52,0-10,4.48-10,10s4.48,10,10,10"/>
    </g>
    <path class="cls-9" d="m392.56,220.85h30"/>
    <path class="cls-9" d="m50,259.96h40"/>
    <path class="cls-9" d="m120,259.96h90"/>
    <path class="cls-9" d="m140,299.96h30"/>
    <g>
      <path class="cls-3" d="m210,279.96h0c5.52,0,10-4.48,10-10s-4.48-10-10-10v20Z"/>
      <path class="cls-9" d="m210,279.96h0c5.52,0,10-4.48,10-10s-4.48-10-10-10"/>
    </g>
    <g>
      <path class="cls-3" d="m140,279.96h0c-5.52,0-10,4.48-10,10s4.48,10,10,10v-20Z"/>
      <path class="cls-9" d="m140,279.96h0c-5.52,0-10,4.48-10,10s4.48,10,10,10"/>
    </g>
    <path class="cls-9" d="m200,299.96h30"/>
    <path class="cls-9" d="m140,279.96h70"/>
    <path class="cls-9" d="m270,259.96h40"/>
    <path class="cls-9" d="m340,259.96h90"/>
    <g>
      <path class="cls-3" d="m430,279.96h0c5.52,0,10-4.48,10-10s-4.48-10-10-10v20Z"/>
      <path class="cls-9" d="m430,279.96h0c5.52,0,10-4.48,10-10s-4.48-10-10-10"/>
    </g>
    <path class="cls-9" d="m410,299.96h40"/>
    <path class="cls-9" d="m420,279.96h10"/>
    <path class="cls-9" d="m490,259.96h40"/>
    <path class="cls-9" d="m560,259.96h30"/>
    <g>
      <path class="cls-3" d="m590,279.96h0c5.52,0,10-4.48,10-10s-4.48-10-10-10v20Z"/>
      <path class="cls-9" d="m590,279.96h0c5.52,0,10-4.48,10-10s-4.48-10-10-10"/>
    </g>
    <path class="cls-9" d="m560,299.96h45"/>
    <path class="cls-9" d="m570,279.96h20"/>
    <g>
      <path class="cls-8" d="m150,70.5h77"/>
      <path class="cls-8" d="m207.27,77.34c8.27-3.93,15.85-6.21,22.73-6.84-6.88-.63-14.46-2.91-22.73-6.84"/>
    </g>
    <path class="cls-8" d="m150,60.5v20"/>
    <path class="cls-9" d="m50,410.5h40"/>
    <path class="cls-9" d="m120,410.5h40"/>
    <path class="cls-9" d="m120,440.5h40"/>
    <path class="cls-6" d="m50,420.5h30"/>
    <path class="cls-9" d="m50,440.5h40"/>
    <path class="cls-9" d="m190,430.5h40"/>
    <path class="cls-9" d="m270,410.5h40"/>
    <path class="cls-9" d="m340,410.5h40"/>
    <path class="cls-9" d="m340,440.5h40"/>
    <path class="cls-6" d="m270,420.5h90"/>
    <path class="cls-9" d="m270,440.5h40"/>
    <path class="cls-9" d="m410,430.5h40"/>
  </g>
</svg>