<?xml version="1.0" encoding="UTF-8"?>
<svg xmlns="http://www.w3.org/2000/svg" xmlns:xlink="http://www.w3.org/1999/xlink" viewBox="0 0 610 215">
  <defs>
    <style>
      .cls-1 {
        filter: url(#drop-shadow-101);
      }

      .cls-2 {
        fill: #fff591;
      }

      .cls-2, .cls-3, .cls-4, .cls-5, .cls-6, .cls-7, .cls-8, .cls-9, .cls-10 {
        stroke-width: 0px;
      }

      .cls-11 {
        filter: url(#drop-shadow-97);
      }

      .cls-12 {
        filter: url(#drop-shadow-98);
      }

      .cls-3 {
        filter: url(#drop-shadow-105);
      }

      .cls-3, .cls-6, .cls-9, .cls-10 {
        fill: #e28ff1;
      }

      .cls-5 {
        filter: url(#drop-shadow-102);
      }

      .cls-5, .cls-7, .cls-8 {
        fill: #9dc7ff;
      }

      .cls-13 {
        filter: url(#drop-shadow-100);
      }

      .cls-14 {
        filter: url(#drop-shadow-107);
      }

      .cls-8 {
        filter: url(#drop-shadow-103);
      }

      .cls-15 {
        stroke-dasharray: 0 0 6 6;
      }

      .cls-15, .cls-16 {
        fill: none;
        stroke: #000;
      }

      .cls-17 {
        filter: url(#drop-shadow-99);
      }

      .cls-18 {
        filter: url(#drop-shadow-109);
      }

      .cls-19 {
        filter: url(#drop-shadow-258);
      }

      .cls-9 {
        filter: url(#drop-shadow-104);
      }

      .cls-10 {
        filter: url(#drop-shadow-106);
      }

      .cls-20 {
        filter: url(#drop-shadow-108);
      }
    </style>
    <filter id="drop-shadow-97" filterUnits="userSpaceOnUse">
      <feOffset dx="0" dy="0"/>
      <feGaussianBlur result="blur" stdDeviation="3"/>
      <feFlood flood-color="#000" flood-opacity="1"/>
      <feComposite in2="blur" operator="in"/>
      <feComposite in="SourceGraphic"/>
    </filter>
    <filter id="drop-shadow-98" filterUnits="userSpaceOnUse">
      <feOffset dx="0" dy="0"/>
      <feGaussianBlur result="blur-2" stdDeviation="3"/>
      <feFlood flood-color="#000" flood-opacity="1"/>
      <feComposite in2="blur-2" operator="in"/>
      <feComposite in="SourceGraphic"/>
    </filter>
    <filter id="drop-shadow-99" filterUnits="userSpaceOnUse">
      <feOffset dx="0" dy="0"/>
      <feGaussianBlur result="blur-3" stdDeviation="3"/>
      <feFlood flood-color="#000" flood-opacity="1"/>
      <feComposite in2="blur-3" operator="in"/>
      <feComposite in="SourceGraphic"/>
    </filter>
    <filter id="drop-shadow-100" filterUnits="userSpaceOnUse">
      <feOffset dx="0" dy="0"/>
      <feGaussianBlur result="blur-4" stdDeviation="3"/>
      <feFlood flood-color="#000" flood-opacity="1"/>
      <feComposite in2="blur-4" operator="in"/>
      <feComposite in="SourceGraphic"/>
    </filter>
    <filter id="drop-shadow-101" filterUnits="userSpaceOnUse">
      <feOffset dx="0" dy="0"/>
      <feGaussianBlur result="blur-5" stdDeviation="3"/>
      <feFlood flood-color="#000" flood-opacity="1"/>
      <feComposite in2="blur-5" operator="in"/>
      <feComposite in="SourceGraphic"/>
    </filter>
    <filter id="drop-shadow-102" filterUnits="userSpaceOnUse">
      <feOffset dx="0" dy="0"/>
      <feGaussianBlur result="blur-6" stdDeviation="3"/>
      <feFlood flood-color="#000" flood-opacity="1"/>
      <feComposite in2="blur-6" operator="in"/>
      <feComposite in="SourceGraphic"/>
    </filter>
    <filter id="drop-shadow-103" filterUnits="userSpaceOnUse">
      <feOffset dx="0" dy="0"/>
      <feGaussianBlur result="blur-7" stdDeviation="3"/>
      <feFlood flood-color="#000" flood-opacity="1"/>
      <feComposite in2="blur-7" operator="in"/>
      <feComposite in="SourceGraphic"/>
    </filter>
    <filter id="drop-shadow-104" filterUnits="userSpaceOnUse">
      <feOffset dx="0" dy="0"/>
      <feGaussianBlur result="blur-8" stdDeviation="3"/>
      <feFlood flood-color="#000" flood-opacity="1"/>
      <feComposite in2="blur-8" operator="in"/>
      <feComposite in="SourceGraphic"/>
    </filter>
    <filter id="drop-shadow-105" filterUnits="userSpaceOnUse">
      <feOffset dx="0" dy="0"/>
      <feGaussianBlur result="blur-9" stdDeviation="3"/>
      <feFlood flood-color="#000" flood-opacity="1"/>
      <feComposite in2="blur-9" operator="in"/>
      <feComposite in="SourceGraphic"/>
    </filter>
    <filter id="drop-shadow-106" filterUnits="userSpaceOnUse">
      <feOffset dx="0" dy="0"/>
      <feGaussianBlur result="blur-10" stdDeviation="3"/>
      <feFlood flood-color="#000" flood-opacity="1"/>
      <feComposite in2="blur-10" operator="in"/>
      <feComposite in="SourceGraphic"/>
    </filter>
    <filter id="drop-shadow-107" filterUnits="userSpaceOnUse">
      <feOffset dx="0" dy="0"/>
      <feGaussianBlur result="blur-11" stdDeviation="3"/>
      <feFlood flood-color="#000" flood-opacity="1"/>
      <feComposite in2="blur-11" operator="in"/>
      <feComposite in="SourceGraphic"/>
    </filter>
    <filter id="drop-shadow-108" filterUnits="userSpaceOnUse">
      <feOffset dx="0" dy="0"/>
      <feGaussianBlur result="blur-12" stdDeviation="3"/>
      <feFlood flood-color="#000" flood-opacity="1"/>
      <feComposite in2="blur-12" operator="in"/>
      <feComposite in="SourceGraphic"/>
    </filter>
    <filter id="drop-shadow-109" filterUnits="userSpaceOnUse">
      <feOffset dx="0" dy="0"/>
      <feGaussianBlur result="blur-13" stdDeviation="3"/>
      <feFlood flood-color="#000" flood-opacity="1"/>
      <feComposite in2="blur-13" operator="in"/>
      <feComposite in="SourceGraphic"/>
    </filter>
    <filter id="drop-shadow-258" filterUnits="userSpaceOnUse">
      <feOffset dx="0" dy="0"/>
      <feGaussianBlur result="blur-14" stdDeviation="3"/>
      <feFlood flood-color="#000" flood-opacity="1"/>
      <feComposite in2="blur-14" operator="in"/>
      <feComposite in="SourceGraphic"/>
    </filter>
  </defs>
  <g id="Shapes">
    <g class="cls-11">
      <path class="cls-6" d="m545,90h45v50h-45v-50Z"/>
    </g>
    <g class="cls-12">
      <path class="cls-7" d="m490,90h50v85h-50v-85Z"/>
    </g>
    <g class="cls-17">
      <polygon class="cls-7" points="435 90 435 205 385 205 385 90 435 90"/>
    </g>
    <g class="cls-13">
      <path class="cls-6" d="m440,90h45v110h-45v-110Z"/>
    </g>
    <g class="cls-1">
      <polygon class="cls-6" points="380 90 380 200 335 200 335 90 380 90"/>
    </g>
    <path class="cls-5" d="m180,90h50v75h-50v-75Z"/>
    <polygon class="cls-8" points="125 90 125 205 75 205 75 90 125 90"/>
    <path class="cls-9" d="m235,90h45v30h-45v-30Z"/>
    <path class="cls-3" d="m130,90h45v110h-45v-110Z"/>
    <polygon class="cls-10" points="70 90 70 200 25 200 25 90 70 90"/>
    <g class="cls-14">
      <polygon class="cls-2" points="375 40 15 40 15 20 375 20 385 10 565 10 565 80 385 80 375 40"/>
    </g>
    <g class="cls-20">
      <path class="cls-6" d="m401.63,24.22h45v30h-45v-30Z"/>
    </g>
    <g class="cls-18">
      <polygon class="cls-2" points="370 80 10 80 10 60 370 60 370 80"/>
    </g>
    <g class="cls-19">
      <path class="cls-6" d="m501.63,19.22h45v55h-45V19.22Z"/>
    </g>
  </g>
  <g id="Lines">
    <path class="cls-4" d="m357.28,137.53v1.15c0,.92-.17,1.13-.92,1.16l-.95.05v.46q2.03-.05,2.4-.05t2.4.05v-.46l-.73-.05c-.75-.05-.92-.24-.92-1.16v-1.15c.9,0,1.22.02,1.65.06v-1.09l-1.65.05.02-6.92-1.22.46-4.33,7.08v.35h4.25Zm0-.98h-3.29l3.29-5.39v5.39Z"/>
    <path class="cls-4" d="m355,187.24c.32-2.77,1.68-4.28,4.44-5.11l-.64-.37c-1.47.49-2.1.8-2.88,1.47-1.58,1.33-2.43,3.2-2.43,5.29,0,2.52,1.22,4.09,3.2,4.09s3.47-1.58,3.47-3.66c0-1.76-1.06-2.91-2.68-2.91-1.18,0-1.67.6-2.48,1.19Zm1.9-.28c1.16,0,1.94,1.01,1.94,2.52,0,1.59-.78,2.62-1.96,2.62-1.3,0-2-1.12-2-3.17,0-.54.06-.83.23-1.09.34-.52,1.06-.89,1.79-.89Z"/>
    <path class="cls-4" d="m353.24,159.95v.4c2.86,0,2.86-.05,3.41-.05s.55.05,3.5.05v-1.3c-1.76.08-2.46.02-5.29.08l2.78-2.95c1.48-1.58,1.94-2.42,1.94-3.56,0-1.76-1.19-2.85-3.14-2.85-1.1,0-1.85.31-2.6,1.07l-.26,2.08h.44l.2-.7c.24-.89.8-1.27,1.82-1.27,1.32,0,2.16.83,2.16,2.13,0,1.15-.64,2.28-2.37,4.12l-2.6,2.77Z"/>
    <path class="cls-4" d="m410.45,169.78h-.39l.51-2.74c.39-2.11,1.08-3.04,2.2-3.04.73,0,1.4.37,1.76.95l.24-.1c.12-.39.37-1.15.56-1.64l.12-.37c-.39-.17-1.15-.32-1.71-.32-.27,0-.66.07-.86.17-.59.27-2.59,1.76-3.16,2.35-.54.54-.83,1.27-1.1,2.67l-.37,1.93c-1,.49-1.49.69-2.11.91l-.12.54h1.98l-.22,1.37c-.73,4.77-1.64,9.33-2.18,11.02-.44,1.44-1.18,2.2-2.06,2.2-.56,0-.83-.17-1.27-.71l-.34.1c-.1.56-.44,1.74-.56,1.96.22.12.59.2.86.2,1,0,2.33-.76,3.28-1.91,1.74-2.06,2.23-4.41,4.28-14.22h2.55c.1-.47.27-1.03.42-1.37l-.1-.17c-.71.17-.69.22-2.23.22Z"/>
    <path class="cls-4" d="m513.73,132.68c-1.64,0-5.39,1.54-5.39,5.46,0,1.88,1.1,3.01,2.99,3.01.2,0,.47,0,.73-.02l-1,.93c-.39.37-.66.81-.66,1.15,0,.24.17.51.51.81-1.69.56-4.82,1.64-4.82,4.36,0,1.74,1.71,2.86,4.38,2.86,3.16,0,5.92-1.76,5.92-3.79,0-.88-.51-1.76-1.57-2.62l-1.47-1.2c-.83-.66-1.15-1.13-1.15-1.59,0-.34.37-.69.66-1.13,2.4-.59,4.14-2.62,4.14-4.8,0-.37-.07-.83-.1-.93.42.05.61.05.83.05.42,0,.66-.02,1.22-.1l.22-1.1-.07-.15c-.69.17-1.18.22-2.5.22,0-.02-.59-1.42-2.89-1.42Zm-2.42,11.77l1.88,1.44c1.13.88,1.59,1.54,1.59,2.35,0,1.27-1.69,2.3-3.72,2.3s-3.4-1.03-3.4-2.52c0-2.5,2.69-3.28,3.65-3.57Zm1.81-10.94c1.42,0,2.13.88,2.13,2.62,0,2.52-1.18,4.24-2.89,4.24-1.49,0-2.28-1-2.28-2.94,0-2.33,1.25-3.92,3.04-3.92Z"/>
    <path class="cls-4" d="m360.85,108.19c0-2.06-1.82-2.41-2.62-2.55,1.36-1.05,1.87-1.84,1.87-2.84,0-1.51-1.26-2.52-3.15-2.52-1.16,0-1.92.32-2.74,1.14l-.49,2.11h.53l.31-.95c.19-.58,1.26-1.16,2.14-1.16,1.11,0,2.01.9,2.01,1.97,0,1.28-1,2.35-2.21,2.35-.14,0-.32-.02-.54-.03l-.26-.02-.2.9.12.1c.65-.29.97-.37,1.43-.37,1.41,0,2.23.9,2.23,2.45,0,1.73-1.04,2.87-2.62,2.87-.78,0-1.48-.26-1.99-.73-.41-.37-.63-.77-.95-1.68l-.46.17c.36,1.04.49,1.65.6,2.5.9.31,1.65.44,2.28.44,2.09,0,4.73-1.82,4.73-4.15Z"/>
    <path class="cls-4" d="m464.85,108.19c0-2.06-1.82-2.41-2.62-2.55,1.36-1.05,1.87-1.84,1.87-2.84,0-1.51-1.26-2.52-3.15-2.52-1.16,0-1.92.32-2.74,1.14l-.49,2.11h.53l.31-.95c.19-.58,1.26-1.16,2.14-1.16,1.11,0,2.01.9,2.01,1.97,0,1.28-1,2.35-2.21,2.35-.14,0-.32-.02-.54-.03l-.26-.02-.2.9.12.1c.65-.29.97-.37,1.43-.37,1.41,0,2.23.9,2.23,2.45,0,1.73-1.04,2.87-2.62,2.87-.78,0-1.48-.26-1.99-.73-.41-.37-.63-.77-.95-1.68l-.46.17c.36,1.04.49,1.65.6,2.5.9.31,1.65.44,2.28.44,2.09,0,4.73-1.82,4.73-4.15Z"/>
    <path class="cls-4" d="m465.07,136.87c0-1.85-1.64-2.17-2.36-2.3,1.22-.95,1.68-1.65,1.68-2.56,0-1.36-1.13-2.26-2.83-2.26-1.04,0-1.73.29-2.46,1.03l-.44,1.9h.47l.28-.86c.17-.52,1.13-1.04,1.93-1.04.99,0,1.81.81,1.81,1.77,0,1.15-.9,2.11-1.99,2.11-.12,0-.29-.02-.49-.03l-.23-.02-.18.81.11.09c.58-.26.87-.34,1.29-.34,1.27,0,2,.81,2,2.2,0,1.56-.93,2.59-2.36,2.59-.7,0-1.33-.23-1.79-.66-.37-.34-.57-.69-.86-1.51l-.41.15c.32.93.44,1.48.54,2.25.81.28,1.48.4,2.05.4,1.88,0,4.25-1.64,4.25-3.73Z"/>
    <path class="cls-4" d="m465.07,156.87c0-1.85-1.64-2.17-2.36-2.3,1.22-.95,1.68-1.65,1.68-2.56,0-1.36-1.13-2.26-2.83-2.26-1.04,0-1.73.29-2.46,1.03l-.44,1.9h.47l.28-.86c.17-.52,1.13-1.04,1.93-1.04.99,0,1.81.81,1.81,1.77,0,1.15-.9,2.11-1.99,2.11-.12,0-.29-.02-.49-.03l-.23-.02-.18.81.11.09c.58-.26.87-.34,1.29-.34,1.27,0,2,.81,2,2.2,0,1.56-.93,2.59-2.36,2.59-.7,0-1.33-.23-1.79-.66-.37-.34-.57-.69-.86-1.51l-.41.15c.32.93.44,1.48.54,2.25.81.28,1.48.4,2.05.4,1.88,0,4.25-1.64,4.25-3.73Z"/>
    <path class="cls-4" d="m569.4,110.35v-.46l-.8-.05c-.84-.05-.99-.21-.99-1.01v-9.24l-3.69,1.56.11.77,2.3-1.01v7.93c0,.8-.17.96-.99,1.01l-.86.05v.46q2.36-.05,2.52-.05c.47,0,2.16.05,2.4.05Z"/>
    <path class="cls-4" d="m563.24,129.95v.4c2.86,0,2.86-.05,3.41-.05s.55.05,3.5.05v-1.3c-1.76.08-2.46.02-5.29.08l2.78-2.95c1.48-1.58,1.94-2.42,1.94-3.56,0-1.76-1.19-2.85-3.14-2.85-1.1,0-1.85.31-2.6,1.07l-.26,2.08h.44l.2-.7c.24-.89.8-1.27,1.82-1.27,1.32,0,2.16.83,2.16,2.13,0,1.15-.64,2.28-2.37,4.12l-2.6,2.77Z"/>
    <path class="cls-4" d="m100.45,169.78h-.39l.51-2.74c.39-2.11,1.08-3.04,2.2-3.04.73,0,1.4.37,1.76.95l.24-.1c.12-.39.37-1.15.56-1.64l.12-.37c-.39-.17-1.15-.32-1.71-.32-.27,0-.66.07-.86.17-.59.27-2.59,1.76-3.16,2.35-.54.54-.83,1.27-1.1,2.67l-.37,1.93c-1,.49-1.49.69-2.11.91l-.12.54h1.98l-.22,1.37c-.73,4.77-1.64,9.33-2.18,11.02-.44,1.44-1.18,2.2-2.06,2.2-.56,0-.83-.17-1.27-.71l-.34.1c-.1.56-.44,1.74-.56,1.96.22.12.59.2.86.2,1,0,2.33-.76,3.28-1.91,1.74-2.06,2.23-4.41,4.28-14.22h2.55c.1-.47.27-1.03.42-1.37l-.1-.17c-.71.17-.69.22-2.23.22Z"/>
    <path class="cls-4" d="m203.73,132.68c-1.64,0-5.39,1.54-5.39,5.46,0,1.88,1.1,3.01,2.99,3.01.2,0,.47,0,.73-.02l-1,.93c-.39.37-.66.81-.66,1.15,0,.24.17.51.51.81-1.69.56-4.82,1.64-4.82,4.36,0,1.74,1.71,2.86,4.38,2.86,3.16,0,5.92-1.76,5.92-3.79,0-.88-.51-1.76-1.57-2.62l-1.47-1.2c-.83-.66-1.15-1.13-1.15-1.59,0-.34.37-.69.66-1.13,2.4-.59,4.14-2.62,4.14-4.8,0-.37-.07-.83-.1-.93.42.05.61.05.83.05.42,0,.66-.02,1.22-.1l.22-1.1-.07-.15c-.69.17-1.18.22-2.5.22,0-.02-.59-1.42-2.89-1.42Zm-2.42,11.77l1.88,1.44c1.13.88,1.59,1.54,1.59,2.35,0,1.27-1.69,2.3-3.72,2.3s-3.4-1.03-3.4-2.52c0-2.5,2.69-3.28,3.65-3.57Zm1.81-10.94c1.42,0,2.13.88,2.13,2.62,0,2.52-1.18,4.24-2.89,4.24-1.49,0-2.28-1-2.28-2.94,0-2.33,1.25-3.92,3.04-3.92Z"/>
    <g>
      <path class="cls-4" d="m33.83,185.3c-.15,0-.31,0-.46-.02l-.1.2,4.71,6.17c.39-.02.77-.05,1.16-.05s.78.03,1.22.05v-.51c-.41-.03-.78-.12-1.04-.44l-3.86-5.03c1.65-.32,3.32-1.43,3.32-3.28,0-1.19-.68-2.55-3.25-2.55h-8.16v.51l.75.05c.7.05.87.19.87,1.53v7.63c0,1.34-.17,1.51-.87,1.55l-.75.03v.51s.94-.05,3.64-.05c.78,0,2.45.02,3.33.05v-.51l-.82-.03c-.75-.03-.87-.2-.87-1.55v-8.87c.48-.12.95-.2,1.73-.2,1.33,0,2.69.51,2.69,2.35,0,.99-.7,2.47-3.25,2.47Zm-3.52,5.78c-.46,0-.54-.26-.54-1.51v-7.63c0-1.26.1-1.46.56-1.51.65.07.71.19.71,1.51v7.63c0,1.28-.09,1.51-.73,1.51Z"/>
      <path class="cls-4" d="m42.86,180.96c.25-2.15,1.31-3.33,3.45-3.97l-.5-.29c-1.14.38-1.63.62-2.24,1.14-1.23,1.04-1.89,2.49-1.89,4.12,0,1.96.95,3.18,2.49,3.18s2.7-1.23,2.7-2.84c0-1.37-.82-2.26-2.08-2.26-.92,0-1.3.46-1.93.93Zm1.48-.21c.9,0,1.51.79,1.51,1.96,0,1.24-.61,2.03-1.52,2.03-1.01,0-1.56-.87-1.56-2.46,0-.42.05-.64.18-.84.26-.4.82-.69,1.39-.69Z"/>
    </g>
    <g>
      <path class="cls-4" d="m33.83,145.3c-.15,0-.31,0-.46-.02l-.1.2,4.71,6.17c.39-.02.77-.05,1.16-.05s.78.03,1.22.05v-.51c-.41-.03-.78-.12-1.04-.44l-3.86-5.03c1.65-.32,3.32-1.43,3.32-3.28,0-1.19-.68-2.55-3.25-2.55h-8.16v.51l.75.05c.7.05.87.19.87,1.53v7.63c0,1.34-.17,1.51-.87,1.55l-.75.03v.51s.94-.05,3.64-.05c.78,0,2.45.02,3.33.05v-.51l-.82-.03c-.75-.03-.87-.2-.87-1.55v-8.87c.48-.12.95-.2,1.73-.2,1.33,0,2.69.51,2.69,2.35,0,.99-.7,2.47-3.25,2.47Zm-3.52,5.78c-.46,0-.54-.26-.54-1.51v-7.63c0-1.26.1-1.46.56-1.51.65.07.71.19.71,1.51v7.63c0,1.28-.09,1.51-.73,1.51Z"/>
      <path class="cls-4" d="m44.63,142.75v.89c0,.71-.13.88-.71.9l-.74.04v.36q1.58-.04,1.87-.04t1.87.04v-.36l-.57-.04c-.58-.04-.71-.19-.71-.9v-.89c.7,0,.95.01,1.29.05v-.84l-1.29.04v-5.38s-.94.36-.94.36l-3.37,5.51v.27h3.31Zm0-.76h-2.56l2.56-4.19v4.19Zm9.88,2.48l-2.8-2.78,2.8-2.78-.51-.5-2.77,2.78-2.78-2.78-.5.5,2.78,2.78-2.78,2.78.5.5,2.78-2.78,2.77,2.78.51-.5Zm.87.17v.31c2.23,0,2.23-.04,2.65-.04s.43.04,2.73.04v-1.01c-1.37.06-1.92.01-4.12.06l2.17-2.3c1.15-1.23,1.51-1.88,1.51-2.77,0-1.37-.93-2.21-2.44-2.21-.86,0-1.44.24-2.02.83l-.2,1.62h.35l.15-.55c.19-.69.62-.99,1.42-.99,1.02,0,1.68.64,1.68,1.65,0,.89-.5,1.77-1.84,3.2l-2.02,2.15Z"/>
    </g>
    <g>
      <path class="cls-4" d="m33.83,105.3c-.15,0-.31,0-.46-.02l-.1.2,4.71,6.17c.39-.02.77-.05,1.16-.05s.78.03,1.22.05v-.51c-.41-.03-.78-.12-1.04-.44l-3.86-5.03c1.65-.32,3.32-1.43,3.32-3.28,0-1.19-.68-2.55-3.25-2.55h-8.16v.51l.75.05c.7.05.87.19.87,1.53v7.63c0,1.34-.17,1.51-.87,1.55l-.75.03v.51s.94-.05,3.64-.05c.78,0,2.45.02,3.33.05v-.51l-.82-.03c-.75-.03-.87-.2-.87-1.55v-8.87c.48-.12.95-.2,1.73-.2,1.33,0,2.69.51,2.69,2.35,0,.99-.7,2.47-3.25,2.47Zm-3.52,5.78c-.46,0-.54-.26-.54-1.51v-7.63c0-1.26.1-1.46.56-1.51.65.07.71.19.71,1.51v7.63c0,1.28-.09,1.51-.73,1.51Z"/>
      <path class="cls-4" d="m46.79,102.23c0-1.44-1.27-1.69-1.83-1.79.95-.74,1.31-1.29,1.31-1.99,0-1.06-.88-1.76-2.2-1.76-.81,0-1.34.23-1.92.8l-.35,1.48h.37l.21-.67c.13-.4.88-.81,1.5-.81.77,0,1.4.63,1.4,1.38,0,.89-.7,1.64-1.55,1.64-.1,0-.23-.01-.38-.02h-.18s-.14.62-.14.62l.08.07c.45-.2.68-.26,1-.26.99,0,1.56.63,1.56,1.71,0,1.21-.73,2.01-1.83,2.01-.55,0-1.04-.18-1.39-.51-.29-.26-.44-.54-.67-1.18l-.32.12c.25.73.35,1.15.42,1.75.63.21,1.15.31,1.59.31,1.46,0,3.31-1.27,3.31-2.9Z"/>
    </g>
    <g>
      <path class="cls-4" d="m138.83,145.3c-.15,0-.31,0-.46-.02l-.1.2,4.71,6.17c.39-.02.77-.05,1.16-.05s.78.03,1.22.05v-.51c-.41-.03-.78-.12-1.04-.44l-3.86-5.03c1.65-.32,3.32-1.43,3.32-3.28,0-1.19-.68-2.55-3.25-2.55h-8.16v.51l.75.05c.7.05.87.19.87,1.53v7.63c0,1.34-.17,1.51-.87,1.55l-.75.03v.51s.94-.05,3.64-.05c.78,0,2.45.02,3.33.05v-.51l-.82-.03c-.75-.03-.87-.2-.87-1.55v-8.87c.48-.12.95-.2,1.73-.2,1.33,0,2.69.51,2.69,2.35,0,.99-.7,2.47-3.25,2.47Zm-3.52,5.78c-.46,0-.54-.26-.54-1.51v-7.63c0-1.26.1-1.46.56-1.51.65.07.71.19.71,1.51v7.63c0,1.28-.09,1.51-.73,1.51Z"/>
      <path class="cls-4" d="m151.79,142.23c0-1.44-1.27-1.69-1.83-1.79.95-.74,1.31-1.29,1.31-1.99,0-1.06-.88-1.76-2.2-1.76-.81,0-1.34.23-1.92.8l-.35,1.48h.37l.21-.67c.13-.4.88-.81,1.5-.81.77,0,1.4.63,1.4,1.38,0,.89-.7,1.64-1.55,1.64-.1,0-.23-.01-.38-.02h-.18s-.14.62-.14.62l.08.07c.45-.2.68-.26,1-.26.99,0,1.56.63,1.56,1.71,0,1.21-.73,2.01-1.83,2.01-.55,0-1.04-.18-1.39-.51-.29-.26-.44-.54-.67-1.18l-.32.12c.25.73.35,1.15.42,1.75.63.21,1.15.31,1.59.31,1.46,0,3.31-1.27,3.31-2.9Zm7.71,2.23l-2.8-2.78,2.8-2.78-.51-.5-2.77,2.78-2.78-2.78-.5.5,2.78,2.78-2.78,2.78.5.5,2.78-2.78,2.77,2.78.51-.5Zm6.18-2.23c0-1.44-1.27-1.69-1.83-1.79.95-.74,1.31-1.29,1.31-1.99,0-1.06-.88-1.76-2.2-1.76-.81,0-1.34.23-1.92.8l-.35,1.48h.37l.21-.67c.13-.4.88-.81,1.5-.81.77,0,1.4.63,1.4,1.38,0,.89-.7,1.64-1.55,1.64-.1,0-.23-.01-.38-.02h-.18s-.14.62-.14.62l.08.07c.45-.2.68-.26,1-.26.99,0,1.56.63,1.56,1.71,0,1.21-.73,2.01-1.83,2.01-.55,0-1.04-.18-1.39-.51-.29-.26-.44-.54-.67-1.18l-.32.12c.25.73.35,1.15.42,1.75.63.21,1.15.31,1.59.31,1.46,0,3.31-1.27,3.31-2.9Z"/>
    </g>
    <g>
      <path class="cls-4" d="m138.83,105.3c-.15,0-.31,0-.46-.02l-.1.2,4.71,6.17c.39-.02.77-.05,1.16-.05s.78.03,1.22.05v-.51c-.41-.03-.78-.12-1.04-.44l-3.86-5.03c1.65-.32,3.32-1.43,3.32-3.28,0-1.19-.68-2.55-3.25-2.55h-8.16v.51l.75.05c.7.05.87.19.87,1.53v7.63c0,1.34-.17,1.51-.87,1.55l-.75.03v.51s.94-.05,3.64-.05c.78,0,2.45.02,3.33.05v-.51l-.82-.03c-.75-.03-.87-.2-.87-1.55v-8.87c.48-.12.95-.2,1.73-.2,1.33,0,2.69.51,2.69,2.35,0,.99-.7,2.47-3.25,2.47Zm-3.52,5.78c-.46,0-.54-.26-.54-1.51v-7.63c0-1.26.1-1.46.56-1.51.65.07.71.19.71,1.51v7.63c0,1.28-.09,1.51-.73,1.51Z"/>
      <path class="cls-4" d="m151.79,102.23c0-1.44-1.27-1.69-1.83-1.79.95-.74,1.31-1.29,1.31-1.99,0-1.06-.88-1.76-2.2-1.76-.81,0-1.34.23-1.92.8l-.35,1.48h.37l.21-.67c.13-.4.88-.81,1.5-.81.77,0,1.4.63,1.4,1.38,0,.89-.7,1.64-1.55,1.64-.1,0-.23-.01-.38-.02h-.18s-.14.62-.14.62l.08.07c.45-.2.68-.26,1-.26.99,0,1.56.63,1.56,1.71,0,1.21-.73,2.01-1.83,2.01-.55,0-1.04-.18-1.39-.51-.29-.26-.44-.54-.67-1.18l-.32.12c.25.73.35,1.15.42,1.75.63.21,1.15.31,1.59.31,1.46,0,3.31-1.27,3.31-2.9Z"/>
    </g>
    <g>
      <path class="cls-4" d="m244.83,105.3c-.15,0-.31,0-.46-.02l-.1.2,4.71,6.17c.39-.02.77-.05,1.16-.05s.78.03,1.22.05v-.51c-.41-.03-.78-.12-1.04-.44l-3.86-5.03c1.65-.32,3.32-1.43,3.32-3.28,0-1.19-.68-2.55-3.25-2.55h-8.16v.51l.75.05c.7.05.87.19.87,1.53v7.63c0,1.34-.17,1.51-.87,1.55l-.75.03v.51s.94-.05,3.64-.05c.78,0,2.45.02,3.33.05v-.51l-.82-.03c-.75-.03-.87-.2-.87-1.55v-8.87c.48-.12.95-.2,1.73-.2,1.33,0,2.69.51,2.69,2.35,0,.99-.7,2.47-3.25,2.47Zm-3.52,5.78c-.46,0-.54-.26-.54-1.51v-7.63c0-1.26.1-1.46.56-1.51.65.07.71.19.71,1.51v7.63c0,1.28-.09,1.51-.73,1.51Z"/>
      <path class="cls-4" d="m257.27,104.94v-.36l-.62-.04c-.65-.04-.77-.17-.77-.79v-7.19l-2.87,1.21.08.6,1.79-.79v6.16c0,.62-.13.75-.77.79l-.67.04v.36q1.83-.04,1.96-.04c.37,0,1.68.04,1.87.04Zm8.23-.48l-2.8-2.78,2.8-2.78-.51-.5-2.77,2.78-2.78-2.78-.5.5,2.78,2.78-2.78,2.78.5.5,2.78-2.78,2.77,2.78.51-.5Zm.87.17v.31c2.23,0,2.23-.04,2.65-.04s.43.04,2.73.04v-1.01c-1.37.06-1.92.01-4.12.06l2.17-2.3c1.15-1.23,1.51-1.88,1.51-2.77,0-1.37-.93-2.21-2.44-2.21-.86,0-1.44.24-2.02.83l-.2,1.62h.35l.15-.55c.19-.69.62-.99,1.42-.99,1.02,0,1.68.64,1.68,1.65,0,.89-.5,1.77-1.84,3.2l-2.02,2.15Z"/>
    </g>
    <path class="cls-4" d="m317.58,154.2v-1.74h-15.85v1.74h15.85Zm0,6.26v-1.74h-15.85v1.74h15.85Z"/>
    <path class="cls-4" d="m20,25.38l2.75,9.37h1.08l1.51-5.24s.74-2.59.8-3.19q.11.7.85,3.44l1.44,4.98h1.17l2.74-9.37h-.97l-1.58,5.47c-.04.15-.68,2.36-.72,2.96l-.05-.35-.26-1.07-.39-1.46-1.59-5.55h-1.11l-1.55,5.45c-.24.89-.65,2.36-.7,2.97-.07-.59-.3-1.47-.69-2.93l-1.57-5.49h-1.17Zm12.64,6.32c0,1.67,1.17,3.2,2.94,3.2.85,0,1.55-.3,2.13-.69l-.08-.89c-.59.43-1.2.74-2.05.74-1.03,0-1.94-.89-2-2.28h4.19v-.39c-.12-2.31-1.44-2.86-2.4-2.86-1.43,0-2.73,1.36-2.73,3.17Zm1.01-.66c.15-.66.69-1.67,1.71-1.67.39,0,1.4.18,1.63,1.67h-3.35Zm9.48.66c0,1.67,1.17,3.2,2.94,3.2.85,0,1.55-.3,2.13-.69l-.08-.89c-.59.43-1.2.74-2.05.74-1.03,0-1.94-.89-2-2.28h4.19v-.39c-.12-2.31-1.44-2.86-2.4-2.86-1.43,0-2.73,1.36-2.73,3.17Zm1.01-.66c.15-.66.69-1.67,1.71-1.67.39,0,1.4.18,1.63,1.67h-3.35Zm4.52,3.71h1.12l1.94-2.54,2.03,2.54h1.12l-2.7-3.09h0s2.48-2.92,2.48-2.92h-1.12l-1.8,2.23h-.01l-1.86-2.23h-1.12l2.54,2.9v.03l-2.62,3.08Zm7.32,2.63h1.05v-3.25c.45.42,1.03.77,1.82.77,1.31,0,2.51-1.27,2.51-3.17,0-1.61-.85-3.12-2.13-3.12-.46,0-1.38.09-2.24.8v-.66h-1.01v8.64Zm1.05-4.33v-2.81c.08-.09.54-.77,1.43-.77,1.11,0,1.84,1.09,1.84,2.28,0,1.43-1.01,2.32-1.96,2.32-.8,0-1.31-.7-1.31-1.03Zm5.55,1.7h1.01v-2.78c0-1.97,1.5-2.43,2.3-2.46v-.9c-1.43.03-2.15.95-2.36,1.28v-1.22h-.95v6.08Zm3.98-3.05c0,1.67,1.17,3.2,2.94,3.2.85,0,1.55-.3,2.13-.69l-.08-.89c-.59.43-1.2.74-2.05.74-1.03,0-1.94-.89-2-2.28h4.19v-.39c-.12-2.31-1.44-2.86-2.4-2.86-1.43,0-2.73,1.36-2.73,3.17Zm1.01-.66c.15-.66.69-1.67,1.71-1.67.39,0,1.4.18,1.63,1.67h-3.35Zm4.89,3.25c1.01.55,1.84.61,2.3.61,1.81,0,2.2-1.12,2.2-1.86,0-.88-.62-1.44-1.17-1.69-.84-.38-2.28-.2-2.28-1.19,0-.34.2-.82,1.13-.82s1.4.24,1.94.5l.15-.89c-.74-.31-1.22-.42-1.97-.42-1.84,0-2.21,1.07-2.21,1.78,0,.95.81,1.47,1.4,1.66.42.14,1,.2,1.3.3.27.08.76.35.76.86,0,.36-.24.92-1.26.92-1.09,0-1.74-.46-2.12-.68l-.16.92Zm5.17,0c1.01.55,1.84.61,2.3.61,1.81,0,2.2-1.12,2.2-1.86,0-.88-.62-1.44-1.17-1.69-.84-.38-2.28-.2-2.28-1.19,0-.34.2-.82,1.13-.82s1.4.24,1.94.5l.15-.89c-.74-.31-1.22-.42-1.97-.42-1.84,0-2.21,1.07-2.21,1.78,0,.95.81,1.47,1.4,1.66.42.14,1,.2,1.3.3.27.08.76.35.76.86,0,.36-.24.92-1.26.92-1.09,0-1.74-.46-2.12-.68l-.16.92Zm9.54-4.75h1.13v3.63c0,1.49.66,1.73,1.11,1.73.61,0,1.3-.14,2-.51l-.22-.8c-.19.14-.61.45-1.19.45-.7,0-.73-.8-.73-1.17v-3.32h1.9v-.8h-1.9v-1.7h-.95v1.7h-1.16v.8Zm5.09,2.16c0,1.67,1.17,3.2,2.94,3.2.85,0,1.55-.3,2.13-.69l-.08-.89c-.59.43-1.2.74-2.05.74-1.03,0-1.94-.89-2-2.28h4.19v-.39c-.12-2.31-1.44-2.86-2.4-2.86-1.43,0-2.73,1.36-2.73,3.17Zm1.01-.66c.15-.66.69-1.67,1.71-1.67.39,0,1.4.18,1.63,1.67h-3.35Zm5.6,3.71h1.05v-3.24c0-1,.34-2.08,1.38-2.08,1.32,0,1.32,1.01,1.32,1.53v3.79h1.05v-3.89c0-.95-.12-2.25-1.85-2.25-1.19,0-1.78.77-1.97,1.01v-.95h-.99v6.08Zm6.26-.46c1.01.55,1.84.61,2.3.61,1.81,0,2.2-1.12,2.2-1.86,0-.88-.62-1.44-1.17-1.69-.84-.38-2.28-.2-2.28-1.19,0-.34.2-.82,1.13-.82s1.4.24,1.94.5l.15-.89c-.74-.31-1.22-.42-1.97-.42-1.84,0-2.21,1.07-2.21,1.78,0,.95.81,1.47,1.4,1.66.42.14,1,.2,1.3.3.27.08.76.35.76.86,0,.36-.24.92-1.26.92-1.09,0-1.74-.46-2.12-.68l-.16.92Zm5.21-2.52c0,1.84,1.42,3.13,2.96,3.13s2.97-1.28,2.97-3.12c0-1.69-1.24-3.25-2.97-3.25-1.59,0-2.96,1.4-2.96,3.24Zm1.05-.14c0-1.63,1.04-2.27,1.9-2.27s1.9.62,1.9,2.27-1,2.4-1.9,2.4-1.9-.7-1.9-2.4Zm6.01,3.12h1.01v-2.78c0-1.97,1.5-2.43,2.3-2.46v-.9c-1.43.03-2.15.95-2.36,1.28v-1.22h-.95v6.08Zm8.49-2.98c0,1.61.95,3.13,2.32,3.13.89,0,1.54-.41,2-.85v.7h1.07v-9.75h-1.03v4.33c-.47-.38-1.11-.74-1.96-.74-1.34,0-2.4,1.39-2.4,3.17Zm1.05-.01c0-1.77,1.17-2.32,1.96-2.32h.03c.15,0,.58.01,1,.41.24.23.28.31.28.53v2.58c0,.42-.63,1.12-1.44,1.12-.73,0-1.82-.53-1.82-2.31Zm6.05,1.47c0,.62.41,1.67,1.54,1.67,1.49,0,2.23-.61,2.24-.62v.47h1.03v-4.12c-.07-1.13-.96-2.11-2.24-2.11-.85,0-1.47.22-2.12.59l.08.9c.45-.31,1.01-.69,2.03-.69.18,0,.53.01.85.41.34.41.34.86.35,1.24v.46c-1.39.01-3.75.35-3.75,1.78Zm.99-.01c0-.85,1.8-1.05,2.77-1.07v.85c0,.88-.93,1.07-1.51,1.07-.73,0-1.26-.36-1.26-.85Zm5.14-3.67h1.13v3.63c0,1.49.66,1.73,1.11,1.73.61,0,1.3-.14,2-.51l-.22-.8c-.19.14-.61.45-1.19.45-.7,0-.73-.8-.73-1.17v-3.32h1.9v-.8h-1.9v-1.7h-.95v1.7h-1.16v.8Zm5.22,3.69c0,.62.41,1.67,1.54,1.67,1.49,0,2.23-.61,2.24-.62v.47h1.03v-4.12c-.07-1.13-.96-2.11-2.24-2.11-.85,0-1.47.22-2.12.59l.08.9c.45-.31,1.01-.69,2.03-.69.18,0,.53.01.85.41.34.41.34.86.35,1.24v.46c-1.39.01-3.75.35-3.75,1.78Zm.99-.01c0-.85,1.8-1.05,2.77-1.07v.85c0,.88-.93,1.07-1.51,1.07-.73,0-1.26-.36-1.26-.85Zm9.64-3.67h1.13v3.63c0,1.49.66,1.73,1.11,1.73.61,0,1.3-.14,2-.51l-.22-.8c-.19.14-.61.45-1.19.45-.7,0-.73-.8-.73-1.17v-3.32h1.9v-.8h-1.9v-1.7h-.95v1.7h-1.16v.8Zm4.44-.8l2.52,5.76c.05.11.07.16.07.23,0,.05-.01.12-.05.22-.58,1.4-.69,1.81-1.26,1.81-.23,0-.53-.08-.99-.23l.07.88c.32.08.73.11.99.11.62,0,1.01-.31,1.55-1.55l2.93-7.22h-1.01c-.89,2.21-1.77,4.41-1.8,5.33-.12-.77-.12-1.13-1.96-5.33h-1.07Zm7.13,8.64h1.05v-3.25c.45.42,1.03.77,1.82.77,1.31,0,2.51-1.27,2.51-3.17,0-1.61-.85-3.12-2.13-3.12-.46,0-1.38.09-2.24.8v-.66h-1.01v8.64Zm1.05-4.33v-2.81c.08-.09.54-.77,1.43-.77,1.11,0,1.84,1.09,1.84,2.28,0,1.43-1.01,2.32-1.96,2.32-.8,0-1.31-.7-1.31-1.03Zm5.67-1.35c0,1.67,1.17,3.2,2.94,3.2.85,0,1.55-.3,2.13-.69l-.08-.89c-.59.43-1.2.74-2.05.74-1.03,0-1.94-.89-2-2.28h4.19v-.39c-.12-2.31-1.44-2.86-2.4-2.86-1.43,0-2.73,1.36-2.73,3.17Zm1.01-.66c.15-.66.69-1.67,1.71-1.67.39,0,1.4.18,1.63,1.67h-3.35Zm4.89,3.25c1.01.55,1.84.61,2.3.61,1.81,0,2.2-1.12,2.2-1.86,0-.88-.62-1.44-1.17-1.69-.84-.38-2.28-.2-2.28-1.19,0-.34.2-.82,1.13-.82s1.4.24,1.94.5l.15-.89c-.74-.31-1.22-.42-1.97-.42-1.84,0-2.21,1.07-2.21,1.78,0,.95.81,1.47,1.4,1.66.42.14,1,.2,1.3.3.27.08.76.35.76.86,0,.36-.24.92-1.26.92-1.09,0-1.74-.46-2.12-.68l-.16.92Zm10.4.46h1.05v-.62c.46.42,1.01.77,1.81.77,1.34,0,2.52-1.31,2.52-3.17,0-1.62-.88-3.12-2.21-3.12-.42,0-1.3.09-2.16.78v-4.39h-1.01v9.75Zm1.05-1.8v-2.52c0-.5.74-1,1.44-1s1.82.51,1.82,2.31-1.16,2.34-1.93,2.34c-.39,0-.8-.16-1.11-.54-.18-.26-.23-.23-.23-.58Zm4.64-4.21l2.52,5.76c.05.11.07.16.07.23,0,.05-.01.12-.05.22-.58,1.4-.69,1.81-1.26,1.81-.23,0-.53-.08-.99-.23l.07.88c.32.08.73.11.99.11.62,0,1.01-.31,1.55-1.55l2.93-7.22h-1.01c-.89,2.21-1.77,4.41-1.8,5.33-.12-.77-.12-1.13-1.96-5.33h-1.07Zm11.62,6.01h1.01v-2.78c0-1.97,1.5-2.43,2.3-2.46v-.9c-1.43.03-2.15.95-2.36,1.28v-1.22h-.95v6.08Zm3.98-3.05c0,1.67,1.17,3.2,2.94,3.2.85,0,1.55-.3,2.13-.69l-.08-.89c-.59.43-1.2.74-2.05.74-1.03,0-1.94-.89-2-2.28h4.19v-.39c-.12-2.31-1.44-2.86-2.4-2.86-1.43,0-2.73,1.36-2.73,3.17Zm1.01-.66c.15-.66.69-1.67,1.71-1.67.39,0,1.4.18,1.63,1.67h-3.35Zm5.62,6.35h1.05v-3.25c.45.42,1.03.77,1.82.77,1.31,0,2.51-1.27,2.51-3.17,0-1.61-.85-3.12-2.13-3.12-.46,0-1.38.09-2.24.8v-.66h-1.01v8.64Zm1.05-4.33v-2.81c.08-.09.54-.77,1.43-.77,1.11,0,1.84,1.09,1.84,2.28,0,1.43-1.01,2.32-1.96,2.32-.8,0-1.31-.7-1.31-1.03Zm5.55,1.7h1.01v-2.78c0-1.97,1.5-2.43,2.3-2.46v-.9c-1.43.03-2.15.95-2.36,1.28v-1.22h-.95v6.08Zm3.98-3.05c0,1.67,1.17,3.2,2.94,3.2.85,0,1.55-.3,2.13-.69l-.08-.89c-.59.43-1.2.74-2.05.74-1.03,0-1.94-.89-2-2.28h4.19v-.39c-.12-2.31-1.44-2.86-2.4-2.86-1.43,0-2.73,1.36-2.73,3.17Zm1.01-.66c.15-.66.69-1.67,1.71-1.67.39,0,1.4.18,1.63,1.67h-3.35Zm4.89,3.25c1.01.55,1.84.61,2.3.61,1.81,0,2.2-1.12,2.2-1.86,0-.88-.62-1.44-1.17-1.69-.84-.38-2.28-.2-2.28-1.19,0-.34.2-.82,1.13-.82s1.4.24,1.94.5l.15-.89c-.74-.31-1.22-.42-1.97-.42-1.84,0-2.21,1.07-2.21,1.78,0,.95.81,1.47,1.4,1.66.42.14,1,.2,1.3.3.27.08.76.35.76.86,0,.36-.24.92-1.26.92-1.09,0-1.74-.46-2.12-.68l-.16.92Zm5.27-2.59c0,1.67,1.17,3.2,2.94,3.2.85,0,1.55-.3,2.13-.69l-.08-.89c-.59.43-1.2.74-2.05.74-1.03,0-1.94-.89-2-2.28h4.19v-.39c-.12-2.31-1.44-2.86-2.4-2.86-1.43,0-2.73,1.36-2.73,3.17Zm1.01-.66c.15-.66.69-1.67,1.71-1.67.39,0,1.4.18,1.63,1.67h-3.35Zm5.6,3.71h1.05v-3.24c0-1,.34-2.08,1.38-2.08,1.32,0,1.32,1.01,1.32,1.53v3.79h1.05v-3.89c0-.95-.12-2.25-1.85-2.25-1.19,0-1.78.77-1.97,1.01v-.95h-.99v6.08Zm6.14-5.21h1.13v3.63c0,1.49.66,1.73,1.11,1.73.61,0,1.3-.14,2-.51l-.22-.8c-.19.14-.61.45-1.19.45-.7,0-.73-.8-.73-1.17v-3.32h1.9v-.8h-1.9v-1.7h-.95v1.7h-1.16v.8Zm5.72,5.21h1.01v-6.01h-1.01v6.01Zm-.09-7.97h1.22v-1.2h-1.22v1.2Zm3.31,7.97h1.05v-3.24c0-1,.34-2.08,1.38-2.08,1.32,0,1.32,1.01,1.32,1.53v3.79h1.05v-3.89c0-.95-.12-2.25-1.85-2.25-1.19,0-1.78.77-1.97,1.01v-.95h-.99v6.08Zm6.26.96c0,1.04,1.34,1.82,3,1.82s3-.78,3-1.84c0-.16-.03-.34-.07-.5-.38-1.35-2.03-1.38-2.92-1.38h-1.01c-.65,0-.76-.46-.76-.72,0-.09.01-.23.15-.5.3.19.63.41,1.23.41,1.26,0,2.16-1.05,2.16-2.2,0-.58-.18-.97-.53-1.44l.12.11c.24-.01.66-.05,1.01-.05.27,0,.53.01.8.04l-.15-.85c-.73,0-1.44.14-2.12.42l.03.03c-.45-.31-.82-.45-1.32-.45-1.11,0-2.15.89-2.15,2.2,0,.27.04.81.45,1.34h0c-.24.34-.39.7-.39,1.15s.12.72.34,1.03c-.53.31-.86.84-.86,1.39Zm.95,0c0-.39.3-.85.85-.9h.39s.85-.01.85-.01c1.46,0,2.01.38,2.01.93,0,.62-.97,1.04-2.07,1.04-.74,0-2.04-.3-2.04-1.05Zm.47-4.9c0-1.15.72-1.43,1.2-1.43.73,0,1.22.54,1.22,1.42,0,1.15-.72,1.43-1.2,1.43-.73,0-1.22-.54-1.22-1.42Zm10.06,2.42c0,.62.41,1.67,1.54,1.67,1.49,0,2.23-.61,2.24-.62v.47h1.03v-4.12c-.07-1.13-.96-2.11-2.24-2.11-.85,0-1.47.22-2.12.59l.08.9c.45-.31,1.01-.69,2.03-.69.18,0,.53.01.85.41.34.41.34.86.35,1.24v.46c-1.39.01-3.75.35-3.75,1.78Zm.99-.01c0-.85,1.8-1.05,2.77-1.07v.85c0,.88-.93,1.07-1.51,1.07-.73,0-1.26-.36-1.26-.85Zm4.9,1.54h1.12l1.94-2.54,2.03,2.54h1.12l-2.7-3.09h0s2.48-2.92,2.48-2.92h-1.12l-1.8,2.23h-.01l-1.86-2.23h-1.12l2.54,2.9v.03l-2.62,3.08Zm6.68-3.05c0,1.67,1.17,3.2,2.94,3.2.85,0,1.55-.3,2.13-.69l-.08-.89c-.59.43-1.2.74-2.05.74-1.03,0-1.94-.89-2-2.28h4.19v-.39c-.12-2.31-1.44-2.86-2.4-2.86-1.43,0-2.73,1.36-2.73,3.17Zm1.01-.66c.15-.66.69-1.67,1.71-1.67.39,0,1.4.18,1.63,1.67h-3.35Zm4.89,3.25c1.01.55,1.84.61,2.3.61,1.81,0,2.2-1.12,2.2-1.86,0-.88-.62-1.44-1.17-1.69-.84-.38-2.28-.2-2.28-1.19,0-.34.2-.82,1.13-.82s1.4.24,1.94.5l.15-.89c-.74-.31-1.22-.42-1.97-.42-1.84,0-2.21,1.07-2.21,1.78,0,.95.81,1.47,1.4,1.66.42.14,1,.2,1.3.3.27.08.76.35.76.86,0,.36-.24.92-1.26.92-1.09,0-1.74-.46-2.12-.68l-.16.92Zm9.49-5.55l1.86,6.01h1.07c.53-1.74,1.39-4.47,1.43-5.32.14,1,.24,1.36,1.44,5.32h1.17l1.86-6.01h-.99c-1.12,3.66-1.44,4.81-1.5,5.33-.05-.42-.12-.62-.51-2.04l-.99-3.29h-.96c-.46,1.49-1.39,4.48-1.43,5.33-.07-.51-.12-1.07-1.46-5.33h-1.01Zm10.13,6.01h1.01v-6.01h-1.01v6.01Zm-.09-7.97h1.22v-1.2h-1.22v1.2Zm2.47,2.75h1.13v3.63c0,1.49.66,1.73,1.11,1.73.61,0,1.3-.14,2-.51l-.22-.8c-.19.14-.61.45-1.19.45-.7,0-.73-.8-.73-1.17v-3.32h1.9v-.8h-1.9v-1.7h-.95v1.7h-1.16v.8Zm5.71,5.21h1.05v-3.24c0-1,.34-2.08,1.38-2.08,1.32,0,1.32,1.01,1.32,1.53v3.79h1.05v-3.89c0-.82-.05-2.25-1.85-2.25-.93,0-1.51.45-1.94.96v-4.56h-1.01v9.75Zm10.58-6.01l1.86,6.01h1.07c.53-1.74,1.39-4.47,1.43-5.32.14,1,.24,1.36,1.44,5.32h1.17l1.86-6.01h-.99c-1.12,3.66-1.44,4.81-1.5,5.33-.05-.42-.12-.62-.51-2.04l-.99-3.29h-.96c-.46,1.49-1.39,4.48-1.43,5.33-.07-.51-.12-1.07-1.46-5.33h-1.01Zm10.13,6.01h1.01v-6.01h-1.01v6.01Zm-.09-7.97h1.22v-1.2h-1.22v1.2Zm3.32,7.97h1.01v-2.78c0-1.97,1.5-2.43,2.3-2.46v-.9c-1.43.03-2.15.95-2.36,1.28v-1.22h-.95v6.08Zm3.98-3.05c0,1.67,1.17,3.2,2.94,3.2.85,0,1.55-.3,2.13-.69l-.08-.89c-.59.43-1.2.74-2.05.74-1.03,0-1.94-.89-2-2.28h4.19v-.39c-.12-2.31-1.44-2.86-2.4-2.86-1.43,0-2.73,1.36-2.73,3.17Zm1.01-.66c.15-.66.69-1.67,1.71-1.67.39,0,1.4.18,1.63,1.67h-3.35Zm4.89,3.25c1.01.55,1.84.61,2.3.61,1.81,0,2.2-1.12,2.2-1.86,0-.88-.62-1.44-1.17-1.69-.84-.38-2.28-.2-2.28-1.19,0-.34.2-.82,1.13-.82s1.4.24,1.94.5l.15-.89c-.74-.31-1.22-.42-1.97-.42-1.84,0-2.21,1.07-2.21,1.78,0,.95.81,1.47,1.4,1.66.42.14,1,.2,1.3.3.27.08.76.35.76.86,0,.36-.24.92-1.26.92-1.09,0-1.74-.46-2.12-.68l-.16.92Zm6.1.46h1.13v-1.13h-1.13v1.13Z"/>
    <g>
      <path class="cls-4" d="m410.83,38.97c-.18,0-.37,0-.55-.02l-.12.24,5.65,7.41c.47-.02.92-.06,1.39-.06s.94.04,1.47.06v-.61c-.49-.04-.94-.14-1.24-.53l-4.63-6.04c1.98-.39,3.98-1.71,3.98-3.94,0-1.43-.82-3.06-3.9-3.06h-9.79v.61l.9.06c.84.06,1.04.22,1.04,1.84v9.16c0,1.61-.2,1.82-1.04,1.86l-.9.04v.61s1.12-.06,4.37-.06c.94,0,2.94.02,4,.06v-.61l-.98-.04c-.9-.04-1.04-.24-1.04-1.86v-10.65c.57-.14,1.14-.24,2.08-.24,1.59,0,3.22.61,3.22,2.82,0,1.18-.84,2.96-3.9,2.96Zm-4.22,6.94c-.55,0-.65-.31-.65-1.82v-9.16c0-1.51.12-1.75.67-1.82.78.08.86.22.86,1.82v9.16c0,1.53-.1,1.82-.88,1.82Z"/>
      <path class="cls-4" d="m423.8,35.91v1.07c0,.86-.16,1.06-.86,1.09l-.89.04v.43q1.9-.04,2.24-.04t2.24.04v-.43l-.69-.04c-.7-.04-.86-.23-.86-1.09v-1.07c.84,0,1.14.01,1.54.06v-1.01l-1.54.04v-6.45s-1.13.43-1.13.43l-4.04,6.61v.33h3.97Zm0-.91h-3.07l3.07-5.03v5.03Zm11.85,2.97l-3.36-3.34,3.36-3.34-.61-.6-3.33,3.34-3.34-3.34-.6.6,3.34,3.34-3.34,3.34.6.6,3.34-3.34,3.33,3.34.61-.6Zm1.04.2v.37c2.67,0,2.67-.04,3.18-.04s.51.04,3.27.04v-1.21c-1.64.07-2.3.01-4.94.07l2.6-2.76c1.39-1.47,1.81-2.26,1.81-3.33,0-1.64-1.11-2.66-2.93-2.66-1.03,0-1.73.29-2.43,1l-.24,1.94h.41l.19-.66c.23-.83.74-1.19,1.7-1.19,1.23,0,2.01.77,2.01,1.98,0,1.07-.6,2.13-2.21,3.84l-2.43,2.58Z"/>
    </g>
    <path class="cls-4" d="m480.21,43.42v-1.74h-15.85v1.74h15.85Zm0,6.26v-1.74h-15.85v1.74h15.85Z"/>
    <path class="cls-4" d="m13.47,65.09h3.51s0,8.41,0,8.41h1.2v-8.42h1.58s1.92.01,1.92.01v-.89h-8.21v.89Zm9.79,8.41h1.05v-3.24c0-1,.34-2.08,1.38-2.08,1.32,0,1.32,1.01,1.32,1.53v3.79h1.05v-3.89c0-.82-.05-2.25-1.85-2.25-.93,0-1.51.45-1.94.96v-4.56h-1.01v9.75Zm6.99,0h1.01v-6.01h-1.01v6.01Zm-.09-7.97h1.22v-1.2h-1.22v1.2Zm2.59,7.51c1.01.55,1.84.61,2.3.61,1.81,0,2.2-1.12,2.2-1.86,0-.88-.62-1.44-1.17-1.69-.84-.38-2.28-.2-2.28-1.19,0-.34.2-.82,1.13-.82s1.4.24,1.94.5l.15-.89c-.74-.31-1.22-.42-1.97-.42-1.84,0-2.21,1.07-2.21,1.78,0,.95.81,1.47,1.4,1.66.42.14,1,.2,1.3.3.27.08.76.35.76.86,0,.36-.24.92-1.26.92-1.09,0-1.74-.46-2.12-.68l-.16.92Zm10.4.46h1.01v-9.75h-1.01v9.75Zm2.59-3.05c0,1.67,1.17,3.2,2.94,3.2.85,0,1.55-.3,2.13-.69l-.08-.89c-.59.43-1.2.74-2.05.74-1.03,0-1.94-.89-2-2.28h4.19v-.39c-.12-2.31-1.44-2.86-2.4-2.86-1.43,0-2.73,1.36-2.73,3.17Zm1.01-.66c.15-.66.69-1.67,1.71-1.67.39,0,1.4.18,1.63,1.67h-3.35Zm4.77-1.5h1.13v3.63c0,1.49.66,1.73,1.11,1.73.61,0,1.3-.14,2-.51l-.22-.8c-.19.14-.61.45-1.19.45-.7,0-.73-.8-.73-1.17v-3.32h1.9v-.8h-1.9v-1.7h-.95v1.7h-1.16v.8Zm5,4.75c1.01.55,1.84.61,2.3.61,1.81,0,2.2-1.12,2.2-1.86,0-.88-.62-1.44-1.17-1.69-.84-.38-2.28-.2-2.28-1.19,0-.34.2-.82,1.13-.82s1.4.24,1.94.5l.15-.89c-.74-.31-1.22-.42-1.97-.42-1.84,0-2.21,1.07-2.21,1.78,0,.95.81,1.47,1.4,1.66.42.14,1,.2,1.3.3.27.08.76.35.76.86,0,.36-.24.92-1.26.92-1.09,0-1.74-.46-2.12-.68l-.16.92Zm10.38-1.19c0,.7,0,1.8,1.42,1.8.74,0,1.66-.19,2.36-.8v.65h1.03v-6.01h-1.05v3.78c0,.14,0,.26-.01.39-.07.58-.59,1.23-1.61,1.23-.92,0-1.07-.3-1.08-.88v-4.52h-1.05v4.36Zm6.26,1.19c1.01.55,1.84.61,2.3.61,1.81,0,2.2-1.12,2.2-1.86,0-.88-.62-1.44-1.17-1.69-.84-.38-2.28-.2-2.28-1.19,0-.34.2-.82,1.13-.82s1.4.24,1.94.5l.15-.89c-.74-.31-1.22-.42-1.97-.42-1.84,0-2.21,1.07-2.21,1.78,0,.95.81,1.47,1.4,1.66.42.14,1,.2,1.3.3.27.08.76.35.76.86,0,.36-.24.92-1.26.92-1.09,0-1.74-.46-2.12-.68l-.16.92Zm10.4.46h1.01v-2.78c0-1.97,1.5-2.43,2.3-2.46v-.9c-1.43.03-2.15.95-2.36,1.28v-1.22h-.95v6.08Zm3.98-3.05c0,1.67,1.17,3.2,2.94,3.2.85,0,1.55-.3,2.13-.69l-.08-.89c-.59.43-1.2.74-2.05.74-1.03,0-1.94-.89-2-2.28h4.19v-.39c-.12-2.31-1.44-2.86-2.4-2.86-1.43,0-2.73,1.36-2.73,3.17Zm1.01-.66c.15-.66.69-1.67,1.71-1.67.39,0,1.4.18,1.63,1.67h-3.35Zm4.98.66c0,1.67,1.17,3.2,2.94,3.2.85,0,1.55-.3,2.13-.69l-.08-.89c-.59.43-1.2.74-2.05.74-1.03,0-1.94-.89-2-2.28h4.19v-.39c-.12-2.31-1.44-2.86-2.4-2.86-1.43,0-2.73,1.36-2.73,3.17Zm1.01-.66c.15-.66.69-1.67,1.71-1.67.39,0,1.4.18,1.63,1.67h-3.35Zm4.52,3.71h1.12l1.94-2.54,2.03,2.54h1.12l-2.7-3.09h0s2.48-2.92,2.48-2.92h-1.12l-1.8,2.23h-.01l-1.86-2.23h-1.12l2.54,2.9v.03l-2.62,3.08Zm7.32,2.63h1.05v-3.25c.45.42,1.03.77,1.82.77,1.31,0,2.51-1.27,2.51-3.17,0-1.61-.85-3.12-2.13-3.12-.46,0-1.38.09-2.24.8v-.66h-1.01v8.64Zm1.05-4.33v-2.81c.08-.09.54-.77,1.43-.77,1.11,0,1.84,1.09,1.84,2.28,0,1.43-1.01,2.32-1.96,2.32-.8,0-1.31-.7-1.31-1.03Zm5.55,1.7h1.01v-2.78c0-1.97,1.5-2.43,2.3-2.46v-.9c-1.43.03-2.15.95-2.36,1.28v-1.22h-.95v6.08Zm3.98-3.05c0,1.67,1.17,3.2,2.94,3.2.85,0,1.55-.3,2.13-.69l-.08-.89c-.59.43-1.2.74-2.05.74-1.03,0-1.94-.89-2-2.28h4.19v-.39c-.12-2.31-1.44-2.86-2.4-2.86-1.43,0-2.73,1.36-2.73,3.17Zm1.01-.66c.15-.66.69-1.67,1.71-1.67.39,0,1.4.18,1.63,1.67h-3.35Zm4.89,3.25c1.01.55,1.84.61,2.3.61,1.81,0,2.2-1.12,2.2-1.86,0-.88-.62-1.44-1.17-1.69-.84-.38-2.28-.2-2.28-1.19,0-.34.2-.82,1.13-.82s1.4.24,1.94.5l.15-.89c-.74-.31-1.22-.42-1.97-.42-1.84,0-2.21,1.07-2.21,1.78,0,.95.81,1.47,1.4,1.66.42.14,1,.2,1.3.3.27.08.76.35.76.86,0,.36-.24.92-1.26.92-1.09,0-1.74-.46-2.12-.68l-.16.92Zm5.17,0c1.01.55,1.84.61,2.3.61,1.81,0,2.2-1.12,2.2-1.86,0-.88-.62-1.44-1.17-1.69-.84-.38-2.28-.2-2.28-1.19,0-.34.2-.82,1.13-.82s1.4.24,1.94.5l.15-.89c-.74-.31-1.22-.42-1.97-.42-1.84,0-2.21,1.07-2.21,1.78,0,.95.81,1.47,1.4,1.66.42.14,1,.2,1.3.3.27.08.76.35.76.86,0,.36-.24.92-1.26.92-1.09,0-1.74-.46-2.12-.68l-.16.92Zm9.77-2.52c0,1.61.95,3.13,2.32,3.13.89,0,1.54-.41,2-.85v.7h1.07v-9.75h-1.03v4.33c-.47-.38-1.11-.74-1.96-.74-1.34,0-2.4,1.39-2.4,3.17Zm1.05-.01c0-1.77,1.17-2.32,1.96-2.32h.03c.15,0,.58.01,1,.41.24.23.28.31.28.53v2.58c0,.42-.63,1.12-1.44,1.12-.73,0-1.82-.53-1.82-2.31Zm6.55,3h1.01v-6.01h-1.01v6.01Zm-.09-7.97h1.22v-1.2h-1.22v1.2Zm2.82,6.44c0,.62.41,1.67,1.54,1.67,1.49,0,2.23-.61,2.24-.62v.47h1.03v-4.12c-.07-1.13-.96-2.11-2.24-2.11-.85,0-1.47.22-2.12.59l.08.9c.45-.31,1.01-.69,2.03-.69.18,0,.53.01.85.41.34.41.34.86.35,1.24v.46c-1.39.01-3.75.35-3.75,1.78Zm.99-.01c0-.85,1.8-1.05,2.77-1.07v.85c0,.88-.93,1.07-1.51,1.07-.73,0-1.26-.36-1.26-.85Zm5.27,2.5c0,1.04,1.34,1.82,3,1.82s3-.78,3-1.84c0-.16-.03-.34-.07-.5-.38-1.35-2.03-1.38-2.92-1.38h-1.01c-.65,0-.76-.46-.76-.72,0-.09.01-.23.15-.5.3.19.63.41,1.23.41,1.26,0,2.16-1.05,2.16-2.2,0-.58-.18-.97-.53-1.44l.12.11c.24-.01.66-.05,1.01-.05.27,0,.53.01.8.04l-.15-.85c-.73,0-1.44.14-2.12.42l.03.03c-.45-.31-.82-.45-1.32-.45-1.11,0-2.15.89-2.15,2.2,0,.27.04.81.45,1.34h0c-.24.34-.39.7-.39,1.15s.12.72.34,1.03c-.53.31-.86.84-.86,1.39Zm.95,0c0-.39.3-.85.85-.9h.39s.85-.01.85-.01c1.46,0,2.01.38,2.01.93,0,.62-.97,1.04-2.07,1.04-.74,0-2.04-.3-2.04-1.05Zm.47-4.9c0-1.15.72-1.43,1.2-1.43.73,0,1.22.54,1.22,1.42,0,1.15-.72,1.43-1.2,1.43-.73,0-1.22-.54-1.22-1.42Zm6.06,3.94h1.01v-2.78c0-1.97,1.5-2.43,2.3-2.46v-.9c-1.43.03-2.15.95-2.36,1.28v-1.22h-.95v6.08Zm4.12-1.53c0,.62.41,1.67,1.54,1.67,1.49,0,2.23-.61,2.24-.62v.47h1.03v-4.12c-.07-1.13-.96-2.11-2.24-2.11-.85,0-1.47.22-2.12.59l.08.9c.45-.31,1.01-.69,2.03-.69.18,0,.53.01.85.41.34.41.34.86.35,1.24v.46c-1.39.01-3.75.35-3.75,1.78Zm.99-.01c0-.85,1.8-1.05,2.77-1.07v.85c0,.88-.93,1.07-1.51,1.07-.73,0-1.26-.36-1.26-.85Zm5.98,1.54h1.05v-3.24c0-1,.34-2.08,1.38-2.08,1.32,0,1.32,1.01,1.32,1.53v3.79h1.05v-3.24c0-1,.34-2.08,1.38-2.08,1.32,0,1.31,1.53,1.31,1.53v3.79h1.07v-3.89c0-.78-.04-2.25-1.85-2.25-1.23,0-1.84.82-2.04,1.09-.19-.51-.59-1.09-1.71-1.09-1.19,0-1.78.77-1.97,1.01v-.95h-.99v6.08Zm10-.46c1.01.55,1.84.61,2.3.61,1.81,0,2.2-1.12,2.2-1.86,0-.88-.62-1.44-1.17-1.69-.84-.38-2.28-.2-2.28-1.19,0-.34.2-.82,1.13-.82s1.4.24,1.94.5l.15-.89c-.74-.31-1.22-.42-1.97-.42-1.84,0-2.21,1.07-2.21,1.78,0,.95.81,1.47,1.4,1.66.42.14,1,.2,1.3.3.27.08.76.35.76.86,0,.36-.24.92-1.26.92-1.09,0-1.74-.46-2.12-.68l-.16.92Zm10.4.46h1.05v-.62c.46.42,1.01.77,1.81.77,1.34,0,2.52-1.31,2.52-3.17,0-1.62-.88-3.12-2.21-3.12-.42,0-1.3.09-2.16.78v-4.39h-1.01v9.75Zm1.05-1.8v-2.52c0-.5.74-1,1.44-1s1.82.51,1.82,2.31-1.16,2.34-1.93,2.34c-.39,0-.8-.16-1.11-.54-.18-.26-.23-.23-.23-.58Zm4.64-4.21l2.52,5.76c.05.11.07.16.07.23,0,.05-.01.12-.05.22-.58,1.4-.69,1.81-1.26,1.81-.23,0-.53-.08-.99-.23l.07.88c.32.08.73.11.99.11.62,0,1.01-.31,1.55-1.55l2.93-7.22h-1.01c-.89,2.21-1.77,4.41-1.8,5.33-.12-.77-.12-1.13-1.96-5.33h-1.07Zm11,3.02c0,1.61.95,3.13,2.32,3.13.89,0,1.54-.41,2-.85v.7h1.07v-9.75h-1.03v4.33c-.47-.38-1.11-.74-1.96-.74-1.34,0-2.4,1.39-2.4,3.17Zm1.05-.01c0-1.77,1.17-2.32,1.96-2.32h.03c.15,0,.58.01,1,.41.24.23.28.31.28.53v2.58c0,.42-.63,1.12-1.44,1.12-.73,0-1.82-.53-1.82-2.31Zm6.55,3h1.01v-2.78c0-1.97,1.5-2.43,2.3-2.46v-.9c-1.43.03-2.15.95-2.36,1.28v-1.22h-.95v6.08Zm4.12-1.53c0,.62.41,1.67,1.54,1.67,1.49,0,2.23-.61,2.24-.62v.47h1.03v-4.12c-.07-1.13-.96-2.11-2.24-2.11-.85,0-1.47.22-2.12.59l.08.9c.45-.31,1.01-.69,2.03-.69.18,0,.53.01.85.41.34.41.34.86.35,1.24v.46c-1.39.01-3.75.35-3.75,1.78Zm.99-.01c0-.85,1.8-1.05,2.77-1.07v.85c0,.88-.93,1.07-1.51,1.07-.73,0-1.26-.36-1.26-.85Zm4.71-4.47l1.86,6.01h1.07c.53-1.74,1.39-4.47,1.43-5.32.14,1,.24,1.36,1.44,5.32h1.17l1.86-6.01h-.99c-1.12,3.66-1.44,4.81-1.5,5.33-.05-.42-.12-.62-.51-2.04l-.99-3.29h-.96c-.46,1.49-1.39,4.48-1.43,5.33-.07-.51-.12-1.07-1.46-5.33h-1.01Zm10.13,6.01h1.01v-6.01h-1.01v6.01Zm-.09-7.97h1.22v-1.2h-1.22v1.2Zm3.31,7.97h1.05v-3.24c0-1,.34-2.08,1.38-2.08,1.32,0,1.32,1.01,1.32,1.53v3.79h1.05v-3.89c0-.95-.12-2.25-1.85-2.25-1.19,0-1.78.77-1.97,1.01v-.95h-.99v6.08Zm6.26.96c0,1.04,1.34,1.82,3,1.82s3-.78,3-1.84c0-.16-.03-.34-.07-.5-.38-1.35-2.03-1.38-2.92-1.38h-1.01c-.65,0-.76-.46-.76-.72,0-.09.01-.23.15-.5.3.19.63.41,1.23.41,1.26,0,2.16-1.05,2.16-2.2,0-.58-.18-.97-.53-1.44l.12.11c.24-.01.66-.05,1.01-.05.27,0,.53.01.8.04l-.15-.85c-.73,0-1.44.14-2.12.42l.03.03c-.45-.31-.82-.45-1.32-.45-1.11,0-2.15.89-2.15,2.2,0,.27.04.81.45,1.34h0c-.24.34-.39.7-.39,1.15s.12.72.34,1.03c-.53.31-.86.84-.86,1.39Zm.95,0c0-.39.3-.85.85-.9h.39s.85-.01.85-.01c1.46,0,2.01.38,2.01.93,0,.62-.97,1.04-2.07,1.04-.74,0-2.04-.3-2.04-1.05Zm.47-4.9c0-1.15.72-1.43,1.2-1.43.73,0,1.22.54,1.22,1.42,0,1.15-.72,1.43-1.2,1.43-.73,0-1.22-.54-1.22-1.42Zm9.71-1.27h1.13v3.63c0,1.49.66,1.73,1.11,1.73.61,0,1.3-.14,2-.51l-.22-.8c-.19.14-.61.45-1.19.45-.7,0-.73-.8-.73-1.17v-3.32h1.9v-.8h-1.9v-1.7h-.95v1.7h-1.16v.8Zm5.71,5.21h1.05v-3.24c0-1,.34-2.08,1.38-2.08,1.32,0,1.32,1.01,1.32,1.53v3.79h1.05v-3.89c0-.82-.05-2.25-1.85-2.25-.93,0-1.51.45-1.94.96v-4.56h-1.01v9.75Zm6.36-3.05c0,1.67,1.17,3.2,2.94,3.2.85,0,1.55-.3,2.13-.69l-.08-.89c-.59.43-1.2.74-2.05.74-1.03,0-1.94-.89-2-2.28h4.19v-.39c-.12-2.31-1.44-2.86-2.4-2.86-1.43,0-2.73,1.36-2.73,3.17Zm1.01-.66c.15-.66.69-1.67,1.71-1.67.39,0,1.4.18,1.63,1.67h-3.35Zm9.49.73c0,1.61.95,3.13,2.32,3.13.89,0,1.54-.41,2-.85v.7h1.07v-9.75h-1.03v4.33c-.47-.38-1.11-.74-1.96-.74-1.34,0-2.4,1.39-2.4,3.17Zm1.05-.01c0-1.77,1.17-2.32,1.96-2.32h.03c.15,0,.58.01,1,.41.24.23.28.31.28.53v2.58c0,.42-.63,1.12-1.44,1.12-.73,0-1.82-.53-1.82-2.31Zm5.91-.05c0,1.67,1.17,3.2,2.94,3.2.85,0,1.55-.3,2.13-.69l-.08-.89c-.59.43-1.2.74-2.05.74-1.03,0-1.94-.89-2-2.28h4.19v-.39c-.12-2.31-1.44-2.86-2.4-2.86-1.43,0-2.73,1.36-2.73,3.17Zm1.01-.66c.15-.66.69-1.67,1.71-1.67.39,0,1.4.18,1.63,1.67h-3.35Zm4.77-1.5h1.13v3.63c0,1.49.66,1.73,1.11,1.73.61,0,1.3-.14,2-.51l-.22-.8c-.19.14-.61.45-1.19.45-.7,0-.73-.8-.73-1.17v-3.32h1.9v-.8h-1.9v-1.7h-.95v1.7h-1.16v.8Zm5.22,3.69c0,.62.41,1.67,1.54,1.67,1.49,0,2.23-.61,2.24-.62v.47h1.03v-4.12c-.07-1.13-.96-2.11-2.24-2.11-.85,0-1.47.22-2.12.59l.08.9c.45-.31,1.01-.69,2.03-.69.18,0,.53.01.85.41.34.41.34.86.35,1.24v.46c-1.39.01-3.75.35-3.75,1.78Zm.99-.01c0-.85,1.8-1.05,2.77-1.07v.85c0,.88-.93,1.07-1.51,1.07-.73,0-1.26-.36-1.26-.85Zm5.99,1.54h1.01v-6.01h-1.01v6.01Zm-.09-7.97h1.22v-1.2h-1.22v1.2Zm3.32,7.97h1.01v-9.75h-1.01v9.75Zm2.5-.46c1.01.55,1.84.61,2.3.61,1.81,0,2.2-1.12,2.2-1.86,0-.88-.62-1.44-1.17-1.69-.84-.38-2.28-.2-2.28-1.19,0-.34.2-.82,1.13-.82s1.4.24,1.94.5l.15-.89c-.74-.31-1.22-.42-1.97-.42-1.84,0-2.21,1.07-2.21,1.78,0,.95.81,1.47,1.4,1.66.42.14,1,.2,1.3.3.27.08.76.35.76.86,0,.36-.24.92-1.26.92-1.09,0-1.74-.46-2.12-.68l-.16.92Zm9.71-2.52c0,1.84,1.42,3.13,2.96,3.13s2.97-1.28,2.97-3.12c0-1.69-1.24-3.25-2.97-3.25-1.59,0-2.96,1.4-2.96,3.24Zm1.05-.14c0-1.63,1.04-2.27,1.9-2.27s1.9.62,1.9,2.27-1,2.4-1.9,2.4-1.9-.7-1.9-2.4Zm5.66-2.09h1v5.21h1.01v-5.21h1.49v-.8h-1.53v-1.84c0-1.04.82-1.23,1.26-1.23s.78.11,1.09.23v-.9c-.31-.08-.65-.15-1.07-.15-1.09,0-2.27.81-2.27,2.58,0,.11.01.22.01.32v.99h-1v.8Zm8.84,3.69c0,.62.41,1.67,1.54,1.67,1.49,0,2.23-.61,2.24-.62v.47h1.03v-4.12c-.07-1.13-.96-2.11-2.24-2.11-.85,0-1.47.22-2.12.59l.08.9c.45-.31,1.01-.69,2.03-.69.18,0,.53.01.85.41.34.41.34.86.35,1.24v.46c-1.39.01-3.75.35-3.75,1.78Zm.99-.01c0-.85,1.8-1.05,2.77-1.07v.85c0,.88-.93,1.07-1.51,1.07-.73,0-1.26-.36-1.26-.85Zm4.9,1.54h1.12l1.94-2.54,2.03,2.54h1.12l-2.7-3.09h0s2.48-2.92,2.48-2.92h-1.12l-1.8,2.23h-.01l-1.86-2.23h-1.12l2.54,2.9v.03l-2.62,3.08Zm6.68-3.05c0,1.67,1.17,3.2,2.94,3.2.85,0,1.55-.3,2.13-.69l-.08-.89c-.59.43-1.2.74-2.05.74-1.03,0-1.94-.89-2-2.28h4.19v-.39c-.12-2.31-1.44-2.86-2.4-2.86-1.43,0-2.73,1.36-2.73,3.17Zm1.01-.66c.15-.66.69-1.67,1.71-1.67.39,0,1.4.18,1.63,1.67h-3.35Zm4.89,3.25c1.01.55,1.84.61,2.3.61,1.81,0,2.2-1.12,2.2-1.86,0-.88-.62-1.44-1.17-1.69-.84-.38-2.28-.2-2.28-1.19,0-.34.2-.82,1.13-.82s1.4.24,1.94.5l.15-.89c-.74-.31-1.22-.42-1.97-.42-1.84,0-2.21,1.07-2.21,1.78,0,.95.81,1.47,1.4,1.66.42.14,1,.2,1.3.3.27.08.76.35.76.86,0,.36-.24.92-1.26.92-1.09,0-1.74-.46-2.12-.68l-.16.92Zm6.1.46h1.13v-1.13h-1.13v1.13Z"/>
    <path class="cls-16" d="m325,115h85"/>
    <path class="cls-16" d="m390,140h40v60h-40v-60Z"/>
    <path class="cls-15" d="m325,125h85"/>
    <path class="cls-16" d="m410,115h85"/>
    <path class="cls-15" d="m410,125h85"/>
    <path class="cls-16" d="m495,110h40v60h-40v-60Z"/>
    <path class="cls-16" d="m325,145h65"/>
    <path class="cls-16" d="m325,165h65"/>
    <path class="cls-16" d="m325,195h65"/>
    <path class="cls-15" d="m325,175h65"/>
    <path class="cls-16" d="m430,145h65"/>
    <path class="cls-16" d="m430,165h65"/>
    <path class="cls-16" d="m535,115h65"/>
    <path class="cls-16" d="m535,135h65"/>
    <path class="cls-16" d="m15,115h85"/>
    <path class="cls-16" d="m225,115h65"/>
    <path class="cls-16" d="m80,145h40v55h-40v-55Z"/>
    <path class="cls-16" d="m15,155h65"/>
    <path class="cls-16" d="m15,195h65"/>
    <path class="cls-15" d="m15,125h85"/>
    <path class="cls-15" d="m15,165h65"/>
    <path class="cls-16" d="m100,115h85"/>
    <path class="cls-16" d="m120,155h65"/>
    <path class="cls-15" d="m100,125h85"/>
    <path class="cls-16" d="m185,110h40v50h-40v-50Z"/>
    <path class="cls-16" d="m391.63,49.22h65"/>
    <path class="cls-16" d="m491.63,44.22h65"/>
    <path class="cls-16" d="m491.63,69.22h65"/>
    <path class="cls-16" d="m-205,200v20m20-20v20M152,105"/>
    <path class="cls-4" d="m524.96,35.49v1.49c0,1.2-.22,1.47-1.2,1.51l-1.24.06v.6q2.65-.06,3.13-.06t3.13.06v-.6l-.96-.06c-.98-.06-1.2-.32-1.2-1.51v-1.49c1.18,0,1.59.02,2.15.08v-1.41l-2.15.06.02-9.01-1.59.6-5.64,9.23v.46h5.54Zm0-1.28h-4.28l4.28-7.01v7.01Z"/>
    <path class="cls-4" d="m519.7,64.69v.52c3.73,0,3.73-.06,4.44-.06s.72.06,4.56.06v-1.69c-2.29.1-3.21.02-6.9.1l3.63-3.85c1.93-2.05,2.53-3.15,2.53-4.64,0-2.29-1.55-3.71-4.09-3.71-1.43,0-2.41.4-3.39,1.39l-.34,2.71h.58l.26-.92c.32-1.16,1.04-1.65,2.37-1.65,1.71,0,2.81,1.08,2.81,2.77,0,1.49-.84,2.97-3.09,5.36l-3.39,3.61Z"/>
  </g>
</svg>