<?xml version="1.0" encoding="UTF-8"?>
<svg id="Layer_1" data-name="Layer 1" xmlns="http://www.w3.org/2000/svg" xmlns:xlink="http://www.w3.org/1999/xlink" viewBox="0 0 700 190">
  <defs>
    <style>
      .cls-1 {
        stroke-dasharray: 0 0 7.5 6;
        stroke-width: 2px;
      }

      .cls-1, .cls-2, .cls-3, .cls-4 {
        fill: none;
      }

      .cls-1, .cls-3, .cls-4 {
        stroke: #000;
      }

      .cls-5 {
        clip-path: url(#clippath-11);
      }

      .cls-6 {
        filter: url(#drop-shadow-30);
      }

      .cls-7 {
        filter: url(#drop-shadow-33);
      }

      .cls-8 {
        fill: rgba(184, 233, 134, .5);
      }

      .cls-8, .cls-9, .cls-2, .cls-10, .cls-11, .cls-12, .cls-13, .cls-14 {
        stroke-width: 0px;
      }

      .cls-15 {
        clip-path: url(#clippath-2);
      }

      .cls-16 {
        clip-path: url(#clippath-13);
      }

      .cls-17 {
        clip-path: url(#clippath-15);
      }

      .cls-18 {
        clip-path: url(#clippath-6);
      }

      .cls-19 {
        filter: url(#drop-shadow-39);
      }

      .cls-20 {
        filter: url(#drop-shadow-37);
      }

      .cls-21 {
        filter: url(#drop-shadow-34);
      }

      .cls-22 {
        clip-path: url(#clippath-7);
      }

      .cls-23 {
        filter: url(#drop-shadow-35);
      }

      .cls-24 {
        clip-path: url(#clippath-1);
      }

      .cls-25 {
        clip-path: url(#clippath-4);
      }

      .cls-26 {
        filter: url(#drop-shadow-38);
      }

      .cls-27 {
        filter: url(#drop-shadow-31);
      }

      .cls-28 {
        clip-path: url(#clippath-12);
      }

      .cls-29 {
        filter: url(#drop-shadow-32);
      }

      .cls-30 {
        clip-path: url(#clippath-9);
      }

      .cls-31 {
        clip-path: url(#clippath);
      }

      .cls-32 {
        clip-path: url(#clippath-3);
      }

      .cls-33 {
        clip-path: url(#clippath-8);
      }

      .cls-34 {
        clip-path: url(#clippath-14);
      }

      .cls-10 {
        fill: #c5bedf;
      }

      .cls-35 {
        clip-path: url(#clippath-5);
      }

      .cls-36 {
        filter: url(#drop-shadow-36);
      }

      .cls-37 {
        clip-path: url(#clippath-10);
      }

      .cls-11 {
        fill: #d4bedf;
      }

      .cls-12 {
        fill: #bfd4b4;
      }

      .cls-13 {
        fill: #fdf9c0;
      }

      .cls-14 {
        fill: #cce7cf;
      }

      .cls-4 {
        stroke-width: .73px;
      }
    </style>
    <filter id="drop-shadow-30" filterUnits="userSpaceOnUse">
      <feOffset dx="0" dy="0"/>
      <feGaussianBlur result="blur" stdDeviation="3"/>
      <feFlood flood-color="#000" flood-opacity="1"/>
      <feComposite in2="blur" operator="in"/>
      <feComposite in="SourceGraphic"/>
    </filter>
    <filter id="drop-shadow-31" filterUnits="userSpaceOnUse">
      <feOffset dx="0" dy="0"/>
      <feGaussianBlur result="blur-2" stdDeviation="3"/>
      <feFlood flood-color="#000" flood-opacity="1"/>
      <feComposite in2="blur-2" operator="in"/>
      <feComposite in="SourceGraphic"/>
    </filter>
    <filter id="drop-shadow-32" filterUnits="userSpaceOnUse">
      <feOffset dx="0" dy="0"/>
      <feGaussianBlur result="blur-3" stdDeviation="3"/>
      <feFlood flood-color="#000" flood-opacity="1"/>
      <feComposite in2="blur-3" operator="in"/>
      <feComposite in="SourceGraphic"/>
    </filter>
    <filter id="drop-shadow-33" filterUnits="userSpaceOnUse">
      <feOffset dx="0" dy="0"/>
      <feGaussianBlur result="blur-4" stdDeviation="3"/>
      <feFlood flood-color="#000" flood-opacity="1"/>
      <feComposite in2="blur-4" operator="in"/>
      <feComposite in="SourceGraphic"/>
    </filter>
    <filter id="drop-shadow-34" filterUnits="userSpaceOnUse">
      <feOffset dx="0" dy="0"/>
      <feGaussianBlur result="blur-5" stdDeviation="3"/>
      <feFlood flood-color="#000" flood-opacity="1"/>
      <feComposite in2="blur-5" operator="in"/>
      <feComposite in="SourceGraphic"/>
    </filter>
    <filter id="drop-shadow-35" filterUnits="userSpaceOnUse">
      <feOffset dx="0" dy="0"/>
      <feGaussianBlur result="blur-6" stdDeviation="3"/>
      <feFlood flood-color="#000" flood-opacity="1"/>
      <feComposite in2="blur-6" operator="in"/>
      <feComposite in="SourceGraphic"/>
    </filter>
    <filter id="drop-shadow-36" filterUnits="userSpaceOnUse">
      <feOffset dx="0" dy="0"/>
      <feGaussianBlur result="blur-7" stdDeviation="3"/>
      <feFlood flood-color="#000" flood-opacity="1"/>
      <feComposite in2="blur-7" operator="in"/>
      <feComposite in="SourceGraphic"/>
    </filter>
    <filter id="drop-shadow-37" filterUnits="userSpaceOnUse">
      <feOffset dx="0" dy="0"/>
      <feGaussianBlur result="blur-8" stdDeviation="3"/>
      <feFlood flood-color="#000" flood-opacity="1"/>
      <feComposite in2="blur-8" operator="in"/>
      <feComposite in="SourceGraphic"/>
    </filter>
    <filter id="drop-shadow-38" filterUnits="userSpaceOnUse">
      <feOffset dx="0" dy="0"/>
      <feGaussianBlur result="blur-9" stdDeviation="3"/>
      <feFlood flood-color="#000" flood-opacity="1"/>
      <feComposite in2="blur-9" operator="in"/>
      <feComposite in="SourceGraphic"/>
    </filter>
    <filter id="drop-shadow-39" filterUnits="userSpaceOnUse">
      <feOffset dx="0" dy="0"/>
      <feGaussianBlur result="blur-10" stdDeviation="3"/>
      <feFlood flood-color="#000" flood-opacity="1"/>
      <feComposite in2="blur-10" operator="in"/>
      <feComposite in="SourceGraphic"/>
    </filter>
    <clipPath id="clippath">
      <rect class="cls-2" x="349.94" y="28.2" width="9" height="6.5"/>
    </clipPath>
    <clipPath id="clippath-1">
      <rect class="cls-2" x="349.94" y="28.2" width="17.5" height="20.9"/>
    </clipPath>
    <clipPath id="clippath-2">
      <rect class="cls-2" x="349.94" y="83.21" width="9" height="6.5"/>
    </clipPath>
    <clipPath id="clippath-3">
      <rect class="cls-2" x="349.94" y="83.21" width="17.5" height="20.9"/>
    </clipPath>
    <clipPath id="clippath-4">
      <rect class="cls-2" x="349.94" y="133.2" width="9" height="6.5"/>
    </clipPath>
    <clipPath id="clippath-5">
      <rect class="cls-2" x="349.94" y="133.2" width="17.5" height="20.9"/>
    </clipPath>
    <clipPath id="clippath-6">
      <rect class="cls-2" x="659.94" y="133.2" width="9" height="6.5"/>
    </clipPath>
    <clipPath id="clippath-7">
      <rect class="cls-2" x="659.94" y="133.2" width="17.5" height="20.9"/>
    </clipPath>
    <clipPath id="clippath-8">
      <rect class="cls-2" x="484.94" y="28.2" width="9" height="6.5"/>
    </clipPath>
    <clipPath id="clippath-9">
      <rect class="cls-2" x="484.94" y="28.2" width="17.5" height="20.9"/>
    </clipPath>
    <clipPath id="clippath-10">
      <rect class="cls-2" x="484.94" y="103.2" width="9" height="6.5"/>
    </clipPath>
    <clipPath id="clippath-11">
      <rect class="cls-2" x="484.94" y="103.2" width="17.5" height="20.9"/>
    </clipPath>
    <clipPath id="clippath-12">
      <rect class="cls-2" x="569.94" y="133.2" width="9" height="6.5"/>
    </clipPath>
    <clipPath id="clippath-13">
      <rect class="cls-2" x="569.94" y="133.2" width="17.5" height="20.9"/>
    </clipPath>
    <clipPath id="clippath-14">
      <rect class="cls-2" x="569.94" y="103.2" width="9" height="6.5"/>
    </clipPath>
    <clipPath id="clippath-15">
      <rect class="cls-2" x="569.94" y="103.2" width="17.5" height="20.9"/>
    </clipPath>
  </defs>
  <g>
    <g class="cls-6">
      <polygon class="cls-11" points="617.87 101.97 617.87 161.96 567.87 161.96 567.87 101.97 617.87 101.97"/>
    </g>
    <g class="cls-27">
      <polygon class="cls-14" points="552.87 141.97 502.87 141.97 502.87 81.97 552.87 81.97 552.87 141.97"/>
    </g>
    <g class="cls-29">
      <polygon class="cls-13" points="482.87 106.97 442.87 106.97 442.87 61.97 482.87 61.97 482.87 106.97"/>
    </g>
    <path class="cls-3" d="m332.87,46.97h200"/>
    <g class="cls-7">
      <polygon class="cls-10" points="437.87 61.97 437.87 106.97 387.87 106.97 387.87 61.97 437.87 61.97"/>
    </g>
    <g class="cls-21">
      <polygon class="cls-12" points="402.87 96.97 402.87 126.97 372.87 126.97 372.87 96.97 402.87 96.97"/>
    </g>
    <g class="cls-23">
      <polygon class="cls-11" points="292.87 96.97 292.87 116.97 247.87 116.97 247.87 96.97 292.87 96.97"/>
    </g>
    <g class="cls-36">
      <polygon class="cls-14" points="211.87 96.97 211.87 116.97 156.87 116.97 156.87 96.97 211.87 96.97"/>
    </g>
    <g>
      <path class="cls-3" d="m417.87,86.98h57"/>
      <path class="cls-9" d="m467.15,92.12l10.72-5.15-10.72-5.15,3.6,5.15-3.6,5.15Z"/>
    </g>
    <path class="cls-3" d="m332.87,71.97h70"/>
    <path class="cls-3" d="m332.87,101.97h40"/>
    <path class="cls-3" d="m332.87,121.97h40"/>
    <path class="cls-1" d="m317.87,81.97h86.5"/>
    <path class="cls-3" d="m332.87,151.97h250"/>
    <g>
      <path class="cls-2" d="m402.87,101.98h0c8.28,0,15-6.71,15-15s-6.72-15-15-15h0v30Z"/>
      <path class="cls-3" d="m402.87,101.98h0c8.28,0,15-6.71,15-15s-6.72-15-15-15h0"/>
    </g>
    <path class="cls-3" d="m372.87,101.98c18.27.77,10.93,19.44,30,20"/>
    <path class="cls-3" d="m372.87,121.98c18.27.77,10.93-20.56,30-20"/>
    <path class="cls-3" d="m402.87,121.98h110"/>
    <g>
      <path class="cls-2" d="m582.87,151.97h0c8.28,0,15-6.72,15-15s-6.72-15-15-15h0v30Z"/>
      <path class="cls-3" d="m582.87,151.97h0c8.28,0,15-6.72,15-15s-6.72-15-15-15h0"/>
    </g>
    <path class="cls-3" d="m532.87,121.97h50"/>
    <path class="cls-3" d="m512.87,121.97l20-14.06v28.12l-20-14.06Z"/>
    <g>
      <path class="cls-3" d="m597.87,136.97h12"/>
      <path class="cls-9" d="m602.15,142.12l10.72-5.15-10.72-5.15,3.6,5.15-3.6,5.15Z"/>
    </g>
    <path class="cls-1" d="m317.87,131.97h85l15,15h160"/>
    <g class="cls-20">
      <polygon class="cls-10" points="257.87 81.97 257.87 106.97 221.87 106.97 221.87 81.97 257.87 81.97"/>
    </g>
    <g class="cls-26">
      <polygon class="cls-13" points="256.87 136.97 221.87 136.97 221.87 111.97 256.87 111.97 256.87 136.97"/>
    </g>
    <g class="cls-19">
      <polygon class="cls-8" points="257.87 81.97 257.87 96.97 247.87 96.97 247.87 81.97 257.87 81.97"/>
    </g>
    <path class="cls-3" d="m662.87,151.97h25"/>
    <path class="cls-3" d="m532.87,46.97c112.8.13,88.5,104.61,130,105"/>
    <path class="cls-3" d="m332.87,171.97h355"/>
  </g>
  <g>
    <path class="cls-9" d="m350.32,46.76c-.02.12-.02.22-.02.31,0,.73.63,1.33,1.39,1.33,1.8,0,3.67-2.11,4.68-5.25l2.4-7.48-.19-.15c-.49.19-.88.29-1.26.32l-.6,2.24c-.2.8-.8,2.04-1.36,2.87-.6.87-1.43,1.62-1.8,1.62-.2,0-.36-.39-.34-.82l.27-3.52c.03-.53.07-1.17.07-1.65,0-.77-.12-1.07-.41-1.07-.22,0-.46.12-1.28.68l-1.39.95.19.31.85-.51c.09-.05.27-.2.43-.2.24,0,.37.32.37.88,0,.02,0,.12-.02.26l-.29,4.13-.02.68c0,.71.31,1.21.73,1.21.63,0,2.06-1.45,3.33-3.37l-.83,2.91c-.87,3.01-1.72,4.25-2.91,4.25-.6,0-1.05-.46-1.05-1.05,0-.09.02-.22.03-.37l-.17-.07-.82.58Z"/>
    <g class="cls-31">
      <g class="cls-24">
        <path class="cls-9" d="m335.53,32.27h46.82v-1.02h-46.82v1.02Z"/>
      </g>
    </g>
  </g>
  <path class="cls-9" d="m315.29,69.66c0-1.88.59-2.77,1.88-2.77.71,0,1.4.2,2.35.71l3.55,1.86c1.47.76,1.91.91,2.89.91,1.84,0,2.72-1.05,2.96-3.43h-.61c-.15,1.32-.69,1.93-1.66,1.93-.42,0-.88-.12-1.52-.37l-5.78-2.35c-.61-.24-1.05-.34-1.62-.34-1.81,0-3.06,1.25-3.06,3.11,0,.05,0,.22.02.42l.59.32Zm14.61-14.61c0-4.36-2.55-6.88-6.95-6.88-5.8,0-10.06,4.48-10.06,10.62,0,4.63,2.3,7.1,6.61,7.1,6.66,0,10.4-5.51,10.4-10.84Zm-2.15.39c0,4.6-2.18,9.42-7.34,9.42-3.53,0-5.36-2.11-5.36-6.19,0-3.62,1.42-9.47,7.15-9.47,2.84,0,5.56,1.32,5.56,6.24Z"/>
  <path class="cls-9" d="m353.68,56.42l-.2-.19c-.88.44-1.5.6-2.72.71l-.07.36h.82c.41,0,.58.12.58.41,0,.14-.02.29-.03.41l-.82,4.56c-.24,1.28-.51,2.45-1.39,6l.15.17,1.14-.29.39-2.11c.15-.82.56-1.58,1.14-2.16,1.17,3.4,1.72,4.56,2.14,4.56.22,0,.63-.22,1.38-.75l.78-.54-.14-.32-.73.41c-.24.14-.36.17-.49.17-.17,0-.29-.1-.44-.39-.6-1.09-.97-2.01-1.63-4.1l.24-.24c1.04-1.04,1.82-1.46,2.67-1.46.14,0,.32.03.61.1l.29-1.07c-.31-.1-.61-.15-.82-.15-1.12,0-2.53,1.31-4.66,4.28l1.82-8.36Z"/>
  <path class="cls-9" d="m323.68,99.2l.07-.69h-.59l-2.2.07c-.39,0-.83,0-1.88-.02l-1.57-.05-.07.69,1.15.05c.59.02.86.22.86.66,0,.34-.07,1.05-.22,1.86l-1.79,10.62c-.42,2.25-.44,2.28-1.42,2.37l-1,.07-.1.69,1.03-.02c1.18-.02,1.74-.05,2.2-.05l2.37.07h.64l.07-.69-1.2-.07c-.66-.05-.88-.22-.88-.71,0-.15.02-.42.05-.51l1.05-6.41c3.67,4.19,4.24,4.9,6.81,8.4l1.69-.07c.88.02,1.03.05,1.66.07v-.73h-.49c-.56,0-1.05-.29-1.57-.93l-6.02-7.39,7.15-6.68c.39-.37.91-.61,1.32-.61h.51v-.66l-.56.02c-.51.02-.91.05-1.1.05-.24,0-.64-.02-1.15-.05l-.49-.02v.71c0,.2-.24.51-.93,1.2-1.08,1.1-5.21,5.17-6.78,6.39l1.1-6.36c.17-.93.34-1.1,1.25-1.18l1.03-.07Z"/>
  <path class="cls-9" d="m353.68,106.43l-.2-.19c-.88.44-1.5.6-2.72.71l-.07.36h.82c.41,0,.58.12.58.41,0,.14-.02.29-.03.41l-.82,4.56c-.24,1.28-.51,2.45-1.39,6l.15.17,1.14-.29.39-2.11c.15-.82.56-1.58,1.14-2.16,1.17,3.4,1.72,4.56,2.14,4.56.22,0,.63-.22,1.38-.75l.78-.54-.14-.32-.73.41c-.24.14-.36.17-.49.17-.17,0-.29-.1-.44-.39-.6-1.09-.97-2.01-1.63-4.1l.24-.24c1.04-1.04,1.82-1.46,2.67-1.46.14,0,.32.03.61.1l.29-1.07c-.31-.1-.61-.15-.82-.15-1.12,0-2.53,1.31-4.66,4.28l1.82-8.36Z"/>
  <path class="cls-9" d="m322.19,164.1l-1.74-12.93c-.05-.54.05-.91,1.03-.93l1.03-.05v-.69l-1,.02c-.91.02-1.59.05-2.03.05s-1.13-.02-2.03-.05l-1-.02v.69l.61.05c1.08.07,1.27.27,1.44,1.18l2.15,15.23h1.2l9.25-15.15c.61-.98.81-1.15,1.52-1.25l.44-.05v-.69l-.73.02c-.66.02-1.22.05-1.62.05-.24,0-.91-.02-1.91-.05l-1.13-.02v.69l.64.05c.93.07,1.4.32,1.4.78,0,.27-.1.54-.39,1.03l-7.12,12.04Z"/>
  <path class="cls-9" d="m663.68,156.42l-.2-.19c-.88.44-1.5.6-2.72.71l-.07.36h.82c.41,0,.58.12.58.41,0,.14-.02.29-.03.41l-.82,4.56c-.24,1.28-.51,2.45-1.39,6l.15.17,1.14-.29.39-2.11c.15-.82.56-1.58,1.14-2.16,1.17,3.4,1.72,4.56,2.14,4.56.22,0,.63-.22,1.38-.75l.78-.54-.14-.32-.73.41c-.24.14-.36.17-.49.17-.17,0-.29-.1-.44-.39-.6-1.09-.97-2.01-1.63-4.1l.24-.24c1.04-1.04,1.82-1.46,2.67-1.46.14,0,.32.03.61.1l.29-1.07c-.31-.1-.61-.15-.82-.15-1.12,0-2.53,1.31-4.66,4.28l1.82-8.36Z"/>
  <g>
    <path class="cls-9" d="m350.59,98.69c.26.14.53.2.73.2.56,0,1.22-.49,1.75-1.29l1.29-1.99.19,1.17c.22,1.45.61,2.11,1.22,2.11.37,0,.92-.29,1.46-.78l.83-.75-.15-.32c-.61.51-1.04.77-1.31.77-.26,0-.48-.17-.65-.51-.15-.32-.34-.95-.43-1.45l-.31-1.72.6-.83c.8-1.11,1.26-1.5,1.79-1.5.27,0,.48.14.56.39l.24-.07.26-1.45c-.2-.12-.36-.17-.51-.17-.68,0-1.36.61-2.41,2.18l-.63.94-.1-.82c-.2-1.68-.66-2.3-1.67-2.3-.44,0-.82.14-.97.36l-.99,1.41.29.17c.51-.58.85-.82,1.17-.82.56,0,.94.7,1.22,2.36l.19,1.05-.68,1.05c-.73,1.14-1.31,1.68-1.79,1.68-.26,0-.44-.07-.48-.15l-.19-.48-.34.05c0,.6-.14,1.04-.2,1.48Z"/>
    <g class="cls-15">
      <g class="cls-32">
        <path class="cls-9" d="m335.53,87.28h46.82v-1.02h-46.82v1.02Z"/>
      </g>
    </g>
  </g>
  <g>
    <path class="cls-9" d="m350.59,148.68c.26.14.53.2.73.2.56,0,1.22-.49,1.75-1.29l1.29-1.99.19,1.17c.22,1.45.61,2.11,1.22,2.11.37,0,.92-.29,1.46-.78l.83-.75-.15-.32c-.61.51-1.04.77-1.31.77-.26,0-.48-.17-.65-.51-.15-.32-.34-.95-.43-1.45l-.31-1.72.6-.83c.8-1.11,1.26-1.5,1.79-1.5.27,0,.48.14.56.39l.24-.07.26-1.45c-.2-.12-.36-.17-.51-.17-.68,0-1.36.61-2.41,2.18l-.63.94-.1-.82c-.2-1.68-.66-2.3-1.67-2.3-.44,0-.82.14-.97.36l-.99,1.41.29.17c.51-.58.85-.82,1.17-.82.56,0,.94.7,1.22,2.36l.19,1.05-.68,1.05c-.73,1.14-1.31,1.68-1.79,1.68-.26,0-.44-.07-.48-.15l-.19-.48-.34.05c0,.6-.14,1.04-.2,1.48Z"/>
    <g class="cls-25">
      <g class="cls-35">
        <path class="cls-9" d="m335.53,137.27h46.82v-1.02h-46.82v1.02Z"/>
      </g>
    </g>
  </g>
  <path class="cls-9" d="m353.68,156.43l-.2-.19c-.88.44-1.5.6-2.72.71l-.07.36h.82c.41,0,.58.12.58.41,0,.14-.02.29-.03.41l-.82,4.56c-.24,1.28-.51,2.45-1.39,6l.15.17,1.14-.29.39-2.11c.15-.82.56-1.58,1.14-2.16,1.17,3.4,1.72,4.56,2.14,4.56.22,0,.63-.22,1.38-.75l.78-.54-.14-.32-.73.41c-.24.14-.36.17-.49.17-.17,0-.29-.1-.44-.39-.6-1.09-.97-2.01-1.63-4.1l.24-.24c1.04-1.04,1.82-1.46,2.67-1.46.14,0,.32.03.61.1l.29-1.07c-.31-.1-.61-.15-.82-.15-1.12,0-2.53,1.31-4.66,4.28l1.82-8.36Z"/>
  <g>
    <path class="cls-9" d="m445.17,79.34l-2,.83-.08.14.55.78h.15l1.62-1.35.28,2.17.15.06,1.04-.4v-.15l-1.04-1.87,2.11.31.14-.12v-.95l-.09-.06-2.13.37,1.06-1.91-.05-.23-.95-.29-.14.06-.4,2.19-1.45-1.5h-.15l-.67.8.05.15,2,.98Zm10.85-6.96l-.18-.17c-.8.4-1.35.54-2.45.64l-.06.32h.73c.37,0,.52.11.52.37,0,.12-.02.26-.03.37l-.73,4.1c-.21,1.15-.46,2.2-1.25,5.4l.14.15,1.03-.26.35-1.9c.14-.73.5-1.42,1.03-1.94,1.06,3.06,1.55,4.1,1.93,4.1.2,0,.57-.2,1.24-.67l.7-.49-.12-.29-.66.37c-.21.12-.32.15-.44.15-.15,0-.26-.09-.4-.35-.54-.98-.87-1.81-1.47-3.69l.21-.21c.93-.93,1.64-1.32,2.4-1.32.12,0,.29.03.55.09l.26-.96c-.28-.09-.55-.14-.73-.14-1.01,0-2.28,1.18-4.19,3.86l1.64-7.53Z"/>
    <path class="cls-9" d="m466.32,74.08v-.6h-5.4v.6h5.4Zm5.01,2.63v-.32l-.56-.03c-.59-.03-.7-.15-.7-.71v-6.47l-2.58,1.09.07.54,1.61-.71v5.55c0,.56-.12.67-.7.71l-.6.03v.32q1.65-.03,1.77-.03c.33,0,1.51.03,1.68.03Zm4.05-7.68h-.59l-2.99,9.46h.59l2.99-9.46Zm.05,7.4v.28c2,0,2-.03,2.39-.03s.39.03,2.45.03v-.91c-1.23.05-1.72.01-3.71.05l1.95-2.07c1.04-1.1,1.36-1.69,1.36-2.5,0-1.23-.84-1.99-2.2-1.99-.77,0-1.3.21-1.82.75l-.18,1.46h.31l.14-.49c.17-.62.56-.89,1.27-.89.92,0,1.51.58,1.51,1.49,0,.8-.45,1.6-1.66,2.88l-1.82,1.94Z"/>
  </g>
  <g>
    <path class="cls-9" d="m10.08,111.85c.34-.01.99-.04,1.53-.04.46,0,1.24.03,1.72.04v-.46c-.75,0-1.12-.37-1.12-.76,0-.04.01-.19.03-.22l.69-1.96h3.7l.79,2.29c.01.06.04.15.04.21,0,.45-.84.45-1.24.45v.46c.54-.04,1.59-.04,2.16-.04.64,0,1.33.01,1.96.04v-.46h-.27c-.9,0-1.11-.1-1.27-.6l-3.24-9.37c-.07-.19-.1-.3-.34-.3s-.28.09-.36.3l-3.1,8.97c-.27.76-.87.99-1.68,1v.46Zm3.01-3.88l1.68-4.87,1.69,4.87h-3.37Zm7.62-2.11h1.27v4.14c0,1.84,1.39,2.02,1.93,2.02,1.06,0,1.48-1.06,1.48-2.02v-.85h-.37v.82c0,1.11-.45,1.68-1,1.68-1,0-1-1.36-1-1.62v-4.17h2.14v-.46h-2.14v-2.76h-.37c-.01,1.23-.46,2.83-1.93,2.89v.33Zm5.82,0h1.27v4.14c0,1.84,1.39,2.02,1.93,2.02,1.06,0,1.48-1.06,1.48-2.02v-.85h-.37v.82c0,1.11-.45,1.68-1,1.68-1,0-1-1.36-1-1.62v-4.17h2.14v-.46h-2.14v-2.76h-.37c-.01,1.23-.46,2.83-1.93,2.89v.33Zm5.95,2.7c0,2.01,1.57,3.46,3.3,3.46,1.83,0,2.5-1.66,2.5-1.95,0-.15-.12-.18-.19-.18-.13,0-.16.09-.19.21-.52,1.54-1.87,1.54-2.02,1.54-.75,0-1.35-.45-1.69-1-.45-.72-.45-1.71-.45-2.25h4.18c.33,0,.37,0,.37-.31,0-1.48-.81-2.94-2.68-2.94-1.74,0-3.12,1.54-3.12,3.42Zm1.26-.48c.09-2.23,1.35-2.61,1.86-2.61,1.54,0,1.69,2.02,1.69,2.61h-3.55Zm5.46,3.78c.52-.01,1.29-.04,1.69-.04s1.17.03,1.68.04v-.46c-1,0-1.17,0-1.17-.67v-2.76c0-1.56,1.06-2.4,2.02-2.4s1.11.81,1.11,1.66v3.49c0,.67-.16.67-1.17.67v.46c.52-.01,1.29-.04,1.69-.04s1.17.03,1.68.04v-.46c-.78,0-1.15,0-1.17-.45v-2.86c0-1.29,0-1.75-.46-2.29-.21-.25-.7-.55-1.57-.55-1.09,0-1.8.64-2.22,1.57v-1.57l-2.11.16v.46c1.05,0,1.17.1,1.17.84v4.02c0,.67-.16.67-1.17.67v.46Zm7.71-6h1.27v4.14c0,1.84,1.39,2.02,1.93,2.02,1.06,0,1.48-1.06,1.48-2.02v-.85h-.37v.82c0,1.11-.45,1.68-1,1.68-1,0-1-1.36-1-1.62v-4.17h2.14v-.46h-2.14v-2.76h-.37c-.01,1.23-.46,2.83-1.93,2.89v.33Zm6.66-3.24c0,.4.33.79.79.79.42,0,.79-.31.79-.79s-.37-.79-.79-.79c-.46,0-.79.4-.79.79Zm-.63,9.24c.48-.01,1.29-.04,1.65-.04.52,0,1.05.03,1.56.04v-.46c-.99,0-1.05-.07-1.05-.66v-5.5l-2.1.16v.46c.97,0,1.11.09,1.11.82v4.03c0,.67-.16.67-1.17.67v.46Zm4.08-3.21c0,1.93,1.56,3.37,3.31,3.37s3.33-1.47,3.33-3.37-1.5-3.51-3.31-3.51-3.33,1.63-3.33,3.51Zm1.24-.12c0-.58,0-1.39.36-2.05.4-.69,1.11-1,1.71-1,.66,0,1.3.33,1.69.97s.39,1.51.39,2.08c0,.54,0,1.35-.33,2.01-.33.67-.99,1.11-1.74,1.11-.64,0-1.3-.31-1.71-1-.37-.66-.37-1.57-.37-2.11Zm6.31,3.33c.52-.01,1.29-.04,1.69-.04s1.17.03,1.68.04v-.46c-1,0-1.17,0-1.17-.67v-2.76c0-1.56,1.06-2.4,2.02-2.4s1.11.81,1.11,1.66v3.49c0,.67-.16.67-1.17.67v.46c.52-.01,1.29-.04,1.69-.04s1.17.03,1.68.04v-.46c-.78,0-1.15,0-1.17-.45v-2.86c0-1.29,0-1.75-.46-2.29-.21-.25-.7-.55-1.57-.55-1.09,0-1.8.64-2.22,1.57v-1.57l-2.11.16v.46c1.05,0,1.17.1,1.17.84v4.02c0,.67-.16.67-1.17.67v.46Z"/>
    <path class="cls-9" d="m74.91,107.87c0-4.42,1.65-6.22,2.64-7.38l-.32-.44c-.97.87-3.77,3.13-3.77,7.82,0,1.82.43,3.54,1.24,5.07.6,1.14,1.14,1.8,2.53,3.11l.32-.36c-.78-.97-2.64-3.04-2.64-7.82Z"/>
    <path class="cls-9" d="m80.64,115.31c0-1.31.41-1.92,1.31-1.92.49,0,.97.14,1.63.49l2.47,1.29c1.02.53,1.33.63,2.01.63,1.28,0,1.89-.73,2.06-2.38h-.43c-.1.92-.48,1.34-1.16,1.34-.29,0-.61-.09-1.05-.26l-4.01-1.63c-.43-.17-.73-.24-1.12-.24-1.26,0-2.13.87-2.13,2.16,0,.03,0,.15.02.29l.41.22Zm10.15-10.15c0-3.03-1.77-4.78-4.83-4.78-4.03,0-6.99,3.11-6.99,7.38,0,3.21,1.6,4.93,4.59,4.93,4.62,0,7.23-3.83,7.23-7.53Zm-1.5.27c0,3.2-1.51,6.55-5.1,6.55-2.45,0-3.72-1.46-3.72-4.3,0-2.52.99-6.58,4.96-6.58,1.97,0,3.86.92,3.86,4.34Z"/>
    <path class="cls-9" d="m94.76,110.3c-.46.15-.77.26-1.67.51-.12,1.29-.54,2.4-1.53,4.03l.24.19.7-.32c1.38-1.79,2.02-2.86,2.5-4.17l-.24-.24Z"/>
    <path class="cls-9" d="m105.23,101.1l.05-.48h-.41l-1.53.05c-.27,0-.58,0-1.31-.02l-1.09-.03-.05.48.8.03c.41.02.6.15.6.46,0,.24-.05.73-.15,1.29l-1.24,7.38c-.29,1.56-.31,1.58-.99,1.65l-.7.05-.07.48.71-.02c.82-.02,1.21-.03,1.53-.03l1.65.05h.44l.05-.48-.83-.05c-.46-.03-.61-.15-.61-.49,0-.1.02-.29.03-.36l.73-4.45c2.55,2.91,2.94,3.4,4.73,5.83l1.17-.05c.61.02.71.03,1.16.05v-.51h-.34c-.39,0-.73-.2-1.09-.65l-4.18-5.13,4.96-4.64c.27-.26.63-.43.92-.43h.36v-.46l-.39.02c-.36.02-.63.03-.77.03-.17,0-.44-.02-.8-.03l-.34-.02v.49c0,.14-.17.36-.65.83-.75.77-3.62,3.59-4.71,4.44l.77-4.42c.12-.65.24-.77.87-.82l.71-.05Z"/>
    <path class="cls-9" d="m113.72,110.3c-.46.15-.77.26-1.67.51-.12,1.29-.54,2.4-1.53,4.03l.24.19.7-.32c1.38-1.79,2.02-2.86,2.5-4.17l-.24-.24Z"/>
    <path class="cls-9" d="m123.16,110.76l-1.21-8.98c-.03-.37.03-.63.71-.65l.71-.03v-.48l-.7.02c-.63.02-1.11.03-1.41.03s-.78-.02-1.41-.03l-.7-.02v.48l.43.03c.75.05.88.19,1,.82l1.5,10.57h.83l6.43-10.52c.43-.68.56-.8,1.05-.87l.31-.03v-.48l-.51.02c-.46.02-.85.03-1.12.03-.17,0-.63-.02-1.33-.03l-.78-.02v.48l.44.03c.65.05.97.22.97.54,0,.19-.07.37-.27.71l-4.95,8.36Z"/>
    <path class="cls-9" d="m131.02,100.05l-.32.44c.94,1.09,2.64,2.96,2.64,7.38,0,4.69-1.77,6.75-2.64,7.82l.32.36c.9-.85,3.77-3.26,3.77-8.16s-2.81-6.97-3.77-7.84Z"/>
    <path class="cls-9" d="m151.16,106.49v-1h-9.16v1h9.16Zm0,3.62v-1h-9.16v1h9.16Z"/>
    <path class="cls-9" d="m158.19,111.82c0,.25,0,.36.16.36.1,0,.12-.03.22-.19,0-.01.04-.06.54-.85.46.51,1.42,1.05,2.76,1.05,1.75,0,2.95-1.47,2.95-3.12,0-1.5-.99-2.73-2.25-3.03l-1.92-.46c-.93-.22-1.51-1.03-1.51-1.9,0-1.05.81-1.96,1.98-1.96,2.5,0,2.83,2.46,2.92,3.13.01.09.01.18.18.18.19,0,.19-.07.19-.36v-3.01c0-.25,0-.36-.16-.36-.1,0-.12.01-.22.19l-.52.85c-.45-.43-1.06-1.05-2.4-1.05-1.66,0-2.92,1.32-2.92,2.91,0,1.24.79,2.34,1.96,2.74.16.06.93.24,1.98.49.4.1.85.21,1.27.76.31.39.46.88.46,1.38,0,1.06-.75,2.14-2.01,2.14-.43,0-1.57-.07-2.37-.81-.87-.81-.91-1.77-.93-2.31-.01-.15-.13-.15-.18-.15-.19,0-.19.1-.19.37v3Zm7.9-3.18c0,1.93,1.56,3.37,3.31,3.37s3.33-1.47,3.33-3.37-1.5-3.51-3.31-3.51-3.33,1.63-3.33,3.51Zm1.24-.12c0-.58,0-1.39.36-2.05.4-.69,1.11-1,1.71-1,.66,0,1.3.33,1.69.97s.39,1.51.39,2.08c0,.54,0,1.35-.33,2.01-.33.67-.99,1.11-1.74,1.11-.64,0-1.3-.31-1.71-1-.37-.66-.37-1.57-.37-2.11Zm6.33-2.67h1.18v4.86c0,.67-.16.67-1.17.67v.46c.58-.01,1.29-.04,1.71-.04.6,0,1.3,0,1.9.04v-.46h-.31c-1.11,0-1.14-.16-1.14-.7v-4.83h1.71v-.46h-1.75v-1.74c0-1.32.72-2.04,1.38-2.04.04,0,.27,0,.49.1-.18.06-.45.25-.45.63,0,.34.24.64.64.64.43,0,.66-.3.66-.66,0-.55-.55-1.05-1.35-1.05-1.05,0-2.32.79-2.32,2.38v1.72h-1.18v.46Zm4.36,0h1.27v4.14c0,1.84,1.39,2.02,1.93,2.02,1.06,0,1.48-1.06,1.48-2.02v-.85h-.37v.82c0,1.11-.45,1.68-1,1.68-1,0-1-1.36-1-1.62v-4.17h2.14v-.46h-2.14v-2.76h-.37c-.01,1.23-.46,2.83-1.93,2.89v.33Zm6.09,6c.52-.01,1.26-.04,1.75-.04s1.23.03,1.75.04v-.46c-1.54,0-1.54-.7-1.54-1.11v-8.08h.01l3.61,9.33c.07.19.15.33.3.33.16,0,.21-.12.27-.28l3.69-9.49h.01v8.61c0,.54-.03.7-1.18.7h-.36v.46c.55-.04,1.57-.04,2.16-.04s1.59,0,2.14.04v-.46h-.36c-1.15,0-1.18-.16-1.18-.7v-7.9c0-.54.03-.7,1.18-.7h.36v-.46h-2.53c-.39,0-.39.01-.49.28l-3.28,8.44-3.25-8.4c-.13-.33-.18-.33-.52-.33h-2.53v.46h.36c1.15,0,1.18.16,1.18.7v7.5c0,.4,0,1.11-1.54,1.11v.46Zm13.81-1.42c0,1.21,1.45,1.59,2.4,1.59s1.68-.6,1.96-1.3c.06.6.46,1.23,1.17,1.23.31,0,1.23-.21,1.23-1.42v-.84h-.37v.84c0,.87-.37.96-.54.96-.49,0-.55-.67-.55-.75v-3c0-.63,0-1.21-.54-1.77-.58-.58-1.33-.82-2.05-.82-1.23,0-2.26.7-2.26,1.69,0,.45.3.7.69.7.42,0,.69-.3.69-.69,0-.18-.07-.67-.76-.69.4-.52,1.14-.69,1.62-.69.73,0,1.59.58,1.59,1.92v.55c-.76.04-1.81.09-2.76.54-1.12.51-1.5,1.29-1.5,1.95Zm1.15-.01c0-.82.63-2.07,3.1-2.16v1.5c0,1.42-1.08,1.93-1.75,1.93-.73,0-1.35-.52-1.35-1.27Zm5.89,1.44c.39-.03.85-.04,1.24-.04.43,0,1.06.03,1.42.04v-.46c-.33-.04-.43-.24-.43-.46,0-.33.43-.82,1.35-1.9l1.14,1.5c.12.16.31.4.31.49,0,.13-.13.36-.54.37v.46c.45-.01,1.29-.04,1.62-.04.4,0,.99.01,1.44.04v-.46c-.81,0-1.08-.03-1.42-.46l-2.01-2.59c.45-.57,1.02-1.3,1.38-1.69.46-.54,1.08-.76,1.78-.78v-.46c-.39.03-.84.04-1.23.04-.45,0-1.24-.03-1.44-.04v.46c.31.03.43.22.43.46s-.15.43-.22.52l-.93,1.17-1.17-1.51c-.13-.15-.13-.18-.13-.27,0-.22.22-.36.52-.37v-.46c-.39.01-1.38.04-1.62.04-.31,0-1.02-.01-1.42-.04v.46c1.05,0,1.06.01,1.77.91l1.48,1.93-1.41,1.78c-.72.87-1.6.9-1.92.9v.46Z"/>
    <g>
      <path class="cls-9" d="m220.15,82.09c0-.06-.04-.08-.08-.08-.03,0-.06,0-.08.02-2.55,1.34-4.65,3.73-4.65,9.4v.6h1.53v-.6c0-3.23.64-7.03,3.31-9.06.12-.09.13-.19.13-.28h-.16Zm-4.83,9.94v36.72h1.53v-36.72h-1.53Z"/>
      <path class="cls-9" d="m220.15,138.69c0,.06-.04.08-.08.08-.03,0-.06,0-.08-.02-2.55-1.34-4.65-3.73-4.65-9.4v-.6h1.53v.6c0,3.23.64,7.03,3.31,9.06.12.09.13.19.13.28h-.16Z"/>
    </g>
    <g>
      <g>
        <path class="cls-9" d="m224.95,102.92c0-1.31.41-1.92,1.31-1.92.49,0,.97.14,1.63.49l2.47,1.29c1.02.53,1.33.63,2.01.63,1.28,0,1.89-.73,2.06-2.38h-.43c-.1.92-.48,1.34-1.16,1.34-.29,0-.61-.09-1.05-.26l-4.01-1.63c-.43-.17-.73-.24-1.12-.24-1.26,0-2.13.87-2.13,2.16,0,.03,0,.15.02.29l.41.22Zm10.15-10.15c0-3.03-1.77-4.78-4.83-4.78-4.03,0-6.99,3.11-6.99,7.38,0,3.21,1.6,4.93,4.59,4.93,4.62,0,7.23-3.83,7.23-7.53Zm-1.5.27c0,3.2-1.51,6.55-5.1,6.55-2.45,0-3.72-1.46-3.72-4.3,0-2.52.99-6.58,4.96-6.58,1.97,0,3.86.92,3.86,4.34Zm8.3-4.34l.05-.48h-.41l-1.53.05c-.27,0-.58,0-1.31-.02l-1.09-.03-.05.48.8.03c.41.02.6.15.6.46,0,.24-.05.73-.15,1.29l-1.24,7.38c-.29,1.56-.31,1.58-.99,1.65l-.7.05-.07.48.71-.02c.82-.02,1.21-.03,1.53-.03l1.65.05h.44l.05-.48-.83-.05c-.46-.03-.61-.15-.61-.49,0-.1.02-.29.03-.36l.73-4.45c2.55,2.91,2.94,3.4,4.73,5.83l1.17-.05c.61.02.71.03,1.16.05v-.51h-.34c-.39,0-.73-.2-1.09-.65l-4.18-5.13,4.96-4.64c.27-.26.63-.43.92-.43h.36v-.46l-.39.02c-.36.02-.63.03-.77.03-.17,0-.44-.02-.8-.03l-.34-.02v.49c0,.14-.17.36-.65.83-.75.77-3.62,3.59-4.71,4.44l.77-4.42c.12-.65.24-.77.87-.82l.71-.05Z"/>
        <path class="cls-9" d="m252.52,85.61h.87c.93,0,1.36.06,1.39.2.04.1.06.32.05.44l-.05.76h.33l.32-1.95h-1.08c-1.05.02-1.86.04-2.27.04-.44,0-1.2-.01-2.23-.02h-1.13s-.21,1.94-.21,1.94h.35l.18-.71c.06-.26.14-.45.21-.54s.52-.15.96-.15h1.33l-1.02,6.2c-.19,1.08-.21,1.12-.69,1.15l-.61.04-.05.33h.68c.48-.02.82-.04,1.01-.04.23,0,.6.01,1.06.02h.52s.04-.32.04-.32l-.7-.04c-.31-.01-.43-.11-.43-.36,0-.11.01-.19.05-.42l1.12-6.58Z"/>
      </g>
      <g>
        <g>
          <path class="cls-9" d="m248.18,119.51l-.2-.19c-.88.44-1.5.6-2.72.71l-.07.36h.82c.41,0,.58.12.58.41,0,.14-.02.29-.03.41l-.48,2.62c-.51-.15-.97-.24-1.39-.24-1.17,0-2.77,1.22-3.55,2.7-.53.99-.87,2.6-.87,4.03,0,1.11.26,1.65.75,1.65.46,0,1.09-.29,1.67-.75.92-.75,1.48-1.41,2.62-3.13l-.39,1.55c-.19.75-.27,1.29-.27,1.73,0,.36.15.56.44.56s.7-.2,1.28-.63l1.38-1.02-.17-.32-.75.53c-.24.17-.51.29-.66.29-.14,0-.24-.15-.24-.39,0-.14.02-.29.14-.78l2.14-10.1Zm-6.27,11.27c-.27,0-.43-.24-.43-.66,0-2.14.78-4.79,1.62-5.44.22-.17.54-.26,1-.26.75,0,1.24.1,1.8.39l-.2,1c-.63,3.06-3.03,4.96-3.79,4.96Z"/>
          <path class="cls-9" d="m251.82,126.2l-.14-.13c-.62.31-1.05.42-1.9.5l-.05.25h.57c.29,0,.4.08.4.29,0,.1-.01.2-.02.29l-.57,3.19c-.17.89-.36,1.71-.98,4.2l.11.12.8-.2.27-1.48c.11-.57.39-1.11.8-1.51.82,2.38,1.2,3.19,1.5,3.19.15,0,.44-.15.96-.52l.55-.38-.1-.23-.51.29c-.17.1-.25.12-.35.12-.12,0-.2-.07-.31-.27-.42-.76-.68-1.4-1.14-2.87l.17-.17c.73-.73,1.27-1.02,1.87-1.02.1,0,.23.02.43.07l.2-.75c-.21-.07-.43-.11-.57-.11-.79,0-1.77.92-3.26,3l1.27-5.85Z"/>
        </g>
        <polygon class="cls-9" points="223.32 125.05 227.76 122.68 232.55 132.85 239.33 112.79 255.55 112.79 255.55 113.84 240.07 113.84 232.15 137.35 226.07 124.61 223.61 125.54 223.32 125.05"/>
      </g>
      <line class="cls-4" x1="222.38" y1="107.87" x2="256.15" y2="107.87"/>
    </g>
    <g>
      <path class="cls-9" d="m257.9,82.09c0-.06.04-.08.08-.08.03,0,.06,0,.08.02,2.55,1.34,4.65,3.73,4.65,9.4v.6h-1.53v-.6c0-3.23-.64-7.03-3.31-9.06-.12-.09-.13-.19-.13-.28h.16Zm4.83,9.94v36.72h-1.53v-36.72h1.53Z"/>
      <path class="cls-9" d="m257.9,138.69c0,.06.04.08.08.08.03,0,.06,0,.08-.02,2.55-1.34,4.65-3.73,4.65-9.4v-.6h-1.53v.6c0,3.23-.64,7.03-3.31,9.06-.12.09-.13.19-.13.28h.16Z"/>
    </g>
    <path class="cls-9" d="m271.34,106.8c-.51,0-.97.48-.97.99s.46.99.95.99c.54,0,1.02-.46,1.02-.97s-.48-1-1-1Z"/>
    <path class="cls-9" d="m282.14,110.76l-1.21-8.98c-.03-.37.03-.63.71-.65l.71-.03v-.48l-.7.02c-.63.02-1.11.03-1.41.03s-.78-.02-1.41-.03l-.7-.02v.48l.43.03c.75.05.88.19,1,.82l1.5,10.57h.83l6.43-10.52c.43-.68.56-.8,1.05-.87l.31-.03v-.48l-.51.02c-.46.02-.85.03-1.12.03-.17,0-.63-.02-1.33-.03l-.78-.02v.48l.44.03c.65.05.97.22.97.54,0,.19-.07.37-.27.71l-4.95,8.36Z"/>
    <path class="cls-9" d="m304.49,106.49v-1h-9.16v1h9.16Zm0,3.62v-1h-9.16v1h9.16Z"/>
  </g>
  <path class="cls-9" d="m504.19,97.29c.85.54,1.85.93,3.09.93,1.85,0,3.05-1.39,3.05-2.85,0-1.35-.95-2.24-1.81-2.61-.49-.2-1.63-.41-2.03-.57-.59-.24-1.08-.78-1.08-1.44,0-.8.73-1.59,1.96-1.59,1.11,0,1.67.38,2.3.86l.19-1.12c-.7-.38-1.38-.65-2.47-.65-1.9,0-3.05,1.35-3.05,2.66,0,1.4,1.12,2.27,2.08,2.52,1.17.31,1.35.32,1.67.45.69.28,1.16.9,1.16,1.62,0,.88-.74,1.78-1.97,1.78-1.34,0-2.24-.61-2.89-1.12l-.2,1.12Zm7.3-2.35c0,1.84,1.42,3.13,2.96,3.13s2.97-1.28,2.97-3.12c0-1.69-1.24-3.25-2.97-3.25-1.59,0-2.96,1.4-2.96,3.24Zm1.05-.14c0-1.63,1.04-2.27,1.9-2.27s1.9.62,1.9,2.27-1,2.4-1.9,2.4-1.9-.7-1.9-2.4Zm5.66-2.09h1v5.21h1.01v-5.21h1.49v-.8h-1.53v-1.84c0-1.04.82-1.23,1.26-1.23s.78.11,1.09.23v-.9c-.31-.08-.65-.15-1.07-.15-1.09,0-2.27.81-2.27,2.58,0,.11.01.22.01.32v.99h-1v.8Zm4,0h1.13v3.63c0,1.49.66,1.73,1.11,1.73.61,0,1.3-.14,2-.51l-.22-.8c-.19.14-.61.45-1.19.45-.7,0-.73-.8-.73-1.17v-3.32h1.9v-.8h-1.9v-1.7h-.95v1.7h-1.16v.8Zm5.98,5.21h1.05v-8.42c.12.59.45,1.44.97,2.88l2.03,5.25h.97l2.08-5.41.81-2.21.14-.5v.43s.01,7.99.01,7.99h1.05v-9.37h-1.55l-2.08,5.43c-.66,1.73-.88,2.4-.92,2.7h-.01c-.05-.31-.38-1.22-.93-2.71l-2.08-5.41h-1.54v9.37Zm11.06-1.53c0,.62.41,1.67,1.54,1.67,1.49,0,2.23-.61,2.24-.62v.47h1.03v-4.12c-.07-1.13-.96-2.11-2.24-2.11-.85,0-1.47.22-2.12.59l.08.9c.45-.31,1.01-.69,2.03-.69.18,0,.53.01.85.41.34.41.34.86.35,1.24v.46c-1.39.01-3.75.35-3.75,1.78Zm.99-.01c0-.85,1.8-1.05,2.77-1.07v.85c0,.88-.93,1.07-1.51,1.07-.73,0-1.26-.36-1.26-.85Zm4.9,1.54h1.12l1.94-2.54,2.03,2.54h1.12l-2.7-3.09h0s2.48-2.92,2.48-2.92h-1.12l-1.8,2.23h-.01l-1.86-2.23h-1.12l2.54,2.9v.03l-2.62,3.08Z"/>
  <g>
    <path class="cls-9" d="m660.32,151.76c-.02.12-.02.22-.02.31,0,.73.63,1.33,1.39,1.33,1.8,0,3.67-2.11,4.68-5.25l2.4-7.48-.19-.15c-.49.19-.88.29-1.26.32l-.6,2.24c-.2.8-.8,2.04-1.36,2.87-.6.87-1.43,1.62-1.8,1.62-.2,0-.36-.39-.34-.82l.27-3.52c.03-.53.07-1.17.07-1.65,0-.77-.12-1.07-.41-1.07-.22,0-.46.12-1.28.68l-1.39.95.19.31.85-.51c.09-.05.27-.2.43-.2.24,0,.37.32.37.88,0,.02,0,.12-.02.26l-.29,4.13-.02.68c0,.71.31,1.21.73,1.21.63,0,2.06-1.45,3.33-3.37l-.83,2.91c-.87,3.01-1.72,4.25-2.91,4.25-.6,0-1.05-.46-1.05-1.05,0-.09.02-.22.03-.37l-.17-.07-.82.58Z"/>
    <g class="cls-18">
      <g class="cls-22">
        <path class="cls-9" d="m645.53,137.27h46.82v-1.02h-46.82v1.02Z"/>
      </g>
    </g>
  </g>
  <path class="cls-9" d="m396.92,20.05c.94.6,2.05,1.03,3.43,1.03,2.05,0,3.39-1.54,3.39-3.16,0-1.5-1.05-2.49-2.01-2.89-.54-.22-1.81-.45-2.25-.63-.66-.27-1.2-.87-1.2-1.6,0-.88.81-1.77,2.17-1.77,1.23,0,1.86.42,2.55.96l.21-1.24c-.78-.42-1.53-.72-2.74-.72-2.11,0-3.39,1.5-3.39,2.95,0,1.56,1.24,2.52,2.31,2.8,1.3.34,1.5.36,1.86.49.76.31,1.29,1,1.29,1.8,0,.97-.82,1.98-2.19,1.98-1.48,0-2.49-.67-3.21-1.24l-.22,1.24Zm8.19-2.64c0,1.92,1.41,3.51,3.25,3.51,1.03,0,1.77-.33,2.44-.76l-.07-1c-.48.33-1.18.81-2.35.81-1.26,0-2.1-1.09-2.1-2.55,0-1.3.66-2.61,2.11-2.61,1.18,0,1.57.31,2.16.69l.18-.99c-.91-.52-1.39-.66-2.32-.66-2.1,0-3.3,1.83-3.3,3.57Zm6.79,1.65c0,.69.45,1.86,1.71,1.86,1.65,0,2.47-.67,2.49-.69v.52h1.14v-4.57c-.07-1.26-1.06-2.34-2.49-2.34-.94,0-1.63.24-2.35.66l.09,1c.49-.34,1.12-.76,2.25-.76.19,0,.58.01.94.45.37.45.37.96.39,1.38v.51c-1.54.01-4.17.39-4.17,1.98Zm1.09-.01c0-.94,1.99-1.17,3.07-1.18v.94c0,.97-1.03,1.18-1.68,1.18-.81,0-1.39-.4-1.39-.94Zm6.66,1.71h1.12v-10.83h-1.12v10.83Zm2.88-3.39c0,1.86,1.3,3.55,3.27,3.55.94,0,1.72-.33,2.37-.76l-.09-.99c-.66.48-1.33.82-2.28.82-1.14,0-2.16-.99-2.22-2.53h4.65v-.43c-.13-2.56-1.6-3.18-2.67-3.18-1.59,0-3.03,1.51-3.03,3.52Zm1.12-.73c.16-.73.76-1.86,1.9-1.86.43,0,1.56.19,1.81,1.86h-3.72Zm5.55.81c0,1.78,1.05,3.48,2.58,3.48.99,0,1.71-.45,2.22-.94v.78h1.18v-10.83h-1.14v4.81c-.52-.42-1.23-.82-2.17-.82-1.48,0-2.67,1.54-2.67,3.52Zm1.17-.01c0-1.96,1.3-2.58,2.17-2.58h.03c.16,0,.64.01,1.11.45.27.25.31.34.31.58v2.86c0,.46-.7,1.24-1.6,1.24-.81,0-2.02-.58-2.02-2.56Zm12.48,3.33h3.72c.24,0,.48,0,.72-.03,2.11-.24,4.12-2.2,4.12-5.1,0-1.8-.81-3.6-2.29-4.57-.96-.63-1.77-.7-2.58-.7h-3.69v10.41Zm1.3-.84v-8.73h2.14c2.52,0,3.81,2.04,3.81,4.45,0,1.03-.25,2.07-.88,2.89-1.03,1.36-2.44,1.38-2.92,1.38h-2.14Zm8.55-2.47c0,2.04,1.57,3.48,3.28,3.48s3.3-1.42,3.3-3.46c0-1.87-1.38-3.61-3.3-3.61-1.77,0-3.28,1.56-3.28,3.6Zm1.17-.15c0-1.81,1.15-2.52,2.11-2.52s2.11.69,2.11,2.52-1.11,2.67-2.11,2.67-2.11-.78-2.11-2.67Zm6.15-2.32h1.26v4.03c0,1.65.73,1.92,1.23,1.92.67,0,1.44-.15,2.22-.57l-.24-.88c-.21.15-.67.49-1.32.49-.78,0-.81-.88-.81-1.3v-3.69h2.11v-.88h-2.11v-1.89h-1.05v1.89h-1.29v.88Zm5.29,2.89h3.99v-.88h-3.99v.88Zm6.27,2.89h1.35v-4.33h1.75c.16,0,.33.01.49.01,2.55,0,3.7-1.69,3.7-3.07,0-.97-.54-1.86-1.45-2.43-.76-.48-1.5-.58-2.31-.58h-3.54v10.41Zm1.3-5.2v-4.36h1.99c2.32,0,2.79,1.41,2.79,2.17,0,.87-.57,2.19-2.79,2.19h-1.99Zm8.07,5.2h1.12v-3.09c0-2.19,1.66-2.7,2.55-2.73v-1c-1.59.03-2.38,1.05-2.62,1.42v-1.35h-1.05v6.75Zm4.36-3.31c0,2.04,1.57,3.48,3.28,3.48s3.3-1.42,3.3-3.46c0-1.87-1.38-3.61-3.3-3.61-1.77,0-3.28,1.56-3.28,3.6Zm1.17-.15c0-1.81,1.15-2.52,2.11-2.52s2.11.69,2.11,2.52-1.11,2.67-2.11,2.67-2.11-.78-2.11-2.67Zm6.82.15c0,1.78,1.05,3.48,2.58,3.48.99,0,1.71-.45,2.22-.94v.78h1.18v-10.83h-1.14v4.81c-.52-.42-1.23-.82-2.17-.82-1.48,0-2.67,1.54-2.67,3.52Zm1.17-.01c0-1.96,1.3-2.58,2.17-2.58h.03c.16,0,.64.01,1.11.45.27.25.31.34.31.58v2.86c0,.46-.7,1.24-1.6,1.24-.81,0-2.02-.58-2.02-2.56Zm7.26,1.5c0,.78,0,1.99,1.57,1.99.82,0,1.84-.21,2.62-.88v.72h1.14v-6.67h-1.17v4.2c0,.15,0,.28-.01.43-.07.64-.66,1.36-1.78,1.36-1.02,0-1.18-.33-1.2-.97v-5.02h-1.17v4.84Zm7.08-1.51c0,1.92,1.41,3.51,3.25,3.51,1.03,0,1.77-.33,2.44-.76l-.07-1c-.48.33-1.18.81-2.35.81-1.26,0-2.1-1.09-2.1-2.55,0-1.3.66-2.61,2.11-2.61,1.18,0,1.57.31,2.16.69l.18-.99c-.91-.52-1.39-.66-2.32-.66-2.1,0-3.3,1.83-3.3,3.57Zm6.4-2.44h1.26v4.03c0,1.65.73,1.92,1.23,1.92.67,0,1.44-.15,2.22-.57l-.24-.88c-.21.15-.67.49-1.32.49-.78,0-.81-.88-.81-1.3v-3.69h2.11v-.88h-2.11v-1.89h-1.05v1.89h-1.29v.88Zm10.54,5.79h1.12l1.14-3.06h4.35l1.15,3.06h1.38l-3.9-10.41h-1.33l-3.91,10.41Zm2.58-3.9c1.18-3.24,1.74-4.9,1.86-5.46.09.55.49,1.68,1.86,5.46h-3.72Zm6.87-1.89h1.26v4.03c0,1.65.73,1.92,1.23,1.92.67,0,1.44-.15,2.22-.57l-.24-.88c-.21.15-.67.49-1.32.49-.78,0-.81-.88-.81-1.3v-3.69h2.11v-.88h-2.11v-1.89h-1.05v1.89h-1.29v.88Zm5.41,0h1.26v4.03c0,1.65.73,1.92,1.23,1.92.67,0,1.44-.15,2.22-.57l-.24-.88c-.21.15-.67.49-1.32.49-.78,0-.81-.88-.81-1.3v-3.69h2.11v-.88h-2.11v-1.89h-1.05v1.89h-1.29v.88Zm5.65,2.4c0,1.86,1.3,3.55,3.27,3.55.94,0,1.72-.33,2.37-.76l-.09-.99c-.66.48-1.33.82-2.28.82-1.14,0-2.16-.99-2.22-2.53h4.65v-.43c-.13-2.56-1.6-3.18-2.67-3.18-1.59,0-3.03,1.51-3.03,3.52Zm1.12-.73c.16-.73.76-1.86,1.9-1.86.43,0,1.56.19,1.81,1.86h-3.72Zm6.22,4.12h1.17v-3.6c0-1.11.37-2.31,1.53-2.31,1.47,0,1.47,1.12,1.47,1.69v4.21h1.17v-4.32c0-1.05-.13-2.5-2.05-2.5-1.32,0-1.98.85-2.19,1.12v-1.05h-1.09v6.75Zm6.82-5.79h1.26v4.03c0,1.65.73,1.92,1.23,1.92.67,0,1.44-.15,2.22-.57l-.24-.88c-.21.15-.67.49-1.32.49-.78,0-.81-.88-.81-1.3v-3.69h2.11v-.88h-2.11v-1.89h-1.05v1.89h-1.29v.88Zm6.36,5.79h1.12v-6.67h-1.12v6.67Zm-.1-8.85h1.35v-1.33h-1.35v1.33Zm2.92,5.53c0,2.04,1.57,3.48,3.28,3.48s3.3-1.42,3.3-3.46c0-1.87-1.38-3.61-3.3-3.61-1.77,0-3.28,1.56-3.28,3.6Zm1.17-.15c0-1.81,1.15-2.52,2.11-2.52s2.11.69,2.11,2.52-1.11,2.67-2.11,2.67-2.11-.78-2.11-2.67Zm7.08,3.46h1.17v-3.6c0-1.11.37-2.31,1.53-2.31,1.47,0,1.47,1.12,1.47,1.69v4.21h1.17v-4.32c0-1.05-.13-2.5-2.05-2.5-1.32,0-1.98.85-2.19,1.12v-1.05h-1.09v6.75Z"/>
  <g>
    <path class="cls-9" d="m485.32,46.76c-.02.12-.02.22-.02.31,0,.73.63,1.33,1.39,1.33,1.8,0,3.67-2.11,4.68-5.25l2.4-7.48-.19-.15c-.49.19-.88.29-1.26.32l-.6,2.24c-.2.8-.8,2.04-1.36,2.87-.6.87-1.43,1.62-1.8,1.62-.2,0-.36-.39-.34-.82l.27-3.52c.03-.53.07-1.17.07-1.65,0-.77-.12-1.07-.41-1.07-.22,0-.46.12-1.28.68l-1.39.95.19.31.85-.51c.09-.05.27-.2.43-.2.24,0,.37.32.37.88,0,.02,0,.12-.02.26l-.29,4.13-.02.68c0,.71.31,1.21.73,1.21.63,0,2.06-1.45,3.33-3.37l-.83,2.91c-.87,3.01-1.72,4.25-2.91,4.25-.6,0-1.05-.46-1.05-1.05,0-.09.02-.22.03-.37l-.17-.07-.82.58Z"/>
    <g class="cls-33">
      <g class="cls-30">
        <path class="cls-9" d="m470.53,32.27h46.82v-1.02h-46.82v1.02Z"/>
      </g>
    </g>
  </g>
  <g>
    <path class="cls-9" d="m485.59,118.68c.26.14.53.2.73.2.56,0,1.22-.49,1.75-1.29l1.29-1.99.19,1.17c.22,1.45.61,2.11,1.22,2.11.37,0,.92-.29,1.46-.78l.83-.75-.15-.32c-.61.51-1.04.77-1.31.77-.26,0-.48-.17-.65-.51-.15-.32-.34-.95-.43-1.45l-.31-1.72.6-.83c.8-1.11,1.26-1.5,1.79-1.5.27,0,.48.14.56.39l.24-.07.26-1.45c-.2-.12-.36-.17-.51-.17-.68,0-1.36.61-2.41,2.18l-.63.94-.1-.82c-.2-1.68-.66-2.3-1.67-2.3-.44,0-.82.14-.97.36l-.99,1.41.29.17c.51-.58.85-.82,1.17-.82.56,0,.94.7,1.22,2.36l.19,1.05-.68,1.05c-.73,1.14-1.31,1.68-1.79,1.68-.26,0-.44-.07-.48-.15l-.19-.48-.34.05c0,.6-.14,1.04-.2,1.48Z"/>
    <g class="cls-37">
      <g class="cls-5">
        <path class="cls-9" d="m470.53,107.27h46.82v-1.02h-46.82v1.02Z"/>
      </g>
    </g>
  </g>
  <g>
    <path class="cls-9" d="m570.59,148.68c.26.14.53.2.73.2.56,0,1.22-.49,1.75-1.29l1.29-1.99.19,1.17c.22,1.45.61,2.11,1.22,2.11.37,0,.92-.29,1.46-.78l.83-.75-.15-.32c-.61.51-1.04.77-1.31.77-.26,0-.48-.17-.65-.51-.15-.32-.34-.95-.43-1.45l-.31-1.72.6-.83c.8-1.11,1.26-1.5,1.79-1.5.27,0,.48.14.56.39l.24-.07.26-1.45c-.2-.12-.36-.17-.51-.17-.68,0-1.36.61-2.41,2.18l-.63.94-.1-.82c-.2-1.68-.66-2.3-1.67-2.3-.44,0-.82.14-.97.36l-.99,1.41.29.17c.51-.58.85-.82,1.17-.82.56,0,.94.7,1.22,2.36l.19,1.05-.68,1.05c-.73,1.14-1.31,1.68-1.79,1.68-.26,0-.44-.07-.48-.15l-.19-.48-.34.05c0,.6-.14,1.04-.2,1.48Z"/>
    <g class="cls-28">
      <g class="cls-16">
        <path class="cls-9" d="m555.53,137.27h46.82v-1.02h-46.82v1.02Z"/>
      </g>
    </g>
  </g>
  <g>
    <path class="cls-9" d="m570.59,118.68c.26.14.53.2.73.2.56,0,1.22-.49,1.75-1.29l1.29-1.99.19,1.17c.22,1.45.61,2.11,1.22,2.11.37,0,.92-.29,1.46-.78l.83-.75-.15-.32c-.61.51-1.04.77-1.31.77-.26,0-.48-.17-.65-.51-.15-.32-.34-.95-.43-1.45l-.31-1.72.6-.83c.8-1.11,1.26-1.5,1.79-1.5.27,0,.48.14.56.39l.24-.07.26-1.45c-.2-.12-.36-.17-.51-.17-.68,0-1.36.61-2.41,2.18l-.63.94-.1-.82c-.2-1.68-.66-2.3-1.67-2.3-.44,0-.82.14-.97.36l-.99,1.41.29.17c.51-.58.85-.82,1.17-.82.56,0,.94.7,1.22,2.36l.19,1.05-.68,1.05c-.73,1.14-1.31,1.68-1.79,1.68-.26,0-.44-.07-.48-.15l-.19-.48-.34.05c0,.6-.14,1.04-.2,1.48Z"/>
    <g class="cls-34">
      <g class="cls-17">
        <path class="cls-9" d="m555.53,107.27h46.82v-1.02h-46.82v1.02Z"/>
      </g>
    </g>
  </g>
  <g>
    <path class="cls-9" d="m170.43,51.41c0,.16.12.16.34.16h6.47c.27,0,.28-.01.38-.22l1.2-2.96s.05-.15.05-.16c0-.15-.16-.15-.2-.15-.15,0-.16.01-.28.32-.78,1.86-1.26,2.74-3.4,2.74h-1.65c-.42,0-.42-.04-.42-.14,0-.08.04-.22.05-.3l.93-3.71h1.17c.92,0,1.01.22,1.01.58,0,.09-.01.3-.12.69,0,.03-.03.11-.03.15,0,.16.14.16.22.16.15,0,.19-.03.24-.27l.74-2.97s.04-.15.04-.18c0-.16-.16-.16-.22-.16-.18,0-.18.04-.26.32-.26.96-.51,1.26-1.61,1.26h-1.09l.82-3.32c.11-.45.2-.46.65-.46h1.69c1.46,0,1.8.41,1.8,1.36,0,.36-.03.54-.07.86-.01.07-.03.19-.03.23,0,.16.15.16.2.16.19,0,.2-.05.23-.3l.31-2.39c.04-.35-.04-.35-.32-.35h-6.3c-.23,0-.36,0-.36.24,0,.18.09.18.36.18.78,0,.78.11.78.23,0,.01,0,.11-.05.31l-1.81,7.24c-.11.46-.19.57-1.11.57-.22,0-.36,0-.36.26Zm9.77-1.78c0,1.15.62,2.09,1.63,2.09.55,0,1.05-.35,1.43-.72l-.53,2.12c-.15.58-.16.63-1.03.65-.18,0-.32,0-.32.26,0,.12.08.16.18.16.43,0,.9-.04,1.35-.04s.93.04,1.36.04c.08,0,.26,0,.26-.26,0-.16-.14-.16-.32-.16-.69,0-.69-.08-.69-.22,0-.09.03-.16.04-.24l1.85-7.37s.04-.15.04-.18c0-.12-.11-.15-.15-.15-.15,0-.63.47-.85.85-.16-.39-.51-.86-1.16-.86-1.5,0-3.09,2.05-3.09,4.02Zm.92.59c0-.68.42-2.25.66-2.82.34-.82.96-1.5,1.51-1.5.11,0,.42.01.66.39.14.22.27.61.27.86,0,.04-.01.09-.04.18l-.65,2.59c-.11.42-.93,1.5-1.67,1.5-.63,0-.74-.8-.74-1.2Zm4.95-2.54c0,.14.14.14.2.14.18,0,.19-.03.24-.22.11-.42.47-1.7,1.26-1.7.15,0,.3.04.3.39,0,.32-.14.69-.32,1.22-.35.95-.7,1.94-.7,2.65,0,1.17.78,1.57,1.51,1.57s1.17-.41,1.5-.81c.24.73.82.81,1.08.81.5,0,.78-.34.99-.76.24-.51.41-1.3.41-1.32,0-.14-.11-.14-.2-.14-.16,0-.18.01-.26.31-.19.76-.45,1.61-.9,1.61-.35,0-.35-.36-.35-.55,0-.09,0-.31.09-.69l.97-3.89c.03-.08.04-.15.04-.19,0-.15-.11-.35-.38-.35-.41,0-.5.39-.53.5l-.99,3.94c-.07.24-.07.27-.19.45-.26.38-.65.78-1.24.78s-.73-.59-.73-1.04c0-.82.45-2.04.78-2.96.11-.28.18-.47.18-.73,0-.68-.45-1.09-1.03-1.09-1.26,0-1.73,2-1.73,2.08Zm7.57,1.94c0,1.15.62,2.09,1.63,2.09.49,0,1.08-.28,1.62-.95.15.66.65.95,1.12.95.5,0,.78-.34.99-.76.24-.51.41-1.3.41-1.32,0-.14-.11-.14-.2-.14-.16,0-.18.01-.26.31-.19.76-.45,1.61-.9,1.61-.35,0-.35-.36-.35-.55,0-.09,0-.31.09-.69l.92-3.67c.05-.19.05-.22.05-.28,0-.28-.23-.35-.36-.35-.43,0-.53.46-.54.53-.26-.58-.69-.8-1.12-.8-1.5,0-3.09,2.05-3.09,4.02Zm.92.59c0-.68.42-2.25.66-2.82.34-.82.96-1.5,1.51-1.5.59,0,.93.7.93,1.27,0,.03-.01.09-.04.18l-.63,2.55c-.11.43-.95,1.53-1.69,1.53-.63,0-.74-.8-.74-1.2Zm5.75-4.21c0,.16.12.16.34.16h1.08l-.97,3.87c-.01.05-.07.27-.07.46,0,.68.45,1.22,1.15,1.22,1.36,0,2.05-2.01,2.05-2.08,0-.14-.11-.14-.2-.14-.16,0-.16.01-.27.26-.24.65-.78,1.66-1.55,1.66-.36,0-.36-.34-.36-.55,0-.09,0-.31.09-.69l1-4.01h1.15c.23,0,.38,0,.38-.26,0-.16-.12-.16-.34-.16h-1.08l.5-2c.05-.19.05-.22.05-.28,0-.28-.23-.35-.36-.35-.34,0-.47.28-.53.49l-.53,2.15h-1.15c-.23,0-.38,0-.38.26Zm6.55-2.65c0,.34.27.45.46.45.27,0,.65-.26.65-.65,0-.34-.27-.45-.46-.45-.28,0-.65.27-.65.65Zm-2.17,4.32c0,.14.14.14.2.14.18,0,.19-.03.24-.22.12-.45.47-1.7,1.26-1.7.15,0,.3.07.3.38s-.15.72-.24.97l-.41,1.12c-.18.45-.34.89-.5,1.34-.19.51-.24.66-.24.93,0,.53.32,1.08,1.03,1.08,1.27,0,1.71-2.03,1.71-2.08,0-.14-.11-.14-.2-.14-.18,0-.18.03-.23.23-.11.39-.47,1.69-1.26,1.69-.11,0-.3-.01-.3-.38s.18-.8.35-1.3l.86-2.31c.14-.39.16-.5.16-.76,0-.74-.51-1.08-1.01-1.08-1.27,0-1.73,2.01-1.73,2.08Zm4.5,1.81c0,1.39.85,2.23,1.97,2.23,1.67,0,3.42-1.92,3.42-3.9,0-1.28-.8-2.21-1.97-2.21-1.67,0-3.42,1.92-3.42,3.89Zm.95.54c0-.68.35-2.17.78-2.9.5-.82,1.15-1.23,1.67-1.23.66,0,1.04.59,1.04,1.39,0,.58-.3,1.97-.73,2.78-.39.74-1.08,1.35-1.74,1.35-.53,0-1.03-.42-1.03-1.39Zm5.59-2.35c0,.14.14.14.2.14.18,0,.19-.01.26-.31.24-.95.5-1.61.92-1.61.35,0,.35.39.35.54,0,.22-.04.47-.09.69l-1.01,4.05c-.03.08-.04.15-.04.19,0,.15.11.35.38.35.16,0,.39-.09.49-.35l.54-2.16c.07-.3.15-.58.22-.88.18-.69.18-.7.41-1.09.19-.32.8-1.34,1.82-1.34.59,0,.62.61.62.89,0,.84-.59,2.44-.78,2.98-.18.46-.22.58-.22.86,0,.59.38,1.08,1.03,1.08,1.26,0,1.71-2.01,1.71-2.08,0-.14-.11-.14-.2-.14-.18,0-.18.03-.23.23-.11.36-.47,1.69-1.26,1.69-.28,0-.3-.2-.3-.39,0-.34.14-.69.24-1.01.27-.72.82-2.23.82-3.01,0-1.11-.74-1.4-1.4-1.4-1.11,0-1.76.81-1.93,1.07-.09-.66-.55-1.07-1.13-1.07-.49,0-.76.31-.97.72-.26.54-.43,1.34-.43,1.36Zm10.96,5.76c0,.61.58.89,1.08.89,1.4,0,1.96-2.84,2.05-3.32l.95-4.85h1.11c.23,0,.36,0,.36-.24,0-.18-.11-.18-.34-.18h-1.05c.19-1,.23-1.24.43-2.19.11-.5.26-1.22.74-1.22.11,0,.39.03.57.24-.41.07-.59.39-.59.66,0,.3.24.43.46.43.34,0,.68-.27.68-.74,0-.58-.55-.89-1.11-.89-1.32,0-1.66,1.76-1.76,2.21l-.28,1.49h-.89c-.22,0-.36,0-.36.27,0,.15.14.15.34.15h.84l-.99,5.04c-.16.84-.3,1.39-.38,1.67-.11.46-.28,1.16-.77,1.16-.14,0-.39-.04-.54-.24.41-.07.59-.39.59-.66,0-.3-.24-.43-.46-.43-.34,0-.68.27-.68.74Zm5.59-5.76c0,.14.14.14.2.14.18,0,.19-.01.26-.31.24-.95.5-1.61.92-1.61.35,0,.35.39.35.54,0,.22-.04.47-.09.69l-1.01,4.05c-.03.08-.04.15-.04.19,0,.15.11.35.38.35.41,0,.5-.39.53-.5l.88-3.54s.62-1.78,1.78-1.78c.07,0,.45,0,.72.19-.47.15-.51.58-.51.65,0,.18.12.43.47.43.24,0,.66-.19.66-.72,0-.7-.88-.85-1.32-.85-.93,0-1.42.68-1.63.97-.15-.72-.68-.97-1.12-.97-.49,0-.76.31-.97.72-.26.54-.43,1.34-.43,1.36Zm5.36,1.81c0,1.39.85,2.23,1.97,2.23,1.67,0,3.42-1.92,3.42-3.9,0-1.28-.8-2.21-1.97-2.21-1.67,0-3.42,1.92-3.42,3.89Zm.95.54c0-.68.35-2.17.78-2.9.5-.82,1.15-1.23,1.67-1.23.66,0,1.04.59,1.04,1.39,0,.58-.3,1.97-.73,2.78-.39.74-1.08,1.35-1.74,1.35-.53,0-1.03-.42-1.03-1.39Zm5.59-2.35c0,.14.14.14.2.14.18,0,.19-.01.26-.31.24-.95.5-1.61.92-1.61.35,0,.35.39.35.54,0,.22-.04.47-.09.69l-1.01,4.05c-.03.08-.04.15-.04.19,0,.15.11.35.38.35.16,0,.39-.09.49-.35l.54-2.16c.07-.3.15-.58.22-.88.18-.66.18-.69.34-.97.39-.68.97-1.46,1.9-1.46.62,0,.62.69.62.89,0,.36-.09.76-.12.88l-.88,3.51c-.03.08-.04.15-.04.19,0,.15.11.35.38.35.16,0,.39-.09.49-.35l.54-2.16c.07-.3.15-.58.22-.88.18-.66.18-.69.34-.97.39-.68.97-1.46,1.9-1.46.62,0,.62.69.62.89,0,.84-.59,2.44-.78,2.98-.18.46-.22.58-.22.86,0,.59.38,1.08,1.03,1.08,1.26,0,1.71-2.01,1.71-2.08,0-.14-.11-.14-.2-.14-.18,0-.18.03-.23.23-.11.36-.47,1.69-1.26,1.69-.28,0-.3-.2-.3-.39,0-.34.14-.69.24-1.01.27-.72.82-2.23.82-3.01,0-1.13-.78-1.4-1.42-1.4-.95,0-1.62.59-2.03,1.19-.11-.93-.81-1.19-1.42-1.19-.81,0-1.47.45-1.93,1.07-.09-.66-.55-1.07-1.13-1.07-.49,0-.76.31-.97.72-.26.54-.43,1.34-.43,1.36Zm15.97-1.67c0,.16.12.16.34.16h1.08l-.97,3.87c-.01.05-.07.27-.07.46,0,.68.45,1.22,1.15,1.22,1.36,0,2.05-2.01,2.05-2.08,0-.14-.11-.14-.2-.14-.16,0-.16.01-.27.26-.24.65-.78,1.66-1.55,1.66-.36,0-.36-.34-.36-.55,0-.09,0-.31.09-.69l1-4.01h1.15c.23,0,.38,0,.38-.26,0-.16-.12-.16-.34-.16h-1.08l.5-2c.05-.19.05-.22.05-.28,0-.28-.23-.35-.36-.35-.34,0-.47.28-.53.49l-.53,2.15h-1.15c-.23,0-.38,0-.38.26Zm4.27,5.36c0,.15.12.35.38.35.28,0,.46-.23.5-.38.05-.2.49-1.96.58-2.34.07-.3.15-.58.22-.88.12-.49.14-.51.38-.95.27-.43.85-1.28,1.8-1.28.59,0,.62.61.62.89,0,.84-.59,2.44-.78,2.98-.18.46-.22.58-.22.86,0,.59.38,1.08,1.03,1.08,1.26,0,1.71-2.01,1.71-2.08,0-.14-.11-.14-.2-.14-.18,0-.18.03-.23.23-.11.36-.47,1.69-1.26,1.69-.28,0-.3-.2-.3-.39,0-.34.14-.69.24-1.01.27-.72.82-2.23.82-3.01,0-1.11-.74-1.4-1.4-1.4-.9,0-1.38.47-1.8.88l.99-3.94s.04-.15.04-.18c0-.12-.08-.16-.19-.16-.04,0-.18.01-.22.03l-1.34.11c-.16.01-.31.03-.31.28,0,.15.14.15.32.15.65,0,.68.09.68.23,0,.04-.04.22-.04.23l-2,7.97s-.03.15-.03.18Zm7.43-2.01c0,1.22.65,2.36,1.93,2.36,1.73,0,2.85-1.35,2.85-1.55,0-.07-.11-.22-.22-.22-.05,0-.07.01-.18.15-1,1.27-2.2,1.32-2.43,1.32-.88,0-1.03-.96-1.03-1.49s.14-1.12.23-1.49h.53c.41,0,1.31-.04,1.96-.3,1.07-.43,1.07-1.31,1.07-1.4,0-.62-.5-1.15-1.36-1.15-1.42,0-3.35,1.36-3.35,3.75Zm1.24-1.2c.58-2.21,1.97-2.25,2.11-2.25.54,0,.85.36.85.82,0,1.43-2.23,1.43-2.67,1.43h-.28Z"/>
    <path class="cls-9" d="m181.95,70.49c0,1.39.85,2.23,1.97,2.23,1.67,0,3.42-1.92,3.42-3.9,0-1.28-.8-2.21-1.97-2.21-1.67,0-3.42,1.92-3.42,3.89Zm.95.54c0-.68.35-2.17.78-2.9.5-.82,1.15-1.23,1.67-1.23.66,0,1.04.59,1.04,1.39,0,.58-.3,1.97-.73,2.78-.39.74-1.08,1.35-1.74,1.35-.53,0-1.03-.42-1.03-1.39Zm5.59-2.35c0,.14.14.14.2.14.18,0,.19-.01.26-.31.24-.95.5-1.61.92-1.61.35,0,.35.39.35.54,0,.22-.04.47-.09.69l-1.01,4.05c-.03.08-.04.15-.04.19,0,.15.11.35.38.35.41,0,.5-.39.53-.5l.88-3.54s.62-1.78,1.78-1.78c.07,0,.45,0,.72.19-.47.15-.51.58-.51.65,0,.18.12.43.47.43.24,0,.66-.19.66-.72,0-.7-.88-.85-1.32-.85-.93,0-1.42.68-1.63.97-.15-.72-.68-.97-1.12-.97-.49,0-.76.31-.97.72-.26.54-.43,1.34-.43,1.36Zm7.86-4.32c0,.34.27.45.46.45.27,0,.65-.26.65-.65,0-.34-.27-.45-.46-.45-.28,0-.65.27-.65.65Zm-2.17,4.32c0,.14.14.14.2.14.18,0,.19-.03.24-.22.12-.45.47-1.7,1.26-1.7.15,0,.3.07.3.38s-.15.72-.24.97l-.41,1.12c-.18.45-.34.89-.5,1.34-.19.51-.24.66-.24.93,0,.53.32,1.08,1.03,1.08,1.27,0,1.71-2.03,1.71-2.08,0-.14-.11-.14-.2-.14-.18,0-.18.03-.23.23-.11.39-.47,1.69-1.26,1.69-.11,0-.3-.01-.3-.38s.18-.8.35-1.3l.86-2.31c.14-.39.16-.5.16-.76,0-.74-.51-1.08-1.01-1.08-1.27,0-1.73,2.01-1.73,2.08Zm3.73,5.87c0,.54.5.78,1.63.78,1.42,0,2.44-.89,2.7-1.92l1.47-5.91c.05-.2.05-.23.05-.28,0-.28-.23-.35-.36-.35-.16,0-.47.11-.53.5-.19-.39-.55-.77-1.13-.77-1.51,0-3.06,2-3.06,3.9,0,1.15.63,2.07,1.65,2.07.69,0,1.27-.55,1.43-.72l-.28,1.13c-.16.68-.24.96-.62,1.42-.54.63-1.08.63-1.28.63-.18,0-.59,0-.96-.15.27-.11.43-.39.43-.62,0-.18-.12-.43-.47-.43-.24,0-.66.19-.66.72Zm1.69-3.46c0-.65.41-2.23.69-2.86.34-.73.93-1.34,1.46-1.34.81,0,.93,1.13.93,1.24l-.04.19-.61,2.46c-.11.43-.93,1.49-1.67,1.49s-.76-1.03-.76-1.17Zm7.1-6.74c0,.34.27.45.46.45.27,0,.65-.26.65-.65,0-.34-.27-.45-.46-.45-.28,0-.65.27-.65.65Zm-2.17,4.32c0,.14.14.14.2.14.18,0,.19-.03.24-.22.12-.45.47-1.7,1.26-1.7.15,0,.3.07.3.38s-.15.72-.24.97l-.41,1.12c-.18.45-.34.89-.5,1.34-.19.51-.24.66-.24.93,0,.53.32,1.08,1.03,1.08,1.27,0,1.71-2.03,1.71-2.08,0-.14-.11-.14-.2-.14-.18,0-.18.03-.23.23-.11.39-.47,1.69-1.26,1.69-.11,0-.3-.01-.3-.38s.18-.8.35-1.3l.86-2.31c.14-.39.16-.5.16-.76,0-.74-.51-1.08-1.01-1.08-1.27,0-1.73,2.01-1.73,2.08Zm4.13,0c0,.14.14.14.2.14.18,0,.19-.01.26-.31.24-.95.5-1.61.92-1.61.35,0,.35.39.35.54,0,.22-.04.47-.09.69l-1.01,4.05c-.03.08-.04.15-.04.19,0,.15.11.35.38.35.16,0,.39-.09.49-.35l.54-2.16c.07-.3.15-.58.22-.88.18-.69.18-.7.41-1.09.19-.32.8-1.34,1.82-1.34.59,0,.62.61.62.89,0,.84-.59,2.44-.78,2.98-.18.46-.22.58-.22.86,0,.59.38,1.08,1.03,1.08,1.26,0,1.71-2.01,1.71-2.08,0-.14-.11-.14-.2-.14-.18,0-.18.03-.23.23-.11.36-.47,1.69-1.26,1.69-.28,0-.3-.2-.3-.39,0-.34.14-.69.24-1.01.27-.72.82-2.23.82-3.01,0-1.11-.74-1.4-1.4-1.4-1.11,0-1.76.81-1.93,1.07-.09-.66-.55-1.07-1.13-1.07-.49,0-.76.31-.97.72-.26.54-.43,1.34-.43,1.36Zm7.92,1.94c0,1.15.62,2.09,1.63,2.09.49,0,1.08-.28,1.62-.95.15.66.65.95,1.12.95.5,0,.78-.34.99-.76.24-.51.41-1.3.41-1.32,0-.14-.11-.14-.2-.14-.16,0-.18.01-.26.31-.19.76-.45,1.61-.9,1.61-.35,0-.35-.36-.35-.55,0-.09,0-.31.09-.69l.92-3.67c.05-.19.05-.22.05-.28,0-.28-.23-.35-.36-.35-.43,0-.53.46-.54.53-.26-.58-.69-.8-1.12-.8-1.5,0-3.09,2.05-3.09,4.02Zm.92.59c0-.68.42-2.25.66-2.82.34-.82.96-1.5,1.51-1.5.59,0,.93.7.93,1.27,0,.03-.01.09-.04.18l-.63,2.55c-.11.43-.95,1.53-1.69,1.53-.63,0-.74-.8-.74-1.2Zm5.79.28c0,.72.49,1.22,1.13,1.22.51,0,.78-.36.96-.7.23-.47.42-1.34.42-1.38,0-.14-.11-.14-.2-.14-.07,0-.15,0-.19.07l-.09.34c-.23.95-.49,1.51-.86,1.51-.35,0-.35-.36-.35-.55,0-.09,0-.3.08-.62l1.93-7.71s.04-.15.04-.18c0-.12-.08-.16-.19-.16-.04,0-.18.01-.22.03l-1.34.11c-.16.01-.31.03-.31.28,0,.15.14.15.32.15.65,0,.68.09.68.23,0,.04-.04.22-.04.23l-1.69,6.75c-.01.05-.08.32-.08.53Zm7.2,3.52c0,.09.07.16.16.16.36,0,.76-.04,1.13-.04.43,0,.89.04,1.31.04.08,0,.26,0,.26-.26,0-.16-.14-.16-.32-.16-.69,0-.69-.08-.69-.22,0-.08.09-.43.15-.65l.49-1.97c.09.23.43.78,1.13.78,1.47,0,3.08-2,3.08-4.01,0-1.44-.81-2.11-1.62-2.11-.66,0-1.24.49-1.63.95-.16-.78-.77-.95-1.11-.95-.49,0-.76.31-.97.72-.26.54-.43,1.34-.43,1.36,0,.14.14.14.2.14.18,0,.19-.01.26-.31.24-.95.5-1.61.92-1.61.35,0,.35.39.35.54,0,.08,0,.3-.09.68l-1.54,6.18c-.11.42-.22.46-.74.47-.12,0-.28,0-.28.26Zm2.69-3.86s.01-.08.04-.19l.63-2.55c.11-.46.95-1.53,1.69-1.53.61,0,.74.77.74,1.2,0,.57-.36,2.17-.76,3.04-.16.34-.74,1.28-1.43,1.28-.78,0-.92-1.15-.92-1.26Zm4.79-.54c0,1.15.62,2.09,1.63,2.09.49,0,1.08-.28,1.62-.95.15.66.65.95,1.12.95.5,0,.78-.34.99-.76.24-.51.41-1.3.41-1.32,0-.14-.11-.14-.2-.14-.16,0-.18.01-.26.31-.19.76-.45,1.61-.9,1.61-.35,0-.35-.36-.35-.55,0-.09,0-.31.09-.69l.92-3.67c.05-.19.05-.22.05-.28,0-.28-.23-.35-.36-.35-.43,0-.53.46-.54.53-.26-.58-.69-.8-1.12-.8-1.5,0-3.09,2.05-3.09,4.02Zm.92.59c0-.68.42-2.25.66-2.82.34-.82.96-1.5,1.51-1.5.59,0,.93.7.93,1.27,0,.03-.01.09-.04.18l-.63,2.55c-.11.43-.95,1.53-1.69,1.53-.63,0-.74-.8-.74-1.2Zm4.71,3.81c0,.09.07.16.16.16.36,0,.76-.04,1.13-.04.43,0,.89.04,1.31.04.08,0,.26,0,.26-.26,0-.16-.14-.16-.32-.16-.69,0-.69-.08-.69-.22,0-.08.09-.43.15-.65l.49-1.97c.09.23.43.78,1.13.78,1.47,0,3.08-2,3.08-4.01,0-1.44-.81-2.11-1.62-2.11-.66,0-1.24.49-1.63.95-.16-.78-.77-.95-1.11-.95-.49,0-.76.31-.97.72-.26.54-.43,1.34-.43,1.36,0,.14.14.14.2.14.18,0,.19-.01.26-.31.24-.95.5-1.61.92-1.61.35,0,.35.39.35.54,0,.08,0,.3-.09.68l-1.54,6.18c-.11.42-.22.46-.74.47-.12,0-.28,0-.28.26Zm2.69-3.86s.01-.08.04-.19l.63-2.55c.11-.46.95-1.53,1.69-1.53.61,0,.74.77.74,1.2,0,.57-.36,2.17-.76,3.04-.16.34-.74,1.28-1.43,1.28-.78,0-.92-1.15-.92-1.26Zm4.87-.81c0,1.22.65,2.36,1.93,2.36,1.73,0,2.85-1.35,2.85-1.55,0-.07-.11-.22-.22-.22-.05,0-.07.01-.18.15-1,1.27-2.2,1.32-2.43,1.32-.88,0-1.03-.96-1.03-1.49s.14-1.12.23-1.49h.53c.41,0,1.31-.04,1.96-.3,1.07-.43,1.07-1.31,1.07-1.4,0-.62-.5-1.15-1.36-1.15-1.42,0-3.35,1.36-3.35,3.75Zm1.24-1.2c.58-2.21,1.97-2.25,2.11-2.25.54,0,.85.36.85.82,0,1.43-2.23,1.43-2.67,1.43h-.28Zm4.55-.47c0,.14.14.14.2.14.18,0,.19-.01.26-.31.24-.95.5-1.61.92-1.61.35,0,.35.39.35.54,0,.22-.04.47-.09.69l-1.01,4.05c-.03.08-.04.15-.04.19,0,.15.11.35.38.35.41,0,.5-.39.53-.5l.88-3.54s.62-1.78,1.78-1.78c.07,0,.45,0,.72.19-.47.15-.51.58-.51.65,0,.18.12.43.47.43.24,0,.66-.19.66-.72,0-.7-.88-.85-1.32-.85-.93,0-1.42.68-1.63.97-.15-.72-.68-.97-1.12-.97-.49,0-.76.31-.97.72-.26.54-.43,1.34-.43,1.36Zm6.08,3.31c0,.32.23.58.58.58.46,0,.86-.45.86-.85,0-.32-.23-.58-.58-.58-.46,0-.86.45-.86.85Z"/>
  </g>
</svg>