<?xml version="1.0" encoding="UTF-8"?>
<svg xmlns="http://www.w3.org/2000/svg" xmlns:xlink="http://www.w3.org/1999/xlink" viewBox="0 0 605 140">
  <defs>
    <style>
      .cls-1 {
        filter: url(#drop-shadow-50);
      }

      .cls-2 {
        fill: #fff591;
      }

      .cls-2, .cls-3, .cls-4, .cls-5, .cls-6 {
        stroke-width: 0px;
      }

      .cls-7 {
        filter: url(#drop-shadow-49);
      }

      .cls-8 {
        filter: url(#drop-shadow-43);
      }

      .cls-9 {
        filter: url(#drop-shadow-175);
      }

      .cls-10 {
        filter: url(#drop-shadow-173);
      }

      .cls-11 {
        filter: url(#drop-shadow-174);
      }

      .cls-12 {
        filter: url(#drop-shadow-176);
      }

      .cls-13 {
        filter: url(#drop-shadow-44);
      }

      .cls-14 {
        filter: url(#drop-shadow-172);
      }

      .cls-15 {
        fill: #1346fe;
      }

      .cls-15, .cls-16 {
        stroke: #000;
      }

      .cls-4 {
        fill: #e28ff1;
      }

      .cls-5 {
        fill: #9dc7ff;
      }

      .cls-6 {
        fill: #fff;
      }

      .cls-17 {
        filter: url(#drop-shadow-46);
      }

      .cls-18 {
        filter: url(#drop-shadow-47);
      }

      .cls-19 {
        filter: url(#drop-shadow-51);
      }

      .cls-20 {
        filter: url(#drop-shadow-45);
      }

      .cls-21 {
        filter: url(#drop-shadow-41);
      }

      .cls-22 {
        filter: url(#drop-shadow-171);
      }

      .cls-23 {
        filter: url(#drop-shadow-48);
      }

      .cls-16 {
        fill: none;
      }

      .cls-24 {
        filter: url(#drop-shadow-42);
      }
    </style>
    <filter id="drop-shadow-41" filterUnits="userSpaceOnUse">
      <feOffset dx="0" dy="0"/>
      <feGaussianBlur result="blur" stdDeviation="3"/>
      <feFlood flood-color="#000" flood-opacity="1"/>
      <feComposite in2="blur" operator="in"/>
      <feComposite in="SourceGraphic"/>
    </filter>
    <filter id="drop-shadow-42" filterUnits="userSpaceOnUse">
      <feOffset dx="0" dy="0"/>
      <feGaussianBlur result="blur-2" stdDeviation="3"/>
      <feFlood flood-color="#000" flood-opacity="1"/>
      <feComposite in2="blur-2" operator="in"/>
      <feComposite in="SourceGraphic"/>
    </filter>
    <filter id="drop-shadow-43" filterUnits="userSpaceOnUse">
      <feOffset dx="0" dy="0"/>
      <feGaussianBlur result="blur-3" stdDeviation="3"/>
      <feFlood flood-color="#000" flood-opacity="1"/>
      <feComposite in2="blur-3" operator="in"/>
      <feComposite in="SourceGraphic"/>
    </filter>
    <filter id="drop-shadow-44" filterUnits="userSpaceOnUse">
      <feOffset dx="0" dy="0"/>
      <feGaussianBlur result="blur-4" stdDeviation="3"/>
      <feFlood flood-color="#000" flood-opacity="1"/>
      <feComposite in2="blur-4" operator="in"/>
      <feComposite in="SourceGraphic"/>
    </filter>
    <filter id="drop-shadow-45" filterUnits="userSpaceOnUse">
      <feOffset dx="0" dy="0"/>
      <feGaussianBlur result="blur-5" stdDeviation="3"/>
      <feFlood flood-color="#000" flood-opacity="1"/>
      <feComposite in2="blur-5" operator="in"/>
      <feComposite in="SourceGraphic"/>
    </filter>
    <filter id="drop-shadow-46" filterUnits="userSpaceOnUse">
      <feOffset dx="0" dy="0"/>
      <feGaussianBlur result="blur-6" stdDeviation="3"/>
      <feFlood flood-color="#000" flood-opacity="1"/>
      <feComposite in2="blur-6" operator="in"/>
      <feComposite in="SourceGraphic"/>
    </filter>
    <filter id="drop-shadow-47" filterUnits="userSpaceOnUse">
      <feOffset dx="0" dy="0"/>
      <feGaussianBlur result="blur-7" stdDeviation="3"/>
      <feFlood flood-color="#000" flood-opacity="1"/>
      <feComposite in2="blur-7" operator="in"/>
      <feComposite in="SourceGraphic"/>
    </filter>
    <filter id="drop-shadow-48" filterUnits="userSpaceOnUse">
      <feOffset dx="0" dy="0"/>
      <feGaussianBlur result="blur-8" stdDeviation="3"/>
      <feFlood flood-color="#000" flood-opacity="1"/>
      <feComposite in2="blur-8" operator="in"/>
      <feComposite in="SourceGraphic"/>
    </filter>
    <filter id="drop-shadow-49" filterUnits="userSpaceOnUse">
      <feOffset dx="0" dy="0"/>
      <feGaussianBlur result="blur-9" stdDeviation="3"/>
      <feFlood flood-color="#000" flood-opacity="1"/>
      <feComposite in2="blur-9" operator="in"/>
      <feComposite in="SourceGraphic"/>
    </filter>
    <filter id="drop-shadow-50" filterUnits="userSpaceOnUse">
      <feOffset dx="0" dy="0"/>
      <feGaussianBlur result="blur-10" stdDeviation="3"/>
      <feFlood flood-color="#000" flood-opacity="1"/>
      <feComposite in2="blur-10" operator="in"/>
      <feComposite in="SourceGraphic"/>
    </filter>
    <filter id="drop-shadow-51" filterUnits="userSpaceOnUse">
      <feOffset dx="0" dy="0"/>
      <feGaussianBlur result="blur-11" stdDeviation="3"/>
      <feFlood flood-color="#000" flood-opacity="1"/>
      <feComposite in2="blur-11" operator="in"/>
      <feComposite in="SourceGraphic"/>
    </filter>
    <filter id="drop-shadow-171" filterUnits="userSpaceOnUse">
      <feOffset dx="0" dy="0"/>
      <feGaussianBlur result="blur-12" stdDeviation="3"/>
      <feFlood flood-color="#000" flood-opacity="1"/>
      <feComposite in2="blur-12" operator="in"/>
      <feComposite in="SourceGraphic"/>
    </filter>
    <filter id="drop-shadow-172" filterUnits="userSpaceOnUse">
      <feOffset dx="0" dy="0"/>
      <feGaussianBlur result="blur-13" stdDeviation="3"/>
      <feFlood flood-color="#000" flood-opacity="1"/>
      <feComposite in2="blur-13" operator="in"/>
      <feComposite in="SourceGraphic"/>
    </filter>
    <filter id="drop-shadow-173" filterUnits="userSpaceOnUse">
      <feOffset dx="0" dy="0"/>
      <feGaussianBlur result="blur-14" stdDeviation="3"/>
      <feFlood flood-color="#000" flood-opacity="1"/>
      <feComposite in2="blur-14" operator="in"/>
      <feComposite in="SourceGraphic"/>
    </filter>
    <filter id="drop-shadow-174" filterUnits="userSpaceOnUse">
      <feOffset dx="0" dy="0"/>
      <feGaussianBlur result="blur-15" stdDeviation="3"/>
      <feFlood flood-color="#000" flood-opacity="1"/>
      <feComposite in2="blur-15" operator="in"/>
      <feComposite in="SourceGraphic"/>
    </filter>
    <filter id="drop-shadow-175" filterUnits="userSpaceOnUse">
      <feOffset dx="0" dy="0"/>
      <feGaussianBlur result="blur-16" stdDeviation="3"/>
      <feFlood flood-color="#000" flood-opacity="1"/>
      <feComposite in2="blur-16" operator="in"/>
      <feComposite in="SourceGraphic"/>
    </filter>
    <filter id="drop-shadow-176" filterUnits="userSpaceOnUse">
      <feOffset dx="0" dy="0"/>
      <feGaussianBlur result="blur-17" stdDeviation="3"/>
      <feFlood flood-color="#000" flood-opacity="1"/>
      <feComposite in2="blur-17" operator="in"/>
      <feComposite in="SourceGraphic"/>
    </filter>
  </defs>
  <g id="Layer_1" data-name="Layer 1">
    <g class="cls-21">
      <polygon class="cls-5" points="355 55 355 135 305 135 305 55 355 55"/>
    </g>
    <g class="cls-24">
      <polygon class="cls-5" points="260 55 260 135 210 135 210 55 260 55"/>
    </g>
    <g class="cls-8">
      <polygon class="cls-5" points="600 55 600 135 550 135 550 55 600 55"/>
    </g>
    <g class="cls-13">
      <polygon class="cls-5" points="505 55 505 135 455 135 455 55 505 55"/>
    </g>
    <g class="cls-20">
      <polygon class="cls-5" points="110 55 110 135 60 135 60 55 110 55"/>
    </g>
    <g class="cls-17">
      <polygon class="cls-15" points="245 75 255 87.5 245 100 220 100 220 75 245 75"/>
    </g>
    <g class="cls-18">
      <polygon class="cls-15" points="340 105 350 117.5 340 130 315 130 315 105 340 105"/>
    </g>
    <g class="cls-23">
      <polygon class="cls-15" points="585 75 595 87.5 585 100 560 100 560 75 585 75"/>
    </g>
    <g class="cls-7">
      <polygon class="cls-15" points="490 105 500 117.5 490 130 465 130 465 105 490 105"/>
    </g>
    <g class="cls-1">
      <polygon class="cls-15" points="95 75 105 87.5 95 100 70 100 70 75 95 75"/>
    </g>
    <g class="cls-19">
      <polygon class="cls-15" points="95 105 105 117.5 95 130 70 130 70 105 95 105"/>
    </g>
    <g class="cls-22">
      <path class="cls-4" d="m175,60h30v70h-30V60Z"/>
    </g>
    <g class="cls-14">
      <path class="cls-4" d="m265,95h35v35h-35v-35Z"/>
    </g>
    <g class="cls-10">
      <path class="cls-4" d="m420,60h30v70h-30V60Z"/>
    </g>
    <g class="cls-11">
      <path class="cls-4" d="m510,60h35v35h-35v-35Z"/>
    </g>
    <g class="cls-9">
      <path class="cls-4" d="m25,60h30v70h-30V60Z"/>
    </g>
    <g class="cls-12">
      <polygon class="cls-2" points="545 45 10 45 10 5 545 5 545 45"/>
    </g>
  </g>
  <g id="Layer_4" data-name="Layer 4">
    <g>
      <path class="cls-6" d="m227.69,85.48l.14.41.65-.43c.75-.47.82-.51.96-.51.2,0,.37.2.37.47,0,.14-.08.61-.16.9l-1.35,4.9c-.16.63-.27,1.18-.27,1.57,0,.49.22.8.61.8.53,0,1.26-.43,3.26-1.92l-.2-.37-.53.35c-.59.39-1.06.61-1.24.61-.14,0-.27-.2-.27-.41s.04-.39.14-.82l1.57-6.2c.08-.35.12-.57.12-.73,0-.35-.18-.53-.51-.53-.45,0-1.2.43-2.73,1.51l-.57.41Zm3.96-6.61c-.59,0-1.18.67-1.18,1.37,0,.51.31.84.8.84.63,0,1.12-.59,1.12-1.37,0-.49-.31-.84-.73-.84Z"/>
      <path class="cls-6" d="m237.14,94.09l-.41,1.81c-.06.24-.09.5-.09.73,0,.31.13.5.34.5.33,0,.91-.37,2.08-1.34l-.1-.3c-.34.29-.76.67-1.07.67-.13,0-.21-.13-.21-.33,0-.07,0-.11.01-.16l1.31-5.41-.14-.13-.47.26c-.59-.21-.83-.27-1.21-.27s-.69.07-1.07.26c-.89.44-1.36.87-1.71,1.57-.63,1.27-1.07,2.98-1.07,4.1,0,.63.21,1.11.49,1.11.53,0,1.67-.74,3.33-3.07Zm.69-3c-.31,1.56-.59,2.3-1.07,3.04-.81,1.2-1.69,2.03-2.14,2.03-.17,0-.26-.19-.26-.57,0-.91.4-2.58.9-3.73.34-.79.67-1.04,1.36-1.04.33,0,.59.06,1.21.27Z"/>
    </g>
    <g>
      <path class="cls-6" d="m325.96,116.24l-2.04,10.1c-.22,1.06-.59,1.77-.96,1.77-.29,0-.65-.12-1.08-.39l-.16,1.16c.2.1.47.14.78.14.82,0,1.63-.88,2.37-2.53.41-.92.69-1.94,1.26-4.53l1.55-7.14c.08-.37.12-.63.12-.75,0-.33-.18-.51-.51-.51-.45,0-1.2.43-2.73,1.51l-.57.41.14.41.65-.43c.75-.47.82-.51.96-.51.2,0,.37.2.37.47,0,.18-.14.71-.14.82Zm1.86-7.36c-.59,0-1.18.67-1.18,1.37,0,.51.31.84.8.84.63,0,1.12-.59,1.12-1.37,0-.49-.31-.84-.73-.84Z"/>
      <path class="cls-6" d="m332.64,116.69l-.17-.16c-.74.37-1.26.5-2.28.6l-.06.3h.69c.34,0,.49.1.49.34,0,.1-.01.26-.03.34l-1.44,7.87s-.01.1-.01.14c0,.56.69,1.03,1.47,1.03.53,0,1.26-.27,1.87-.71,1.37-.97,2.31-2.93,2.31-4.81,0-.54-.13-1.1-.3-1.31-.1-.13-.29-.2-.5-.2-.34,0-.77.11-1.17.31-.73.39-1.2.81-2.08,1.94l1.23-5.68Zm1.24,4.26c.37,0,.56.33.56,1.03,0,.91-.3,2.14-.73,3.07-.47.99-1.04,1.44-1.81,1.44-.66,0-1.01-.33-1.01-.93,0-.49.21-2.5,1.37-3.71.47-.49,1.21-.9,1.63-.9Z"/>
    </g>
    <g>
      <path class="cls-6" d="m567.69,85.48l.14.41.65-.43c.75-.47.82-.51.96-.51.2,0,.37.2.37.47,0,.14-.08.61-.16.9l-1.35,4.9c-.16.63-.27,1.18-.27,1.57,0,.49.22.8.61.8.53,0,1.26-.43,3.26-1.92l-.2-.37-.53.35c-.59.39-1.06.61-1.24.61-.14,0-.27-.2-.27-.41s.04-.39.14-.82l1.57-6.2c.08-.35.12-.57.12-.73,0-.35-.18-.53-.51-.53-.45,0-1.2.43-2.73,1.51l-.57.41Zm3.96-6.61c-.59,0-1.18.67-1.18,1.37,0,.51.31.84.8.84.63,0,1.12-.59,1.12-1.37,0-.49-.31-.84-.73-.84Z"/>
      <path class="cls-6" d="m577.14,94.09l-.41,1.81c-.06.24-.09.5-.09.73,0,.31.13.5.34.5.33,0,.91-.37,2.08-1.34l-.1-.3c-.34.29-.76.67-1.07.67-.13,0-.21-.13-.21-.33,0-.07,0-.11.01-.16l1.31-5.41-.14-.13-.47.26c-.59-.21-.83-.27-1.21-.27s-.69.07-1.07.26c-.89.44-1.36.87-1.71,1.57-.63,1.27-1.07,2.98-1.07,4.1,0,.63.21,1.11.49,1.11.53,0,1.67-.74,3.33-3.07Zm.69-3c-.31,1.56-.59,2.3-1.07,3.04-.81,1.2-1.69,2.03-2.14,2.03-.17,0-.26-.19-.26-.57,0-.91.4-2.58.9-3.73.34-.79.67-1.04,1.36-1.04.33,0,.59.06,1.21.27Z"/>
    </g>
    <g>
      <path class="cls-6" d="m475.96,116.24l-2.04,10.1c-.22,1.06-.59,1.77-.96,1.77-.29,0-.65-.12-1.08-.39l-.16,1.16c.2.1.47.14.78.14.82,0,1.63-.88,2.37-2.53.41-.92.69-1.94,1.26-4.53l1.55-7.14c.08-.37.12-.63.12-.75,0-.33-.18-.51-.51-.51-.45,0-1.2.43-2.73,1.51l-.57.41.14.41.65-.43c.75-.47.82-.51.96-.51.2,0,.37.2.37.47,0,.18-.14.71-.14.82Zm1.86-7.36c-.59,0-1.18.67-1.18,1.37,0,.51.31.84.8.84.63,0,1.12-.59,1.12-1.37,0-.49-.31-.84-.73-.84Z"/>
      <path class="cls-6" d="m482.64,116.69l-.17-.16c-.74.37-1.26.5-2.28.6l-.06.3h.69c.34,0,.49.1.49.34,0,.1-.01.26-.03.34l-1.44,7.87s-.01.1-.01.14c0,.56.69,1.03,1.47,1.03.53,0,1.26-.27,1.87-.71,1.37-.97,2.31-2.93,2.31-4.81,0-.54-.13-1.1-.3-1.31-.1-.13-.29-.2-.5-.2-.34,0-.77.11-1.17.31-.73.39-1.2.81-2.08,1.94l1.23-5.68Zm1.24,4.26c.37,0,.56.33.56,1.03,0,.91-.3,2.14-.73,3.07-.47.99-1.04,1.44-1.81,1.44-.66,0-1.01-.33-1.01-.93,0-.49.21-2.5,1.37-3.71.47-.49,1.21-.9,1.63-.9Z"/>
    </g>
    <g>
      <path class="cls-6" d="m77.69,85.48l.14.41.65-.43c.75-.47.82-.51.96-.51.2,0,.37.2.37.47,0,.14-.08.61-.16.9l-1.35,4.9c-.16.63-.27,1.18-.27,1.57,0,.49.22.8.61.8.53,0,1.26-.43,3.26-1.92l-.2-.37-.53.35c-.59.39-1.06.61-1.24.61-.14,0-.27-.2-.27-.41s.04-.39.14-.82l1.57-6.2c.08-.35.12-.57.12-.73,0-.35-.18-.53-.51-.53-.45,0-1.2.43-2.73,1.51l-.57.41Zm3.96-6.61c-.59,0-1.18.67-1.18,1.37,0,.51.31.84.8.84.63,0,1.12-.59,1.12-1.37,0-.49-.31-.84-.73-.84Z"/>
      <path class="cls-6" d="m87.14,94.09l-.41,1.81c-.06.24-.09.5-.09.73,0,.31.13.5.34.5.33,0,.91-.37,2.08-1.34l-.1-.3c-.34.29-.76.67-1.07.67-.13,0-.21-.13-.21-.33,0-.07,0-.11.01-.16l1.31-5.41-.14-.13-.47.26c-.59-.21-.83-.27-1.21-.27s-.69.07-1.07.26c-.89.44-1.36.87-1.71,1.57-.63,1.27-1.07,2.98-1.07,4.1,0,.63.21,1.11.49,1.11.53,0,1.67-.74,3.33-3.07Zm.69-3c-.31,1.56-.59,2.3-1.07,3.04-.81,1.2-1.69,2.03-2.14,2.03-.17,0-.26-.19-.26-.57,0-.91.4-2.58.9-3.73.34-.79.67-1.04,1.36-1.04.33,0,.59.06,1.21.27Z"/>
    </g>
    <g>
      <path class="cls-6" d="m80.96,116.24l-2.04,10.1c-.22,1.06-.59,1.77-.96,1.77-.29,0-.65-.12-1.08-.39l-.16,1.16c.2.1.47.14.78.14.82,0,1.63-.88,2.37-2.53.41-.92.69-1.94,1.26-4.53l1.55-7.14c.08-.37.12-.63.12-.75,0-.33-.18-.51-.51-.51-.45,0-1.2.43-2.73,1.51l-.57.41.14.41.65-.43c.75-.47.82-.51.96-.51.2,0,.37.2.37.47,0,.18-.14.71-.14.82Zm1.86-7.36c-.59,0-1.18.67-1.18,1.37,0,.51.31.84.8.84.63,0,1.12-.59,1.12-1.37,0-.49-.31-.84-.73-.84Z"/>
      <path class="cls-6" d="m87.64,116.69l-.17-.16c-.74.37-1.26.5-2.28.6l-.06.3h.69c.34,0,.49.1.49.34,0,.1-.01.26-.03.34l-1.44,7.87s-.01.1-.01.14c0,.56.69,1.03,1.47,1.03.53,0,1.26-.27,1.87-.71,1.37-.97,2.31-2.93,2.31-4.81,0-.54-.13-1.1-.3-1.31-.1-.13-.29-.2-.5-.2-.34,0-.77.11-1.17.31-.73.39-1.2.81-2.08,1.94l1.23-5.68Zm1.24,4.26c.37,0,.56.33.56,1.03,0,.91-.3,2.14-.73,3.07-.47.99-1.04,1.44-1.81,1.44-.66,0-1.01-.33-1.01-.93,0-.49.21-2.5,1.37-3.71.47-.49,1.21-.9,1.63-.9Z"/>
    </g>
    <path class="cls-3" d="m190.11,83.53l-.49,2.16c-.07.29-.1.6-.1.87,0,.37.15.6.41.6.39,0,1.09-.44,2.48-1.6l-.12-.36c-.41.34-.9.8-1.28.8-.15,0-.26-.15-.26-.39,0-.09,0-.14.02-.19l1.56-6.44-.17-.15-.56.31c-.7-.26-.99-.32-1.45-.32s-.82.09-1.28.31c-1.05.53-1.62,1.04-2.04,1.87-.75,1.51-1.28,3.55-1.28,4.88,0,.75.26,1.33.58,1.33.63,0,1.99-.88,3.96-3.66Zm.82-3.57c-.37,1.85-.7,2.74-1.28,3.62-.97,1.43-2.01,2.41-2.55,2.41-.2,0-.31-.22-.31-.68,0-1.09.48-3.08,1.07-4.44.41-.94.8-1.24,1.62-1.24.39,0,.7.07,1.45.32Z"/>
    <path class="cls-3" d="m189.5,104.73l-.2-.19c-.88.44-1.5.6-2.72.71l-.07.36h.82c.41,0,.58.12.58.41,0,.12-.02.31-.03.41l-1.72,9.37c-.02.05-.02.12-.02.17,0,.66.82,1.22,1.75,1.22.63,0,1.5-.32,2.23-.85,1.63-1.16,2.75-3.49,2.75-5.73,0-.65-.15-1.31-.36-1.56-.12-.15-.34-.24-.6-.24-.41,0-.92.14-1.39.37-.87.46-1.43.97-2.48,2.31l1.46-6.77Zm1.48,5.07c.44,0,.66.39.66,1.22,0,1.09-.36,2.55-.87,3.66-.56,1.17-1.24,1.72-2.16,1.72-.78,0-1.21-.39-1.21-1.11,0-.58.26-2.98,1.63-4.42.56-.58,1.45-1.07,1.94-1.07Z"/>
    <path class="cls-3" d="m282,104.73l-.2-.19c-.88.44-1.5.6-2.72.71l-.07.36h.82c.41,0,.58.12.58.41,0,.12-.02.31-.03.41l-1.72,9.37c-.02.05-.02.12-.02.17,0,.66.82,1.22,1.75,1.22.63,0,1.5-.32,2.23-.85,1.63-1.16,2.75-3.49,2.75-5.73,0-.65-.15-1.31-.36-1.56-.12-.15-.34-.24-.6-.24-.41,0-.92.14-1.39.37-.87.46-1.43.97-2.48,2.31l1.46-6.77Zm1.48,5.07c.44,0,.66.39.66,1.22,0,1.09-.36,2.55-.87,3.66-.56,1.17-1.24,1.72-2.16,1.72-.78,0-1.21-.39-1.21-1.11,0-.58.26-2.98,1.63-4.42.56-.58,1.45-1.07,1.94-1.07Z"/>
    <path class="cls-3" d="m435.11,83.53l-.49,2.16c-.07.29-.1.6-.1.87,0,.37.15.6.41.6.39,0,1.09-.44,2.48-1.6l-.12-.36c-.41.34-.9.8-1.28.8-.15,0-.26-.15-.26-.39,0-.09,0-.14.02-.19l1.56-6.44-.17-.15-.56.31c-.7-.26-.99-.32-1.45-.32s-.82.09-1.28.31c-1.05.53-1.62,1.04-2.04,1.87-.75,1.51-1.28,3.55-1.28,4.88,0,.75.26,1.33.58,1.33.63,0,1.99-.88,3.96-3.66Zm.82-3.57c-.37,1.85-.7,2.74-1.28,3.62-.97,1.43-2.01,2.41-2.55,2.41-.2,0-.31-.22-.31-.68,0-1.09.48-3.08,1.07-4.44.41-.94.8-1.24,1.62-1.24.39,0,.7.07,1.45.32Z"/>
    <path class="cls-3" d="m434.5,104.73l-.2-.19c-.88.44-1.5.6-2.72.71l-.07.36h.82c.41,0,.58.12.58.41,0,.12-.02.31-.03.41l-1.72,9.37c-.02.05-.02.12-.02.17,0,.66.82,1.22,1.75,1.22.63,0,1.5-.32,2.23-.85,1.63-1.16,2.75-3.49,2.75-5.73,0-.65-.15-1.31-.36-1.56-.12-.15-.34-.24-.6-.24-.41,0-.92.14-1.39.37-.87.46-1.43.97-2.48,2.31l1.46-6.77Zm1.48,5.07c.44,0,.66.39.66,1.22,0,1.09-.36,2.55-.87,3.66-.56,1.17-1.24,1.72-2.16,1.72-.78,0-1.21-.39-1.21-1.11,0-.58.26-2.98,1.63-4.42.56-.58,1.45-1.07,1.94-1.07Z"/>
    <path class="cls-3" d="m527.61,83.53l-.49,2.16c-.07.29-.1.6-.1.87,0,.37.15.6.41.6.39,0,1.09-.44,2.48-1.6l-.12-.36c-.41.34-.9.8-1.28.8-.15,0-.26-.15-.26-.39,0-.09,0-.14.02-.19l1.56-6.44-.17-.15-.56.31c-.7-.26-.99-.32-1.45-.32s-.82.09-1.28.31c-1.05.53-1.62,1.04-2.04,1.87-.75,1.51-1.28,3.55-1.28,4.88,0,.75.26,1.33.58,1.33.63,0,1.99-.88,3.96-3.66Zm.82-3.57c-.37,1.85-.7,2.74-1.28,3.62-.97,1.43-2.01,2.41-2.55,2.41-.2,0-.31-.22-.31-.68,0-1.09.48-3.08,1.07-4.44.41-.94.8-1.24,1.62-1.24.39,0,.7.07,1.45.32Z"/>
    <path class="cls-3" d="m40.11,83.53l-.49,2.16c-.07.29-.1.6-.1.87,0,.37.15.6.41.6.39,0,1.09-.44,2.48-1.6l-.12-.36c-.41.34-.9.8-1.28.8-.15,0-.26-.15-.26-.39,0-.09,0-.14.02-.19l1.56-6.44-.17-.15-.56.31c-.7-.26-.99-.32-1.45-.32s-.82.09-1.28.31c-1.05.53-1.62,1.04-2.04,1.87-.75,1.51-1.28,3.55-1.28,4.88,0,.75.26,1.33.58,1.33.63,0,1.99-.88,3.96-3.66Zm.82-3.57c-.37,1.85-.7,2.74-1.28,3.62-.97,1.43-2.01,2.41-2.55,2.41-.2,0-.31-.22-.31-.68,0-1.09.48-3.08,1.07-4.44.41-.94.8-1.24,1.62-1.24.39,0,.7.07,1.45.32Z"/>
    <path class="cls-3" d="m39.5,104.73l-.2-.19c-.88.44-1.5.6-2.72.71l-.07.36h.82c.41,0,.58.12.58.41,0,.12-.02.31-.03.41l-1.72,9.37c-.02.05-.02.12-.02.17,0,.66.82,1.22,1.75,1.22.63,0,1.5-.32,2.23-.85,1.63-1.16,2.75-3.49,2.75-5.73,0-.65-.15-1.31-.36-1.56-.12-.15-.34-.24-.6-.24-.41,0-.92.14-1.39.37-.87.46-1.43.97-2.48,2.31l1.46-6.77Zm1.48,5.07c.44,0,.66.39.66,1.22,0,1.09-.36,2.55-.87,3.66-.56,1.17-1.24,1.72-2.16,1.72-.78,0-1.21-.39-1.21-1.11,0-.58.26-2.98,1.63-4.42.56-.58,1.45-1.07,1.94-1.07Z"/>
    <path class="cls-3" d="m143.58,104.2v-1.74h-15.85v1.74h15.85Zm0,6.26v-1.74h-15.85v1.74h15.85Z"/>
    <path class="cls-3" d="m387.58,104.2v-1.74h-15.85v1.74h15.85Zm0,6.26v-1.74h-15.85v1.74h15.85Z"/>
    <g>
      <g>
        <path class="cls-3" d="m14.27,20.5h1.22v-4.46h4.59v4.46h1.22v-9.37h-1.22v4.08h-4.59v-4.08h-1.22v9.37Zm8.75-3.05c0,1.67,1.17,3.2,2.94,3.2.85,0,1.55-.3,2.13-.69l-.08-.89c-.59.43-1.2.74-2.05.74-1.03,0-1.94-.89-2-2.28h4.19v-.39c-.12-2.31-1.44-2.86-2.4-2.86-1.43,0-2.73,1.36-2.73,3.17Zm1.01-.66c.15-.66.69-1.67,1.71-1.67.39,0,1.4.18,1.63,1.67h-3.35Zm5.62,3.71h1.01v-2.78c0-1.97,1.5-2.43,2.3-2.46v-.9c-1.43.03-2.15.95-2.36,1.28v-1.22h-.95v6.08Zm3.98-3.05c0,1.67,1.17,3.2,2.94,3.2.85,0,1.55-.3,2.13-.69l-.08-.89c-.59.43-1.2.74-2.05.74-1.03,0-1.94-.89-2-2.28h4.19v-.39c-.12-2.31-1.44-2.86-2.4-2.86-1.43,0-2.73,1.36-2.73,3.17Zm1.01-.66c.15-.66.69-1.67,1.71-1.67.39,0,1.4.18,1.63,1.67h-3.35Zm5.82,3.71h.35l-.35,1.69h.57l.55-1.69v-.19s.01-.95.01-.95h-1.13v1.13Zm7.2-5.21h1.13v3.63c0,1.49.66,1.73,1.11,1.73.61,0,1.3-.14,2-.51l-.22-.8c-.19.14-.61.45-1.19.45-.7,0-.73-.8-.73-1.17v-3.32h1.9v-.8h-1.9v-1.7h-.95v1.7h-1.16v.8Zm5.71,5.21h1.05v-3.24c0-1,.34-2.08,1.38-2.08,1.32,0,1.32,1.01,1.32,1.53v3.79h1.05v-3.89c0-.82-.05-2.25-1.85-2.25-.93,0-1.51.45-1.94.96v-4.56h-1.01v9.75Zm6.36-3.05c0,1.67,1.17,3.2,2.94,3.2.85,0,1.55-.3,2.13-.69l-.08-.89c-.59.43-1.2.74-2.05.74-1.03,0-1.94-.89-2-2.28h4.19v-.39c-.12-2.31-1.44-2.86-2.4-2.86-1.43,0-2.73,1.36-2.73,3.17Zm1.01-.66c.15-.66.69-1.67,1.71-1.67.39,0,1.4.18,1.63,1.67h-3.35Zm9.38,3.25c1.01.55,1.84.61,2.3.61,1.81,0,2.2-1.12,2.2-1.86,0-.88-.62-1.44-1.17-1.69-.84-.38-2.28-.2-2.28-1.19,0-.34.2-.82,1.13-.82s1.4.24,1.94.5l.15-.89c-.74-.31-1.22-.42-1.97-.42-1.84,0-2.21,1.07-2.21,1.78,0,.95.81,1.47,1.4,1.66.42.14,1,.2,1.3.3.27.08.76.35.76.86,0,.36-.24.92-1.26.92-1.09,0-1.74-.46-2.12-.68l-.16.92Zm5-5.55l2.52,5.76c.05.11.07.16.07.23,0,.05-.01.12-.05.22-.58,1.4-.69,1.81-1.26,1.81-.23,0-.53-.08-.99-.23l.07.88c.32.08.73.11.99.11.62,0,1.01-.31,1.55-1.55l2.93-7.22h-1.01c-.89,2.21-1.77,4.41-1.8,5.33-.12-.77-.12-1.13-1.96-5.33h-1.07Zm7.11,6.01h1.05v-3.24c0-1,.34-2.08,1.38-2.08,1.32,0,1.32,1.01,1.32,1.53v3.79h1.05v-3.24c0-1,.34-2.08,1.38-2.08,1.32,0,1.31,1.53,1.31,1.53v3.79h1.07v-3.89c0-.78-.04-2.25-1.85-2.25-1.23,0-1.84.82-2.04,1.09-.19-.51-.59-1.09-1.71-1.09-1.19,0-1.78.77-1.97,1.01v-.95h-.99v6.08Zm10.73,0h1.05v-.62c.46.42,1.01.77,1.81.77,1.34,0,2.52-1.31,2.52-3.17,0-1.62-.88-3.12-2.21-3.12-.42,0-1.3.09-2.16.78v-4.39h-1.01v9.75Zm1.05-1.8v-2.52c0-.5.74-1,1.44-1s1.82.51,1.82,2.31-1.16,2.34-1.93,2.34c-.39,0-.8-.16-1.11-.54-.18-.26-.23-.23-.23-.58Zm5.62-1.19c0,1.84,1.42,3.13,2.96,3.13s2.97-1.28,2.97-3.12c0-1.69-1.24-3.25-2.97-3.25-1.59,0-2.96,1.4-2.96,3.24Zm1.05-.14c0-1.63,1.04-2.27,1.9-2.27s1.9.62,1.9,2.27-1,2.4-1.9,2.4-1.9-.7-1.9-2.4Zm6.39,3.12h1.01v-9.75h-1.01v9.75Zm2.5-.46c1.01.55,1.84.61,2.3.61,1.81,0,2.2-1.12,2.2-1.86,0-.88-.62-1.44-1.17-1.69-.84-.38-2.28-.2-2.28-1.19,0-.34.2-.82,1.13-.82s1.4.24,1.94.5l.15-.89c-.74-.31-1.22-.42-1.97-.42-1.84,0-2.21,1.07-2.21,1.78,0,.95.81,1.47,1.4,1.66.42.14,1,.2,1.3.3.27.08.76.35.76.86,0,.36-.24.92-1.26.92-1.09,0-1.74-.46-2.12-.68l-.16.92Z"/>
        <g>
          <path class="cls-3" d="m119.4,15.36l.11.31.49-.32c.57-.35.61-.38.72-.38.15,0,.28.15.28.35,0,.11-.06.46-.12.67l-1.01,3.67c-.12.47-.2.89-.2,1.18,0,.37.17.6.46.6.4,0,.95-.32,2.45-1.44l-.15-.28-.4.26c-.44.29-.8.46-.93.46-.11,0-.2-.15-.2-.31s.03-.29.11-.61l1.18-4.65c.06-.26.09-.43.09-.55,0-.26-.14-.4-.38-.4-.34,0-.9.32-2.05,1.13l-.43.31Zm2.97-4.96c-.44,0-.89.5-.89,1.03,0,.38.23.63.6.63.47,0,.84-.44.84-1.03,0-.37-.23-.63-.55-.63Z"/>
          <path class="cls-3" d="m126.48,21.82l-.31,1.36c-.04.18-.06.37-.06.55,0,.24.1.37.26.37.25,0,.69-.28,1.56-1.01l-.07-.22c-.26.21-.57.5-.8.5-.1,0-.16-.1-.16-.25,0-.05,0-.09.01-.12l.99-4.06-.11-.1-.35.19c-.44-.16-.62-.2-.91-.2s-.51.05-.8.19c-.66.33-1.02.65-1.29,1.18-.47.95-.8,2.24-.8,3.07,0,.47.16.84.36.84.4,0,1.25-.56,2.5-2.3Zm.51-2.25c-.24,1.17-.44,1.72-.8,2.28-.61.9-1.26,1.52-1.61,1.52-.13,0-.19-.14-.19-.43,0-.69.3-1.94.67-2.8.26-.59.5-.78,1.02-.78.25,0,.44.04.91.2Z"/>
        </g>
        <path class="cls-3" d="m134.82,20.5h1.01v-6.01h-1.01v6.01Zm-.09-7.97h1.22v-1.2h-1.22v1.2Zm2.47,2.75h1.13v3.63c0,1.49.66,1.73,1.11,1.73.61,0,1.3-.14,2-.51l-.22-.8c-.19.14-.61.45-1.19.45-.7,0-.73-.8-.73-1.17v-3.32h1.9v-.8h-1.9v-1.7h-.95v1.7h-1.16v.8Zm5.09,2.16c0,1.67,1.17,3.2,2.94,3.2.85,0,1.55-.3,2.13-.69l-.08-.89c-.59.43-1.2.74-2.05.74-1.03,0-1.94-.89-2-2.28h4.19v-.39c-.12-2.31-1.44-2.86-2.4-2.86-1.43,0-2.73,1.36-2.73,3.17Zm1.01-.66c.15-.66.69-1.67,1.71-1.67.39,0,1.4.18,1.63,1.67h-3.35Zm5.62,3.71h1.01v-2.78c0-1.97,1.5-2.43,2.3-2.46v-.9c-1.43.03-2.15.95-2.36,1.28v-1.22h-.95v6.08Zm4.12-1.53c0,.62.41,1.67,1.54,1.67,1.49,0,2.23-.61,2.24-.62v.47h1.03v-4.12c-.07-1.13-.96-2.11-2.24-2.11-.85,0-1.47.22-2.12.59l.08.9c.45-.31,1.01-.69,2.03-.69.18,0,.53.01.85.41.34.41.34.86.35,1.24v.46c-1.39.01-3.75.35-3.75,1.78Zm.99-.01c0-.85,1.8-1.05,2.77-1.07v.85c0,.88-.93,1.07-1.51,1.07-.73,0-1.26-.36-1.26-.85Zm5.14-3.67h1.13v3.63c0,1.49.66,1.73,1.11,1.73.61,0,1.3-.14,2-.51l-.22-.8c-.19.14-.61.45-1.19.45-.7,0-.73-.8-.73-1.17v-3.32h1.9v-.8h-1.9v-1.7h-.95v1.7h-1.16v.8Zm5.09,2.16c0,1.67,1.17,3.2,2.94,3.2.85,0,1.55-.3,2.13-.69l-.08-.89c-.59.43-1.2.74-2.05.74-1.03,0-1.94-.89-2-2.28h4.19v-.39c-.12-2.31-1.44-2.86-2.4-2.86-1.43,0-2.73,1.36-2.73,3.17Zm1.01-.66c.15-.66.69-1.67,1.71-1.67.39,0,1.4.18,1.63,1.67h-3.35Zm9.42.73c0,1.84,1.42,3.13,2.96,3.13s2.97-1.28,2.97-3.12c0-1.69-1.24-3.25-2.97-3.25-1.59,0-2.96,1.4-2.96,3.24Zm1.05-.14c0-1.63,1.04-2.27,1.9-2.27s1.9.62,1.9,2.27-1,2.4-1.9,2.4-1.9-.7-1.9-2.4Zm5.48-2.89l2.32,6.01h1.19l2.32-6.01h-1c-1.31,3.4-1.81,4.79-1.89,5.33-.07-.42-.15-.63-.65-2.04l-1.26-3.29h-1.04Zm6.49,2.96c0,1.67,1.17,3.2,2.94,3.2.85,0,1.55-.3,2.13-.69l-.08-.89c-.59.43-1.2.74-2.05.74-1.03,0-1.94-.89-2-2.28h4.19v-.39c-.12-2.31-1.44-2.86-2.4-2.86-1.43,0-2.73,1.36-2.73,3.17Zm1.01-.66c.15-.66.69-1.67,1.71-1.67.39,0,1.4.18,1.63,1.67h-3.35Zm5.62,3.71h1.01v-2.78c0-1.97,1.5-2.43,2.3-2.46v-.9c-1.43.03-2.15.95-2.36,1.28v-1.22h-.95v6.08Z"/>
        <g>
          <path class="cls-3" d="m206.8,23.98c-.96-.21-1.27-.89-1.27-1.99v-2.65c0-1.21-.14-1.91-1.24-2.2v-.03c1.06-.28,1.24-.93,1.24-2.07v-2.85c0-1.1.28-1.71,1.27-2-1.53,0-2.37.35-2.37,2.26v2.85c0,.99-.21,1.53-1.16,1.82,1.01.29,1.16.77,1.16,1.87v2.57c0,2.02.64,2.42,2.37,2.42Z"/>
          <path class="cls-3" d="m212.24,10.76c-2.37,0-3.58,1.88-3.58,5.58,0,1.79.32,3.34.86,4.09s1.39,1.18,2.34,1.18c2.31,0,3.47-1.99,3.47-5.91,0-3.35-.99-4.94-3.09-4.94Zm-.28.54c1.48,0,2.08,1.5,2.08,5.17,0,3.26-.58,4.61-1.99,4.61-1.48,0-2.11-1.55-2.11-5.28,0-3.23.57-4.5,2.02-4.5Z"/>
          <path class="cls-3" d="m226.54,19.53c-.46,0-.87.43-.87.89s.41.89.86.89c.49,0,.92-.41.92-.89s-.43-.89-.9-.89Zm-5.09,0c-.46,0-.87.43-.87.89s.41.89.86.89c.49,0,.92-.41.92-.89s-.43-.89-.9-.89Zm10.19,0c-.46,0-.87.43-.87.89s.41.89.86.89c.49,0,.92-.41.92-.89s-.43-.89-.9-.89Z"/>
          <path class="cls-3" d="m241.41,18.18l-.44,1.94c-.06.26-.09.54-.09.78,0,.34.14.54.37.54.35,0,.98-.4,2.23-1.44l-.11-.32c-.37.31-.81.72-1.15.72-.14,0-.23-.14-.23-.35,0-.08,0-.12.02-.17l1.41-5.8-.15-.14-.5.28c-.63-.23-.89-.29-1.3-.29s-.73.08-1.15.28c-.95.47-1.45.93-1.84,1.68-.67,1.36-1.15,3.2-1.15,4.39,0,.67.23,1.19.52,1.19.57,0,1.79-.8,3.56-3.29Zm.73-3.21c-.34,1.67-.63,2.46-1.15,3.26-.87,1.29-1.81,2.17-2.3,2.17-.18,0-.28-.2-.28-.61,0-.98.43-2.77.96-3.99.37-.84.72-1.12,1.45-1.12.35,0,.63.06,1.3.29Z"/>
          <path class="cls-3" d="m255.59,17.58v-.86h-7.71v.86h7.71Z"/>
          <path class="cls-3" d="m265.8,21.35v-.46l-.8-.05c-.84-.05-.99-.21-.99-1.01v-9.24l-3.69,1.56.11.77,2.3-1.01v7.93c0,.8-.17.96-.99,1.01l-.86.05v.46q2.36-.05,2.52-.05c.47,0,2.16.05,2.4.05Z"/>
          <path class="cls-3" d="m272,17.12c-.95-.29-1.16-.83-1.16-1.82v-2.85c0-1.91-.84-2.26-2.37-2.26.99.29,1.27.9,1.27,2v2.85c0,1.13.18,1.79,1.24,2.07v.03c-1.1.29-1.24.99-1.24,2.2v2.65c0,1.1-.31,1.77-1.27,1.99,1.73,0,2.37-.4,2.37-2.42v-2.57c0-1.1.15-1.58,1.16-1.87Z"/>
        </g>
        <path class="cls-3" d="m274.19,20.5h.35l-.35,1.69h.57l.55-1.69v-.19s.01-.95.01-.95h-1.13v1.13Zm7.55-1.53c0,.62.41,1.67,1.54,1.67,1.49,0,2.23-.61,2.24-.62v.47h1.03v-4.12c-.07-1.13-.96-2.11-2.24-2.11-.85,0-1.47.22-2.12.59l.08.9c.45-.31,1.01-.69,2.03-.69.18,0,.53.01.85.41.34.41.34.86.35,1.24v.46c-1.39.01-3.75.35-3.75,1.78Zm.99-.01c0-.85,1.8-1.05,2.77-1.07v.85c0,.88-.93,1.07-1.51,1.07-.73,0-1.26-.36-1.26-.85Zm5.98,1.54h1.05v-3.24c0-1,.34-2.08,1.38-2.08,1.32,0,1.32,1.01,1.32,1.53v3.79h1.05v-3.89c0-.95-.12-2.25-1.85-2.25-1.19,0-1.78.77-1.97,1.01v-.95h-.99v6.08Zm6.37-2.98c0,1.61.95,3.13,2.32,3.13.89,0,1.54-.41,2-.85v.7h1.07v-9.75h-1.03v4.33c-.47-.38-1.11-.74-1.96-.74-1.34,0-2.4,1.39-2.4,3.17Zm1.05-.01c0-1.77,1.17-2.32,1.96-2.32h.03c.15,0,.58.01,1,.41.24.23.28.31.28.53v2.58c0,.42-.63,1.12-1.44,1.12-.73,0-1.82-.53-1.82-2.31Z"/>
        <g>
          <path class="cls-3" d="m309.05,15.93l-1.53,7.57c-.17.8-.44,1.33-.72,1.33-.21,0-.49-.09-.81-.29l-.12.87c.15.08.35.11.58.11.61,0,1.22-.66,1.77-1.9.31-.69.52-1.45.95-3.4l1.16-5.36c.06-.28.09-.47.09-.57,0-.24-.14-.38-.38-.38-.34,0-.9.32-2.05,1.13l-.43.31.11.31.49-.32c.57-.35.61-.38.72-.38.15,0,.28.15.28.35,0,.14-.11.54-.11.61Zm1.39-5.52c-.44,0-.89.5-.89,1.03,0,.38.23.63.6.63.47,0,.84-.44.84-1.03,0-.37-.23-.63-.55-.63Z"/>
          <path class="cls-3" d="m314.06,16.27l-.13-.12c-.56.28-.94.37-1.71.45l-.04.22h.51c.26,0,.36.07.36.26,0,.07-.01.19-.02.26l-1.08,5.9s-.01.07-.01.11c0,.42.51.77,1.1.77.4,0,.94-.2,1.4-.54,1.03-.73,1.74-2.2,1.74-3.61,0-.41-.1-.82-.22-.99-.07-.1-.21-.15-.37-.15-.26,0-.58.09-.88.24-.55.29-.9.61-1.56,1.46l.92-4.26Zm.93,3.19c.28,0,.42.25.42.77,0,.69-.22,1.61-.55,2.3-.35.74-.78,1.08-1.36,1.08-.49,0-.76-.25-.76-.7,0-.36.16-1.87,1.03-2.78.35-.36.91-.67,1.22-.67Z"/>
        </g>
        <path class="cls-3" d="m322.31,17.52c0,1.84,1.42,3.13,2.96,3.13s2.97-1.28,2.97-3.12c0-1.69-1.24-3.25-2.97-3.25-1.59,0-2.96,1.4-2.96,3.24Zm1.05-.14c0-1.63,1.04-2.27,1.9-2.27s1.9.62,1.9,2.27-1,2.4-1.9,2.4-1.9-.7-1.9-2.4Zm5.48-2.89l2.32,6.01h1.19l2.32-6.01h-1c-1.31,3.4-1.81,4.79-1.89,5.33-.07-.42-.15-.63-.65-2.04l-1.26-3.29h-1.04Zm6.49,2.96c0,1.67,1.17,3.2,2.94,3.2.85,0,1.55-.3,2.13-.69l-.08-.89c-.59.43-1.2.74-2.05.74-1.03,0-1.94-.89-2-2.28h4.19v-.39c-.12-2.31-1.44-2.86-2.4-2.86-1.43,0-2.73,1.36-2.73,3.17Zm1.01-.66c.15-.66.69-1.67,1.71-1.67.39,0,1.4.18,1.63,1.67h-3.35Zm5.62,3.71h1.01v-2.78c0-1.97,1.5-2.43,2.3-2.46v-.9c-1.43.03-2.15.95-2.36,1.28v-1.22h-.95v6.08Z"/>
        <g>
          <path class="cls-3" d="m354.41,23.98c-.96-.21-1.27-.89-1.27-1.99v-2.65c0-1.21-.14-1.91-1.24-2.2v-.03c1.06-.28,1.24-.93,1.24-2.07v-2.85c0-1.1.28-1.71,1.27-2-1.53,0-2.37.35-2.37,2.26v2.85c0,.99-.21,1.53-1.16,1.82,1.01.29,1.16.77,1.16,1.87v2.57c0,2.02.64,2.42,2.37,2.42Z"/>
          <path class="cls-3" d="m359.85,10.76c-2.37,0-3.58,1.88-3.58,5.58,0,1.79.32,3.34.86,4.09s1.39,1.18,2.34,1.18c2.31,0,3.47-1.99,3.47-5.91,0-3.35-.99-4.94-3.09-4.94Zm-.28.54c1.48,0,2.08,1.5,2.08,5.17,0,3.26-.58,4.61-1.99,4.61-1.48,0-2.11-1.55-2.11-5.28,0-3.23.57-4.5,2.02-4.5Z"/>
          <path class="cls-3" d="m374.15,19.53c-.46,0-.87.43-.87.89s.41.89.86.89c.49,0,.92-.41.92-.89s-.43-.89-.9-.89Zm-5.09,0c-.46,0-.87.43-.87.89s.41.89.86.89c.49,0,.92-.41.92-.89s-.43-.89-.9-.89Zm10.19,0c-.46,0-.87.43-.87.89s.41.89.86.89c.49,0,.92-.41.92-.89s-.43-.89-.9-.89Z"/>
          <path class="cls-3" d="m388.47,10.25l-.18-.17c-.8.4-1.35.54-2.45.64l-.06.32h.73c.37,0,.52.11.52.37,0,.11-.02.28-.03.37l-1.55,8.43s-.02.11-.02.15c0,.6.73,1.1,1.58,1.1.57,0,1.35-.29,2-.77,1.47-1.04,2.48-3.14,2.48-5.16,0-.58-.14-1.18-.32-1.41-.11-.14-.31-.21-.54-.21-.37,0-.83.12-1.25.34-.78.41-1.29.87-2.23,2.08l1.32-6.09Zm1.33,4.56c.4,0,.6.35.6,1.1,0,.98-.32,2.3-.78,3.29-.5,1.06-1.12,1.55-1.94,1.55-.7,0-1.09-.35-1.09-.99,0-.52.23-2.68,1.47-3.98.5-.52,1.3-.96,1.74-.96Z"/>
          <path class="cls-3" d="m403.49,17.58v-.86h-7.71v.86h7.71Z"/>
          <path class="cls-3" d="m413.71,21.35v-.46l-.8-.05c-.84-.05-.99-.21-.99-1.01v-9.24l-3.69,1.56.11.77,2.3-1.01v7.93c0,.8-.17.96-.99,1.01l-.86.05v.46q2.36-.05,2.52-.05c.47,0,2.16.05,2.4.05Z"/>
          <path class="cls-3" d="m419.91,17.12c-.95-.29-1.16-.83-1.16-1.82v-2.85c0-1.91-.84-2.26-2.37-2.26.99.29,1.27.9,1.27,2v2.85c0,1.13.18,1.79,1.24,2.07v.03c-1.1.29-1.24.99-1.24,2.2v2.65c0,1.1-.31,1.77-1.27,1.99,1.73,0,2.37-.4,2.37-2.42v-2.57c0-1.1.15-1.58,1.16-1.87Z"/>
        </g>
        <path class="cls-3" d="m422.09,20.5h1.13v-1.13h-1.13v1.13Zm7.43-8.41h3.51s0,8.41,0,8.41h1.2v-8.42h1.58s1.92.01,1.92.01v-.89h-8.21v.89Zm9.79,8.41h1.05v-3.24c0-1,.34-2.08,1.38-2.08,1.32,0,1.32,1.01,1.32,1.53v3.79h1.05v-3.89c0-.82-.05-2.25-1.85-2.25-.93,0-1.51.45-1.94.96v-4.56h-1.01v9.75Zm6.99,0h1.01v-6.01h-1.01v6.01Zm-.09-7.97h1.22v-1.2h-1.22v1.2Zm2.59,7.51c1.01.55,1.84.61,2.3.61,1.81,0,2.2-1.12,2.2-1.86,0-.88-.62-1.44-1.17-1.69-.84-.38-2.28-.2-2.28-1.19,0-.34.2-.82,1.13-.82s1.4.24,1.94.5l.15-.89c-.74-.31-1.22-.42-1.97-.42-1.84,0-2.21,1.07-2.21,1.78,0,.95.81,1.47,1.4,1.66.42.14,1,.2,1.3.3.27.08.76.35.76.86,0,.36-.24.92-1.26.92-1.09,0-1.74-.46-2.12-.68l-.16.92Zm9.77-2.52c0,1.61.95,3.13,2.32,3.13.89,0,1.54-.41,2-.85v.7h1.07v-9.75h-1.03v4.33c-.47-.38-1.11-.74-1.96-.74-1.34,0-2.4,1.39-2.4,3.17Zm1.05-.01c0-1.77,1.17-2.32,1.96-2.32h.03c.15,0,.58.01,1,.41.24.23.28.31.28.53v2.58c0,.42-.63,1.12-1.44,1.12-.73,0-1.82-.53-1.82-2.31Zm6.55,3h1.01v-6.01h-1.01v6.01Zm-.09-7.97h1.22v-1.2h-1.22v1.2Zm2.82,6.44c0,.62.41,1.67,1.54,1.67,1.49,0,2.23-.61,2.24-.62v.47h1.03v-4.12c-.07-1.13-.96-2.11-2.24-2.11-.85,0-1.47.22-2.12.59l.08.9c.45-.31,1.01-.69,2.03-.69.18,0,.53.01.85.41.34.41.34.86.35,1.24v.46c-1.39.01-3.75.35-3.75,1.78Zm.99-.01c0-.85,1.8-1.05,2.77-1.07v.85c0,.88-.93,1.07-1.51,1.07-.73,0-1.26-.36-1.26-.85Zm5.27,2.5c0,1.04,1.34,1.82,3,1.82s3-.78,3-1.84c0-.16-.03-.34-.07-.5-.38-1.35-2.03-1.38-2.92-1.38h-1.01c-.65,0-.76-.46-.76-.72,0-.09.01-.23.15-.5.3.19.63.41,1.23.41,1.26,0,2.16-1.05,2.16-2.2,0-.58-.18-.97-.53-1.44l.12.11c.24-.01.66-.05,1.01-.05.27,0,.53.01.8.04l-.15-.85c-.73,0-1.44.14-2.12.42l.03.03c-.45-.31-.82-.45-1.32-.45-1.11,0-2.15.89-2.15,2.2,0,.27.04.81.45,1.34h0c-.24.34-.39.7-.39,1.15s.12.72.34,1.03c-.53.31-.86.84-.86,1.39Zm.95,0c0-.39.3-.85.85-.9h.39s.85-.01.85-.01c1.46,0,2.01.38,2.01.93,0,.62-.97,1.04-2.07,1.04-.74,0-2.04-.3-2.04-1.05Zm.47-4.9c0-1.15.72-1.43,1.2-1.43.73,0,1.22.54,1.22,1.42,0,1.15-.72,1.43-1.2,1.43-.73,0-1.22-.54-1.22-1.42Zm6.06,3.94h1.01v-2.78c0-1.97,1.5-2.43,2.3-2.46v-.9c-1.43.03-2.15.95-2.36,1.28v-1.22h-.95v6.08Zm4.12-1.53c0,.62.41,1.67,1.54,1.67,1.49,0,2.23-.61,2.24-.62v.47h1.03v-4.12c-.07-1.13-.96-2.11-2.24-2.11-.85,0-1.47.22-2.12.59l.08.9c.45-.31,1.01-.69,2.03-.69.18,0,.53.01.85.41.34.41.34.86.35,1.24v.46c-1.39.01-3.75.35-3.75,1.78Zm.99-.01c0-.85,1.8-1.05,2.77-1.07v.85c0,.88-.93,1.07-1.51,1.07-.73,0-1.26-.36-1.26-.85Zm5.98,1.54h1.05v-3.24c0-1,.34-2.08,1.38-2.08,1.32,0,1.32,1.01,1.32,1.53v3.79h1.05v-3.24c0-1,.34-2.08,1.38-2.08,1.32,0,1.31,1.53,1.31,1.53v3.79h1.07v-3.89c0-.78-.04-2.25-1.85-2.25-1.23,0-1.84.82-2.04,1.09-.19-.51-.59-1.09-1.71-1.09-1.19,0-1.78.77-1.97,1.01v-.95h-.99v6.08Zm14.61-3.01c0,1.73,1.27,3.16,2.93,3.16.93,0,1.59-.3,2.2-.69l-.07-.9c-.43.3-1.07.73-2.12.73-1.13,0-1.89-.99-1.89-2.3,0-1.17.59-2.35,1.9-2.35,1.07,0,1.42.28,1.94.62l.16-.89c-.82-.47-1.26-.59-2.09-.59-1.89,0-2.97,1.65-2.97,3.21Zm5.93.03c0,1.84,1.42,3.13,2.96,3.13s2.97-1.28,2.97-3.12c0-1.69-1.24-3.25-2.97-3.25-1.59,0-2.96,1.4-2.96,3.24Zm1.05-.14c0-1.63,1.04-2.27,1.9-2.27s1.9.62,1.9,2.27-1,2.4-1.9,2.4-1.9-.7-1.9-2.4Zm5.48-2.89l2.32,6.01h1.19l2.32-6.01h-1c-1.31,3.4-1.81,4.79-1.89,5.33-.07-.42-.15-.63-.65-2.04l-1.26-3.29h-1.04Zm6.49,2.96c0,1.67,1.17,3.2,2.94,3.2.85,0,1.55-.3,2.13-.69l-.08-.89c-.59.43-1.2.74-2.05.74-1.03,0-1.94-.89-2-2.28h4.19v-.39c-.12-2.31-1.44-2.86-2.4-2.86-1.43,0-2.73,1.36-2.73,3.17Zm1.01-.66c.15-.66.69-1.67,1.71-1.67.39,0,1.4.18,1.63,1.67h-3.35Zm5.62,3.71h1.01v-2.78c0-1.97,1.5-2.43,2.3-2.46v-.9c-1.43.03-2.15.95-2.36,1.28v-1.22h-.95v6.08Zm3.89-.46c1.01.55,1.84.61,2.3.61,1.81,0,2.2-1.12,2.2-1.86,0-.88-.62-1.44-1.17-1.69-.84-.38-2.28-.2-2.28-1.19,0-.34.2-.82,1.13-.82s1.4.24,1.94.5l.15-.89c-.74-.31-1.22-.42-1.97-.42-1.84,0-2.21,1.07-2.21,1.78,0,.95.81,1.47,1.4,1.66.42.14,1,.2,1.3.3.27.08.76.35.76.86,0,.36-.24.92-1.26.92-1.09,0-1.74-.46-2.12-.68l-.16.92Z"/>
      </g>
      <path class="cls-3" d="m13.59,38.12c0,.62.41,1.67,1.54,1.67,1.49,0,2.23-.61,2.24-.62v.47h1.03v-4.12c-.07-1.13-.96-2.11-2.24-2.11-.85,0-1.47.22-2.12.59l.08.9c.45-.31,1.01-.69,2.03-.69.18,0,.53.01.85.41.34.41.34.86.35,1.24v.46c-1.39.01-3.75.35-3.75,1.78Zm.99-.01c0-.85,1.8-1.05,2.77-1.07v.85c0,.88-.93,1.07-1.51,1.07-.73,0-1.26-.36-1.26-.85Zm5.99,1.54h1.01v-9.75h-1.01v9.75Zm3.23,0h1.01v-9.75h-1.01v9.75Zm6.87-5.21h1.13v3.63c0,1.49.66,1.73,1.11,1.73.61,0,1.3-.14,2-.51l-.22-.8c-.19.14-.61.45-1.19.45-.7,0-.73-.8-.73-1.17v-3.32h1.9v-.8h-1.9v-1.7h-.95v1.7h-1.16v.8Zm5.71,5.21h1.05v-3.24c0-1,.34-2.08,1.38-2.08,1.32,0,1.32,1.01,1.32,1.53v3.79h1.05v-3.89c0-.82-.05-2.25-1.85-2.25-.93,0-1.51.45-1.94.96v-4.56h-1.01v9.75Zm6.36-3.05c0,1.67,1.17,3.2,2.94,3.2.85,0,1.55-.3,2.13-.69l-.08-.89c-.59.43-1.2.74-2.05.74-1.03,0-1.94-.89-2-2.28h4.19v-.39c-.12-2.31-1.44-2.86-2.4-2.86-1.43,0-2.73,1.36-2.73,3.17Zm1.01-.66c.15-.66.69-1.67,1.71-1.67.39,0,1.4.18,1.63,1.67h-3.35Zm10.11,3.71h1.01v-6.01h-1.01v6.01Zm-.09-7.97h1.22v-1.2h-1.22v1.2Zm3.31,7.97h1.05v-3.24c0-1,.34-2.08,1.38-2.08,1.32,0,1.32,1.01,1.32,1.53v3.79h1.05v-3.89c0-.95-.12-2.25-1.85-2.25-1.19,0-1.78.77-1.97,1.01v-.95h-.99v6.08Zm6.37-2.98c0,1.61.95,3.13,2.32,3.13.89,0,1.54-.41,2-.85v.7h1.07v-9.75h-1.03v4.33c-.47-.38-1.11-.74-1.96-.74-1.34,0-2.4,1.39-2.4,3.17Zm1.05-.01c0-1.77,1.17-2.32,1.96-2.32h.03c.15,0,.58.01,1,.41.24.23.28.31.28.53v2.58c0,.42-.63,1.12-1.44,1.12-.73,0-1.82-.53-1.82-2.31Zm5.91-.05c0,1.67,1.17,3.2,2.94,3.2.85,0,1.55-.3,2.13-.69l-.08-.89c-.59.43-1.2.74-2.05.74-1.03,0-1.94-.89-2-2.28h4.19v-.39c-.12-2.31-1.44-2.86-2.4-2.86-1.43,0-2.73,1.36-2.73,3.17Zm1.01-.66c.15-.66.69-1.67,1.71-1.67.39,0,1.4.18,1.63,1.67h-3.35Zm4.52,3.71h1.12l1.94-2.54,2.03,2.54h1.12l-2.7-3.09h0s2.48-2.92,2.48-2.92h-1.12l-1.8,2.23h-.01l-1.86-2.23h-1.12l2.54,2.9v.03l-2.62,3.08Zm6.68-3.05c0,1.67,1.17,3.2,2.94,3.2.85,0,1.55-.3,2.13-.69l-.08-.89c-.59.43-1.2.74-2.05.74-1.03,0-1.94-.89-2-2.28h4.19v-.39c-.12-2.31-1.44-2.86-2.4-2.86-1.43,0-2.73,1.36-2.73,3.17Zm1.01-.66c.15-.66.69-1.67,1.71-1.67.39,0,1.4.18,1.63,1.67h-3.35Zm4.89,3.25c1.01.55,1.84.61,2.3.61,1.81,0,2.2-1.12,2.2-1.86,0-.88-.62-1.44-1.17-1.69-.84-.38-2.28-.2-2.28-1.19,0-.34.2-.82,1.13-.82s1.4.24,1.94.5l.15-.89c-.74-.31-1.22-.42-1.97-.42-1.84,0-2.21,1.07-2.21,1.78,0,.95.81,1.47,1.4,1.66.42.14,1,.2,1.3.3.27.08.76.35.76.86,0,.36-.24.92-1.26.92-1.09,0-1.74-.46-2.12-.68l-.16.92Zm6.1.46h1.13v-1.13h-1.13v1.13Z"/>
    </g>
    <path class="cls-16" d="m155,120h90"/>
    <path class="cls-16" d="m245,120h70"/>
    <path class="cls-16" d="m155,90h65"/>
    <path class="cls-16" d="m400,120h65"/>
    <path class="cls-16" d="m400,90h160"/>
    <path class="cls-16" d="m5,120h65"/>
    <path class="cls-16" d="m5,90h65"/>
  </g>
</svg>