<?xml version="1.0" encoding="UTF-8"?>
<svg id="Layer_1" data-name="Layer 1" xmlns="http://www.w3.org/2000/svg" xmlns:xlink="http://www.w3.org/1999/xlink" viewBox="0 0 485 255">
  <defs>
    <style>
      .cls-1 {
        stroke-dasharray: 0 0 7.5 6;
        stroke-width: 2px;
      }

      .cls-1, .cls-2, .cls-3, .cls-4, .cls-5, .cls-6, .cls-7, .cls-8, .cls-9, .cls-10, .cls-11, .cls-12, .cls-13, .cls-14, .cls-15, .cls-16, .cls-17, .cls-18, .cls-19, .cls-20, .cls-21, .cls-22 {
        fill: none;
      }

      .cls-1, .cls-23, .cls-24, .cls-25, .cls-26, .cls-17, .cls-27, .cls-22, .cls-28, .cls-29 {
        stroke: #000;
      }

      .cls-2 {
        clip-path: url(#clippath-4);
      }

      .cls-23 {
        stroke-width: .41px;
      }

      .cls-23, .cls-28 {
        stroke-miterlimit: 10;
      }

      .cls-3 {
        clip-path: url(#clippath-2);
      }

      .cls-4 {
        clip-path: url(#clippath-6);
      }

      .cls-5 {
        clip-path: url(#clippath-9);
      }

      .cls-6 {
        clip-path: url(#clippath-12);
      }

      .cls-30 {
        fill: #defbf4;
      }

      .cls-7 {
        clip-path: url(#clippath-13);
      }

      .cls-8 {
        clip-path: url(#clippath-7);
      }

      .cls-24 {
        stroke-miterlimit: 4;
        stroke-width: 1px;
      }

      .cls-25 {
        stroke-miterlimit: 4;
        stroke-width: 1px;
      }

      .cls-26 {
        fill: #a9e3ff;
      }

      .cls-9 {
        clip-path: url(#clippath-10);
      }

      .cls-10 {
        clip-path: url(#clippath-5);
      }

      .cls-31 {
        fill: #f3f3f4;
      }

      .cls-11 {
        clip-path: url(#clippath-16);
      }

      .cls-12 {
        clip-path: url(#clippath-15);
      }

      .cls-13 {
        clip-path: url(#clippath-3);
      }

      .cls-14 {
        clip-path: url(#clippath-11);
      }

      .cls-16 {
        clip-path: url(#clippath-17);
      }

      .cls-17 {
        stroke-dasharray: 0 0 1.12 3.35;
      }

      .cls-18 {
        clip-path: url(#clippath);
      }

      .cls-27 {
        stroke-miterlimit: 4;
        stroke-width: 1px;
      }

      .cls-19 {
        clip-path: url(#clippath-1);
      }

      .cls-20 {
        clip-path: url(#clippath-8);
      }

      .cls-21 {
        clip-path: url(#clippath-14);
      }

      .cls-28 {
        stroke-width: .59px;
      }

      .cls-29 {
        stroke-miterlimit: 4;
        stroke-width: 1px;
      }
    </style>
    <clipPath id="clippath">
      <rect class="cls-15" x="99.82" y="63.63" width="9.94" height="6.5"/>
    </clipPath>
    <clipPath id="clippath-1">
      <rect class="cls-15" x="99.82" y="63.63" width="17.5" height="20.89"/>
    </clipPath>
    <clipPath id="clippath-2">
      <rect class="cls-15" x="100.82" y="123.63" width="9.27" height="6.5"/>
    </clipPath>
    <clipPath id="clippath-3">
      <rect class="cls-15" x="100.82" y="123.63" width="17.5" height="20.89"/>
    </clipPath>
    <clipPath id="clippath-4">
      <rect class="cls-15" x="459.82" y="178.29" width="9.94" height="6.5"/>
    </clipPath>
    <clipPath id="clippath-5">
      <rect class="cls-15" x="459.82" y="178.29" width="17.5" height="20.89"/>
    </clipPath>
    <clipPath id="clippath-6">
      <rect class="cls-15" x="14.82" y="63.63" width="9.94" height="6.5"/>
    </clipPath>
    <clipPath id="clippath-7">
      <rect class="cls-15" x="14.82" y="63.63" width="17.5" height="20.89"/>
    </clipPath>
    <clipPath id="clippath-8">
      <rect class="cls-15" x="14.82" y="123.63" width="9.27" height="6.5"/>
    </clipPath>
    <clipPath id="clippath-9">
      <rect class="cls-15" x="14.82" y="123.63" width="17.5" height="20.89"/>
    </clipPath>
    <clipPath id="clippath-10">
      <rect class="cls-15" x="144.82" y="58.63" width="9.94" height="6.5"/>
    </clipPath>
    <clipPath id="clippath-11">
      <rect class="cls-15" x="144.82" y="58.63" width="17.5" height="20.89"/>
    </clipPath>
    <clipPath id="clippath-12">
      <rect class="cls-15" x="145.82" y="118.63" width="9.27" height="6.5"/>
    </clipPath>
    <clipPath id="clippath-13">
      <rect class="cls-15" x="145.82" y="118.63" width="17.5" height="20.89"/>
    </clipPath>
    <clipPath id="clippath-14">
      <rect class="cls-15" x="145.82" y="178.63" width="9.27" height="6.5"/>
    </clipPath>
    <clipPath id="clippath-15">
      <rect class="cls-15" x="145.82" y="178.63" width="17.5" height="20.89"/>
    </clipPath>
    <clipPath id="clippath-16">
      <rect class="cls-15" x="104.82" y="177.63" width="9.27" height="6.5"/>
    </clipPath>
    <clipPath id="clippath-17">
      <rect class="cls-15" x="104.82" y="177.63" width="17.5" height="20.89"/>
    </clipPath>
  </defs>
  <g>
    <polygon class="cls-30" points="447.48 172.13 447.48 237.13 372.48 237.13 372.48 172.13 447.48 172.13"/>
    <polygon class="cls-31" points="442.48 177.13 442.48 232.13 377.48 232.13 377.48 177.13 442.48 177.13"/>
    <polygon class="cls-30" points="202.48 22.13 202.48 57.13 162.48 57.13 162.48 233.13 97.48 233.13 97.48 58.13 22.48 58.13 22.48 22.13 202.48 22.13"/>
    <polygon class="cls-31" points="202.48 192.13 202.48 242.13 177.48 242.13 157.48 232.13 117.48 232.13 117.48 177.13 152.48 177.13 177.48 192.13 202.48 192.13"/>
    <polygon class="cls-31" points="202.48 132.13 202.48 182.13 182.48 182.13 157.48 167.13 117.48 167.13 117.48 117.13 152.48 117.13 177.48 132.13 202.48 132.13"/>
    <polygon class="cls-31" points="202.48 57.13 202.48 122.13 182.48 122.13 157.48 107.13 117.48 107.13 117.48 57.13 202.48 57.13"/>
    <polygon class="cls-17" points="367.48 39.8 367.48 197.13 332.48 232.13 222.48 232.13 222.48 39.8 367.48 39.8"/>
    <g>
      <path class="cls-22" d="m272.48,127.13h17"/>
      <path d="m281.76,132.28l10.72-5.15-10.72-5.15,3.6,5.15-3.6,5.15Z"/>
    </g>
    <path class="cls-22" d="m142.48,75.63h85m-85,3h85"/>
    <path class="cls-22" d="m197.48,102.13h30"/>
    <path class="cls-22" d="m12.48,162.13h150"/>
    <path class="cls-22" d="m12.48,140.63h110m-110,3h110"/>
    <path class="cls-22" d="m197.48,162.13h30"/>
    <path class="cls-1" d="m12.48,112.13h145l25,15h75"/>
    <path class="cls-22" d="m142.48,195.63h185m-185,3h185"/>
    <path class="cls-22" d="m197.48,222.13l225-.33"/>
    <path class="cls-1" d="m87.48,172.13h70l25,15h140"/>
    <g>
      <path class="cls-15" d="m257.48,142.13h0c8.28,0,15-6.72,15-15s-6.72-15-15-15h0v30Z"/>
      <path class="cls-22" d="m257.48,142.13h0c8.28,0,15-6.72,15-15s-6.72-15-15-15h0"/>
    </g>
    <path class="cls-22" d="m227.54,135.63c7.88.33,11.45,4.5,14.11,9.55.62,1.17,1.19,2.39,1.76,3.61.01.03.03.06.04.09.02.04.04.07.05.11,2.47,5.31,4.9,10.81,12.74,11.56.41.04.84.07,1.28.08m-30.1-22c6.51.27,9.39,3.81,11.58,7.95.6,1.13,1.14,2.3,1.69,3.48.01.03.03.06.04.08.02.04.04.08.05.12,2.94,6.3,6.05,12.41,15.17,13.28.48.04.97.07,1.49.09"/>
    <path class="cls-22" d="m227.48,162.13c18.27.77,10.93-20.57,30-20"/>
    <path class="cls-22" d="m257.48,160.63h35m-35,3h35"/>
    <path class="cls-22" d="m312.48,160.63h15m-15,3h15"/>
    <path class="cls-22" d="m227.48,102.13c18.27.77,10.93,9.43,30,10"/>
    <path class="cls-22" d="m122.48,227.13h40"/>
    <path class="cls-22" d="m452.48,216.8h20"/>
    <path class="cls-22" d="m227.48,75.63c67.59.11,96.69,28.13,113.39,57.16.7,1.21,1.37,2.42,2.02,3.63,6.82,12.62,11.49,25.23,16.15,35.63,5.71,12.73,11.27,22.3,21.51,23.46.63.07,1.28.11,1.94.12m-155.01-117c65.93.11,94.47,27.29,110.79,55.66.68,1.18,1.34,2.37,1.98,3.55,6.79,12.55,11.42,25.1,16.05,35.44,6.32,14.1,12.79,23.95,23.91,25.21.73.09,1.48.13,2.26.14"/>
    <path class="cls-22" d="m447.48,195.63h25m-25,3h25"/>
    <path class="cls-22" d="m12.48,80.63h110m-110,3h110"/>
    <path class="cls-22" d="m12.48,102.13h150"/>
    <g>
      <path class="cls-22" d="m72.48,162.13c19.24-.57-.76,66.43,50,65"/>
      <circle class="cls-29" cx="72.48" cy="162.13" r="3.35"/>
    </g>
    <g>
      <path class="cls-22" d="m72.47,140.3h.15c5.7,0,9.64,3.14,12.53,8.14,3.1,5.36,4.95,12.93,6.74,20.51.06.28.12.55.19.82,2.64,11.24,4.98,22.8,12.52,25.13.84.26,1.74.4,2.72.4h.14m-34.97-52h.13c4.59,0,7.64,2.67,9.93,6.64,2.98,5.15,4.7,12.43,6.42,19.7.06.27.12.55.19.82,2.99,12.74,6.3,24.75,14.55,27.31,1.11.34,2.31.53,3.61.53h.18"/>
      <circle class="cls-25" cx="72.48" cy="141.8" r="3.35"/>
    </g>
    <path class="cls-22" d="m292.48,162.13l20-14.06v28.12l-20-14.06Z"/>
    <path class="cls-22" d="m197.48,122.13h50"/>
    <g>
      <path class="cls-22" d="m247.48,122.13c24.5.23,12,60.23,25,60"/>
      <circle class="cls-24" cx="272.48" cy="182.13" r="3.35"/>
    </g>
    <path class="cls-22" d="m197.48,182.13h115"/>
    <path class="cls-22" d="m197.48,242.13l165-.33"/>
    <g>
      <path class="cls-22" d="m312.48,182.13c23.6.1,3.27,59.71,20,60"/>
      <circle class="cls-27" cx="332.48" cy="242.13" r="3.35"/>
    </g>
    <path class="cls-22" d="m327.47,160.63h.23c8.55,0,14.34,3.92,17.43,9.17,1.75,2.96,2.63,6.37,2.63,9.78v.05c-.02,6.34-3.07,12.67-9.17,16.2-2.97,1.71-6.66,2.76-11.1,2.8m0-35h.21c7.23,0,12.22,3.22,14.85,7.69,1.47,2.51,2.21,5.38,2.21,8.26v.05c-.01,5.31-2.55,10.64-7.67,13.6-2.57,1.48-5.78,2.37-9.62,2.4"/>
    <polygon class="cls-26" points="142.48 67.13 142.48 97.13 122.48 87.13 122.48 67.13 142.48 67.13"/>
    <path class="cls-22" d="m142.48,77.13l-20,10"/>
    <path class="cls-22" d="m142.48,95.63h20m-20,3h20"/>
    <g>
      <polygon class="cls-26" points="142.48 127.13 142.48 157.13 122.48 147.13 122.48 127.13 142.48 127.13"/>
      <path class="cls-22" d="m142.48,137.13l-20,10"/>
    </g>
    <path class="cls-22" d="m142.48,155.63h20m-20,3h20"/>
    <path class="cls-22" d="m142.48,135.63h85m-85,3h85"/>
    <g>
      <polygon class="cls-26" points="142.48 187.13 142.48 217.13 122.48 207.13 122.48 187.13 142.48 187.13"/>
      <path class="cls-22" d="m142.48,197.13l-20,10"/>
    </g>
    <path class="cls-22" d="m142.48,215.63h20m-20,3h20"/>
    <path class="cls-22" d="m107.48,195.3h15m-15,3h15"/>
    <g>
      <polygon class="cls-26" points="402.48 182.13 402.48 216.8 382.48 205.24 382.48 182.13 402.48 182.13"/>
      <path class="cls-22" d="m402.48,193.69l-20,11.55"/>
    </g>
    <path class="cls-22" d="m362.48,241.8c20.1-.63,40.6-14.63,60-15"/>
    <path class="cls-22" d="m402.48,215.3h20m-20,3h20"/>
    <path class="cls-22" d="m402.48,180.63c15.82.03,19.79,4.03,23.7,7.94.04.03.07.06.1.1,3.54,3.54,7.12,6.96,21.05,6.96h.15m-45-12c14.32.02,18.02,3.5,21.58,7.06l.1.1c3.89,3.89,7.75,7.84,23.17,7.84h.15"/>
  </g>
  <g>
    <path class="cls-23" d="m105.37,77.67c-.37-.65-.56-1.04-.87-1.87l-1.09-2.86c-.1-.29-.17-.54-.17-.71,0-.24.19-.37.58-.39l.65-.03v-.48q-1.65.05-1.97.05t-1.97-.05v.48l.31.03c.43.05.63.24.88.83l1.85,4.45c.48,1.16.65,1.56.95,2.41l-.39,1.04c-.54,1.43-1.21,2.23-1.85,2.23-.27,0-.58-.14-.87-.39h-.22l-.41,1.28c.32.17.6.26.92.26,1.14,0,1.87-.61,2.52-2.09l3.45-7.96c.68-1.55,1-2.01,1.43-2.06l.48-.03v-.48q-1.34.05-1.62.05-.27,0-1.62-.05v.48l.44.03c.48.03.71.19.71.43,0,.12-.03.27-.1.44l-2.02,4.96Z"/>
    <g class="cls-18">
      <g class="cls-19">
        <path d="m85.41,67.7h46.82v-1.02h-46.82v1.02Z"/>
      </g>
    </g>
  </g>
  <path d="m106.29,93.52h.39c.14-1.11.26-1.73.41-2.18-.41-.26-1-.41-1.63-.41-.77-.02-2.01.32-2.98,1.39-.92.82-1.58,2.7-1.58,4.49,0,1.63.71,2.5,2.07,2.5.92,0,1.73-.34,2.67-1.11l.85-.7-.14-.34-.26.17c-1.22.82-1.87,1.11-2.47,1.11-.95,0-1.45-.68-1.45-2.02,0-1.84.6-3.6,1.43-4.25.36-.27.77-.41,1.29-.41.77,0,1.38.32,1.38.73v1.02Z"/>
  <path d="m110.29,153.52h.39c.14-1.11.26-1.73.41-2.18-.41-.26-1-.41-1.63-.41-.77-.02-2.01.32-2.98,1.39-.92.82-1.58,2.7-1.58,4.49,0,1.63.71,2.5,2.07,2.5.92,0,1.73-.34,2.67-1.11l.85-.7-.14-.34-.26.17c-1.22.82-1.87,1.11-2.47,1.11-.95,0-1.45-.68-1.45-2.02,0-1.84.6-3.6,1.43-4.25.36-.27.77-.41,1.29-.41.77,0,1.38.32,1.38.73v1.02Z"/>
  <path d="m111.29,213.52h.39c.14-1.11.26-1.73.41-2.18-.41-.26-1-.41-1.63-.41-.77-.02-2.01.32-2.98,1.39-.92.82-1.58,2.7-1.58,4.49,0,1.63.71,2.5,2.07,2.5.92,0,1.73-.34,2.67-1.11l.85-.7-.14-.34-.26.17c-1.22.82-1.87,1.11-2.47,1.11-.95,0-1.45-.68-1.45-2.02,0-1.84.6-3.6,1.43-4.25.36-.27.77-.41,1.29-.41.77,0,1.38.32,1.38.73v1.02Z"/>
  <g>
    <path class="cls-23" d="m106.22,134.81l2.41-2.82c.1-.12.29-.19.58-.19h.24v-.48h-1.39l-2.11,2.98-1.29-1.97c-.26-.37-.44-.6-1.02-1.17l-1.97.34.09.44.36.03c.31.02.68.26.85.49l2.04,2.96-2.53,2.99c-.12.15-.34.26-.51.26h-.29v.46h1.46l2.28-3.26,2.26,3.32q.88-.05,1.04-.05t1.05.05v-.51l-.43-.05c-.2-.02-.41-.15-.6-.41l-2.52-3.4Z"/>
    <g class="cls-3">
      <g class="cls-13">
        <path d="m86.41,127.7h46.82v-1.02h-46.82v1.02Z"/>
      </g>
    </g>
  </g>
  <g>
    <path class="cls-28" d="m178.31,112.92c.17-1.05.27-1.84.51-4.21h-.78c-.15.71-.69,2.69-.83,2.82-.22.2-2.35.32-4.63.32-.95,0-1.93-.02-2.82-.07v-12.78c0-1.93.12-2.13,1.25-2.2l1.18-.07v-.73c-1.79.07-2.33.07-3.6.07s-1.81-.02-3.57-.07v.73l1.18.07c1.13.07,1.25.27,1.25,2.2v11.6c0,.71-.22,1.25-.61,1.44l-.76.39v.56c1.62-.07,1.79-.07,2.42-.07.56,0,3.43.07,5.7.07q.78,0,4.11-.07Z"/>
    <path d="m183.41,106.22c0-1.32.41-1.94,1.32-1.94.5,0,.98.14,1.65.5l2.48,1.3c1.03.53,1.34.63,2.02.63,1.29,0,1.9-.74,2.07-2.4h-.43c-.1.93-.48,1.35-1.17,1.35-.29,0-.62-.09-1.06-.26l-4.04-1.65c-.43-.17-.74-.24-1.13-.24-1.27,0-2.14.87-2.14,2.18,0,.03,0,.15.02.29l.41.22Zm10.23-10.23c0-3.05-1.78-4.82-4.87-4.82-4.06,0-7.04,3.14-7.04,7.44,0,3.24,1.61,4.97,4.63,4.97,4.66,0,7.28-3.86,7.28-7.59Zm-1.51.27c0,3.22-1.53,6.6-5.14,6.6-2.47,0-3.75-1.47-3.75-4.34,0-2.54.99-6.63,5-6.63,1.99,0,3.89.93,3.89,4.37Z"/>
  </g>
  <path d="m208.56,86.86l-.2-.19c-.88.44-1.5.6-2.72.71l-.07.36h.82c.41,0,.58.12.58.41,0,.14-.02.29-.03.41l-.82,4.56c-.24,1.28-.51,2.45-1.39,6l.15.17,1.14-.29.39-2.11c.15-.82.56-1.58,1.14-2.16,1.17,3.4,1.72,4.56,2.14,4.56.22,0,.63-.22,1.38-.75l.78-.54-.14-.32-.73.41c-.24.14-.36.17-.49.17-.17,0-.29-.1-.44-.39-.6-1.09-.97-2.01-1.63-4.1l.24-.24c1.04-1.04,1.82-1.46,2.67-1.46.14,0,.32.03.61.1l.29-1.07c-.31-.1-.61-.15-.82-.15-1.12,0-2.53,1.31-4.66,4.28l1.82-8.36Z"/>
  <g>
    <path class="cls-28" d="m180.31,172.92c.17-1.05.27-1.84.51-4.21h-.78c-.15.71-.69,2.69-.83,2.82-.22.2-2.35.32-4.63.32-.95,0-1.93-.02-2.82-.07v-12.78c0-1.93.12-2.13,1.25-2.2l1.18-.07v-.73c-1.79.07-2.33.07-3.6.07s-1.81-.02-3.57-.07v.73l1.18.07c1.13.07,1.25.27,1.25,2.2v11.6c0,.71-.22,1.25-.61,1.44l-.76.39v.56c1.62-.07,1.79-.07,2.42-.07.56,0,3.43.07,5.7.07q.78,0,4.11-.07Z"/>
    <path d="m189.18,151.89l.05-.48h-.41l-1.54.05c-.27,0-.58,0-1.32-.02l-1.1-.03-.05.48.81.03c.41.02.6.15.6.46,0,.24-.05.74-.15,1.3l-1.25,7.44c-.29,1.58-.31,1.59-.99,1.66l-.7.05-.07.48.72-.02c.82-.02,1.22-.03,1.54-.03l1.66.05h.45l.05-.48-.84-.05c-.46-.03-.62-.15-.62-.5,0-.1.02-.29.03-.36l.74-4.49c2.57,2.93,2.96,3.43,4.76,5.88l1.18-.05c.62.02.72.03,1.17.05v-.51h-.34c-.39,0-.74-.21-1.1-.65l-4.22-5.18,5-4.68c.27-.26.63-.43.93-.43h.36v-.46l-.39.02c-.36.02-.63.03-.77.03-.17,0-.45-.02-.81-.03l-.34-.02v.5c0,.14-.17.36-.65.84-.75.77-3.65,3.62-4.75,4.47l.77-4.46c.12-.65.24-.77.87-.82l.72-.05Z"/>
  </g>
  <path d="m208.56,146.86l-.2-.19c-.88.44-1.5.6-2.72.71l-.07.36h.82c.41,0,.58.12.58.41,0,.14-.02.29-.03.41l-.82,4.56c-.24,1.28-.51,2.45-1.39,6l.15.17,1.14-.29.39-2.11c.15-.82.56-1.58,1.14-2.16,1.17,3.4,1.72,4.56,2.14,4.56.22,0,.63-.22,1.38-.75l.78-.54-.14-.32-.73.41c-.24.14-.36.17-.49.17-.17,0-.29-.1-.44-.39-.6-1.09-.97-2.01-1.63-4.1l.24-.24c1.04-1.04,1.82-1.46,2.67-1.46.14,0,.32.03.61.1l.29-1.07c-.31-.1-.61-.15-.82-.15-1.12,0-2.53,1.31-4.66,4.28l1.82-8.36Z"/>
  <g>
    <path class="cls-28" d="m179.31,233.92c.17-1.05.27-1.84.51-4.21h-.78c-.15.71-.69,2.69-.83,2.82-.22.2-2.35.32-4.63.32-.95,0-1.93-.02-2.82-.07v-12.78c0-1.93.12-2.13,1.25-2.2l1.18-.07v-.73c-1.79.07-2.33.07-3.6.07s-1.81-.02-3.57-.07v.73l1.18.07c1.13.07,1.25.27,1.25,2.2v11.6c0,.71-.22,1.25-.61,1.44l-.76.39v.56c1.62-.07,1.79-.07,2.42-.07.56,0,3.43.07,5.7.07q.78,0,4.11-.07Z"/>
    <path d="m187.13,222.62l-1.22-9.05c-.03-.38.03-.63.72-.65l.72-.03v-.48l-.7.02c-.63.02-1.11.03-1.42.03s-.79-.02-1.42-.03l-.7-.02v.48l.43.03c.75.05.89.19,1.01.82l1.51,10.66h.84l6.48-10.61c.43-.69.57-.81,1.06-.87l.31-.03v-.48l-.51.02c-.46.02-.86.03-1.13.03-.17,0-.63-.02-1.34-.03l-.79-.02v.48l.45.03c.65.05.98.22.98.55,0,.19-.07.38-.27.72l-4.99,8.43Z"/>
  </g>
  <path d="m208.56,206.86l-.2-.19c-.88.44-1.5.6-2.72.71l-.07.36h.82c.41,0,.58.12.58.41,0,.14-.02.29-.03.41l-.82,4.56c-.24,1.28-.51,2.45-1.39,6l.15.17,1.14-.29.39-2.11c.15-.82.56-1.58,1.14-2.16,1.17,3.4,1.72,4.56,2.14,4.56.22,0,.63-.22,1.38-.75l.78-.54-.14-.32-.73.41c-.24.14-.36.17-.49.17-.17,0-.29-.1-.44-.39-.6-1.09-.97-2.01-1.63-4.1l.24-.24c1.04-1.04,1.82-1.46,2.67-1.46.14,0,.32.03.61.1l.29-1.07c-.31-.1-.61-.15-.82-.15-1.12,0-2.53,1.31-4.66,4.28l1.82-8.36Z"/>
  <path d="m211.58,179.18v-.51l-.88-.05c-.94-.05-1.11-.24-1.11-1.12v-10.27l-4.1,1.73.12.85,2.55-1.12v8.81c0,.88-.19,1.07-1.11,1.12l-.95.05v.51q2.62-.05,2.81-.05c.53,0,2.4.05,2.67.05Z"/>
  <path d="m211.58,119.18v-.51l-.88-.05c-.94-.05-1.11-.24-1.11-1.12v-10.27l-4.1,1.73.12.85,2.55-1.12v8.81c0,.88-.19,1.07-1.11,1.12l-.95.05v.51q2.62-.05,2.81-.05c.53,0,2.4.05,2.67.05Z"/>
  <g>
    <path class="cls-28" d="m438.31,228.58c.17-1.05.27-1.84.51-4.21h-.78c-.15.71-.69,2.69-.83,2.82-.22.2-2.35.32-4.63.32-.95,0-1.93-.02-2.82-.07v-12.78c0-1.93.12-2.13,1.25-2.2l1.18-.07v-.73c-1.79.07-2.33.07-3.6.07s-1.81-.02-3.57-.07v.73l1.18.07c1.13.07,1.25.27,1.25,2.2v11.6c0,.71-.22,1.25-.61,1.44l-.76.39v.56c1.62-.07,1.79-.07,2.42-.07.56,0,3.43.07,5.7.07q.78,0,4.11-.07Z"/>
    <path d="m453.64,211.64c0-3.05-1.78-4.82-4.87-4.82-4.06,0-7.04,3.14-7.04,7.44,0,3.24,1.61,4.97,4.63,4.97,4.66,0,7.28-3.86,7.28-7.59Zm-1.51.27c0,3.22-1.53,6.6-5.14,6.6-2.47,0-3.75-1.47-3.75-4.34,0-2.54.99-6.63,5-6.63,1.99,0,3.89.93,3.89,4.37Z"/>
  </g>
  <path d="m343.56,206.86l-.2-.19c-.88.44-1.5.6-2.72.71l-.07.36h.82c.41,0,.58.12.58.41,0,.14-.02.29-.03.41l-.82,4.56c-.24,1.28-.51,2.45-1.39,6l.15.17,1.14-.29.39-2.11c.15-.82.56-1.58,1.14-2.16,1.17,3.4,1.72,4.56,2.14,4.56.22,0,.63-.22,1.38-.75l.78-.54-.14-.32-.73.41c-.24.14-.36.17-.49.17-.17,0-.29-.1-.44-.39-.6-1.09-.97-2.01-1.63-4.1l.24-.24c1.04-1.04,1.82-1.46,2.67-1.46.14,0,.32.03.61.1l.29-1.07c-.31-.1-.61-.15-.82-.15-1.12,0-2.53,1.31-4.66,4.28l1.82-8.36Z"/>
  <path d="m346.58,239.18v-.51l-.88-.05c-.94-.05-1.11-.24-1.11-1.12v-10.27l-4.1,1.73.12.85,2.55-1.12v8.81c0,.88-.19,1.07-1.11,1.12l-.95.05v.51q2.62-.05,2.81-.05c.53,0,2.4.05,2.67.05Z"/>
  <g>
    <path class="cls-23" d="m465.37,192.33c-.37-.65-.56-1.04-.87-1.87l-1.09-2.86c-.1-.29-.17-.54-.17-.71,0-.24.19-.37.58-.39l.65-.03v-.48q-1.65.05-1.97.05t-1.97-.05v.48l.31.03c.43.05.63.24.88.83l1.85,4.45c.48,1.16.65,1.56.95,2.41l-.39,1.04c-.54,1.43-1.21,2.23-1.85,2.23-.27,0-.58-.14-.87-.39h-.22l-.41,1.28c.32.17.6.26.92.26,1.14,0,1.87-.61,2.52-2.09l3.45-7.96c.68-1.55,1-2.01,1.43-2.06l.48-.03v-.48q-1.34.05-1.62.05-.27,0-1.62-.05v.48l.44.03c.48.03.71.19.71.43,0,.12-.03.27-.1.44l-2.02,4.96Z"/>
    <g class="cls-2">
      <g class="cls-10">
        <path d="m445.41,182.36h46.82v-1.02h-46.82v1.02Z"/>
      </g>
    </g>
  </g>
  <path d="m466.29,208.18h.39c.14-1.11.26-1.73.41-2.18-.41-.26-1-.41-1.63-.41-.77-.02-2.01.32-2.98,1.39-.92.82-1.58,2.7-1.58,4.49,0,1.63.71,2.5,2.07,2.5.92,0,1.73-.34,2.67-1.11l.85-.7-.14-.34-.26.17c-1.22.82-1.87,1.11-2.47,1.11-.95,0-1.45-.68-1.45-2.02,0-1.84.6-3.6,1.43-4.25.36-.27.77-.41,1.29-.41.77,0,1.38.32,1.38.73v1.02Z"/>
  <path d="m211.58,239.18v-.51l-.88-.05c-.94-.05-1.11-.24-1.11-1.12v-10.27l-4.1,1.73.12.85,2.55-1.12v8.81c0,.88-.19,1.07-1.11,1.12l-.95.05v.51q2.62-.05,2.81-.05c.53,0,2.4.05,2.67.05Z"/>
  <g>
    <path d="m277.05,119.78l-2,.83-.08.14.55.78h.15l1.62-1.35.28,2.17.15.06,1.04-.4v-.15l-1.04-1.87,2.11.31.14-.12v-.95l-.09-.06-2.13.37,1.06-1.91-.05-.23-.95-.29-.14.06-.4,2.19-1.45-1.5h-.15l-.67.8.05.15,2,.98Zm10.85-6.96l-.18-.17c-.8.4-1.35.54-2.45.64l-.06.32h.73c.37,0,.52.11.52.37,0,.12-.02.26-.03.37l-.73,4.1c-.21,1.15-.46,2.2-1.25,5.4l.14.15,1.03-.26.35-1.9c.14-.73.5-1.42,1.03-1.94,1.06,3.06,1.55,4.1,1.93,4.1.2,0,.57-.2,1.24-.67l.7-.49-.12-.29-.66.37c-.21.12-.32.15-.44.15-.15,0-.26-.09-.4-.35-.54-.98-.87-1.81-1.47-3.69l.21-.21c.93-.93,1.64-1.32,2.4-1.32.12,0,.29.03.55.09l.26-.96c-.28-.09-.55-.14-.73-.14-1.01,0-2.28,1.18-4.19,3.86l1.64-7.53Z"/>
    <path d="m298.22,114.24v-.6h-5.4v.6h5.4Zm5.01,2.63v-.32l-.56-.03c-.59-.03-.7-.15-.7-.71v-6.47l-2.58,1.09.07.54,1.61-.71v5.55c0,.56-.12.67-.7.71l-.6.03v.32q1.65-.03,1.77-.03c.33,0,1.51.03,1.68.03Zm4.05-7.68h-.59l-2.99,9.46h.59l2.99-9.46Zm.05,7.4v.28c2,0,2-.03,2.39-.03s.39.03,2.45.03v-.91c-1.23.05-1.72.01-3.71.05l1.95-2.07c1.04-1.1,1.36-1.69,1.36-2.5,0-1.23-.84-1.99-2.2-1.99-.77,0-1.3.21-1.82.75l-.18,1.46h.31l.14-.49c.17-.62.56-.89,1.27-.89.92,0,1.51.58,1.51,1.49,0,.8-.45,1.6-1.66,2.88l-1.82,1.94Z"/>
  </g>
  <g>
    <path d="m240.07,52.65c.85.54,1.85.93,3.09.93,1.85,0,3.05-1.39,3.05-2.85,0-1.35-.95-2.24-1.81-2.61-.49-.2-1.63-.41-2.03-.57-.59-.24-1.08-.78-1.08-1.44,0-.8.73-1.59,1.96-1.59,1.11,0,1.67.38,2.3.86l.19-1.12c-.7-.38-1.38-.65-2.47-.65-1.9,0-3.05,1.35-3.05,2.66,0,1.4,1.12,2.27,2.08,2.52,1.17.31,1.35.32,1.67.45.69.28,1.16.9,1.16,1.62,0,.88-.74,1.78-1.97,1.78-1.34,0-2.24-.61-2.89-1.12l-.2,1.12Zm7.37-2.38c0,1.73,1.27,3.16,2.93,3.16.93,0,1.59-.3,2.2-.69l-.07-.9c-.43.3-1.07.73-2.12.73-1.13,0-1.89-.99-1.89-2.3,0-1.17.59-2.35,1.9-2.35,1.07,0,1.42.28,1.94.62l.16-.89c-.82-.47-1.26-.59-2.09-.59-1.89,0-2.97,1.65-2.97,3.21Zm6.12,1.49c0,.62.41,1.67,1.54,1.67,1.49,0,2.23-.61,2.24-.62v.47h1.03v-4.12c-.07-1.13-.96-2.11-2.24-2.11-.85,0-1.47.22-2.12.59l.08.9c.45-.31,1.01-.69,2.03-.69.18,0,.53.01.85.41.34.41.34.86.35,1.24v.46c-1.39.01-3.75.35-3.75,1.78Zm.99-.01c0-.85,1.8-1.05,2.77-1.07v.85c0,.88-.93,1.07-1.51,1.07-.73,0-1.26-.36-1.26-.85Zm5.99,1.54h1.01v-9.75h-1.01v9.75Zm2.59-3.05c0,1.67,1.17,3.2,2.94,3.2.85,0,1.55-.3,2.13-.69l-.08-.89c-.59.43-1.2.74-2.05.74-1.03,0-1.94-.89-2-2.28h4.19v-.39c-.12-2.31-1.44-2.86-2.4-2.86-1.43,0-2.73,1.36-2.73,3.17Zm1.01-.66c.15-.66.69-1.67,1.71-1.67.39,0,1.4.18,1.63,1.67h-3.35Zm5,.73c0,1.61.95,3.13,2.32,3.13.89,0,1.54-.41,2-.85v.7h1.07v-9.75h-1.03v4.33c-.47-.38-1.11-.74-1.96-.74-1.34,0-2.4,1.39-2.4,3.17Zm1.05-.01c0-1.77,1.17-2.32,1.96-2.32h.03c.15,0,.58.01,1,.41.24.23.28.31.28.53v2.58c0,.42-.63,1.12-1.44,1.12-.73,0-1.82-.53-1.82-2.31Zm11.23,3h3.35c.22,0,.43,0,.65-.03,1.9-.22,3.71-1.98,3.71-4.59,0-1.62-.73-3.24-2.07-4.12-.86-.57-1.59-.63-2.32-.63h-3.32v9.37Zm1.17-.76v-7.86h1.93c2.27,0,3.43,1.84,3.43,4.01,0,.93-.23,1.86-.8,2.61-.93,1.23-2.2,1.24-2.63,1.24h-1.93Zm7.7-2.23c0,1.84,1.42,3.13,2.96,3.13s2.97-1.28,2.97-3.12c0-1.69-1.24-3.25-2.97-3.25-1.59,0-2.96,1.4-2.96,3.24Zm1.05-.14c0-1.63,1.04-2.27,1.9-2.27s1.9.62,1.9,2.27-1,2.4-1.9,2.4-1.9-.7-1.9-2.4Zm5.54-2.09h1.13v3.63c0,1.49.66,1.73,1.11,1.73.61,0,1.3-.14,2-.51l-.22-.8c-.19.14-.61.45-1.19.45-.7,0-.73-.8-.73-1.17v-3.32h1.9v-.8h-1.9v-1.7h-.95v1.7h-1.16v.8Zm4.77,2.61h3.59v-.8h-3.59v.8Zm5.64,2.61h1.22v-3.9h1.58c.15,0,.3.01.45.01,2.3,0,3.33-1.53,3.33-2.77,0-.88-.49-1.67-1.31-2.19-.69-.43-1.35-.53-2.08-.53h-3.19v9.37Zm1.17-4.68v-3.93h1.8c2.09,0,2.51,1.27,2.51,1.96,0,.78-.51,1.97-2.51,1.97h-1.8Zm7.26,4.68h1.01v-2.78c0-1.97,1.5-2.43,2.3-2.46v-.9c-1.43.03-2.15.95-2.36,1.28v-1.22h-.95v6.08Zm3.93-2.98c0,1.84,1.42,3.13,2.96,3.13s2.97-1.28,2.97-3.12c0-1.69-1.24-3.25-2.97-3.25-1.59,0-2.96,1.4-2.96,3.24Zm1.05-.14c0-1.63,1.04-2.27,1.9-2.27s1.9.62,1.9,2.27-1,2.4-1.9,2.4-1.9-.7-1.9-2.4Zm6.14.14c0,1.61.95,3.13,2.32,3.13.89,0,1.54-.41,2-.85v.7h1.07v-9.75h-1.03v4.33c-.47-.38-1.11-.74-1.96-.74-1.34,0-2.4,1.39-2.4,3.17Zm1.05-.01c0-1.77,1.17-2.32,1.96-2.32h.03c.15,0,.58.01,1,.41.24.23.28.31.28.53v2.58c0,.42-.63,1.12-1.44,1.12-.73,0-1.82-.53-1.82-2.31Zm6.53,1.35c0,.7,0,1.8,1.42,1.8.74,0,1.66-.19,2.36-.8v.65h1.03v-6.01h-1.05v3.78c0,.14,0,.26-.01.39-.07.58-.59,1.23-1.61,1.23-.92,0-1.07-.3-1.08-.88v-4.52h-1.05v4.36Zm6.37-1.36c0,1.73,1.27,3.16,2.93,3.16.93,0,1.59-.3,2.2-.69l-.07-.9c-.43.3-1.07.73-2.12.73-1.13,0-1.89-.99-1.89-2.3,0-1.17.59-2.35,1.9-2.35,1.07,0,1.42.28,1.94.62l.16-.89c-.82-.47-1.26-.59-2.09-.59-1.89,0-2.97,1.65-2.97,3.21Zm5.76-2.2h1.13v3.63c0,1.49.66,1.73,1.11,1.73.61,0,1.3-.14,2-.51l-.22-.8c-.19.14-.61.45-1.19.45-.7,0-.73-.8-.73-1.17v-3.32h1.9v-.8h-1.9v-1.7h-.95v1.7h-1.16v.8Z"/>
    <path d="m269.11,74.29h1.01l1.03-2.75h3.92l1.04,2.75h1.24l-3.51-9.37h-1.2l-3.52,9.37Zm2.32-3.51c1.07-2.92,1.57-4.41,1.67-4.91.08.5.45,1.51,1.67,4.91h-3.35Zm6.18-1.7h1.13v3.63c0,1.49.66,1.73,1.11,1.73.61,0,1.3-.14,2-.51l-.22-.8c-.19.14-.61.45-1.19.45-.7,0-.73-.8-.73-1.17v-3.32h1.9v-.8h-1.9v-1.7h-.95v1.7h-1.16v.8Zm4.87,0h1.13v3.63c0,1.49.66,1.73,1.11,1.73.61,0,1.3-.14,2-.51l-.22-.8c-.19.14-.61.45-1.19.45-.7,0-.73-.8-.73-1.17v-3.32h1.9v-.8h-1.9v-1.7h-.95v1.7h-1.16v.8Zm5.09,2.16c0,1.67,1.17,3.2,2.94,3.2.85,0,1.55-.3,2.13-.69l-.08-.89c-.59.43-1.2.74-2.05.74-1.03,0-1.94-.89-2-2.28h4.19v-.39c-.12-2.31-1.44-2.86-2.4-2.86-1.43,0-2.73,1.36-2.73,3.17Zm1.01-.66c.15-.66.69-1.67,1.71-1.67.39,0,1.4.18,1.63,1.67h-3.35Zm5.6,3.71h1.05v-3.24c0-1,.34-2.08,1.38-2.08,1.32,0,1.32,1.01,1.32,1.53v3.79h1.05v-3.89c0-.95-.12-2.25-1.85-2.25-1.19,0-1.78.77-1.97,1.01v-.95h-.99v6.08Zm6.14-5.21h1.13v3.63c0,1.49.66,1.73,1.11,1.73.61,0,1.3-.14,2-.51l-.22-.8c-.19.14-.61.45-1.19.45-.7,0-.73-.8-.73-1.17v-3.32h1.9v-.8h-1.9v-1.7h-.95v1.7h-1.16v.8Zm5.72,5.21h1.01v-6.01h-1.01v6.01Zm-.09-7.97h1.22v-1.2h-1.22v1.2Zm2.63,4.98c0,1.84,1.42,3.13,2.96,3.13s2.97-1.28,2.97-3.12c0-1.69-1.24-3.25-2.97-3.25-1.59,0-2.96,1.4-2.96,3.24Zm1.05-.14c0-1.63,1.04-2.27,1.9-2.27s1.9.62,1.9,2.27-1,2.4-1.9,2.4-1.9-.7-1.9-2.4Zm6.37,3.12h1.05v-3.24c0-1,.34-2.08,1.38-2.08,1.32,0,1.32,1.01,1.32,1.53v3.79h1.05v-3.89c0-.95-.12-2.25-1.85-2.25-1.19,0-1.78.77-1.97,1.01v-.95h-.99v6.08Z"/>
  </g>
  <g>
    <path class="cls-23" d="m20.37,77.67c-.37-.65-.56-1.04-.87-1.87l-1.09-2.86c-.1-.29-.17-.54-.17-.71,0-.24.19-.37.58-.39l.65-.03v-.48q-1.65.05-1.97.05t-1.97-.05v.48l.31.03c.43.05.63.24.88.83l1.85,4.45c.48,1.16.65,1.56.95,2.41l-.39,1.04c-.54,1.43-1.21,2.23-1.85,2.23-.27,0-.58-.14-.87-.39h-.22l-.41,1.28c.32.17.6.26.92.26,1.14,0,1.87-.61,2.52-2.09l3.45-7.96c.68-1.55,1-2.01,1.43-2.06l.48-.03v-.48q-1.34.05-1.62.05-.27,0-1.62-.05v.48l.44.03c.48.03.71.19.71.43,0,.12-.03.27-.1.44l-2.02,4.96Z"/>
    <g class="cls-4">
      <g class="cls-8">
        <path d="m.41,67.7h46.82v-1.02H.41v1.02Z"/>
      </g>
    </g>
  </g>
  <path d="m20.29,93.52h.39c.14-1.11.26-1.73.41-2.18-.41-.26-1-.41-1.63-.41-.77-.02-2.01.32-2.98,1.39-.92.82-1.58,2.7-1.58,4.49,0,1.63.71,2.5,2.07,2.5.92,0,1.73-.34,2.67-1.11l.85-.7-.14-.34-.26.17c-1.22.82-1.87,1.11-2.47,1.11-.95,0-1.45-.68-1.45-2.02,0-1.84.6-3.6,1.43-4.25.36-.27.77-.41,1.29-.41.77,0,1.38.32,1.38.73v1.02Z"/>
  <g>
    <path class="cls-23" d="m20.22,134.81l2.41-2.82c.1-.12.29-.19.58-.19h.24v-.48h-1.39l-2.11,2.98-1.29-1.97c-.26-.37-.44-.6-1.02-1.17l-1.97.34.09.44.36.03c.31.02.68.26.85.49l2.04,2.96-2.53,2.99c-.12.15-.34.26-.51.26h-.29v.46h1.46l2.28-3.26,2.26,3.32q.88-.05,1.04-.05t1.05.05v-.51l-.43-.05c-.2-.02-.41-.15-.6-.41l-2.52-3.4Z"/>
    <g class="cls-20">
      <g class="cls-5">
        <path d="m.41,127.7h46.82v-1.02H.41v1.02Z"/>
      </g>
    </g>
  </g>
  <path d="m20.29,153.52h.39c.14-1.11.26-1.73.41-2.18-.41-.26-1-.41-1.63-.41-.77-.02-2.01.32-2.98,1.39-.92.82-1.58,2.7-1.58,4.49,0,1.63.71,2.5,2.07,2.5.92,0,1.73-.34,2.67-1.11l.85-.7-.14-.34-.26.17c-1.22.82-1.87,1.11-2.47,1.11-.95,0-1.45-.68-1.45-2.02,0-1.84.6-3.6,1.43-4.25.36-.27.77-.41,1.29-.41.77,0,1.38.32,1.38.73v1.02Z"/>
  <path d="m163.69,7.72l4.09,10.41h1.38l4.09-10.41h-1.17l-2.32,5.98c-.84,2.17-1.11,3-1.17,3.37-.16-.7-.45-1.39-1.21-3.45l-2.29-5.91h-1.39Zm11.01,10.41h1.12v-6.67h-1.12v6.67Zm-.1-8.85h1.35v-1.33h-1.35v1.33Zm2.88,8.34c1.12.61,2.04.67,2.55.67,2.01,0,2.44-1.24,2.44-2.07,0-.97-.69-1.6-1.3-1.87-.93-.42-2.53-.22-2.53-1.32,0-.37.22-.91,1.26-.91s1.56.27,2.16.55l.16-.99c-.82-.34-1.35-.46-2.19-.46-2.04,0-2.46,1.18-2.46,1.98,0,1.05.9,1.63,1.56,1.84.46.15,1.11.22,1.44.33.3.09.84.39.84.96,0,.4-.27,1.02-1.39,1.02-1.21,0-1.93-.51-2.35-.75l-.18,1.02Zm6.54-1.32c0,.78,0,1.99,1.57,1.99.82,0,1.84-.21,2.62-.88v.72h1.14v-6.67h-1.17v4.2c0,.15,0,.28-.01.43-.07.64-.66,1.36-1.78,1.36-1.02,0-1.18-.33-1.2-.97v-5.02h-1.17v4.84Zm7.21.13c0,.69.45,1.86,1.71,1.86,1.65,0,2.47-.67,2.49-.69v.52h1.14v-4.57c-.07-1.26-1.06-2.34-2.49-2.34-.94,0-1.63.24-2.35.66l.09,1c.49-.34,1.12-.76,2.25-.76.19,0,.58.01.94.45.37.45.37.96.39,1.38v.51c-1.54.01-4.17.39-4.17,1.98Zm1.09-.01c0-.94,1.99-1.17,3.07-1.18v.94c0,.97-1.03,1.18-1.68,1.18-.81,0-1.39-.4-1.39-.94Zm6.66,1.71h1.12V7.3h-1.12v10.83Zm7.77,0h1.12l1.14-3.06h4.35l1.15,3.06h1.38l-3.9-10.41h-1.33l-3.91,10.41Zm2.58-3.9c1.18-3.24,1.74-4.9,1.86-5.46.09.55.49,1.68,1.86,5.46h-3.72Zm6.87-1.89h1.26v4.03c0,1.65.73,1.92,1.23,1.92.67,0,1.44-.15,2.22-.57l-.24-.88c-.21.15-.67.49-1.32.49-.78,0-.81-.88-.81-1.3v-3.69h2.11v-.88h-2.11v-1.89h-1.05v1.89h-1.29v.88Zm5.41,0h1.26v4.03c0,1.65.73,1.92,1.23,1.92.67,0,1.44-.15,2.22-.57l-.24-.88c-.21.15-.67.49-1.32.49-.78,0-.81-.88-.81-1.3v-3.69h2.11v-.88h-2.11v-1.89h-1.05v1.89h-1.29v.88Zm5.65,2.4c0,1.86,1.3,3.55,3.27,3.55.94,0,1.72-.33,2.37-.76l-.09-.99c-.66.48-1.33.82-2.28.82-1.14,0-2.16-.99-2.22-2.53h4.65v-.43c-.13-2.56-1.6-3.18-2.67-3.18-1.59,0-3.03,1.51-3.03,3.52Zm1.12-.73c.16-.73.76-1.86,1.9-1.86.43,0,1.56.19,1.81,1.86h-3.72Zm6.22,4.12h1.17v-3.6c0-1.11.37-2.31,1.53-2.31,1.47,0,1.47,1.12,1.47,1.69v4.21h1.17v-4.32c0-1.05-.13-2.5-2.05-2.5-1.32,0-1.98.85-2.19,1.12v-1.05h-1.09v6.75Zm6.82-5.79h1.26v4.03c0,1.65.73,1.92,1.23,1.92.67,0,1.44-.15,2.22-.57l-.24-.88c-.21.15-.67.49-1.32.49-.78,0-.81-.88-.81-1.3v-3.69h2.11v-.88h-2.11v-1.89h-1.05v1.89h-1.29v.88Zm6.36,5.79h1.12v-6.67h-1.12v6.67Zm-.1-8.85h1.35v-1.33h-1.35v1.33Zm2.92,5.53c0,2.04,1.57,3.48,3.28,3.48s3.3-1.42,3.3-3.46c0-1.87-1.38-3.61-3.3-3.61-1.77,0-3.28,1.56-3.28,3.6Zm1.17-.15c0-1.81,1.15-2.52,2.11-2.52s2.11.69,2.11,2.52-1.11,2.67-2.11,2.67-2.11-.78-2.11-2.67Zm7.08,3.46h1.17v-3.6c0-1.11.37-2.31,1.53-2.31,1.47,0,1.47,1.12,1.47,1.69v4.21h1.17v-4.32c0-1.05-.13-2.5-2.05-2.5-1.32,0-1.98.85-2.19,1.12v-1.05h-1.09v6.75Z"/>
  <path d="m136.42,75.05h-3.37l-1.03-3.17-1.02,3.18h-3.36l2.72,2.03-1.03,3.14,2.72-2,2.71,2-1.06-3.18,2.73-2Z"/>
  <g>
    <path d="m152.87,154.92v-.46l-.8-.05c-.84-.05-.99-.21-.99-1.01v-9.24l-3.69,1.56.11.77,2.3-1.01v7.93c0,.8-.17.96-.99,1.01l-.86.05v.46q2.36-.05,2.52-.05c.47,0,2.16.05,2.4.05Z"/>
    <path d="m155.16,148.6v.28c2,0,2-.03,2.39-.03s.39.03,2.45.03v-.91c-1.23.05-1.72.01-3.71.05l1.95-2.07c1.04-1.1,1.36-1.69,1.36-2.5,0-1.23-.84-1.99-2.2-1.99-.77,0-1.3.21-1.82.75l-.18,1.46h.31l.14-.49c.17-.62.56-.89,1.27-.89.92,0,1.51.58,1.51,1.49,0,.8-.45,1.6-1.66,2.88l-1.82,1.94Z"/>
  </g>
  <path d="m136.42,135.05h-3.37l-1.03-3.17-1.02,3.18h-3.36l2.72,2.03-1.03,3.14,2.72-2,2.71,2-1.06-3.18,2.73-2Z"/>
  <g>
    <path d="m152.87,94.57v-.46l-.8-.05c-.84-.05-.99-.21-.99-1.01v-9.24l-3.69,1.56.11.77,2.3-1.01v7.93c0,.8-.17.96-.99,1.01l-.86.05v.46q2.36-.05,2.52-.05c.47,0,2.16.05,2.4.05Z"/>
    <path d="m155.16,88.25v.28c2,0,2-.03,2.39-.03s.39.03,2.45.03v-.91c-1.23.05-1.72.01-3.71.05l1.95-2.07c1.04-1.1,1.36-1.69,1.36-2.5,0-1.23-.84-1.99-2.2-1.99-.77,0-1.3.21-1.82.75l-.18,1.46h.31l.14-.49c.17-.62.56-.89,1.27-.89.92,0,1.51.58,1.51,1.49,0,.8-.45,1.6-1.66,2.88l-1.82,1.94Z"/>
  </g>
  <path d="m136.42,195.05h-3.37l-1.03-3.17-1.02,3.18h-3.36l2.72,2.03-1.03,3.14,2.72-2,2.71,2-1.06-3.18,2.73-2Z"/>
  <g>
    <path d="m150.87,214.92v-.46l-.8-.05c-.84-.05-.99-.21-.99-1.01v-9.24l-3.69,1.56.11.77,2.3-1.01v7.93c0,.8-.17.96-.99,1.01l-.86.05v.46q2.36-.05,2.52-.05c.47,0,2.16.05,2.4.05Z"/>
    <path d="m153.16,208.6v.28c2,0,2-.03,2.39-.03s.39.03,2.45.03v-.91c-1.23.05-1.72.01-3.71.05l1.95-2.07c1.04-1.1,1.36-1.69,1.36-2.5,0-1.23-.84-1.99-2.2-1.99-.77,0-1.3.21-1.82.75l-.18,1.46h.31l.14-.49c.17-.62.56-.89,1.27-.89.92,0,1.51.58,1.51,1.49,0,.8-.45,1.6-1.66,2.88l-1.82,1.94Z"/>
  </g>
  <g>
    <path class="cls-23" d="m150.37,72.67c-.37-.65-.56-1.04-.87-1.87l-1.09-2.86c-.1-.29-.17-.54-.17-.71,0-.24.19-.37.58-.39l.65-.03v-.48q-1.65.05-1.97.05t-1.97-.05v.48l.31.03c.43.05.63.24.88.83l1.85,4.45c.48,1.16.65,1.56.95,2.41l-.39,1.04c-.54,1.43-1.21,2.23-1.85,2.23-.27,0-.58-.14-.87-.39h-.22l-.41,1.28c.32.17.6.26.92.26,1.14,0,1.87-.61,2.52-2.09l3.45-7.96c.68-1.55,1-2.01,1.43-2.06l.48-.03v-.48q-1.34.05-1.62.05-.27,0-1.62-.05v.48l.44.03c.48.03.71.19.71.43,0,.12-.03.27-.1.44l-2.02,4.96Z"/>
    <g class="cls-9">
      <g class="cls-14">
        <path d="m130.41,62.7h46.82v-1.02h-46.82v1.02Z"/>
      </g>
    </g>
  </g>
  <g>
    <path class="cls-23" d="m151.22,129.81l2.41-2.82c.1-.12.29-.19.58-.19h.24v-.48h-1.39l-2.11,2.98-1.29-1.97c-.26-.37-.44-.6-1.02-1.17l-1.97.34.09.44.36.03c.31.02.68.26.85.49l2.04,2.96-2.53,2.99c-.12.15-.34.26-.51.26h-.29v.46h1.46l2.28-3.26,2.26,3.32q.88-.05,1.04-.05t1.05.05v-.51l-.43-.05c-.2-.02-.41-.15-.6-.41l-2.52-3.4Z"/>
    <g class="cls-6">
      <g class="cls-7">
        <path d="m131.41,122.7h46.82v-1.02h-46.82v1.02Z"/>
      </g>
    </g>
  </g>
  <g>
    <path class="cls-23" d="m151.22,189.81l2.41-2.82c.1-.12.29-.19.58-.19h.24v-.48h-1.39l-2.11,2.98-1.29-1.97c-.26-.37-.44-.6-1.02-1.17l-1.97.34.09.44.36.03c.31.02.68.26.85.49l2.04,2.96-2.53,2.99c-.12.15-.34.26-.51.26h-.29v.46h1.46l2.28-3.26,2.26,3.32q.88-.05,1.04-.05t1.05.05v-.51l-.43-.05c-.2-.02-.41-.15-.6-.41l-2.52-3.4Z"/>
    <g class="cls-21">
      <g class="cls-12">
        <path d="m131.41,182.7h46.82v-1.02h-46.82v1.02Z"/>
      </g>
    </g>
  </g>
  <g>
    <g>
      <g>
        <path d="m31.23,35.6v-.41l-.72-.04c-.76-.04-.9-.19-.9-.91v-8.32l-3.32,1.4.1.69,2.07-.91v7.13c0,.72-.15.87-.9.91l-.77.04v.41q2.12-.04,2.27-.04c.43,0,1.94.04,2.16.04Z"/>
        <path d="m43.52,35.05l-3.24-3.22,3.24-3.22-.59-.58-3.21,3.22-3.22-3.22-.58.58,3.22,3.22-3.22,3.22.58.58,3.22-3.22,3.21,3.22.59-.58Z"/>
        <path d="m52.81,35.6v-.41l-.72-.04c-.76-.04-.9-.19-.9-.91v-8.32l-3.32,1.4.1.69,2.07-.91v7.13c0,.72-.15.87-.9.91l-.77.04v.41q2.12-.04,2.27-.04c.43,0,1.94.04,2.16.04Z"/>
      </g>
      <path d="m58.4,33.23c0,1.56,1.14,2.84,2.64,2.84.84,0,1.43-.27,1.98-.62l-.06-.81c-.39.27-.96.66-1.91.66-1.02,0-1.7-.89-1.7-2.07,0-1.06.53-2.11,1.71-2.11.96,0,1.28.26,1.75.56l.15-.8c-.74-.43-1.13-.53-1.88-.53-1.7,0-2.67,1.48-2.67,2.89Zm5.33.02c0,1.65,1.28,2.82,2.66,2.82s2.67-1.15,2.67-2.81c0-1.52-1.12-2.93-2.67-2.93-1.43,0-2.66,1.26-2.66,2.92Zm.95-.12c0-1.47.94-2.04,1.71-2.04s1.71.56,1.71,2.04-.9,2.16-1.71,2.16-1.71-.63-1.71-2.16Zm5.73,2.81h.95v-2.92c0-.9.3-1.87,1.24-1.87,1.19,0,1.19.91,1.19,1.37v3.41h.95v-3.5c0-.85-.11-2.03-1.66-2.03-1.07,0-1.6.69-1.77.91v-.85h-.89v5.47Zm5.48-5.41l2.09,5.41h1.07l2.09-5.41h-.9c-1.18,3.06-1.63,4.31-1.7,4.8-.06-.38-.13-.57-.58-1.83l-1.13-2.96h-.94Zm5.8,2.72c0,1.65,1.28,2.82,2.66,2.82s2.67-1.15,2.67-2.81c0-1.52-1.12-2.93-2.67-2.93-1.43,0-2.66,1.26-2.66,2.92Zm.95-.12c0-1.47.94-2.04,1.71-2.04s1.71.56,1.71,2.04-.9,2.16-1.71,2.16-1.71-.63-1.71-2.16Zm5.75,2.81h.91v-8.77h-.91v8.77Zm2.89-1.48c0,.63,0,1.62,1.28,1.62.67,0,1.49-.17,2.13-.72v.58h.92v-5.41h-.95v3.4c0,.12,0,.23-.01.35-.06.52-.53,1.11-1.45,1.11-.83,0-.96-.27-.97-.79v-4.07h-.95v3.92Zm5.53-3.21h1.02v3.27c0,1.34.6,1.56,1,1.56.55,0,1.17-.12,1.8-.46l-.19-.72c-.17.12-.55.4-1.07.4-.63,0-.66-.72-.66-1.06v-2.99h1.71v-.72h-1.71v-1.53h-.85v1.53h-1.04v.72Zm5.15,4.69h.91v-5.41h-.91v5.41Zm-.09-7.17h1.09v-1.08h-1.09v1.08Zm2.37,4.48c0,1.65,1.28,2.82,2.66,2.82s2.67-1.15,2.67-2.81c0-1.52-1.12-2.93-2.67-2.93-1.43,0-2.66,1.26-2.66,2.92Zm.95-.12c0-1.47.94-2.04,1.71-2.04s1.71.56,1.71,2.04-.9,2.16-1.71,2.16-1.71-.63-1.71-2.16Zm5.73,2.81h.95v-2.92c0-.9.3-1.87,1.24-1.87,1.19,0,1.19.91,1.19,1.37v3.41h.95v-3.5c0-.85-.11-2.03-1.66-2.03-1.07,0-1.6.69-1.77.91v-.85h-.89v5.47Zm9.57-4.69h1.02v3.27c0,1.34.6,1.56,1,1.56.55,0,1.17-.12,1.8-.46l-.19-.72c-.17.12-.55.4-1.07.4-.63,0-.66-.72-.66-1.06v-2.99h1.71v-.72h-1.71v-1.53h-.85v1.53h-1.04v.72Zm4.58,1.94c0,1.51,1.06,2.88,2.65,2.88.77,0,1.4-.27,1.92-.62l-.07-.8c-.53.39-1.08.67-1.85.67-.92,0-1.75-.8-1.8-2.05h3.77v-.35c-.11-2.08-1.3-2.58-2.16-2.58-1.29,0-2.45,1.23-2.45,2.86Zm.91-.6c.13-.6.62-1.51,1.54-1.51.35,0,1.26.16,1.47,1.51h-3.01Zm5.04,3.34h.95v-2.92c0-.9.3-1.87,1.24-1.87,1.19,0,1.19.91,1.19,1.37v3.41h.95v-3.5c0-.85-.11-2.03-1.66-2.03-1.07,0-1.6.69-1.77.91v-.85h-.89v5.47Zm5.64-.41c.91.5,1.65.55,2.07.55,1.63,0,1.98-1.01,1.98-1.68,0-.79-.56-1.3-1.06-1.52-.75-.34-2.05-.18-2.05-1.07,0-.3.18-.74,1.02-.74s1.26.22,1.75.45l.13-.8c-.67-.28-1.09-.38-1.77-.38-1.65,0-1.99.96-1.99,1.6,0,.85.73,1.32,1.26,1.49.38.12.9.18,1.17.27.24.07.68.32.68.78,0,.33-.22.83-1.13.83-.98,0-1.57-.41-1.91-.61l-.15.83Zm4.69-2.27c0,1.65,1.28,2.82,2.66,2.82s2.67-1.15,2.67-2.81c0-1.52-1.12-2.93-2.67-2.93-1.43,0-2.66,1.26-2.66,2.92Zm.95-.12c0-1.47.94-2.04,1.71-2.04s1.71.56,1.71,2.04-.9,2.16-1.71,2.16-1.71-.63-1.71-2.16Zm5.41,2.81h.91v-2.5c0-1.77,1.35-2.19,2.07-2.21v-.81c-1.29.02-1.93.85-2.13,1.15v-1.09h-.85v5.47Zm3.5-.41c.91.5,1.65.55,2.07.55,1.63,0,1.98-1.01,1.98-1.68,0-.79-.56-1.3-1.06-1.52-.75-.34-2.05-.18-2.05-1.07,0-.3.18-.74,1.02-.74s1.26.22,1.75.45l.13-.8c-.67-.28-1.09-.38-1.77-.38-1.65,0-1.99.96-1.99,1.6,0,.85.73,1.32,1.26,1.49.38.12.9.18,1.17.27.24.07.68.32.68.78,0,.33-.22.83-1.13.83-.98,0-1.57-.41-1.91-.61l-.15.83Zm8.91-.96c0,.56.36,1.51,1.39,1.51,1.34,0,2-.55,2.02-.56v.43h.92v-3.71c-.06-1.02-.86-1.9-2.02-1.9-.77,0-1.32.19-1.91.53l.07.81c.4-.28.91-.62,1.82-.62.16,0,.47.01.77.36.3.36.3.78.32,1.12v.41c-1.25.01-3.38.32-3.38,1.6Zm.89-.01c0-.77,1.62-.95,2.49-.96v.77c0,.79-.84.96-1.36.96-.66,0-1.13-.33-1.13-.77Zm5.05,1.39h.91v-2.5c0-1.77,1.35-2.19,2.07-2.21v-.81c-1.29.02-1.93.85-2.13,1.15v-1.09h-.85v5.47Zm3.58-2.75c0,1.51,1.06,2.88,2.65,2.88.77,0,1.4-.27,1.92-.62l-.07-.8c-.53.39-1.08.67-1.85.67-.92,0-1.75-.8-1.8-2.05h3.77v-.35c-.11-2.08-1.3-2.58-2.16-2.58-1.29,0-2.45,1.23-2.45,2.86Zm.91-.6c.13-.6.62-1.51,1.54-1.51.35,0,1.26.16,1.47,1.51h-3.01Zm8.33-1.35h1.02v3.27c0,1.34.6,1.56,1,1.56.55,0,1.17-.12,1.8-.46l-.19-.72c-.17.12-.55.4-1.07.4-.63,0-.66-.72-.66-1.06v-2.99h1.71v-.72h-1.71v-1.53h-.85v1.53h-1.04v.72Zm5.14,4.69h.95v-2.92c0-.9.3-1.87,1.24-1.87,1.19,0,1.19.91,1.19,1.37v3.41h.95v-3.5c0-.74-.05-2.03-1.66-2.03-.84,0-1.36.4-1.75.86v-4.11h-.91v8.77Zm5.72-2.75c0,1.51,1.06,2.88,2.65,2.88.77,0,1.4-.27,1.92-.62l-.07-.8c-.53.39-1.08.67-1.85.67-.92,0-1.75-.8-1.8-2.05h3.77v-.35c-.11-2.08-1.3-2.58-2.16-2.58-1.29,0-2.45,1.23-2.45,2.86Zm.91-.6c.13-.6.62-1.51,1.54-1.51.35,0,1.26.16,1.47,1.51h-3.01Z"/>
    </g>
    <path d="m26.46,54.83h.91v-5.41h-.91v5.41Zm-.09-7.17h1.09v-1.08h-1.09v1.08Zm2.43,4.48c0,1.45.85,2.82,2.09,2.82.8,0,1.39-.36,1.8-.77v.63h.96v-8.77h-.92v3.9c-.43-.34-1-.67-1.76-.67-1.2,0-2.16,1.25-2.16,2.86Zm.95-.01c0-1.59,1.06-2.09,1.76-2.09h.02c.13,0,.52.01.9.36.22.21.26.28.26.47v2.32c0,.38-.57,1.01-1.3,1.01-.66,0-1.64-.47-1.64-2.08Zm5.32-.05c0,1.51,1.06,2.88,2.65,2.88.77,0,1.4-.27,1.92-.62l-.07-.8c-.53.39-1.08.67-1.85.67-.92,0-1.75-.8-1.8-2.05h3.77v-.35c-.11-2.08-1.3-2.58-2.16-2.58-1.29,0-2.45,1.23-2.45,2.86Zm.91-.6c.13-.6.62-1.51,1.54-1.51.35,0,1.26.16,1.47,1.51h-3.01Zm5.04,3.34h.95v-2.92c0-.9.3-1.87,1.24-1.87,1.19,0,1.19.91,1.19,1.37v3.41h.95v-3.5c0-.85-.11-2.03-1.66-2.03-1.07,0-1.6.69-1.77.91v-.85h-.89v5.47Zm5.53-4.69h1.02v3.27c0,1.34.6,1.56,1,1.56.55,0,1.17-.12,1.8-.46l-.19-.72c-.17.12-.55.4-1.07.4-.63,0-.66-.72-.66-1.06v-2.99h1.71v-.72h-1.71v-1.53h-.85v1.53h-1.04v.72Zm5.15,4.69h.91v-5.41h-.91v5.41Zm-.09-7.17h1.09v-1.08h-1.09v1.08Zm2.22,2.48h1.02v3.27c0,1.34.6,1.56,1,1.56.55,0,1.17-.12,1.8-.46l-.19-.72c-.17.12-.55.4-1.07.4-.63,0-.66-.72-.66-1.06v-2.99h1.71v-.72h-1.71v-1.53h-.85v1.53h-1.04v.72Zm4-.72l2.27,5.19c.05.1.06.15.06.21,0,.05-.01.11-.05.19-.52,1.26-.62,1.63-1.13,1.63-.21,0-.47-.07-.89-.21l.06.79c.29.07.66.1.89.1.56,0,.91-.28,1.4-1.4l2.64-6.5h-.91c-.8,1.99-1.59,3.97-1.62,4.8-.11-.69-.11-1.02-1.76-4.8h-.96Zm5.59,5.41h.32l-.32,1.52h.51l.5-1.52v-.17s.01-.85.01-.85h-1.02v1.02Zm6.59-.41c.91.5,1.65.55,2.07.55,1.63,0,1.98-1.01,1.98-1.68,0-.79-.56-1.3-1.06-1.52-.75-.34-2.05-.18-2.05-1.07,0-.3.18-.74,1.02-.74s1.26.22,1.75.45l.13-.8c-.67-.28-1.09-.38-1.77-.38-1.65,0-1.99.96-1.99,1.6,0,.85.73,1.32,1.26,1.49.38.12.9.18,1.17.27.24.07.68.32.68.78,0,.33-.22.83-1.13.83-.98,0-1.57-.41-1.91-.61l-.15.83Zm4.69-2.27c0,1.65,1.28,2.82,2.66,2.82s2.67-1.15,2.67-2.81c0-1.52-1.12-2.93-2.67-2.93-1.43,0-2.66,1.26-2.66,2.92Zm.95-.12c0-1.47.94-2.04,1.71-2.04s1.71.56,1.71,2.04-.9,2.16-1.71,2.16-1.71-.63-1.71-2.16Zm9.23.1c0,1.56,1.14,2.84,2.64,2.84.84,0,1.43-.27,1.98-.62l-.06-.81c-.39.27-.96.66-1.91.66-1.02,0-1.7-.89-1.7-2.07,0-1.06.53-2.11,1.71-2.11.96,0,1.28.26,1.75.56l.15-.8c-.74-.43-1.13-.53-1.88-.53-1.7,0-2.67,1.48-2.67,2.89Zm5.5,1.34c0,.56.36,1.51,1.39,1.51,1.34,0,2-.55,2.02-.56v.43h.92v-3.71c-.06-1.02-.86-1.9-2.02-1.9-.77,0-1.32.19-1.91.53l.07.81c.4-.28.91-.62,1.82-.62.16,0,.47.01.77.36.3.36.3.78.32,1.12v.41c-1.25.01-3.38.32-3.38,1.6Zm.89-.01c0-.77,1.62-.95,2.49-.96v.77c0,.79-.84.96-1.36.96-.66,0-1.13-.33-1.13-.77Zm5.38,1.39h.95v-2.92c0-.9.3-1.87,1.24-1.87,1.19,0,1.19.91,1.19,1.37v3.41h.95v-3.5c0-.85-.11-2.03-1.66-2.03-1.07,0-1.6.69-1.77.91v-.85h-.89v5.47Zm10.34,0h.95v-.56c.41.38.91.69,1.63.69,1.2,0,2.27-1.18,2.27-2.86,0-1.46-.79-2.81-1.99-2.81-.38,0-1.17.09-1.94.7v-3.95h-.91v8.77Zm.95-1.62v-2.27c0-.45.67-.9,1.3-.9s1.64.46,1.64,2.08-1.04,2.1-1.74,2.1c-.35,0-.72-.15-1-.49-.16-.23-.21-.21-.21-.52Zm5.1-1.13c0,1.51,1.06,2.88,2.65,2.88.77,0,1.4-.27,1.92-.62l-.07-.8c-.53.39-1.08.67-1.85.67-.92,0-1.75-.8-1.8-2.05h3.77v-.35c-.11-2.08-1.3-2.58-2.16-2.58-1.29,0-2.45,1.23-2.45,2.86Zm.91-.6c.13-.6.62-1.51,1.54-1.51.35,0,1.26.16,1.47,1.51h-3.01Zm8.44-1.35h.9v4.69h.91v-4.69h1.34v-.72h-1.37v-1.65c0-.94.74-1.11,1.13-1.11s.7.1.98.21v-.81c-.28-.07-.58-.13-.96-.13-.98,0-2.04.73-2.04,2.32,0,.1.01.19.01.29v.89h-.9v.72Zm4.36,4.69h.91v-2.5c0-1.77,1.35-2.19,2.07-2.21v-.81c-1.29.02-1.93.85-2.13,1.15v-1.09h-.85v5.47Zm3.58-2.75c0,1.51,1.06,2.88,2.65,2.88.77,0,1.4-.27,1.92-.62l-.07-.8c-.53.39-1.08.67-1.85.67-.92,0-1.75-.8-1.8-2.05h3.77v-.35c-.11-2.08-1.3-2.58-2.16-2.58-1.29,0-2.45,1.23-2.45,2.86Zm.91-.6c.13-.6.62-1.51,1.54-1.51.35,0,1.26.16,1.47,1.51h-3.01Zm4.48.6c0,1.51,1.06,2.88,2.65,2.88.77,0,1.4-.27,1.92-.62l-.07-.8c-.53.39-1.08.67-1.85.67-.92,0-1.75-.8-1.8-2.05h3.77v-.35c-.11-2.08-1.3-2.58-2.16-2.58-1.29,0-2.45,1.23-2.45,2.86Zm.91-.6c.13-.6.62-1.51,1.54-1.51.35,0,1.26.16,1.47,1.51h-3.01Zm5.05,3.34h.91v-8.77h-.91v8.77Zm2.09-5.41l2.27,5.19c.05.1.06.15.06.21,0,.05-.01.11-.05.19-.52,1.26-.62,1.63-1.13,1.63-.21,0-.47-.07-.89-.21l.06.79c.29.07.66.1.89.1.56,0,.91-.28,1.4-1.4l2.64-6.5h-.91c-.8,1.99-1.59,3.97-1.62,4.8-.11-.69-.11-1.02-1.76-4.8h-.96Zm10.01,4.03c0,.56.36,1.51,1.39,1.51,1.34,0,2-.55,2.02-.56v.43h.92v-3.71c-.06-1.02-.86-1.9-2.02-1.9-.77,0-1.32.19-1.91.53l.07.81c.4-.28.91-.62,1.82-.62.16,0,.47.01.77.36.3.36.3.78.32,1.12v.41c-1.25.01-3.38.32-3.38,1.6Zm.89-.01c0-.77,1.62-.95,2.49-.96v.77c0,.79-.84.96-1.36.96-.66,0-1.13-.33-1.13-.77Zm4.84-1.3c0,1.45.85,2.82,2.09,2.82.8,0,1.39-.36,1.8-.77v.63h.96v-8.77h-.92v3.9c-.43-.34-1-.67-1.76-.67-1.2,0-2.16,1.25-2.16,2.86Zm.95-.01c0-1.59,1.06-2.09,1.76-2.09h.02c.13,0,.52.01.9.36.22.21.26.28.26.47v2.32c0,.38-.57,1.01-1.3,1.01-.66,0-1.64-.47-1.64-2.08Zm5.33.01c0,1.45.85,2.82,2.09,2.82.8,0,1.39-.36,1.8-.77v.63h.96v-8.77h-.92v3.9c-.43-.34-1-.67-1.76-.67-1.2,0-2.16,1.25-2.16,2.86Zm.95-.01c0-1.59,1.06-2.09,1.76-2.09h.02c.13,0,.52.01.9.36.22.21.26.28.26.47v2.32c0,.38-.57,1.01-1.3,1.01-.66,0-1.64-.47-1.64-2.08Zm5.32-.05c0,1.51,1.06,2.88,2.65,2.88.77,0,1.4-.27,1.92-.62l-.07-.8c-.53.39-1.08.67-1.85.67-.92,0-1.75-.8-1.8-2.05h3.77v-.35c-.11-2.08-1.3-2.58-2.16-2.58-1.29,0-2.45,1.23-2.45,2.86Zm.91-.6c.13-.6.62-1.51,1.54-1.51.35,0,1.26.16,1.47,1.51h-3.01Zm4.5.66c0,1.45.85,2.82,2.09,2.82.8,0,1.39-.36,1.8-.77v.63h.96v-8.77h-.92v3.9c-.43-.34-1-.67-1.76-.67-1.2,0-2.16,1.25-2.16,2.86Zm.95-.01c0-1.59,1.06-2.09,1.76-2.09h.02c.13,0,.52.01.9.36.22.21.26.28.26.47v2.32c0,.38-.57,1.01-1.3,1.01-.66,0-1.64-.47-1.64-2.08Zm6.07,2.7h1.02v-1.02h-1.02v1.02Z"/>
  </g>
  <g>
    <path class="cls-23" d="m110.22,188.81l2.41-2.82c.1-.12.29-.19.58-.19h.24v-.48h-1.39l-2.11,2.98-1.29-1.97c-.26-.37-.44-.6-1.02-1.17l-1.97.34.09.44.36.03c.31.02.68.26.85.49l2.04,2.96-2.53,2.99c-.12.15-.34.26-.51.26h-.29v.46h1.46l2.28-3.26,2.26,3.32q.88-.05,1.04-.05t1.05.05v-.51l-.43-.05c-.2-.02-.41-.15-.6-.41l-2.52-3.4Z"/>
    <g class="cls-11">
      <g class="cls-16">
        <path d="m90.41,181.7h46.82v-1.02h-46.82v1.02Z"/>
      </g>
    </g>
  </g>
  <path d="m396.42,191.29h-3.37l-1.03-3.17-1.02,3.18h-3.36l2.72,2.03-1.03,3.14,2.72-2,2.71,2-1.06-3.18,2.73-2Z"/>
  <g>
    <path d="m412.87,213.57v-.46l-.8-.05c-.84-.05-.99-.21-.99-1.01v-9.24l-3.69,1.56.11.77,2.3-1.01v7.93c0,.8-.17.96-.99,1.01l-.86.05v.46q2.36-.05,2.52-.05c.47,0,2.16.05,2.4.05Z"/>
    <path d="m415.16,207.25v.28c2,0,2-.03,2.39-.03s.39.03,2.45.03v-.91c-1.23.05-1.72.01-3.71.05l1.95-2.07c1.04-1.1,1.36-1.69,1.36-2.5,0-1.23-.84-1.99-2.2-1.99-.77,0-1.3.21-1.82.75l-.18,1.46h.31l.14-.49c.17-.62.56-.89,1.27-.89.92,0,1.51.58,1.51,1.49,0,.8-.45,1.6-1.66,2.88l-1.82,1.94Z"/>
  </g>
</svg>