<?xml version="1.0" encoding="UTF-8"?>
<svg id="Layer_1" data-name="Layer 1" xmlns="http://www.w3.org/2000/svg" viewBox="0 0 690 325">
  <defs>
    <style>
      .cls-1 {
        fill: #fdfac8;
      }

      .cls-2, .cls-3, .cls-4, .cls-5 {
        fill: none;
      }

      .cls-3 {
        stroke-dasharray: 0 0 1.12 3.35;
      }

      .cls-3, .cls-4, .cls-5 {
        stroke: #000;
      }

      .cls-4 {
        stroke-width: 2px;
      }
    </style>
  </defs>
  <g>
    <path class="cls-3" d="m204.76,229.18h50v90h-50v-90Z"/>
    <path class="cls-5" d="m4.76,69.18h50"/>
    <path class="cls-5" d="m74.76,69.18h50"/>
    <path class="cls-5" d="m74.76,89.18h50"/>
    <g>
      <path class="cls-2" d="m354.76,79.18h0c5.52,0,10-4.48,10-10s-4.48-10-10-10v20Z"/>
      <path class="cls-5" d="m354.76,79.18h0c5.52,0,10-4.48,10-10s-4.48-10-10-10"/>
    </g>
    <path class="cls-5" d="m234.76,89.18h40"/>
    <path class="cls-5" d="m294.76,79.18h60"/>
    <path class="cls-5" d="m294.76,99.18h100"/>
    <path class="cls-5" d="m234.76,59.18h120"/>
    <path class="cls-5" d="m434.76,89.18h50"/>
    <path class="cls-5" d="m504.76,89.18h50"/>
    <path class="cls-5" d="m434.76,69.18h50"/>
    <path class="cls-3" d="m304.76,9.18h70v100h-70V9.18Z"/>
    <path class="cls-5" d="m44.76,179.18h40"/>
    <path class="cls-5" d="m114.76,179.18h40"/>
    <path class="cls-5" d="m184.76,179.18h40"/>
    <path class="cls-5" d="m264.76,179.18h40"/>
    <path class="cls-5" d="m334.76,179.18h20"/>
    <path class="cls-5" d="m354.76,219.18h30"/>
    <g>
      <path class="cls-2" d="m354.76,199.18h0c5.52,0,10-4.48,10-10s-4.48-10-10-10v20Z"/>
      <path class="cls-5" d="m354.76,199.18h0c5.52,0,10-4.48,10-10s-4.48-10-10-10"/>
    </g>
    <g>
      <path class="cls-2" d="m354.76,199.18h0c-5.52,0-10,4.48-10,10s4.48,10,10,10v-20Z"/>
      <path class="cls-5" d="m354.76,199.18h0c-5.52,0-10,4.48-10,10s4.48,10,10,10"/>
    </g>
    <path class="cls-3" d="m334.76,119.18h50v110h-50v-110Z"/>
    <path class="cls-5" d="m414.76,219.18h30"/>
    <path class="cls-5" d="m94.76,259.18h40"/>
    <path class="cls-5" d="m164.76,259.18h90"/>
    <path class="cls-5" d="m184.76,299.18h30"/>
    <g>
      <path class="cls-2" d="m254.76,279.18h0c5.52,0,10-4.48,10-10s-4.48-10-10-10v20Z"/>
      <path class="cls-5" d="m254.76,279.18h0c5.52,0,10-4.48,10-10s-4.48-10-10-10"/>
    </g>
    <g>
      <path class="cls-2" d="m184.76,279.18h0c-5.52,0-10,4.48-10,10s4.48,10,10,10v-20Z"/>
      <path class="cls-5" d="m184.76,279.18h0c-5.52,0-10,4.48-10,10s4.48,10,10,10"/>
    </g>
    <path class="cls-5" d="m244.76,299.18h30"/>
    <path class="cls-5" d="m184.76,279.18h70"/>
    <path class="cls-5" d="m314.76,259.18h40"/>
    <path class="cls-5" d="m384.76,259.18h90"/>
    <g>
      <path class="cls-2" d="m474.76,279.18h0c5.52,0,10-4.48,10-10s-4.48-10-10-10v20Z"/>
      <path class="cls-5" d="m474.76,279.18h0c5.52,0,10-4.48,10-10s-4.48-10-10-10"/>
    </g>
    <path class="cls-5" d="m454.76,299.18h40"/>
    <path class="cls-5" d="m464.76,279.18h10"/>
    <path class="cls-1" d="m364.76,129.18h250v40h-250v-40Z"/>
    <path class="cls-5" d="m534.76,259.18h40"/>
    <path class="cls-5" d="m604.76,259.18h30"/>
    <g>
      <path class="cls-2" d="m634.76,279.18h0c5.52,0,10-4.48,10-10s-4.48-10-10-10v20Z"/>
      <path class="cls-5" d="m634.76,279.18h0c5.52,0,10-4.48,10-10s-4.48-10-10-10"/>
    </g>
    <path class="cls-5" d="m604.76,299.18h80"/>
    <path class="cls-5" d="m614.76,279.18h20"/>
    <path class="cls-1" d="m34.76,199.18h210v40H34.76v-40Z"/>
    <g>
      <path class="cls-4" d="m144.76,79.18h77"/>
      <path class="cls-4" d="m202.03,86.02c8.27-3.93,15.85-6.21,22.73-6.84-6.88-.63-14.46-2.91-22.73-6.84"/>
    </g>
    <path class="cls-4" d="m144.76,69.18v20"/>
  </g>
  <path d="m64.9,69.32l3.12-.12c1.82,0,3,.26,3.03.71l.24,2.62h.71c.09-1.85.29-3.35.62-4.47-.65-.06-1.47-.09-1.97-.09l-1.21.03-4.85.06h-.85c-.74,0-1.91-.03-3.03-.06l-1.44-.03-.09.82,1.65.06c.71.03,1.03.29,1.03.79,0,.41-.12,1.35-.26,2.24l-2.21,12.76c-.5,2.71-.5,2.74-1.71,2.85l-1.06.09-.12.82,1-.03c1.18-.03,2.12-.06,2.74-.06.53,0,1.38.03,2.53.06l1.53.03.09-.82-1.88-.09c-.79-.03-1.06-.26-1.06-.85,0-.18.03-.5.06-.62l1.06-6.56h3.44c.79,0,1.71.03,3.12.09l.76.03.56-1.32-.12-.21c-2.38.12-4.15.18-6.44.18h-1.09l1.35-7.97c.09-.47.12-.62.26-.94h.5Z"/>
  <path d="m21.09,62.44l-.49,2.16c-.07.29-.1.6-.1.87,0,.37.15.6.41.6.39,0,1.09-.44,2.48-1.6l-.12-.36c-.41.34-.9.8-1.28.8-.15,0-.26-.15-.26-.39,0-.09,0-.14.02-.19l1.56-6.44-.17-.15-.56.31c-.7-.26-.99-.32-1.45-.32s-.82.09-1.28.31c-1.05.53-1.62,1.04-2.04,1.87-.75,1.51-1.28,3.55-1.28,4.88,0,.75.26,1.33.58,1.33.63,0,1.99-.88,3.96-3.66Zm.82-3.57c-.37,1.85-.7,2.74-1.28,3.62-.97,1.43-2.01,2.41-2.55,2.41-.2,0-.31-.22-.31-.68,0-1.09.48-3.08,1.07-4.44.41-.94.8-1.24,1.62-1.24.39,0,.7.07,1.45.32Z"/>
  <path d="m110.48,53.63l-.2-.19c-.88.44-1.5.6-2.72.71l-.07.36h.82c.41,0,.58.12.58.41,0,.12-.02.31-.03.41l-1.72,9.37c-.02.05-.02.12-.02.17,0,.66.82,1.22,1.75,1.22.63,0,1.5-.32,2.23-.85,1.63-1.16,2.75-3.49,2.75-5.73,0-.65-.15-1.31-.36-1.56-.12-.15-.34-.24-.6-.24-.41,0-.92.14-1.39.37-.87.46-1.43.97-2.48,2.31l1.46-6.77Zm1.48,5.07c.44,0,.66.39.66,1.22,0,1.09-.36,2.55-.87,3.66-.56,1.17-1.24,1.72-2.16,1.72-.78,0-1.21-.39-1.21-1.11,0-.58.26-2.98,1.63-4.42.56-.58,1.45-1.07,1.94-1.07Z"/>
  <path d="m112.3,80.3h.39c.14-1.11.26-1.73.41-2.18-.41-.26-1-.41-1.63-.41-.77-.02-2.01.32-2.98,1.39-.92.82-1.58,2.7-1.58,4.49,0,1.63.71,2.5,2.07,2.5.92,0,1.73-.34,2.67-1.11l.85-.7-.14-.34-.26.17c-1.22.82-1.87,1.11-2.47,1.11-.95,0-1.45-.68-1.45-2.02,0-1.84.6-3.6,1.43-4.25.36-.27.77-.41,1.29-.41.77,0,1.38.32,1.38.73v1.02Z"/>
  <path d="m418.61,75.16v-1.44h-13.19v1.44h13.19Zm0,5.21v-1.44h-13.19v1.44h13.19Z"/>
  <path d="m284.9,79.32l3.12-.12c1.82,0,3,.26,3.03.71l.24,2.62h.71c.09-1.85.29-3.35.62-4.47-.65-.06-1.47-.09-1.97-.09l-1.21.03-4.85.06h-.85c-.74,0-1.91-.03-3.03-.06l-1.44-.03-.09.82,1.65.06c.71.03,1.03.29,1.03.79,0,.41-.12,1.35-.26,2.24l-2.21,12.76c-.5,2.71-.5,2.74-1.71,2.85l-1.06.09-.12.82,1-.03c1.18-.03,2.12-.06,2.74-.06.53,0,1.38.03,2.53.06l1.53.03.09-.82-1.88-.09c-.79-.03-1.06-.26-1.06-.85,0-.18.03-.5.06-.62l1.06-6.56h3.44c.79,0,1.71.03,3.12.09l.76.03.56-1.32-.12-.21c-2.38.12-4.15.18-6.44.18h-1.09l1.35-7.97c.09-.47.12-.62.26-.94h.5Z"/>
  <path d="m251.09,82.44l-.49,2.16c-.07.29-.1.6-.1.87,0,.37.15.6.41.6.39,0,1.09-.44,2.48-1.6l-.12-.36c-.41.34-.9.8-1.28.8-.15,0-.26-.15-.26-.39,0-.09,0-.14.02-.19l1.56-6.44-.17-.15-.56.31c-.7-.26-.99-.32-1.45-.32s-.82.09-1.28.31c-1.05.53-1.62,1.04-2.04,1.87-.75,1.51-1.28,3.55-1.28,4.88,0,.75.26,1.33.58,1.33.63,0,1.99-.88,3.96-3.66Zm.82-3.57c-.37,1.85-.7,2.74-1.28,3.62-.97,1.43-2.01,2.41-2.55,2.41-.2,0-.31-.22-.31-.68,0-1.09.48-3.08,1.07-4.44.41-.94.8-1.24,1.62-1.24.39,0,.7.07,1.45.32Z"/>
  <path d="m336.48,63.63l-.2-.19c-.88.44-1.5.6-2.72.71l-.07.36h.82c.41,0,.58.12.58.41,0,.12-.02.31-.03.41l-1.72,9.37c-.02.05-.02.12-.02.17,0,.66.82,1.22,1.75,1.22.63,0,1.5-.32,2.23-.85,1.63-1.16,2.75-3.49,2.75-5.73,0-.65-.15-1.31-.36-1.56-.12-.15-.34-.24-.6-.24-.41,0-.92.14-1.39.37-.87.46-1.43.97-2.48,2.31l1.46-6.77Zm1.48,5.07c.44,0,.66.39.66,1.22,0,1.09-.36,2.55-.87,3.66-.56,1.17-1.24,1.72-2.16,1.72-.78,0-1.21-.39-1.21-1.11,0-.58.26-2.98,1.63-4.42.56-.58,1.45-1.07,1.94-1.07Z"/>
  <path d="m338.3,90.3h.39c.14-1.11.26-1.73.41-2.18-.41-.26-1-.41-1.63-.41-.77-.02-2.01.32-2.98,1.39-.92.82-1.58,2.7-1.58,4.49,0,1.63.71,2.5,2.07,2.5.92,0,1.73-.34,2.67-1.11l.85-.7-.14-.34-.26.17c-1.22.82-1.87,1.11-2.47,1.11-.95,0-1.45-.68-1.45-2.02,0-1.84.6-3.6,1.43-4.25.36-.27.77-.41,1.29-.41.77,0,1.38.32,1.38.73v1.02Z"/>
  <path d="m250.48,43.63l-.2-.19c-.88.44-1.5.6-2.72.71l-.07.36h.82c.41,0,.58.12.58.41,0,.12-.02.31-.03.41l-1.72,9.37c-.02.05-.02.12-.02.17,0,.66.82,1.22,1.75,1.22.63,0,1.5-.32,2.23-.85,1.63-1.16,2.75-3.49,2.75-5.73,0-.65-.15-1.31-.36-1.56-.12-.15-.34-.24-.6-.24-.41,0-.92.14-1.39.37-.87.46-1.43.97-2.48,2.31l1.46-6.77Zm1.48,5.07c.44,0,.66.39.66,1.22,0,1.09-.36,2.55-.87,3.66-.56,1.17-1.24,1.72-2.16,1.72-.78,0-1.21-.39-1.21-1.11,0-.58.26-2.98,1.63-4.42.56-.58,1.45-1.07,1.94-1.07Z"/>
  <path d="m494.9,69.32l3.12-.12c1.82,0,3,.26,3.03.71l.24,2.62h.71c.09-1.85.29-3.35.62-4.47-.65-.06-1.47-.09-1.97-.09l-1.21.03-4.85.06h-.85c-.74,0-1.91-.03-3.03-.06l-1.44-.03-.09.82,1.65.06c.71.03,1.03.29,1.03.79,0,.41-.12,1.35-.26,2.24l-2.21,12.76c-.5,2.71-.5,2.74-1.71,2.85l-1.06.09-.12.82,1-.03c1.18-.03,2.12-.06,2.74-.06.53,0,1.38.03,2.53.06l1.53.03.09-.82-1.88-.09c-.79-.03-1.06-.26-1.06-.85,0-.18.03-.5.06-.62l1.06-6.56h3.44c.79,0,1.71.03,3.12.09l.76.03.56-1.32-.12-.21c-2.38.12-4.15.18-6.44.18h-1.09l1.35-7.97c.09-.47.12-.62.26-.94h.5Z"/>
  <path d="m451.09,82.44l-.49,2.16c-.07.29-.1.6-.1.87,0,.37.15.6.41.6.39,0,1.09-.44,2.48-1.6l-.12-.36c-.41.34-.9.8-1.28.8-.15,0-.26-.15-.26-.39,0-.09,0-.14.02-.19l1.56-6.44-.17-.15-.56.31c-.7-.26-.99-.32-1.45-.32s-.82.09-1.28.31c-1.05.53-1.62,1.04-2.04,1.87-.75,1.51-1.28,3.55-1.28,4.88,0,.75.26,1.33.58,1.33.63,0,1.99-.88,3.96-3.66Zm.82-3.57c-.37,1.85-.7,2.74-1.28,3.62-.97,1.43-2.01,2.41-2.55,2.41-.2,0-.31-.22-.31-.68,0-1.09.48-3.08,1.07-4.44.41-.94.8-1.24,1.62-1.24.39,0,.7.07,1.45.32Z"/>
  <path d="m532.3,80.3h.39c.14-1.11.26-1.73.41-2.18-.41-.26-1-.41-1.63-.41-.77-.02-2.01.32-2.98,1.39-.92.82-1.58,2.7-1.58,4.49,0,1.63.71,2.5,2.07,2.5.92,0,1.73-.34,2.67-1.11l.85-.7-.14-.34-.26.17c-1.22.82-1.87,1.11-2.47,1.11-.95,0-1.45-.68-1.45-2.02,0-1.84.6-3.6,1.43-4.25.36-.27.77-.41,1.29-.41.77,0,1.38.32,1.38.73v1.02Z"/>
  <path d="m450.48,53.63l-.2-.19c-.88.44-1.5.6-2.72.71l-.07.36h.82c.41,0,.58.12.58.41,0,.12-.02.31-.03.41l-1.72,9.37c-.02.05-.02.12-.02.17,0,.66.82,1.22,1.75,1.22.63,0,1.5-.32,2.23-.85,1.63-1.16,2.75-3.49,2.75-5.73,0-.65-.15-1.31-.36-1.56-.12-.15-.34-.24-.6-.24-.41,0-.92.14-1.39.37-.87.46-1.43.97-2.48,2.31l1.46-6.77Zm1.48,5.07c.44,0,.66.39.66,1.22,0,1.09-.36,2.55-.87,3.66-.56,1.17-1.24,1.72-2.16,1.72-.78,0-1.21-.39-1.21-1.11,0-.58.26-2.98,1.63-4.42.56-.58,1.45-1.07,1.94-1.07Z"/>
  <g>
    <path d="m310.14,19.6c-.56,0-2.45,1.17-3.01,1.53v.1l.2.19v.03c.39-.15,1.41-1.11,1.58-.31-.03,1.12-.77,5.25-1.12,6.6v.17c.36-.17.85-.32,1.22-.43.27-2.13.48-7.04,3.43-7.09.77,0,1.19.41,1.19,1.19.05,2.89-2.01,7.97-1.62,10.73.41-.19.92-.34,1.34-.41-.73-2.07,1.53-8.93,1.56-10.76.03-1.05-.65-1.55-1.65-1.55-1.29,0-2.47.83-3.23,1.8v-.03c.27-1.09.54-1.77.09-1.77Z"/>
    <g>
      <path d="m319.28,12.21l-.14-.13c-.62.31-1.05.42-1.9.5l-.05.25h.57c.29,0,.4.08.4.29,0,.08-.01.21-.02.29l-1.2,6.56s-.01.08-.01.12c0,.46.57.86,1.23.86.44,0,1.05-.23,1.56-.6,1.14-.81,1.93-2.44,1.93-4.01,0-.45-.11-.92-.25-1.09-.08-.11-.24-.17-.42-.17-.29,0-.64.1-.98.26-.61.32-1,.68-1.74,1.62l1.02-4.74Zm1.04,3.55c.31,0,.46.27.46.86,0,.76-.25,1.79-.61,2.56-.39.82-.87,1.2-1.51,1.2-.55,0-.84-.27-.84-.77,0-.4.18-2.08,1.14-3.09.39-.4,1.01-.75,1.36-.75Zm11.9,4.61l-2.8-2.78,2.8-2.78-.51-.5-2.77,2.78-2.78-2.78-.5.5,2.78,2.78-2.78,2.78.5.5,2.78-2.78,2.77,2.78.51-.5Zm6.44-8.15l-.14-.13c-.62.31-1.05.42-1.9.5l-.05.25h.57c.29,0,.4.08.4.29,0,.08-.01.21-.02.29l-1.2,6.56s-.01.08-.01.12c0,.46.57.86,1.23.86.44,0,1.05-.23,1.56-.6,1.14-.81,1.93-2.44,1.93-4.01,0-.45-.11-.92-.25-1.09-.08-.11-.24-.17-.42-.17-.29,0-.64.1-.98.26-.61.32-1,.68-1.74,1.62l1.02-4.74Zm1.04,3.55c.31,0,.46.27.46.86,0,.76-.25,1.79-.61,2.56-.39.82-.87,1.2-1.51,1.2-.55,0-.84-.27-.84-.77,0-.4.18-2.08,1.14-3.09.39-.4,1.01-.75,1.36-.75Z"/>
      <path d="m320.99,32.34v-.36l-.62-.04c-.65-.04-.77-.17-.77-.79v-7.19l-2.87,1.21.08.6,1.79-.79v6.16c0,.62-.13.75-.77.79l-.67.04v.36q1.83-.04,1.96-.04c.37,0,1.68.04,1.87.04Z"/>
    </g>
    <path d="m356.14,30.06v-1h-9.35v1h9.35Zm.02-3.01l-4-3.98,4-3.98-.73-.71-3.96,3.98-3.98-3.98-.71.71,3.98,3.98-3.98,3.98.71.71,3.98-3.98,3.96,3.98.73-.71Z"/>
    <path d="m362.28,16.36l.8.03c.41.02.6.15.6.44,0,.12-.1,1.02-.15,1.31l-1.22,7.38c-.26,1.51-.31,1.6-.99,1.65l-.61.05-.05.48h.54l1.6-.05,1.6.05h.54l.05-.48-.88-.05c-.44-.03-.61-.15-.61-.49,0-.1.02-.29.03-.36l1.51-9.1c.12-.66.2-.75.87-.82l.6-.05.05-.48-1.8.05c-.29,0-.6,0-1.33-.02l-1.09-.03-.05.48Z"/>
    <g>
      <path d="m371.21,16.88h.27c.1-.77.18-1.21.29-1.52-.29-.18-.7-.29-1.14-.29-.54-.01-1.4.23-2.08.98-.64.57-1.11,1.89-1.11,3.14,0,1.14.5,1.75,1.45,1.75.64,0,1.21-.24,1.87-.77l.6-.49-.1-.24-.18.12c-.86.57-1.31.77-1.73.77-.67,0-1.01-.48-1.01-1.42,0-1.29.42-2.52,1-2.98.25-.19.54-.29.9-.29.54,0,.96.23.96.51v.71Z"/>
      <path d="m370.75,27.38h.27c.1-.77.18-1.21.29-1.52-.29-.18-.7-.29-1.14-.29-.54-.01-1.4.23-2.08.98-.64.57-1.11,1.89-1.11,3.14,0,1.14.5,1.75,1.45,1.75.64,0,1.21-.24,1.87-.77l.6-.49-.1-.24-.18.12c-.86.57-1.31.77-1.73.77-.67,0-1.01-.48-1.01-1.42,0-1.29.42-2.52,1-2.98.25-.19.54-.29.9-.29.54,0,.96.23.96.51v.71Z"/>
    </g>
  </g>
  <path d="m336.48,43.63l-.2-.19c-.88.44-1.5.6-2.72.71l-.07.36h.82c.41,0,.58.12.58.41,0,.12-.02.31-.03.41l-1.72,9.37c-.02.05-.02.12-.02.17,0,.66.82,1.22,1.75,1.22.63,0,1.5-.32,2.23-.85,1.63-1.16,2.75-3.49,2.75-5.73,0-.65-.15-1.31-.36-1.56-.12-.15-.34-.24-.6-.24-.41,0-.92.14-1.39.37-.87.46-1.43.97-2.48,2.31l1.46-6.77Zm1.48,5.07c.44,0,.66.39.66,1.22,0,1.09-.36,2.55-.87,3.66-.56,1.17-1.24,1.72-2.16,1.72-.78,0-1.21-.39-1.21-1.11,0-.58.26-2.98,1.63-4.42.56-.58,1.45-1.07,1.94-1.07Z"/>
  <path d="m99.25,169.11c2.26,0,3.85.41,5.5,1.47v2.47h.79c.15-1.68.38-2.94.79-4.29-2.44-.88-4.12-1.21-6.15-1.21-2.71,0-4.85.68-6.97,2.18-3.44,2.47-5.26,6.12-5.26,10.53,0,5.5,3.21,8.59,8.97,8.59,1.68.09,6-.71,7.44-1.62.59-4.59.71-5.26.74-5.35.06-.26.41-.56.79-.62l.94-.18.06-.82c-1.15.12-2.18.15-3.68.15s-2.56-.03-3.79-.15l-.15.82,1,.06c2.21.12,2.47.24,2.47.94,0,.44-.59,3.76-.74,4.47-1.32.71-2.47.97-4.06.97-4.88,0-7.41-2.74-7.41-7.94,0-4.29,1.74-10.47,8.71-10.47Z"/>
  <path d="m61.09,172.44l-.49,2.16c-.07.29-.1.6-.1.87,0,.37.15.6.41.6.39,0,1.09-.44,2.48-1.6l-.12-.36c-.41.34-.9.8-1.28.8-.15,0-.26-.15-.26-.39,0-.09,0-.14.02-.19l1.56-6.44-.17-.15-.56.31c-.7-.26-.99-.32-1.45-.32s-.82.09-1.28.31c-1.05.53-1.62,1.04-2.04,1.87-.75,1.51-1.28,3.55-1.28,4.88,0,.75.26,1.33.58,1.33.63,0,1.99-.88,3.96-3.66Zm.82-3.57c-.37,1.85-.7,2.74-1.28,3.62-.97,1.43-2.01,2.41-2.55,2.41-.2,0-.31-.22-.31-.68,0-1.09.48-3.08,1.07-4.44.41-.94.8-1.24,1.62-1.24.39,0,.7.07,1.45.32Z"/>
  <path d="m162.99,176.99l1.24-6.71c.21-1.15.41-1.32,1.5-1.41l1.24-.09.09-.82h-.71l-2.65.09c-.47,0-1,0-2.26-.03l-1.88-.06-.09.82,1.38.06c.71.03,1.03.26,1.03.79,0,.41-.12,1.32-.26,2.24l-2.18,12.76c-.5,2.71-.53,2.74-1.71,2.85l-1.21.09-.12.82,1.24-.03c1.41-.03,2.09-.06,2.65-.06l2.85.09h.76l.09-.82-1.44-.09c-.79-.06-1.06-.26-1.06-.88,0-.26.03-.47.12-1.03l1.24-7.26,1.79-.03c1.82-.03,3.06-.06,3.62-.06s1.76.03,3.62.06l1.79.03-1.18,6.32c-.26,1.44-.47,2.26-.62,2.44-.12.24-.44.35-1.09.41l-1.47.09-.12.82,1.65-.03c1.29-.03,2.18-.06,2.5-.06.47,0,1.38.03,2.65.06l1.24.03.09-.82-1.71-.09c-.76-.03-1.06-.26-1.06-.88,0-.26.03-.53.12-1.03l2.71-15.29c.21-1.15.38-1.29,1.5-1.41l1.06-.09.09-.82h-.47l-2.68.09c-.44,0-1.06,0-2.35-.03l-1.85-.06-.09.82,1.41.06c.71.03,1.03.26,1.03.79,0,.41-.12,1.35-.26,2.24l-.88,5.12h-10.88Z"/>
  <path d="m130.48,163.63l-.2-.19c-.88.44-1.5.6-2.72.71l-.07.36h.82c.41,0,.58.12.58.41,0,.12-.02.31-.03.41l-1.72,9.37c-.02.05-.02.12-.02.17,0,.66.82,1.22,1.75,1.22.63,0,1.5-.32,2.23-.85,1.63-1.16,2.75-3.49,2.75-5.73,0-.65-.15-1.31-.36-1.56-.12-.15-.34-.24-.6-.24-.41,0-.92.14-1.39.37-.87.46-1.43.97-2.48,2.31l1.46-6.77Zm1.48,5.07c.44,0,.66.39.66,1.22,0,1.09-.36,2.55-.87,3.66-.56,1.17-1.24,1.72-2.16,1.72-.78,0-1.21-.39-1.21-1.11,0-.58.26-2.98,1.63-4.42.56-.58,1.45-1.07,1.94-1.07Z"/>
  <path d="m202.3,170.3h.39c.14-1.11.26-1.73.41-2.18-.41-.26-1-.41-1.63-.41-.77-.02-2.01.32-2.98,1.39-.92.82-1.58,2.7-1.58,4.49,0,1.63.71,2.5,2.07,2.5.92,0,1.73-.34,2.67-1.11l.85-.7-.14-.34-.26.17c-1.22.82-1.87,1.11-2.47,1.11-.95,0-1.45-.68-1.45-2.02,0-1.84.6-3.6,1.43-4.25.36-.27.77-.41,1.29-.41.77,0,1.38.32,1.38.73v1.02Z"/>
  <path d="m319.25,169.11c2.26,0,3.85.41,5.5,1.47v2.47h.79c.15-1.68.38-2.94.79-4.29-2.44-.88-4.12-1.21-6.15-1.21-2.71,0-4.85.68-6.97,2.18-3.44,2.47-5.26,6.12-5.26,10.53,0,5.5,3.21,8.59,8.97,8.59,1.68.09,6-.71,7.44-1.62.59-4.59.71-5.26.74-5.35.06-.26.41-.56.79-.62l.94-.18.06-.82c-1.15.12-2.18.15-3.68.15s-2.56-.03-3.79-.15l-.15.82,1,.06c2.21.12,2.47.24,2.47.94,0,.44-.59,3.76-.74,4.47-1.32.71-2.47.97-4.06.97-4.88,0-7.41-2.74-7.41-7.94,0-4.29,1.74-10.47,8.71-10.47Z"/>
  <path d="m281.09,172.44l-.49,2.16c-.07.29-.1.6-.1.87,0,.37.15.6.41.6.39,0,1.09-.44,2.48-1.6l-.12-.36c-.41.34-.9.8-1.28.8-.15,0-.26-.15-.26-.39,0-.09,0-.14.02-.19l1.56-6.44-.17-.15-.56.31c-.7-.26-.99-.32-1.45-.32s-.82.09-1.28.31c-1.05.53-1.62,1.04-2.04,1.87-.75,1.51-1.28,3.55-1.28,4.88,0,.75.26,1.33.58,1.33.63,0,1.99-.88,3.96-3.66Zm.82-3.57c-.37,1.85-.7,2.74-1.28,3.62-.97,1.43-2.01,2.41-2.55,2.41-.2,0-.31-.22-.31-.68,0-1.09.48-3.08,1.07-4.44.41-.94.8-1.24,1.62-1.24.39,0,.7.07,1.45.32Z"/>
  <path d="m392.99,221.99l1.24-6.71c.21-1.15.41-1.32,1.5-1.41l1.24-.09.09-.82h-.71l-2.65.09c-.47,0-1,0-2.26-.03l-1.88-.06-.09.82,1.38.06c.71.03,1.03.26,1.03.79,0,.41-.12,1.32-.26,2.24l-2.18,12.76c-.5,2.71-.53,2.74-1.71,2.85l-1.21.09-.12.82,1.24-.03c1.41-.03,2.09-.06,2.65-.06l2.85.09h.76l.09-.82-1.44-.09c-.79-.06-1.06-.26-1.06-.88,0-.26.03-.47.12-1.03l1.24-7.26,1.79-.03c1.82-.03,3.06-.06,3.62-.06s1.76.03,3.62.06l1.79.03-1.18,6.32c-.26,1.44-.47,2.26-.62,2.44-.12.24-.44.35-1.09.41l-1.47.09-.12.82,1.65-.03c1.29-.03,2.18-.06,2.5-.06.47,0,1.38.03,2.65.06l1.24.03.09-.82-1.71-.09c-.76-.03-1.06-.26-1.06-.88,0-.26.03-.53.12-1.03l2.71-15.29c.21-1.15.38-1.29,1.5-1.41l1.06-.09.09-.82h-.47l-2.68.09c-.44,0-1.06,0-2.35-.03l-1.85-.06-.09.82,1.41.06c.71.03,1.03.26,1.03.79,0,.41-.12,1.35-.26,2.24l-.88,5.12h-10.88Z"/>
  <path d="m350.48,163.63l-.2-.19c-.88.44-1.5.6-2.72.71l-.07.36h.82c.41,0,.58.12.58.41,0,.12-.02.31-.03.41l-1.72,9.37c-.02.05-.02.12-.02.17,0,.66.82,1.22,1.75,1.22.63,0,1.5-.32,2.23-.85,1.63-1.16,2.75-3.49,2.75-5.73,0-.65-.15-1.31-.36-1.56-.12-.15-.34-.24-.6-.24-.41,0-.92.14-1.39.37-.87.46-1.43.97-2.48,2.31l1.46-6.77Zm1.48,5.07c.44,0,.66.39.66,1.22,0,1.09-.36,2.55-.87,3.66-.56,1.17-1.24,1.72-2.16,1.72-.78,0-1.21-.39-1.21-1.11,0-.58.26-2.98,1.63-4.42.56-.58,1.45-1.07,1.94-1.07Z"/>
  <path d="m376.48,203.63l-.2-.19c-.88.44-1.5.6-2.72.71l-.07.36h.82c.41,0,.58.12.58.41,0,.12-.02.31-.03.41l-1.72,9.37c-.02.05-.02.12-.02.17,0,.66.82,1.22,1.75,1.22.63,0,1.5-.32,2.23-.85,1.63-1.16,2.75-3.49,2.75-5.73,0-.65-.15-1.31-.36-1.56-.12-.15-.34-.24-.6-.24-.41,0-.92.14-1.39.37-.87.46-1.43.97-2.48,2.31l1.46-6.77Zm1.48,5.07c.44,0,.66.39.66,1.22,0,1.09-.36,2.55-.87,3.66-.56,1.17-1.24,1.72-2.16,1.72-.78,0-1.21-.39-1.21-1.11,0-.58.26-2.98,1.63-4.42.56-.58,1.45-1.07,1.94-1.07Z"/>
  <path d="m432.3,210.3h.39c.14-1.11.26-1.73.41-2.18-.41-.26-1-.41-1.63-.41-.77-.02-2.01.32-2.98,1.39-.92.82-1.58,2.7-1.58,4.49,0,1.63.71,2.5,2.07,2.5.92,0,1.73-.34,2.67-1.11l.85-.7-.14-.34-.26.17c-1.22.82-1.87,1.11-2.47,1.11-.95,0-1.45-.68-1.45-2.02,0-1.84.6-3.6,1.43-4.25.36-.27.77-.41,1.29-.41.77,0,1.38.32,1.38.73v1.02Z"/>
  <path d="m149.25,249.11c2.26,0,3.85.41,5.5,1.47v2.47h.79c.15-1.68.38-2.94.79-4.29-2.44-.88-4.12-1.21-6.15-1.21-2.71,0-4.85.68-6.97,2.18-3.44,2.47-5.26,6.12-5.26,10.53,0,5.5,3.21,8.59,8.97,8.59,1.68.09,6-.71,7.44-1.62.59-4.59.71-5.26.74-5.35.06-.26.41-.56.79-.62l.94-.18.06-.82c-1.15.12-2.18.15-3.68.15s-2.56-.03-3.79-.15l-.15.82,1,.06c2.21.12,2.47.24,2.47.94,0,.44-.59,3.76-.74,4.47-1.32.71-2.47.97-4.06.97-4.88,0-7.41-2.74-7.41-7.94,0-4.29,1.74-10.47,8.71-10.47Z"/>
  <path d="m111.09,252.44l-.49,2.16c-.07.29-.1.6-.1.87,0,.37.15.6.41.6.39,0,1.09-.44,2.48-1.6l-.12-.36c-.41.34-.9.8-1.28.8-.15,0-.26-.15-.26-.39,0-.09,0-.14.02-.19l1.56-6.44-.17-.15-.56.31c-.7-.26-.99-.32-1.45-.32s-.82.09-1.28.31c-1.05.53-1.62,1.04-2.04,1.87-.75,1.51-1.28,3.55-1.28,4.88,0,.75.26,1.33.58,1.33.63,0,1.99-.88,3.96-3.66Zm.82-3.57c-.37,1.85-.7,2.74-1.28,3.62-.97,1.43-2.01,2.41-2.55,2.41-.2,0-.31-.22-.31-.68,0-1.09.48-3.08,1.07-4.44.41-.94.8-1.24,1.62-1.24.39,0,.7.07,1.45.32Z"/>
  <path d="m226.99,296.99l1.24-6.71c.21-1.15.41-1.32,1.5-1.41l1.24-.09.09-.82h-.71l-2.65.09c-.47,0-1,0-2.26-.03l-1.88-.06-.09.82,1.38.06c.71.03,1.03.26,1.03.79,0,.41-.12,1.32-.26,2.24l-2.18,12.76c-.5,2.71-.53,2.74-1.71,2.85l-1.21.09-.12.82,1.24-.03c1.41-.03,2.09-.06,2.65-.06l2.85.09h.76l.09-.82-1.44-.09c-.79-.06-1.06-.26-1.06-.88,0-.26.03-.47.12-1.03l1.24-7.26,1.79-.03c1.82-.03,3.06-.06,3.62-.06s1.76.03,3.62.06l1.79.03-1.18,6.32c-.26,1.44-.47,2.26-.62,2.44-.12.24-.44.35-1.09.41l-1.47.09-.12.82,1.65-.03c1.29-.03,2.18-.06,2.5-.06.47,0,1.38.03,2.65.06l1.24.03.09-.82-1.71-.09c-.76-.03-1.06-.26-1.06-.88,0-.26.03-.53.12-1.03l2.71-15.29c.21-1.15.38-1.29,1.5-1.41l1.06-.09.09-.82h-.47l-2.68.09c-.44,0-1.06,0-2.35-.03l-1.85-.06-.09.82,1.41.06c.71.03,1.03.26,1.03.79,0,.41-.12,1.35-.26,2.24l-.88,5.12h-10.88Z"/>
  <path d="m190.48,243.63l-.2-.19c-.88.44-1.5.6-2.72.71l-.07.36h.82c.41,0,.58.12.58.41,0,.12-.02.31-.03.41l-1.72,9.37c-.02.05-.02.12-.02.17,0,.66.82,1.22,1.75,1.22.63,0,1.5-.32,2.23-.85,1.63-1.16,2.75-3.49,2.75-5.73,0-.65-.15-1.31-.36-1.56-.12-.15-.34-.24-.6-.24-.41,0-.92.14-1.39.37-.87.46-1.43.97-2.48,2.31l1.46-6.77Zm1.48,5.07c.44,0,.66.39.66,1.22,0,1.09-.36,2.55-.87,3.66-.56,1.17-1.24,1.72-2.16,1.72-.78,0-1.21-.39-1.21-1.11,0-.58.26-2.98,1.63-4.42.56-.58,1.45-1.07,1.94-1.07Z"/>
  <path d="m190.48,283.63l-.2-.19c-.88.44-1.5.6-2.72.71l-.07.36h.82c.41,0,.58.12.58.41,0,.12-.02.31-.03.41l-1.72,9.37c-.02.05-.02.12-.02.17,0,.66.82,1.22,1.75,1.22.63,0,1.5-.32,2.23-.85,1.63-1.16,2.75-3.49,2.75-5.73,0-.65-.15-1.31-.36-1.56-.12-.15-.34-.24-.6-.24-.41,0-.92.14-1.39.37-.87.46-1.43.97-2.48,2.31l1.46-6.77Zm1.48,5.07c.44,0,.66.39.66,1.22,0,1.09-.36,2.55-.87,3.66-.56,1.17-1.24,1.72-2.16,1.72-.78,0-1.21-.39-1.21-1.11,0-.58.26-2.98,1.63-4.42.56-.58,1.45-1.07,1.94-1.07Z"/>
  <path d="m262.3,290.3h.39c.14-1.11.26-1.73.41-2.18-.41-.26-1-.41-1.63-.41-.77-.02-2.01.32-2.98,1.39-.92.82-1.58,2.7-1.58,4.49,0,1.63.71,2.5,2.07,2.5.92,0,1.73-.34,2.67-1.11l.85-.7-.14-.34-.26.17c-1.22.82-1.87,1.11-2.47,1.11-.95,0-1.45-.68-1.45-2.02,0-1.84.6-3.6,1.43-4.25.36-.27.77-.41,1.29-.41.77,0,1.38.32,1.38.73v1.02Z"/>
  <path d="m369.25,249.11c2.26,0,3.85.41,5.5,1.47v2.47h.79c.15-1.68.38-2.94.79-4.29-2.44-.88-4.12-1.21-6.15-1.21-2.71,0-4.85.68-6.97,2.18-3.44,2.47-5.26,6.12-5.26,10.53,0,5.5,3.21,8.59,8.97,8.59,1.68.09,6-.71,7.44-1.62.59-4.59.71-5.26.74-5.35.06-.26.41-.56.79-.62l.94-.18.06-.82c-1.15.12-2.18.15-3.68.15s-2.56-.03-3.79-.15l-.15.82,1,.06c2.21.12,2.47.24,2.47.94,0,.44-.59,3.76-.74,4.47-1.32.71-2.47.97-4.06.97-4.88,0-7.41-2.74-7.41-7.94,0-4.29,1.74-10.47,8.71-10.47Z"/>
  <path d="m331.09,252.44l-.49,2.16c-.07.29-.1.6-.1.87,0,.37.15.6.41.6.39,0,1.09-.44,2.48-1.6l-.12-.36c-.41.34-.9.8-1.28.8-.15,0-.26-.15-.26-.39,0-.09,0-.14.02-.19l1.56-6.44-.17-.15-.56.31c-.7-.26-.99-.32-1.45-.32s-.82.09-1.28.31c-1.05.53-1.62,1.04-2.04,1.87-.75,1.51-1.28,3.55-1.28,4.88,0,.75.26,1.33.58,1.33.63,0,1.99-.88,3.96-3.66Zm.82-3.57c-.37,1.85-.7,2.74-1.28,3.62-.97,1.43-2.01,2.41-2.55,2.41-.2,0-.31-.22-.31-.68,0-1.09.48-3.08,1.07-4.44.41-.94.8-1.24,1.62-1.24.39,0,.7.07,1.45.32Z"/>
  <path d="m432.99,286.99l1.24-6.71c.21-1.15.41-1.32,1.5-1.41l1.24-.09.09-.82h-.71l-2.65.09c-.47,0-1,0-2.26-.03l-1.88-.06-.09.82,1.38.06c.71.03,1.03.26,1.03.79,0,.41-.12,1.32-.26,2.24l-2.18,12.76c-.5,2.71-.53,2.74-1.71,2.85l-1.21.09-.12.82,1.24-.03c1.41-.03,2.09-.06,2.65-.06l2.85.09h.76l.09-.82-1.44-.09c-.79-.06-1.06-.26-1.06-.88,0-.26.03-.47.12-1.03l1.24-7.26,1.79-.03c1.82-.03,3.06-.06,3.62-.06s1.76.03,3.62.06l1.79.03-1.18,6.32c-.26,1.44-.47,2.26-.62,2.44-.12.24-.44.35-1.09.41l-1.47.09-.12.82,1.65-.03c1.29-.03,2.18-.06,2.5-.06.47,0,1.38.03,2.65.06l1.24.03.09-.82-1.71-.09c-.76-.03-1.06-.26-1.06-.88,0-.26.03-.53.12-1.03l2.71-15.29c.21-1.15.38-1.29,1.5-1.41l1.06-.09.09-.82h-.47l-2.68.09c-.44,0-1.06,0-2.35-.03l-1.85-.06-.09.82,1.41.06c.71.03,1.03.26,1.03.79,0,.41-.12,1.35-.26,2.24l-.88,5.12h-10.88Z"/>
  <path d="m400.48,243.63l-.2-.19c-.88.44-1.5.6-2.72.71l-.07.36h.82c.41,0,.58.12.58.41,0,.12-.02.31-.03.41l-1.72,9.37c-.02.05-.02.12-.02.17,0,.66.82,1.22,1.75,1.22.63,0,1.5-.32,2.23-.85,1.63-1.16,2.75-3.49,2.75-5.73,0-.65-.15-1.31-.36-1.56-.12-.15-.34-.24-.6-.24-.41,0-.92.14-1.39.37-.87.46-1.43.97-2.48,2.31l1.46-6.77Zm1.48,5.07c.44,0,.66.39.66,1.22,0,1.09-.36,2.55-.87,3.66-.56,1.17-1.24,1.72-2.16,1.72-.78,0-1.21-.39-1.21-1.11,0-.58.26-2.98,1.63-4.42.56-.58,1.45-1.07,1.94-1.07Z"/>
  <path d="m482.3,290.3h.39c.14-1.11.26-1.73.41-2.18-.41-.26-1-.41-1.63-.41-.77-.02-2.01.32-2.98,1.39-.92.82-1.58,2.7-1.58,4.49,0,1.63.71,2.5,2.07,2.5.92,0,1.73-.34,2.67-1.11l.85-.7-.14-.34-.26.17c-1.22.82-1.87,1.11-2.47,1.11-.95,0-1.45-.68-1.45-2.02,0-1.84.6-3.6,1.43-4.25.36-.27.77-.41,1.29-.41.77,0,1.38.32,1.38.73v1.02Z"/>
  <path d="m513.12,64.92h1.24c1.33,0,1.94.09,1.99.29.05.14.09.46.07.63l-.07,1.09h.48l.46-2.79-1.55.02c-1.5.02-2.65.03-3.25.03-.63,0-1.72-.02-3.18-.03l-1.62-.02-.31,2.79h.49l.26-1.02c.09-.37.2-.65.31-.77s.75-.22,1.38-.22h1.9l-1.46,8.86c-.27,1.55-.31,1.6-.99,1.65l-.87.05-.07.48.97-.02c.68-.02,1.17-.03,1.45-.03.32,0,.85.02,1.51.03l.75.02.05-.48-1-.05c-.44-.02-.61-.15-.61-.51,0-.15.02-.27.07-.6l1.6-9.4Z"/>
  <path d="m459.12,274.92h1.24c1.33,0,1.94.09,1.99.29.05.14.09.46.07.63l-.07,1.09h.48l.46-2.79-1.55.02c-1.5.02-2.65.03-3.25.03-.63,0-1.72-.02-3.18-.03l-1.62-.02-.31,2.79h.49l.26-1.02c.09-.37.2-.65.31-.77s.75-.22,1.38-.22h1.9l-1.46,8.86c-.27,1.55-.31,1.6-.99,1.65l-.87.05-.07.48.97-.02c.68-.02,1.17-.03,1.45-.03.32,0,.85.02,1.51.03l.75.02.05-.48-1-.05c-.44-.02-.61-.15-.61-.51,0-.15.02-.27.07-.6l1.6-9.4Z"/>
  <g>
    <path d="m367.97,137.03h.34c.19-2.17.39-2.62,2.43-2.62.24,0,.59,0,.73.03.28.05.28.2.28.51v7.11c0,.46,0,.65-1.42.65h-.54v.42c.55-.04,1.93-.04,2.55-.04s2.01,0,2.57.04v-.42h-.54c-1.42,0-1.42-.19-1.42-.65v-7.11c0-.27,0-.46.24-.51.15-.03.51-.03.77-.03,2.04,0,2.24.45,2.43,2.62h.34l-.26-3.04h-8.25l-.26,3.04Zm9.69,6.1c.47-.01,1.16-.04,1.53-.04s1.05.03,1.51.04v-.42c-.9,0-1.05,0-1.05-.61v-2.48c0-1.4.96-2.16,1.82-2.16s1,.73,1,1.5v3.15c0,.61-.15.61-1.05.61v.42c.47-.01,1.16-.04,1.53-.04s1.05.03,1.51.04v-.42c-.7,0-1.04,0-1.05-.41v-2.58c0-1.16,0-1.58-.42-2.07-.19-.23-.63-.5-1.42-.5-1.13,0-1.73.81-1.94,1.3h-.01v-4.7l-1.94.15v.42c.95,0,1.05.09,1.05.76v7.02c0,.61-.15.61-1.05.61v.42Zm7.44-2.97c0,1.81,1.42,3.12,2.97,3.12,1.65,0,2.25-1.5,2.25-1.76,0-.14-.11-.16-.18-.16-.12,0-.15.08-.18.19-.47,1.39-1.69,1.39-1.82,1.39-.68,0-1.22-.41-1.53-.9-.41-.65-.41-1.54-.41-2.03h3.77c.3,0,.34,0,.34-.28,0-1.34-.73-2.65-2.42-2.65-1.57,0-2.81,1.39-2.81,3.08Zm1.13-.43c.08-2.01,1.22-2.35,1.67-2.35,1.39,0,1.53,1.82,1.53,2.35h-3.2Zm9.42,3.4c.47-.04,1.47-.04,1.98-.04s1.53,0,2,.04v-.42h-.32c-1.04,0-1.07-.15-1.07-.63v-2.36l1.57-1.49,2.44,3.62c.08.12.2.3.2.46,0,.41-.53.41-.8.41v.42c.47-.04,1.42-.04,1.93-.04.47,0,.99.01,1.55.04v-.42c-.73,0-1.01-.05-1.42-.65l-3.12-4.59,2.43-2.34c.11-.11.82-.8,1.92-.81v-.42c-.35.04-.78.04-1.15.04-.49,0-1.26,0-1.71-.04v.42c.54.01.62.32.62.45,0,.22-.14.35-.24.45l-4.23,4.04v-4.29c0-.49.03-.63,1.07-.63h.32v-.42c-.47.04-1.47.04-1.98.04s-1.53,0-2-.04v.42h.32c1.04,0,1.07.15,1.07.63v7.11c0,.49-.03.63-1.07.63h-.32v.42Zm10.42,0c.53-.01,1.16-.04,1.54-.04.54,0,1.17,0,1.71.04v-.42h-.28c-1,0-1.03-.15-1.03-.63v-2.08c0-1.34.57-2.54,1.59-2.54.09,0,.12,0,.15.01-.04.01-.31.18-.31.53,0,.38.28.58.58.58.24,0,.58-.16.58-.59s-.42-.82-1-.82c-.99,0-1.47.9-1.66,1.49v-1.49l-1.88.15v.42c.95,0,1.05.09,1.05.76v3.62c0,.61-.15.61-1.05.61v.42Zm5.28-2.89c0,1.74,1.4,3.04,2.98,3.04s3-1.32,3-3.04-1.35-3.16-2.98-3.16-3,1.47-3,3.16Zm1.12-.11c0-.53,0-1.26.32-1.85.36-.62,1-.9,1.54-.9.59,0,1.17.3,1.53.88s.35,1.36.35,1.88c0,.49,0,1.22-.3,1.81-.3.61-.89,1-1.57,1-.58,0-1.17-.28-1.54-.9-.34-.59-.34-1.42-.34-1.9Zm5.68,3c.47-.01,1.16-.04,1.53-.04s1.05.03,1.51.04v-.42c-.9,0-1.05,0-1.05-.61v-2.48c0-1.4.96-2.16,1.82-2.16s1,.73,1,1.5v3.15c0,.61-.15.61-1.05.61v.42c.47-.01,1.16-.04,1.53-.04s1.05.03,1.51.04v-.42c-.7,0-1.04,0-1.05-.41v-2.58c0-1.16,0-1.58-.42-2.07-.19-.23-.63-.5-1.42-.5-.99,0-1.62.58-2,1.42v-1.42l-1.9.15v.42c.95,0,1.05.09,1.05.76v3.62c0,.61-.15.61-1.05.61v.42Zm7.44-2.97c0,1.81,1.42,3.12,2.97,3.12,1.65,0,2.25-1.5,2.25-1.76,0-.14-.11-.16-.18-.16-.12,0-.15.08-.18.19-.47,1.39-1.69,1.39-1.82,1.39-.68,0-1.22-.41-1.53-.9-.41-.65-.41-1.54-.41-2.03h3.77c.3,0,.34,0,.34-.28,0-1.34-.73-2.65-2.42-2.65-1.57,0-2.81,1.39-2.81,3.08Zm1.13-.43c.08-2.01,1.22-2.35,1.67-2.35,1.39,0,1.53,1.82,1.53,2.35h-3.2Zm4.94.49c0,1.73,1.34,3.06,2.9,3.06,1.81,0,2.24-1.62,2.24-1.76s-.14-.14-.18-.14c-.12,0-.15.05-.18.14-.39,1.26-1.27,1.42-1.77,1.42-.72,0-1.9-.58-1.9-2.75s1.11-2.77,1.82-2.77c.12,0,.97.01,1.44.5-.55.04-.63.45-.63.62,0,.35.24.62.62.62.35,0,.62-.23.62-.63,0-.92-1.03-1.44-2.07-1.44-1.69,0-2.93,1.46-2.93,3.13Zm5.54,2.92c.45-.01,1.08-.04,1.47-.04s.95.01,1.49.04v-.42c-.9,0-1.05,0-1.05-.61v-1.39l.86-.74c1.04,1.43,1.61,2.19,1.61,2.43,0,.26-.23.31-.49.31v.42c.38-.01,1.17-.04,1.46-.04.39,0,.78.01,1.17.04v-.42c-.5,0-.8,0-1.31-.72l-1.71-2.42s-.08-.11-.08-.15c0-.05.96-.86,1.09-.97.85-.69,1.42-.72,1.7-.73v-.42c-.39.04-.57.04-.95.04-.49,0-1.32-.03-1.51-.04v.42c.26.01.39.16.39.34,0,.27-.19.43-.3.53l-1.9,1.65v-6.48l-1.94.15v.42c.95,0,1.05.09,1.05.76v7.02c0,.61-.15.61-1.05.61v.42Zm6.74-2.97c0,1.81,1.42,3.12,2.97,3.12,1.65,0,2.25-1.5,2.25-1.76,0-.14-.11-.16-.18-.16-.12,0-.15.08-.18.19-.47,1.39-1.69,1.39-1.82,1.39-.68,0-1.22-.41-1.53-.9-.41-.65-.41-1.54-.41-2.03h3.77c.3,0,.34,0,.34-.28,0-1.34-.73-2.65-2.42-2.65-1.57,0-2.81,1.39-2.81,3.08Zm1.13-.43c.08-2.01,1.22-2.35,1.67-2.35,1.39,0,1.53,1.82,1.53,2.35h-3.2Zm4.86,3.4c.53-.01,1.16-.04,1.54-.04.54,0,1.17,0,1.71.04v-.42h-.28c-1,0-1.03-.15-1.03-.63v-2.08c0-1.34.57-2.54,1.59-2.54.09,0,.12,0,.15.01-.04.01-.31.18-.31.53,0,.38.28.58.58.58.24,0,.58-.16.58-.59s-.42-.82-1-.82c-.99,0-1.47.9-1.66,1.49v-1.49l-1.88.15v.42c.95,0,1.05.09,1.05.76v3.62c0,.61-.15.61-1.05.61v.42Zm9.86-2.9c0,1.71,1.32,3.05,2.86,3.05.86,0,1.47-.46,1.81-.89v.89l1.98-.15v-.42c-.95,0-1.05-.09-1.05-.76v-8.19l-1.94.15v.42c.95,0,1.05.09,1.05.76v2.92c-.39-.49-.97-.84-1.7-.84-1.59,0-3.01,1.32-3.01,3.06Zm1.12.01c0-.5.03-1.31.42-1.92.28-.42.8-.86,1.53-.86.47,0,1.04.2,1.46.81.15.23.15.26.15.5v2.77c0,.24,0,.27-.15.5-.41.65-1.01.95-1.59.95s-1.09-.35-1.42-.86c-.35-.55-.39-1.32-.39-1.88Zm6.29-.08c0,1.81,1.42,3.12,2.97,3.12,1.65,0,2.25-1.5,2.25-1.76,0-.14-.11-.16-.18-.16-.12,0-.15.08-.18.19-.47,1.39-1.69,1.39-1.82,1.39-.68,0-1.22-.41-1.53-.9-.41-.65-.41-1.54-.41-2.03h3.77c.3,0,.34,0,.34-.28,0-1.34-.73-2.65-2.42-2.65-1.57,0-2.81,1.39-2.81,3.08Zm1.13-.43c.08-2.01,1.22-2.35,1.67-2.35,1.39,0,1.53,1.82,1.53,2.35h-3.2Zm4.93,3.4c.45-.01,1.16-.04,1.5-.04s1,.03,1.5.04v-.42c-.9,0-1.05,0-1.05-.61v-8.34l-1.94.15v.42c.95,0,1.05.09,1.05.76v7.02c0,.61-.15.61-1.05.61v.42Zm3.55-5.4h1.15v3.73c0,1.66,1.26,1.82,1.74,1.82.96,0,1.34-.96,1.34-1.82v-.77h-.34v.74c0,1-.41,1.51-.9,1.51-.9,0-.9-1.23-.9-1.46v-3.75h1.93v-.42h-1.93v-2.48h-.34c-.01,1.11-.42,2.55-1.74,2.61v.3Zm5.55,4.12c0,1.09,1.31,1.43,2.16,1.43s1.51-.54,1.77-1.17c.05.54.42,1.11,1.05,1.11.28,0,1.11-.19,1.11-1.28v-.76h-.34v.76c0,.78-.34.86-.49.86-.45,0-.5-.61-.5-.68v-2.7c0-.57,0-1.09-.49-1.59-.53-.53-1.2-.74-1.85-.74-1.11,0-2.04.63-2.04,1.53,0,.41.27.63.62.63.38,0,.62-.27.62-.62,0-.16-.07-.61-.69-.62.36-.47,1.03-.62,1.46-.62.66,0,1.43.53,1.43,1.73v.5c-.69.04-1.63.08-2.48.49-1.01.46-1.35,1.16-1.35,1.76Zm1.04-.01c0-.74.57-1.86,2.79-1.94v1.35c0,1.28-.97,1.74-1.58,1.74-.66,0-1.22-.47-1.22-1.15Zm10.21.01c0,1.09,1.31,1.43,2.16,1.43s1.51-.54,1.77-1.17c.05.54.42,1.11,1.05,1.11.28,0,1.11-.19,1.11-1.28v-.76h-.34v.76c0,.78-.34.86-.49.86-.45,0-.5-.61-.5-.68v-2.7c0-.57,0-1.09-.49-1.59-.53-.53-1.2-.74-1.85-.74-1.11,0-2.04.63-2.04,1.53,0,.41.27.63.62.63.38,0,.62-.27.62-.62,0-.16-.07-.61-.69-.62.36-.47,1.03-.62,1.46-.62.66,0,1.43.53,1.43,1.73v.5c-.69.04-1.63.08-2.48.49-1.01.46-1.35,1.16-1.35,1.76Zm1.04-.01c0-.74.57-1.86,2.79-1.94v1.35c0,1.28-.97,1.74-1.58,1.74-.66,0-1.22-.47-1.22-1.15Zm5.58,1.3c.47-.01,1.16-.04,1.53-.04s1.05.03,1.51.04v-.42c-.9,0-1.05,0-1.05-.61v-2.48c0-1.4.96-2.16,1.82-2.16s1,.73,1,1.5v3.15c0,.61-.15.61-1.05.61v.42c.47-.01,1.16-.04,1.53-.04s1.05.03,1.51.04v-.42c-.7,0-1.04,0-1.05-.41v-2.58c0-1.16,0-1.58-.42-2.07-.19-.23-.63-.5-1.42-.5-.99,0-1.62.58-2,1.42v-1.42l-1.9.15v.42c.95,0,1.05.09,1.05.76v3.62c0,.61-.15.61-1.05.61v.42Zm7.52-2.9c0,1.71,1.32,3.05,2.86,3.05.86,0,1.47-.46,1.81-.89v.89l1.98-.15v-.42c-.95,0-1.05-.09-1.05-.76v-8.19l-1.94.15v.42c.95,0,1.05.09,1.05.76v2.92c-.39-.49-.97-.84-1.7-.84-1.59,0-3.01,1.32-3.01,3.06Zm1.12.01c0-.5.03-1.31.42-1.92.28-.42.8-.86,1.53-.86.47,0,1.04.2,1.46.81.15.23.15.26.15.5v2.77c0,.24,0,.27-.15.5-.41.65-1.01.95-1.59.95s-1.09-.35-1.42-.86c-.35-.55-.39-1.32-.39-1.88Zm10.87-.01c0,1.71,1.32,3.05,2.86,3.05.86,0,1.47-.46,1.81-.89v.89l1.98-.15v-.42c-.95,0-1.05-.09-1.05-.76v-8.19l-1.94.15v.42c.95,0,1.05.09,1.05.76v2.92c-.39-.49-.97-.84-1.7-.84-1.59,0-3.01,1.32-3.01,3.06Zm1.12.01c0-.5.03-1.31.42-1.92.28-.42.8-.86,1.53-.86.47,0,1.04.2,1.46.81.15.23.15.26.15.5v2.77c0,.24,0,.27-.15.5-.41.65-1.01.95-1.59.95s-1.09-.35-1.42-.86c-.35-.55-.39-1.32-.39-1.88Zm6.29,0c0,1.74,1.4,3.04,2.98,3.04s3-1.32,3-3.04-1.35-3.16-2.98-3.16-3,1.47-3,3.16Zm1.12-.11c0-.53,0-1.26.32-1.85.36-.62,1-.9,1.54-.9.59,0,1.17.3,1.53.88s.35,1.36.35,1.88c0,.49,0,1.22-.3,1.81-.3.61-.89,1-1.57,1-.58,0-1.17-.28-1.54-.9-.34-.59-.34-1.42-.34-1.9Zm5.51-2.4h1.15v3.73c0,1.66,1.26,1.82,1.74,1.82.96,0,1.34-.96,1.34-1.82v-.77h-.34v.74c0,1-.41,1.51-.9,1.51-.9,0-.9-1.23-.9-1.46v-3.75h1.93v-.42h-1.93v-2.48h-.34c-.01,1.11-.42,2.55-1.74,2.61v.3Zm9.86,7.6v.42c.46-.01,1.16-.04,1.51-.04s1.05.03,1.53.04v-.42c-.9,0-1.05,0-1.05-.61v-2.39c.07.22.63.95,1.66.95,1.61,0,3.01-1.32,3.01-3.06s-1.31-3.05-2.82-3.05c-1.05,0-1.62.59-1.89.89v-.89l-1.94.15v.42c.96,0,1.05.08,1.05.68v6.32c0,.61-.15.61-1.05.61Zm1.98-3.74v-3.01c.39-.69,1.05-1.08,1.74-1.08.99,0,1.81,1.19,1.81,2.71,0,1.63-.95,2.77-1.94,2.77-.54,0-1.05-.27-1.42-.82-.19-.28-.19-.3-.19-.57Zm5.51,1.54c.53-.01,1.16-.04,1.54-.04.54,0,1.17,0,1.71.04v-.42h-.28c-1,0-1.03-.15-1.03-.63v-2.08c0-1.34.57-2.54,1.59-2.54.09,0,.12,0,.15.01-.04.01-.31.18-.31.53,0,.38.28.58.58.58.24,0,.58-.16.58-.59s-.42-.82-1-.82c-.99,0-1.47.9-1.66,1.49v-1.49l-1.88.15v.42c.95,0,1.05.09,1.05.76v3.62c0,.61-.15.61-1.05.61v.42Zm5.28-2.89c0,1.74,1.4,3.04,2.98,3.04s3-1.32,3-3.04-1.35-3.16-2.98-3.16-3,1.47-3,3.16Zm1.12-.11c0-.53,0-1.26.32-1.85.36-.62,1-.9,1.54-.9.59,0,1.17.3,1.53.88s.35,1.36.35,1.88c0,.49,0,1.22-.3,1.81-.3.61-.89,1-1.57,1-.58,0-1.17-.28-1.54-.9-.34-.59-.34-1.42-.34-1.9Zm6.09.09c0,1.71,1.32,3.05,2.86,3.05.86,0,1.47-.46,1.81-.89v.89l1.98-.15v-.42c-.95,0-1.05-.09-1.05-.76v-8.19l-1.94.15v.42c.95,0,1.05.09,1.05.76v2.92c-.39-.49-.97-.84-1.7-.84-1.59,0-3.01,1.32-3.01,3.06Zm1.12.01c0-.5.03-1.31.42-1.92.28-.42.8-.86,1.53-.86.47,0,1.04.2,1.46.81.15.23.15.26.15.5v2.77c0,.24,0,.27-.15.5-.41.65-1.01.95-1.59.95s-1.09-.35-1.42-.86c-.35-.55-.39-1.32-.39-1.88Zm6.35-2.51c1.05,0,1.05.04,1.05,1.24v2.03c0,1.05,0,2.28,2.05,2.28.76,0,1.35-.38,1.74-1.22v1.22l1.94-.15v-.42c-.95,0-1.05-.09-1.05-.76v-4.79l-1.98.15v.42c.95,0,1.05.09,1.05.76v2.4c0,1.17-.65,2.09-1.63,2.09-1.13,0-1.19-.63-1.19-1.34v-4.48l-1.98.15v.42Zm7.52,2.48c0,1.73,1.34,3.06,2.9,3.06,1.81,0,2.24-1.62,2.24-1.76s-.14-.14-.18-.14c-.12,0-.15.05-.18.14-.39,1.26-1.27,1.42-1.77,1.42-.72,0-1.9-.58-1.9-2.75s1.11-2.77,1.82-2.77c.12,0,.97.01,1.44.5-.55.04-.63.45-.63.62,0,.35.24.62.62.62.35,0,.62-.23.62-.63,0-.92-1.03-1.44-2.07-1.44-1.69,0-2.93,1.46-2.93,3.13Zm5.79-2.48h1.15v3.73c0,1.66,1.26,1.82,1.74,1.82.96,0,1.34-.96,1.34-1.82v-.77h-.34v.74c0,1-.41,1.51-.9,1.51-.9,0-.9-1.23-.9-1.46v-3.75h1.93v-.42h-1.93v-2.48h-.34c-.01,1.11-.42,2.55-1.74,2.61v.3Z"/>
    <path d="m368.05,160.75c0,1.09,1.31,1.43,2.16,1.43s1.51-.54,1.77-1.17c.05.54.42,1.11,1.05,1.11.28,0,1.11-.19,1.11-1.28v-.76h-.34v.76c0,.78-.34.86-.49.86-.45,0-.5-.61-.5-.68v-2.7c0-.57,0-1.09-.49-1.59-.53-.53-1.2-.74-1.85-.74-1.11,0-2.04.63-2.04,1.53,0,.41.27.63.62.63.38,0,.62-.27.62-.62,0-.16-.07-.61-.69-.62.36-.47,1.03-.62,1.46-.62.66,0,1.43.53,1.43,1.73v.5c-.69.04-1.63.08-2.48.49-1.01.46-1.35,1.16-1.35,1.76Zm1.04-.01c0-.74.57-1.86,2.79-1.94v1.35c0,1.28-.97,1.74-1.58,1.74-.66,0-1.22-.47-1.22-1.15Zm5.52,1.3c.53-.01,1.16-.04,1.54-.04.54,0,1.17,0,1.71.04v-.42h-.28c-1,0-1.03-.15-1.03-.63v-2.08c0-1.34.57-2.54,1.59-2.54.09,0,.12,0,.15.01-.04.01-.31.18-.31.53,0,.38.28.58.58.58.24,0,.58-.16.58-.59s-.42-.82-1-.82c-.99,0-1.47.9-1.66,1.49v-1.49l-1.88.15v.42c.95,0,1.05.09,1.05.76v3.62c0,.61-.15.61-1.05.61v.42Zm5.28,0c.53-.01,1.16-.04,1.54-.04.54,0,1.17,0,1.71.04v-.42h-.28c-1,0-1.03-.15-1.03-.63v-2.08c0-1.34.57-2.54,1.59-2.54.09,0,.12,0,.15.01-.04.01-.31.18-.31.53,0,.38.28.58.58.58.24,0,.58-.16.58-.59s-.42-.82-1-.82c-.99,0-1.47.9-1.66,1.49v-1.49l-1.88.15v.42c.95,0,1.05.09,1.05.76v3.62c0,.61-.15.61-1.05.61v.42Zm5.47-1.28c0,1.09,1.31,1.43,2.16,1.43s1.51-.54,1.77-1.17c.05.54.42,1.11,1.05,1.11.28,0,1.11-.19,1.11-1.28v-.76h-.34v.76c0,.78-.34.86-.49.86-.45,0-.5-.61-.5-.68v-2.7c0-.57,0-1.09-.49-1.59-.53-.53-1.2-.74-1.85-.74-1.11,0-2.04.63-2.04,1.53,0,.41.27.63.62.63.38,0,.62-.27.62-.62,0-.16-.07-.61-.69-.62.36-.47,1.03-.62,1.46-.62.66,0,1.43.53,1.43,1.73v.5c-.69.04-1.63.08-2.48.49-1.01.46-1.35,1.16-1.35,1.76Zm1.04-.01c0-.74.57-1.86,2.79-1.94v1.35c0,1.28-.97,1.74-1.58,1.74-.66,0-1.22-.47-1.22-1.15Zm5.58,1.3c.47-.01,1.16-.04,1.53-.04s1.05.03,1.51.04v-.42c-.9,0-1.05,0-1.05-.61v-2.48c0-1.4.96-2.16,1.82-2.16s1,.73,1,1.5v3.15c0,.61-.15.61-1.05.61v.42c.47-.01,1.16-.04,1.53-.04s1.05.03,1.51.04v-.42c-.7,0-1.04,0-1.05-.41v-2.58c0-1.16,0-1.58-.42-2.07-.19-.23-.63-.5-1.42-.5-.99,0-1.62.58-2,1.42v-1.42l-1.9.15v.42c.95,0,1.05.09,1.05.76v3.62c0,.61-.15.61-1.05.61v.42Zm7.44,1.07c0,.97,1.34,1.71,2.98,1.71s3-.69,3-1.74c0-.47-.19-1.16-.88-1.54-.72-.38-1.5-.38-2.32-.38-.34,0-.92,0-1.01-.01-.43-.05-.72-.47-.72-.9,0-.05,0-.36.23-.63.53.38,1.08.42,1.34.42,1.26,0,2.19-.93,2.19-1.97,0-.5-.22-1-.55-1.31.49-.46.97-.53,1.22-.53.03,0,.09,0,.14.01-.15.05-.22.2-.22.36,0,.23.18.39.39.39.14,0,.39-.09.39-.41,0-.23-.16-.66-.69-.66-.27,0-.86.08-1.43.63-.57-.45-1.13-.49-1.43-.49-1.26,0-2.19.93-2.19,1.97,0,.59.3,1.11.63,1.39-.18.2-.42.65-.42,1.12,0,.42.18.93.59,1.2-.81.23-1.24.81-1.24,1.35Zm.7,0c0-.62.51-1.12,1.11-1.16h.8c1.16,0,2.67,0,2.67,1.16,0,.73-.96,1.4-2.28,1.4s-2.3-.69-2.3-1.4Zm.74-5.05c0-.36.01-.8.22-1.13.11-.16.42-.54.96-.54,1.17,0,1.17,1.35,1.17,1.66,0,.36-.01.8-.22,1.13-.11.16-.42.54-.96.54-1.17,0-1.17-1.35-1.17-1.66Zm5.31,1.01c0,1.81,1.42,3.12,2.97,3.12,1.65,0,2.25-1.5,2.25-1.76,0-.14-.11-.16-.18-.16-.12,0-.15.08-.18.19-.47,1.39-1.69,1.39-1.82,1.39-.68,0-1.22-.41-1.53-.9-.41-.65-.41-1.54-.41-2.03h3.77c.3,0,.34,0,.34-.28,0-1.34-.73-2.65-2.42-2.65-1.57,0-2.81,1.39-2.81,3.08Zm1.13-.43c.08-2.01,1.22-2.35,1.67-2.35,1.39,0,1.53,1.82,1.53,2.35h-3.2Zm4.94.5c0,1.71,1.32,3.05,2.86,3.05.86,0,1.47-.46,1.81-.89v.89l1.98-.15v-.42c-.95,0-1.05-.09-1.05-.76v-8.19l-1.94.15v.42c.95,0,1.05.09,1.05.76v2.92c-.39-.49-.97-.84-1.7-.84-1.59,0-3.01,1.32-3.01,3.06Zm1.12.01c0-.5.03-1.31.42-1.92.28-.42.8-.86,1.53-.86.47,0,1.04.2,1.46.81.15.23.15.26.15.5v2.77c0,.24,0,.27-.15.5-.41.65-1.01.95-1.59.95s-1.09-.35-1.42-.86c-.35-.55-.39-1.32-.39-1.88Zm11.42-5.43c0,.36.3.72.72.72.38,0,.72-.28.72-.72s-.34-.72-.72-.72c-.42,0-.72.36-.72.72Zm-.57,8.32c.43-.01,1.16-.04,1.49-.04.47,0,.95.03,1.4.04v-.42c-.89,0-.95-.07-.95-.59v-4.95l-1.89.15v.42c.88,0,1,.08,1,.74v3.63c0,.61-.15.61-1.05.61v.42Zm3.73,0c.47-.01,1.16-.04,1.53-.04s1.05.03,1.51.04v-.42c-.9,0-1.05,0-1.05-.61v-2.48c0-1.4.96-2.16,1.82-2.16s1,.73,1,1.5v3.15c0,.61-.15.61-1.05.61v.42c.47-.01,1.16-.04,1.53-.04s1.05.03,1.51.04v-.42c-.7,0-1.04,0-1.05-.41v-2.58c0-1.16,0-1.58-.42-2.07-.19-.23-.63-.5-1.42-.5-.99,0-1.62.58-2,1.42v-1.42l-1.9.15v.42c.95,0,1.05.09,1.05.76v3.62c0,.61-.15.61-1.05.61v.42Zm11.81-5.4h1.15v3.73c0,1.66,1.26,1.82,1.74,1.82.96,0,1.34-.96,1.34-1.82v-.77h-.34v.74c0,1-.41,1.51-.9,1.51-.9,0-.9-1.23-.9-1.46v-3.75h1.93v-.42h-1.93v-2.48h-.34c-.01,1.11-.42,2.55-1.74,2.61v.3Zm5.41,5.4c.47-.01,1.16-.04,1.53-.04s1.05.03,1.51.04v-.42c-.9,0-1.05,0-1.05-.61v-2.48c0-1.4.96-2.16,1.82-2.16s1,.73,1,1.5v3.15c0,.61-.15.61-1.05.61v.42c.47-.01,1.16-.04,1.53-.04s1.05.03,1.51.04v-.42c-.7,0-1.04,0-1.05-.41v-2.58c0-1.16,0-1.58-.42-2.07-.19-.23-.63-.5-1.42-.5-1.13,0-1.73.81-1.94,1.3h-.01v-4.7l-1.94.15v.42c.95,0,1.05.09,1.05.76v7.02c0,.61-.15.61-1.05.61v.42Zm8.07-8.32c0,.36.3.72.72.72.38,0,.72-.28.72-.72s-.34-.72-.72-.72c-.42,0-.72.36-.72.72Zm-.57,8.32c.43-.01,1.16-.04,1.49-.04.47,0,.95.03,1.4.04v-.42c-.89,0-.95-.07-.95-.59v-4.95l-1.89.15v.42c.88,0,1,.08,1,.74v3.63c0,.61-.15.61-1.05.61v.42Zm3.74-.18c0,.23,0,.32.15.32.07,0,.08-.01.34-.27.03-.03.03-.05.27-.31.59.57,1.2.58,1.49.58,1.55,0,2.17-.9,2.17-1.88,0-.72-.41-1.12-.57-1.28-.45-.43-.97-.54-1.54-.65-.76-.15-1.66-.32-1.66-1.11,0-.47.35-1.03,1.51-1.03,1.49,0,1.55,1.22,1.58,1.63.01.12.14.12.16.12.18,0,.18-.07.18-.32v-1.36c0-.23,0-.32-.15-.32-.07,0-.09,0-.27.16-.04.05-.18.18-.23.22-.51-.38-1.07-.38-1.27-.38-1.65,0-2.16.9-2.16,1.66,0,.47.22.85.58,1.15.43.35.81.43,1.78.62.3.05,1.4.27,1.4,1.24,0,.69-.47,1.23-1.53,1.23-1.13,0-1.62-.77-1.88-1.92-.04-.18-.05-.23-.19-.23-.18,0-.18.09-.18.34v1.78Zm9.8.18c.47-.01,1.16-.04,1.53-.04s1.05.03,1.51.04v-.42c-.9,0-1.05,0-1.05-.61v-2.48c0-1.4.96-2.16,1.82-2.16s1,.73,1,1.5v3.15c0,.61-.15.61-1.05.61v.42c.47-.01,1.16-.04,1.53-.04s1.05.03,1.51.04v-.42c-.9,0-1.05,0-1.05-.61v-2.48c0-1.4.96-2.16,1.82-2.16s1,.73,1,1.5v3.15c0,.61-.15.61-1.05.61v.42c.47-.01,1.16-.04,1.53-.04s1.05.03,1.51.04v-.42c-.7,0-1.04,0-1.05-.41v-2.58c0-1.16,0-1.58-.42-2.07-.19-.23-.63-.5-1.42-.5-1.13,0-1.73.81-1.96,1.32-.19-1.17-1.19-1.32-1.8-1.32-.99,0-1.62.58-2,1.42v-1.42l-1.9.15v.42c.95,0,1.05.09,1.05.76v3.62c0,.61-.15.61-1.05.61v.42Zm11.38-1.28c0,1.09,1.31,1.43,2.16,1.43s1.51-.54,1.77-1.17c.05.54.42,1.11,1.05,1.11.28,0,1.11-.19,1.11-1.28v-.76h-.34v.76c0,.78-.34.86-.49.86-.45,0-.5-.61-.5-.68v-2.7c0-.57,0-1.09-.49-1.59-.53-.53-1.2-.74-1.85-.74-1.11,0-2.04.63-2.04,1.53,0,.41.27.63.62.63.38,0,.62-.27.62-.62,0-.16-.07-.61-.69-.62.36-.47,1.03-.62,1.46-.62.66,0,1.43.53,1.43,1.73v.5c-.69.04-1.63.08-2.48.49-1.01.46-1.35,1.16-1.35,1.76Zm1.04-.01c0-.74.57-1.86,2.79-1.94v1.35c0,1.28-.97,1.74-1.58,1.74-.66,0-1.22-.47-1.22-1.15Zm5.58,1.3c.47-.01,1.16-.04,1.53-.04s1.05.03,1.51.04v-.42c-.9,0-1.05,0-1.05-.61v-2.48c0-1.4.96-2.16,1.82-2.16s1,.73,1,1.5v3.15c0,.61-.15.61-1.05.61v.42c.47-.01,1.16-.04,1.53-.04s1.05.03,1.51.04v-.42c-.7,0-1.04,0-1.05-.41v-2.58c0-1.16,0-1.58-.42-2.07-.19-.23-.63-.5-1.42-.5-.99,0-1.62.58-2,1.42v-1.42l-1.9.15v.42c.95,0,1.05.09,1.05.76v3.62c0,.61-.15.61-1.05.61v.42Zm7.49,0c.47-.01,1.16-.04,1.53-.04s1.05.03,1.51.04v-.42c-.9,0-1.05,0-1.05-.61v-2.48c0-1.4.96-2.16,1.82-2.16s1,.73,1,1.5v3.15c0,.61-.15.61-1.05.61v.42c.47-.01,1.16-.04,1.53-.04s1.05.03,1.51.04v-.42c-.7,0-1.04,0-1.05-.41v-2.58c0-1.16,0-1.58-.42-2.07-.19-.23-.63-.5-1.42-.5-.99,0-1.62.58-2,1.42v-1.42l-1.9.15v.42c.95,0,1.05.09,1.05.76v3.62c0,.61-.15.61-1.05.61v.42Zm7.44-2.97c0,1.81,1.42,3.12,2.97,3.12,1.65,0,2.25-1.5,2.25-1.76,0-.14-.11-.16-.18-.16-.12,0-.15.08-.18.19-.47,1.39-1.69,1.39-1.82,1.39-.68,0-1.22-.41-1.53-.9-.41-.65-.41-1.54-.41-2.03h3.77c.3,0,.34,0,.34-.28,0-1.34-.73-2.65-2.42-2.65-1.57,0-2.81,1.39-2.81,3.08Zm1.13-.43c.08-2.01,1.22-2.35,1.67-2.35,1.39,0,1.53,1.82,1.53,2.35h-3.2Zm4.86,3.4c.53-.01,1.16-.04,1.54-.04.54,0,1.17,0,1.71.04v-.42h-.28c-1,0-1.03-.15-1.03-.63v-2.08c0-1.34.57-2.54,1.59-2.54.09,0,.12,0,.15.01-.04.01-.31.18-.31.53,0,.38.28.58.58.58.24,0,.58-.16.58-.59s-.42-.82-1-.82c-.99,0-1.47.9-1.66,1.49v-1.49l-1.88.15v.42c.95,0,1.05.09,1.05.76v3.62c0,.61-.15.61-1.05.61v.42Zm9.77,1.07c0,.97,1.34,1.71,2.98,1.71s3-.69,3-1.74c0-.47-.19-1.16-.88-1.54-.72-.38-1.5-.38-2.32-.38-.34,0-.92,0-1.01-.01-.43-.05-.72-.47-.72-.9,0-.05,0-.36.23-.63.53.38,1.08.42,1.34.42,1.26,0,2.19-.93,2.19-1.97,0-.5-.22-1-.55-1.31.49-.46.97-.53,1.22-.53.03,0,.09,0,.14.01-.15.05-.22.2-.22.36,0,.23.18.39.39.39.14,0,.39-.09.39-.41,0-.23-.16-.66-.69-.66-.27,0-.86.08-1.43.63-.57-.45-1.13-.49-1.43-.49-1.26,0-2.19.93-2.19,1.97,0,.59.3,1.11.63,1.39-.18.2-.42.65-.42,1.12,0,.42.18.93.59,1.2-.81.23-1.24.81-1.24,1.35Zm.7,0c0-.62.51-1.12,1.11-1.16h.8c1.16,0,2.67,0,2.67,1.16,0,.73-.96,1.4-2.28,1.4s-2.3-.69-2.3-1.4Zm.74-5.05c0-.36.01-.8.22-1.13.11-.16.42-.54.96-.54,1.17,0,1.17,1.35,1.17,1.66,0,.36-.01.8-.22,1.13-.11.16-.42.54-.96.54-1.17,0-1.17-1.35-1.17-1.66Zm5.94-4.33c0,.36.3.72.72.72.38,0,.72-.28.72-.72s-.34-.72-.72-.72c-.42,0-.72.36-.72.72Zm-.57,8.32c.43-.01,1.16-.04,1.49-.04.47,0,.95.03,1.4.04v-.42c-.89,0-.95-.07-.95-.59v-4.95l-1.89.15v.42c.88,0,1,.08,1,.74v3.63c0,.61-.15.61-1.05.61v.42Zm3.55-5.4c.85,0,.9.08,1.08.5l1.94,4.79c.08.19.11.26.28.26s.23-.12.28-.26l1.77-4.39c.12-.31.35-.89,1.24-.9v-.42c-.31.03-.7.04-1.01.04s-.95-.03-1.17-.04v.42c.5.01.65.32.65.58,0,.12-.03.18-.08.32l-1.38,3.44-1.51-3.77c-.08-.18-.08-.2-.08-.23,0-.35.53-.35.77-.35v-.42c-.41.01-1.16.04-1.47.04-.36,0-.9-.01-1.31-.04v.42Zm6.86,2.43c0,1.81,1.42,3.12,2.97,3.12,1.65,0,2.25-1.5,2.25-1.76,0-.14-.11-.16-.18-.16-.12,0-.15.08-.18.19-.47,1.39-1.69,1.39-1.82,1.39-.68,0-1.22-.41-1.53-.9-.41-.65-.41-1.54-.41-2.03h3.77c.3,0,.34,0,.34-.28,0-1.34-.73-2.65-2.42-2.65-1.57,0-2.81,1.39-2.81,3.08Zm1.13-.43c.08-2.01,1.22-2.35,1.67-2.35,1.39,0,1.53,1.82,1.53,2.35h-3.2Zm9.23-2h1.15v3.73c0,1.66,1.26,1.82,1.74,1.82.96,0,1.34-.96,1.34-1.82v-.77h-.34v.74c0,1-.41,1.51-.9,1.51-.9,0-.9-1.23-.9-1.46v-3.75h1.93v-.42h-1.93v-2.48h-.34c-.01,1.11-.42,2.55-1.74,2.61v.3Zm5.41,5.4c.47-.01,1.16-.04,1.53-.04s1.05.03,1.51.04v-.42c-.9,0-1.05,0-1.05-.61v-2.48c0-1.4.96-2.16,1.82-2.16s1,.73,1,1.5v3.15c0,.61-.15.61-1.05.61v.42c.47-.01,1.16-.04,1.53-.04s1.05.03,1.51.04v-.42c-.7,0-1.04,0-1.05-.41v-2.58c0-1.16,0-1.58-.42-2.07-.19-.23-.63-.5-1.42-.5-1.13,0-1.73.81-1.94,1.3h-.01v-4.7l-1.94.15v.42c.95,0,1.05.09,1.05.76v7.02c0,.61-.15.61-1.05.61v.42Zm7.44-2.97c0,1.81,1.42,3.12,2.97,3.12,1.65,0,2.25-1.5,2.25-1.76,0-.14-.11-.16-.18-.16-.12,0-.15.08-.18.19-.47,1.39-1.69,1.39-1.82,1.39-.68,0-1.22-.41-1.53-.9-.41-.65-.41-1.54-.41-2.03h3.77c.3,0,.34,0,.34-.28,0-1.34-.73-2.65-2.42-2.65-1.57,0-2.81,1.39-2.81,3.08Zm1.13-.43c.08-2.01,1.22-2.35,1.67-2.35,1.39,0,1.53,1.82,1.53,2.35h-3.2Zm9.99-4.91c0,.36.3.72.72.72.38,0,.72-.28.72-.72s-.34-.72-.72-.72c-.42,0-.72.36-.72.72Zm-.57,8.32c.43-.01,1.16-.04,1.49-.04.47,0,.95.03,1.4.04v-.42c-.89,0-.95-.07-.95-.59v-4.95l-1.89.15v.42c.88,0,1,.08,1,.74v3.63c0,.61-.15.61-1.05.61v.42Zm3.75-2.9c0,1.71,1.32,3.05,2.86,3.05.86,0,1.47-.46,1.81-.89v.89l1.98-.15v-.42c-.95,0-1.05-.09-1.05-.76v-8.19l-1.94.15v.42c.95,0,1.05.09,1.05.76v2.92c-.39-.49-.97-.84-1.7-.84-1.59,0-3.01,1.32-3.01,3.06Zm1.12.01c0-.5.03-1.31.42-1.92.28-.42.8-.86,1.53-.86.47,0,1.04.2,1.46.81.15.23.15.26.15.5v2.77c0,.24,0,.27-.15.5-.41.65-1.01.95-1.59.95s-1.09-.35-1.42-.86c-.35-.55-.39-1.32-.39-1.88Zm6.29-.08c0,1.81,1.42,3.12,2.97,3.12,1.65,0,2.25-1.5,2.25-1.76,0-.14-.11-.16-.18-.16-.12,0-.15.08-.18.19-.47,1.39-1.69,1.39-1.82,1.39-.68,0-1.22-.41-1.53-.9-.41-.65-.41-1.54-.41-2.03h3.77c.3,0,.34,0,.34-.28,0-1.34-.73-2.65-2.42-2.65-1.57,0-2.81,1.39-2.81,3.08Zm1.13-.43c.08-2.01,1.22-2.35,1.67-2.35,1.39,0,1.53,1.82,1.53,2.35h-3.2Zm4.91,3.4c.47-.01,1.16-.04,1.53-.04s1.05.03,1.51.04v-.42c-.9,0-1.05,0-1.05-.61v-2.48c0-1.4.96-2.16,1.82-2.16s1,.73,1,1.5v3.15c0,.61-.15.61-1.05.61v.42c.47-.01,1.16-.04,1.53-.04s1.05.03,1.51.04v-.42c-.7,0-1.04,0-1.05-.41v-2.58c0-1.16,0-1.58-.42-2.07-.19-.23-.63-.5-1.42-.5-.99,0-1.62.58-2,1.42v-1.42l-1.9.15v.42c.95,0,1.05.09,1.05.76v3.62c0,.61-.15.61-1.05.61v.42Zm6.94-5.4h1.15v3.73c0,1.66,1.26,1.82,1.74,1.82.96,0,1.34-.96,1.34-1.82v-.77h-.34v.74c0,1-.41,1.51-.9,1.51-.9,0-.9-1.23-.9-1.46v-3.75h1.93v-.42h-1.93v-2.48h-.34c-.01,1.11-.42,2.55-1.74,2.61v.3Zm5.99-2.92c0,.36.3.72.72.72.38,0,.72-.28.72-.72s-.34-.72-.72-.72c-.42,0-.72.36-.72.72Zm-.57,8.32c.43-.01,1.16-.04,1.49-.04.47,0,.95.03,1.4.04v-.42c-.89,0-.95-.07-.95-.59v-4.95l-1.89.15v.42c.88,0,1,.08,1,.74v3.63c0,.61-.15.61-1.05.61v.42Zm3.55-5.4h1.15v3.73c0,1.66,1.26,1.82,1.74,1.82.96,0,1.34-.96,1.34-1.82v-.77h-.34v.74c0,1-.41,1.51-.9,1.51-.9,0-.9-1.23-.9-1.46v-3.75h1.93v-.42h-1.93v-2.48h-.34c-.01,1.11-.42,2.55-1.74,2.61v.3Zm4.86,7.07c0,.61.57,1.09,1.24,1.09.85,0,1.4-.77,1.73-1.54l2.38-5.76c.35-.85,1.04-.86,1.26-.86v-.42c-.31.03-.7.04-1.01.04-.24,0-.88-.03-1.17-.04v.42c.42.01.63.24.63.58,0,.14-.01.16-.08.32l-1.36,3.32-1.5-3.63c-.05-.14-.08-.19-.08-.24,0-.35.5-.35.76-.35v-.42c-.35.01-1.24.04-1.47.04-.36,0-.9-.01-1.31-.04v.42c.65,0,.9,0,1.09.47l2.03,4.93c-.07.18-.26.62-.34.8-.3.74-.68,1.67-1.54,1.67-.07,0-.38,0-.63-.24.42-.05.53-.35.53-.57,0-.35-.26-.57-.57-.57-.27,0-.57.18-.57.58Zm6.89-2.39c0,.36.3.72.72.72.35,0,.7-.3.7-.72s-.32-.7-.7-.7c-.42,0-.72.34-.72.7Z"/>
  </g>
  <path d="m336.71,127.63c.28-.02.91-.02,1.22-.02s.94,0,1.22.02v-.25h-.21c-.63,0-.66-.09-.66-.38v-4.22c0-.29.02-.38.66-.38h.21v-.25c-.28.02-.91.02-1.22.02s-.94,0-1.22-.02v.25h.21c.63,0,.66.09.66.38v4.22c0,.29-.02.38-.66.38h-.21v.25Zm2.94-1.72c0,1.02.78,1.81,1.7,1.81.51,0,.87-.27,1.07-.53v.53l1.18-.09v-.25c-.56,0-.62-.06-.62-.45v-4.86l-1.15.09v.25c.56,0,.62.06.62.45v1.73c-.23-.29-.58-.5-1.01-.5-.94,0-1.78.78-1.78,1.82Zm.66,0c0-.3.02-.78.25-1.14.17-.25.47-.51.9-.51.28,0,.62.12.86.48.09.14.09.15.09.3v1.64c0,.14,0,.16-.09.3-.24.38-.6.56-.94.56s-.65-.21-.84-.51c-.21-.33-.23-.78-.23-1.11Zm3.73-.05c0,1.07.84,1.85,1.76,1.85.98,0,1.34-.89,1.34-1.04,0-.08-.06-.1-.1-.1-.07,0-.09.05-.1.11-.28.82-1,.82-1.08.82-.4,0-.72-.24-.9-.54-.24-.38-.24-.91-.24-1.2h2.23c.18,0,.2,0,.2-.17,0-.79-.43-1.57-1.43-1.57-.93,0-1.66.82-1.66,1.82Zm.67-.26c.05-1.19.72-1.39.99-1.39.82,0,.9,1.08.9,1.39h-1.9Zm2.91,2.02c.28,0,.69-.02.9-.02s.62.02.9.02v-.25c-.54,0-.62,0-.62-.36v-1.47c0-.83.57-1.28,1.08-1.28s.59.43.59.89v1.86c0,.36-.09.36-.62.36v.25c.28,0,.69-.02.9-.02s.62.02.9.02v-.25c-.42,0-.62,0-.62-.24v-1.53c0-.69,0-.94-.25-1.22-.11-.14-.38-.3-.84-.3-.58,0-.96.34-1.18.84v-.84l-1.13.09v.25c.56,0,.62.06.62.45v2.14c0,.36-.09.36-.62.36v.25Zm4.11-3.2h.68v2.21c0,.98.74,1.08,1.03,1.08.57,0,.79-.57.79-1.08v-.46h-.2v.44c0,.59-.24.9-.54.9-.54,0-.54-.73-.54-.86v-2.22h1.14v-.25h-1.14v-1.47h-.2c0,.66-.25,1.51-1.03,1.54v.18Zm3.55-1.73c0,.22.18.42.42.42.22,0,.42-.17.42-.42s-.2-.42-.42-.42c-.25,0-.42.22-.42.42Zm-.34,4.93c.26,0,.69-.02.88-.02.28,0,.56.02.83.02v-.25c-.53,0-.56-.04-.56-.35v-2.94l-1.12.09v.25c.52,0,.59.05.59.44v2.15c0,.36-.09.36-.62.36v.25Zm2.1-3.2h.68v2.21c0,.98.74,1.08,1.03,1.08.57,0,.79-.57.79-1.08v-.46h-.2v.44c0,.59-.24.9-.54.9-.54,0-.54-.73-.54-.86v-2.22h1.14v-.25h-1.14v-1.47h-.2c0,.66-.25,1.51-1.03,1.54v.18Zm2.88,4.19c0,.36.34.65.74.65.5,0,.83-.46,1.02-.91l1.41-3.42c.21-.5.62-.51.74-.51v-.25c-.18.02-.42.02-.6.02-.14,0-.52-.02-.7-.02v.25c.25,0,.38.14.38.34,0,.08,0,.1-.05.19l-.81,1.97-.89-2.15c-.03-.08-.05-.11-.05-.14,0-.21.3-.21.45-.21v-.25c-.21,0-.74.02-.87.02-.22,0-.54,0-.78-.02v.25c.38,0,.54,0,.65.28l1.2,2.92c-.04.1-.15.37-.2.47-.18.44-.4.99-.91.99-.04,0-.22,0-.38-.14.25-.03.31-.21.31-.34,0-.21-.15-.34-.34-.34-.16,0-.34.1-.34.34Z"/>
  <path d="m589.25,249.11c2.26,0,3.85.41,5.5,1.47v2.47h.79c.15-1.68.38-2.94.79-4.29-2.44-.88-4.12-1.21-6.15-1.21-2.71,0-4.85.68-6.97,2.18-3.44,2.47-5.26,6.12-5.26,10.53,0,5.5,3.21,8.59,8.97,8.59,1.68.09,6-.71,7.44-1.62.59-4.59.71-5.26.74-5.35.06-.26.41-.56.79-.62l.94-.18.06-.82c-1.15.12-2.18.15-3.68.15s-2.56-.03-3.79-.15l-.15.82,1,.06c2.21.12,2.47.24,2.47.94,0,.44-.59,3.76-.74,4.47-1.32.71-2.47.97-4.06.97-4.88,0-7.41-2.74-7.41-7.94,0-4.29,1.74-10.47,8.71-10.47Z"/>
  <path d="m551.09,252.44l-.49,2.16c-.07.29-.1.6-.1.87,0,.37.15.6.41.6.39,0,1.09-.44,2.48-1.6l-.12-.36c-.41.34-.9.8-1.28.8-.15,0-.26-.15-.26-.39,0-.09,0-.14.02-.19l1.56-6.44-.17-.15-.56.31c-.7-.26-.99-.32-1.45-.32s-.82.09-1.28.31c-1.05.53-1.62,1.04-2.04,1.87-.75,1.51-1.28,3.55-1.28,4.88,0,.75.26,1.33.58,1.33.63,0,1.99-.88,3.96-3.66Zm.82-3.57c-.37,1.85-.7,2.74-1.28,3.62-.97,1.43-2.01,2.41-2.55,2.41-.2,0-.31-.22-.31-.68,0-1.09.48-3.08,1.07-4.44.41-.94.8-1.24,1.62-1.24.39,0,.7.07,1.45.32Z"/>
  <path d="m582.99,286.99l1.24-6.71c.21-1.15.41-1.32,1.5-1.41l1.24-.09.09-.82h-.71l-2.65.09c-.47,0-1,0-2.26-.03l-1.88-.06-.09.82,1.38.06c.71.03,1.03.26,1.03.79,0,.41-.12,1.32-.26,2.24l-2.18,12.76c-.5,2.71-.53,2.74-1.71,2.85l-1.21.09-.12.82,1.24-.03c1.41-.03,2.09-.06,2.65-.06l2.85.09h.76l.09-.82-1.44-.09c-.79-.06-1.06-.26-1.06-.88,0-.26.03-.47.12-1.03l1.24-7.26,1.79-.03c1.82-.03,3.06-.06,3.62-.06s1.76.03,3.62.06l1.79.03-1.18,6.32c-.26,1.44-.47,2.26-.62,2.44-.12.24-.44.35-1.09.41l-1.47.09-.12.82,1.65-.03c1.29-.03,2.18-.06,2.5-.06.47,0,1.38.03,2.65.06l1.24.03.09-.82-1.71-.09c-.76-.03-1.06-.26-1.06-.88,0-.26.03-.53.12-1.03l2.71-15.29c.21-1.15.38-1.29,1.5-1.41l1.06-.09.09-.82h-.47l-2.68.09c-.44,0-1.06,0-2.35-.03l-1.85-.06-.09.82,1.41.06c.71.03,1.03.26,1.03.79,0,.41-.12,1.35-.26,2.24l-.88,5.12h-10.88Z"/>
  <path d="m620.48,243.63l-.2-.19c-.88.44-1.5.6-2.72.71l-.07.36h.82c.41,0,.58.12.58.41,0,.12-.02.31-.03.41l-1.72,9.37c-.02.05-.02.12-.02.17,0,.66.82,1.22,1.75,1.22.63,0,1.5-.32,2.23-.85,1.63-1.16,2.75-3.49,2.75-5.73,0-.65-.15-1.31-.36-1.56-.12-.15-.34-.24-.6-.24-.41,0-.92.14-1.39.37-.87.46-1.43.97-2.48,2.31l1.46-6.77Zm1.48,5.07c.44,0,.66.39.66,1.22,0,1.09-.36,2.55-.87,3.66-.56,1.17-1.24,1.72-2.16,1.72-.78,0-1.21-.39-1.21-1.11,0-.58.26-2.98,1.63-4.42.56-.58,1.45-1.07,1.94-1.07Z"/>
  <path d="m622.3,290.3h.39c.14-1.11.26-1.73.41-2.18-.41-.26-1-.41-1.63-.41-.77-.02-2.01.32-2.98,1.39-.92.82-1.58,2.7-1.58,4.49,0,1.63.71,2.5,2.07,2.5.92,0,1.73-.34,2.67-1.11l.85-.7-.14-.34-.26.17c-1.22.82-1.87,1.11-2.47,1.11-.95,0-1.45-.68-1.45-2.02,0-1.84.6-3.6,1.43-4.25.36-.27.77-.41,1.29-.41.77,0,1.38.32,1.38.73v1.02Z"/>
  <path d="m609.12,274.92h1.24c1.33,0,1.94.09,1.99.29.05.14.09.46.07.63l-.07,1.09h.48l.46-2.79-1.55.02c-1.5.02-2.65.03-3.25.03-.63,0-1.72-.02-3.18-.03l-1.62-.02-.31,2.79h.49l.26-1.02c.09-.37.2-.65.31-.77s.75-.22,1.38-.22h1.9l-1.46,8.86c-.27,1.55-.31,1.6-.99,1.65l-.87.05-.07.48.97-.02c.68-.02,1.17-.03,1.45-.03.32,0,.85.02,1.51.03l.75.02.05-.48-1-.05c-.44-.02-.61-.15-.61-.51,0-.15.02-.27.07-.6l1.6-9.4Z"/>
  <path d="m620.48,263.63l-.2-.19c-.88.44-1.5.6-2.72.71l-.07.36h.82c.41,0,.58.12.58.41,0,.12-.02.31-.03.41l-1.72,9.37c-.02.05-.02.12-.02.17,0,.66.82,1.22,1.75,1.22.63,0,1.5-.32,2.23-.85,1.63-1.16,2.75-3.49,2.75-5.73,0-.65-.15-1.31-.36-1.56-.12-.15-.34-.24-.6-.24-.41,0-.92.14-1.39.37-.87.46-1.43.97-2.48,2.31l1.46-6.77Zm1.48,5.07c.44,0,.66.39.66,1.22,0,1.09-.36,2.55-.87,3.66-.56,1.17-1.24,1.72-2.16,1.72-.78,0-1.21-.39-1.21-1.11,0-.58.26-2.98,1.63-4.42.56-.58,1.45-1.07,1.94-1.07Z"/>
  <path d="m248.61,174.16v-1.44h-13.19v1.44h13.19Zm0,5.21v-1.44h-13.19v1.44h13.19Z"/>
  <path d="m78.61,254.16v-1.44h-13.19v1.44h13.19Zm0,5.21v-1.44h-13.19v1.44h13.19Z"/>
  <path d="m298.61,255.16v-1.44h-13.19v1.44h13.19Zm0,5.21v-1.44h-13.19v1.44h13.19Z"/>
  <path d="m518.61,254.16v-1.44h-13.19v1.44h13.19Zm0,5.21v-1.44h-13.19v1.44h13.19Z"/>
  <g>
    <path d="m36.97,207.03h.34c.19-2.17.39-2.62,2.43-2.62.24,0,.59,0,.73.03.28.05.28.2.28.51v7.11c0,.46,0,.65-1.42.65h-.54v.42c.55-.04,1.93-.04,2.55-.04s2.01,0,2.57.04v-.42h-.54c-1.42,0-1.42-.19-1.42-.65v-7.11c0-.27,0-.46.24-.51.15-.03.51-.03.77-.03,2.04,0,2.24.45,2.43,2.62h.34l-.26-3.04h-8.25l-.26,3.04Zm9.69,6.1c.47-.01,1.16-.04,1.53-.04s1.05.03,1.51.04v-.42c-.9,0-1.05,0-1.05-.61v-2.48c0-1.4.96-2.16,1.82-2.16s1,.73,1,1.5v3.15c0,.61-.15.61-1.05.61v.42c.47-.01,1.16-.04,1.53-.04s1.05.03,1.51.04v-.42c-.7,0-1.04,0-1.05-.41v-2.58c0-1.16,0-1.58-.42-2.07-.19-.23-.63-.5-1.42-.5-1.13,0-1.73.81-1.94,1.3h-.01v-4.7l-1.94.15v.42c.95,0,1.05.09,1.05.76v7.02c0,.61-.15.61-1.05.61v.42Zm7.44-2.97c0,1.81,1.42,3.12,2.97,3.12,1.65,0,2.25-1.5,2.25-1.76,0-.14-.11-.16-.18-.16-.12,0-.15.08-.18.19-.47,1.39-1.69,1.39-1.82,1.39-.68,0-1.22-.41-1.53-.9-.41-.65-.41-1.54-.41-2.03h3.77c.3,0,.34,0,.34-.28,0-1.34-.73-2.65-2.42-2.65-1.57,0-2.81,1.39-2.81,3.08Zm1.13-.43c.08-2.01,1.22-2.35,1.67-2.35,1.39,0,1.53,1.82,1.53,2.35h-3.2Zm9.36-5.4c.95,0,1.05.09,1.05.76v8.05h.34s.12-.2.49-.84c.2.31.77.99,1.77.99,1.61,0,3.01-1.32,3.01-3.06s-1.32-3.05-2.86-3.05c-1.05,0-1.63.63-1.85.88v-4.28l-1.94.15v.42Zm1.98,7.26v-2.78c0-.26,0-.27.15-.49.53-.76,1.27-.86,1.59-.86.61,0,1.09.35,1.42.86.35.55.39,1.32.39,1.88,0,.5-.03,1.31-.42,1.92-.28.42-.8.86-1.53.86-.61,0-1.09-.32-1.42-.82-.19-.28-.19-.32-.19-.57Zm6.14-6.78c0,.36.3.72.72.72.38,0,.72-.28.72-.72s-.34-.72-.72-.72c-.42,0-.72.36-.72.72Zm-.57,8.32c.43-.01,1.16-.04,1.49-.04.47,0,.95.03,1.4.04v-.42c-.89,0-.95-.07-.95-.59v-4.95l-1.89.15v.42c.88,0,1,.08,1,.74v3.63c0,.61-.15.61-1.05.61v.42Zm3.74-5.4h1.07v4.37c0,.61-.15.61-1.05.61v.42c.53-.01,1.16-.04,1.54-.04.54,0,1.17,0,1.71.04v-.42h-.28c-1,0-1.03-.15-1.03-.63v-4.35h1.54v-.42h-1.58v-1.57c0-1.19.65-1.84,1.24-1.84.04,0,.24,0,.45.09-.16.05-.41.23-.41.57,0,.31.22.58.58.58.39,0,.59-.27.59-.59,0-.5-.5-.95-1.22-.95-.95,0-2.09.72-2.09,2.15v1.55h-1.07v.42Zm4.1,0c1.05,0,1.05.04,1.05,1.24v2.03c0,1.05,0,2.28,2.05,2.28.76,0,1.35-.38,1.74-1.22v1.22l1.94-.15v-.42c-.95,0-1.05-.09-1.05-.76v-4.79l-1.98.15v.42c.95,0,1.05.09,1.05.76v2.4c0,1.17-.65,2.09-1.63,2.09-1.13,0-1.19-.63-1.19-1.34v-4.48l-1.98.15v.42Zm7.49,5.4c.47-.01,1.16-.04,1.53-.04s1.05.03,1.51.04v-.42c-.9,0-1.05,0-1.05-.61v-2.48c0-1.4.96-2.16,1.82-2.16s1,.73,1,1.5v3.15c0,.61-.15.61-1.05.61v.42c.47-.01,1.16-.04,1.53-.04s1.05.03,1.51.04v-.42c-.7,0-1.04,0-1.05-.41v-2.58c0-1.16,0-1.58-.42-2.07-.19-.23-.63-.5-1.42-.5-.99,0-1.62.58-2,1.42v-1.42l-1.9.15v.42c.95,0,1.05.09,1.05.76v3.62c0,.61-.15.61-1.05.61v.42Zm7.52-2.92c0,1.73,1.34,3.06,2.9,3.06,1.81,0,2.24-1.62,2.24-1.76s-.14-.14-.18-.14c-.12,0-.15.05-.18.14-.39,1.26-1.27,1.42-1.77,1.42-.72,0-1.9-.58-1.9-2.75s1.11-2.77,1.82-2.77c.12,0,.97.01,1.44.5-.55.04-.63.45-.63.62,0,.35.24.62.62.62.35,0,.62-.23.62-.63,0-.92-1.03-1.44-2.07-1.44-1.69,0-2.93,1.46-2.93,3.13Zm5.79-2.48h1.15v3.73c0,1.66,1.26,1.82,1.74,1.82.96,0,1.34-.96,1.34-1.82v-.77h-.34v.74c0,1-.41,1.51-.9,1.51-.9,0-.9-1.23-.9-1.46v-3.75h1.93v-.42h-1.93v-2.48h-.34c-.01,1.11-.42,2.55-1.74,2.61v.3Zm5.36,2.51c0,1.74,1.4,3.04,2.98,3.04s3-1.32,3-3.04-1.35-3.16-2.98-3.16-3,1.47-3,3.16Zm1.12-.11c0-.53,0-1.26.32-1.85.36-.62,1-.9,1.54-.9.59,0,1.17.3,1.53.88s.35,1.36.35,1.88c0,.49,0,1.22-.3,1.81-.3.61-.89,1-1.57,1-.58,0-1.17-.28-1.54-.9-.34-.59-.34-1.42-.34-1.9Zm5.63,3c.53-.01,1.16-.04,1.54-.04.54,0,1.17,0,1.71.04v-.42h-.28c-1,0-1.03-.15-1.03-.63v-2.08c0-1.34.57-2.54,1.59-2.54.09,0,.12,0,.15.01-.04.01-.31.18-.31.53,0,.38.28.58.58.58.24,0,.58-.16.58-.59s-.42-.82-1-.82c-.99,0-1.47.9-1.66,1.49v-1.49l-1.88.15v.42c.95,0,1.05.09,1.05.76v3.62c0,.61-.15.61-1.05.61v.42Zm9.77,2.2v.42c.46-.01,1.16-.04,1.51-.04s1.05.03,1.53.04v-.42c-.9,0-1.05,0-1.05-.61v-2.39c.07.22.63.95,1.66.95,1.61,0,3.01-1.32,3.01-3.06s-1.31-3.05-2.82-3.05c-1.05,0-1.62.59-1.89.89v-.89l-1.94.15v.42c.96,0,1.05.08,1.05.68v6.32c0,.61-.15.61-1.05.61Zm1.98-3.74v-3.01c.39-.69,1.05-1.08,1.74-1.08.99,0,1.81,1.19,1.81,2.71,0,1.63-.95,2.77-1.94,2.77-.54,0-1.05-.27-1.42-.82-.19-.28-.19-.3-.19-.57Zm5.51,1.54c.53-.01,1.16-.04,1.54-.04.54,0,1.17,0,1.71.04v-.42h-.28c-1,0-1.03-.15-1.03-.63v-2.08c0-1.34.57-2.54,1.59-2.54.09,0,.12,0,.15.01-.04.01-.31.18-.31.53,0,.38.28.58.58.58.24,0,.58-.16.58-.59s-.42-.82-1-.82c-.99,0-1.47.9-1.66,1.49v-1.49l-1.88.15v.42c.95,0,1.05.09,1.05.76v3.62c0,.61-.15.61-1.05.61v.42Zm5.28-2.89c0,1.74,1.4,3.04,2.98,3.04s3-1.32,3-3.04-1.35-3.16-2.98-3.16-3,1.47-3,3.16Zm1.12-.11c0-.53,0-1.26.32-1.85.36-.62,1-.9,1.54-.9.59,0,1.17.3,1.53.88s.35,1.36.35,1.88c0,.49,0,1.22-.3,1.81-.3.61-.89,1-1.57,1-.58,0-1.17-.28-1.54-.9-.34-.59-.34-1.42-.34-1.9Zm5.63,5.2v.42c.46-.01,1.16-.04,1.51-.04s1.05.03,1.53.04v-.42c-.9,0-1.05,0-1.05-.61v-2.39c.07.22.63.95,1.66.95,1.61,0,3.01-1.32,3.01-3.06s-1.31-3.05-2.82-3.05c-1.05,0-1.62.59-1.89.89v-.89l-1.94.15v.42c.96,0,1.05.08,1.05.68v6.32c0,.61-.15.61-1.05.61Zm1.98-3.74v-3.01c.39-.69,1.05-1.08,1.74-1.08.99,0,1.81,1.19,1.81,2.71,0,1.63-.95,2.77-1.94,2.77-.54,0-1.05-.27-1.42-.82-.19-.28-.19-.3-.19-.57Zm5.89-1.43c0,1.81,1.42,3.12,2.97,3.12,1.65,0,2.25-1.5,2.25-1.76,0-.14-.11-.16-.18-.16-.12,0-.15.08-.18.19-.47,1.39-1.69,1.39-1.82,1.39-.68,0-1.22-.41-1.53-.9-.41-.65-.41-1.54-.41-2.03h3.77c.3,0,.34,0,.34-.28,0-1.34-.73-2.65-2.42-2.65-1.57,0-2.81,1.39-2.81,3.08Zm1.13-.43c.08-2.01,1.22-2.35,1.67-2.35,1.39,0,1.53,1.82,1.53,2.35h-3.2Zm4.86,3.4c.53-.01,1.16-.04,1.54-.04.54,0,1.17,0,1.71.04v-.42h-.28c-1,0-1.03-.15-1.03-.63v-2.08c0-1.34.57-2.54,1.59-2.54.09,0,.12,0,.15.01-.04.01-.31.18-.31.53,0,.38.28.58.58.58.24,0,.58-.16.58-.59s-.42-.82-1-.82c-.99,0-1.47.9-1.66,1.49v-1.49l-1.88.15v.42c.95,0,1.05.09,1.05.76v3.62c0,.61-.15.61-1.05.61v.42Zm5.16-5.4h1.15v3.73c0,1.66,1.26,1.82,1.74,1.82.96,0,1.34-.96,1.34-1.82v-.77h-.34v.74c0,1-.41,1.51-.9,1.51-.9,0-.9-1.23-.9-1.46v-3.75h1.93v-.42h-1.93v-2.48h-.34c-.01,1.11-.42,2.55-1.74,2.61v.3Zm4.86,7.07c0,.61.57,1.09,1.24,1.09.85,0,1.4-.77,1.73-1.54l2.38-5.76c.35-.85,1.04-.86,1.26-.86v-.42c-.31.03-.7.04-1.01.04-.24,0-.88-.03-1.17-.04v.42c.42.01.63.24.63.58,0,.14-.01.16-.08.32l-1.36,3.32-1.5-3.63c-.05-.14-.08-.19-.08-.24,0-.35.5-.35.76-.35v-.42c-.35.01-1.24.04-1.47.04-.36,0-.9-.01-1.31-.04v.42c.65,0,.9,0,1.09.47l2.03,4.93c-.07.18-.26.62-.34.8-.3.74-.68,1.67-1.54,1.67-.07,0-.38,0-.63-.24.42-.05.53-.35.53-.57,0-.35-.26-.57-.57-.57-.27,0-.57.18-.57.58Zm11.92-2.96c0,1.09,1.31,1.43,2.16,1.43s1.51-.54,1.77-1.17c.05.54.42,1.11,1.05,1.11.28,0,1.11-.19,1.11-1.28v-.76h-.34v.76c0,.78-.34.86-.49.86-.45,0-.5-.61-.5-.68v-2.7c0-.57,0-1.09-.49-1.59-.53-.53-1.2-.74-1.85-.74-1.11,0-2.04.63-2.04,1.53,0,.41.27.63.62.63.38,0,.62-.27.62-.62,0-.16-.07-.61-.69-.62.36-.47,1.03-.62,1.46-.62.66,0,1.43.53,1.43,1.73v.5c-.69.04-1.63.08-2.48.49-1.01.46-1.35,1.16-1.35,1.76Zm1.04-.01c0-.74.57-1.86,2.79-1.94v1.35c0,1.28-.97,1.74-1.58,1.74-.66,0-1.22-.47-1.22-1.15Zm5.59,1.3c.45-.01,1.16-.04,1.5-.04s1,.03,1.5.04v-.42c-.9,0-1.05,0-1.05-.61v-8.34l-1.94.15v.42c.95,0,1.05.09,1.05.76v7.02c0,.61-.15.61-1.05.61v.42Zm3.74,0c.45-.01,1.16-.04,1.5-.04s1,.03,1.5.04v-.42c-.9,0-1.05,0-1.05-.61v-8.34l-1.94.15v.42c.95,0,1.05.09,1.05.76v7.02c0,.61-.15.61-1.05.61v.42Zm3.67-2.89c0,1.74,1.4,3.04,2.98,3.04s3-1.32,3-3.04-1.35-3.16-2.98-3.16-3,1.47-3,3.16Zm1.12-.11c0-.53,0-1.26.32-1.85.36-.62,1-.9,1.54-.9.59,0,1.17.3,1.53.88s.35,1.36.35,1.88c0,.49,0,1.22-.3,1.81-.3.61-.89,1-1.57,1-.58,0-1.17-.28-1.54-.9-.34-.59-.34-1.42-.34-1.9Zm5.12-2.4c.68,0,.84.04,1,.47l1.7,4.78c.07.19.11.3.28.3s.2-.08.27-.27l1.36-3.82,1.38,3.83c.05.15.09.26.27.26s.22-.12.27-.26l1.58-4.43c.24-.68.66-.85,1.13-.86v-.42c-.3.03-.69.04-.99.04-.39,0-1-.03-1.26-.04v.42c.49.01.78.26.78.65,0,.08,0,.11-.07.28l-1.23,3.46-1.34-3.77c-.05-.16-.07-.19-.07-.26,0-.36.53-.36.8-.36v-.42c-.39.01-1.08.04-1.4.04-.41,0-.8-.01-1.2-.04v.42c.5,0,.72.03.85.2.07.08.22.49.31.74l-1.16,3.27-1.28-3.6c-.07-.16-.07-.19-.07-.24,0-.36.53-.36.8-.36v-.42c-.41.01-1.16.04-1.47.04-.05,0-.77-.01-1.26-.04v.42Zm9.95,5.22c0,.23,0,.32.15.32.07,0,.08-.01.34-.27.03-.03.03-.05.27-.31.59.57,1.2.58,1.49.58,1.55,0,2.17-.9,2.17-1.88,0-.72-.41-1.12-.57-1.28-.45-.43-.97-.54-1.54-.65-.76-.15-1.66-.32-1.66-1.11,0-.47.35-1.03,1.51-1.03,1.49,0,1.55,1.22,1.58,1.63.01.12.14.12.16.12.18,0,.18-.07.18-.32v-1.36c0-.23,0-.32-.15-.32-.07,0-.09,0-.27.16-.04.05-.18.18-.23.22-.51-.38-1.07-.38-1.27-.38-1.65,0-2.16.9-2.16,1.66,0,.47.22.85.58,1.15.43.35.81.43,1.78.62.3.05,1.4.27,1.4,1.24,0,.69-.47,1.23-1.53,1.23-1.13,0-1.62-.77-1.88-1.92-.04-.18-.05-.23-.19-.23-.18,0-.18.09-.18.34v1.78Zm9.63-5.22h1.15v3.73c0,1.66,1.26,1.82,1.74,1.82.96,0,1.34-.96,1.34-1.82v-.77h-.34v.74c0,1-.41,1.51-.9,1.51-.9,0-.9-1.23-.9-1.46v-3.75h1.93v-.42h-1.93v-2.48h-.34c-.01,1.11-.42,2.55-1.74,2.61v.3Zm5.41,5.4c.47-.01,1.16-.04,1.53-.04s1.05.03,1.51.04v-.42c-.9,0-1.05,0-1.05-.61v-2.48c0-1.4.96-2.16,1.82-2.16s1,.73,1,1.5v3.15c0,.61-.15.61-1.05.61v.42c.47-.01,1.16-.04,1.53-.04s1.05.03,1.51.04v-.42c-.7,0-1.04,0-1.05-.41v-2.58c0-1.16,0-1.58-.42-2.07-.19-.23-.63-.5-1.42-.5-1.13,0-1.73.81-1.94,1.3h-.01v-4.7l-1.94.15v.42c.95,0,1.05.09,1.05.76v7.02c0,.61-.15.61-1.05.61v.42Zm7.44-2.97c0,1.81,1.42,3.12,2.97,3.12,1.65,0,2.25-1.5,2.25-1.76,0-.14-.11-.16-.18-.16-.12,0-.15.08-.18.19-.47,1.39-1.69,1.39-1.82,1.39-.68,0-1.22-.41-1.53-.9-.41-.65-.41-1.54-.41-2.03h3.77c.3,0,.34,0,.34-.28,0-1.34-.73-2.65-2.42-2.65-1.57,0-2.81,1.39-2.81,3.08Zm1.13-.43c.08-2.01,1.22-2.35,1.67-2.35,1.39,0,1.53,1.82,1.53,2.35h-3.2Z"/>
    <path d="m37.5,223.71c0,.36.3.72.72.72.38,0,.72-.28.72-.72s-.34-.72-.72-.72c-.42,0-.72.36-.72.72Zm-.57,8.32c.43-.01,1.16-.04,1.49-.04.47,0,.95.03,1.4.04v-.42c-.89,0-.95-.07-.95-.59v-4.95l-1.89.15v.42c.88,0,1,.08,1,.74v3.63c0,.61-.15.61-1.05.61v.42Zm3.75-2.9c0,1.71,1.32,3.05,2.86,3.05.86,0,1.47-.46,1.81-.89v.89l1.98-.15v-.42c-.95,0-1.05-.09-1.05-.76v-8.19l-1.94.15v.42c.95,0,1.05.09,1.05.76v2.92c-.39-.49-.97-.84-1.7-.84-1.59,0-3.01,1.32-3.01,3.06Zm1.12.01c0-.5.03-1.31.42-1.92.28-.42.8-.86,1.53-.86.47,0,1.04.2,1.46.81.15.23.15.26.15.5v2.77c0,.24,0,.27-.15.5-.41.65-1.01.95-1.59.95s-1.09-.35-1.42-.86c-.35-.55-.39-1.32-.39-1.88Zm6.29-.08c0,1.81,1.42,3.12,2.97,3.12,1.65,0,2.25-1.5,2.25-1.76,0-.14-.11-.16-.18-.16-.12,0-.15.08-.18.19-.47,1.39-1.69,1.39-1.82,1.39-.68,0-1.22-.41-1.53-.9-.41-.65-.41-1.54-.41-2.03h3.77c.3,0,.34,0,.34-.28,0-1.34-.73-2.65-2.42-2.65-1.57,0-2.81,1.39-2.81,3.08Zm1.13-.43c.08-2.01,1.22-2.35,1.67-2.35,1.39,0,1.53,1.82,1.53,2.35h-3.2Zm4.91,3.4c.47-.01,1.16-.04,1.53-.04s1.05.03,1.51.04v-.42c-.9,0-1.05,0-1.05-.61v-2.48c0-1.4.96-2.16,1.82-2.16s1,.73,1,1.5v3.15c0,.61-.15.61-1.05.61v.42c.47-.01,1.16-.04,1.53-.04s1.05.03,1.51.04v-.42c-.7,0-1.04,0-1.05-.41v-2.58c0-1.16,0-1.58-.42-2.07-.19-.23-.63-.5-1.42-.5-.99,0-1.62.58-2,1.42v-1.42l-1.9.15v.42c.95,0,1.05.09,1.05.76v3.62c0,.61-.15.61-1.05.61v.42Zm6.94-5.4h1.15v3.73c0,1.66,1.26,1.82,1.74,1.82.96,0,1.34-.96,1.34-1.82v-.77h-.34v.74c0,1-.41,1.51-.9,1.51-.9,0-.9-1.23-.9-1.46v-3.75h1.93v-.42h-1.93v-2.48h-.34c-.01,1.11-.42,2.55-1.74,2.61v.3Zm5.99-2.92c0,.36.3.72.72.72.38,0,.72-.28.72-.72s-.34-.72-.72-.72c-.42,0-.72.36-.72.72Zm-.57,8.32c.43-.01,1.16-.04,1.49-.04.47,0,.95.03,1.4.04v-.42c-.89,0-.95-.07-.95-.59v-4.95l-1.89.15v.42c.88,0,1,.08,1,.74v3.63c0,.61-.15.61-1.05.61v.42Zm3.55-5.4h1.15v3.73c0,1.66,1.26,1.82,1.74,1.82.96,0,1.34-.96,1.34-1.82v-.77h-.34v.74c0,1-.41,1.51-.9,1.51-.9,0-.9-1.23-.9-1.46v-3.75h1.93v-.42h-1.93v-2.48h-.34c-.01,1.11-.42,2.55-1.74,2.61v.3Zm4.86,7.07c0,.61.57,1.09,1.24,1.09.85,0,1.4-.77,1.73-1.54l2.38-5.76c.35-.85,1.04-.86,1.26-.86v-.42c-.31.03-.7.04-1.01.04-.24,0-.88-.03-1.17-.04v.42c.42.01.63.24.63.58,0,.14-.01.16-.08.32l-1.36,3.32-1.5-3.63c-.05-.14-.08-.19-.08-.24,0-.35.5-.35.76-.35v-.42c-.35.01-1.24.04-1.47.04-.36,0-.9-.01-1.31-.04v.42c.65,0,.9,0,1.09.47l2.03,4.93c-.07.18-.26.62-.34.8-.3.74-.68,1.67-1.54,1.67-.07,0-.38,0-.63-.24.42-.05.53-.35.53-.57,0-.35-.26-.57-.57-.57-.27,0-.57.18-.57.58Zm11.61-7.07h1.15v3.73c0,1.66,1.26,1.82,1.74,1.82.96,0,1.34-.96,1.34-1.82v-.77h-.34v.74c0,1-.41,1.51-.9,1.51-.9,0-.9-1.23-.9-1.46v-3.75h1.93v-.42h-1.93v-2.48h-.34c-.01,1.11-.42,2.55-1.74,2.61v.3Zm5.36,2.51c0,1.74,1.4,3.04,2.98,3.04s3-1.32,3-3.04-1.35-3.16-2.98-3.16-3,1.47-3,3.16Zm1.12-.11c0-.53,0-1.26.32-1.85.36-.62,1-.9,1.54-.9.59,0,1.17.3,1.53.88s.35,1.36.35,1.88c0,.49,0,1.22-.3,1.81-.3.61-.89,1-1.57,1-.58,0-1.17-.28-1.54-.9-.34-.59-.34-1.42-.34-1.9Zm10.13-5.81c.95,0,1.05.09,1.05.76v8.05h.34s.12-.2.49-.84c.2.31.77.99,1.77.99,1.61,0,3.01-1.32,3.01-3.06s-1.32-3.05-2.86-3.05c-1.05,0-1.63.63-1.85.88v-4.28l-1.94.15v.42Zm1.98,7.26v-2.78c0-.26,0-.27.15-.49.53-.76,1.27-.86,1.59-.86.61,0,1.09.35,1.42.86.35.55.39,1.32.39,1.88,0,.5-.03,1.31-.42,1.92-.28.42-.8.86-1.53.86-.61,0-1.09-.32-1.42-.82-.19-.28-.19-.32-.19-.57Zm5.89-1.43c0,1.81,1.42,3.12,2.97,3.12,1.65,0,2.25-1.5,2.25-1.76,0-.14-.11-.16-.18-.16-.12,0-.15.08-.18.19-.47,1.39-1.69,1.39-1.82,1.39-.68,0-1.22-.41-1.53-.9-.41-.65-.41-1.54-.41-2.03h3.77c.3,0,.34,0,.34-.28,0-1.34-.73-2.65-2.42-2.65-1.57,0-2.81,1.39-2.81,3.08Zm1.13-.43c.08-2.01,1.22-2.35,1.67-2.35,1.39,0,1.53,1.82,1.53,2.35h-3.2Zm9.41,3.4c.47-.01,1.16-.04,1.53-.04s1.05.03,1.51.04v-.42c-.9,0-1.05,0-1.05-.61v-2.48c0-1.4.96-2.16,1.82-2.16s1,.73,1,1.5v3.15c0,.61-.15.61-1.05.61v.42c.47-.01,1.16-.04,1.53-.04s1.05.03,1.51.04v-.42c-.9,0-1.05,0-1.05-.61v-2.48c0-1.4.96-2.16,1.82-2.16s1,.73,1,1.5v3.15c0,.61-.15.61-1.05.61v.42c.47-.01,1.16-.04,1.53-.04s1.05.03,1.51.04v-.42c-.7,0-1.04,0-1.05-.41v-2.58c0-1.16,0-1.58-.42-2.07-.19-.23-.63-.5-1.42-.5-1.13,0-1.73.81-1.96,1.32-.19-1.17-1.19-1.32-1.8-1.32-.99,0-1.62.58-2,1.42v-1.42l-1.9.15v.42c.95,0,1.05.09,1.05.76v3.62c0,.61-.15.61-1.05.61v.42Zm11.19-2.89c0,1.74,1.4,3.04,2.98,3.04s3-1.32,3-3.04-1.35-3.16-2.98-3.16-3,1.47-3,3.16Zm1.12-.11c0-.53,0-1.26.32-1.85.36-.62,1-.9,1.54-.9.59,0,1.17.3,1.53.88s.35,1.36.35,1.88c0,.49,0,1.22-.3,1.81-.3.61-.89,1-1.57,1-.58,0-1.17-.28-1.54-.9-.34-.59-.34-1.42-.34-1.9Zm5.13-2.4c.85,0,.9.08,1.08.5l1.94,4.79c.08.19.11.26.28.26s.23-.12.28-.26l1.77-4.39c.12-.31.35-.89,1.24-.9v-.42c-.31.03-.7.04-1.01.04s-.95-.03-1.17-.04v.42c.5.01.65.32.65.58,0,.12-.03.18-.08.32l-1.38,3.44-1.51-3.77c-.08-.18-.08-.2-.08-.23,0-.35.53-.35.77-.35v-.42c-.41.01-1.16.04-1.47.04-.36,0-.9-.01-1.31-.04v.42Zm6.86,2.43c0,1.81,1.42,3.12,2.97,3.12,1.65,0,2.25-1.5,2.25-1.76,0-.14-.11-.16-.18-.16-.12,0-.15.08-.18.19-.47,1.39-1.69,1.39-1.82,1.39-.68,0-1.22-.41-1.53-.9-.41-.65-.41-1.54-.41-2.03h3.77c.3,0,.34,0,.34-.28,0-1.34-.73-2.65-2.42-2.65-1.57,0-2.81,1.39-2.81,3.08Zm1.13-.43c.08-2.01,1.22-2.35,1.67-2.35,1.39,0,1.53,1.82,1.53,2.35h-3.2Zm4.94.5c0,1.71,1.32,3.05,2.86,3.05.86,0,1.47-.46,1.81-.89v.89l1.98-.15v-.42c-.95,0-1.05-.09-1.05-.76v-8.19l-1.94.15v.42c.95,0,1.05.09,1.05.76v2.92c-.39-.49-.97-.84-1.7-.84-1.59,0-3.01,1.32-3.01,3.06Zm1.12.01c0-.5.03-1.31.42-1.92.28-.42.8-.86,1.53-.86.47,0,1.04.2,1.46.81.15.23.15.26.15.5v2.77c0,.24,0,.27-.15.5-.41.65-1.01.95-1.59.95s-1.09-.35-1.42-.86c-.35-.55-.39-1.32-.39-1.88Zm10.85-2.51h1.07v4.37c0,.61-.15.61-1.05.61v.42c.53-.01,1.16-.04,1.54-.04.54,0,1.17,0,1.71.04v-.42h-.28c-1,0-1.03-.15-1.03-.63v-4.35h1.54v-.42h-1.58v-1.57c0-1.19.65-1.84,1.24-1.84.04,0,.24,0,.45.09-.16.05-.41.23-.41.57,0,.31.22.58.58.58.39,0,.59-.27.59-.59,0-.5-.5-.95-1.22-.95-.95,0-2.09.72-2.09,2.15v1.55h-1.07v.42Zm4.05,2.51c0,1.74,1.4,3.04,2.98,3.04s3-1.32,3-3.04-1.35-3.16-2.98-3.16-3,1.47-3,3.16Zm1.12-.11c0-.53,0-1.26.32-1.85.36-.62,1-.9,1.54-.9.59,0,1.17.3,1.53.88s.35,1.36.35,1.88c0,.49,0,1.22-.3,1.81-.3.61-.89,1-1.57,1-.58,0-1.17-.28-1.54-.9-.34-.59-.34-1.42-.34-1.9Zm5.63,3c.53-.01,1.16-.04,1.54-.04.54,0,1.17,0,1.71.04v-.42h-.28c-1,0-1.03-.15-1.03-.63v-2.08c0-1.34.57-2.54,1.59-2.54.09,0,.12,0,.15.01-.04.01-.31.18-.31.53,0,.38.28.58.58.58.24,0,.58-.16.58-.59s-.42-.82-1-.82c-.99,0-1.47.9-1.66,1.49v-1.49l-1.88.15v.42c.95,0,1.05.09,1.05.76v3.62c0,.61-.15.61-1.05.61v.42Zm5.14-5.4c.68,0,.84.04,1,.47l1.7,4.78c.07.19.11.3.28.3s.2-.08.27-.27l1.36-3.82,1.38,3.83c.05.15.09.26.27.26s.22-.12.27-.26l1.58-4.43c.24-.68.66-.85,1.13-.86v-.42c-.3.03-.69.04-.99.04-.39,0-1-.03-1.26-.04v.42c.49.01.78.26.78.65,0,.08,0,.11-.07.28l-1.23,3.46-1.34-3.77c-.05-.16-.07-.19-.07-.26,0-.36.53-.36.8-.36v-.42c-.39.01-1.08.04-1.4.04-.41,0-.8-.01-1.2-.04v.42c.5,0,.72.03.85.2.07.08.22.49.31.74l-1.16,3.27-1.28-3.6c-.07-.16-.07-.19-.07-.24,0-.36.53-.36.8-.36v-.42c-.41.01-1.16.04-1.47.04-.05,0-.77-.01-1.26-.04v.42Zm9.69,4.12c0,1.09,1.31,1.43,2.16,1.43s1.51-.54,1.77-1.17c.05.54.42,1.11,1.05,1.11.28,0,1.11-.19,1.11-1.28v-.76h-.34v.76c0,.78-.34.86-.49.86-.45,0-.5-.61-.5-.68v-2.7c0-.57,0-1.09-.49-1.59-.53-.53-1.2-.74-1.85-.74-1.11,0-2.04.63-2.04,1.53,0,.41.27.63.62.63.38,0,.62-.27.62-.62,0-.16-.07-.61-.69-.62.36-.47,1.03-.62,1.46-.62.66,0,1.43.53,1.43,1.73v.5c-.69.04-1.63.08-2.48.49-1.01.46-1.35,1.16-1.35,1.76Zm1.04-.01c0-.74.57-1.86,2.79-1.94v1.35c0,1.28-.97,1.74-1.58,1.74-.66,0-1.22-.47-1.22-1.15Zm5.52,1.3c.53-.01,1.16-.04,1.54-.04.54,0,1.17,0,1.71.04v-.42h-.28c-1,0-1.03-.15-1.03-.63v-2.08c0-1.34.57-2.54,1.59-2.54.09,0,.12,0,.15.01-.04.01-.31.18-.31.53,0,.38.28.58.58.58.24,0,.58-.16.58-.59s-.42-.82-1-.82c-.99,0-1.47.9-1.66,1.49v-1.49l-1.88.15v.42c.95,0,1.05.09,1.05.76v3.62c0,.61-.15.61-1.05.61v.42Zm5.36-2.9c0,1.71,1.32,3.05,2.86,3.05.86,0,1.47-.46,1.81-.89v.89l1.98-.15v-.42c-.95,0-1.05-.09-1.05-.76v-8.19l-1.94.15v.42c.95,0,1.05.09,1.05.76v2.92c-.39-.49-.97-.84-1.7-.84-1.59,0-3.01,1.32-3.01,3.06Zm1.12.01c0-.5.03-1.31.42-1.92.28-.42.8-.86,1.53-.86.47,0,1.04.2,1.46.81.15.23.15.26.15.5v2.77c0,.24,0,.27-.15.5-.41.65-1.01.95-1.59.95s-1.09-.35-1.42-.86c-.35-.55-.39-1.32-.39-1.88Zm7.06,2.17c0,.36.3.72.72.72.35,0,.7-.3.7-.72s-.32-.7-.7-.7c-.42,0-.72.34-.72.7Z"/>
  </g>
  <path d="m190.48,263.63l-.2-.19c-.88.44-1.5.6-2.72.71l-.07.36h.82c.41,0,.58.12.58.41,0,.12-.02.31-.03.41l-1.72,9.37c-.02.05-.02.12-.02.17,0,.66.82,1.22,1.75,1.22.63,0,1.5-.32,2.23-.85,1.63-1.16,2.75-3.49,2.75-5.73,0-.65-.15-1.31-.36-1.56-.12-.15-.34-.24-.6-.24-.41,0-.92.14-1.39.37-.87.46-1.43.97-2.48,2.31l1.46-6.77Zm1.48,5.07c.44,0,.66.39.66,1.22,0,1.09-.36,2.55-.87,3.66-.56,1.17-1.24,1.72-2.16,1.72-.78,0-1.21-.39-1.21-1.11,0-.58.26-2.98,1.63-4.42.56-.58,1.45-1.07,1.94-1.07Z"/>
  <path d="m144.03,57.85h.37c.21-2.41.43-2.91,2.7-2.91.27,0,.66,0,.81.03.31.06.31.22.31.57v7.9c0,.51,0,.72-1.57.72h-.6v.46c.61-.04,2.14-.04,2.83-.04s2.23,0,2.85.04v-.46h-.6c-1.57,0-1.57-.21-1.57-.72v-7.9c0-.3,0-.51.27-.57.16-.03.57-.03.85-.03,2.26,0,2.49.49,2.7,2.91h.37l-.28-3.37h-9.16l-.28,3.37Zm9.46,6.78c.58-.01,1.29-.04,1.71-.04.6,0,1.3,0,1.9.04v-.46h-.31c-1.11,0-1.14-.16-1.14-.7v-2.31c0-1.48.63-2.82,1.77-2.82.1,0,.13,0,.16.01-.04.01-.34.19-.34.58,0,.42.31.64.64.64.27,0,.64-.18.64-.66s-.46-.91-1.11-.91c-1.09,0-1.63,1-1.84,1.65v-1.65l-2.08.16v.46c1.05,0,1.17.1,1.17.84v4.02c0,.67-.16.67-1.17.67v.46Zm6.07-1.42c0,1.21,1.45,1.59,2.4,1.59s1.68-.6,1.96-1.3c.06.6.46,1.23,1.17,1.23.31,0,1.23-.21,1.23-1.42v-.84h-.37v.84c0,.87-.37.96-.54.96-.49,0-.55-.67-.55-.75v-3c0-.63,0-1.21-.54-1.77-.58-.58-1.33-.82-2.05-.82-1.23,0-2.26.7-2.26,1.69,0,.45.3.7.69.7.42,0,.69-.3.69-.69,0-.18-.07-.67-.76-.69.4-.52,1.14-.69,1.62-.69.73,0,1.59.58,1.59,1.92v.55c-.76.04-1.81.09-2.76.54-1.12.51-1.5,1.29-1.5,1.95Zm1.15-.01c0-.82.63-2.07,3.1-2.16v1.5c0,1.42-1.08,1.93-1.75,1.93-.73,0-1.35-.52-1.35-1.27Zm6.19,1.44c.52-.01,1.29-.04,1.69-.04s1.17.03,1.68.04v-.46c-1,0-1.17,0-1.17-.67v-2.76c0-1.56,1.06-2.4,2.02-2.4s1.11.81,1.11,1.66v3.49c0,.67-.16.67-1.17.67v.46c.52-.01,1.29-.04,1.69-.04s1.17.03,1.68.04v-.46c-.78,0-1.15,0-1.17-.45v-2.86c0-1.29,0-1.75-.46-2.29-.21-.25-.7-.55-1.57-.55-1.09,0-1.8.64-2.22,1.57v-1.57l-2.11.16v.46c1.05,0,1.17.1,1.17.84v4.02c0,.67-.16.67-1.17.67v.46Zm8.34-.19c0,.25,0,.36.16.36.07,0,.09-.01.37-.3.03-.03.03-.06.3-.34.66.63,1.33.64,1.65.64,1.72,0,2.41-1,2.41-2.08,0-.79-.45-1.24-.63-1.42-.49-.48-1.08-.6-1.71-.72-.84-.16-1.84-.36-1.84-1.23,0-.52.39-1.14,1.68-1.14,1.65,0,1.72,1.35,1.75,1.81.01.13.15.13.18.13.19,0,.19-.07.19-.36v-1.51c0-.25,0-.36-.16-.36-.07,0-.1,0-.3.18-.04.06-.19.19-.25.24-.57-.42-1.18-.42-1.41-.42-1.83,0-2.4,1-2.4,1.84,0,.52.24.94.64,1.27.48.39.9.48,1.98.69.33.06,1.56.3,1.56,1.38,0,.76-.52,1.36-1.69,1.36-1.26,0-1.8-.85-2.08-2.13-.04-.19-.06-.25-.21-.25-.19,0-.19.1-.19.37v1.98Zm5.83,2.64v.46c.51-.01,1.29-.04,1.68-.04s1.17.03,1.69.04v-.46c-1,0-1.17,0-1.17-.67v-2.65c.07.24.7,1.05,1.84,1.05,1.78,0,3.34-1.47,3.34-3.4s-1.45-3.39-3.13-3.39c-1.17,0-1.8.66-2.1.99v-.99l-2.16.16v.46c1.06,0,1.17.09,1.17.75v7.02c0,.67-.16.67-1.17.67Zm2.2-4.15v-3.34c.43-.76,1.17-1.2,1.93-1.2,1.09,0,2.01,1.32,2.01,3.01,0,1.81-1.05,3.07-2.16,3.07-.6,0-1.17-.3-1.57-.91-.21-.31-.21-.33-.21-.63Zm6.54-1.5c0,1.93,1.56,3.37,3.31,3.37s3.33-1.47,3.33-3.37-1.5-3.51-3.31-3.51-3.33,1.63-3.33,3.51Zm1.24-.12c0-.58,0-1.39.36-2.05.4-.69,1.11-1,1.71-1,.66,0,1.3.33,1.69.97s.39,1.51.39,2.08c0,.54,0,1.35-.33,2.01-.33.67-.99,1.11-1.74,1.11-.64,0-1.3-.31-1.71-1-.37-.66-.37-1.57-.37-2.11Zm6.33,3.13c0,.25,0,.36.16.36.07,0,.09-.01.37-.3.03-.03.03-.06.3-.34.66.63,1.33.64,1.65.64,1.72,0,2.41-1,2.41-2.08,0-.79-.45-1.24-.63-1.42-.49-.48-1.08-.6-1.71-.72-.84-.16-1.84-.36-1.84-1.23,0-.52.39-1.14,1.68-1.14,1.65,0,1.72,1.35,1.75,1.81.01.13.15.13.18.13.19,0,.19-.07.19-.36v-1.51c0-.25,0-.36-.16-.36-.07,0-.1,0-.3.18-.04.06-.19.19-.25.24-.57-.42-1.18-.42-1.41-.42-1.83,0-2.4,1-2.4,1.84,0,.52.24.94.64,1.27.48.39.9.48,1.98.69.33.06,1.56.3,1.56,1.38,0,.76-.52,1.36-1.69,1.36-1.26,0-1.8-.85-2.08-2.13-.04-.19-.06-.25-.21-.25-.19,0-.19.1-.19.37v1.98Zm6.54-9.04c0,.4.33.79.79.79.42,0,.79-.31.79-.79s-.37-.79-.79-.79c-.46,0-.79.4-.79.79Zm-.63,9.24c.48-.01,1.29-.04,1.65-.04.52,0,1.05.03,1.56.04v-.46c-.99,0-1.05-.07-1.05-.66v-5.5l-2.1.16v.46c.97,0,1.11.09,1.11.82v4.03c0,.67-.16.67-1.17.67v.46Zm4.14,0c.52-.01,1.29-.04,1.69-.04s1.17.03,1.68.04v-.46c-1,0-1.17,0-1.17-.67v-2.76c0-1.56,1.06-2.4,2.02-2.4s1.11.81,1.11,1.66v3.49c0,.67-.16.67-1.17.67v.46c.52-.01,1.29-.04,1.69-.04s1.17.03,1.68.04v-.46c-.78,0-1.15,0-1.17-.45v-2.86c0-1.29,0-1.75-.46-2.29-.21-.25-.7-.55-1.57-.55-1.09,0-1.8.64-2.22,1.57v-1.57l-2.11.16v.46c1.05,0,1.17.1,1.17.84v4.02c0,.67-.16.67-1.17.67v.46Zm8.26,1.18c0,1.08,1.48,1.9,3.31,1.9s3.33-.76,3.33-1.93c0-.52-.21-1.29-.97-1.71-.79-.42-1.66-.42-2.58-.42-.37,0-1.02,0-1.12-.01-.48-.06-.79-.52-.79-1,0-.06,0-.4.25-.7.58.42,1.2.46,1.48.46,1.39,0,2.43-1.03,2.43-2.19,0-.55-.24-1.11-.61-1.45.54-.51,1.08-.58,1.35-.58.03,0,.1,0,.15.01-.16.06-.24.22-.24.4,0,.25.19.43.43.43.15,0,.43-.1.43-.45,0-.25-.18-.73-.76-.73-.3,0-.96.09-1.59.7-.63-.49-1.26-.54-1.59-.54-1.39,0-2.43,1.03-2.43,2.19,0,.66.33,1.23.7,1.54-.19.22-.46.72-.46,1.24,0,.46.19,1.03.66,1.33-.9.25-1.38.9-1.38,1.5Zm.78,0c0-.69.57-1.24,1.23-1.29h.88c1.29,0,2.97,0,2.97,1.29,0,.81-1.06,1.56-2.53,1.56s-2.55-.76-2.55-1.56Zm.82-5.61c0-.4.01-.88.24-1.26.12-.18.46-.6,1.06-.6,1.3,0,1.3,1.5,1.3,1.84,0,.4-.01.88-.24,1.26-.12.18-.46.6-1.06.6-1.3,0-1.3-1.5-1.3-1.84Z"/>
</svg>