<?xml version="1.0" encoding="UTF-8"?>
<svg id="Layer_1" data-name="Layer 1" xmlns="http://www.w3.org/2000/svg" xmlns:xlink="http://www.w3.org/1999/xlink" viewBox="0 0 710 235">
  <defs>
    <style>
      .cls-1 {
        stroke-dasharray: 0 0 7.5 6;
        stroke-width: 2px;
      }

      .cls-1, .cls-2, .cls-3, .cls-4, .cls-5, .cls-6, .cls-7, .cls-8, .cls-9, .cls-10, .cls-11, .cls-12, .cls-13 {
        fill: none;
      }

      .cls-1, .cls-14, .cls-9, .cls-13, .cls-15 {
        stroke: #000;
      }

      .cls-2 {
        clip-path: url(#clippath-4);
      }

      .cls-3 {
        clip-path: url(#clippath-2);
      }

      .cls-4 {
        clip-path: url(#clippath-6);
      }

      .cls-16, .cls-17 {
        font-size: 16px;
      }

      .cls-18, .cls-17 {
        font-family: Consolas, Consolas;
      }

      .cls-19, .cls-20, .cls-21 {
        fill: #fdf9c0;
      }

      .cls-22 {
        fill: #6a9955;
      }

      .cls-14 {
        stroke-width: 1px;
      }

      .cls-14, .cls-20 {
        stroke-miterlimit: 4;
      }

      .cls-20 {
        stroke-width: 3px;
      }

      .cls-20, .cls-21, .cls-11 {
        stroke: #fdf9c0;
      }

      .cls-21 {
        stroke-width: 3px;
      }

      .cls-21, .cls-15 {
        stroke-miterlimit: 4;
      }

      .cls-5 {
        clip-path: url(#clippath-7);
      }

      .cls-23 {
        letter-spacing: .01em;
      }

      .cls-23, .cls-24, .cls-25, .cls-26 {
        font-family: MyriadPro-Regular, 'Myriad Pro';
      }

      .cls-6 {
        clip-path: url(#clippath-5);
      }

      .cls-27 {
        fill: #dcdcaa;
      }

      .cls-28 {
        fill: #d4d4d4;
      }

      .cls-29 {
        fill: #ce9178;
      }

      .cls-30 {
        fill: #181818;
      }

      .cls-7 {
        clip-path: url(#clippath-3);
      }

      .cls-24 {
        letter-spacing: 0em;
      }

      .cls-9 {
        stroke-dasharray: 0 0 1.12 3.35;
      }

      .cls-31 {
        fill: #4ec9b0;
      }

      .cls-32 {
        fill: #ccc;
      }

      .cls-10 {
        clip-path: url(#clippath);
      }

      .cls-11 {
        stroke-width: 3px;
      }

      .cls-12 {
        clip-path: url(#clippath-1);
      }

      .cls-33 {
        fill: #4fc1ff;
      }

      .cls-34 {
        fill: #9cdcfe;
      }

      .cls-15 {
        stroke-width: 1px;
      }

      .cls-26 {
        letter-spacing: 0em;
      }

      .cls-35 {
        fill: #b5cea8;
      }
    </style>
    <clipPath id="clippath">
      <rect class="cls-8" x="243.53" y="141.14" width="8.99" height="6.49"/>
    </clipPath>
    <clipPath id="clippath-1">
      <rect class="cls-8" x="243.53" y="141.14" width="17.5" height="20.9"/>
    </clipPath>
    <clipPath id="clippath-2">
      <rect class="cls-8" x="50.52" y="21.14" width="8.99" height="6.49"/>
    </clipPath>
    <clipPath id="clippath-3">
      <rect class="cls-8" x="50.52" y="21.14" width="17.5" height="20.9"/>
    </clipPath>
    <clipPath id="clippath-4">
      <rect class="cls-8" x="52.59" y="84.1" width="8.99" height="6.49"/>
    </clipPath>
    <clipPath id="clippath-5">
      <rect class="cls-8" x="52.59" y="84.1" width="17.5" height="20.9"/>
    </clipPath>
    <clipPath id="clippath-6">
      <rect class="cls-8" x="51.71" y="142.98" width="8.99" height="6.49"/>
    </clipPath>
    <clipPath id="clippath-7">
      <rect class="cls-8" x="51.71" y="142.98" width="17.5" height="20.9"/>
    </clipPath>
  </defs>
  <rect class="cls-30" x="270" y="75" width="430" height="85"/>
  <g>
    <polygon class="cls-9" points="205.3 4.74 215.3 4.74 215.3 154.74 180.3 189.74 70.3 189.74 70.3 4.74 205.3 4.74"/>
    <path class="cls-19" d="m80.3,199.74h100v30h-100v-30Z"/>
    <g>
      <path class="cls-13" d="m120.3,84.74h17"/>
      <path d="m129.58,89.89l10.72-5.15-10.72-5.15,3.6,5.15-3.6,5.15Z"/>
    </g>
    <path class="cls-13" d="m25.3,39.74h50"/>
    <path class="cls-13" d="m25.3,59.74h50"/>
    <path class="cls-13" d="m25.3,99.74h50"/>
    <path class="cls-13" d="m25.3,119.74h50"/>
    <path class="cls-1" d="m25.3,84.74h80"/>
    <path class="cls-13" d="m25.3,159.74h150"/>
    <path class="cls-13" d="m25.3,179.74h235"/>
    <path class="cls-1" d="m25,143h40l5,7,100.3-.26"/>
    <g>
      <path class="cls-8" d="m105.3,99.74h0c8.28,0,15-6.72,15-15s-6.72-15-15-15v30Z"/>
      <path class="cls-13" d="m105.3,99.74h0c8.28,0,15-6.72,15-15s-6.72-15-15-15"/>
    </g>
    <path class="cls-13" d="m75.3,99.74c18.27.77,10.93,19.43,30,20"/>
    <path class="cls-13" d="m75.3,119.74c18.27.77,10.93-20.57,30-20"/>
    <path class="cls-13" d="m105.3,119.74h35"/>
    <g>
      <path class="cls-8" d="m175.3,159.74h0c11.05,0,20-8.95,20-20s-8.95-20-20-20v40Z"/>
      <path class="cls-13" d="m175.3,159.74h0c11.05,0,20-8.95,20-20s-8.95-20-20-20"/>
    </g>
    <path class="cls-13" d="m160.3,119.74h15"/>
    <path class="cls-13" d="m75.3,59.74c18.27.77,10.93,9.43,30,10"/>
    <path class="cls-13" d="m75.3,39.74c139,.23,118.5,119.61,160,120"/>
    <path class="cls-13" d="m235.3,159.74h25"/>
    <path class="cls-13" d="m140.3,119.74l20-14.06v28.12l-20-14.06Z"/>
    <g>
      <path class="cls-13" d="m195.3,139.74h12"/>
      <path d="m199.58,144.89l10.72-5.15-10.72-5.15,3.6,5.15-3.6,5.15Z"/>
    </g>
    <g>
      <path class="cls-11" d="m25.3,79.74h70"/>
      <g>
        <g>
          <path class="cls-11" d="m95.3,79.74c24.5.23,12,60.23,25,60"/>
          <circle class="cls-21" cx="120.3" cy="139.74" r="5.36"/>
        </g>
        <path class="cls-11" d="m25.3,139.74h135"/>
        <path class="cls-11" d="m25.3,199.74h180"/>
        <g>
          <path class="cls-11" d="m160.3,139.74c23.6.1,3.27,59.71,20,60"/>
          <circle class="cls-20" cx="180.3" cy="199.74" r="5.36"/>
        </g>
      </g>
    </g>
    <path class="cls-13" d="m25.3,79.74h70"/>
    <g>
      <path class="cls-13" d="m95.3,79.74c24.5.23,12,60.23,25,60"/>
      <circle class="cls-15" cx="120.3" cy="139.74" r="3.35"/>
    </g>
    <path class="cls-13" d="m25.3,139.74h135"/>
    <path class="cls-13" d="m25.3,199.74h235"/>
    <g>
      <path class="cls-13" d="m160.3,139.74c23.6.1,3.27,59.71,20,60"/>
      <circle class="cls-14" cx="180.3" cy="199.74" r="3.35"/>
    </g>
    <path class="cls-13" d="m275,69.5h420"/>
  </g>
  <path d="m56.27,43.45l-.2-.19c-.88.44-1.5.6-2.72.71l-.07.36h.82c.41,0,.58.12.58.41,0,.14-.02.29-.03.41l-.82,4.56c-.24,1.28-.51,2.45-1.39,6l.15.17,1.14-.29.39-2.11c.15-.82.56-1.58,1.14-2.16,1.17,3.4,1.72,4.56,2.14,4.56.22,0,.63-.22,1.38-.75l.78-.54-.14-.32-.73.41c-.24.14-.36.17-.49.17-.17,0-.29-.1-.44-.39-.6-1.09-.97-2.01-1.63-4.1l.24-.24c1.04-1.04,1.82-1.46,2.67-1.46.14,0,.32.03.61.1l.29-1.07c-.31-.1-.61-.15-.82-.15-1.12,0-2.53,1.31-4.66,4.28l1.82-8.36Z"/>
  <path d="m57.28,104.46l-.2-.19c-.88.44-1.5.6-2.72.71l-.07.36h.82c.41,0,.58.12.58.41,0,.14-.02.29-.03.41l-.82,4.56c-.24,1.28-.51,2.45-1.39,6l.15.17,1.14-.29.39-2.11c.15-.82.56-1.58,1.14-2.16,1.17,3.4,1.72,4.56,2.14,4.56.22,0,.63-.22,1.38-.75l.78-.54-.14-.32-.73.41c-.24.14-.36.17-.49.17-.17,0-.29-.1-.44-.39-.6-1.09-.97-2.01-1.63-4.1l.24-.24c1.04-1.04,1.82-1.46,2.67-1.46.14,0,.32.03.61.1l.29-1.07c-.31-.1-.61-.15-.82-.15-1.12,0-2.53,1.31-4.66,4.28l1.82-8.36Z"/>
  <path d="m56.27,163.45l-.2-.19c-.88.44-1.5.6-2.72.71l-.07.36h.82c.41,0,.58.12.58.41,0,.14-.02.29-.03.41l-.82,4.56c-.24,1.28-.51,2.45-1.39,6l.15.17,1.14-.29.39-2.11c.15-.82.56-1.58,1.14-2.16,1.17,3.4,1.72,4.56,2.14,4.56.22,0,.63-.22,1.38-.75l.78-.54-.14-.32-.73.41c-.24.14-.36.17-.49.17-.17,0-.29-.1-.44-.39-.6-1.09-.97-2.01-1.63-4.1l.24-.24c1.04-1.04,1.82-1.46,2.67-1.46.14,0,.32.03.61.1l.29-1.07c-.31-.1-.61-.15-.82-.15-1.12,0-2.53,1.31-4.66,4.28l1.82-8.36Z"/>
  <path d="m56.2,123.45l-.2-.19c-.77.37-1.46.61-2.72.71l-.07.36h.82c.31,0,.58.05.58.39,0,.1,0,.26-.03.43l-.71,3.98c-.34,1.97-1.05,5.24-1.5,6.56l.12.19,1.17-.27c.14-.97.37-2.67,1.05-3.89.77-1.38,2.52-3.03,3.23-3.03.19,0,.37.12.37.36,0,.31-.09.87-.26,1.53l-.87,3.33c-.1.37-.22.88-.22,1.29s.17.68.53.68c.54,0,1.7-.85,2.7-1.6l-.17-.31-.44.29c-.39.26-.83.51-1.04.51-.12,0-.22-.15-.22-.34,0-.2.05-.43.12-.68l1.09-4.35c.1-.44.19-.87.19-1.28,0-.29-.1-.6-.54-.6-.6,0-1.9.77-3.06,1.84-.56.53-1,1.12-1.48,1.72l-.07-.03,1.63-7.6Z"/>
  <path d="m56.2,63.45l-.2-.19c-.77.37-1.46.61-2.72.71l-.07.36h.82c.31,0,.58.05.58.39,0,.1,0,.26-.03.43l-.71,3.98c-.34,1.97-1.05,5.24-1.5,6.56l.12.19,1.17-.27c.14-.97.37-2.67,1.05-3.89.77-1.38,2.52-3.03,3.23-3.03.19,0,.37.12.37.36,0,.31-.09.87-.26,1.53l-.87,3.33c-.1.37-.22.88-.22,1.29s.17.68.53.68c.54,0,1.7-.85,2.7-1.6l-.17-.31-.44.29c-.39.26-.83.51-1.04.51-.12,0-.22-.15-.22-.34,0-.2.05-.43.12-.68l1.09-4.35c.1-.44.19-.87.19-1.28,0-.29-.1-.6-.54-.6-.6,0-1.9.77-3.06,1.84-.56.53-1,1.12-1.48,1.72l-.07-.03,1.63-7.6Z"/>
  <path d="m211.27,163.45l-.2-.19c-.88.44-1.5.6-2.72.71l-.07.36h.82c.41,0,.58.12.58.41,0,.14-.02.29-.03.41l-.82,4.56c-.24,1.28-.51,2.45-1.39,6l.15.17,1.14-.29.39-2.11c.15-.82.56-1.58,1.14-2.16,1.17,3.4,1.72,4.56,2.14,4.56.22,0,.63-.22,1.38-.75l.78-.54-.14-.32-.73.41c-.24.14-.36.17-.49.17-.17,0-.29-.1-.44-.39-.6-1.09-.97-2.01-1.63-4.1l.24-.24c1.04-1.04,1.82-1.46,2.67-1.46.14,0,.32.03.61.1l.29-1.07c-.31-.1-.61-.15-.82-.15-1.12,0-2.53,1.31-4.66,4.28l1.82-8.36Z"/>
  <path d="m211.2,183.45l-.2-.19c-.77.37-1.46.61-2.72.71l-.07.36h.82c.31,0,.58.05.58.39,0,.1,0,.26-.03.43l-.71,3.98c-.34,1.97-1.05,5.24-1.5,6.56l.12.19,1.17-.27c.14-.97.37-2.67,1.05-3.89.77-1.38,2.52-3.03,3.23-3.03.19,0,.37.12.37.36,0,.31-.09.87-.26,1.53l-.87,3.33c-.1.37-.22.88-.22,1.29s.17.68.53.68c.54,0,1.7-.85,2.7-1.6l-.17-.31-.44.29c-.39.26-.83.51-1.04.51-.12,0-.22-.15-.22-.34,0-.2.05-.43.12-.68l1.09-4.35c.1-.44.19-.87.19-1.28,0-.29-.1-.6-.54-.6-.6,0-1.9.77-3.06,1.84-.56.53-1,1.12-1.48,1.72l-.07-.03,1.63-7.6Z"/>
  <g>
    <path d="m243.92,158.79c-.02.12-.02.22-.02.31,0,.73.63,1.33,1.39,1.33,1.8,0,3.67-2.11,4.68-5.25l2.4-7.48-.19-.15c-.49.19-.88.29-1.26.32l-.6,2.24c-.2.8-.8,2.04-1.36,2.87-.6.87-1.43,1.62-1.8,1.62-.2,0-.36-.39-.34-.82l.27-3.52c.03-.53.07-1.17.07-1.65,0-.77-.12-1.07-.41-1.07-.22,0-.46.12-1.28.68l-1.39.95.19.31.85-.51c.09-.05.27-.2.43-.2.24,0,.37.32.37.88,0,.02,0,.12-.02.26l-.29,4.13-.02.68c0,.71.31,1.21.73,1.21.63,0,2.06-1.45,3.33-3.37l-.83,2.91c-.87,3.01-1.72,4.25-2.91,4.25-.6,0-1.05-.46-1.05-1.05,0-.09.02-.22.03-.37l-.17-.07-.82.58Z"/>
    <g class="cls-10">
      <g class="cls-12">
        <path d="m229.13,145.21h46.82v-1.02h-46.82v1.02Z"/>
      </g>
    </g>
  </g>
  <path d="m56.2,183.45l-.2-.19c-.77.37-1.46.61-2.72.71l-.07.36h.82c.31,0,.58.05.58.39,0,.1,0,.26-.03.43l-.71,3.98c-.34,1.97-1.05,5.24-1.5,6.56l.12.19,1.17-.27c.14-.97.37-2.67,1.05-3.89.77-1.38,2.52-3.03,3.23-3.03.19,0,.37.12.37.36,0,.31-.09.87-.26,1.53l-.87,3.33c-.1.37-.22.88-.22,1.29s.17.68.53.68c.54,0,1.7-.85,2.7-1.6l-.17-.31-.44.29c-.39.26-.83.51-1.04.51-.12,0-.22-.15-.22-.34,0-.2.05-.43.12-.68l1.09-4.35c.1-.44.19-.87.19-1.28,0-.29-.1-.6-.54-.6-.6,0-1.9.77-3.06,1.84-.56.53-1,1.12-1.48,1.72l-.07-.03,1.63-7.6Z"/>
  <g>
    <path d="m125.77,73.29l-2,.83-.08.14.55.78h.15l1.62-1.35.28,2.17.15.06,1.04-.4v-.15l-1.04-1.87,2.11.31.14-.12v-.95l-.09-.06-2.13.37,1.06-1.91-.05-.23-.95-.29-.14.06-.4,2.19-1.45-1.5h-.15l-.67.8.05.15,2,.98Zm7.04-6.96l-.18-.17c-.8.4-1.35.54-2.45.64l-.06.32h.73c.37,0,.52.11.52.37,0,.12-.02.26-.03.37l-.73,4.1c-.21,1.15-.46,2.2-1.25,5.4l.14.15,1.03-.26.35-1.9c.14-.73.5-1.42,1.03-1.94,1.06,3.06,1.55,4.1,1.93,4.1.2,0,.57-.2,1.24-.67l.7-.49-.12-.29-.66.37c-.21.12-.32.15-.44.15-.15,0-.26-.09-.4-.35-.54-.98-.87-1.81-1.47-3.69l.21-.21c.93-.93,1.64-1.32,2.4-1.32.12,0,.29.03.55.09l.26-.96c-.28-.09-.55-.14-.73-.14-1.01,0-2.28,1.18-4.19,3.86l1.64-7.53Z"/>
    <path d="m143.13,68.75v-.6h-5.4v.6h5.4Zm5.01,2.63v-.32l-.56-.03c-.59-.03-.7-.15-.7-.71v-6.47l-2.58,1.09.07.54,1.61-.71v5.55c0,.56-.12.67-.7.71l-.6.03v.32q1.65-.03,1.77-.03c.33,0,1.51.03,1.68.03Zm4.05-7.68h-.59l-2.99,9.46h.59l2.99-9.46Zm.05,7.4v.28c2,0,2-.03,2.39-.03s.39.03,2.45.03v-.91c-1.23.05-1.72.01-3.71.05l1.95-2.07c1.04-1.1,1.36-1.69,1.36-2.5,0-1.23-.84-1.99-2.2-1.99-.77,0-1.3.21-1.82.75l-.18,1.46h.31l.14-.49c.17-.62.56-.89,1.27-.89.92,0,1.51.58,1.51,1.49,0,.8-.45,1.6-1.66,2.88l-1.82,1.94Z"/>
  </g>
  <g>
    <path d="m87.78,18.23c.85.54,1.85.93,3.09.93,1.85,0,3.05-1.39,3.05-2.85,0-1.35-.95-2.24-1.81-2.61-.49-.2-1.63-.41-2.03-.57-.59-.24-1.08-.78-1.08-1.44,0-.8.73-1.59,1.96-1.59,1.11,0,1.67.38,2.3.86l.19-1.12c-.7-.38-1.38-.65-2.47-.65-1.9,0-3.05,1.35-3.05,2.66,0,1.4,1.12,2.27,2.08,2.52,1.17.31,1.35.32,1.67.45.69.28,1.16.9,1.16,1.62,0,.88-.74,1.78-1.97,1.78-1.34,0-2.24-.61-2.89-1.12l-.2,1.12Zm7.37-2.38c0,1.73,1.27,3.16,2.93,3.16.93,0,1.59-.3,2.2-.69l-.07-.9c-.43.3-1.07.73-2.12.73-1.13,0-1.89-.99-1.89-2.3,0-1.17.59-2.35,1.9-2.35,1.07,0,1.42.28,1.94.62l.16-.89c-.82-.47-1.26-.59-2.09-.59-1.89,0-2.97,1.65-2.97,3.21Zm6.12,1.49c0,.62.41,1.67,1.54,1.67,1.49,0,2.23-.61,2.24-.62v.47h1.03v-4.12c-.07-1.13-.96-2.11-2.24-2.11-.85,0-1.47.22-2.12.59l.08.9c.45-.31,1.01-.69,2.03-.69.18,0,.53.01.85.41.34.41.34.86.35,1.24v.46c-1.39.01-3.75.35-3.75,1.78Zm.99-.01c0-.85,1.8-1.05,2.77-1.07v.85c0,.88-.93,1.07-1.51,1.07-.73,0-1.26-.36-1.26-.85Zm5.99,1.54h1.01v-9.75h-1.01v9.75Zm2.59-3.05c0,1.67,1.17,3.2,2.94,3.2.85,0,1.55-.3,2.13-.69l-.08-.89c-.59.43-1.2.74-2.05.74-1.03,0-1.94-.89-2-2.28h4.19v-.39c-.12-2.31-1.44-2.86-2.4-2.86-1.43,0-2.73,1.36-2.73,3.17Zm1.01-.66c.15-.66.69-1.67,1.71-1.67.39,0,1.4.18,1.63,1.67h-3.35Zm5,.73c0,1.61.95,3.13,2.32,3.13.89,0,1.54-.41,2-.85v.7h1.07v-9.75h-1.03v4.33c-.47-.38-1.11-.74-1.96-.74-1.34,0-2.4,1.39-2.4,3.17Zm1.05-.01c0-1.77,1.17-2.32,1.96-2.32h.03c.15,0,.58.01,1,.41.24.23.28.31.28.53v2.58c0,.42-.63,1.12-1.44,1.12-.73,0-1.82-.53-1.82-2.31Zm11.23,3h3.35c.22,0,.43,0,.65-.03,1.9-.22,3.71-1.98,3.71-4.59,0-1.62-.73-3.24-2.07-4.12-.86-.57-1.59-.63-2.32-.63h-3.32v9.37Zm1.17-.76v-7.86h1.93c2.27,0,3.43,1.84,3.43,4.01,0,.93-.23,1.86-.8,2.61-.93,1.23-2.2,1.24-2.63,1.24h-1.93Zm7.7-2.23c0,1.84,1.42,3.13,2.96,3.13s2.97-1.28,2.97-3.12c0-1.69-1.24-3.25-2.97-3.25-1.59,0-2.96,1.4-2.96,3.24Zm1.05-.14c0-1.63,1.04-2.27,1.9-2.27s1.9.62,1.9,2.27-1,2.4-1.9,2.4-1.9-.7-1.9-2.4Zm5.54-2.09h1.13v3.63c0,1.49.66,1.73,1.11,1.73.61,0,1.3-.14,2-.51l-.22-.8c-.19.14-.61.45-1.19.45-.7,0-.73-.8-.73-1.17v-3.32h1.9v-.8h-1.9v-1.7h-.95v1.7h-1.16v.8Zm4.77,2.61h3.59v-.8h-3.59v.8Zm5.64,2.61h1.22v-3.9h1.58c.15,0,.3.01.45.01,2.3,0,3.33-1.53,3.33-2.77,0-.88-.49-1.67-1.31-2.19-.69-.43-1.35-.53-2.08-.53h-3.19v9.37Zm1.17-4.68v-3.93h1.8c2.09,0,2.51,1.27,2.51,1.96,0,.78-.51,1.97-2.51,1.97h-1.8Zm7.26,4.68h1.01v-2.78c0-1.97,1.5-2.43,2.3-2.46v-.9c-1.43.03-2.15.95-2.36,1.28v-1.22h-.95v6.08Zm3.93-2.98c0,1.84,1.42,3.13,2.96,3.13s2.97-1.28,2.97-3.12c0-1.69-1.24-3.25-2.97-3.25-1.59,0-2.96,1.4-2.96,3.24Zm1.05-.14c0-1.63,1.04-2.27,1.9-2.27s1.9.62,1.9,2.27-1,2.4-1.9,2.4-1.9-.7-1.9-2.4Zm6.14.14c0,1.61.95,3.13,2.32,3.13.89,0,1.54-.41,2-.85v.7h1.07v-9.75h-1.03v4.33c-.47-.38-1.11-.74-1.96-.74-1.34,0-2.4,1.39-2.4,3.17Zm1.05-.01c0-1.77,1.17-2.32,1.96-2.32h.03c.15,0,.58.01,1,.41.24.23.28.31.28.53v2.58c0,.42-.63,1.12-1.44,1.12-.73,0-1.82-.53-1.82-2.31Zm6.53,1.35c0,.7,0,1.8,1.42,1.8.74,0,1.66-.19,2.36-.8v.65h1.03v-6.01h-1.05v3.78c0,.14,0,.26-.01.39-.07.58-.59,1.23-1.61,1.23-.92,0-1.07-.3-1.08-.88v-4.52h-1.05v4.36Zm6.37-1.36c0,1.73,1.27,3.16,2.93,3.16.93,0,1.59-.3,2.2-.69l-.07-.9c-.43.3-1.07.73-2.12.73-1.13,0-1.89-.99-1.89-2.3,0-1.17.59-2.35,1.9-2.35,1.07,0,1.42.28,1.94.62l.16-.89c-.82-.47-1.26-.59-2.09-.59-1.89,0-2.97,1.65-2.97,3.21Zm5.76-2.2h1.13v3.63c0,1.49.66,1.73,1.11,1.73.61,0,1.3-.14,2-.51l-.22-.8c-.19.14-.61.45-1.19.45-.7,0-.73-.8-.73-1.17v-3.32h1.9v-.8h-1.9v-1.7h-.95v1.7h-1.16v.8Z"/>
    <path d="m116.83,39.85h1.01l1.03-2.75h3.92l1.04,2.75h1.24l-3.51-9.37h-1.2l-3.52,9.37Zm2.32-3.51c1.07-2.92,1.57-4.41,1.67-4.91.08.5.45,1.51,1.67,4.91h-3.35Zm6.18-1.7h1.13v3.63c0,1.49.66,1.73,1.11,1.73.61,0,1.3-.14,2-.51l-.22-.8c-.19.14-.61.45-1.19.45-.7,0-.73-.8-.73-1.17v-3.32h1.9v-.8h-1.9v-1.7h-.95v1.7h-1.16v.8Zm4.87,0h1.13v3.63c0,1.49.66,1.73,1.11,1.73.61,0,1.3-.14,2-.51l-.22-.8c-.19.14-.61.45-1.19.45-.7,0-.73-.8-.73-1.17v-3.32h1.9v-.8h-1.9v-1.7h-.95v1.7h-1.16v.8Zm5.09,2.16c0,1.67,1.17,3.2,2.94,3.2.85,0,1.55-.3,2.13-.69l-.08-.89c-.59.43-1.2.74-2.05.74-1.03,0-1.94-.89-2-2.28h4.19v-.39c-.12-2.31-1.44-2.86-2.4-2.86-1.43,0-2.73,1.36-2.73,3.17Zm1.01-.66c.15-.66.69-1.67,1.71-1.67.39,0,1.4.18,1.63,1.67h-3.35Zm5.6,3.71h1.05v-3.24c0-1,.34-2.08,1.38-2.08,1.32,0,1.32,1.01,1.32,1.53v3.79h1.05v-3.89c0-.95-.12-2.25-1.85-2.25-1.19,0-1.78.77-1.97,1.01v-.95h-.99v6.08Zm6.14-5.21h1.13v3.63c0,1.49.66,1.73,1.11,1.73.61,0,1.3-.14,2-.51l-.22-.8c-.19.14-.61.45-1.19.45-.7,0-.73-.8-.73-1.17v-3.32h1.9v-.8h-1.9v-1.7h-.95v1.7h-1.16v.8Zm5.72,5.21h1.01v-6.01h-1.01v6.01Zm-.09-7.97h1.22v-1.2h-1.22v1.2Zm2.63,4.98c0,1.84,1.42,3.13,2.96,3.13s2.97-1.28,2.97-3.12c0-1.69-1.24-3.25-2.97-3.25-1.59,0-2.96,1.4-2.96,3.24Zm1.05-.14c0-1.63,1.04-2.27,1.9-2.27s1.9.62,1.9,2.27-1,2.4-1.9,2.4-1.9-.7-1.9-2.4Zm6.37,3.12h1.05v-3.24c0-1,.34-2.08,1.38-2.08,1.32,0,1.32,1.01,1.32,1.53v3.79h1.05v-3.89c0-.95-.12-2.25-1.85-2.25-1.19,0-1.78.77-1.97,1.01v-.95h-.99v6.08Z"/>
  </g>
  <path d="m92.71,220.55h5.49c2.52,0,4.59-2.22,4.59-5.04s-2.02-5.2-4.59-5.2h-5.49v.46h.36c1.15,0,1.18.16,1.18.7v7.9c0,.54-.03.7-1.18.7h-.36v.46Zm2.83-1.06v-8.11c0-.49.03-.6.73-.6h1.5c.93,0,1.96.33,2.73,1.39.64.88.78,2.17.78,3.34,0,1.66-.28,2.56-.82,3.3-.3.4-1.15,1.27-2.67,1.27h-1.51c-.7,0-.73-.1-.73-.6Zm9.21-8.17c0,.4.33.79.79.79.42,0,.79-.31.79-.79s-.37-.79-.79-.79c-.46,0-.79.4-.79.79Zm-.63,9.24c.48-.01,1.29-.04,1.65-.04.52,0,1.05.03,1.56.04v-.46c-.99,0-1.05-.07-1.05-.66v-5.5l-2.1.16v.46c.97,0,1.11.09,1.11.82v4.03c0,.67-.16.67-1.17.67v.46Zm4.29-1.42c0,1.21,1.45,1.59,2.4,1.59s1.68-.6,1.96-1.3c.06.6.46,1.23,1.17,1.23.31,0,1.23-.21,1.23-1.42v-.84h-.37v.84c0,.87-.37.96-.54.96-.49,0-.55-.67-.55-.75v-3c0-.63,0-1.21-.54-1.77-.58-.58-1.33-.82-2.05-.82-1.23,0-2.26.7-2.26,1.69,0,.45.3.7.69.7.42,0,.69-.3.69-.69,0-.18-.07-.67-.76-.69.4-.52,1.14-.69,1.62-.69.73,0,1.59.58,1.59,1.92v.55c-.76.04-1.81.09-2.76.54-1.12.51-1.5,1.29-1.5,1.95Zm1.15-.01c0-.82.63-2.07,3.1-2.16v1.5c0,1.42-1.08,1.93-1.75,1.93-.73,0-1.35-.52-1.35-1.27Zm6.13,2.62c0,1.08,1.48,1.9,3.31,1.9s3.33-.76,3.33-1.93c0-.52-.21-1.29-.97-1.71-.79-.42-1.66-.42-2.58-.42-.37,0-1.02,0-1.12-.01-.48-.06-.79-.52-.79-1,0-.06,0-.4.25-.7.58.42,1.2.46,1.48.46,1.39,0,2.43-1.03,2.43-2.19,0-.55-.24-1.11-.61-1.45.54-.51,1.08-.58,1.35-.58.03,0,.1,0,.15.01-.16.06-.24.22-.24.4,0,.25.19.43.43.43.15,0,.43-.1.43-.45,0-.25-.18-.73-.76-.73-.3,0-.96.09-1.59.7-.63-.49-1.26-.54-1.59-.54-1.39,0-2.43,1.03-2.43,2.19,0,.66.33,1.23.7,1.54-.19.22-.46.72-.46,1.24,0,.46.19,1.03.66,1.33-.9.25-1.38.9-1.38,1.5Zm.78,0c0-.69.57-1.24,1.23-1.29h.88c1.29,0,2.97,0,2.97,1.29,0,.81-1.06,1.56-2.53,1.56s-2.55-.76-2.55-1.56Zm.82-5.61c0-.4.01-.88.24-1.26.12-.18.46-.6,1.06-.6,1.3,0,1.3,1.5,1.3,1.84,0,.4-.01.88-.24,1.26-.12.18-.46.6-1.06.6-1.3,0-1.3-1.5-1.3-1.84Zm5.89,1.21c0,1.93,1.56,3.37,3.31,3.37s3.33-1.47,3.33-3.37-1.5-3.51-3.31-3.51-3.33,1.63-3.33,3.51Zm1.24-.12c0-.58,0-1.39.36-2.05.4-.69,1.11-1,1.71-1,.66,0,1.3.33,1.69.97s.39,1.51.39,2.08c0,.54,0,1.35-.33,2.01-.33.67-.99,1.11-1.74,1.11-.64,0-1.3-.31-1.71-1-.37-.66-.37-1.57-.37-2.11Zm6.31,3.33c.52-.01,1.29-.04,1.69-.04s1.17.03,1.68.04v-.46c-1,0-1.17,0-1.17-.67v-2.76c0-1.56,1.06-2.4,2.02-2.4s1.11.81,1.11,1.66v3.49c0,.67-.16.67-1.17.67v.46c.52-.01,1.29-.04,1.69-.04s1.17.03,1.68.04v-.46c-.78,0-1.15,0-1.17-.45v-2.86c0-1.29,0-1.75-.46-2.29-.21-.25-.7-.55-1.57-.55-1.09,0-1.8.64-2.22,1.57v-1.57l-2.11.16v.46c1.05,0,1.17.1,1.17.84v4.02c0,.67-.16.67-1.17.67v.46Zm8.47-1.42c0,1.21,1.45,1.59,2.4,1.59s1.68-.6,1.96-1.3c.06.6.46,1.23,1.17,1.23.31,0,1.23-.21,1.23-1.42v-.84h-.37v.84c0,.87-.37.96-.54.96-.49,0-.55-.67-.55-.75v-3c0-.63,0-1.21-.54-1.77-.58-.58-1.33-.82-2.05-.82-1.23,0-2.26.7-2.26,1.69,0,.45.3.7.69.7.42,0,.69-.3.69-.69,0-.18-.07-.67-.76-.69.4-.52,1.14-.69,1.62-.69.73,0,1.59.58,1.59,1.92v.55c-.76.04-1.81.09-2.76.54-1.12.51-1.5,1.29-1.5,1.95Zm1.15-.01c0-.82.63-2.07,3.1-2.16v1.5c0,1.42-1.08,1.93-1.75,1.93-.73,0-1.35-.52-1.35-1.27Zm6.21,1.44c.49-.01,1.29-.04,1.66-.04s1.11.03,1.66.04v-.46c-1,0-1.17,0-1.17-.67v-9.27l-2.16.16v.46c1.05,0,1.17.1,1.17.84v7.8c0,.67-.16.67-1.17.67v.46Zm4.78-9.24c0,.4.33.79.79.79.42,0,.79-.31.79-.79s-.37-.79-.79-.79c-.46,0-.79.4-.79.79Zm-.63,9.24c.48-.01,1.29-.04,1.65-.04.52,0,1.05.03,1.56.04v-.46c-.99,0-1.05-.07-1.05-.66v-5.5l-2.1.16v.46c.97,0,1.11.09,1.11.82v4.03c0,.67-.16.67-1.17.67v.46Zm4.08-.21c0,.21.1.21.39.21h4.95l.25-2.8h-.37c-.13,1.77-.45,2.43-2.19,2.43h-1.77l4.17-5.64c.13-.16.13-.19.13-.25,0-.19-.12-.19-.39-.19h-4.8l-.16,2.41h.37c.09-1.53.37-2.08,2.02-2.08h1.71l-4.18,5.65c-.13.16-.13.19-.13.27Zm6.66-3.09c0,2.01,1.57,3.46,3.3,3.46,1.83,0,2.5-1.66,2.5-1.95,0-.15-.12-.18-.19-.18-.13,0-.16.09-.19.21-.52,1.54-1.87,1.54-2.02,1.54-.75,0-1.35-.45-1.69-1-.45-.72-.45-1.71-.45-2.25h4.18c.33,0,.37,0,.37-.31,0-1.48-.81-2.94-2.68-2.94-1.74,0-3.12,1.54-3.12,3.42Zm1.26-.48c.09-2.23,1.35-2.61,1.86-2.61,1.54,0,1.69,2.02,1.69,2.61h-3.55Z"/>
  <path d="m8.88,73.33c0-1.88.59-2.77,1.88-2.77.71,0,1.4.2,2.35.71l3.55,1.86c1.47.76,1.91.91,2.89.91,1.84,0,2.72-1.05,2.96-3.43h-.61c-.15,1.32-.69,1.93-1.66,1.93-.42,0-.88-.12-1.52-.37l-5.78-2.35c-.61-.24-1.05-.34-1.62-.34-1.81,0-3.06,1.25-3.06,3.11,0,.05,0,.22.02.42l.59.32Zm14.61-14.61c0-4.36-2.55-6.88-6.95-6.88-5.8,0-10.06,4.48-10.06,10.62,0,4.63,2.3,7.1,6.61,7.1,6.66,0,10.4-5.51,10.4-10.84Zm-2.15.39c0,4.6-2.18,9.42-7.34,9.42-3.53,0-5.36-2.11-5.36-6.19,0-3.62,1.42-9.47,7.15-9.47,2.84,0,5.56,1.32,5.56,6.24Z"/>
  <path d="m16.27,113.87l.07-.69h-.59l-2.2.07c-.39,0-.83,0-1.88-.02l-1.57-.05-.07.69,1.15.05c.59.02.86.22.86.66,0,.34-.07,1.05-.22,1.86l-1.79,10.62c-.42,2.25-.44,2.28-1.42,2.37l-1,.07-.1.69,1.03-.02c1.18-.02,1.74-.05,2.2-.05l2.37.07h.64l.07-.69-1.2-.07c-.66-.05-.88-.22-.88-.71,0-.15.02-.42.05-.51l1.05-6.41c3.67,4.19,4.24,4.9,6.81,8.4l1.69-.07c.88.02,1.03.05,1.66.07v-.73h-.49c-.56,0-1.05-.29-1.57-.93l-6.02-7.39,7.15-6.68c.39-.37.91-.61,1.32-.61h.51v-.66l-.56.02c-.51.02-.91.05-1.1.05-.24,0-.64-.02-1.15-.05l-.49-.02v.71c0,.2-.24.51-.93,1.2-1.08,1.1-5.21,5.17-6.78,6.39l1.1-6.36c.17-.93.34-1.1,1.25-1.18l1.03-.07Z"/>
  <path d="m14.78,192.77l-1.74-12.93c-.05-.54.05-.91,1.03-.93l1.03-.05v-.69l-1,.02c-.91.02-1.59.05-2.03.05s-1.13-.02-2.03-.05l-1-.02v.69l.61.05c1.08.07,1.27.27,1.44,1.18l2.15,15.23h1.2l9.25-15.15c.61-.98.81-1.15,1.52-1.25l.44-.05v-.69l-.73.02c-.66.02-1.22.05-1.62.05-.24,0-.91-.02-1.91-.05l-1.13-.02v.69l.64.05c.93.07,1.4.32,1.4.78,0,.27-.1.54-.39,1.03l-7.12,12.04Z"/>
  <g>
    <path d="m50.9,38.79c-.02.12-.02.22-.02.31,0,.73.63,1.33,1.39,1.33,1.8,0,3.67-2.11,4.68-5.25l2.4-7.48-.19-.15c-.49.19-.88.29-1.26.32l-.6,2.24c-.2.8-.8,2.04-1.36,2.87-.6.87-1.43,1.62-1.8,1.62-.2,0-.36-.39-.34-.82l.27-3.52c.03-.53.07-1.17.07-1.65,0-.77-.12-1.07-.41-1.07-.22,0-.46.12-1.28.68l-1.39.95.19.31.85-.51c.09-.05.27-.2.43-.2.24,0,.37.32.37.88,0,.02,0,.12-.02.26l-.29,4.13-.02.68c0,.71.31,1.21.73,1.21.63,0,2.06-1.45,3.33-3.37l-.83,2.91c-.87,3.01-1.72,4.25-2.91,4.25-.6,0-1.05-.46-1.05-1.05,0-.09.02-.22.03-.37l-.17-.07-.82.58Z"/>
    <g class="cls-3">
      <g class="cls-7">
        <path d="m36.11,25.21h46.82v-1.02h-46.82v1.02Z"/>
      </g>
    </g>
  </g>
  <g>
    <path d="m53.24,98.67c.26.14.53.2.73.2.56,0,1.22-.49,1.75-1.29l1.29-1.99.19,1.17c.22,1.45.61,2.11,1.22,2.11.37,0,.92-.29,1.46-.78l.83-.75-.15-.32c-.61.51-1.04.77-1.31.77-.26,0-.48-.17-.65-.51-.15-.32-.34-.95-.43-1.45l-.31-1.72.6-.83c.8-1.11,1.26-1.5,1.79-1.5.27,0,.48.14.56.39l.24-.07.26-1.45c-.2-.12-.36-.17-.51-.17-.68,0-1.36.61-2.41,2.18l-.63.94-.1-.82c-.2-1.68-.66-2.3-1.67-2.3-.44,0-.82.14-.97.36l-.99,1.41.29.17c.51-.58.85-.82,1.17-.82.56,0,.94.7,1.22,2.36l.19,1.05-.68,1.05c-.73,1.14-1.31,1.68-1.79,1.68-.26,0-.44-.07-.48-.15l-.19-.48-.34.05c0,.6-.14,1.04-.2,1.48Z"/>
    <g class="cls-2">
      <g class="cls-6">
        <path d="m38.18,88.17h46.82v-1.02h-46.82v1.02Z"/>
      </g>
    </g>
  </g>
  <text class="cls-16" transform="translate(275 66.36)"><tspan class="cls-23" x="0" y="0">I</tspan><tspan class="cls-25" x="3.98" y="0">mpleme</tspan><tspan class="cls-26" x="59.58" y="0">n</tspan><tspan class="cls-25" x="68.4" y="0">t</tspan><tspan class="cls-24" x="73.69" y="0">a</tspan><tspan class="cls-25" x="81.34" y="0">tion using </tspan><tspan class="cls-18" x="151.55" y="0">einsum</tspan></text>
  <text class="cls-17" transform="translate(275 90)"><tspan class="cls-22"><tspan x="0" y="0"># Local memory contains,</tspan></tspan><tspan class="cls-22"><tspan x="0" y="16"># Q: y k h # K: x k h # V: x k h</tspan></tspan><tspan class="cls-34" x="0" y="32">x</tspan><tspan class="cls-32" x="8.8" y="32"> </tspan><tspan class="cls-28" x="17.59" y="32">=</tspan><tspan class="cls-32" x="26.39" y="32"> </tspan><tspan class="cls-31" x="35.19" y="32">einops</tspan><tspan class="cls-32" x="87.97" y="32">.</tspan><tspan class="cls-27" x="96.77" y="32">einsum</tspan><tspan class="cls-32" x="149.55" y="32">(</tspan><tspan class="cls-33" x="158.34" y="32">Q</tspan><tspan class="cls-32" x="167.14" y="32">, </tspan><tspan class="cls-33" x="184.73" y="32">K</tspan><tspan class="cls-32" x="193.53" y="32">, </tspan><tspan class="cls-29" x="211.12" y="32">&apos;y k h, x k h -&gt; y x h&apos;</tspan><tspan class="cls-32" x="413.45" y="32">)</tspan><tspan class="cls-34" x="0" y="48">x</tspan><tspan class="cls-32" x="8.8" y="48"> </tspan><tspan class="cls-28" x="17.59" y="48">=</tspan><tspan class="cls-32" x="26.39" y="48"> </tspan><tspan class="cls-31" x="35.19" y="48">torch</tspan><tspan class="cls-32" x="79.17" y="48">.</tspan><tspan class="cls-31" x="87.97" y="48">nn</tspan><tspan class="cls-32" x="105.56" y="48">.</tspan><tspan class="cls-31" x="114.36" y="48">Softmax</tspan><tspan class="cls-32" x="175.94" y="48">(</tspan><tspan class="cls-28" x="184.73" y="48">-</tspan><tspan class="cls-35" x="193.53" y="48">2</tspan><tspan class="cls-32" x="202.33" y="48">)(</tspan><tspan class="cls-34" x="219.92" y="48">x</tspan><tspan class="cls-32" x="228.72" y="48"> </tspan><tspan class="cls-28" x="237.52" y="48">/</tspan><tspan class="cls-32" x="246.31" y="48"> </tspan><tspan class="cls-31" x="255.11" y="48">math</tspan><tspan class="cls-32" x="290.3" y="48">.</tspan><tspan class="cls-27" x="299.09" y="48">sqrt</tspan><tspan class="cls-32" x="334.28" y="48">(</tspan><tspan class="cls-34" x="343.08" y="48">klength</tspan><tspan class="cls-32" x="404.66" y="48">))</tspan><tspan class="cls-34" x="0" y="64">x</tspan><tspan class="cls-32" x="8.8" y="64"> </tspan><tspan class="cls-28" x="17.59" y="64">=</tspan><tspan class="cls-32" x="26.39" y="64"> </tspan><tspan class="cls-31" x="35.19" y="64">einops</tspan><tspan class="cls-32" x="87.97" y="64">.</tspan><tspan class="cls-27" x="96.77" y="64">einsum</tspan><tspan class="cls-32" x="149.55" y="64">(</tspan><tspan class="cls-34" x="158.34" y="64">x</tspan><tspan class="cls-32" x="167.14" y="64">, </tspan><tspan class="cls-33" x="184.73" y="64">V</tspan><tspan class="cls-32" x="193.53" y="64">, </tspan><tspan class="cls-29" x="211.12" y="64">&apos;y x h, x k h -&gt; y k h&apos;</tspan><tspan class="cls-32" x="413.45" y="64">)</tspan></text>
  <g>
    <path d="m52.36,157.56c.26.14.53.2.73.2.56,0,1.22-.49,1.75-1.29l1.29-1.99.19,1.17c.22,1.45.61,2.11,1.22,2.11.37,0,.92-.29,1.46-.78l.83-.75-.15-.32c-.61.51-1.04.77-1.31.77-.26,0-.48-.17-.65-.51-.15-.32-.34-.95-.43-1.45l-.31-1.72.6-.83c.8-1.11,1.26-1.5,1.79-1.5.27,0,.48.14.56.39l.24-.07.26-1.45c-.2-.12-.36-.17-.51-.17-.68,0-1.36.61-2.41,2.18l-.63.94-.1-.82c-.2-1.68-.66-2.3-1.67-2.3-.44,0-.82.14-.97.36l-.99,1.41.29.17c.51-.58.85-.82,1.17-.82.56,0,.94.7,1.22,2.36l.19,1.05-.68,1.05c-.73,1.14-1.31,1.68-1.79,1.68-.26,0-.44-.07-.48-.15l-.19-.48-.34.05c0,.6-.14,1.04-.2,1.48Z"/>
    <g class="cls-4">
      <g class="cls-5">
        <path d="m37.3,147.05h46.82v-1.02h-46.82v1.02Z"/>
      </g>
    </g>
  </g>
</svg>