<?xml version="1.0" encoding="UTF-8"?>
<svg id="Layer_1" data-name="Layer 1" xmlns="http://www.w3.org/2000/svg" viewBox="0 0 535 75">
  <defs>
    <style>
      .cls-1 {
        stroke-dasharray: 0 0 1.12 3.35;
      }

      .cls-1, .cls-2, .cls-3 {
        fill: none;
        stroke: #000;
      }

      .cls-2 {
        stroke-width: 2px;
      }
    </style>
  </defs>
  <g>
    <path class="cls-1" d="m256.47,5.39h50v65h-50V5.39Z"/>
    <path class="cls-3" d="m11.47,45.39h40"/>
    <path class="cls-3" d="m71.47,45.39h40"/>
    <g>
      <path class="cls-2" d="m131.47,45.39h67"/>
      <path class="cls-2" d="m178.74,52.23c8.27-3.93,15.85-6.21,22.73-6.84-6.88-.63-14.46-2.91-22.73-6.84"/>
    </g>
    <path class="cls-2" d="m131.47,35.39v20"/>
    <path class="cls-3" d="m221.47,55.39h120"/>
    <path class="cls-3" d="m221.47,35.39h50"/>
    <path class="cls-3" d="m291.47,35.39h50"/>
    <path class="cls-1" d="m439.8,5.39h50v65h-50V5.39Z"/>
    <path class="cls-3" d="m404.8,55.39h120"/>
    <g>
      <path class="cls-3" d="m445.8,35.39h9"/>
      <path d="m436.09,40.54l10.72-5.15-10.72-5.15,3.6,5.15-3.6,5.15Z"/>
    </g>
    <g>
      <path class="cls-3" d="m474.8,35.39h17"/>
      <path d="m484.09,40.54l10.72-5.15-10.72-5.15,3.6,5.15-3.6,5.15Z"/>
    </g>
  </g>
  <path d="m64.81,40.08h-.39l.51-2.74c.39-2.11,1.08-3.04,2.2-3.04.73,0,1.4.37,1.76.95l.24-.1c.12-.39.37-1.15.56-1.64l.12-.37c-.39-.17-1.15-.32-1.71-.32-.27,0-.66.07-.86.17-.59.27-2.59,1.76-3.16,2.35-.54.54-.83,1.27-1.1,2.67l-.37,1.93c-1,.49-1.49.69-2.11.91l-.12.54h1.98l-.22,1.37c-.73,4.77-1.64,9.33-2.18,11.02-.44,1.44-1.18,2.2-2.06,2.2-.56,0-.83-.17-1.27-.71l-.34.1c-.1.56-.44,1.74-.56,1.96.22.12.59.2.86.2,1,0,2.33-.76,3.28-1.91,1.74-2.06,2.23-4.41,4.28-14.22h2.55c.1-.47.27-1.03.42-1.37l-.1-.17c-.71.17-.69.22-2.23.22Z"/>
  <path d="m20.47,41.44v-.51l-.88-.05c-.94-.05-1.11-.24-1.11-1.12v-10.27l-4.1,1.73.12.85,2.55-1.12v8.81c0,.88-.19,1.07-1.11,1.12l-.95.05v.51q2.62-.05,2.81-.05c.53,0,2.4.05,2.67.05Z"/>
  <path d="m100.47,41.44v-.51l-.88-.05c-.94-.05-1.11-.24-1.11-1.12v-10.27l-4.1,1.73.12.85,2.55-1.12v8.81c0,.88-.19,1.07-1.11,1.12l-.95.05v.51q2.62-.05,2.81-.05c.53,0,2.4.05,2.67.05Z"/>
  <path d="m284.81,30.08h-.39l.51-2.74c.39-2.11,1.08-3.04,2.2-3.04.73,0,1.4.37,1.76.95l.24-.1c.12-.39.37-1.15.56-1.64l.12-.37c-.39-.17-1.15-.32-1.71-.32-.27,0-.66.07-.86.17-.59.27-2.59,1.76-3.16,2.35-.54.54-.83,1.27-1.1,2.67l-.37,1.93c-1,.49-1.49.69-2.11.91l-.12.54h1.98l-.22,1.37c-.73,4.77-1.64,9.33-2.18,11.02-.44,1.44-1.18,2.2-2.06,2.2-.56,0-.83-.17-1.27-.71l-.34.1c-.1.56-.44,1.74-.56,1.96.22.12.59.2.86.2,1,0,2.33-.76,3.28-1.91,1.74-2.06,2.23-4.41,4.28-14.22h2.55c.1-.47.27-1.03.42-1.37l-.1-.17c-.71.17-.69.22-2.23.22Z"/>
  <path d="m327.97,47.92l-.49,2.16c-.07.29-.1.6-.1.87,0,.37.15.6.41.6.39,0,1.09-.44,2.48-1.6l-.12-.36c-.41.34-.9.8-1.28.8-.15,0-.26-.15-.26-.39,0-.09,0-.14.02-.19l1.56-6.44-.17-.15-.56.31c-.7-.26-.99-.32-1.45-.32s-.82.09-1.28.31c-1.05.53-1.62,1.04-2.04,1.87-.75,1.51-1.28,3.55-1.28,4.88,0,.75.26,1.33.58,1.33.63,0,1.99-.88,3.96-3.66Zm.82-3.57c-.37,1.85-.7,2.74-1.28,3.62-.97,1.43-2.01,2.41-2.55,2.41-.2,0-.31-.22-.31-.68,0-1.09.48-3.08,1.07-4.44.41-.94.8-1.24,1.62-1.24.39,0,.7.07,1.45.32Z"/>
  <path d="m233.98,47.92l-.49,2.16c-.07.29-.1.6-.1.87,0,.37.15.6.41.6.39,0,1.09-.44,2.48-1.6l-.12-.36c-.41.34-.9.8-1.28.8-.15,0-.26-.15-.26-.39,0-.09,0-.14.02-.19l1.56-6.44-.17-.15-.56.31c-.7-.26-.99-.32-1.45-.32s-.82.09-1.28.31c-1.05.53-1.62,1.04-2.04,1.87-.75,1.51-1.28,3.55-1.28,4.88,0,.75.26,1.33.58,1.33.63,0,1.99-.88,3.96-3.66Zm.82-3.57c-.37,1.85-.7,2.74-1.28,3.62-.97,1.43-2.01,2.41-2.55,2.41-.2,0-.31-.22-.31-.68,0-1.09.48-3.08,1.07-4.44.41-.94.8-1.24,1.62-1.24.39,0,.7.07,1.45.32Z"/>
  <path d="m259.66,14.3h3.14c1.06,0,1.78-.71,1.78-1.46,0-.7-.66-1.3-1.54-1.39.78-.15,1.33-.66,1.33-1.26,0-.7-.74-1.35-1.78-1.35h-2.93v.25h.19c.62,0,.63.09.63.38v4.22c0,.29-.02.38-.63.38h-.19v.25Zm1.49-.57v-2.18h1.5c.79,0,1.13.74,1.13,1.28,0,.57-.42,1.22-1.24,1.22h-1c-.38,0-.39-.06-.39-.32Zm0-2.36v-1.97c0-.26.02-.32.39-.32h.99c.78,0,1.06.68,1.06,1.1,0,.51-.39,1.18-1.28,1.18h-1.16Zm4.11,2.93c.31,0,.69-.02.91-.02.32,0,.7,0,1.02.02v-.25h-.17c-.59,0-.61-.09-.61-.38v-1.23c0-.79.34-1.5.94-1.5.06,0,.07,0,.09,0-.02,0-.18.1-.18.31,0,.22.17.34.34.34.14,0,.34-.1.34-.35s-.25-.49-.59-.49c-.58,0-.87.54-.98.88v-.88l-1.11.09v.25c.56,0,.62.06.62.45v2.14c0,.36-.09.36-.62.36v.25Zm3.13-1.71c0,1.03.83,1.8,1.77,1.8s1.78-.78,1.78-1.8-.8-1.87-1.77-1.87-1.78.87-1.78,1.87Zm.66-.06c0-.31,0-.74.19-1.1.22-.37.59-.54.91-.54.35,0,.7.18.9.52s.21.81.21,1.11c0,.29,0,.72-.18,1.07-.18.36-.53.59-.93.59-.34,0-.7-.17-.91-.54-.2-.35-.2-.84-.2-1.13Zm3.45,1.02c0,.65.78.85,1.28.85s.9-.32,1.05-.7c.03.32.25.66.62.66.17,0,.66-.11.66-.76v-.45h-.2v.45c0,.46-.2.51-.29.51-.26,0-.3-.36-.3-.4v-1.6c0-.34,0-.65-.29-.94-.31-.31-.71-.44-1.1-.44-.66,0-1.21.38-1.21.9,0,.24.16.38.37.38.22,0,.37-.16.37-.37,0-.1-.04-.36-.41-.37.22-.28.61-.37.86-.37.39,0,.85.31.85,1.02v.3c-.41.02-.97.05-1.47.29-.6.27-.8.69-.8,1.04Zm.62,0c0-.44.34-1.1,1.66-1.15v.8c0,.76-.58,1.03-.94,1.03-.39,0-.72-.28-.72-.68Zm3.32-.95c0,1.02.78,1.81,1.7,1.81.51,0,.87-.27,1.07-.53v.53l1.18-.09v-.25c-.56,0-.62-.06-.62-.45v-4.86l-1.15.09v.25c.56,0,.62.06.62.45v1.73c-.23-.29-.58-.5-1.01-.5-.94,0-1.78.78-1.78,1.82Zm.66,0c0-.3.02-.78.25-1.14.17-.25.47-.51.9-.51.28,0,.62.12.86.48.09.14.09.15.09.3v1.64c0,.14,0,.16-.09.3-.24.38-.6.56-.94.56s-.65-.21-.84-.51c-.21-.33-.23-.78-.23-1.11Zm3.78-.02c0,1.02.79,1.82,1.72,1.82,1.07,0,1.33-.96,1.33-1.04s-.08-.08-.1-.08c-.07,0-.09.03-.1.08-.23.74-.75.84-1.05.84-.42,0-1.13-.34-1.13-1.63s.66-1.64,1.08-1.64c.07,0,.58,0,.86.3-.33.02-.38.26-.38.37,0,.21.14.37.37.37.21,0,.37-.14.37-.38,0-.54-.61-.86-1.22-.86-1,0-1.74.86-1.74,1.86Zm3.62.97c0,.65.78.85,1.28.85s.9-.32,1.05-.7c.03.32.25.66.62.66.17,0,.66-.11.66-.76v-.45h-.2v.45c0,.46-.2.51-.29.51-.26,0-.3-.36-.3-.4v-1.6c0-.34,0-.65-.29-.94-.31-.31-.71-.44-1.1-.44-.66,0-1.21.38-1.21.9,0,.24.16.38.37.38.22,0,.37-.16.37-.37,0-.1-.04-.36-.41-.37.22-.28.61-.37.86-.37.39,0,.85.31.85,1.02v.3c-.41.02-.97.05-1.47.29-.6.27-.8.69-.8,1.04Zm.62,0c0-.44.34-1.1,1.66-1.15v.8c0,.76-.58,1.03-.94,1.03-.39,0-.72-.28-.72-.68Zm3.31.66c0,.14,0,.19.09.19.04,0,.05,0,.2-.16.02-.02.02-.03.16-.18.35.34.71.34.88.34.92,0,1.29-.54,1.29-1.11,0-.42-.24-.66-.34-.76-.26-.26-.58-.32-.91-.38-.45-.09-.98-.19-.98-.66,0-.28.21-.61.9-.61.88,0,.92.72.94.97,0,.07.08.07.1.07.1,0,.1-.04.1-.19v-.81c0-.14,0-.19-.09-.19-.04,0-.06,0-.16.1-.02.03-.1.1-.14.13-.3-.22-.63-.22-.75-.22-.98,0-1.28.54-1.28.98,0,.28.13.5.34.68.26.21.48.26,1.06.37.18.03.83.16.83.74,0,.41-.28.73-.9.73-.67,0-.96-.46-1.11-1.14-.02-.1-.03-.14-.11-.14-.1,0-.1.06-.1.2v1.06Zm3.04-3.1h.68v2.21c0,.98.74,1.08,1.03,1.08.57,0,.79-.57.79-1.08v-.46h-.2v.44c0,.59-.24.9-.54.9-.54,0-.54-.73-.54-.86v-2.22h1.14v-.25h-1.14v-1.47h-.2c0,.66-.25,1.51-1.03,1.54v.18Zm3.18,1.44c0,1.07.84,1.85,1.76,1.85.98,0,1.34-.89,1.34-1.04,0-.08-.06-.1-.1-.1-.07,0-.09.05-.1.11-.28.82-1,.82-1.08.82-.4,0-.72-.24-.9-.54-.24-.38-.24-.91-.24-1.2h2.23c.18,0,.2,0,.2-.17,0-.79-.43-1.57-1.43-1.57-.93,0-1.66.82-1.66,1.82Zm.67-.26c.05-1.19.72-1.39.99-1.39.82,0,.9,1.08.9,1.39h-1.9Zm2.93.3c0,1.02.78,1.81,1.7,1.81.51,0,.87-.27,1.07-.53v.53l1.18-.09v-.25c-.56,0-.62-.06-.62-.45v-4.86l-1.15.09v.25c.56,0,.62.06.62.45v1.73c-.23-.29-.58-.5-1.01-.5-.94,0-1.78.78-1.78,1.82Zm.66,0c0-.3.02-.78.25-1.14.17-.25.47-.51.9-.51.28,0,.62.12.86.48.09.14.09.15.09.3v1.64c0,.14,0,.16-.09.3-.24.38-.6.56-.94.56s-.65-.21-.84-.51c-.21-.33-.23-.78-.23-1.11Z"/>
  <path d="m468.14,30.08h-.39l.51-2.74c.39-2.11,1.08-3.04,2.2-3.04.73,0,1.4.37,1.76.95l.24-.1c.12-.39.37-1.15.56-1.64l.12-.37c-.39-.17-1.15-.32-1.71-.32-.27,0-.66.07-.86.17-.59.27-2.59,1.76-3.16,2.35-.54.54-.83,1.27-1.1,2.67l-.37,1.93c-1,.49-1.49.69-2.11.91l-.12.54h1.98l-.22,1.37c-.73,4.77-1.64,9.33-2.18,11.02-.44,1.44-1.18,2.2-2.06,2.2-.56,0-.83-.17-1.27-.71l-.34.1c-.1.56-.44,1.74-.56,1.96.22.12.59.2.86.2,1,0,2.33-.76,3.28-1.91,1.74-2.06,2.23-4.41,4.28-14.22h2.55c.1-.47.27-1.03.42-1.37l-.1-.17c-.71.17-.69.22-2.23.22Z"/>
  <path d="m511.31,47.92l-.49,2.16c-.07.29-.1.6-.1.87,0,.37.15.6.41.6.39,0,1.09-.44,2.48-1.6l-.12-.36c-.41.34-.9.8-1.28.8-.15,0-.26-.15-.26-.39,0-.09,0-.14.02-.19l1.56-6.44-.17-.15-.56.31c-.7-.26-.99-.32-1.45-.32s-.82.09-1.28.31c-1.05.53-1.62,1.04-2.04,1.87-.75,1.51-1.28,3.55-1.28,4.88,0,.75.26,1.33.58,1.33.63,0,1.99-.88,3.96-3.66Zm.82-3.57c-.37,1.85-.7,2.74-1.28,3.62-.97,1.43-2.01,2.41-2.55,2.41-.2,0-.31-.22-.31-.68,0-1.09.48-3.08,1.07-4.44.41-.94.8-1.24,1.62-1.24.39,0,.7.07,1.45.32Z"/>
  <path d="m417.3,47.92l-.49,2.16c-.07.29-.1.6-.1.87,0,.37.15.6.41.6.39,0,1.09-.44,2.48-1.6l-.12-.36c-.41.34-.9.8-1.28.8-.15,0-.26-.15-.26-.39,0-.09,0-.14.02-.19l1.56-6.44-.17-.15-.56.31c-.7-.26-.99-.32-1.45-.32s-.82.09-1.28.31c-1.05.53-1.62,1.04-2.04,1.87-.75,1.51-1.28,3.55-1.28,4.88,0,.75.26,1.33.58,1.33.63,0,1.99-.88,3.96-3.66Zm.82-3.57c-.37,1.85-.7,2.74-1.28,3.62-.97,1.43-2.01,2.41-2.55,2.41-.2,0-.31-.22-.31-.68,0-1.09.48-3.08,1.07-4.44.41-.94.8-1.24,1.62-1.24.39,0,.7.07,1.45.32Z"/>
  <path d="m442.98,14.3h3.14c1.06,0,1.78-.71,1.78-1.46,0-.7-.66-1.3-1.54-1.39.78-.15,1.33-.66,1.33-1.26,0-.7-.74-1.35-1.78-1.35h-2.93v.25h.19c.62,0,.63.09.63.38v4.22c0,.29-.02.38-.63.38h-.19v.25Zm1.49-.57v-2.18h1.5c.79,0,1.13.74,1.13,1.28,0,.57-.42,1.22-1.24,1.22h-1c-.38,0-.39-.06-.39-.32Zm0-2.36v-1.97c0-.26.02-.32.39-.32h.99c.78,0,1.06.68,1.06,1.1,0,.51-.39,1.18-1.28,1.18h-1.16Zm4.11,2.93c.31,0,.69-.02.91-.02.32,0,.7,0,1.02.02v-.25h-.17c-.59,0-.61-.09-.61-.38v-1.23c0-.79.34-1.5.94-1.5.06,0,.07,0,.09,0-.02,0-.18.1-.18.31,0,.22.17.34.34.34.14,0,.34-.1.34-.35s-.25-.49-.59-.49c-.58,0-.87.54-.98.88v-.88l-1.11.09v.25c.56,0,.62.06.62.45v2.14c0,.36-.09.36-.62.36v.25Zm3.13-1.71c0,1.03.83,1.8,1.77,1.8s1.78-.78,1.78-1.8-.8-1.87-1.77-1.87-1.78.87-1.78,1.87Zm.66-.06c0-.31,0-.74.19-1.1.22-.37.59-.54.91-.54.35,0,.7.18.9.52s.21.81.21,1.11c0,.29,0,.72-.18,1.07-.18.36-.53.59-.93.59-.34,0-.7-.17-.91-.54-.2-.35-.2-.84-.2-1.13Zm3.45,1.02c0,.65.78.85,1.28.85s.9-.32,1.05-.7c.03.32.25.66.62.66.17,0,.66-.11.66-.76v-.45h-.2v.45c0,.46-.2.51-.29.51-.26,0-.3-.36-.3-.4v-1.6c0-.34,0-.65-.29-.94-.31-.31-.71-.44-1.1-.44-.66,0-1.21.38-1.21.9,0,.24.16.38.37.38.22,0,.37-.16.37-.37,0-.1-.04-.36-.41-.37.22-.28.61-.37.86-.37.39,0,.85.31.85,1.02v.3c-.41.02-.97.05-1.47.29-.6.27-.8.69-.8,1.04Zm.62,0c0-.44.34-1.1,1.66-1.15v.8c0,.76-.58,1.03-.94,1.03-.39,0-.72-.28-.72-.68Zm3.32-.95c0,1.02.78,1.81,1.7,1.81.51,0,.87-.27,1.07-.53v.53l1.18-.09v-.25c-.56,0-.62-.06-.62-.45v-4.86l-1.15.09v.25c.56,0,.62.06.62.45v1.73c-.23-.29-.58-.5-1.01-.5-.94,0-1.78.78-1.78,1.82Zm.66,0c0-.3.02-.78.25-1.14.17-.25.47-.51.9-.51.28,0,.62.12.86.48.09.14.09.15.09.3v1.64c0,.14,0,.16-.09.3-.24.38-.6.56-.94.56s-.65-.21-.84-.51c-.21-.33-.23-.78-.23-1.11Zm3.78-.02c0,1.02.79,1.82,1.72,1.82,1.07,0,1.33-.96,1.33-1.04s-.08-.08-.1-.08c-.07,0-.09.03-.1.08-.23.74-.75.84-1.05.84-.42,0-1.13-.34-1.13-1.63s.66-1.64,1.08-1.64c.07,0,.58,0,.86.3-.33.02-.38.26-.38.37,0,.21.14.37.37.37.21,0,.37-.14.37-.38,0-.54-.61-.86-1.22-.86-1,0-1.74.86-1.74,1.86Zm3.62.97c0,.65.78.85,1.28.85s.9-.32,1.05-.7c.03.32.25.66.62.66.17,0,.66-.11.66-.76v-.45h-.2v.45c0,.46-.2.51-.29.51-.26,0-.3-.36-.3-.4v-1.6c0-.34,0-.65-.29-.94-.31-.31-.71-.44-1.1-.44-.66,0-1.21.38-1.21.9,0,.24.16.38.37.38.22,0,.37-.16.37-.37,0-.1-.04-.36-.41-.37.22-.28.61-.37.86-.37.39,0,.85.31.85,1.02v.3c-.41.02-.97.05-1.47.29-.6.27-.8.69-.8,1.04Zm.62,0c0-.44.34-1.1,1.66-1.15v.8c0,.76-.58,1.03-.94,1.03-.39,0-.72-.28-.72-.68Zm3.31.66c0,.14,0,.19.09.19.04,0,.05,0,.2-.16.02-.02.02-.03.16-.18.35.34.71.34.88.34.92,0,1.29-.54,1.29-1.11,0-.42-.24-.66-.34-.76-.26-.26-.58-.32-.91-.38-.45-.09-.98-.19-.98-.66,0-.28.21-.61.9-.61.88,0,.92.72.94.97,0,.07.08.07.1.07.1,0,.1-.04.1-.19v-.81c0-.14,0-.19-.09-.19-.04,0-.06,0-.16.1-.02.03-.1.1-.14.13-.3-.22-.63-.22-.75-.22-.98,0-1.28.54-1.28.98,0,.28.13.5.34.68.26.21.48.26,1.06.37.18.03.83.16.83.74,0,.41-.28.73-.9.73-.67,0-.96-.46-1.11-1.14-.02-.1-.03-.14-.11-.14-.1,0-.1.06-.1.2v1.06Zm3.04-3.1h.68v2.21c0,.98.74,1.08,1.03,1.08.57,0,.79-.57.79-1.08v-.46h-.2v.44c0,.59-.24.9-.54.9-.54,0-.54-.73-.54-.86v-2.22h1.14v-.25h-1.14v-1.47h-.2c0,.66-.25,1.51-1.03,1.54v.18Zm3.18,1.44c0,1.07.84,1.85,1.76,1.85.98,0,1.34-.89,1.34-1.04,0-.08-.06-.1-.1-.1-.07,0-.09.05-.1.11-.28.82-1,.82-1.08.82-.4,0-.72-.24-.9-.54-.24-.38-.24-.91-.24-1.2h2.23c.18,0,.2,0,.2-.17,0-.79-.43-1.57-1.43-1.57-.93,0-1.66.82-1.66,1.82Zm.67-.26c.05-1.19.72-1.39.99-1.39.82,0,.9,1.08.9,1.39h-1.9Zm2.93.3c0,1.02.78,1.81,1.7,1.81.51,0,.87-.27,1.07-.53v.53l1.18-.09v-.25c-.56,0-.62-.06-.62-.45v-4.86l-1.15.09v.25c.56,0,.62.06.62.45v1.73c-.23-.29-.58-.5-1.01-.5-.94,0-1.78.78-1.78,1.82Zm.66,0c0-.3.02-.78.25-1.14.17-.25.47-.51.9-.51.28,0,.62.12.86.48.09.14.09.15.09.3v1.64c0,.14,0,.16-.09.3-.24.38-.6.56-.94.56s-.65-.21-.84-.51c-.21-.33-.23-.78-.23-1.11Z"/>
  <path d="m236.48,31.44v-.51l-.88-.05c-.94-.05-1.11-.24-1.11-1.12v-10.27l-4.1,1.73.12.85,2.55-1.12v8.81c0,.88-.19,1.07-1.11,1.12l-.95.05v.51q2.62-.05,2.81-.05c.53,0,2.4.05,2.67.05Z"/>
  <path d="m330.47,31.44v-.51l-.88-.05c-.94-.05-1.11-.24-1.11-1.12v-10.27l-4.1,1.73.12.85,2.55-1.12v8.81c0,.88-.19,1.07-1.11,1.12l-.95.05v.51q2.62-.05,2.81-.05c.53,0,2.4.05,2.67.05Z"/>
  <path d="m380.83,40.5v-1.44h-13.19v1.44h13.19Zm0,4.38v-1.44h-13.19v1.44h13.19Zm0,4.38v-1.44h-13.19v1.44h13.19Z"/>
  <path d="m124.91,29h5.88c1.99,0,3.34-1.33,3.34-2.74,0-1.3-1.23-2.43-2.89-2.61,1.45-.28,2.49-1.24,2.49-2.35,0-1.3-1.38-2.53-3.33-2.53h-5.49v.46h.36c1.15,0,1.18.16,1.18.7v7.9c0,.54-.03.7-1.18.7h-.36v.46Zm2.79-1.06v-4.09h2.82c1.48,0,2.11,1.39,2.11,2.4,0,1.06-.78,2.29-2.32,2.29h-1.87c-.7,0-.73-.1-.73-.6Zm0-4.42v-3.69c0-.49.03-.6.73-.6h1.86c1.45,0,1.98,1.27,1.98,2.07,0,.96-.73,2.22-2.4,2.22h-2.17Zm7.71,5.49c.58-.01,1.29-.04,1.71-.04.6,0,1.3,0,1.9.04v-.46h-.31c-1.11,0-1.14-.16-1.14-.7v-2.31c0-1.48.63-2.82,1.77-2.82.1,0,.13,0,.16.01-.04.01-.34.19-.34.58,0,.42.31.64.64.64.27,0,.64-.18.64-.66s-.46-.91-1.11-.91c-1.09,0-1.63,1-1.84,1.65v-1.65l-2.08.16v.46c1.05,0,1.17.1,1.17.84v4.02c0,.67-.16.67-1.17.67v.46Zm5.86-3.21c0,1.93,1.56,3.37,3.31,3.37s3.33-1.47,3.33-3.37-1.5-3.51-3.31-3.51-3.33,1.63-3.33,3.51Zm1.24-.12c0-.58,0-1.39.36-2.05.4-.69,1.11-1,1.71-1,.66,0,1.3.33,1.69.97s.39,1.51.39,2.08c0,.54,0,1.35-.33,2.01-.33.67-.99,1.11-1.74,1.11-.64,0-1.3-.31-1.71-1-.37-.66-.37-1.57-.37-2.11Zm6.46,1.9c0,1.21,1.45,1.59,2.4,1.59s1.68-.6,1.96-1.3c.06.6.46,1.23,1.17,1.23.31,0,1.23-.21,1.23-1.42v-.84h-.37v.84c0,.87-.37.96-.54.96-.49,0-.55-.67-.55-.75v-3c0-.63,0-1.21-.54-1.77-.58-.58-1.33-.82-2.05-.82-1.23,0-2.26.7-2.26,1.69,0,.45.3.7.69.7.42,0,.69-.3.69-.69,0-.18-.07-.67-.76-.69.4-.52,1.14-.69,1.62-.69.73,0,1.59.58,1.59,1.92v.55c-.76.04-1.81.09-2.76.54-1.12.51-1.5,1.29-1.5,1.95Zm1.15-.01c0-.82.63-2.07,3.1-2.16v1.5c0,1.42-1.08,1.93-1.75,1.93-.73,0-1.35-.52-1.35-1.27Zm6.22-1.78c0,1.9,1.47,3.39,3.18,3.39.96,0,1.63-.51,2.01-.99v.99l2.2-.16v-.46c-1.05,0-1.17-.1-1.17-.84v-9.1l-2.16.16v.46c1.05,0,1.17.1,1.17.84v3.24c-.43-.54-1.08-.93-1.89-.93-1.77,0-3.34,1.47-3.34,3.4Zm1.24.01c0-.55.03-1.45.46-2.13.31-.46.88-.96,1.69-.96.52,0,1.15.22,1.62.9.16.25.16.28.16.55v3.07c0,.27,0,.3-.16.55-.45.72-1.12,1.05-1.77,1.05s-1.21-.39-1.57-.96c-.39-.61-.43-1.47-.43-2.08Zm7.08-.03c0,1.92,1.48,3.4,3.22,3.4,2.01,0,2.49-1.8,2.49-1.95s-.15-.15-.19-.15c-.13,0-.16.06-.19.15-.43,1.39-1.41,1.57-1.96,1.57-.79,0-2.11-.64-2.11-3.06s1.23-3.07,2.02-3.07c.13,0,1.08.01,1.6.55-.61.04-.7.49-.7.69,0,.39.27.69.69.69.39,0,.69-.25.69-.7,0-1.02-1.14-1.6-2.29-1.6-1.87,0-3.25,1.62-3.25,3.48Zm6.78,1.81c0,1.21,1.45,1.59,2.4,1.59s1.68-.6,1.96-1.3c.06.6.46,1.23,1.17,1.23.31,0,1.23-.21,1.23-1.42v-.84h-.37v.84c0,.87-.37.96-.54.96-.49,0-.55-.67-.55-.75v-3c0-.63,0-1.21-.54-1.77-.58-.58-1.33-.82-2.05-.82-1.23,0-2.26.7-2.26,1.69,0,.45.3.7.69.7.42,0,.69-.3.69-.69,0-.18-.07-.67-.76-.69.4-.52,1.14-.69,1.62-.69.73,0,1.59.58,1.59,1.92v.55c-.76.04-1.81.09-2.76.54-1.12.51-1.5,1.29-1.5,1.95Zm1.15-.01c0-.82.63-2.07,3.1-2.16v1.5c0,1.42-1.08,1.93-1.75,1.93-.73,0-1.35-.52-1.35-1.27Zm6.21,1.24c0,.25,0,.36.16.36.07,0,.09-.01.37-.3.03-.03.03-.06.3-.34.66.63,1.33.64,1.65.64,1.72,0,2.41-1,2.41-2.08,0-.79-.45-1.24-.63-1.42-.49-.48-1.08-.6-1.71-.72-.84-.16-1.84-.36-1.84-1.23,0-.52.39-1.14,1.68-1.14,1.65,0,1.72,1.35,1.75,1.81.01.13.15.13.18.13.19,0,.19-.07.19-.36v-1.51c0-.25,0-.36-.16-.36-.07,0-.1,0-.3.18-.04.06-.19.19-.25.24-.57-.42-1.18-.42-1.41-.42-1.83,0-2.4,1-2.4,1.84,0,.52.24.94.64,1.27.48.39.9.48,1.98.69.33.06,1.56.3,1.56,1.38,0,.76-.52,1.36-1.69,1.36-1.26,0-1.8-.85-2.08-2.13-.04-.19-.06-.25-.21-.25-.19,0-.19.1-.19.37v1.98Zm5.7-5.8h1.27v4.14c0,1.84,1.39,2.02,1.93,2.02,1.06,0,1.48-1.06,1.48-2.02v-.85h-.37v.82c0,1.11-.45,1.68-1,1.68-1,0-1-1.36-1-1.62v-4.17h2.14v-.46h-2.14v-2.76h-.37c-.01,1.23-.46,2.83-1.93,2.89v.33Zm5.95,2.7c0,2.01,1.57,3.46,3.3,3.46,1.83,0,2.5-1.66,2.5-1.95,0-.15-.12-.18-.19-.18-.13,0-.16.09-.19.21-.52,1.54-1.87,1.54-2.02,1.54-.75,0-1.35-.45-1.69-1-.45-.72-.45-1.71-.45-2.25h4.18c.33,0,.37,0,.37-.31,0-1.48-.81-2.94-2.68-2.94-1.74,0-3.12,1.54-3.12,3.42Zm1.26-.48c.09-2.23,1.35-2.61,1.86-2.61,1.54,0,1.69,2.02,1.69,2.61h-3.55Zm5.49.55c0,1.9,1.47,3.39,3.18,3.39.96,0,1.63-.51,2.01-.99v.99l2.2-.16v-.46c-1.05,0-1.17-.1-1.17-.84v-9.1l-2.16.16v.46c1.05,0,1.17.1,1.17.84v3.24c-.43-.54-1.08-.93-1.89-.93-1.77,0-3.34,1.47-3.34,3.4Zm1.24.01c0-.55.03-1.45.46-2.13.31-.46.88-.96,1.69-.96.52,0,1.15.22,1.62.9.16.25.16.28.16.55v3.07c0,.27,0,.3-.16.55-.45.72-1.12,1.05-1.77,1.05s-1.21-.39-1.57-.96c-.39-.61-.43-1.47-.43-2.08Z"/>
</svg>