<?xml version="1.0" encoding="UTF-8"?>
<svg id="Layer_1" data-name="Layer 1" xmlns="http://www.w3.org/2000/svg" viewBox="0 0 475 165">
  <defs>
    <style>
      .cls-1 {
        stroke-dasharray: 0 0 6 6;
      }

      .cls-1, .cls-2, .cls-3 {
        fill: none;
        stroke: #000;
      }

      .cls-2 {
        stroke-dasharray: 0 0 1.12 3.35;
      }
    </style>
  </defs>
  <path class="cls-2" d="m389.53,56.92h50v100h-50V56.92Z"/>
  <path class="cls-2" d="m39.53,27.92h50v130h-50V27.92Z"/>
  <path class="cls-2" d="m299.53,6.92h60v140h-60V6.92Z"/>
  <path class="cls-3" d="m9.53,137.92h40"/>
  <path class="cls-3" d="m9.53,97.92h120"/>
  <path class="cls-3" d="m149.53,77.92h50"/>
  <path class="cls-3" d="m9.53,57.92h120"/>
  <path class="cls-1" d="m9.53,76.92h120"/>
  <path class="cls-3" d="m259.53,137.92h140"/>
  <path class="cls-3" d="m259.53,97.92h60"/>
  <path class="cls-3" d="m339.53,77.92h130"/>
  <path class="cls-3" d="m259.53,57.92h60"/>
  <path class="cls-1" d="m259.53,77.92h60"/>
  <g>
    <g>
      <path d="m61.27,128.59l-.24-.22c-1.06.53-1.8.71-3.26.86l-.08.43h.98c.49,0,.69.14.69.49,0,.16-.02.35-.04.49l-.98,5.47c-.29,1.53-.61,2.94-1.67,7.2l.18.2,1.37-.35.47-2.53c.18-.98.67-1.9,1.37-2.59,1.41,4.08,2.06,5.47,2.57,5.47.27,0,.75-.27,1.65-.9l.94-.65-.16-.39-.88.49c-.29.16-.43.2-.59.2-.2,0-.35-.12-.53-.47-.71-1.31-1.16-2.41-1.96-4.92l.29-.29c1.24-1.24,2.18-1.75,3.2-1.75.16,0,.39.04.73.12l.35-1.29c-.37-.12-.73-.18-.98-.18-1.35,0-3.04,1.57-5.59,5.14l2.18-10.04Z"/>
      <path d="m73.43,137.35l-.17-.16c-.74.37-1.26.5-2.28.6l-.06.3h.69c.34,0,.49.1.49.34,0,.11-.01.24-.03.34l-.4,2.2c-.43-.13-.81-.2-1.17-.2-.99,0-2.33,1.03-2.98,2.27-.44.83-.73,2.18-.73,3.38,0,.93.21,1.39.63,1.39.39,0,.91-.24,1.4-.63.77-.63,1.24-1.19,2.2-2.63l-.33,1.3c-.16.63-.23,1.09-.23,1.46,0,.3.13.47.37.47s.59-.17,1.07-.53l1.16-.86-.14-.27-.63.44c-.2.14-.43.24-.56.24-.11,0-.2-.13-.2-.33,0-.11.01-.24.11-.66l1.8-8.48Zm-5.27,9.47c-.23,0-.36-.2-.36-.56,0-1.8.66-4.03,1.36-4.57.19-.14.46-.21.84-.21.63,0,1.04.09,1.51.33l-.17.84c-.53,2.57-2.54,4.17-3.18,4.17Z"/>
    </g>
    <rect x="51.3" y="127.95" width="1" height="22.33"/>
    <polyline class="cls-3" points="76.8 127.95 83.83 139.11 76.8 150.28"/>
  </g>
  <path d="m142.38,70.92c1.88,0,3.21.34,4.58,1.22v2.06h.66c.12-1.4.32-2.45.66-3.57-2.03-.73-3.43-1-5.12-1-2.25,0-4.04.56-5.8,1.81-2.86,2.06-4.38,5.09-4.38,8.76,0,4.58,2.67,7.15,7.47,7.15,1.4.07,4.99-.59,6.19-1.35.49-3.82.59-4.38.61-4.46.05-.22.34-.47.66-.51l.78-.15.05-.69c-.95.1-1.81.12-3.06.12s-2.13-.02-3.16-.12l-.12.69.83.05c1.84.1,2.06.2,2.06.78,0,.37-.49,3.13-.61,3.72-1.1.59-2.06.81-3.38.81-4.06,0-6.17-2.28-6.17-6.61,0-3.57,1.44-8.71,7.25-8.71Z"/>
  <path d="m21.25,82.38l-.2-.19c-.88.44-1.5.6-2.72.71l-.07.36h.82c.41,0,.58.12.58.41,0,.12-.02.31-.03.41l-1.72,9.37c-.02.05-.02.12-.02.17,0,.66.82,1.22,1.75,1.22.63,0,1.5-.32,2.23-.85,1.63-1.16,2.75-3.49,2.75-5.73,0-.65-.15-1.31-.36-1.56-.12-.15-.34-.24-.6-.24-.41,0-.92.14-1.39.37-.87.46-1.43.97-2.48,2.31l1.46-6.77Zm1.48,5.07c.44,0,.66.39.66,1.22,0,1.09-.36,2.55-.87,3.66-.56,1.17-1.24,1.72-2.16,1.72-.78,0-1.21-.39-1.21-1.11,0-.58.26-2.98,1.63-4.42.56-.58,1.45-1.07,1.94-1.07Z"/>
  <path d="m25.46,122.38l-.2-.19c-.88.44-1.5.6-2.72.71l-.07.36h.82c.41,0,.58.12.58.41,0,.14-.02.29-.03.41l-.48,2.62c-.51-.15-.97-.24-1.39-.24-1.17,0-2.77,1.22-3.55,2.7-.53.99-.87,2.6-.87,4.03,0,1.11.26,1.65.75,1.65.46,0,1.09-.29,1.67-.75.92-.75,1.48-1.41,2.62-3.13l-.39,1.55c-.19.75-.27,1.29-.27,1.73,0,.36.15.56.44.56s.7-.2,1.28-.63l1.38-1.02-.17-.32-.75.53c-.24.17-.51.29-.66.29-.14,0-.24-.15-.24-.39,0-.14.02-.29.14-.78l2.14-10.1Zm-6.27,11.27c-.27,0-.43-.24-.43-.66,0-2.14.78-4.79,1.62-5.44.22-.17.54-.26,1-.26.75,0,1.24.1,1.8.39l-.2,1c-.63,3.06-3.03,4.96-3.79,4.96Z"/>
  <path d="m177.07,69.04h.39c.14-1.11.26-1.73.41-2.18-.41-.26-1-.41-1.63-.41-.77-.02-2.01.32-2.98,1.39-.92.82-1.58,2.7-1.58,4.49,0,1.63.71,2.5,2.07,2.5.92,0,1.73-.34,2.67-1.11l.85-.7-.14-.34-.26.17c-1.22.82-1.87,1.11-2.47,1.11-.95,0-1.45-.68-1.45-2.02,0-1.84.6-3.6,1.43-4.25.36-.27.77-.41,1.29-.41.77,0,1.38.32,1.38.73v1.02Z"/>
  <g>
    <path d="m301.48,16.38c.28-.02.91-.02,1.22-.02s.94,0,1.22.02v-.25h-.21c-.63,0-.66-.09-.66-.38v-4.22c0-.29.02-.38.66-.38h.21v-.25c-.28.02-.91.02-1.22.02s-.94,0-1.22-.02v.25h.21c.63,0,.66.09.66.38v4.22c0,.29-.02.38-.66.38h-.21v.25Zm2.92,0c.28,0,.69-.02.9-.02s.62.02.9.02v-.25c-.54,0-.62,0-.62-.36v-1.47c0-.83.57-1.28,1.08-1.28s.59.43.59.89v1.86c0,.36-.09.36-.62.36v.25c.28,0,.69-.02.9-.02s.62.02.9.02v-.25c-.42,0-.62,0-.62-.24v-1.53c0-.69,0-.94-.25-1.22-.11-.14-.38-.3-.84-.3-.58,0-.96.34-1.18.84v-.84l-1.13.09v.25c.56,0,.62.06.62.45v2.14c0,.36-.09.36-.62.36v.25Zm4.44,0c.28,0,.69-.02.9-.02s.62.02.9.02v-.25c-.54,0-.62,0-.62-.36v-1.47c0-.83.57-1.28,1.08-1.28s.59.43.59.89v1.86c0,.36-.09.36-.62.36v.25c.28,0,.69-.02.9-.02s.62.02.9.02v-.25c-.42,0-.62,0-.62-.24v-1.53c0-.69,0-.94-.25-1.22-.11-.14-.38-.3-.84-.3-.58,0-.96.34-1.18.84v-.84l-1.13.09v.25c.56,0,.62.06.62.45v2.14c0,.36-.09.36-.62.36v.25Zm4.41-1.76c0,1.07.84,1.85,1.76,1.85.98,0,1.34-.89,1.34-1.04,0-.08-.06-.1-.1-.1-.07,0-.09.05-.1.11-.28.82-1,.82-1.08.82-.4,0-.72-.24-.9-.54-.24-.38-.24-.91-.24-1.2h2.23c.18,0,.2,0,.2-.17,0-.79-.43-1.57-1.43-1.57-.93,0-1.66.82-1.66,1.82Zm.67-.26c.05-1.19.72-1.39.99-1.39.82,0,.9,1.08.9,1.39h-1.9Zm2.88,2.02c.31,0,.69-.02.91-.02.32,0,.7,0,1.02.02v-.25h-.17c-.59,0-.61-.09-.61-.38v-1.23c0-.79.34-1.5.94-1.5.06,0,.07,0,.09,0-.02,0-.18.1-.18.31,0,.22.17.34.34.34.14,0,.34-.1.34-.35s-.25-.49-.59-.49c-.58,0-.87.54-.98.88v-.88l-1.11.09v.25c.56,0,.62.06.62.45v2.14c0,.36-.09.36-.62.36v.25Z"/>
    <path d="m301.54,27.57h3.14c1.06,0,1.78-.71,1.78-1.46,0-.7-.66-1.3-1.54-1.39.78-.15,1.33-.66,1.33-1.26,0-.7-.74-1.35-1.78-1.35h-2.93v.25h.19c.62,0,.63.09.63.38v4.22c0,.29-.02.38-.63.38h-.19v.25Zm1.49-.57v-2.18h1.5c.79,0,1.13.74,1.13,1.28,0,.57-.42,1.22-1.24,1.22h-1c-.38,0-.39-.06-.39-.32Zm0-2.36v-1.97c0-.26.02-.32.39-.32h.99c.78,0,1.06.68,1.06,1.1,0,.51-.39,1.18-1.28,1.18h-1.16Zm4.11,2.93c.31,0,.69-.02.91-.02.32,0,.7,0,1.02.02v-.25h-.17c-.59,0-.61-.09-.61-.38v-1.23c0-.79.34-1.5.94-1.5.06,0,.07,0,.09,0-.02,0-.18.1-.18.31,0,.22.17.34.34.34.14,0,.34-.1.34-.35s-.25-.49-.59-.49c-.58,0-.87.54-.98.88v-.88l-1.11.09v.25c.56,0,.62.06.62.45v2.14c0,.36-.09.36-.62.36v.25Zm3.13-1.71c0,1.03.83,1.8,1.77,1.8s1.78-.78,1.78-1.8-.8-1.87-1.77-1.87-1.78.87-1.78,1.87Zm.66-.06c0-.31,0-.74.19-1.1.22-.37.59-.54.91-.54.35,0,.7.18.9.52s.21.81.21,1.11c0,.29,0,.72-.18,1.07-.18.36-.53.59-.93.59-.34,0-.7-.17-.91-.54-.2-.35-.2-.84-.2-1.13Zm3.45,1.02c0,.65.78.85,1.28.85s.9-.32,1.05-.7c.03.32.25.66.62.66.17,0,.66-.11.66-.76v-.45h-.2v.45c0,.46-.2.51-.29.51-.26,0-.3-.36-.3-.4v-1.6c0-.34,0-.65-.29-.94-.31-.31-.71-.44-1.1-.44-.66,0-1.21.38-1.21.9,0,.24.16.38.37.38.22,0,.37-.16.37-.37,0-.1-.04-.36-.41-.37.22-.28.61-.37.86-.37.39,0,.85.31.85,1.02v.3c-.41.02-.97.05-1.47.29-.6.27-.8.69-.8,1.04Zm.62,0c0-.44.34-1.1,1.66-1.15v.8c0,.76-.58,1.03-.94,1.03-.39,0-.72-.28-.72-.68Zm3.32-.95c0,1.02.78,1.81,1.7,1.81.51,0,.87-.27,1.07-.53v.53l1.18-.09v-.25c-.56,0-.62-.06-.62-.45v-4.86l-1.15.09v.25c.56,0,.62.06.62.45v1.73c-.23-.29-.58-.5-1.01-.5-.94,0-1.78.78-1.78,1.82Zm.66,0c0-.3.02-.78.25-1.14.17-.25.47-.51.9-.51.28,0,.62.12.86.48.09.14.09.15.09.3v1.64c0,.14,0,.16-.09.3-.24.38-.6.56-.94.56s-.65-.21-.84-.51c-.21-.33-.23-.78-.23-1.11Zm3.78-.02c0,1.02.79,1.82,1.72,1.82,1.07,0,1.33-.96,1.33-1.04s-.08-.08-.1-.08c-.07,0-.09.03-.1.08-.23.74-.75.84-1.05.84-.42,0-1.13-.34-1.13-1.63s.66-1.64,1.08-1.64c.07,0,.58,0,.86.3-.33.02-.38.26-.38.37,0,.21.14.37.37.37.21,0,.37-.14.37-.38,0-.54-.61-.86-1.22-.86-1,0-1.74.86-1.74,1.86Zm3.62.97c0,.65.78.85,1.28.85s.9-.32,1.05-.7c.03.32.25.66.62.66.17,0,.66-.11.66-.76v-.45h-.2v.45c0,.46-.2.51-.29.51-.26,0-.3-.36-.3-.4v-1.6c0-.34,0-.65-.29-.94-.31-.31-.71-.44-1.1-.44-.66,0-1.21.38-1.21.9,0,.24.16.38.37.38.22,0,.37-.16.37-.37,0-.1-.04-.36-.41-.37.22-.28.61-.37.86-.37.39,0,.85.31.85,1.02v.3c-.41.02-.97.05-1.47.29-.6.27-.8.69-.8,1.04Zm.62,0c0-.44.34-1.1,1.66-1.15v.8c0,.76-.58,1.03-.94,1.03-.39,0-.72-.28-.72-.68Zm3.31.66c0,.14,0,.19.09.19.04,0,.05,0,.2-.16.02-.02.02-.03.16-.18.35.34.71.34.88.34.92,0,1.29-.54,1.29-1.11,0-.42-.24-.66-.34-.76-.26-.26-.58-.32-.91-.38-.45-.09-.98-.19-.98-.66,0-.28.21-.61.9-.61.88,0,.92.72.94.97,0,.07.08.07.1.07.1,0,.1-.04.1-.19v-.81c0-.14,0-.19-.09-.19-.04,0-.06,0-.16.1-.02.03-.1.1-.14.13-.3-.22-.63-.22-.75-.22-.98,0-1.28.54-1.28.98,0,.28.13.5.34.68.26.21.48.26,1.06.37.18.03.83.16.83.74,0,.41-.28.73-.9.73-.67,0-.96-.46-1.11-1.14-.02-.1-.03-.14-.11-.14-.1,0-.1.06-.1.2v1.06Zm3.04-3.1h.68v2.21c0,.98.74,1.08,1.03,1.08.57,0,.79-.57.79-1.08v-.46h-.2v.44c0,.59-.24.9-.54.9-.54,0-.54-.73-.54-.86v-2.22h1.14v-.25h-1.14v-1.47h-.2c0,.66-.25,1.51-1.03,1.54v.18Zm3.18,1.44c0,1.07.84,1.85,1.76,1.85.98,0,1.34-.89,1.34-1.04,0-.08-.06-.1-.1-.1-.07,0-.09.05-.1.11-.28.82-1,.82-1.08.82-.4,0-.72-.24-.9-.54-.24-.38-.24-.91-.24-1.2h2.23c.18,0,.2,0,.2-.17,0-.79-.43-1.57-1.43-1.57-.93,0-1.66.82-1.66,1.82Zm.67-.26c.05-1.19.72-1.39.99-1.39.82,0,.9,1.08.9,1.39h-1.9Zm2.93.3c0,1.02.78,1.81,1.7,1.81.51,0,.87-.27,1.07-.53v.53l1.18-.09v-.25c-.56,0-.62-.06-.62-.45v-4.86l-1.15.09v.25c.56,0,.62.06.62.45v1.73c-.23-.29-.58-.5-1.01-.5-.94,0-1.78.78-1.78,1.82Zm.66,0c0-.3.02-.78.25-1.14.17-.25.47-.51.9-.51.28,0,.62.12.86.48.09.14.09.15.09.3v1.64c0,.14,0,.16-.09.3-.24.38-.6.56-.94.56s-.65-.21-.84-.51c-.21-.33-.23-.78-.23-1.11Z"/>
  </g>
  <path d="m21.86,51.18l-.49,2.16c-.07.29-.1.6-.1.87,0,.37.15.6.41.6.39,0,1.09-.44,2.48-1.6l-.12-.36c-.41.34-.9.8-1.28.8-.15,0-.26-.15-.26-.39,0-.09,0-.14.02-.19l1.56-6.44-.17-.15-.56.31c-.7-.26-.99-.32-1.45-.32s-.82.09-1.28.31c-1.05.53-1.62,1.04-2.04,1.87-.75,1.51-1.28,3.55-1.28,4.88,0,.75.26,1.33.58,1.33.63,0,1.99-.88,3.96-3.66Zm.82-3.57c-.37,1.85-.7,2.74-1.28,3.62-.97,1.43-2.01,2.41-2.55,2.41-.2,0-.31-.22-.31-.68,0-1.09.48-3.08,1.07-4.44.41-.94.8-1.24,1.62-1.24.39,0,.7.07,1.45.32Z"/>
  <path d="m332.38,70.92c1.88,0,3.21.34,4.58,1.22v2.06h.66c.12-1.4.32-2.45.66-3.57-2.03-.73-3.43-1-5.12-1-2.25,0-4.04.56-5.8,1.81-2.86,2.06-4.38,5.09-4.38,8.76,0,4.58,2.67,7.15,7.47,7.15,1.4.07,4.99-.59,6.19-1.35.49-3.82.59-4.38.61-4.46.05-.22.34-.47.66-.51l.78-.15.05-.69c-.95.1-1.81.12-3.06.12s-2.13-.02-3.16-.12l-.12.69.83.05c1.84.1,2.06.2,2.06.78,0,.37-.49,3.13-.61,3.72-1.1.59-2.06.81-3.38.81-4.06,0-6.17-2.28-6.17-6.61,0-3.57,1.44-8.71,7.25-8.71Z"/>
  <path d="m271.25,82.38l-.2-.19c-.88.44-1.5.6-2.72.71l-.07.36h.82c.41,0,.58.12.58.41,0,.12-.02.31-.03.41l-1.72,9.37c-.02.05-.02.12-.02.17,0,.66.82,1.22,1.75,1.22.63,0,1.5-.32,2.23-.85,1.63-1.16,2.75-3.49,2.75-5.73,0-.65-.15-1.31-.36-1.56-.12-.15-.34-.24-.6-.24-.41,0-.92.14-1.39.37-.87.46-1.43.97-2.48,2.31l1.46-6.77Zm1.48,5.07c.44,0,.66.39.66,1.22,0,1.09-.36,2.55-.87,3.66-.56,1.17-1.24,1.72-2.16,1.72-.78,0-1.21-.39-1.21-1.11,0-.58.26-2.98,1.63-4.42.56-.58,1.45-1.07,1.94-1.07Z"/>
  <path d="m275.46,122.38l-.2-.19c-.88.44-1.5.6-2.72.71l-.07.36h.82c.41,0,.58.12.58.41,0,.14-.02.29-.03.41l-.48,2.62c-.51-.15-.97-.24-1.39-.24-1.17,0-2.77,1.22-3.55,2.7-.53.99-.87,2.6-.87,4.03,0,1.11.26,1.65.75,1.65.46,0,1.09-.29,1.67-.75.92-.75,1.48-1.41,2.62-3.13l-.39,1.55c-.19.75-.27,1.29-.27,1.73,0,.36.15.56.44.56s.7-.2,1.28-.63l1.38-1.02-.17-.32-.75.53c-.24.17-.51.29-.66.29-.14,0-.24-.15-.24-.39,0-.14.02-.29.14-.78l2.14-10.1Zm-6.27,11.27c-.27,0-.43-.24-.43-.66,0-2.14.78-4.79,1.62-5.44.22-.17.54-.26,1-.26.75,0,1.24.1,1.8.39l-.2,1c-.63,3.06-3.03,4.96-3.79,4.96Z"/>
  <path d="m377.07,69.04h.39c.14-1.11.26-1.73.41-2.18-.41-.26-1-.41-1.63-.41-.77-.02-2.01.32-2.98,1.39-.92.82-1.58,2.7-1.58,4.49,0,1.63.71,2.5,2.07,2.5.92,0,1.73-.34,2.67-1.11l.85-.7-.14-.34-.26.17c-1.22.82-1.87,1.11-2.47,1.11-.95,0-1.45-.68-1.45-2.02,0-1.84.6-3.6,1.43-4.25.36-.27.77-.41,1.29-.41.77,0,1.38.32,1.38.73v1.02Z"/>
  <path d="m271.86,51.18l-.49,2.16c-.07.29-.1.6-.1.87,0,.37.15.6.41.6.39,0,1.09-.44,2.48-1.6l-.12-.36c-.41.34-.9.8-1.28.8-.15,0-.26-.15-.26-.39,0-.09,0-.14.02-.19l1.56-6.44-.17-.15-.56.31c-.7-.26-.99-.32-1.45-.32s-.82.09-1.28.31c-1.05.53-1.62,1.04-2.04,1.87-.75,1.51-1.28,3.55-1.28,4.88,0,.75.26,1.33.58,1.33.63,0,1.99-.88,3.96-3.66Zm.82-3.57c-.37,1.85-.7,2.74-1.28,3.62-.97,1.43-2.01,2.41-2.55,2.41-.2,0-.31-.22-.31-.68,0-1.09.48-3.08,1.07-4.44.41-.94.8-1.24,1.62-1.24.39,0,.7.07,1.45.32Z"/>
  <g>
    <g>
      <path d="m409.27,128.59l-.24-.22c-1.06.53-1.8.71-3.26.86l-.08.43h.98c.49,0,.69.14.69.49,0,.16-.02.35-.04.49l-.98,5.47c-.29,1.53-.61,2.94-1.67,7.2l.18.2,1.37-.35.47-2.53c.18-.98.67-1.9,1.37-2.59,1.41,4.08,2.06,5.47,2.57,5.47.27,0,.75-.27,1.65-.9l.94-.65-.16-.39-.88.49c-.29.16-.43.2-.59.2-.2,0-.35-.12-.53-.47-.71-1.31-1.16-2.41-1.96-4.92l.29-.29c1.24-1.24,2.18-1.75,3.2-1.75.16,0,.39.04.73.12l.35-1.29c-.37-.12-.73-.18-.98-.18-1.35,0-3.04,1.57-5.59,5.14l2.18-10.04Z"/>
      <path d="m421.43,137.35l-.17-.16c-.74.37-1.26.5-2.28.6l-.06.3h.69c.34,0,.49.1.49.34,0,.11-.01.24-.03.34l-.4,2.2c-.43-.13-.81-.2-1.17-.2-.99,0-2.33,1.03-2.98,2.27-.44.83-.73,2.18-.73,3.38,0,.93.21,1.39.63,1.39.39,0,.91-.24,1.4-.63.77-.63,1.24-1.19,2.2-2.63l-.33,1.3c-.16.63-.23,1.09-.23,1.46,0,.3.13.47.37.47s.59-.17,1.07-.53l1.16-.86-.14-.27-.63.44c-.2.14-.43.24-.56.24-.11,0-.2-.13-.2-.33,0-.11.01-.24.11-.66l1.8-8.48Zm-5.27,9.47c-.23,0-.36-.2-.36-.56,0-1.8.66-4.03,1.36-4.57.19-.14.46-.21.84-.21.63,0,1.04.09,1.51.33l-.17.84c-.53,2.57-2.54,4.17-3.18,4.17Z"/>
    </g>
    <rect x="399.3" y="127.95" width="1" height="22.33"/>
    <polyline class="cls-3" points="424.8 127.95 431.83 139.11 424.8 150.28"/>
  </g>
  <path d="m379.46,122.38l-.2-.19c-.88.44-1.5.6-2.72.71l-.07.36h.82c.41,0,.58.12.58.41,0,.14-.02.29-.03.41l-.48,2.62c-.51-.15-.97-.24-1.39-.24-1.17,0-2.77,1.22-3.55,2.7-.53.99-.87,2.6-.87,4.03,0,1.11.26,1.65.75,1.65.46,0,1.09-.29,1.67-.75.92-.75,1.48-1.41,2.62-3.13l-.39,1.55c-.19.75-.27,1.29-.27,1.73,0,.36.15.56.44.56s.7-.2,1.28-.63l1.38-1.02-.17-.32-.75.53c-.24.17-.51.29-.66.29-.14,0-.24-.15-.24-.39,0-.14.02-.29.14-.78l2.14-10.1Zm-6.27,11.27c-.27,0-.43-.24-.43-.66,0-2.14.78-4.79,1.62-5.44.22-.17.54-.26,1-.26.75,0,1.24.1,1.8.39l-.2,1c-.63,3.06-3.03,4.96-3.79,4.96Z"/>
  <path d="m238.38,93.91v-1.44h-13.19v1.44h13.19Zm0,5.21v-1.44h-13.19v1.44h13.19Z"/>
  <path d="m42.53,37.38c.28-.02.87-.02,1.18-.02s.9,0,1.18.02v-.25h-.19c-.62,0-.63-.09-.63-.38v-1.9h1.35c.96,0,1.82-.65,1.82-1.45s-.79-1.49-1.89-1.49h-2.82v.25h.19c.62,0,.63.09.63.38v4.22c0,.29-.02.38-.63.38h-.19v.25Zm1.51-2.74v-2.16c0-.26.02-.32.39-.32h.71c1.27,0,1.27.85,1.27,1.24s0,1.24-1.27,1.24h-1.1Zm3.87,2.74c.31,0,.69-.02.91-.02.32,0,.7,0,1.02.02v-.25h-.17c-.59,0-.61-.09-.61-.38v-1.23c0-.79.34-1.5.94-1.5.06,0,.07,0,.09,0-.02,0-.18.1-.18.31,0,.22.17.34.34.34.14,0,.34-.1.34-.35s-.25-.49-.59-.49c-.58,0-.87.54-.98.88v-.88l-1.11.09v.25c.56,0,.62.06.62.45v2.14c0,.36-.09.36-.62.36v.25Zm3.13-1.71c0,1.03.83,1.8,1.77,1.8s1.78-.78,1.78-1.8-.8-1.87-1.77-1.87-1.78.87-1.78,1.87Zm.66-.06c0-.31,0-.74.19-1.1.22-.37.59-.54.91-.54.35,0,.7.18.9.52s.21.81.21,1.11c0,.29,0,.72-.18,1.07-.18.36-.53.59-.93.59-.34,0-.7-.17-.91-.54-.2-.35-.2-.84-.2-1.13Zm4.39-3.15c0,.23.19.42.42.42s.42-.19.42-.42-.19-.42-.42-.42-.42.19-.42.42Zm-1.15,5.93c0,.42.45.64.9.64.6,0,1.1-.51,1.1-1.24v-3.94l-1.22.09v.25c.62,0,.69.06.69.45v3.17c0,.36-.07,1.05-.58,1.05-.04,0-.22,0-.43-.1.12-.03.28-.14.28-.36s-.14-.37-.37-.37-.37.16-.37.37Zm2.98-2.76c0,1.07.84,1.85,1.76,1.85.98,0,1.34-.89,1.34-1.04,0-.08-.06-.1-.1-.1-.07,0-.09.05-.1.11-.28.82-1,.82-1.08.82-.4,0-.72-.24-.9-.54-.24-.38-.24-.91-.24-1.2h2.23c.18,0,.2,0,.2-.17,0-.79-.43-1.57-1.43-1.57-.93,0-1.66.82-1.66,1.82Zm.67-.26c.05-1.19.72-1.39.99-1.39.82,0,.9,1.08.9,1.39h-1.9Zm2.93.29c0,1.02.79,1.82,1.72,1.82,1.07,0,1.33-.96,1.33-1.04s-.08-.08-.1-.08c-.07,0-.09.03-.1.08-.23.74-.75.84-1.05.84-.42,0-1.13-.34-1.13-1.63s.66-1.64,1.08-1.64c.07,0,.58,0,.86.3-.33.02-.38.26-.38.37,0,.21.14.37.37.37.21,0,.37-.14.37-.38,0-.54-.61-.86-1.22-.86-1,0-1.74.86-1.74,1.86Zm3.43-1.47h.68v2.21c0,.98.74,1.08,1.03,1.08.57,0,.79-.57.79-1.08v-.46h-.2v.44c0,.59-.24.9-.54.9-.54,0-.54-.73-.54-.86v-2.22h1.14v-.25h-1.14v-1.47h-.2c0,.66-.25,1.51-1.03,1.54v.18Zm3.55-1.73c0,.22.18.42.42.42.22,0,.42-.17.42-.42s-.2-.42-.42-.42c-.25,0-.42.22-.42.42Zm-.34,4.93c.26,0,.69-.02.88-.02.28,0,.56.02.83.02v-.25c-.53,0-.56-.04-.56-.35v-2.94l-1.12.09v.25c.52,0,.59.05.59.44v2.15c0,.36-.09.36-.62.36v.25Zm2.18-1.71c0,1.03.83,1.8,1.77,1.8s1.78-.78,1.78-1.8-.8-1.87-1.77-1.87-1.78.87-1.78,1.87Zm.66-.06c0-.31,0-.74.19-1.1.22-.37.59-.54.91-.54.35,0,.7.18.9.52s.21.81.21,1.11c0,.29,0,.72-.18,1.07-.18.36-.53.59-.93.59-.34,0-.7-.17-.91-.54-.2-.35-.2-.84-.2-1.13Zm3.37,1.78c.28,0,.69-.02.9-.02s.62.02.9.02v-.25c-.54,0-.62,0-.62-.36v-1.47c0-.83.57-1.28,1.08-1.28s.59.43.59.89v1.86c0,.36-.09.36-.62.36v.25c.28,0,.69-.02.9-.02s.62.02.9.02v-.25c-.42,0-.62,0-.62-.24v-1.53c0-.69,0-.94-.25-1.22-.11-.14-.38-.3-.84-.3-.58,0-.96.34-1.18.84v-.84l-1.13.09v.25c.56,0,.62.06.62.45v2.14c0,.36-.09.36-.62.36v.25Zm4.45-.1c0,.14,0,.19.09.19.04,0,.05,0,.2-.16.02-.02.02-.03.16-.18.35.34.71.34.88.34.92,0,1.29-.54,1.29-1.11,0-.42-.24-.66-.34-.76-.26-.26-.58-.32-.91-.38-.45-.09-.98-.19-.98-.66,0-.28.21-.61.9-.61.88,0,.92.72.94.97,0,.07.08.07.1.07.1,0,.1-.04.1-.19v-.81c0-.14,0-.19-.09-.19-.04,0-.06,0-.16.1-.02.03-.1.1-.14.13-.3-.22-.63-.22-.75-.22-.98,0-1.28.54-1.28.98,0,.28.13.5.34.68.26.21.48.26,1.06.37.18.03.83.16.83.74,0,.41-.28.73-.9.73-.67,0-.96-.46-1.11-1.14-.02-.1-.03-.14-.11-.14-.1,0-.1.06-.1.2v1.06Z"/>
  <path d="m101.25,82.38l-.2-.19c-.88.44-1.5.6-2.72.71l-.07.36h.82c.41,0,.58.12.58.41,0,.12-.02.31-.03.41l-1.72,9.37c-.02.05-.02.12-.02.17,0,.66.82,1.22,1.75,1.22.63,0,1.5-.32,2.23-.85,1.63-1.16,2.75-3.49,2.75-5.73,0-.65-.15-1.31-.36-1.56-.12-.15-.34-.24-.6-.24-.41,0-.92.14-1.39.37-.87.46-1.43.97-2.48,2.31l1.46-6.77Zm1.48,5.07c.44,0,.66.39.66,1.22,0,1.09-.36,2.55-.87,3.66-.56,1.17-1.24,1.72-2.16,1.72-.78,0-1.21-.39-1.21-1.11,0-.58.26-2.98,1.63-4.42.56-.58,1.45-1.07,1.94-1.07Z"/>
  <path d="m101.86,51.18l-.49,2.16c-.07.29-.1.6-.1.87,0,.37.15.6.41.6.39,0,1.09-.44,2.48-1.6l-.12-.36c-.41.34-.9.8-1.28.8-.15,0-.26-.15-.26-.39,0-.09,0-.14.02-.19l1.56-6.44-.17-.15-.56.31c-.7-.26-.99-.32-1.45-.32s-.82.09-1.28.31c-1.05.53-1.62,1.04-2.04,1.87-.75,1.51-1.28,3.55-1.28,4.88,0,.75.26,1.33.58,1.33.63,0,1.99-.88,3.96-3.66Zm.82-3.57c-.37,1.85-.7,2.74-1.28,3.62-.97,1.43-2.01,2.41-2.55,2.41-.2,0-.31-.22-.31-.68,0-1.09.48-3.08,1.07-4.44.41-.94.8-1.24,1.62-1.24.39,0,.7.07,1.45.32Z"/>
  <path d="m391.53,65.38c.28-.02.87-.02,1.18-.02s.9,0,1.18.02v-.25h-.19c-.62,0-.63-.09-.63-.38v-1.9h1.35c.96,0,1.82-.65,1.82-1.45s-.79-1.49-1.89-1.49h-2.82v.25h.19c.62,0,.63.09.63.38v4.22c0,.29-.02.38-.63.38h-.19v.25Zm1.51-2.74v-2.16c0-.26.02-.32.39-.32h.71c1.27,0,1.27.85,1.27,1.24s0,1.24-1.27,1.24h-1.1Zm3.87,2.74c.31,0,.69-.02.91-.02.32,0,.7,0,1.02.02v-.25h-.17c-.59,0-.61-.09-.61-.38v-1.23c0-.79.34-1.5.94-1.5.06,0,.07,0,.09,0-.02,0-.18.1-.18.31,0,.22.17.34.34.34.14,0,.34-.1.34-.35s-.25-.49-.59-.49c-.58,0-.87.54-.98.88v-.88l-1.11.09v.25c.56,0,.62.06.62.45v2.14c0,.36-.09.36-.62.36v.25Zm3.13-1.71c0,1.03.83,1.8,1.77,1.8s1.78-.78,1.78-1.8-.8-1.87-1.77-1.87-1.78.87-1.78,1.87Zm.66-.06c0-.31,0-.74.19-1.1.22-.37.59-.54.91-.54.35,0,.7.18.9.52s.21.81.21,1.11c0,.29,0,.72-.18,1.07-.18.36-.53.59-.93.59-.34,0-.7-.17-.91-.54-.2-.35-.2-.84-.2-1.13Zm4.39-3.15c0,.23.19.42.42.42s.42-.19.42-.42-.19-.42-.42-.42-.42.19-.42.42Zm-1.15,5.93c0,.42.45.64.9.64.6,0,1.1-.51,1.1-1.24v-3.94l-1.22.09v.25c.62,0,.69.06.69.45v3.17c0,.36-.07,1.05-.58,1.05-.04,0-.22,0-.43-.1.12-.03.28-.14.28-.36s-.14-.37-.37-.37-.37.16-.37.37Zm2.98-2.76c0,1.07.84,1.85,1.76,1.85.98,0,1.34-.89,1.34-1.04,0-.08-.06-.1-.1-.1-.07,0-.09.05-.1.11-.28.82-1,.82-1.08.82-.4,0-.72-.24-.9-.54-.24-.38-.24-.91-.24-1.2h2.23c.18,0,.2,0,.2-.17,0-.79-.43-1.57-1.43-1.57-.93,0-1.66.82-1.66,1.82Zm.67-.26c.05-1.19.72-1.39.99-1.39.82,0,.9,1.08.9,1.39h-1.9Zm2.93.29c0,1.02.79,1.82,1.72,1.82,1.07,0,1.33-.96,1.33-1.04s-.08-.08-.1-.08c-.07,0-.09.03-.1.08-.23.74-.75.84-1.05.84-.42,0-1.13-.34-1.13-1.63s.66-1.64,1.08-1.64c.07,0,.58,0,.86.3-.33.02-.38.26-.38.37,0,.21.14.37.37.37.21,0,.37-.14.37-.38,0-.54-.61-.86-1.22-.86-1,0-1.74.86-1.74,1.86Zm3.43-1.47h.68v2.21c0,.98.74,1.08,1.03,1.08.57,0,.79-.57.79-1.08v-.46h-.2v.44c0,.59-.24.9-.54.9-.54,0-.54-.73-.54-.86v-2.22h1.14v-.25h-1.14v-1.47h-.2c0,.66-.25,1.51-1.03,1.54v.18Zm3.55-1.73c0,.22.18.42.42.42.22,0,.42-.17.42-.42s-.2-.42-.42-.42c-.25,0-.42.22-.42.42Zm-.34,4.93c.26,0,.69-.02.88-.02.28,0,.56.02.83.02v-.25c-.53,0-.56-.04-.56-.35v-2.94l-1.12.09v.25c.52,0,.59.05.59.44v2.15c0,.36-.09.36-.62.36v.25Zm2.18-1.71c0,1.03.83,1.8,1.77,1.8s1.78-.78,1.78-1.8-.8-1.87-1.77-1.87-1.78.87-1.78,1.87Zm.66-.06c0-.31,0-.74.19-1.1.22-.37.59-.54.91-.54.35,0,.7.18.9.52s.21.81.21,1.11c0,.29,0,.72-.18,1.07-.18.36-.53.59-.93.59-.34,0-.7-.17-.91-.54-.2-.35-.2-.84-.2-1.13Zm3.37,1.78c.28,0,.69-.02.9-.02s.62.02.9.02v-.25c-.54,0-.62,0-.62-.36v-1.47c0-.83.57-1.28,1.08-1.28s.59.43.59.89v1.86c0,.36-.09.36-.62.36v.25c.28,0,.69-.02.9-.02s.62.02.9.02v-.25c-.42,0-.62,0-.62-.24v-1.53c0-.69,0-.94-.25-1.22-.11-.14-.38-.3-.84-.3-.58,0-.96.34-1.18.84v-.84l-1.13.09v.25c.56,0,.62.06.62.45v2.14c0,.36-.09.36-.62.36v.25Zm4.45-.1c0,.14,0,.19.09.19.04,0,.05,0,.2-.16.02-.02.02-.03.16-.18.35.34.71.34.88.34.92,0,1.29-.54,1.29-1.11,0-.42-.24-.66-.34-.76-.26-.26-.58-.32-.91-.38-.45-.09-.98-.19-.98-.66,0-.28.21-.61.9-.61.88,0,.92.72.94.97,0,.07.08.07.1.07.1,0,.1-.04.1-.19v-.81c0-.14,0-.19-.09-.19-.04,0-.06,0-.16.1-.02.03-.1.1-.14.13-.3-.22-.63-.22-.75-.22-.98,0-1.28.54-1.28.98,0,.28.13.5.34.68.26.21.48.26,1.06.37.18.03.83.16.83.74,0,.41-.28.73-.9.73-.67,0-.96-.46-1.11-1.14-.02-.1-.03-.14-.11-.14-.1,0-.1.06-.1.2v1.06Z"/>
</svg>