<?xml version="1.0" encoding="UTF-8"?>
<svg id="Layer_1" data-name="Layer 1" xmlns="http://www.w3.org/2000/svg" xmlns:xlink="http://www.w3.org/1999/xlink" viewBox="0 0 440 275">
  <defs>
    <style>
      .cls-1 {
        stroke-dasharray: 0 0 7.5 6;
        stroke-width: 2px;
      }

      .cls-1, .cls-2, .cls-3, .cls-4, .cls-5, .cls-6, .cls-7, .cls-8, .cls-9, .cls-10, .cls-11, .cls-12, .cls-13, .cls-14, .cls-15, .cls-16, .cls-17 {
        fill: none;
      }

      .cls-1, .cls-18, .cls-19, .cls-20, .cls-21, .cls-12, .cls-17, .cls-22 {
        stroke: #000;
      }

      .cls-2 {
        clip-path: url(#clippath-4);
      }

      .cls-3 {
        clip-path: url(#clippath-2);
      }

      .cls-4 {
        clip-path: url(#clippath-6);
      }

      .cls-5 {
        clip-path: url(#clippath-9);
      }

      .cls-23, .cls-24, .cls-25 {
        fill: #fdf9c0;
      }

      .cls-18 {
        stroke-width: 1px;
      }

      .cls-18, .cls-24 {
        stroke-miterlimit: 4;
      }

      .cls-24 {
        stroke-width: 3px;
      }

      .cls-24, .cls-25, .cls-14 {
        stroke: #fdf9c0;
      }

      .cls-25 {
        stroke-width: 3px;
      }

      .cls-25, .cls-22 {
        stroke-miterlimit: 4;
      }

      .cls-6 {
        clip-path: url(#clippath-7);
      }

      .cls-7 {
        clip-path: url(#clippath-10);
      }

      .cls-19 {
        stroke-miterlimit: 4;
        stroke-width: 1px;
      }

      .cls-8 {
        clip-path: url(#clippath-5);
      }

      .cls-20 {
        stroke-miterlimit: 4;
        stroke-width: 1px;
      }

      .cls-9 {
        clip-path: url(#clippath-3);
      }

      .cls-10 {
        clip-path: url(#clippath-11);
      }

      .cls-21 {
        stroke-miterlimit: 10;
        stroke-width: .59px;
      }

      .cls-12 {
        stroke-dasharray: 0 0 1.12 3.35;
      }

      .cls-13 {
        clip-path: url(#clippath);
      }

      .cls-14 {
        stroke-width: 3px;
      }

      .cls-15 {
        clip-path: url(#clippath-1);
      }

      .cls-16 {
        clip-path: url(#clippath-8);
      }

      .cls-22 {
        stroke-width: 1px;
      }
    </style>
    <clipPath id="clippath">
      <rect class="cls-11" x="119.79" y="55.94" width="9" height="6.5"/>
    </clipPath>
    <clipPath id="clippath-1">
      <rect class="cls-11" x="119.79" y="55.94" width="17.5" height="20.9"/>
    </clipPath>
    <clipPath id="clippath-2">
      <rect class="cls-11" x="119.79" y="115.94" width="9" height="6.5"/>
    </clipPath>
    <clipPath id="clippath-3">
      <rect class="cls-11" x="119.79" y="115.94" width="17.5" height="20.9"/>
    </clipPath>
    <clipPath id="clippath-4">
      <rect class="cls-11" x="119.79" y="175.94" width="9" height="6.5"/>
    </clipPath>
    <clipPath id="clippath-5">
      <rect class="cls-11" x="119.79" y="175.94" width="17.5" height="20.9"/>
    </clipPath>
    <clipPath id="clippath-6">
      <rect class="cls-11" x="415.79" y="175.94" width="9" height="6.5"/>
    </clipPath>
    <clipPath id="clippath-7">
      <rect class="cls-11" x="415.79" y="175.94" width="17.5" height="20.9"/>
    </clipPath>
    <clipPath id="clippath-8">
      <rect class="cls-11" x="9.79" y="55.94" width="9" height="6.5"/>
    </clipPath>
    <clipPath id="clippath-9">
      <rect class="cls-11" x="9.79" y="55.94" width="17.5" height="20.9"/>
    </clipPath>
    <clipPath id="clippath-10">
      <rect class="cls-11" x="9.79" y="115.94" width="9" height="6.5"/>
    </clipPath>
    <clipPath id="clippath-11">
      <rect class="cls-11" x="9.79" y="115.94" width="17.5" height="20.9"/>
    </clipPath>
  </defs>
  <g>
    <polygon class="cls-12" points="362.72 39.72 362.72 189.72 327.72 224.72 217.72 224.72 217.72 39.72 362.72 39.72"/>
    <path class="cls-23" d="m237.72,234.72h90v30h-90v-30Z"/>
    <g>
      <path class="cls-17" d="m267.72,119.72h17"/>
      <path d="m277,124.87l10.72-5.15-10.72-5.15,3.6,5.15-3.6,5.15Z"/>
    </g>
    <path class="cls-17" d="m127.72,94.72h10"/>
    <path class="cls-17" d="m117.72,94.72h25"/>
    <path class="cls-17" d="m132.72,74.72h90"/>
    <path class="cls-17" d="m172.72,94.72h50"/>
    <path class="cls-17" d="m7.72,154.72h135"/>
    <path class="cls-17" d="m7.72,134.72h215"/>
    <path class="cls-17" d="m172.72,154.72h50"/>
    <path class="cls-1" d="m7.72,104.72h115l20,20h110"/>
    <path class="cls-17" d="m117.72,194.72h205"/>
    <path class="cls-17" d="m172.72,214.72h180"/>
    <path class="cls-1" d="m82.72,164.72h40l20,20h175"/>
    <g>
      <path class="cls-11" d="m252.72,134.72h0c8.28,0,15-6.72,15-15s-6.72-15-15-15h0v30Z"/>
      <path class="cls-17" d="m252.72,134.72h0c8.28,0,15-6.72,15-15s-6.72-15-15-15h0"/>
    </g>
    <path class="cls-17" d="m222.72,134.72c18.27.77,10.93,19.43,30,20"/>
    <path class="cls-17" d="m222.72,154.72c18.27.77,10.93-20.57,30-20"/>
    <path class="cls-17" d="m252.72,154.72h35"/>
    <g>
      <path class="cls-11" d="m322.72,194.72h0c11.05,0,20-8.95,20-20s-8.95-20-20-20v40Z"/>
      <path class="cls-17" d="m322.72,194.72h0c11.05,0,20-8.95,20-20s-8.95-20-20-20"/>
    </g>
    <path class="cls-17" d="m307.72,154.72h15"/>
    <path class="cls-17" d="m222.72,94.72c18.27.77,10.93,9.43,30,10"/>
    <path class="cls-17" d="m117.72,214.72h25"/>
    <path class="cls-17" d="m382.72,214.72h50"/>
    <path class="cls-17" d="m222.72,74.72c139,.23,118.5,119.61,160,120"/>
    <path class="cls-17" d="m382.72,194.72h50"/>
    <path class="cls-17" d="m7.72,74.72h125"/>
    <path class="cls-17" d="m7.72,94.72h110"/>
    <g>
      <path class="cls-17" d="m67.72,154.72c19.24-.57-.76,61.44,50,60"/>
      <circle class="cls-20" cx="67.72" cy="154.72" r="3.35"/>
    </g>
    <g>
      <path class="cls-17" d="m67.72,134.72c35.43-.57,14.95,60.1,50,60"/>
      <circle class="cls-19" cx="67.72" cy="134.72" r="3.35"/>
    </g>
    <path class="cls-17" d="m287.72,154.72l20-14.06v28.12l-20-14.06Z"/>
    <g>
      <path class="cls-14" d="m172.72,114.72h70"/>
      <g>
        <g>
          <path class="cls-14" d="m242.72,114.72c24.5.23,12,60.23,25,60"/>
          <circle class="cls-25" cx="267.72" cy="174.72" r="5.36"/>
        </g>
        <path class="cls-14" d="m172.72,174.72h135"/>
        <path class="cls-14" d="m172.72,234.72h180"/>
        <g>
          <path class="cls-14" d="m307.72,174.72c23.6.1,3.27,59.71,20,60"/>
          <circle class="cls-24" cx="327.72" cy="234.72" r="5.36"/>
        </g>
      </g>
    </g>
    <path class="cls-17" d="m172.72,114.72h70"/>
    <g>
      <path class="cls-17" d="m242.72,114.72c24.5.23,12,60.23,25,60"/>
      <circle class="cls-22" cx="267.72" cy="174.72" r="3.35"/>
    </g>
    <path class="cls-17" d="m172.72,174.72h135"/>
    <path class="cls-17" d="m172.72,234.72h180"/>
    <g>
      <path class="cls-17" d="m307.72,174.72c23.6.1,3.27,59.71,20,60"/>
      <circle class="cls-18" cx="327.72" cy="234.72" r="3.35"/>
    </g>
  </g>
  <g>
    <path d="m120.17,74.5c-.02.12-.02.22-.02.31,0,.73.63,1.33,1.39,1.33,1.8,0,3.67-2.11,4.68-5.25l2.4-7.48-.19-.15c-.49.19-.88.29-1.26.32l-.6,2.24c-.2.8-.8,2.04-1.36,2.87-.6.87-1.43,1.62-1.8,1.62-.2,0-.36-.39-.34-.82l.27-3.52c.03-.53.07-1.17.07-1.65,0-.77-.12-1.07-.41-1.07-.22,0-.46.12-1.28.68l-1.39.95.19.31.85-.51c.09-.05.27-.2.43-.2.24,0,.37.32.37.88,0,.02,0,.12-.02.26l-.29,4.13-.02.68c0,.71.31,1.21.73,1.21.63,0,2.06-1.45,3.33-3.37l-.83,2.91c-.87,3.01-1.72,4.25-2.91,4.25-.6,0-1.05-.46-1.05-1.05,0-.09.02-.22.03-.37l-.17-.07-.82.58Z"/>
    <g class="cls-13">
      <g class="cls-15">
        <path d="m105.38,60.01h46.82v-1.02h-46.82v1.02Z"/>
      </g>
    </g>
  </g>
  <path d="m129.86,89.69l-.44.29c-.49.32-.87.51-1.04.51-.12,0-.22-.15-.22-.34,0-.17.03-.32.12-.68l1.28-5.05c.07-.29.12-.56.12-.7,0-.29-.17-.48-.44-.48-.49,0-1.14.31-2.18,1.04-1.07.77-1.67,1.36-2.5,2.53l.51-2.33c.07-.34.12-.6.12-.71,0-.32-.17-.53-.44-.53-.51,0-1.29.37-2.23,1.09-.75.58-1.09.94-2.19,2.43l.56-2.26c.07-.27.1-.53.1-.73,0-.32-.15-.53-.39-.53-.36,0-1,.36-2.26,1.26l-.48.34.12.34c.63-.39,1.22-.78,1.34-.78.19,0,.31.17.31.43,0,.87-.7,4.15-1.39,6.58l.05.19,1.16-.26.37-1.73c.41-1.89.87-2.89,1.8-3.91.71-.78,1.48-1.29,1.96-1.29.12,0,.19.14.19.36,0,.6-.37,2.53-1.07,5.51l-.27,1.14.09.19,1.17-.26.36-1.82c.27-1.38.85-2.65,1.6-3.49.94-1.04,1.79-1.63,2.33-1.63.14,0,.22.15.22.43,0,.41-.05.65-.43,2.13-.68,2.7-.95,3.06-.95,3.96,0,.43.19.68.51.68.44,0,1.05-.36,2.72-1.6l-.17-.31Z"/>
  <path d="m130.36,150.69l-.44.29c-.49.32-.87.51-1.04.51-.12,0-.22-.15-.22-.34,0-.17.03-.32.12-.68l1.28-5.05c.07-.29.12-.56.12-.7,0-.29-.17-.48-.44-.48-.49,0-1.14.31-2.18,1.04-1.07.77-1.67,1.36-2.5,2.53l.51-2.33c.07-.34.12-.6.12-.71,0-.32-.17-.53-.44-.53-.51,0-1.29.37-2.23,1.09-.75.58-1.09.94-2.19,2.43l.56-2.26c.07-.27.1-.53.1-.73,0-.32-.15-.53-.39-.53-.36,0-1,.36-2.26,1.26l-.48.34.12.34c.63-.39,1.22-.78,1.34-.78.19,0,.31.17.31.43,0,.87-.7,4.15-1.39,6.58l.05.19,1.16-.26.37-1.73c.41-1.89.87-2.89,1.8-3.91.71-.78,1.48-1.29,1.96-1.29.12,0,.19.14.19.36,0,.6-.37,2.53-1.07,5.51l-.27,1.14.09.19,1.17-.26.36-1.82c.27-1.38.85-2.65,1.6-3.49.94-1.04,1.79-1.63,2.33-1.63.14,0,.22.15.22.43,0,.41-.05.65-.43,2.13-.68,2.7-.95,3.06-.95,3.96,0,.43.19.68.51.68.44,0,1.05-.36,2.72-1.6l-.17-.31Z"/>
  <g>
    <path d="m120.44,131.43c.26.14.53.2.73.2.56,0,1.22-.49,1.75-1.29l1.29-1.99.19,1.17c.22,1.45.61,2.11,1.22,2.11.37,0,.92-.29,1.46-.78l.83-.75-.15-.32c-.61.51-1.04.77-1.31.77-.26,0-.48-.17-.65-.51-.15-.32-.34-.95-.43-1.45l-.31-1.72.6-.83c.8-1.11,1.26-1.5,1.79-1.5.27,0,.48.14.56.39l.24-.07.26-1.45c-.2-.12-.36-.17-.51-.17-.68,0-1.36.61-2.41,2.18l-.63.94-.1-.82c-.2-1.68-.66-2.3-1.67-2.3-.44,0-.82.14-.97.36l-.99,1.41.29.17c.51-.58.85-.82,1.17-.82.56,0,.94.7,1.22,2.36l.19,1.05-.68,1.05c-.73,1.14-1.31,1.68-1.79,1.68-.26,0-.44-.07-.48-.15l-.19-.48-.34.05c0,.6-.14,1.04-.2,1.48Z"/>
    <g class="cls-3">
      <g class="cls-9">
        <path d="m105.38,120.01h46.82v-1.02h-46.82v1.02Z"/>
      </g>
    </g>
  </g>
  <path d="m129.86,209.69l-.44.29c-.49.32-.87.51-1.04.51-.12,0-.22-.15-.22-.34,0-.17.03-.32.12-.68l1.28-5.05c.07-.29.12-.56.12-.7,0-.29-.17-.48-.44-.48-.49,0-1.14.31-2.18,1.04-1.07.77-1.67,1.36-2.5,2.53l.51-2.33c.07-.34.12-.6.12-.71,0-.32-.17-.53-.44-.53-.51,0-1.29.37-2.23,1.09-.75.58-1.09.94-2.19,2.43l.56-2.26c.07-.27.1-.53.1-.73,0-.32-.15-.53-.39-.53-.36,0-1,.36-2.26,1.26l-.48.34.12.34c.63-.39,1.22-.78,1.34-.78.19,0,.31.17.31.43,0,.87-.7,4.15-1.39,6.58l.05.19,1.16-.26.37-1.73c.41-1.89.87-2.89,1.8-3.91.71-.78,1.48-1.29,1.96-1.29.12,0,.19.14.19.36,0,.6-.37,2.53-1.07,5.51l-.27,1.14.09.19,1.17-.26.36-1.82c.27-1.38.85-2.65,1.6-3.49.94-1.04,1.79-1.63,2.33-1.63.14,0,.22.15.22.43,0,.41-.05.65-.43,2.13-.68,2.7-.95,3.06-.95,3.96,0,.43.19.68.51.68.44,0,1.05-.36,2.72-1.6l-.17-.31Z"/>
  <g>
    <path d="m120.44,191.43c.26.14.53.2.73.2.56,0,1.22-.49,1.75-1.29l1.29-1.99.19,1.17c.22,1.45.61,2.11,1.22,2.11.37,0,.92-.29,1.46-.78l.83-.75-.15-.32c-.61.51-1.04.77-1.31.77-.26,0-.48-.17-.65-.51-.15-.32-.34-.95-.43-1.45l-.31-1.72.6-.83c.8-1.11,1.26-1.5,1.79-1.5.27,0,.48.14.56.39l.24-.07.26-1.45c-.2-.12-.36-.17-.51-.17-.68,0-1.36.61-2.41,2.18l-.63.94-.1-.82c-.2-1.68-.66-2.3-1.67-2.3-.44,0-.82.14-.97.36l-.99,1.41.29.17c.51-.58.85-.82,1.17-.82.56,0,.94.7,1.22,2.36l.19,1.05-.68,1.05c-.73,1.14-1.31,1.68-1.79,1.68-.26,0-.44-.07-.48-.15l-.19-.48-.34.05c0,.6-.14,1.04-.2,1.48Z"/>
    <g class="cls-2">
      <g class="cls-8">
        <path d="m105.38,180.01h46.82v-1.02h-46.82v1.02Z"/>
      </g>
    </g>
  </g>
  <g>
    <path class="cls-21" d="m158.28,110.49c.17-1.05.27-1.84.51-4.21h-.78c-.15.71-.69,2.69-.83,2.82-.22.2-2.35.32-4.63.32-.95,0-1.93-.02-2.82-.07v-12.78c0-1.93.12-2.13,1.25-2.2l1.18-.07v-.73c-1.79.07-2.33.07-3.6.07s-1.81-.02-3.57-.07v.73l1.18.07c1.13.07,1.25.27,1.25,2.2v11.6c0,.71-.22,1.25-.61,1.44l-.76.39v.56c1.62-.07,1.79-.07,2.42-.07.56,0,3.43.07,5.7.07q.78,0,4.11-.07Z"/>
    <path d="m163.39,104.53c0-1.32.41-1.94,1.32-1.94.5,0,.98.14,1.65.5l2.48,1.3c1.03.53,1.34.63,2.02.63,1.29,0,1.9-.74,2.07-2.4h-.43c-.1.93-.48,1.35-1.17,1.35-.29,0-.62-.09-1.06-.26l-4.04-1.65c-.43-.17-.74-.24-1.13-.24-1.27,0-2.14.87-2.14,2.18,0,.03,0,.15.02.29l.41.22Zm10.23-10.23c0-3.05-1.78-4.82-4.87-4.82-4.06,0-7.04,3.14-7.04,7.44,0,3.24,1.61,4.97,4.63,4.97,4.66,0,7.28-3.86,7.28-7.59Zm-1.51.27c0,3.22-1.53,6.6-5.14,6.6-2.47,0-3.75-1.47-3.75-4.34,0-2.54.99-6.63,5-6.63,1.99,0,3.89.93,3.89,4.37Z"/>
  </g>
  <path d="m203.53,79.17l-.2-.19c-.88.44-1.5.6-2.72.71l-.07.36h.82c.41,0,.58.12.58.41,0,.14-.02.29-.03.41l-.82,4.56c-.24,1.28-.51,2.45-1.39,6l.15.17,1.14-.29.39-2.11c.15-.82.56-1.58,1.14-2.16,1.17,3.4,1.72,4.56,2.14,4.56.22,0,.63-.22,1.38-.75l.78-.54-.14-.32-.73.41c-.24.14-.36.17-.49.17-.17,0-.29-.1-.44-.39-.6-1.09-.97-2.01-1.63-4.1l.24-.24c1.04-1.04,1.82-1.46,2.67-1.46.14,0,.32.03.61.1l.29-1.07c-.31-.1-.61-.15-.82-.15-1.12,0-2.53,1.31-4.66,4.28l1.82-8.36Z"/>
  <g>
    <path class="cls-21" d="m160.28,170.49c.17-1.05.27-1.84.51-4.21h-.78c-.15.71-.69,2.69-.83,2.82-.22.2-2.35.32-4.63.32-.95,0-1.93-.02-2.82-.07v-12.78c0-1.93.12-2.13,1.25-2.2l1.18-.07v-.73c-1.79.07-2.33.07-3.6.07s-1.81-.02-3.57-.07v.73l1.18.07c1.13.07,1.25.27,1.25,2.2v11.6c0,.71-.22,1.25-.61,1.44l-.76.39v.56c1.62-.07,1.79-.07,2.42-.07.56,0,3.43.07,5.7.07q.78,0,4.11-.07Z"/>
    <path d="m169.16,150.2l.05-.48h-.41l-1.54.05c-.27,0-.58,0-1.32-.02l-1.1-.03-.05.48.81.03c.41.02.6.15.6.46,0,.24-.05.74-.15,1.3l-1.25,7.44c-.29,1.58-.31,1.59-.99,1.66l-.7.05-.07.48.72-.02c.82-.02,1.22-.03,1.54-.03l1.66.05h.45l.05-.48-.84-.05c-.46-.03-.62-.15-.62-.5,0-.1.02-.29.03-.36l.74-4.49c2.57,2.93,2.96,3.43,4.76,5.88l1.18-.05c.62.02.72.03,1.17.05v-.51h-.34c-.39,0-.74-.21-1.1-.65l-4.22-5.18,5-4.68c.27-.26.63-.43.93-.43h.36v-.46l-.39.02c-.36.02-.63.03-.77.03-.17,0-.45-.02-.81-.03l-.34-.02v.5c0,.14-.17.36-.65.84-.75.77-3.65,3.62-4.75,4.47l.77-4.46c.12-.65.24-.77.87-.82l.72-.05Z"/>
  </g>
  <path d="m203.53,139.17l-.2-.19c-.88.44-1.5.6-2.72.71l-.07.36h.82c.41,0,.58.12.58.41,0,.14-.02.29-.03.41l-.82,4.56c-.24,1.28-.51,2.45-1.39,6l.15.17,1.14-.29.39-2.11c.15-.82.56-1.58,1.14-2.16,1.17,3.4,1.72,4.56,2.14,4.56.22,0,.63-.22,1.38-.75l.78-.54-.14-.32-.73.41c-.24.14-.36.17-.49.17-.17,0-.29-.1-.44-.39-.6-1.09-.97-2.01-1.63-4.1l.24-.24c1.04-1.04,1.82-1.46,2.67-1.46.14,0,.32.03.61.1l.29-1.07c-.31-.1-.61-.15-.82-.15-1.12,0-2.53,1.31-4.66,4.28l1.82-8.36Z"/>
  <g>
    <path class="cls-21" d="m159.28,230.49c.17-1.05.27-1.84.51-4.21h-.78c-.15.71-.69,2.69-.83,2.82-.22.2-2.35.32-4.63.32-.95,0-1.93-.02-2.82-.07v-12.78c0-1.93.12-2.13,1.25-2.2l1.18-.07v-.73c-1.79.07-2.33.07-3.6.07s-1.81-.02-3.57-.07v.73l1.18.07c1.13.07,1.25.27,1.25,2.2v11.6c0,.71-.22,1.25-.61,1.44l-.76.39v.56c1.62-.07,1.79-.07,2.42-.07.56,0,3.43.07,5.7.07q.78,0,4.11-.07Z"/>
    <path d="m167.11,219.93l-1.22-9.05c-.03-.38.03-.63.72-.65l.72-.03v-.48l-.7.02c-.63.02-1.11.03-1.42.03s-.79-.02-1.42-.03l-.7-.02v.48l.43.03c.75.05.89.19,1.01.82l1.51,10.66h.84l6.48-10.61c.43-.69.57-.81,1.06-.87l.31-.03v-.48l-.51.02c-.46.02-.86.03-1.13.03-.17,0-.63-.02-1.34-.03l-.79-.02v.48l.45.03c.65.05.98.22.98.55,0,.19-.07.38-.27.72l-4.99,8.43Z"/>
  </g>
  <path d="m203.53,199.17l-.2-.19c-.88.44-1.5.6-2.72.71l-.07.36h.82c.41,0,.58.12.58.41,0,.14-.02.29-.03.41l-.82,4.56c-.24,1.28-.51,2.45-1.39,6l.15.17,1.14-.29.39-2.11c.15-.82.56-1.58,1.14-2.16,1.17,3.4,1.72,4.56,2.14,4.56.22,0,.63-.22,1.38-.75l.78-.54-.14-.32-.73.41c-.24.14-.36.17-.49.17-.17,0-.29-.1-.44-.39-.6-1.09-.97-2.01-1.63-4.1l.24-.24c1.04-1.04,1.82-1.46,2.67-1.46.14,0,.32.03.61.1l.29-1.07c-.31-.1-.61-.15-.82-.15-1.12,0-2.53,1.31-4.66,4.28l1.82-8.36Z"/>
  <path d="m203.46,159.17l-.2-.19c-.77.37-1.46.61-2.72.71l-.07.36h.82c.31,0,.58.05.58.39,0,.1,0,.26-.03.43l-.71,3.98c-.34,1.97-1.05,5.24-1.5,6.56l.12.19,1.17-.27c.14-.97.37-2.67,1.05-3.89.77-1.38,2.52-3.03,3.23-3.03.19,0,.37.12.37.36,0,.31-.09.87-.26,1.53l-.87,3.33c-.1.37-.22.88-.22,1.29s.17.68.53.68c.54,0,1.7-.85,2.7-1.6l-.17-.31-.44.29c-.39.26-.83.51-1.04.51-.12,0-.22-.15-.22-.34,0-.2.05-.43.12-.68l1.09-4.35c.1-.44.19-.87.19-1.28,0-.29-.1-.6-.54-.6-.6,0-1.9.77-3.06,1.84-.56.53-1,1.12-1.48,1.72l-.07-.03,1.63-7.6Z"/>
  <path d="m203.46,99.17l-.2-.19c-.77.37-1.46.61-2.72.71l-.07.36h.82c.31,0,.58.05.58.39,0,.1,0,.26-.03.43l-.71,3.98c-.34,1.97-1.05,5.24-1.5,6.56l.12.19,1.17-.27c.14-.97.37-2.67,1.05-3.89.77-1.38,2.52-3.03,3.23-3.03.19,0,.37.12.37.36,0,.31-.09.87-.26,1.53l-.87,3.33c-.1.37-.22.88-.22,1.29s.17.68.53.68c.54,0,1.7-.85,2.7-1.6l-.17-.31-.44.29c-.39.26-.83.51-1.04.51-.12,0-.22-.15-.22-.34,0-.2.05-.43.12-.68l1.09-4.35c.1-.44.19-.87.19-1.28,0-.29-.1-.6-.54-.6-.6,0-1.9.77-3.06,1.84-.56.53-1,1.12-1.48,1.72l-.07-.03,1.63-7.6Z"/>
  <g>
    <path class="cls-21" d="m368.28,230.49c.17-1.05.27-1.84.51-4.21h-.78c-.15.71-.69,2.69-.83,2.82-.22.2-2.35.32-4.63.32-.95,0-1.93-.02-2.82-.07v-12.78c0-1.93.12-2.13,1.25-2.2l1.18-.07v-.73c-1.79.07-2.33.07-3.6.07s-1.81-.02-3.57-.07v.73l1.18.07c1.13.07,1.25.27,1.25,2.2v11.6c0,.71-.22,1.25-.61,1.44l-.76.39v.56c1.62-.07,1.79-.07,2.42-.07.56,0,3.43.07,5.7.07q.78,0,4.11-.07Z"/>
    <path d="m383.62,214.3c0-3.05-1.78-4.82-4.87-4.82-4.06,0-7.04,3.14-7.04,7.44,0,3.24,1.61,4.97,4.63,4.97,4.66,0,7.28-3.86,7.28-7.59Zm-1.51.27c0,3.22-1.53,6.6-5.14,6.6-2.47,0-3.75-1.47-3.75-4.34,0-2.54.99-6.63,5-6.63,1.99,0,3.89.93,3.89,4.37Z"/>
  </g>
  <path d="m338.53,199.17l-.2-.19c-.88.44-1.5.6-2.72.71l-.07.36h.82c.41,0,.58.12.58.41,0,.14-.02.29-.03.41l-.82,4.56c-.24,1.28-.51,2.45-1.39,6l.15.17,1.14-.29.39-2.11c.15-.82.56-1.58,1.14-2.16,1.17,3.4,1.72,4.56,2.14,4.56.22,0,.63-.22,1.38-.75l.78-.54-.14-.32-.73.41c-.24.14-.36.17-.49.17-.17,0-.29-.1-.44-.39-.6-1.09-.97-2.01-1.63-4.1l.24-.24c1.04-1.04,1.82-1.46,2.67-1.46.14,0,.32.03.61.1l.29-1.07c-.31-.1-.61-.15-.82-.15-1.12,0-2.53,1.31-4.66,4.28l1.82-8.36Z"/>
  <path d="m338.46,219.17l-.2-.19c-.77.37-1.46.61-2.72.71l-.07.36h.82c.31,0,.58.05.58.39,0,.1,0,.26-.03.43l-.71,3.98c-.34,1.97-1.05,5.24-1.5,6.56l.12.19,1.17-.27c.14-.97.37-2.67,1.05-3.89.77-1.38,2.52-3.03,3.23-3.03.19,0,.37.12.37.36,0,.31-.09.87-.26,1.53l-.87,3.33c-.1.37-.22.88-.22,1.29s.17.68.53.68c.54,0,1.7-.85,2.7-1.6l-.17-.31-.44.29c-.39.26-.83.51-1.04.51-.12,0-.22-.15-.22-.34,0-.2.05-.43.12-.68l1.09-4.35c.1-.44.19-.87.19-1.28,0-.29-.1-.6-.54-.6-.6,0-1.9.77-3.06,1.84-.56.53-1,1.12-1.48,1.72l-.07-.03,1.63-7.6Z"/>
  <g>
    <path d="m416.17,194.5c-.02.12-.02.22-.02.31,0,.73.63,1.33,1.39,1.33,1.8,0,3.67-2.11,4.68-5.25l2.4-7.48-.19-.15c-.49.19-.88.29-1.26.32l-.6,2.24c-.2.8-.8,2.04-1.36,2.87-.6.87-1.43,1.62-1.8,1.62-.2,0-.36-.39-.34-.82l.27-3.52c.03-.53.07-1.17.07-1.65,0-.77-.12-1.07-.41-1.07-.22,0-.46.12-1.28.68l-1.39.95.19.31.85-.51c.09-.05.27-.2.43-.2.24,0,.37.32.37.88,0,.02,0,.12-.02.26l-.29,4.13-.02.68c0,.71.31,1.21.73,1.21.63,0,2.06-1.45,3.33-3.37l-.83,2.91c-.87,3.01-1.72,4.25-2.91,4.25-.6,0-1.05-.46-1.05-1.05,0-.09.02-.22.03-.37l-.17-.07-.82.58Z"/>
    <g class="cls-4">
      <g class="cls-6">
        <path d="m401.38,180.01h46.82v-1.02h-46.82v1.02Z"/>
      </g>
    </g>
  </g>
  <path d="m424.86,209.69l-.44.29c-.49.32-.87.51-1.04.51-.12,0-.22-.15-.22-.34,0-.17.03-.32.12-.68l1.28-5.05c.07-.29.12-.56.12-.7,0-.29-.17-.48-.44-.48-.49,0-1.14.31-2.18,1.04-1.07.77-1.67,1.36-2.5,2.53l.51-2.33c.07-.34.12-.6.12-.71,0-.32-.17-.53-.44-.53-.51,0-1.29.37-2.23,1.09-.75.58-1.09.94-2.19,2.43l.56-2.26c.07-.27.1-.53.1-.73,0-.32-.15-.53-.39-.53-.36,0-1,.36-2.26,1.26l-.48.34.12.34c.63-.39,1.22-.78,1.34-.78.19,0,.31.17.31.43,0,.87-.7,4.15-1.39,6.58l.05.19,1.16-.26.37-1.73c.41-1.89.87-2.89,1.8-3.91.71-.78,1.48-1.29,1.96-1.29.12,0,.19.14.19.36,0,.6-.37,2.53-1.07,5.51l-.27,1.14.09.19,1.17-.26.36-1.82c.27-1.38.85-2.65,1.6-3.49.94-1.04,1.79-1.63,2.33-1.63.14,0,.22.15.22.43,0,.41-.05.65-.43,2.13-.68,2.7-.95,3.06-.95,3.96,0,.43.19.68.51.68.44,0,1.05-.36,2.72-1.6l-.17-.31Z"/>
  <path d="m60.44,119.97c0,2.88,1.96,5.53,4.92,5.53,1.26,0,1.86-.19,2.91-.82l-.09-1.05c-.75.48-1.26.91-2.8.91-2.05,0-3.58-2.04-3.58-4.57s1.53-4.57,3.54-4.57c1.18,0,1.81.34,2.55.79l.22-1.24c-1.33-.49-2.01-.51-2.97-.51-2.14,0-4.69,2.13-4.69,5.53Zm9.04,1.89c0,2.04,1.57,3.48,3.28,3.48s3.3-1.42,3.3-3.46c0-1.87-1.38-3.61-3.3-3.61-1.77,0-3.28,1.56-3.28,3.6Zm1.17-.15c0-1.81,1.15-2.52,2.11-2.52s2.11.69,2.11,2.52-1.11,2.67-2.11,2.67-2.11-.78-2.11-2.67Zm7.09,6.39h1.17v-3.61c.49.46,1.14.85,2.02.85,1.45,0,2.79-1.41,2.79-3.52,0-1.78-.94-3.46-2.37-3.46-.51,0-1.53.1-2.49.88v-.73h-1.12v9.6Zm1.17-4.81v-3.12c.09-.1.6-.85,1.59-.85,1.23,0,2.04,1.21,2.04,2.53,0,1.59-1.12,2.58-2.17,2.58-.88,0-1.45-.78-1.45-1.14Zm5.16-4.78l2.8,6.4c.06.12.07.18.07.25,0,.06-.01.13-.06.24-.64,1.56-.76,2.01-1.39,2.01-.25,0-.58-.09-1.09-.25l.07.97c.36.09.81.12,1.09.12.69,0,1.12-.34,1.72-1.72l3.25-8.02h-1.12c-.99,2.46-1.96,4.9-1.99,5.92-.13-.85-.13-1.26-2.17-5.92h-1.18Z"/>
  <path d="m203.46,219.17l-.2-.19c-.77.37-1.46.61-2.72.71l-.07.36h.82c.31,0,.58.05.58.39,0,.1,0,.26-.03.43l-.71,3.98c-.34,1.97-1.05,5.24-1.5,6.56l.12.19,1.17-.27c.14-.97.37-2.67,1.05-3.89.77-1.38,2.52-3.03,3.23-3.03.19,0,.37.12.37.36,0,.31-.09.87-.26,1.53l-.87,3.33c-.1.37-.22.88-.22,1.29s.17.68.53.68c.54,0,1.7-.85,2.7-1.6l-.17-.31-.44.29c-.39.26-.83.51-1.04.51-.12,0-.22-.15-.22-.34,0-.2.05-.43.12-.68l1.09-4.35c.1-.44.19-.87.19-1.28,0-.29-.1-.6-.54-.6-.6,0-1.9.77-3.06,1.84-.56.53-1,1.12-1.48,1.72l-.07-.03,1.63-7.6Z"/>
  <g>
    <path d="m272.02,112.09l-2,.83-.08.14.55.78h.15l1.62-1.35.28,2.17.15.06,1.04-.4v-.15l-1.04-1.87,2.11.31.14-.12v-.95l-.09-.06-2.13.37,1.06-1.91-.05-.23-.95-.29-.14.06-.4,2.19-1.45-1.5h-.15l-.67.8.05.15,2,.98Zm10.85-6.96l-.18-.17c-.8.4-1.35.54-2.45.64l-.06.32h.73c.37,0,.52.11.52.37,0,.12-.02.26-.03.37l-.73,4.1c-.21,1.15-.46,2.2-1.25,5.4l.14.15,1.03-.26.35-1.9c.14-.73.5-1.42,1.03-1.94,1.06,3.06,1.55,4.1,1.93,4.1.2,0,.57-.2,1.24-.67l.7-.49-.12-.29-.66.37c-.21.12-.32.15-.44.15-.15,0-.26-.09-.4-.35-.54-.98-.87-1.81-1.47-3.69l.21-.21c.93-.93,1.64-1.32,2.4-1.32.12,0,.29.03.55.09l.26-.96c-.28-.09-.55-.14-.73-.14-1.01,0-2.28,1.18-4.19,3.86l1.64-7.53Z"/>
    <path d="m293.18,106.82v-.6h-5.4v.6h5.4Zm5.01,2.63v-.32l-.56-.03c-.59-.03-.7-.15-.7-.71v-6.47l-2.58,1.09.07.54,1.61-.71v5.55c0,.56-.12.67-.7.71l-.6.03v.32q1.65-.03,1.77-.03c.33,0,1.51.03,1.68.03Zm4.05-7.68h-.59l-2.99,9.46h.59l2.99-9.46Zm.05,7.4v.28c2,0,2-.03,2.39-.03s.39.03,2.45.03v-.91c-1.23.05-1.72.01-3.71.05l1.95-2.07c1.04-1.1,1.36-1.69,1.36-2.5,0-1.23-.84-1.99-2.2-1.99-.77,0-1.3.21-1.82.75l-.18,1.46h.31l.14-.49c.17-.62.56-.89,1.27-.89.92,0,1.51.58,1.51,1.49,0,.8-.45,1.6-1.66,2.88l-1.82,1.94Z"/>
  </g>
  <g>
    <path d="m235.04,53.49c.85.54,1.85.93,3.09.93,1.85,0,3.05-1.39,3.05-2.85,0-1.35-.95-2.24-1.81-2.61-.49-.2-1.63-.41-2.03-.57-.59-.24-1.08-.78-1.08-1.44,0-.8.73-1.59,1.96-1.59,1.11,0,1.67.38,2.3.86l.19-1.12c-.7-.38-1.38-.65-2.47-.65-1.9,0-3.05,1.35-3.05,2.66,0,1.4,1.12,2.27,2.08,2.52,1.17.31,1.35.32,1.67.45.69.28,1.16.9,1.16,1.62,0,.88-.74,1.78-1.97,1.78-1.34,0-2.24-.61-2.89-1.12l-.2,1.12Zm7.37-2.38c0,1.73,1.27,3.16,2.93,3.16.93,0,1.59-.3,2.2-.69l-.07-.9c-.43.3-1.07.73-2.12.73-1.13,0-1.89-.99-1.89-2.3,0-1.17.59-2.35,1.9-2.35,1.07,0,1.42.28,1.94.62l.16-.89c-.82-.47-1.26-.59-2.09-.59-1.89,0-2.97,1.65-2.97,3.21Zm6.12,1.49c0,.62.41,1.67,1.54,1.67,1.49,0,2.23-.61,2.24-.62v.47h1.03v-4.12c-.07-1.13-.96-2.11-2.24-2.11-.85,0-1.47.22-2.12.59l.08.9c.45-.31,1.01-.69,2.03-.69.18,0,.53.01.85.41.34.41.34.86.35,1.24v.46c-1.39.01-3.75.35-3.75,1.78Zm.99-.01c0-.85,1.8-1.05,2.77-1.07v.85c0,.88-.93,1.07-1.51,1.07-.73,0-1.26-.36-1.26-.85Zm5.99,1.54h1.01v-9.75h-1.01v9.75Zm2.59-3.05c0,1.67,1.17,3.2,2.94,3.2.85,0,1.55-.3,2.13-.69l-.08-.89c-.59.43-1.2.74-2.05.74-1.03,0-1.94-.89-2-2.28h4.19v-.39c-.12-2.31-1.44-2.86-2.4-2.86-1.43,0-2.73,1.36-2.73,3.17Zm1.01-.66c.15-.66.69-1.67,1.71-1.67.39,0,1.4.18,1.63,1.67h-3.35Zm5,.73c0,1.61.95,3.13,2.32,3.13.89,0,1.54-.41,2-.85v.7h1.07v-9.75h-1.03v4.33c-.47-.38-1.11-.74-1.96-.74-1.34,0-2.4,1.39-2.4,3.17Zm1.05-.01c0-1.77,1.17-2.32,1.96-2.32h.03c.15,0,.58.01,1,.41.24.23.28.31.28.53v2.58c0,.42-.63,1.12-1.44,1.12-.73,0-1.82-.53-1.82-2.31Zm11.23,3h3.35c.22,0,.43,0,.65-.03,1.9-.22,3.71-1.98,3.71-4.59,0-1.62-.73-3.24-2.07-4.12-.86-.57-1.59-.63-2.32-.63h-3.32v9.37Zm1.17-.76v-7.86h1.93c2.27,0,3.43,1.84,3.43,4.01,0,.93-.23,1.86-.8,2.61-.93,1.23-2.2,1.24-2.63,1.24h-1.93Zm7.7-2.23c0,1.84,1.42,3.13,2.96,3.13s2.97-1.28,2.97-3.12c0-1.69-1.24-3.25-2.97-3.25-1.59,0-2.96,1.4-2.96,3.24Zm1.05-.14c0-1.63,1.04-2.27,1.9-2.27s1.9.62,1.9,2.27-1,2.4-1.9,2.4-1.9-.7-1.9-2.4Zm5.54-2.09h1.13v3.63c0,1.49.66,1.73,1.11,1.73.61,0,1.3-.14,2-.51l-.22-.8c-.19.14-.61.45-1.19.45-.7,0-.73-.8-.73-1.17v-3.32h1.9v-.8h-1.9v-1.7h-.95v1.7h-1.16v.8Zm4.77,2.61h3.59v-.8h-3.59v.8Zm5.64,2.61h1.22v-3.9h1.58c.15,0,.3.01.45.01,2.3,0,3.33-1.53,3.33-2.77,0-.88-.49-1.67-1.31-2.19-.69-.43-1.35-.53-2.08-.53h-3.19v9.37Zm1.17-4.68v-3.93h1.8c2.09,0,2.51,1.27,2.51,1.96,0,.78-.51,1.97-2.51,1.97h-1.8Zm7.26,4.68h1.01v-2.78c0-1.97,1.5-2.43,2.3-2.46v-.9c-1.43.03-2.15.95-2.36,1.28v-1.22h-.95v6.08Zm3.93-2.98c0,1.84,1.42,3.13,2.96,3.13s2.97-1.28,2.97-3.12c0-1.69-1.24-3.25-2.97-3.25-1.59,0-2.96,1.4-2.96,3.24Zm1.05-.14c0-1.63,1.04-2.27,1.9-2.27s1.9.62,1.9,2.27-1,2.4-1.9,2.4-1.9-.7-1.9-2.4Zm6.14.14c0,1.61.95,3.13,2.32,3.13.89,0,1.54-.41,2-.85v.7h1.07v-9.75h-1.03v4.33c-.47-.38-1.11-.74-1.96-.74-1.34,0-2.4,1.39-2.4,3.17Zm1.05-.01c0-1.77,1.17-2.32,1.96-2.32h.03c.15,0,.58.01,1,.41.24.23.28.31.28.53v2.58c0,.42-.63,1.12-1.44,1.12-.73,0-1.82-.53-1.82-2.31Zm6.53,1.35c0,.7,0,1.8,1.42,1.8.74,0,1.66-.19,2.36-.8v.65h1.03v-6.01h-1.05v3.78c0,.14,0,.26-.01.39-.07.58-.59,1.23-1.61,1.23-.92,0-1.07-.3-1.08-.88v-4.52h-1.05v4.36Zm6.37-1.36c0,1.73,1.27,3.16,2.93,3.16.93,0,1.59-.3,2.2-.69l-.07-.9c-.43.3-1.07.73-2.12.73-1.13,0-1.89-.99-1.89-2.3,0-1.17.59-2.35,1.9-2.35,1.07,0,1.42.28,1.94.62l.16-.89c-.82-.47-1.26-.59-2.09-.59-1.89,0-2.97,1.65-2.97,3.21Zm5.76-2.2h1.13v3.63c0,1.49.66,1.73,1.11,1.73.61,0,1.3-.14,2-.51l-.22-.8c-.19.14-.61.45-1.19.45-.7,0-.73-.8-.73-1.17v-3.32h1.9v-.8h-1.9v-1.7h-.95v1.7h-1.16v.8Z"/>
    <path d="m264.08,75.12h1.01l1.03-2.75h3.92l1.04,2.75h1.24l-3.51-9.37h-1.2l-3.52,9.37Zm2.32-3.51c1.07-2.92,1.57-4.41,1.67-4.91.08.5.45,1.51,1.67,4.91h-3.35Zm6.18-1.7h1.13v3.63c0,1.49.66,1.73,1.11,1.73.61,0,1.3-.14,2-.51l-.22-.8c-.19.14-.61.45-1.19.45-.7,0-.73-.8-.73-1.17v-3.32h1.9v-.8h-1.9v-1.7h-.95v1.7h-1.16v.8Zm4.87,0h1.13v3.63c0,1.49.66,1.73,1.11,1.73.61,0,1.3-.14,2-.51l-.22-.8c-.19.14-.61.45-1.19.45-.7,0-.73-.8-.73-1.17v-3.32h1.9v-.8h-1.9v-1.7h-.95v1.7h-1.16v.8Zm5.09,2.16c0,1.67,1.17,3.2,2.94,3.2.85,0,1.55-.3,2.13-.69l-.08-.89c-.59.43-1.2.74-2.05.74-1.03,0-1.94-.89-2-2.28h4.19v-.39c-.12-2.31-1.44-2.86-2.4-2.86-1.43,0-2.73,1.36-2.73,3.17Zm1.01-.66c.15-.66.69-1.67,1.71-1.67.39,0,1.4.18,1.63,1.67h-3.35Zm5.6,3.71h1.05v-3.24c0-1,.34-2.08,1.38-2.08,1.32,0,1.32,1.01,1.32,1.53v3.79h1.05v-3.89c0-.95-.12-2.25-1.85-2.25-1.19,0-1.78.77-1.97,1.01v-.95h-.99v6.08Zm6.14-5.21h1.13v3.63c0,1.49.66,1.73,1.11,1.73.61,0,1.3-.14,2-.51l-.22-.8c-.19.14-.61.45-1.19.45-.7,0-.73-.8-.73-1.17v-3.32h1.9v-.8h-1.9v-1.7h-.95v1.7h-1.16v.8Zm5.72,5.21h1.01v-6.01h-1.01v6.01Zm-.09-7.97h1.22v-1.2h-1.22v1.2Zm2.63,4.98c0,1.84,1.42,3.13,2.96,3.13s2.97-1.28,2.97-3.12c0-1.69-1.24-3.25-2.97-3.25-1.59,0-2.96,1.4-2.96,3.24Zm1.05-.14c0-1.63,1.04-2.27,1.9-2.27s1.9.62,1.9,2.27-1,2.4-1.9,2.4-1.9-.7-1.9-2.4Zm6.37,3.12h1.05v-3.24c0-1,.34-2.08,1.38-2.08,1.32,0,1.32,1.01,1.32,1.53v3.79h1.05v-3.89c0-.95-.12-2.25-1.85-2.25-1.19,0-1.78.77-1.97,1.01v-.95h-.99v6.08Z"/>
  </g>
  <path d="m244.97,255.17h5.49c2.52,0,4.59-2.22,4.59-5.04s-2.02-5.2-4.59-5.2h-5.49v.46h.36c1.15,0,1.18.16,1.18.7v7.9c0,.54-.03.7-1.18.7h-.36v.46Zm2.83-1.06v-8.11c0-.49.03-.6.73-.6h1.5c.93,0,1.96.33,2.73,1.39.64.88.78,2.17.78,3.34,0,1.66-.28,2.56-.82,3.3-.3.4-1.15,1.27-2.67,1.27h-1.51c-.7,0-.73-.1-.73-.6Zm9.21-8.17c0,.4.33.79.79.79.42,0,.79-.31.79-.79s-.37-.79-.79-.79c-.46,0-.79.4-.79.79Zm-.63,9.24c.48-.01,1.29-.04,1.65-.04.52,0,1.05.03,1.56.04v-.46c-.99,0-1.05-.07-1.05-.66v-5.5l-2.1.16v.46c.97,0,1.11.09,1.11.82v4.03c0,.67-.16.67-1.17.67v.46Zm4.29-1.42c0,1.21,1.45,1.59,2.4,1.59s1.68-.6,1.96-1.3c.06.6.46,1.23,1.17,1.23.31,0,1.23-.21,1.23-1.42v-.84h-.37v.84c0,.87-.37.96-.54.96-.49,0-.55-.67-.55-.75v-3c0-.63,0-1.21-.54-1.77-.58-.58-1.33-.82-2.05-.82-1.23,0-2.26.7-2.26,1.69,0,.45.3.7.69.7.42,0,.69-.3.69-.69,0-.18-.07-.67-.76-.69.4-.52,1.14-.69,1.62-.69.73,0,1.59.58,1.59,1.92v.55c-.76.04-1.81.09-2.76.54-1.12.51-1.5,1.29-1.5,1.95Zm1.15-.01c0-.82.63-2.07,3.1-2.16v1.5c0,1.42-1.08,1.93-1.75,1.93-.73,0-1.35-.52-1.35-1.27Zm6.13,2.62c0,1.08,1.48,1.9,3.31,1.9s3.33-.76,3.33-1.93c0-.52-.21-1.29-.97-1.71-.79-.42-1.66-.42-2.58-.42-.37,0-1.02,0-1.12-.01-.48-.06-.79-.52-.79-1,0-.06,0-.4.25-.7.58.42,1.2.46,1.48.46,1.39,0,2.43-1.03,2.43-2.19,0-.55-.24-1.11-.61-1.45.54-.51,1.08-.58,1.35-.58.03,0,.1,0,.15.01-.16.06-.24.22-.24.4,0,.25.19.43.43.43.15,0,.43-.1.43-.45,0-.25-.18-.73-.76-.73-.3,0-.96.09-1.59.7-.63-.49-1.26-.54-1.59-.54-1.39,0-2.43,1.03-2.43,2.19,0,.66.33,1.23.7,1.54-.19.22-.46.72-.46,1.24,0,.46.19,1.03.66,1.33-.9.25-1.38.9-1.38,1.5Zm.78,0c0-.69.57-1.24,1.23-1.29h.88c1.29,0,2.97,0,2.97,1.29,0,.81-1.06,1.56-2.53,1.56s-2.55-.76-2.55-1.56Zm.82-5.61c0-.4.01-.88.24-1.26.12-.18.46-.6,1.06-.6,1.3,0,1.3,1.5,1.3,1.84,0,.4-.01.88-.24,1.26-.12.18-.46.6-1.06.6-1.3,0-1.3-1.5-1.3-1.84Zm5.89,1.21c0,1.93,1.56,3.37,3.31,3.37s3.33-1.47,3.33-3.37-1.5-3.51-3.31-3.51-3.33,1.63-3.33,3.51Zm1.24-.12c0-.58,0-1.39.36-2.05.4-.69,1.11-1,1.71-1,.66,0,1.3.33,1.69.97s.39,1.51.39,2.08c0,.54,0,1.35-.33,2.01-.33.67-.99,1.11-1.74,1.11-.64,0-1.3-.31-1.71-1-.37-.66-.37-1.57-.37-2.11Zm6.31,3.33c.52-.01,1.29-.04,1.69-.04s1.17.03,1.68.04v-.46c-1,0-1.17,0-1.17-.67v-2.76c0-1.56,1.06-2.4,2.02-2.4s1.11.81,1.11,1.66v3.49c0,.67-.16.67-1.17.67v.46c.52-.01,1.29-.04,1.69-.04s1.17.03,1.68.04v-.46c-.78,0-1.15,0-1.17-.45v-2.86c0-1.29,0-1.75-.46-2.29-.21-.25-.7-.55-1.57-.55-1.09,0-1.8.64-2.22,1.57v-1.57l-2.11.16v.46c1.05,0,1.17.1,1.17.84v4.02c0,.67-.16.67-1.17.67v.46Zm8.47-1.42c0,1.21,1.45,1.59,2.4,1.59s1.68-.6,1.96-1.3c.06.6.46,1.23,1.17,1.23.31,0,1.23-.21,1.23-1.42v-.84h-.37v.84c0,.87-.37.96-.54.96-.49,0-.55-.67-.55-.75v-3c0-.63,0-1.21-.54-1.77-.58-.58-1.33-.82-2.05-.82-1.23,0-2.26.7-2.26,1.69,0,.45.3.7.69.7.42,0,.69-.3.69-.69,0-.18-.07-.67-.76-.69.4-.52,1.14-.69,1.62-.69.73,0,1.59.58,1.59,1.92v.55c-.76.04-1.81.09-2.76.54-1.12.51-1.5,1.29-1.5,1.95Zm1.15-.01c0-.82.63-2.07,3.1-2.16v1.5c0,1.42-1.08,1.93-1.75,1.93-.73,0-1.35-.52-1.35-1.27Zm6.21,1.44c.49-.01,1.29-.04,1.66-.04s1.11.03,1.66.04v-.46c-1,0-1.17,0-1.17-.67v-9.27l-2.16.16v.46c1.05,0,1.17.1,1.17.84v7.8c0,.67-.16.67-1.17.67v.46Zm4.78-9.24c0,.4.33.79.79.79.42,0,.79-.31.79-.79s-.37-.79-.79-.79c-.46,0-.79.4-.79.79Zm-.63,9.24c.48-.01,1.29-.04,1.65-.04.52,0,1.05.03,1.56.04v-.46c-.99,0-1.05-.07-1.05-.66v-5.5l-2.1.16v.46c.97,0,1.11.09,1.11.82v4.03c0,.67-.16.67-1.17.67v.46Zm4.08-.21c0,.21.1.21.39.21h4.95l.25-2.8h-.37c-.13,1.77-.45,2.43-2.19,2.43h-1.77l4.17-5.64c.13-.16.13-.19.13-.25,0-.19-.12-.19-.39-.19h-4.8l-.16,2.41h.37c.09-1.53.37-2.08,2.02-2.08h1.71l-4.18,5.65c-.13.16-.13.19-.13.27Zm6.66-3.09c0,2.01,1.57,3.46,3.3,3.46,1.83,0,2.5-1.66,2.5-1.95,0-.15-.12-.18-.19-.18-.13,0-.16.09-.19.21-.52,1.54-1.87,1.54-2.02,1.54-.75,0-1.35-.45-1.69-1-.45-.72-.45-1.71-.45-2.25h4.18c.33,0,.37,0,.37-.31,0-1.48-.81-2.94-2.68-2.94-1.74,0-3.12,1.54-3.12,3.42Zm1.26-.48c.09-2.23,1.35-2.61,1.86-2.61,1.54,0,1.69,2.02,1.69,2.61h-3.55Z"/>
  <g>
    <path d="m10.17,74.5c-.02.12-.02.22-.02.31,0,.73.63,1.33,1.39,1.33,1.8,0,3.67-2.11,4.68-5.25l2.4-7.48-.19-.15c-.49.19-.88.29-1.26.32l-.6,2.24c-.2.8-.8,2.04-1.36,2.87-.6.87-1.43,1.62-1.8,1.62-.2,0-.36-.39-.34-.82l.27-3.52c.03-.53.07-1.17.07-1.65,0-.77-.12-1.07-.41-1.07-.22,0-.46.12-1.28.68l-1.39.95.19.31.85-.51c.09-.05.27-.2.43-.2.24,0,.37.32.37.88,0,.02,0,.12-.02.26l-.29,4.13-.02.68c0,.71.31,1.21.73,1.21.63,0,2.06-1.45,3.33-3.37l-.83,2.91c-.87,3.01-1.72,4.25-2.91,4.25-.6,0-1.05-.46-1.05-1.05,0-.09.02-.22.03-.37l-.17-.07-.82.58Z"/>
    <g class="cls-16">
      <g class="cls-5">
        <path d="m-4.62,60.01h46.82v-1.02H-4.62v1.02Z"/>
      </g>
    </g>
  </g>
  <path d="m21.86,89.69l-.44.29c-.49.32-.87.51-1.04.51-.12,0-.22-.15-.22-.34,0-.17.03-.32.12-.68l1.28-5.05c.07-.29.12-.56.12-.7,0-.29-.17-.48-.44-.48-.49,0-1.14.31-2.18,1.04-1.07.77-1.67,1.36-2.5,2.53l.51-2.33c.07-.34.12-.6.12-.71,0-.32-.17-.53-.44-.53-.51,0-1.29.37-2.23,1.09-.75.58-1.09.94-2.19,2.43l.56-2.26c.07-.27.1-.53.1-.73,0-.32-.15-.53-.39-.53-.36,0-1,.36-2.26,1.26l-.48.34.12.34c.63-.39,1.22-.78,1.34-.78.19,0,.31.17.31.43,0,.87-.7,4.15-1.39,6.58l.05.19,1.16-.26.37-1.73c.41-1.89.87-2.89,1.8-3.91.71-.78,1.48-1.29,1.96-1.29.12,0,.19.14.19.36,0,.6-.37,2.53-1.07,5.51l-.27,1.14.09.19,1.17-.26.36-1.82c.27-1.38.85-2.65,1.6-3.49.94-1.04,1.79-1.63,2.33-1.63.14,0,.22.15.22.43,0,.41-.05.65-.43,2.13-.68,2.7-.95,3.06-.95,3.96,0,.43.19.68.51.68.44,0,1.05-.36,2.72-1.6l-.17-.31Z"/>
  <g>
    <path d="m10.44,131.43c.26.14.53.2.73.2.56,0,1.22-.49,1.75-1.29l1.29-1.99.19,1.17c.22,1.45.61,2.11,1.22,2.11.37,0,.92-.29,1.46-.78l.83-.75-.15-.32c-.61.51-1.04.77-1.31.77-.26,0-.48-.17-.65-.51-.15-.32-.34-.95-.43-1.45l-.31-1.72.6-.83c.8-1.11,1.26-1.5,1.79-1.5.27,0,.48.14.56.39l.24-.07.26-1.45c-.2-.12-.36-.17-.51-.17-.68,0-1.36.61-2.41,2.18l-.63.94-.1-.82c-.2-1.68-.66-2.3-1.67-2.3-.44,0-.82.14-.97.36l-.99,1.41.29.17c.51-.58.85-.82,1.17-.82.56,0,.94.7,1.22,2.36l.19,1.05-.68,1.05c-.73,1.14-1.31,1.68-1.79,1.68-.26,0-.44-.07-.48-.15l-.19-.48-.34.05c0,.6-.14,1.04-.2,1.48Z"/>
    <g class="cls-7">
      <g class="cls-10">
        <path d="m-4.62,120.01h46.82v-1.02H-4.62v1.02Z"/>
      </g>
    </g>
  </g>
  <path d="m21.86,149.69l-.44.29c-.49.32-.87.51-1.04.51-.12,0-.22-.15-.22-.34,0-.17.03-.32.12-.68l1.28-5.05c.07-.29.12-.56.12-.7,0-.29-.17-.48-.44-.48-.49,0-1.14.31-2.18,1.04-1.07.77-1.67,1.36-2.5,2.53l.51-2.33c.07-.34.12-.6.12-.71,0-.32-.17-.53-.44-.53-.51,0-1.29.37-2.23,1.09-.75.58-1.09.94-2.19,2.43l.56-2.26c.07-.27.1-.53.1-.73,0-.32-.15-.53-.39-.53-.36,0-1,.36-2.26,1.26l-.48.34.12.34c.63-.39,1.22-.78,1.34-.78.19,0,.31.17.31.43,0,.87-.7,4.15-1.39,6.58l.05.19,1.16-.26.37-1.73c.41-1.89.87-2.89,1.8-3.91.71-.78,1.48-1.29,1.96-1.29.12,0,.19.14.19.36,0,.6-.37,2.53-1.07,5.51l-.27,1.14.09.19,1.17-.26.36-1.82c.27-1.38.85-2.65,1.6-3.49.94-1.04,1.79-1.63,2.33-1.63.14,0,.22.15.22.43,0,.41-.05.65-.43,2.13-.68,2.7-.95,3.06-.95,3.96,0,.43.19.68.51.68.44,0,1.05-.36,2.72-1.6l-.17-.31Z"/>
  <path d="m156.28,22.83h1.17v-9.36c.13.66.49,1.6,1.08,3.19l2.25,5.83h1.08l2.31-6.01.9-2.46.15-.55v.48s.01,8.88.01,8.88h1.17v-10.41h-1.72l-2.31,6.03c-.73,1.92-.97,2.67-1.02,3h-.01c-.06-.34-.42-1.35-1.03-3.01l-2.31-6.01h-1.71v10.41Zm12.82-1.83c0,.78,0,1.99,1.57,1.99.82,0,1.84-.21,2.62-.88v.72h1.14v-6.67h-1.17v4.2c0,.15,0,.28-.01.43-.07.64-.66,1.36-1.78,1.36-1.02,0-1.18-.33-1.2-.97v-5.02h-1.17v4.84Zm7.77,1.83h1.12v-10.83h-1.12v10.83Zm2.64-5.79h1.26v4.03c0,1.65.73,1.92,1.23,1.92.67,0,1.44-.15,2.22-.57l-.24-.88c-.21.15-.67.49-1.32.49-.78,0-.81-.88-.81-1.3v-3.69h2.11v-.88h-2.11v-1.89h-1.05v1.89h-1.29v.88Zm6.36,5.79h1.12v-6.67h-1.12v6.67Zm-.1-8.85h1.35v-1.33h-1.35v1.33Zm2.62,5.95h3.99v-.88h-3.99v.88Zm6.25,2.89h1.35v-4.95h5.1v4.95h1.35v-10.41h-1.35v4.53h-5.1v-4.53h-1.35v10.41Zm9.72-3.39c0,1.86,1.3,3.55,3.27,3.55.94,0,1.72-.33,2.37-.76l-.09-.99c-.66.48-1.33.82-2.28.82-1.14,0-2.16-.99-2.22-2.53h4.65v-.43c-.13-2.56-1.6-3.18-2.67-3.18-1.59,0-3.03,1.51-3.03,3.52Zm1.12-.73c.16-.73.76-1.86,1.9-1.86.43,0,1.56.19,1.81,1.86h-3.72Zm5.68,2.43c0,.69.45,1.86,1.71,1.86,1.65,0,2.47-.67,2.49-.69v.52h1.14v-4.57c-.07-1.26-1.06-2.34-2.49-2.34-.94,0-1.63.24-2.35.66l.09,1c.49-.34,1.12-.76,2.25-.76.19,0,.58.01.94.45.37.45.37.96.39,1.38v.51c-1.54.01-4.17.39-4.17,1.98Zm1.09-.01c0-.94,1.99-1.17,3.07-1.18v.94c0,.97-1.03,1.18-1.68,1.18-.81,0-1.39-.4-1.39-.94Zm5.97-1.6c0,1.78,1.05,3.48,2.58,3.48.99,0,1.71-.45,2.22-.94v.78h1.18v-10.83h-1.14v4.81c-.52-.42-1.23-.82-2.17-.82-1.48,0-2.67,1.54-2.67,3.52Zm1.17-.01c0-1.96,1.3-2.58,2.17-2.58h.03c.16,0,.64.01,1.11.45.27.25.31.34.31.58v2.86c0,.46-.7,1.24-1.6,1.24-.81,0-2.02-.58-2.02-2.56Zm11.46,3.33h1.12l1.14-3.06h4.35l1.15,3.06h1.38l-3.9-10.41h-1.33l-3.91,10.41Zm2.58-3.9c1.18-3.24,1.74-4.9,1.86-5.46.09.55.49,1.68,1.86,5.46h-3.72Zm6.87-1.89h1.26v4.03c0,1.65.73,1.92,1.23,1.92.67,0,1.44-.15,2.22-.57l-.24-.88c-.21.15-.67.49-1.32.49-.78,0-.81-.88-.81-1.3v-3.69h2.11v-.88h-2.11v-1.89h-1.05v1.89h-1.29v.88Zm5.41,0h1.26v4.03c0,1.65.73,1.92,1.23,1.92.67,0,1.44-.15,2.22-.57l-.24-.88c-.21.15-.67.49-1.32.49-.78,0-.81-.88-.81-1.3v-3.69h2.11v-.88h-2.11v-1.89h-1.05v1.89h-1.29v.88Zm5.65,2.4c0,1.86,1.3,3.55,3.27,3.55.94,0,1.72-.33,2.37-.76l-.09-.99c-.66.48-1.33.82-2.28.82-1.14,0-2.16-.99-2.22-2.53h4.65v-.43c-.13-2.56-1.6-3.18-2.67-3.18-1.59,0-3.03,1.51-3.03,3.52Zm1.12-.73c.16-.73.76-1.86,1.9-1.86.43,0,1.56.19,1.81,1.86h-3.72Zm6.22,4.12h1.17v-3.6c0-1.11.37-2.31,1.53-2.31,1.47,0,1.47,1.12,1.47,1.69v4.21h1.17v-4.32c0-1.05-.13-2.5-2.05-2.5-1.32,0-1.98.85-2.19,1.12v-1.05h-1.09v6.75Zm6.82-5.79h1.26v4.03c0,1.65.73,1.92,1.23,1.92.67,0,1.44-.15,2.22-.57l-.24-.88c-.21.15-.67.49-1.32.49-.78,0-.81-.88-.81-1.3v-3.69h2.11v-.88h-2.11v-1.89h-1.05v1.89h-1.29v.88Zm6.36,5.79h1.12v-6.67h-1.12v6.67Zm-.1-8.85h1.35v-1.33h-1.35v1.33Zm2.92,5.53c0,2.04,1.57,3.48,3.28,3.48s3.3-1.42,3.3-3.46c0-1.87-1.38-3.61-3.3-3.61-1.77,0-3.28,1.56-3.28,3.6Zm1.17-.15c0-1.81,1.15-2.52,2.11-2.52s2.11.69,2.11,2.52-1.11,2.67-2.11,2.67-2.11-.78-2.11-2.67Zm7.08,3.46h1.17v-3.6c0-1.11.37-2.31,1.53-2.31,1.47,0,1.47,1.12,1.47,1.69v4.21h1.17v-4.32c0-1.05-.13-2.5-2.05-2.5-1.32,0-1.98.85-2.19,1.12v-1.05h-1.09v6.75Z"/>
</svg>