<?xml version="1.0" encoding="UTF-8"?>
<svg id="Layer_1" data-name="Layer 1" xmlns="http://www.w3.org/2000/svg" viewBox="0 0 390 110">
  <defs>
    <style>
      .cls-1 {
        fill: none;
        stroke: #000;
      }
    </style>
  </defs>
  <g>
    <path class="cls-1" d="m145.22,60.71h30"/>
    <path class="cls-1" d="m145.22,90.71h80"/>
    <path class="cls-1" d="m275.22,60.71h80"/>
    <path class="cls-1" d="m275.22,90.71h30"/>
    <path class="cls-1" d="m15.22,60.71h30"/>
    <path class="cls-1" d="m15.22,90.71h30"/>
  </g>
  <path d="m151.71,53.23l-.49,2.16c-.07.29-.1.6-.1.87,0,.37.15.6.41.6.39,0,1.09-.44,2.48-1.6l-.12-.36c-.41.34-.9.8-1.28.8-.15,0-.26-.15-.26-.39,0-.09,0-.14.02-.19l1.56-6.44-.17-.15-.56.31c-.7-.26-.99-.32-1.45-.32s-.82.09-1.28.31c-1.05.53-1.62,1.04-2.04,1.87-.75,1.51-1.28,3.55-1.28,4.88,0,.75.26,1.33.58,1.33.63,0,1.99-.88,3.96-3.66Zm.82-3.57c-.37,1.85-.7,2.74-1.28,3.62-.97,1.43-2.01,2.41-2.55,2.41-.2,0-.31-.22-.31-.68,0-1.09.48-3.08,1.07-4.44.41-.94.8-1.24,1.62-1.24.39,0,.7.07,1.45.32Z"/>
  <g>
    <g>
      <path d="m179.63,60.11l.12.34.54-.36c.63-.39.68-.43.8-.43.17,0,.31.17.31.39,0,.12-.07.51-.14.75l-1.12,4.08c-.14.53-.22.99-.22,1.31,0,.41.19.66.51.66.44,0,1.05-.36,2.72-1.6l-.17-.31-.44.29c-.49.32-.88.51-1.04.51-.12,0-.22-.17-.22-.34s.03-.32.12-.68l1.31-5.17c.07-.29.1-.48.1-.61,0-.29-.15-.44-.43-.44-.37,0-1,.36-2.28,1.26l-.48.34Zm3.3-5.51c-.49,0-.99.56-.99,1.14,0,.43.26.7.66.7.53,0,.94-.49.94-1.14,0-.41-.26-.7-.61-.7Z"/>
      <path d="m187.49,68.18l-.35,1.51c-.05.2-.07.42-.07.61,0,.26.11.42.29.42.27,0,.76-.31,1.74-1.12l-.08-.25c-.29.24-.63.56-.89.56-.11,0-.18-.11-.18-.27,0-.06,0-.1.01-.13l1.09-4.51-.12-.11-.39.21c-.49-.18-.69-.23-1.01-.23s-.57.06-.89.21c-.74.37-1.13.73-1.43,1.31-.52,1.06-.89,2.49-.89,3.42,0,.52.18.93.4.93.44,0,1.39-.62,2.77-2.56Zm.57-2.5c-.26,1.3-.49,1.92-.89,2.53-.68,1-1.4,1.69-1.79,1.69-.14,0-.21-.15-.21-.48,0-.76.33-2.15.75-3.11.29-.65.56-.87,1.13-.87.27,0,.49.05,1.01.23Z"/>
    </g>
    <rect x="174.73" y="54.19" width="1" height="18.59"/>
    <polyline class="cls-1" points="192.16 54.19 198.02 63.49 192.16 72.78"/>
  </g>
  <path d="m151.1,74.43l-.2-.19c-.88.44-1.5.6-2.72.71l-.07.36h.82c.41,0,.58.12.58.41,0,.12-.02.31-.03.41l-1.72,9.37c-.02.05-.02.12-.02.17,0,.66.82,1.22,1.75,1.22.63,0,1.5-.32,2.23-.85,1.63-1.16,2.75-3.49,2.75-5.73,0-.65-.15-1.31-.36-1.56-.12-.15-.34-.24-.6-.24-.41,0-.92.14-1.39.37-.87.46-1.43.97-2.48,2.31l1.46-6.77Zm1.48,5.07c.44,0,.66.39.66,1.22,0,1.09-.36,2.55-.87,3.66-.56,1.17-1.24,1.72-2.16,1.72-.78,0-1.21-.39-1.21-1.11,0-.58.26-2.98,1.63-4.42.56-.58,1.45-1.07,1.94-1.07Z"/>
  <path d="m281.71,53.23l-.49,2.16c-.07.29-.1.6-.1.87,0,.37.15.6.41.6.39,0,1.09-.44,2.48-1.6l-.12-.36c-.41.34-.9.8-1.28.8-.15,0-.26-.15-.26-.39,0-.09,0-.14.02-.19l1.56-6.44-.17-.15-.56.31c-.7-.26-.99-.32-1.45-.32s-.82.09-1.28.31c-1.05.53-1.62,1.04-2.04,1.87-.75,1.51-1.28,3.55-1.28,4.88,0,.75.26,1.33.58,1.33.63,0,1.99-.88,3.96-3.66Zm.82-3.57c-.37,1.85-.7,2.74-1.28,3.62-.97,1.43-2.01,2.41-2.55,2.41-.2,0-.31-.22-.31-.68,0-1.09.48-3.08,1.07-4.44.41-.94.8-1.24,1.62-1.24.39,0,.7.07,1.45.32Z"/>
  <g>
    <g>
      <path d="m359.63,60.11l.12.34.54-.36c.63-.39.68-.43.8-.43.17,0,.31.17.31.39,0,.12-.07.51-.14.75l-1.12,4.08c-.14.53-.22.99-.22,1.31,0,.41.19.66.51.66.44,0,1.05-.36,2.72-1.6l-.17-.31-.44.29c-.49.32-.88.51-1.04.51-.12,0-.22-.17-.22-.34s.03-.32.12-.68l1.31-5.17c.07-.29.1-.48.1-.61,0-.29-.15-.44-.43-.44-.37,0-1,.36-2.28,1.26l-.48.34Zm3.3-5.51c-.49,0-.99.56-.99,1.14,0,.43.26.7.66.7.53,0,.94-.49.94-1.14,0-.41-.26-.7-.61-.7Z"/>
      <path d="m367.49,68.18l-.35,1.51c-.05.2-.07.42-.07.61,0,.26.11.42.29.42.27,0,.76-.31,1.74-1.12l-.08-.25c-.29.24-.63.56-.89.56-.11,0-.18-.11-.18-.27,0-.06,0-.1.01-.13l1.09-4.51-.12-.11-.39.21c-.49-.18-.69-.23-1.01-.23s-.57.06-.89.21c-.74.37-1.13.73-1.43,1.31-.52,1.06-.89,2.49-.89,3.42,0,.52.18.93.4.93.44,0,1.39-.62,2.77-2.56Zm.57-2.5c-.26,1.3-.49,1.92-.89,2.53-.68,1-1.4,1.69-1.79,1.69-.14,0-.21-.15-.21-.48,0-.76.33-2.15.75-3.11.29-.65.56-.87,1.13-.87.27,0,.49.05,1.01.23Z"/>
    </g>
    <rect x="354.73" y="54.19" width="1" height="18.59"/>
    <polyline class="cls-1" points="372.16 54.19 378.02 63.49 372.16 72.78"/>
  </g>
  <path d="m281.1,74.43l-.2-.19c-.88.44-1.5.6-2.72.71l-.07.36h.82c.41,0,.58.12.58.41,0,.12-.02.31-.03.41l-1.72,9.37c-.02.05-.02.12-.02.17,0,.66.82,1.22,1.75,1.22.63,0,1.5-.32,2.23-.85,1.63-1.16,2.75-3.49,2.75-5.73,0-.65-.15-1.31-.36-1.56-.12-.15-.34-.24-.6-.24-.41,0-.92.14-1.39.37-.87.46-1.43.97-2.48,2.31l1.46-6.77Zm1.48,5.07c.44,0,.66.39.66,1.22,0,1.09-.36,2.55-.87,3.66-.56,1.17-1.24,1.72-2.16,1.72-.78,0-1.21-.39-1.21-1.11,0-.58.26-2.98,1.63-4.42.56-.58,1.45-1.07,1.94-1.07Z"/>
  <g>
    <g>
      <path d="m312.35,90.73l-1.7,8.42c-.19.88-.49,1.48-.8,1.48-.24,0-.54-.1-.9-.32l-.14.97c.17.09.39.12.65.12.68,0,1.36-.73,1.97-2.11.34-.77.58-1.62,1.05-3.77l1.29-5.95c.07-.31.1-.53.1-.63,0-.27-.15-.43-.43-.43-.37,0-1,.36-2.28,1.26l-.48.34.12.34.54-.36c.63-.39.68-.43.8-.43.17,0,.31.17.31.39,0,.15-.12.6-.12.68Zm1.55-6.14c-.49,0-.99.56-.99,1.14,0,.43.26.7.66.7.53,0,.94-.49.94-1.14,0-.41-.26-.7-.61-.7Z"/>
      <path d="m317.91,92.02l-.14-.13c-.62.31-1.05.42-1.9.5l-.05.25h.57c.29,0,.4.08.4.29,0,.08-.01.21-.02.29l-1.2,6.56s-.01.08-.01.12c0,.46.57.86,1.23.86.44,0,1.05-.23,1.56-.6,1.14-.81,1.93-2.44,1.93-4.01,0-.45-.11-.92-.25-1.09-.08-.11-.24-.17-.42-.17-.29,0-.64.1-.98.26-.61.32-1,.68-1.74,1.62l1.02-4.74Zm1.04,3.55c.31,0,.46.27.46.86,0,.76-.25,1.79-.61,2.56-.39.82-.87,1.2-1.51,1.2-.55,0-.84-.27-.84-.77,0-.4.18-2.08,1.14-3.09.39-.4,1.01-.75,1.36-.75Z"/>
    </g>
    <rect x="304.73" y="84.19" width="1" height="18.59"/>
    <polyline class="cls-1" points="323.24 84.19 329.1 93.49 323.24 102.78"/>
  </g>
  <g>
    <g>
      <path d="m232.35,90.73l-1.7,8.42c-.19.88-.49,1.48-.8,1.48-.24,0-.54-.1-.9-.32l-.14.97c.17.09.39.12.65.12.68,0,1.36-.73,1.97-2.11.34-.77.58-1.62,1.05-3.77l1.29-5.95c.07-.31.1-.53.1-.63,0-.27-.15-.43-.43-.43-.37,0-1,.36-2.28,1.26l-.48.34.12.34.54-.36c.63-.39.68-.43.8-.43.17,0,.31.17.31.39,0,.15-.12.6-.12.68Zm1.55-6.14c-.49,0-.99.56-.99,1.14,0,.43.26.7.66.7.53,0,.94-.49.94-1.14,0-.41-.26-.7-.61-.7Z"/>
      <path d="m237.91,92.02l-.14-.13c-.62.31-1.05.42-1.9.5l-.05.25h.57c.29,0,.4.08.4.29,0,.08-.01.21-.02.29l-1.2,6.56s-.01.08-.01.12c0,.46.57.86,1.23.86.44,0,1.05-.23,1.56-.6,1.14-.81,1.93-2.44,1.93-4.01,0-.45-.11-.92-.25-1.09-.08-.11-.24-.17-.42-.17-.29,0-.64.1-.98.26-.61.32-1,.68-1.74,1.62l1.02-4.74Zm1.04,3.55c.31,0,.46.27.46.86,0,.76-.25,1.79-.61,2.56-.39.82-.87,1.2-1.51,1.2-.55,0-.84-.27-.84-.77,0-.4.18-2.08,1.14-3.09.39-.4,1.01-.75,1.36-.75Z"/>
    </g>
    <rect x="224.73" y="84.19" width="1" height="18.59"/>
    <polyline class="cls-1" points="243.24 84.19 249.1 93.49 243.24 102.78"/>
  </g>
  <path d="m257.47,70.8v-1h-9.16v1h9.16Zm0,3.62v-1h-9.16v1h9.16Z"/>
  <path d="m21.71,53.23l-.49,2.16c-.07.29-.1.6-.1.87,0,.37.15.6.41.6.39,0,1.09-.44,2.48-1.6l-.12-.36c-.41.34-.9.8-1.28.8-.15,0-.26-.15-.26-.39,0-.09,0-.14.02-.19l1.56-6.44-.17-.15-.56.31c-.7-.26-.99-.32-1.45-.32s-.82.09-1.28.31c-1.05.53-1.62,1.04-2.04,1.87-.75,1.51-1.28,3.55-1.28,4.88,0,.75.26,1.33.58,1.33.63,0,1.99-.88,3.96-3.66Zm.82-3.57c-.37,1.85-.7,2.74-1.28,3.62-.97,1.43-2.01,2.41-2.55,2.41-.2,0-.31-.22-.31-.68,0-1.09.48-3.08,1.07-4.44.41-.94.8-1.24,1.62-1.24.39,0,.7.07,1.45.32Z"/>
  <g>
    <g>
      <path d="m49.63,60.11l.12.34.54-.36c.63-.39.68-.43.8-.43.17,0,.31.17.31.39,0,.12-.07.51-.14.75l-1.12,4.08c-.14.53-.22.99-.22,1.31,0,.41.19.66.51.66.44,0,1.05-.36,2.72-1.6l-.17-.31-.44.29c-.49.32-.88.51-1.04.51-.12,0-.22-.17-.22-.34s.03-.32.12-.68l1.31-5.17c.07-.29.1-.48.1-.61,0-.29-.15-.44-.43-.44-.37,0-1,.36-2.28,1.26l-.48.34Zm3.3-5.51c-.49,0-.99.56-.99,1.14,0,.43.26.7.66.7.53,0,.94-.49.94-1.14,0-.41-.26-.7-.61-.7Z"/>
      <path d="m57.49,68.18l-.35,1.51c-.05.2-.07.42-.07.61,0,.26.11.42.29.42.27,0,.76-.31,1.74-1.12l-.08-.25c-.29.24-.63.56-.89.56-.11,0-.18-.11-.18-.27,0-.06,0-.1.01-.13l1.09-4.51-.12-.11-.39.21c-.49-.18-.69-.23-1.01-.23s-.57.06-.89.21c-.74.37-1.13.73-1.43,1.31-.52,1.06-.89,2.49-.89,3.42,0,.52.18.93.4.93.44,0,1.39-.62,2.77-2.56Zm.57-2.5c-.26,1.3-.49,1.92-.89,2.53-.68,1-1.4,1.69-1.79,1.69-.14,0-.21-.15-.21-.48,0-.76.33-2.15.75-3.11.29-.65.56-.87,1.13-.87.27,0,.49.05,1.01.23Z"/>
    </g>
    <rect x="44.73" y="54.19" width="1" height="18.59"/>
    <polyline class="cls-1" points="62.16 54.19 68.02 63.49 62.16 72.78"/>
  </g>
  <path d="m21.1,74.43l-.2-.19c-.88.44-1.5.6-2.72.71l-.07.36h.82c.41,0,.58.12.58.41,0,.12-.02.31-.03.41l-1.72,9.37c-.02.05-.02.12-.02.17,0,.66.82,1.22,1.75,1.22.63,0,1.5-.32,2.23-.85,1.63-1.16,2.75-3.49,2.75-5.73,0-.65-.15-1.31-.36-1.56-.12-.15-.34-.24-.6-.24-.41,0-.92.14-1.39.37-.87.46-1.43.97-2.48,2.31l1.46-6.77Zm1.48,5.07c.44,0,.66.39.66,1.22,0,1.09-.36,2.55-.87,3.66-.56,1.17-1.24,1.72-2.16,1.72-.78,0-1.21-.39-1.21-1.11,0-.58.26-2.98,1.63-4.42.56-.58,1.45-1.07,1.94-1.07Z"/>
  <g>
    <g>
      <path d="m52.35,90.73l-1.7,8.42c-.19.88-.49,1.48-.8,1.48-.24,0-.54-.1-.9-.32l-.14.97c.17.09.39.12.65.12.68,0,1.36-.73,1.97-2.11.34-.77.58-1.62,1.05-3.77l1.29-5.95c.07-.31.1-.53.1-.63,0-.27-.15-.43-.43-.43-.37,0-1,.36-2.28,1.26l-.48.34.12.34.54-.36c.63-.39.68-.43.8-.43.17,0,.31.17.31.39,0,.15-.12.6-.12.68Zm1.55-6.14c-.49,0-.99.56-.99,1.14,0,.43.26.7.66.7.53,0,.94-.49.94-1.14,0-.41-.26-.7-.61-.7Z"/>
      <path d="m57.91,92.02l-.14-.13c-.62.31-1.05.42-1.9.5l-.05.25h.57c.29,0,.4.08.4.29,0,.08-.01.21-.02.29l-1.2,6.56s-.01.08-.01.12c0,.46.57.86,1.23.86.44,0,1.05-.23,1.56-.6,1.14-.81,1.93-2.44,1.93-4.01,0-.45-.11-.92-.25-1.09-.08-.11-.24-.17-.42-.17-.29,0-.64.1-.98.26-.61.32-1,.68-1.74,1.62l1.02-4.74Zm1.04,3.55c.31,0,.46.27.46.86,0,.76-.25,1.79-.61,2.56-.39.82-.87,1.2-1.51,1.2-.55,0-.84-.27-.84-.77,0-.4.18-2.08,1.14-3.09.39-.4,1.01-.75,1.36-.75Z"/>
    </g>
    <rect x="44.73" y="84.19" width="1" height="18.59"/>
    <polyline class="cls-1" points="63.24 84.19 69.1 93.49 63.24 102.78"/>
  </g>
  <path d="m107.47,70.8v-1h-9.16v1h9.16Zm0,3.62v-1h-9.16v1h9.16Z"/>
  <g>
    <path d="m140.92,16.94c.47-.04,1.47-.04,1.98-.04s1.53,0,2,.04v-.42h-.32c-1.04,0-1.07-.15-1.07-.63v-3.21h2.28c1.62,0,3.08-1.09,3.08-2.44s-1.34-2.51-3.19-2.51h-4.77v.42h.32c1.04,0,1.07.15,1.07.63v7.11c0,.49-.03.63-1.07.63h-.32v.42Zm2.55-4.62v-3.65c0-.45.03-.54.66-.54h1.2c2.15,0,2.15,1.43,2.15,2.09s0,2.09-2.15,2.09h-1.86Zm6.53,4.62c.53-.01,1.16-.04,1.54-.04.54,0,1.17,0,1.71.04v-.42h-.28c-1,0-1.03-.15-1.03-.63v-2.08c0-1.34.57-2.54,1.59-2.54.09,0,.12,0,.15.01-.04.01-.31.18-.31.53,0,.38.28.58.58.58.24,0,.58-.16.58-.59s-.42-.82-1-.82c-.99,0-1.47.9-1.66,1.49v-1.49l-1.88.15v.42c.95,0,1.05.09,1.05.76v3.62c0,.61-.15.61-1.05.61v.42Zm5.28-2.89c0,1.74,1.4,3.04,2.98,3.04s3-1.32,3-3.04-1.35-3.16-2.98-3.16-3,1.47-3,3.16Zm1.12-.11c0-.53,0-1.26.32-1.85.36-.62,1-.9,1.54-.9.59,0,1.17.3,1.53.88s.35,1.36.35,1.88c0,.49,0,1.22-.3,1.81-.3.61-.89,1-1.57,1-.58,0-1.17-.28-1.54-.9-.34-.59-.34-1.42-.34-1.9Zm7.41-5.32c0,.39.32.72.72.72s.72-.32.72-.72-.32-.72-.72-.72-.72.32-.72.72Zm-1.94,10c0,.7.76,1.08,1.53,1.08,1.01,0,1.85-.86,1.85-2.09v-6.64l-2.05.15v.42c1.04,0,1.16.09,1.16.76v5.35c0,.61-.12,1.77-.99,1.77-.07,0-.38,0-.73-.18.2-.05.47-.24.47-.61s-.24-.62-.62-.62-.62.27-.62.62Zm5.04-4.66c0,1.81,1.42,3.12,2.97,3.12,1.65,0,2.25-1.5,2.25-1.76,0-.14-.11-.16-.18-.16-.12,0-.15.08-.18.19-.47,1.39-1.69,1.39-1.82,1.39-.68,0-1.22-.41-1.53-.9-.41-.65-.41-1.54-.41-2.03h3.77c.3,0,.34,0,.34-.28,0-1.34-.73-2.65-2.42-2.65-1.57,0-2.81,1.39-2.81,3.08Zm1.13-.43c.08-2.01,1.22-2.35,1.67-2.35,1.39,0,1.53,1.82,1.53,2.35h-3.2Zm4.94.49c0,1.73,1.34,3.06,2.9,3.06,1.81,0,2.24-1.62,2.24-1.76s-.14-.14-.18-.14c-.12,0-.15.05-.18.14-.39,1.26-1.27,1.42-1.77,1.42-.72,0-1.9-.58-1.9-2.75s1.11-2.77,1.82-2.77c.12,0,.97.01,1.44.5-.55.04-.63.45-.63.62,0,.35.24.62.62.62.35,0,.62-.23.62-.63,0-.92-1.03-1.44-2.07-1.44-1.69,0-2.93,1.46-2.93,3.13Zm5.79-2.48h1.15v3.73c0,1.66,1.26,1.82,1.74,1.82.96,0,1.34-.96,1.34-1.82v-.77h-.34v.74c0,1-.41,1.51-.9,1.51-.9,0-.9-1.23-.9-1.46v-3.75h1.93v-.42h-1.93v-2.48h-.34c-.01,1.11-.42,2.55-1.74,2.61v.3Zm5.99-2.92c0,.36.3.72.72.72.38,0,.72-.28.72-.72s-.34-.72-.72-.72c-.42,0-.72.36-.72.72Zm-.57,8.32c.43-.01,1.16-.04,1.49-.04.47,0,.95.03,1.4.04v-.42c-.89,0-.95-.07-.95-.59v-4.95l-1.89.15v.42c.88,0,1,.08,1,.74v3.63c0,.61-.15.61-1.05.61v.42Zm3.67-2.89c0,1.74,1.4,3.04,2.98,3.04s3-1.32,3-3.04-1.35-3.16-2.98-3.16-3,1.47-3,3.16Zm1.12-.11c0-.53,0-1.26.32-1.85.36-.62,1-.9,1.54-.9.59,0,1.17.3,1.53.88s.35,1.36.35,1.88c0,.49,0,1.22-.3,1.81-.3.61-.89,1-1.57,1-.58,0-1.17-.28-1.54-.9-.34-.59-.34-1.42-.34-1.9Zm5.68,3c.47-.01,1.16-.04,1.53-.04s1.05.03,1.51.04v-.42c-.9,0-1.05,0-1.05-.61v-2.48c0-1.4.96-2.16,1.82-2.16s1,.73,1,1.5v3.15c0,.61-.15.61-1.05.61v.42c.47-.01,1.16-.04,1.53-.04s1.05.03,1.51.04v-.42c-.7,0-1.04,0-1.05-.41v-2.58c0-1.16,0-1.58-.42-2.07-.19-.23-.63-.5-1.42-.5-.99,0-1.62.58-2,1.42v-1.42l-1.9.15v.42c.95,0,1.05.09,1.05.76v3.62c0,.61-.15.61-1.05.61v.42Zm11.81-5.4h1.15v3.73c0,1.66,1.26,1.82,1.74,1.82.96,0,1.34-.96,1.34-1.82v-.77h-.34v.74c0,1-.41,1.51-.9,1.51-.9,0-.9-1.23-.9-1.46v-3.75h1.93v-.42h-1.93v-2.48h-.34c-.01,1.11-.42,2.55-1.74,2.61v.3Zm5.36,2.51c0,1.74,1.4,3.04,2.98,3.04s3-1.32,3-3.04-1.35-3.16-2.98-3.16-3,1.47-3,3.16Zm1.12-.11c0-.53,0-1.26.32-1.85.36-.62,1-.9,1.54-.9.59,0,1.17.3,1.53.88s.35,1.36.35,1.88c0,.49,0,1.22-.3,1.81-.3.61-.89,1-1.57,1-.58,0-1.17-.28-1.54-.9-.34-.59-.34-1.42-.34-1.9Z"/>
    <path d="m226.31,5.87l-.18-.17c-.8.4-1.35.54-2.45.64l-.06.32h.73c.37,0,.52.11.52.37,0,.11-.02.28-.03.37l-1.55,8.43s-.02.11-.02.15c0,.6.73,1.1,1.58,1.1.57,0,1.35-.29,2-.77,1.47-1.04,2.48-3.14,2.48-5.16,0-.58-.14-1.18-.32-1.41-.11-.14-.31-.21-.54-.21-.37,0-.83.12-1.25.34-.78.41-1.29.87-2.23,2.08l1.32-6.09Zm1.33,4.56c.4,0,.6.35.6,1.1,0,.98-.32,2.3-.78,3.29-.5,1.06-1.12,1.55-1.94,1.55-.7,0-1.09-.35-1.09-.99,0-.52.23-2.68,1.47-3.98.5-.52,1.3-.96,1.74-.96Z"/>
  </g>
  <g>
    <path d="m278.91,16.94c.47-.04,1.47-.04,1.98-.04s1.53,0,2,.04v-.42h-.32c-1.04,0-1.07-.15-1.07-.63v-3.21h2.28c1.62,0,3.08-1.09,3.08-2.44s-1.34-2.51-3.19-2.51h-4.77v.42h.32c1.04,0,1.07.15,1.07.63v7.11c0,.49-.03.63-1.07.63h-.32v.42Zm2.55-4.62v-3.65c0-.45.03-.54.66-.54h1.2c2.15,0,2.15,1.43,2.15,2.09s0,2.09-2.15,2.09h-1.86Zm6.53,4.62c.53-.01,1.16-.04,1.54-.04.54,0,1.17,0,1.71.04v-.42h-.28c-1,0-1.03-.15-1.03-.63v-2.08c0-1.34.57-2.54,1.59-2.54.09,0,.12,0,.15.01-.04.01-.31.18-.31.53,0,.38.28.58.58.58.24,0,.58-.16.58-.59s-.42-.82-1-.82c-.99,0-1.47.9-1.66,1.49v-1.49l-1.88.15v.42c.95,0,1.05.09,1.05.76v3.62c0,.61-.15.61-1.05.61v.42Zm5.28-2.89c0,1.74,1.4,3.04,2.98,3.04s3-1.32,3-3.04-1.35-3.16-2.98-3.16-3,1.47-3,3.16Zm1.12-.11c0-.53,0-1.26.32-1.85.36-.62,1-.9,1.54-.9.59,0,1.17.3,1.53.88s.35,1.36.35,1.88c0,.49,0,1.22-.3,1.81-.3.61-.89,1-1.57,1-.58,0-1.17-.28-1.54-.9-.34-.59-.34-1.42-.34-1.9Zm7.41-5.32c0,.39.32.72.72.72s.72-.32.72-.72-.32-.72-.72-.72-.72.32-.72.72Zm-1.94,10c0,.7.76,1.08,1.53,1.08,1.01,0,1.85-.86,1.85-2.09v-6.64l-2.05.15v.42c1.04,0,1.16.09,1.16.76v5.35c0,.61-.12,1.77-.99,1.77-.07,0-.38,0-.73-.18.2-.05.47-.24.47-.61s-.24-.62-.62-.62-.62.27-.62.62Zm5.04-4.66c0,1.81,1.42,3.12,2.97,3.12,1.65,0,2.25-1.5,2.25-1.76,0-.14-.11-.16-.18-.16-.12,0-.15.08-.18.19-.47,1.39-1.69,1.39-1.82,1.39-.68,0-1.22-.41-1.53-.9-.41-.65-.41-1.54-.41-2.03h3.77c.3,0,.34,0,.34-.28,0-1.34-.73-2.65-2.42-2.65-1.57,0-2.81,1.39-2.81,3.08Zm1.13-.43c.08-2.01,1.22-2.35,1.67-2.35,1.39,0,1.53,1.82,1.53,2.35h-3.2Zm4.94.49c0,1.73,1.34,3.06,2.9,3.06,1.81,0,2.24-1.62,2.24-1.76s-.14-.14-.18-.14c-.12,0-.15.05-.18.14-.39,1.26-1.27,1.42-1.77,1.42-.72,0-1.9-.58-1.9-2.75s1.11-2.77,1.82-2.77c.12,0,.97.01,1.44.5-.55.04-.63.45-.63.62,0,.35.24.62.62.62.35,0,.62-.23.62-.63,0-.92-1.03-1.44-2.07-1.44-1.69,0-2.93,1.46-2.93,3.13Zm5.79-2.48h1.15v3.73c0,1.66,1.26,1.82,1.74,1.82.96,0,1.34-.96,1.34-1.82v-.77h-.34v.74c0,1-.41,1.51-.9,1.51-.9,0-.9-1.23-.9-1.46v-3.75h1.93v-.42h-1.93v-2.48h-.34c-.01,1.11-.42,2.55-1.74,2.61v.3Zm5.99-2.92c0,.36.3.72.72.72.38,0,.72-.28.72-.72s-.34-.72-.72-.72c-.42,0-.72.36-.72.72Zm-.57,8.32c.43-.01,1.16-.04,1.49-.04.47,0,.95.03,1.4.04v-.42c-.89,0-.95-.07-.95-.59v-4.95l-1.89.15v.42c.88,0,1,.08,1,.74v3.63c0,.61-.15.61-1.05.61v.42Zm3.67-2.89c0,1.74,1.4,3.04,2.98,3.04s3-1.32,3-3.04-1.35-3.16-2.98-3.16-3,1.47-3,3.16Zm1.12-.11c0-.53,0-1.26.32-1.85.36-.62,1-.9,1.54-.9.59,0,1.17.3,1.53.88s.35,1.36.35,1.88c0,.49,0,1.22-.3,1.81-.3.61-.89,1-1.57,1-.58,0-1.17-.28-1.54-.9-.34-.59-.34-1.42-.34-1.9Zm5.68,3c.47-.01,1.16-.04,1.53-.04s1.05.03,1.51.04v-.42c-.9,0-1.05,0-1.05-.61v-2.48c0-1.4.96-2.16,1.82-2.16s1,.73,1,1.5v3.15c0,.61-.15.61-1.05.61v.42c.47-.01,1.16-.04,1.53-.04s1.05.03,1.51.04v-.42c-.7,0-1.04,0-1.05-.41v-2.58c0-1.16,0-1.58-.42-2.07-.19-.23-.63-.5-1.42-.5-.99,0-1.62.58-2,1.42v-1.42l-1.9.15v.42c.95,0,1.05.09,1.05.76v3.62c0,.61-.15.61-1.05.61v.42Zm11.81-5.4h1.15v3.73c0,1.66,1.26,1.82,1.74,1.82.96,0,1.34-.96,1.34-1.82v-.77h-.34v.74c0,1-.41,1.51-.9,1.51-.9,0-.9-1.23-.9-1.46v-3.75h1.93v-.42h-1.93v-2.48h-.34c-.01,1.11-.42,2.55-1.74,2.61v.3Zm5.36,2.51c0,1.74,1.4,3.04,2.98,3.04s3-1.32,3-3.04-1.35-3.16-2.98-3.16-3,1.47-3,3.16Zm1.12-.11c0-.53,0-1.26.32-1.85.36-.62,1-.9,1.54-.9.59,0,1.17.3,1.53.88s.35,1.36.35,1.88c0,.49,0,1.22-.3,1.81-.3.61-.89,1-1.57,1-.58,0-1.17-.28-1.54-.9-.34-.59-.34-1.42-.34-1.9Z"/>
    <path d="m364.86,13.8l-.44,1.94c-.06.26-.09.54-.09.78,0,.34.14.54.37.54.35,0,.98-.4,2.23-1.44l-.11-.32c-.37.31-.81.72-1.15.72-.14,0-.23-.14-.23-.35,0-.08,0-.12.02-.17l1.41-5.8-.15-.14-.5.28c-.63-.23-.89-.29-1.3-.29s-.73.08-1.15.28c-.95.47-1.45.93-1.84,1.68-.67,1.36-1.15,3.2-1.15,4.39,0,.67.23,1.19.52,1.19.57,0,1.79-.8,3.56-3.29Zm.73-3.21c-.34,1.67-.63,2.46-1.15,3.26-.87,1.29-1.81,2.17-2.3,2.17-.18,0-.28-.2-.28-.61,0-.98.43-2.77.96-3.99.37-.84.72-1.12,1.45-1.12.35,0,.63.06,1.3.29Z"/>
  </g>
  <path d="m347.72,53.23l-.49,2.16c-.07.29-.1.6-.1.87,0,.37.15.6.41.6.39,0,1.09-.44,2.48-1.6l-.12-.36c-.41.34-.9.8-1.28.8-.15,0-.26-.15-.26-.39,0-.09,0-.14.02-.19l1.56-6.44-.17-.15-.56.31c-.7-.26-.99-.32-1.45-.32s-.82.09-1.28.31c-1.05.53-1.62,1.04-2.04,1.87-.75,1.51-1.28,3.55-1.28,4.88,0,.75.26,1.33.58,1.33.63,0,1.99-.88,3.96-3.66Zm.82-3.57c-.37,1.85-.7,2.74-1.28,3.62-.97,1.43-2.01,2.41-2.55,2.41-.2,0-.31-.22-.31-.68,0-1.09.48-3.08,1.07-4.44.41-.94.8-1.24,1.62-1.24.39,0,.7.07,1.45.32Z"/>
  <path d="m217.11,74.43l-.2-.19c-.88.44-1.5.6-2.72.71l-.07.36h.82c.41,0,.58.12.58.41,0,.12-.02.31-.03.41l-1.72,9.37c-.02.05-.02.12-.02.17,0,.66.82,1.22,1.75,1.22.63,0,1.5-.32,2.23-.85,1.63-1.16,2.75-3.49,2.75-5.73,0-.65-.15-1.31-.36-1.56-.12-.15-.34-.24-.6-.24-.41,0-.92.14-1.39.37-.87.46-1.43.97-2.48,2.31l1.46-6.77Zm1.48,5.07c.44,0,.66.39.66,1.22,0,1.09-.36,2.55-.87,3.66-.56,1.17-1.24,1.72-2.16,1.72-.78,0-1.21-.39-1.21-1.11,0-.58.26-2.98,1.63-4.42.56-.58,1.45-1.07,1.94-1.07Z"/>
  <g>
    <g>
      <path d="m7.92,15.93c.47-.04,1.47-.04,1.98-.04s1.53,0,2,.04v-.42h-.32c-1.04,0-1.07-.15-1.07-.63v-3.21h2.28c1.62,0,3.08-1.09,3.08-2.44s-1.34-2.51-3.19-2.51h-4.77v.42h.32c1.04,0,1.07.15,1.07.63v7.11c0,.49-.03.63-1.07.63h-.32v.42Zm2.55-4.62v-3.65c0-.45.03-.54.66-.54h1.2c2.15,0,2.15,1.43,2.15,2.09s0,2.09-2.15,2.09h-1.86Zm6.53,4.62c.53-.01,1.16-.04,1.54-.04.54,0,1.17,0,1.71.04v-.42h-.28c-1,0-1.03-.15-1.03-.63v-2.08c0-1.34.57-2.54,1.59-2.54.09,0,.12,0,.15.01-.04.01-.31.18-.31.53,0,.38.28.58.58.58.24,0,.58-.16.58-.59s-.42-.82-1-.82c-.99,0-1.47.9-1.66,1.49v-1.49l-1.88.15v.42c.95,0,1.05.09,1.05.76v3.62c0,.61-.15.61-1.05.61v.42Zm5.28-2.89c0,1.74,1.4,3.04,2.98,3.04s3-1.32,3-3.04-1.35-3.16-2.98-3.16-3,1.47-3,3.16Zm1.12-.11c0-.53,0-1.26.32-1.85.36-.62,1-.9,1.54-.9.59,0,1.17.3,1.53.88s.35,1.36.35,1.88c0,.49,0,1.22-.3,1.81-.3.61-.89,1-1.57,1-.58,0-1.17-.28-1.54-.9-.34-.59-.34-1.42-.34-1.9Zm7.41-5.32c0,.39.32.72.72.72s.72-.32.72-.72-.32-.72-.72-.72-.72.32-.72.72Zm-1.94,10c0,.7.76,1.08,1.53,1.08,1.01,0,1.85-.86,1.85-2.09v-6.64l-2.05.15v.42c1.04,0,1.16.09,1.16.76v5.35c0,.61-.12,1.77-.99,1.77-.07,0-.38,0-.73-.18.2-.05.47-.24.47-.61s-.24-.62-.62-.62-.62.27-.62.62Zm5.04-4.66c0,1.81,1.42,3.12,2.97,3.12,1.65,0,2.25-1.5,2.25-1.76,0-.14-.11-.16-.18-.16-.12,0-.15.08-.18.19-.47,1.39-1.69,1.39-1.82,1.39-.68,0-1.22-.41-1.53-.9-.41-.65-.41-1.54-.41-2.03h3.77c.3,0,.34,0,.34-.28,0-1.34-.73-2.65-2.42-2.65-1.57,0-2.81,1.39-2.81,3.08Zm1.13-.43c.08-2.01,1.22-2.35,1.67-2.35,1.39,0,1.53,1.82,1.53,2.35h-3.2Zm4.94.49c0,1.73,1.34,3.06,2.9,3.06,1.81,0,2.24-1.62,2.24-1.76s-.14-.14-.18-.14c-.12,0-.15.05-.18.14-.39,1.26-1.27,1.42-1.77,1.42-.72,0-1.9-.58-1.9-2.75s1.11-2.77,1.82-2.77c.12,0,.97.01,1.44.5-.55.04-.63.45-.63.62,0,.35.24.62.62.62.35,0,.62-.23.62-.63,0-.92-1.03-1.44-2.07-1.44-1.69,0-2.93,1.46-2.93,3.13Zm5.79-2.48h1.15v3.73c0,1.66,1.26,1.82,1.74,1.82.96,0,1.34-.96,1.34-1.82v-.77h-.34v.74c0,1-.41,1.51-.9,1.51-.9,0-.9-1.23-.9-1.46v-3.75h1.93v-.42h-1.93v-2.48h-.34c-.01,1.11-.42,2.55-1.74,2.61v.3Zm5.99-2.92c0,.36.3.72.72.72.38,0,.72-.28.72-.72s-.34-.72-.72-.72c-.42,0-.72.36-.72.72Zm-.57,8.32c.43-.01,1.16-.04,1.49-.04.47,0,.95.03,1.4.04v-.42c-.89,0-.95-.07-.95-.59v-4.95l-1.89.15v.42c.88,0,1,.08,1,.74v3.63c0,.61-.15.61-1.05.61v.42Zm3.67-2.89c0,1.74,1.4,3.04,2.98,3.04s3-1.32,3-3.04-1.35-3.16-2.98-3.16-3,1.47-3,3.16Zm1.12-.11c0-.53,0-1.26.32-1.85.36-.62,1-.9,1.54-.9.59,0,1.17.3,1.53.88s.35,1.36.35,1.88c0,.49,0,1.22-.3,1.81-.3.61-.89,1-1.57,1-.58,0-1.17-.28-1.54-.9-.34-.59-.34-1.42-.34-1.9Zm5.68,3c.47-.01,1.16-.04,1.53-.04s1.05.03,1.51.04v-.42c-.9,0-1.05,0-1.05-.61v-2.48c0-1.4.96-2.16,1.82-2.16s1,.73,1,1.5v3.15c0,.61-.15.61-1.05.61v.42c.47-.01,1.16-.04,1.53-.04s1.05.03,1.51.04v-.42c-.7,0-1.04,0-1.05-.41v-2.58c0-1.16,0-1.58-.42-2.07-.19-.23-.63-.5-1.42-.5-.99,0-1.62.58-2,1.42v-1.42l-1.9.15v.42c.95,0,1.05.09,1.05.76v3.62c0,.61-.15.61-1.05.61v.42Zm11.81-5.4h1.15v3.73c0,1.66,1.26,1.82,1.74,1.82.96,0,1.34-.96,1.34-1.82v-.77h-.34v.74c0,1-.41,1.51-.9,1.51-.9,0-.9-1.23-.9-1.46v-3.75h1.93v-.42h-1.93v-2.48h-.34c-.01,1.11-.42,2.55-1.74,2.61v.3Zm5.36,2.51c0,1.74,1.4,3.04,2.98,3.04s3-1.32,3-3.04-1.35-3.16-2.98-3.16-3,1.47-3,3.16Zm1.12-.11c0-.53,0-1.26.32-1.85.36-.62,1-.9,1.54-.9.59,0,1.17.3,1.53.88s.35,1.36.35,1.88c0,.49,0,1.22-.3,1.81-.3.61-.89,1-1.57,1-.58,0-1.17-.28-1.54-.9-.34-.59-.34-1.42-.34-1.9Z"/>
      <path d="m96.11,15.96v-.46l-.8-.05c-.84-.05-.99-.21-.99-1.01V5.2l-3.69,1.56.11.77,2.3-1.01v7.93c0,.8-.17.96-.99,1.01l-.86.05v.46q2.36-.05,2.52-.05c.47,0,2.16.05,2.4.05Z"/>
    </g>
    <path d="m27.01,34.19c0,.8.12,1.65.36,2.32.34.9.92,1.69,1.11,1.69.08,0,.14-.05.14-.14,0-.03,0-.05-.09-.19-.73-1.11-.84-2.25-.84-3.2,0-1.84.8-6.84,4.04-9.6.19-.19.2-.2.2-.24,0-.09-.05-.14-.14-.14-.15,0-1.7,1.09-2.88,3.01-1.49,2.44-1.9,5.04-1.9,6.48Zm4.23.46c0,.15.09.18.19.18.54,0,1.11-.04,1.66-.04s1.13.04,1.67.04c.09,0,.27,0,.27-.26,0-.16-.11-.16-.38-.16-.84,0-.84-.09-.84-.24,0-.01,0-.09.05-.3l1.82-7.29c.11-.43.19-.55,1.12-.55.28,0,.42,0,.42-.26,0-.16-.14-.16-.19-.16-.54,0-1.11.04-1.66.04s-1.13-.04-1.69-.04c-.09,0-.26,0-.26.24,0,.18.09.18.36.18.46,0,.85,0,.85.23,0,.04-.03.22-.04.26l-1.84,7.34c-.11.45-.23.55-1.13.55-.28,0-.41,0-.41.24Zm5.55-3.71c0,.14.14.14.2.14.18,0,.19-.01.26-.31.24-.95.5-1.61.92-1.61.35,0,.35.39.35.54,0,.22-.04.47-.09.69l-1.01,4.05c-.03.08-.04.15-.04.19,0,.15.11.35.38.35.16,0,.39-.09.49-.35l.54-2.16c.07-.3.15-.58.22-.88.18-.69.18-.7.41-1.09.19-.32.8-1.34,1.82-1.34.59,0,.62.61.62.89,0,.84-.59,2.44-.78,2.98-.18.46-.22.58-.22.86,0,.59.38,1.08,1.03,1.08,1.26,0,1.71-2.01,1.71-2.08,0-.14-.11-.14-.2-.14-.18,0-.18.03-.23.23-.11.36-.47,1.69-1.26,1.69-.28,0-.3-.2-.3-.39,0-.34.14-.69.24-1.01.27-.72.82-2.23.82-3.01,0-1.11-.74-1.4-1.4-1.4-1.11,0-1.76.81-1.93,1.07-.09-.66-.55-1.07-1.13-1.07-.49,0-.76.31-.97.72-.26.54-.43,1.34-.43,1.36Zm7.92,1.94c0,1.15.62,2.09,1.63,2.09.49,0,1.08-.28,1.62-.95.15.66.65.95,1.12.95.5,0,.78-.34.99-.76.24-.51.41-1.3.41-1.32,0-.14-.11-.14-.2-.14-.16,0-.18.01-.26.31-.19.76-.45,1.61-.9,1.61-.35,0-.35-.36-.35-.55,0-.09,0-.3.08-.62l1.93-7.71s.04-.15.04-.18c0-.12-.08-.16-.19-.16-.04,0-.18.01-.22.03l-1.34.11c-.16.01-.31.03-.31.28,0,.15.14.15.32.15.65,0,.68.09.68.23,0,.04-.04.22-.04.23l-.78,3.16c-.2-.42-.57-.78-1.13-.78-1.5,0-3.09,2.05-3.09,4.02Zm.92.59c0-.68.42-2.25.66-2.82.34-.82.96-1.5,1.51-1.5.11,0,.42.01.66.39.14.22.27.61.27.86,0,.04-.01.09-.04.18l-.65,2.59c-.11.42-.93,1.5-1.67,1.5-.63,0-.74-.8-.74-1.2Zm6.06-.86c0,1.22.65,2.36,1.93,2.36,1.73,0,2.85-1.35,2.85-1.55,0-.07-.11-.22-.22-.22-.05,0-.07.01-.18.15-1,1.27-2.2,1.32-2.43,1.32-.88,0-1.03-.96-1.03-1.49s.14-1.12.23-1.49h.53c.41,0,1.31-.04,1.96-.3,1.07-.43,1.07-1.31,1.07-1.4,0-.62-.5-1.15-1.36-1.15-1.42,0-3.35,1.36-3.35,3.75Zm1.24-1.2c.58-2.21,1.97-2.25,2.11-2.25.54,0,.85.36.85.82,0,1.43-2.23,1.43-2.67,1.43h-.28Zm4.14,2.73c0,.53.57.84,1.19.84s1.09-.51,1.32-.92c.27.77.93.92,1.28.92,1.39,0,2.08-1.81,2.08-2.08,0-.14-.11-.14-.2-.14-.16,0-.18.01-.24.23-.36,1.16-1.04,1.69-1.61,1.69-.27,0-.63-.16-.63-.86,0-.32.15-.9.26-1.36.15-.57.35-1.4.46-1.85.19-.7.55-1.44,1.19-1.44.04,0,.38,0,.59.19-.54.14-.54.63-.54.65,0,.18.12.43.47.43.24,0,.66-.19.66-.72,0-.69-.78-.85-1.17-.85-.74,0-1.19.66-1.32.92-.3-.81-.96-.92-1.3-.92-1.35,0-2.08,1.77-2.08,2.08,0,.14.14.14.2.14.18,0,.18-.01.24-.23.36-1.16,1.07-1.69,1.61-1.69.39,0,.65.31.65.85,0,.32-.16.99-.28,1.49-.15.55-.16.61-.31,1.23-.22.88-.5,1.96-1.31,1.96-.04,0-.36,0-.59-.19.41-.11.53-.45.53-.65,0-.35-.28-.43-.46-.43-.34,0-.68.28-.68.73Zm7.07-1.53c0,1.22.65,2.36,1.93,2.36,1.73,0,2.85-1.35,2.85-1.55,0-.07-.11-.22-.22-.22-.05,0-.07.01-.18.15-1,1.27-2.2,1.32-2.43,1.32-.88,0-1.03-.96-1.03-1.49s.14-1.12.23-1.49h.53c.41,0,1.31-.04,1.96-.3,1.07-.43,1.07-1.31,1.07-1.4,0-.62-.5-1.15-1.36-1.15-1.42,0-3.35,1.36-3.35,3.75Zm1.24-1.2c.58-2.21,1.97-2.25,2.11-2.25.54,0,.85.36.85.82,0,1.43-2.23,1.43-2.67,1.43h-.28Zm4.46,2.25c0,.82.78,1.31,1.74,1.31,2.03,0,2.54-1.65,2.54-2.27,0-1.17-1.05-1.42-1.61-1.54-.38-.08-.86-.19-.86-.77,0-.32.28-1.24,1.36-1.24.36,0,.86.14,1.01.66-.43.05-.54.42-.54.55,0,.15.08.38.41.38.23,0,.58-.16.58-.74,0-.62-.55-1.15-1.44-1.15-1.58,0-2.13,1.3-2.13,2,0,1.04.88,1.23,1.26,1.31.59.14,1.2.27,1.2,1,0,.43-.36,1.51-1.76,1.51-.3,0-1.08-.07-1.3-.76.69-.07.69-.63.69-.66,0-.26-.18-.43-.46-.43-.31,0-.69.23-.69.84Zm4.73,4.4c0,.09.05.14.14.14.15,0,1.7-1.09,2.88-3.01,1.49-2.44,1.9-5.04,1.9-6.48,0-.8-.12-1.65-.36-2.32-.34-.9-.92-1.69-1.11-1.69-.08,0-.14.05-.14.14,0,.03,0,.05.09.19.73,1.11.84,2.25.84,3.2,0,1.84-.8,6.84-4.04,9.6-.19.19-.2.2-.2.24Z"/>
  </g>
</svg>