<?xml version="1.0" encoding="UTF-8"?>
<svg id="Layer_1" data-name="Layer 1" xmlns="http://www.w3.org/2000/svg" viewBox="0 0 600 485">
  <defs>
    <style>
      .cls-1 {
        stroke-width: 3px;
      }

      .cls-1, .cls-2, .cls-3, .cls-4, .cls-5, .cls-6, .cls-7, .cls-8, .cls-9, .cls-10 {
        stroke: #000;
      }

      .cls-1, .cls-5, .cls-10 {
        fill: none;
      }

      .cls-2 {
        stroke-miterlimit: 4;
        stroke-width: 1px;
      }

      .cls-3 {
        stroke-miterlimit: 4;
        stroke-width: 1px;
      }

      .cls-4 {
        fill: #e2e2fa;
      }

      .cls-4, .cls-9 {
        stroke-dasharray: 0 0 1.12 3.35;
      }

      .cls-5 {
        stroke-dasharray: 0 0 6 6;
      }

      .cls-6 {
        stroke-miterlimit: 4;
        stroke-width: 1px;
      }

      .cls-7 {
        stroke-miterlimit: 4;
        stroke-width: 1px;
      }

      .cls-8 {
        stroke-miterlimit: 4;
        stroke-width: 1px;
      }

      .cls-9 {
        fill: #f3f3f4;
      }
    </style>
  </defs>
  <g>
    <polygon class="cls-9" points="359.63 335.25 359.63 445.25 189.63 445.25 189.63 335.25 359.63 335.25"/>
    <polygon class="cls-9" points="179.63 335.25 179.63 475.25 9.63 475.25 9.63 335.25 179.63 335.25"/>
    <polygon class="cls-9" points="359.63 225.25 359.63 325.25 9.63 325.25 9.63 225.25 359.63 225.25"/>
    <polygon class="cls-9" points="359.63 115.25 359.63 215.25 9.63 215.25 9.63 115.25 359.63 115.25"/>
    <polygon class="cls-9" points="159.63 5.25 159.63 95.25 9.63 95.25 9.63 5.25 159.63 5.25"/>
    <g>
      <path class="cls-10" d="m99.63,65.24c-10-10.16-15.6-19.76-40-20"/>
      <circle class="cls-7" cx="99.63" cy="65.23" r="3.35"/>
    </g>
    <path class="cls-10" d="m99.63,65.24h40"/>
    <path class="cls-5" d="m29.63,65.24h40"/>
    <path class="cls-10" d="m99.63,65.24c-10,9.84-15.6,20.24-40,20"/>
    <path class="cls-10" d="m29.63,45.24h30"/>
    <path class="cls-10" d="m29.63,85.24h30"/>
    <g>
      <path class="cls-10" d="m119.63,285.25c-10-10.16-15.6-9.75-40-9.99"/>
      <circle class="cls-7" cx="119.63" cy="285.25" r="3.35"/>
    </g>
    <g>
      <path class="cls-10" d="m119.63,285.25h27"/>
      <path d="m138.91,290.41l10.72-5.14-10.72-5.16,3.6,5.15-3.6,5.15Z"/>
    </g>
    <path class="cls-5" d="m29.63,285.25h60"/>
    <path class="cls-10" d="m119.63,285.25c-10,9.84-15.6,10.24-40,10"/>
    <g>
      <path class="cls-10" d="m70.63,275.25h9"/>
      <path d="m60.91,280.4l10.72-5.15-10.72-5.15,3.6,5.15-3.6,5.15Z"/>
    </g>
    <g>
      <path class="cls-10" d="m70.63,295.26h9"/>
      <path d="m60.91,300.42l10.71-5.16-10.73-5.14,3.61,5.14-3.59,5.16Z"/>
    </g>
    <path class="cls-10" d="m29.63,265.25h160"/>
    <path class="cls-10" d="m29.63,305.25h160"/>
    <g>
      <path class="cls-10" d="m309.63,175.24c-10-10.16-15.6-19.76-40-20"/>
      <circle class="cls-7" cx="309.63" cy="175.23" r="3.35"/>
    </g>
    <path class="cls-10" d="m309.63,175.24h40"/>
    <path class="cls-5" d="m239.63,175.24h40"/>
    <path class="cls-10" d="m309.63,175.24c-10,9.84-15.6,20.24-40,20"/>
    <path class="cls-10" d="m239.63,155.24h30"/>
    <path class="cls-10" d="m239.63,195.24h30"/>
    <g>
      <path class="cls-10" d="m309.63,285.24c-10-10.16-15.6-19.76-40-20"/>
      <circle class="cls-7" cx="309.63" cy="285.23" r="3.35"/>
    </g>
    <g>
      <path class="cls-10" d="m309.63,285.24h27"/>
      <path d="m328.91,290.39l10.72-5.14-10.72-5.16,3.6,5.15-3.6,5.15Z"/>
    </g>
    <path class="cls-5" d="m239.63,285.24h40"/>
    <path class="cls-10" d="m309.63,285.24c-10,9.84-15.6,20.24-40,20"/>
    <path class="cls-10" d="m239.63,265.24h110"/>
    <path class="cls-10" d="m239.63,305.24h110"/>
    <g>
      <path class="cls-10" d="m309.63,395.24c-10-10.16-15.6-19.75-40-19.99"/>
      <circle class="cls-7" cx="309.63" cy="395.23" r="3.35"/>
    </g>
    <path class="cls-10" d="m309.63,395.24h40"/>
    <path class="cls-5" d="m199.63,395.25h80"/>
    <path class="cls-10" d="m309.63,395.24c-10,9.84-15.6,20.24-40,20"/>
    <path class="cls-10" d="m199.63,375.25h70"/>
    <path class="cls-10" d="m199.63,415.25h70"/>
    <path class="cls-10" d="m199.63,435.25h150"/>
    <path class="cls-5" d="m19.63,416.24h70"/>
    <path class="cls-10" d="m19.63,376.25h70"/>
    <path class="cls-10" d="m19.63,406.25h70"/>
    <path class="cls-5" d="m19.63,386.25h70"/>
    <path class="cls-10" d="m19.63,436.24h70"/>
    <path class="cls-10" d="m19.63,466.25h70"/>
    <path class="cls-5" d="m19.63,446.25h70"/>
    <g>
      <path class="cls-10" d="m129.63,406.25c-9.8,9.95-15.6,30.24-40,30"/>
      <circle class="cls-8" cx="129.63" cy="406.25" r="3.35"/>
    </g>
    <g>
      <path class="cls-10" d="m129.63,406.25c-10-10.16-15.6-29.76-40-30"/>
      <circle class="cls-7" cx="129.63" cy="406.25" r="3.35"/>
    </g>
    <g>
      <path class="cls-10" d="m129.63,436.25c-9.8,9.95-15.6,30.24-40,30"/>
      <circle class="cls-8" cx="129.63" cy="436.25" r="3.35"/>
    </g>
    <g>
      <path class="cls-10" d="m129.63,436.25c-10-10.16-15.6-29.76-40-30"/>
      <circle class="cls-7" cx="129.63" cy="436.25" r="3.35"/>
    </g>
    <path class="cls-5" d="m129.63,416.25c-9.8,9.95-20.6,30.24-45,30"/>
    <path class="cls-5" d="m129.63,416.25c-10-10.16-20.6-29.76-45-30"/>
    <path class="cls-10" d="m129.63,406.25h40"/>
    <path class="cls-10" d="m129.63,436.25h40"/>
    <path class="cls-5" d="m129.63,416.25h40"/>
    <g>
      <path class="cls-10" d="m60.63,165.25h9"/>
      <path d="m50.91,170.4l10.72-5.15-10.72-5.15,3.6,5.15-3.6,5.15Z"/>
    </g>
    <path class="cls-10" d="m29.63,195.25h40"/>
    <path class="cls-5" d="m29.63,175.25h40"/>
    <path class="cls-10" d="m29.63,155.25h50"/>
    <path class="cls-1" d="m109.63,145.25v20"/>
    <g>
      <path class="cls-10" d="m60.63,205.25l49-.04"/>
      <path d="m50.91,210.41l10.72-5.16-10.72-5.14,3.6,5.15-3.6,5.15Z"/>
    </g>
    <path class="cls-10" d="m109.63,155.25c-24.05.22-15.6,40.24-40,40"/>
    <path class="cls-10" d="m79.63,155.25h40"/>
    <path class="cls-10" d="m109.63,165.25c1.67-1.67,3.33-1.67,5,0s3.33,1.67,5,0,3.33-1.67,5,0,3.33,1.67,5,0,3.33-1.67,5,0,3.33,1.67,5,0,3.33-1.67,5,0,3.33,1.67,5,0,3.33-1.67,5,0,3.33,1.67,5,0h0"/>
    <path class="cls-10" d="m119.63,155.25h70"/>
    <path class="cls-5" d="m109.63,195.25c-24.05.22-15.6-19.76-40-20"/>
    <path class="cls-10" d="m109.63,185.25c-24.05.21-15.6-19.76-40-20"/>
    <g>
      <path class="cls-10" d="m139.63,195.21c-7.5-10.16-11.7-9.77-30-10.01"/>
      <circle class="cls-6" cx="139.63" cy="195.2" r="3.35"/>
    </g>
    <path class="cls-10" d="m139.63,195.21c-7.5,9.84-11.7,10.24-30,10"/>
    <g>
      <path class="cls-10" d="m139.63,195.21l17,.03"/>
      <path d="m148.9,200.37l10.73-5.13-10.71-5.17,3.59,5.16-3.61,5.14Z"/>
    </g>
    <polygon class="cls-4" points="529.63 5.25 529.63 95.25 379.63 95.25 379.63 5.25 529.63 5.25"/>
    <g>
      <path class="cls-10" d="m439.63,65.25c7.36-12.93,14.36-19.93,40-20"/>
      <circle class="cls-3" cx="439.63" cy="65.25" r="3.35"/>
    </g>
    <path class="cls-10" d="m479.63,45.25h30"/>
    <path class="cls-10" d="m399.63,65.25h40"/>
    <g>
      <path class="cls-10" d="m439.63,65.25c7.36,13.07,14.36,20.07,40,20"/>
      <circle class="cls-2" cx="439.63" cy="65.25" r="3.35"/>
    </g>
    <path class="cls-10" d="m479.63,85.25h30"/>
    <path class="cls-5" d="m439.63,65.25h70"/>
    <polygon class="cls-4" points="589.63 115.25 589.63 305.25 379.63 305.25 379.63 115.25 589.63 115.25"/>
    <g>
      <path class="cls-10" d="m499.63,265.25c7.36-12.93,14.36-19.93,40-20"/>
      <circle class="cls-3" cx="499.63" cy="265.25" r="3.35"/>
    </g>
    <path class="cls-10" d="m539.63,245.25h30"/>
    <path class="cls-10" d="m459.63,265.25h40"/>
    <g>
      <path class="cls-10" d="m499.63,265.25c7.36,13.07,14.36,20.07,40,20"/>
      <circle class="cls-2" cx="499.63" cy="265.25" r="3.35"/>
    </g>
    <path class="cls-10" d="m539.63,285.25h30"/>
    <path class="cls-5" d="m499.63,265.25h70"/>
    <g>
      <path class="cls-10" d="m439.63,195.25c7.36-12.93,14.36-9.93,40-10"/>
      <circle class="cls-3" cx="439.63" cy="195.25" r="3.35"/>
    </g>
    <g>
      <path class="cls-10" d="m420.63,195.26h19"/>
      <path d="m410.91,200.42l10.72-5.16-10.72-5.14,3.6,5.15-3.6,5.15Z"/>
    </g>
    <g>
      <path class="cls-10" d="m439.63,195.25c7.36,13.07,14.36,10.07,40,10"/>
      <circle class="cls-2" cx="439.63" cy="195.25" r="3.35"/>
    </g>
    <path class="cls-10" d="m399.63,165.25h80"/>
    <path class="cls-10" d="m439.63,175.25c1.67-1.67,3.33-1.67,5,0s3.33,1.67,5,0,3.33-1.67,5,0,3.33,1.67,5,0,3.33-1.67,5,0,3.33,1.67,5,0,3.33-1.67,5,0,3.33,1.67,5,0h0"/>
    <path class="cls-5" d="m444.63,195.25h35"/>
    <path class="cls-1" d="m479.63,155.25v20"/>
    <path class="cls-10" d="m479.63,165.25h90"/>
    <path class="cls-5" d="m519.63,185.25h50"/>
    <path class="cls-5" d="m479.63,195.25c13.74-.35,20.24-9.55,40-10"/>
    <path class="cls-10" d="m519.63,205.25h50"/>
    <path class="cls-10" d="m479.63,205.25c24.74.45,15.74,8.95,40,10"/>
    <path class="cls-10" d="m519.63,205.25c-24.05.22-15.6-39.76-40-40"/>
    <path class="cls-10" d="m479.63,185.25c24.74.45,15.74-11.05,40-10"/>
    <g>
      <path class="cls-10" d="m519.63,175.25l17,.04"/>
      <path d="m528.9,180.42l10.73-5.13-10.71-5.17,3.59,5.16-3.61,5.14Z"/>
    </g>
    <g>
      <path class="cls-10" d="m519.63,215.25l17,.04"/>
      <path d="m528.9,220.42l10.73-5.13-10.71-5.17,3.59,5.16-3.61,5.14Z"/>
    </g>
    <path class="cls-10" d="m10,105.25h580"/>
  </g>
  <path d="m86.68,65.71v-1.2h-4.9v-4.86h-1.2v4.86h-4.9v1.2h4.9v4.92h1.2v-4.92h4.9Z"/>
  <path d="m61.76,20.7h1.12l1.14-3.06h4.35l1.15,3.06h1.38l-3.9-10.41h-1.33l-3.91,10.41Zm2.58-3.9c1.18-3.24,1.74-4.9,1.86-5.46.09.55.49,1.68,1.86,5.46h-3.72Zm7.12.58c0,1.78,1.05,3.48,2.58,3.48.99,0,1.71-.45,2.22-.94v.78h1.18v-10.83h-1.14v4.81c-.52-.42-1.23-.82-2.17-.82-1.48,0-2.67,1.54-2.67,3.52Zm1.17-.01c0-1.96,1.3-2.58,2.17-2.58h.03c.16,0,.64.01,1.11.45.27.25.31.34.31.58v2.86c0,.46-.7,1.24-1.6,1.24-.81,0-2.02-.58-2.02-2.56Zm6.58.01c0,1.78,1.05,3.48,2.58,3.48.99,0,1.71-.45,2.22-.94v.78h1.18v-10.83h-1.14v4.81c-.52-.42-1.23-.82-2.17-.82-1.48,0-2.67,1.54-2.67,3.52Zm1.17-.01c0-1.96,1.3-2.58,2.17-2.58h.03c.16,0,.64.01,1.11.45.27.25.31.34.31.58v2.86c0,.46-.7,1.24-1.6,1.24-.81,0-2.02-.58-2.02-2.56Zm7.27,3.33h1.12v-6.67h-1.12v6.67Zm-.1-8.85h1.35v-1.33h-1.35v1.33Zm2.74,3.06h1.26v4.03c0,1.65.73,1.92,1.23,1.92.67,0,1.44-.15,2.22-.57l-.24-.88c-.21.15-.67.49-1.32.49-.78,0-.81-.88-.81-1.3v-3.69h2.11v-.88h-2.11v-1.89h-1.05v1.89h-1.29v.88Zm6.36,5.79h1.12v-6.67h-1.12v6.67Zm-.1-8.85h1.35v-1.33h-1.35v1.33Zm2.92,5.53c0,2.04,1.57,3.48,3.28,3.48s3.3-1.42,3.3-3.46c0-1.87-1.38-3.61-3.3-3.61-1.77,0-3.28,1.56-3.28,3.6Zm1.17-.15c0-1.81,1.15-2.52,2.11-2.52s2.11.69,2.11,2.52-1.11,2.67-2.11,2.67-2.11-.78-2.11-2.67Zm7.08,3.46h1.17v-3.6c0-1.11.37-2.31,1.53-2.31,1.47,0,1.47,1.12,1.47,1.69v4.21h1.17v-4.32c0-1.05-.13-2.5-2.05-2.5-1.32,0-1.98.85-2.19,1.12v-1.05h-1.09v6.75Z"/>
  <path d="m38.46,42.03v-.51l-.88-.05c-.94-.05-1.11-.24-1.11-1.12v-10.27l-4.1,1.73.12.85,2.55-1.12v8.81c0,.88-.19,1.07-1.11,1.12l-.95.05v.51q2.62-.05,2.81-.05c.53,0,2.4.05,2.67.05Z"/>
  <path d="m38.46,82.03v-.51l-.88-.05c-.94-.05-1.11-.24-1.11-1.12v-10.27l-4.1,1.73.12.85,2.55-1.12v8.81c0,.88-.19,1.07-1.11,1.12l-.95.05v.51q2.62-.05,2.81-.05c.53,0,2.4.05,2.67.05Z"/>
  <path d="m114.46,62.03v-.51l-.88-.05c-.94-.05-1.11-.24-1.11-1.12v-10.27l-4.1,1.73.12.85,2.55-1.12v8.81c0,.88-.19,1.07-1.11,1.12l-.95.05v.51q2.62-.05,2.81-.05c.53,0,2.4.05,2.67.05Z"/>
  <path d="m32.78,130.7h3.72c.24,0,.48,0,.72-.03,2.11-.24,4.12-2.2,4.12-5.1,0-1.8-.81-3.6-2.29-4.57-.96-.63-1.77-.7-2.58-.7h-3.69v10.41Zm1.3-.84v-8.73h2.14c2.52,0,3.81,2.04,3.81,4.45,0,1.03-.25,2.07-.88,2.89-1.03,1.36-2.44,1.38-2.92,1.38h-2.14Zm9.31.84h1.12v-6.67h-1.12v6.67Zm-.1-8.85h1.35v-1.33h-1.35v1.33Zm2.88,8.34c1.12.61,2.04.67,2.55.67,2.01,0,2.44-1.24,2.44-2.07,0-.97-.69-1.6-1.3-1.87-.93-.42-2.53-.22-2.53-1.32,0-.37.22-.91,1.26-.91s1.56.27,2.16.55l.16-.99c-.82-.34-1.35-.46-2.19-.46-2.04,0-2.46,1.18-2.46,1.98,0,1.05.9,1.63,1.56,1.84.46.15,1.11.22,1.44.33.3.09.84.39.84.96,0,.4-.27,1.02-1.39,1.02-1.21,0-1.93-.51-2.35-.75l-.18,1.02Zm5.61-5.28h1.26v4.03c0,1.65.73,1.92,1.23,1.92.67,0,1.44-.15,2.22-.57l-.24-.88c-.21.15-.67.49-1.32.49-.78,0-.81-.88-.81-1.3v-3.69h2.11v-.88h-2.11v-1.89h-1.05v1.89h-1.29v.88Zm6.36,5.79h1.12v-3.09c0-2.19,1.66-2.7,2.55-2.73v-1c-1.59.03-2.38,1.05-2.62,1.42v-1.35h-1.05v6.75Zm5.13,0h1.12v-6.67h-1.12v6.67Zm-.1-8.85h1.35v-1.33h-1.35v1.33Zm3.69,8.85h1.17v-.69c.51.46,1.12.85,2.01.85,1.48,0,2.8-1.45,2.8-3.52,0-1.8-.97-3.46-2.46-3.46-.46,0-1.44.1-2.4.87v-4.87h-1.12v10.83Zm1.17-1.99v-2.8c0-.55.82-1.11,1.6-1.11s2.02.57,2.02,2.56-1.29,2.59-2.14,2.59c-.43,0-.88-.18-1.23-.6-.19-.28-.25-.25-.25-.64Zm6.57.16c0,.78,0,1.99,1.57,1.99.82,0,1.84-.21,2.62-.88v.72h1.14v-6.67h-1.17v4.2c0,.15,0,.28-.01.43-.07.64-.66,1.36-1.78,1.36-1.02,0-1.18-.33-1.2-.97v-5.02h-1.17v4.84Zm6.82-3.96h1.26v4.03c0,1.65.73,1.92,1.23,1.92.67,0,1.44-.15,2.22-.57l-.24-.88c-.21.15-.67.49-1.32.49-.78,0-.81-.88-.81-1.3v-3.69h2.11v-.88h-2.11v-1.89h-1.05v1.89h-1.29v.88Zm5.65,2.4c0,1.86,1.3,3.55,3.27,3.55.94,0,1.72-.33,2.37-.76l-.09-.99c-.66.48-1.33.82-2.28.82-1.14,0-2.16-.99-2.22-2.53h4.65v-.43c-.13-2.56-1.6-3.18-2.67-3.18-1.59,0-3.03,1.51-3.03,3.52Zm1.12-.73c.16-.73.76-1.86,1.9-1.86.43,0,1.56.19,1.81,1.86h-3.72Zm10.68,2.43c0,.69.45,1.86,1.71,1.86,1.65,0,2.47-.67,2.49-.69v.52h1.14v-4.57c-.07-1.26-1.06-2.34-2.49-2.34-.94,0-1.63.24-2.35.66l.09,1c.49-.34,1.12-.76,2.25-.76.19,0,.58.01.94.45.37.45.37.96.39,1.38v.51c-1.54.01-4.17.39-4.17,1.98Zm1.09-.01c0-.94,1.99-1.17,3.07-1.18v.94c0,.97-1.03,1.18-1.68,1.18-.81,0-1.39-.4-1.39-.94Zm6.64,1.71h1.17v-3.6c0-1.11.37-2.31,1.53-2.31,1.47,0,1.47,1.12,1.47,1.69v4.21h1.17v-4.32c0-1.05-.13-2.5-2.05-2.5-1.32,0-1.98.85-2.19,1.12v-1.05h-1.09v6.75Zm7.08-3.31c0,1.78,1.05,3.48,2.58,3.48.99,0,1.71-.45,2.22-.94v.78h1.18v-10.83h-1.14v4.81c-.52-.42-1.23-.82-2.17-.82-1.48,0-2.67,1.54-2.67,3.52Zm1.17-.01c0-1.96,1.3-2.58,2.17-2.58h.03c.16,0,.64.01,1.11.45.27.25.31.34.31.58v2.86c0,.46-.7,1.24-1.6,1.24-.81,0-2.02-.58-2.02-2.56Zm12.49,3.33h3.72c.25,0,.51,0,.76-.03,1.71-.16,3.22-1.29,3.22-2.79,0-1.41-1.44-2.38-2.94-2.62,1.72-.43,2.52-1.41,2.52-2.35,0-1.05-1.05-2.61-3.96-2.61h-3.33v10.41Zm1.26-.84v-4.11h1.8c.25,0,.51-.01.76.01,1.41.13,2.65.97,2.65,2.1,0,.79-.82,1.99-3.09,1.99h-2.13Zm0-5.04v-3.69h1.72c2.31,0,3.12,1.06,3.12,1.78,0,.9-1.05,1.9-3.04,1.9h-1.8Zm8.52,5.88h1.12v-3.09c0-2.19,1.66-2.7,2.55-2.73v-1c-1.59.03-2.38,1.05-2.62,1.42v-1.35h-1.05v6.75Zm4.36-3.31c0,2.04,1.57,3.48,3.28,3.48s3.3-1.42,3.3-3.46c0-1.87-1.38-3.61-3.3-3.61-1.77,0-3.28,1.56-3.28,3.6Zm1.17-.15c0-1.81,1.15-2.52,2.11-2.52s2.11.69,2.11,2.52-1.11,2.67-2.11,2.67-2.11-.78-2.11-2.67Zm6.54,1.77c0,.69.45,1.86,1.71,1.86,1.65,0,2.47-.67,2.49-.69v.52h1.14v-4.57c-.07-1.26-1.06-2.34-2.49-2.34-.94,0-1.63.24-2.35.66l.09,1c.49-.34,1.12-.76,2.25-.76.19,0,.58.01.94.45.37.45.37.96.39,1.38v.51c-1.54.01-4.17.39-4.17,1.98Zm1.09-.01c0-.94,1.99-1.17,3.07-1.18v.94c0,.97-1.03,1.18-1.68,1.18-.81,0-1.39-.4-1.39-.94Zm5.97-1.6c0,1.78,1.05,3.48,2.58,3.48.99,0,1.71-.45,2.22-.94v.78h1.18v-10.83h-1.14v4.81c-.52-.42-1.23-.82-2.17-.82-1.48,0-2.67,1.54-2.67,3.52Zm1.17-.01c0-1.96,1.3-2.58,2.17-2.58h.03c.16,0,.64.01,1.11.45.27.25.31.34.31.58v2.86c0,.46-.7,1.24-1.6,1.24-.81,0-2.02-.58-2.02-2.56Zm6.58-.01c0,1.92,1.41,3.51,3.25,3.51,1.03,0,1.77-.33,2.44-.76l-.07-1c-.48.33-1.18.81-2.35.81-1.26,0-2.1-1.09-2.1-2.55,0-1.3.66-2.61,2.11-2.61,1.18,0,1.57.31,2.16.69l.18-.99c-.91-.52-1.39-.66-2.32-.66-2.1,0-3.3,1.83-3.3,3.57Zm6.79,1.65c0,.69.45,1.86,1.71,1.86,1.65,0,2.47-.67,2.49-.69v.52h1.14v-4.57c-.07-1.26-1.06-2.34-2.49-2.34-.94,0-1.63.24-2.35.66l.09,1c.49-.34,1.12-.76,2.25-.76.19,0,.58.01.94.45.37.45.37.96.39,1.38v.51c-1.54.01-4.17.39-4.17,1.98Zm1.09-.01c0-.94,1.99-1.17,3.07-1.18v.94c0,.97-1.03,1.18-1.68,1.18-.81,0-1.39-.4-1.39-.94Zm5.85,1.2c1.12.61,2.04.67,2.55.67,2.01,0,2.44-1.24,2.44-2.07,0-.97-.69-1.6-1.3-1.87-.93-.42-2.53-.22-2.53-1.32,0-.37.22-.91,1.26-.91s1.56.27,2.16.55l.16-.99c-.82-.34-1.35-.46-2.19-.46-2.04,0-2.46,1.18-2.46,1.98,0,1.05.9,1.63,1.56,1.84.46.15,1.11.22,1.44.33.3.09.84.39.84.96,0,.4-.27,1.02-1.39,1.02-1.21,0-1.93-.51-2.35-.75l-.18,1.02Zm5.61-5.28h1.26v4.03c0,1.65.73,1.92,1.23,1.92.67,0,1.44-.15,2.22-.57l-.24-.88c-.21.15-.67.49-1.32.49-.78,0-.81-.88-.81-1.3v-3.69h2.11v-.88h-2.11v-1.89h-1.05v1.89h-1.29v.88Z"/>
  <path d="m23.77,240.7h1.35v-10.41h-1.35v10.41Zm3.96,0h1.17v-3.6c0-1.11.37-2.31,1.53-2.31,1.47,0,1.47,1.12,1.47,1.69v4.21h1.17v-4.32c0-1.05-.13-2.5-2.05-2.5-1.32,0-1.98.85-2.19,1.12v-1.05h-1.09v6.75Zm7.75,0h1.17v-3.6c0-1.11.37-2.31,1.53-2.31,1.47,0,1.47,1.12,1.47,1.69v4.21h1.17v-4.32c0-1.05-.13-2.5-2.05-2.5-1.32,0-1.98.85-2.19,1.12v-1.05h-1.09v6.75Zm7.06-3.39c0,1.86,1.3,3.55,3.27,3.55.94,0,1.72-.33,2.37-.76l-.09-.99c-.66.48-1.33.82-2.28.82-1.14,0-2.16-.99-2.22-2.53h4.65v-.43c-.13-2.56-1.6-3.18-2.67-3.18-1.59,0-3.03,1.51-3.03,3.52Zm1.12-.73c.16-.73.76-1.86,1.9-1.86.43,0,1.56.19,1.81,1.86h-3.72Zm6.24,4.12h1.12v-3.09c0-2.19,1.66-2.7,2.55-2.73v-1c-1.59.03-2.38,1.05-2.62,1.42v-1.35h-1.05v6.75Zm10.35,0h3.72c.25,0,.51,0,.76-.03,1.71-.16,3.22-1.29,3.22-2.79,0-1.41-1.44-2.38-2.94-2.62,1.72-.43,2.52-1.41,2.52-2.35,0-1.05-1.05-2.61-3.96-2.61h-3.33v10.41Zm1.26-.84v-4.11h1.8c.25,0,.51-.01.76.01,1.41.13,2.65.97,2.65,2.1,0,.79-.82,1.99-3.09,1.99h-2.13Zm0-5.04v-3.69h1.72c2.31,0,3.12,1.06,3.12,1.78,0,.9-1.05,1.9-3.04,1.9h-1.8Zm8.52,5.88h1.12v-3.09c0-2.19,1.66-2.7,2.55-2.73v-1c-1.59.03-2.38,1.05-2.62,1.42v-1.35h-1.05v6.75Zm4.36-3.31c0,2.04,1.57,3.48,3.28,3.48s3.3-1.42,3.3-3.46c0-1.87-1.38-3.61-3.3-3.61-1.77,0-3.28,1.56-3.28,3.6Zm1.17-.15c0-1.81,1.15-2.52,2.11-2.52s2.11.69,2.11,2.52-1.11,2.67-2.11,2.67-2.11-.78-2.11-2.67Zm6.54,1.77c0,.69.45,1.86,1.71,1.86,1.65,0,2.47-.67,2.49-.69v.52h1.14v-4.57c-.07-1.26-1.06-2.34-2.49-2.34-.94,0-1.63.24-2.35.66l.09,1c.49-.34,1.12-.76,2.25-.76.19,0,.58.01.94.45.37.45.37.96.39,1.38v.51c-1.54.01-4.17.39-4.17,1.98Zm1.09-.01c0-.94,1.99-1.17,3.07-1.18v.94c0,.97-1.03,1.18-1.68,1.18-.81,0-1.39-.4-1.39-.94Zm5.97-1.6c0,1.78,1.05,3.48,2.58,3.48.99,0,1.71-.45,2.22-.94v.78h1.18v-10.83h-1.14v4.81c-.52-.42-1.23-.82-2.17-.82-1.48,0-2.67,1.54-2.67,3.52Zm1.17-.01c0-1.96,1.3-2.58,2.17-2.58h.03c.16,0,.64.01,1.11.45.27.25.31.34.31.58v2.86c0,.46-.7,1.24-1.6,1.24-.81,0-2.02-.58-2.02-2.56Zm6.58-.01c0,1.92,1.41,3.51,3.25,3.51,1.03,0,1.77-.33,2.44-.76l-.07-1c-.48.33-1.18.81-2.35.81-1.26,0-2.1-1.09-2.1-2.55,0-1.3.66-2.61,2.11-2.61,1.18,0,1.57.31,2.16.69l.18-.99c-.91-.52-1.39-.66-2.32-.66-2.1,0-3.3,1.83-3.3,3.57Zm6.79,1.65c0,.69.45,1.86,1.71,1.86,1.65,0,2.47-.67,2.49-.69v.52h1.14v-4.57c-.07-1.26-1.06-2.34-2.49-2.34-.94,0-1.63.24-2.35.66l.09,1c.49-.34,1.12-.76,2.25-.76.19,0,.58.01.94.45.37.45.37.96.39,1.38v.51c-1.54.01-4.17.39-4.17,1.98Zm1.09-.01c0-.94,1.99-1.17,3.07-1.18v.94c0,.97-1.03,1.18-1.68,1.18-.81,0-1.39-.4-1.39-.94Zm5.85,1.2c1.12.61,2.04.67,2.55.67,2.01,0,2.44-1.24,2.44-2.07,0-.97-.69-1.6-1.3-1.87-.93-.42-2.53-.22-2.53-1.32,0-.37.22-.91,1.26-.91s1.56.27,2.16.55l.16-.99c-.82-.34-1.35-.46-2.19-.46-2.04,0-2.46,1.18-2.46,1.98,0,1.05.9,1.63,1.56,1.84.46.15,1.11.22,1.44.33.3.09.84.39.84.96,0,.4-.27,1.02-1.39,1.02-1.21,0-1.93-.51-2.35-.75l-.18,1.02Zm5.61-5.28h1.26v4.03c0,1.65.73,1.92,1.23,1.92.67,0,1.44-.15,2.22-.57l-.24-.88c-.21.15-.67.49-1.32.49-.78,0-.81-.88-.81-1.3v-3.69h2.11v-.88h-2.11v-1.89h-1.05v1.89h-1.29v.88Z"/>
  <path d="m103.68,285.73v-1.2h-4.9v-4.86h-1.2v4.86h-4.9v1.2h4.9v4.92h1.2v-4.92h4.9Z"/>
  <path d="m31.93,255.38l.12.34.54-.36c.63-.39.68-.43.8-.43.17,0,.31.17.31.39,0,.12-.07.51-.14.75l-1.12,4.08c-.14.53-.22.99-.22,1.31,0,.41.19.66.51.66.44,0,1.05-.36,2.72-1.6l-.17-.31-.44.29c-.49.32-.88.51-1.04.51-.12,0-.22-.17-.22-.34s.03-.32.12-.68l1.31-5.17c.07-.29.1-.48.1-.61,0-.29-.15-.44-.43-.44-.37,0-1,.36-2.28,1.26l-.48.34Zm3.3-5.51c-.49,0-.99.56-.99,1.14,0,.43.26.7.66.7.53,0,.94-.49.94-1.14,0-.41-.26-.7-.61-.7Z"/>
  <path d="m34.65,296.01l-1.7,8.42c-.19.88-.49,1.48-.8,1.48-.24,0-.54-.1-.9-.32l-.14.97c.17.09.39.12.65.12.68,0,1.36-.73,1.97-2.11.34-.77.58-1.62,1.05-3.77l1.29-5.95c.07-.31.1-.53.1-.63,0-.27-.15-.43-.43-.43-.37,0-1,.36-2.28,1.26l-.48.34.12.34.54-.36c.63-.39.68-.43.8-.43.17,0,.31.17.31.39,0,.15-.12.6-.12.68Zm1.55-6.14c-.49,0-.99.56-.99,1.14,0,.43.26.7.66.7.53,0,.94-.49.94-1.14,0-.41-.26-.7-.61-.7Z"/>
  <path d="m171.93,255.38l.12.34.54-.36c.63-.39.68-.43.8-.43.17,0,.31.17.31.39,0,.12-.07.51-.14.75l-1.12,4.08c-.14.53-.22.99-.22,1.31,0,.41.19.66.51.66.44,0,1.05-.36,2.72-1.6l-.17-.31-.44.29c-.49.32-.88.51-1.04.51-.12,0-.22-.17-.22-.34s.03-.32.12-.68l1.31-5.17c.07-.29.1-.48.1-.61,0-.29-.15-.44-.43-.44-.37,0-1,.36-2.28,1.26l-.48.34Zm3.3-5.51c-.49,0-.99.56-.99,1.14,0,.43.26.7.66.7.53,0,.94-.49.94-1.14,0-.41-.26-.7-.61-.7Z"/>
  <path d="m174.65,296.01l-1.7,8.42c-.19.88-.49,1.48-.8,1.48-.24,0-.54-.1-.9-.32l-.14.97c.17.09.39.12.65.12.68,0,1.36-.73,1.97-2.11.34-.77.58-1.62,1.05-3.77l1.29-5.95c.07-.31.1-.53.1-.63,0-.27-.15-.43-.43-.43-.37,0-1,.36-2.28,1.26l-.48.34.12.34.54-.36c.63-.39.68-.43.8-.43.17,0,.31.17.31.39,0,.15-.12.6-.12.68Zm1.55-6.14c-.49,0-.99.56-.99,1.14,0,.43.26.7.66.7.53,0,.94-.49.94-1.14,0-.41-.26-.7-.61-.7Z"/>
  <path d="m296.68,175.71v-1.2h-4.9v-4.86h-1.2v4.86h-4.9v1.2h4.9v4.92h1.2v-4.92h4.9Z"/>
  <path d="m241.93,145.38l.12.34.54-.36c.63-.39.68-.43.8-.43.17,0,.31.17.31.39,0,.12-.07.51-.14.75l-1.12,4.08c-.14.53-.22.99-.22,1.31,0,.41.19.66.51.66.44,0,1.05-.36,2.72-1.6l-.17-.31-.44.29c-.49.32-.88.51-1.04.51-.12,0-.22-.17-.22-.34s.03-.32.12-.68l1.31-5.17c.07-.29.1-.48.1-.61,0-.29-.15-.44-.43-.44-.37,0-1,.36-2.28,1.26l-.48.34Zm3.3-5.51c-.49,0-.99.56-.99,1.14,0,.43.26.7.66.7.53,0,.94-.49.94-1.14,0-.41-.26-.7-.61-.7Z"/>
  <path d="m241.93,185.38l.12.34.54-.36c.63-.39.68-.43.8-.43.17,0,.31.17.31.39,0,.12-.07.51-.14.75l-1.12,4.08c-.14.53-.22.99-.22,1.31,0,.41.19.66.51.66.44,0,1.05-.36,2.72-1.6l-.17-.31-.44.29c-.49.32-.88.51-1.04.51-.12,0-.22-.17-.22-.34s.03-.32.12-.68l1.31-5.17c.07-.29.1-.48.1-.61,0-.29-.15-.44-.43-.44-.37,0-1,.36-2.28,1.26l-.48.34Zm3.3-5.51c-.49,0-.99.56-.99,1.14,0,.43.26.7.66.7.53,0,.94-.49.94-1.14,0-.41-.26-.7-.61-.7Z"/>
  <path d="m317.93,165.38l.12.34.54-.36c.63-.39.68-.43.8-.43.17,0,.31.17.31.39,0,.12-.07.51-.14.75l-1.12,4.08c-.14.53-.22.99-.22,1.31,0,.41.19.66.51.66.44,0,1.05-.36,2.72-1.6l-.17-.31-.44.29c-.49.32-.88.51-1.04.51-.12,0-.22-.17-.22-.34s.03-.32.12-.68l1.31-5.17c.07-.29.1-.48.1-.61,0-.29-.15-.44-.43-.44-.37,0-1,.36-2.28,1.26l-.48.34Zm3.3-5.51c-.49,0-.99.56-.99,1.14,0,.43.26.7.66.7.53,0,.94-.49.94-1.14,0-.41-.26-.7-.61-.7Z"/>
  <path d="m296.68,285.71v-1.2h-4.9v-4.86h-1.2v4.86h-4.9v1.2h4.9v4.92h1.2v-4.92h4.9Z"/>
  <path d="m241.93,255.38l.12.34.54-.36c.63-.39.68-.43.8-.43.17,0,.31.17.31.39,0,.12-.07.51-.14.75l-1.12,4.08c-.14.53-.22.99-.22,1.31,0,.41.19.66.51.66.44,0,1.05-.36,2.72-1.6l-.17-.31-.44.29c-.49.32-.88.51-1.04.51-.12,0-.22-.17-.22-.34s.03-.32.12-.68l1.31-5.17c.07-.29.1-.48.1-.61,0-.29-.15-.44-.43-.44-.37,0-1,.36-2.28,1.26l-.48.34Zm3.3-5.51c-.49,0-.99.56-.99,1.14,0,.43.26.7.66.7.53,0,.94-.49.94-1.14,0-.41-.26-.7-.61-.7Z"/>
  <path d="m244.65,296.01l-1.7,8.42c-.19.88-.49,1.48-.8,1.48-.24,0-.54-.1-.9-.32l-.14.97c.17.09.39.12.65.12.68,0,1.36-.73,1.97-2.11.34-.77.58-1.62,1.05-3.77l1.29-5.95c.07-.31.1-.53.1-.63,0-.27-.15-.43-.43-.43-.37,0-1,.36-2.28,1.26l-.48.34.12.34.54-.36c.63-.39.68-.43.8-.43.17,0,.31.17.31.39,0,.15-.12.6-.12.68Zm1.55-6.14c-.49,0-.99.56-.99,1.14,0,.43.26.7.66.7.53,0,.94-.49.94-1.14,0-.41-.26-.7-.61-.7Z"/>
  <path d="m222.77,350.7h1.35v-10.41h-1.35v10.41Zm3.96,0h1.17v-3.6c0-1.11.37-2.31,1.53-2.31,1.47,0,1.47,1.12,1.47,1.69v4.21h1.17v-4.32c0-1.05-.13-2.5-2.05-2.5-1.32,0-1.98.85-2.19,1.12v-1.05h-1.09v6.75Zm7.75,0h1.17v-3.6c0-1.11.37-2.31,1.53-2.31,1.47,0,1.47,1.12,1.47,1.69v4.21h1.17v-4.32c0-1.05-.13-2.5-2.05-2.5-1.32,0-1.98.85-2.19,1.12v-1.05h-1.09v6.75Zm7.06-3.39c0,1.86,1.3,3.55,3.27,3.55.94,0,1.72-.33,2.37-.76l-.09-.99c-.66.48-1.33.82-2.28.82-1.14,0-2.16-.99-2.22-2.53h4.65v-.43c-.13-2.56-1.6-3.18-2.67-3.18-1.59,0-3.03,1.51-3.03,3.52Zm1.12-.73c.16-.73.76-1.86,1.9-1.86.43,0,1.56.19,1.81,1.86h-3.72Zm6.24,4.12h1.12v-3.09c0-2.19,1.66-2.7,2.55-2.73v-1c-1.59.03-2.38,1.05-2.62,1.42v-1.35h-1.05v6.75Zm10.35,0h3.72c.25,0,.51,0,.76-.03,1.71-.16,3.22-1.29,3.22-2.79,0-1.41-1.44-2.38-2.94-2.62,1.72-.43,2.52-1.41,2.52-2.35,0-1.05-1.05-2.61-3.96-2.61h-3.33v10.41Zm1.26-.84v-4.11h1.8c.25,0,.51-.01.76.01,1.41.13,2.65.97,2.65,2.1,0,.79-.82,1.99-3.09,1.99h-2.13Zm0-5.04v-3.69h1.72c2.31,0,3.12,1.06,3.12,1.78,0,.9-1.05,1.9-3.04,1.9h-1.8Zm8.52,5.88h1.12v-3.09c0-2.19,1.66-2.7,2.55-2.73v-1c-1.59.03-2.38,1.05-2.62,1.42v-1.35h-1.05v6.75Zm4.36-3.31c0,2.04,1.57,3.48,3.28,3.48s3.3-1.42,3.3-3.46c0-1.87-1.38-3.61-3.3-3.61-1.77,0-3.28,1.56-3.28,3.6Zm1.17-.15c0-1.81,1.15-2.52,2.11-2.52s2.11.69,2.11,2.52-1.11,2.67-2.11,2.67-2.11-.78-2.11-2.67Zm6.54,1.77c0,.69.45,1.86,1.71,1.86,1.65,0,2.47-.67,2.49-.69v.52h1.14v-4.57c-.07-1.26-1.06-2.34-2.49-2.34-.94,0-1.63.24-2.35.66l.09,1c.49-.34,1.12-.76,2.25-.76.19,0,.58.01.94.45.37.45.37.96.39,1.38v.51c-1.54.01-4.17.39-4.17,1.98Zm1.09-.01c0-.94,1.99-1.17,3.07-1.18v.94c0,.97-1.03,1.18-1.68,1.18-.81,0-1.39-.4-1.39-.94Zm5.97-1.6c0,1.78,1.05,3.48,2.58,3.48.99,0,1.71-.45,2.22-.94v.78h1.18v-10.83h-1.14v4.81c-.52-.42-1.23-.82-2.17-.82-1.48,0-2.67,1.54-2.67,3.52Zm1.17-.01c0-1.96,1.3-2.58,2.17-2.58h.03c.16,0,.64.01,1.11.45.27.25.31.34.31.58v2.86c0,.46-.7,1.24-1.6,1.24-.81,0-2.02-.58-2.02-2.56Zm6.58-.01c0,1.92,1.41,3.51,3.25,3.51,1.03,0,1.77-.33,2.44-.76l-.07-1c-.48.33-1.18.81-2.35.81-1.26,0-2.1-1.09-2.1-2.55,0-1.3.66-2.61,2.11-2.61,1.18,0,1.57.31,2.16.69l.18-.99c-.91-.52-1.39-.66-2.32-.66-2.1,0-3.3,1.83-3.3,3.57Zm6.79,1.65c0,.69.45,1.86,1.71,1.86,1.65,0,2.47-.67,2.49-.69v.52h1.14v-4.57c-.07-1.26-1.06-2.34-2.49-2.34-.94,0-1.63.24-2.35.66l.09,1c.49-.34,1.12-.76,2.25-.76.19,0,.58.01.94.45.37.45.37.96.39,1.38v.51c-1.54.01-4.17.39-4.17,1.98Zm1.09-.01c0-.94,1.99-1.17,3.07-1.18v.94c0,.97-1.03,1.18-1.68,1.18-.81,0-1.39-.4-1.39-.94Zm5.85,1.2c1.12.61,2.04.67,2.55.67,2.01,0,2.44-1.24,2.44-2.07,0-.97-.69-1.6-1.3-1.87-.93-.42-2.53-.22-2.53-1.32,0-.37.22-.91,1.26-.91s1.56.27,2.16.55l.16-.99c-.82-.34-1.35-.46-2.19-.46-2.04,0-2.46,1.18-2.46,1.98,0,1.05.9,1.63,1.56,1.84.46.15,1.11.22,1.44.33.3.09.84.39.84.96,0,.4-.27,1.02-1.39,1.02-1.21,0-1.93-.51-2.35-.75l-.18,1.02Zm5.61-5.28h1.26v4.03c0,1.65.73,1.92,1.23,1.92.67,0,1.44-.15,2.22-.57l-.24-.88c-.21.15-.67.49-1.32.49-.78,0-.81-.88-.81-1.3v-3.69h2.11v-.88h-2.11v-1.89h-1.05v1.89h-1.29v.88Z"/>
  <path d="m296.68,395.71v-1.2h-4.9v-4.86h-1.2v4.86h-4.9v1.2h4.9v4.92h1.2v-4.92h4.9Z"/>
  <path d="m201.93,365.38l.12.34.54-.36c.63-.39.68-.43.8-.43.17,0,.31.17.31.39,0,.12-.07.51-.14.75l-1.12,4.08c-.14.53-.22.99-.22,1.31,0,.41.19.66.51.66.44,0,1.05-.36,2.72-1.6l-.17-.31-.44.29c-.49.32-.88.51-1.04.51-.12,0-.22-.17-.22-.34s.03-.32.12-.68l1.31-5.17c.07-.29.1-.48.1-.61,0-.29-.15-.44-.43-.44-.37,0-1,.36-2.28,1.26l-.48.34Zm3.3-5.51c-.49,0-.99.56-.99,1.14,0,.43.26.7.66.7.53,0,.94-.49.94-1.14,0-.41-.26-.7-.61-.7Z"/>
  <path d="m204.65,426.01l-1.7,8.42c-.19.88-.49,1.48-.8,1.48-.24,0-.54-.1-.9-.32l-.14.97c.17.09.39.12.65.12.68,0,1.36-.73,1.97-2.11.34-.77.58-1.62,1.05-3.77l1.29-5.95c.07-.31.1-.53.1-.63,0-.27-.15-.43-.43-.43-.37,0-1,.36-2.28,1.26l-.48.34.12.34.54-.36c.63-.39.68-.43.8-.43.17,0,.31.17.31.39,0,.15-.12.6-.12.68Zm1.55-6.14c-.49,0-.99.56-.99,1.14,0,.43.26.7.66.7.53,0,.94-.49.94-1.14,0-.41-.26-.7-.61-.7Z"/>
  <path d="m331.93,385.38l.12.34.54-.36c.63-.39.68-.43.8-.43.17,0,.31.17.31.39,0,.12-.07.51-.14.75l-1.12,4.08c-.14.53-.22.99-.22,1.31,0,.41.19.66.51.66.44,0,1.05-.36,2.72-1.6l-.17-.31-.44.29c-.49.32-.88.51-1.04.51-.12,0-.22-.17-.22-.34s.03-.32.12-.68l1.31-5.17c.07-.29.1-.48.1-.61,0-.29-.15-.44-.43-.44-.37,0-1,.36-2.28,1.26l-.48.34Zm3.3-5.51c-.49,0-.99.56-.99,1.14,0,.43.26.7.66.7.53,0,.94-.49.94-1.14,0-.41-.26-.7-.61-.7Z"/>
  <path d="m334.65,426.01l-1.7,8.42c-.19.88-.49,1.48-.8,1.48-.24,0-.54-.1-.9-.32l-.14.97c.17.09.39.12.65.12.68,0,1.36-.73,1.97-2.11.34-.77.58-1.62,1.05-3.77l1.29-5.95c.07-.31.1-.53.1-.63,0-.27-.15-.43-.43-.43-.37,0-1,.36-2.28,1.26l-.48.34.12.34.54-.36c.63-.39.68-.43.8-.43.17,0,.31.17.31.39,0,.15-.12.6-.12.68Zm1.55-6.14c-.49,0-.99.56-.99,1.14,0,.43.26.7.66.7.53,0,.94-.49.94-1.14,0-.41-.26-.7-.61-.7Z"/>
  <path d="m201.93,405.38l.12.34.54-.36c.63-.39.68-.43.8-.43.17,0,.31.17.31.39,0,.12-.07.51-.14.75l-1.12,4.08c-.14.53-.22.99-.22,1.31,0,.41.19.66.51.66.44,0,1.05-.36,2.72-1.6l-.17-.31-.44.29c-.49.32-.88.51-1.04.51-.12,0-.22-.17-.22-.34s.03-.32.12-.68l1.31-5.17c.07-.29.1-.48.1-.61,0-.29-.15-.44-.43-.44-.37,0-1,.36-2.28,1.26l-.48.34Zm3.3-5.51c-.49,0-.99.56-.99,1.14,0,.43.26.7.66.7.53,0,.94-.49.94-1.14,0-.41-.26-.7-.61-.7Z"/>
  <path d="m48.76,350.7h1.12l1.14-3.06h4.35l1.15,3.06h1.38l-3.9-10.41h-1.33l-3.91,10.41Zm2.58-3.9c1.18-3.24,1.74-4.9,1.86-5.46.09.55.49,1.68,1.86,5.46h-3.72Zm7.12.58c0,1.78,1.05,3.48,2.58,3.48.99,0,1.71-.45,2.22-.94v.78h1.18v-10.83h-1.14v4.81c-.52-.42-1.23-.82-2.17-.82-1.48,0-2.67,1.54-2.67,3.52Zm1.17-.01c0-1.96,1.3-2.58,2.17-2.58h.03c.16,0,.64.01,1.11.45.27.25.31.34.31.58v2.86c0,.46-.7,1.24-1.6,1.24-.81,0-2.02-.58-2.02-2.56Zm6.58.01c0,1.78,1.05,3.48,2.58,3.48.99,0,1.71-.45,2.22-.94v.78h1.18v-10.83h-1.14v4.81c-.52-.42-1.23-.82-2.17-.82-1.48,0-2.67,1.54-2.67,3.52Zm1.17-.01c0-1.96,1.3-2.58,2.17-2.58h.03c.16,0,.64.01,1.11.45.27.25.31.34.31.58v2.86c0,.46-.7,1.24-1.6,1.24-.81,0-2.02-.58-2.02-2.56Zm7.27,3.33h1.12v-6.67h-1.12v6.67Zm-.1-8.85h1.35v-1.33h-1.35v1.33Zm3.67,8.85h1.17v-3.6c0-1.11.37-2.31,1.53-2.31,1.47,0,1.47,1.12,1.47,1.69v4.21h1.17v-4.32c0-1.05-.13-2.5-2.05-2.5-1.32,0-1.98.85-2.19,1.12v-1.05h-1.09v6.75Zm6.96,1.06c0,1.15,1.48,2.02,3.33,2.02s3.33-.87,3.33-2.04c0-.18-.03-.37-.07-.55-.42-1.5-2.25-1.53-3.24-1.53h-1.12c-.72,0-.84-.51-.84-.79,0-.1.01-.25.16-.55.33.21.7.45,1.36.45,1.39,0,2.4-1.17,2.4-2.44,0-.64-.19-1.08-.58-1.6l.13.12c.27-.01.73-.06,1.12-.06.3,0,.58.01.88.04l-.16-.94c-.81,0-1.6.15-2.35.46l.03.03c-.49-.34-.91-.49-1.47-.49-1.23,0-2.38.99-2.38,2.44,0,.3.04.9.49,1.48h0c-.27.37-.43.78-.43,1.27s.13.79.37,1.14c-.58.34-.96.93-.96,1.54Zm1.05,0c0-.43.33-.94.94-1h.43s.94-.01.94-.01c1.62,0,2.23.42,2.23,1.03,0,.69-1.08,1.15-2.29,1.15-.82,0-2.26-.33-2.26-1.17Zm.52-5.44c0-1.27.79-1.59,1.33-1.59.81,0,1.35.6,1.35,1.57,0,1.27-.79,1.59-1.33,1.59-.81,0-1.35-.6-1.35-1.57Zm11.04-4.96h3.9s0,9.34,0,9.34h1.33v-9.36h1.75s2.13.01,2.13.01v-.99h-9.12v.99Zm9.63,7.51c0,.78,0,1.99,1.57,1.99.82,0,1.84-.21,2.62-.88v.72h1.14v-6.67h-1.17v4.2c0,.15,0,.28-.01.43-.07.64-.66,1.36-1.78,1.36-1.02,0-1.18-.33-1.2-.97v-5.02h-1.17v4.84Zm7.77,4.75h1.17v-3.61c.49.46,1.14.85,2.02.85,1.45,0,2.79-1.41,2.79-3.52,0-1.78-.94-3.46-2.37-3.46-.51,0-1.53.1-2.49.88v-.73h-1.12v9.6Zm1.17-4.81v-3.12c.09-.1.6-.85,1.59-.85,1.23,0,2.04,1.21,2.04,2.53,0,1.59-1.12,2.58-2.17,2.58-.88,0-1.45-.78-1.45-1.14Zm6.58,1.89h1.12v-10.83h-1.12v10.83Zm2.88-3.39c0,1.86,1.3,3.55,3.27,3.55.94,0,1.72-.33,2.37-.76l-.09-.99c-.66.48-1.33.82-2.28.82-1.14,0-2.16-.99-2.22-2.53h4.65v-.43c-.13-2.56-1.6-3.18-2.67-3.18-1.59,0-3.03,1.51-3.03,3.52Zm1.12-.73c.16-.73.76-1.86,1.9-1.86.43,0,1.56.19,1.81,1.86h-3.72Zm5.43,3.61c1.12.61,2.04.67,2.55.67,2.01,0,2.44-1.24,2.44-2.07,0-.97-.69-1.6-1.3-1.87-.93-.42-2.53-.22-2.53-1.32,0-.37.22-.91,1.26-.91s1.56.27,2.16.55l.16-.99c-.82-.34-1.35-.46-2.19-.46-2.04,0-2.46,1.18-2.46,1.98,0,1.05.9,1.63,1.56,1.84.46.15,1.11.22,1.44.33.3.09.84.39.84.96,0,.4-.27,1.02-1.39,1.02-1.21,0-1.93-.51-2.35-.75l-.18,1.02Z"/>
  <path d="m111.68,421.73v-1.2h-4.9v-4.86h-1.2v4.86h-4.9v1.2h4.9v4.92h1.2v-4.92h4.9Z"/>
  <path d="m21.93,366.38l.12.34.54-.36c.63-.39.68-.43.8-.43.17,0,.31.17.31.39,0,.12-.07.51-.14.75l-1.12,4.08c-.14.53-.22.99-.22,1.31,0,.41.19.66.51.66.44,0,1.05-.36,2.72-1.6l-.17-.31-.44.29c-.49.32-.88.51-1.04.51-.12,0-.22-.17-.22-.34s.03-.32.12-.68l1.31-5.17c.07-.29.1-.48.1-.61,0-.29-.15-.44-.43-.44-.37,0-1,.36-2.28,1.26l-.48.34Zm3.3-5.51c-.49,0-.99.56-.99,1.14,0,.43.26.7.66.7.53,0,.94-.49.94-1.14,0-.41-.26-.7-.61-.7Z"/>
  <path d="m24.65,396.99l-1.7,8.42c-.19.88-.49,1.48-.8,1.48-.24,0-.54-.1-.9-.32l-.14.97c.17.09.39.12.65.12.68,0,1.36-.73,1.97-2.11.34-.77.58-1.62,1.05-3.77l1.29-5.95c.07-.31.1-.53.1-.63,0-.27-.15-.43-.43-.43-.37,0-1,.36-2.28,1.26l-.48.34.12.34.54-.36c.63-.39.68-.43.8-.43.17,0,.31.17.31.39,0,.15-.12.6-.12.68Zm1.55-6.14c-.49,0-.99.56-.99,1.14,0,.43.26.7.66.7.53,0,.94-.49.94-1.14,0-.41-.26-.7-.61-.7Z"/>
  <path d="m21.93,426.36l.12.34.54-.36c.63-.39.68-.43.8-.43.17,0,.31.17.31.39,0,.12-.07.51-.14.75l-1.12,4.08c-.14.53-.22.99-.22,1.31,0,.41.19.66.51.66.44,0,1.05-.36,2.72-1.6l-.17-.31-.44.29c-.49.32-.88.51-1.04.51-.12,0-.22-.17-.22-.34s.03-.32.12-.68l1.31-5.17c.07-.29.1-.48.1-.61,0-.29-.15-.44-.43-.44-.37,0-1,.36-2.28,1.26l-.48.34Zm3.3-5.51c-.49,0-.99.56-.99,1.14,0,.43.26.7.66.7.53,0,.94-.49.94-1.14,0-.41-.26-.7-.61-.7Z"/>
  <path d="m24.65,456.99l-1.7,8.42c-.19.88-.49,1.48-.8,1.48-.24,0-.54-.1-.9-.32l-.14.97c.17.09.39.12.65.12.68,0,1.36-.73,1.97-2.11.34-.77.58-1.62,1.05-3.77l1.29-5.95c.07-.31.1-.53.1-.63,0-.27-.15-.43-.43-.43-.37,0-1,.36-2.28,1.26l-.48.34.12.34.54-.36c.63-.39.68-.43.8-.43.17,0,.31.17.31.39,0,.15-.12.6-.12.68Zm1.55-6.14c-.49,0-.99.56-.99,1.14,0,.43.26.7.66.7.53,0,.94-.49.94-1.14,0-.41-.26-.7-.61-.7Z"/>
  <path d="m137.93,396.38l.12.34.54-.36c.63-.39.68-.43.8-.43.17,0,.31.17.31.39,0,.12-.07.51-.14.75l-1.12,4.08c-.14.53-.22.99-.22,1.31,0,.41.19.66.51.66.44,0,1.05-.36,2.72-1.6l-.17-.31-.44.29c-.49.32-.88.51-1.04.51-.12,0-.22-.17-.22-.34s.03-.32.12-.68l1.31-5.17c.07-.29.1-.48.1-.61,0-.29-.15-.44-.43-.44-.37,0-1,.36-2.28,1.26l-.48.34Zm3.3-5.51c-.49,0-.99.56-.99,1.14,0,.43.26.7.66.7.53,0,.94-.49.94-1.14,0-.41-.26-.7-.61-.7Z"/>
  <path d="m140.65,427.01l-1.7,8.42c-.19.88-.49,1.48-.8,1.48-.24,0-.54-.1-.9-.32l-.14.97c.17.09.39.12.65.12.68,0,1.36-.73,1.97-2.11.34-.77.58-1.62,1.05-3.77l1.29-5.95c.07-.31.1-.53.1-.63,0-.27-.15-.43-.43-.43-.37,0-1,.36-2.28,1.26l-.48.34.12.34.54-.36c.63-.39.68-.43.8-.43.17,0,.31.17.31.39,0,.15-.12.6-.12.68Zm1.55-6.14c-.49,0-.99.56-.99,1.14,0,.43.26.7.66.7.53,0,.94-.49.94-1.14,0-.41-.26-.7-.61-.7Z"/>
  <path d="m31.93,145.38l.12.34.54-.36c.63-.39.68-.43.8-.43.17,0,.31.17.31.39,0,.12-.07.51-.14.75l-1.12,4.08c-.14.53-.22.99-.22,1.31,0,.41.19.66.51.66.44,0,1.05-.36,2.72-1.6l-.17-.31-.44.29c-.49.32-.88.51-1.04.51-.12,0-.22-.17-.22-.34s.03-.32.12-.68l1.31-5.17c.07-.29.1-.48.1-.61,0-.29-.15-.44-.43-.44-.37,0-1,.36-2.28,1.26l-.48.34Zm3.3-5.51c-.49,0-.99.56-.99,1.14,0,.43.26.7.66.7.53,0,.94-.49.94-1.14,0-.41-.26-.7-.61-.7Z"/>
  <path d="m31.93,185.38l.12.34.54-.36c.63-.39.68-.43.8-.43.17,0,.31.17.31.39,0,.12-.07.51-.14.75l-1.12,4.08c-.14.53-.22.99-.22,1.31,0,.41.19.66.51.66.44,0,1.05-.36,2.72-1.6l-.17-.31-.44.29c-.49.32-.88.51-1.04.51-.12,0-.22-.17-.22-.34s.03-.32.12-.68l1.31-5.17c.07-.29.1-.48.1-.61,0-.29-.15-.44-.43-.44-.37,0-1,.36-2.28,1.26l-.48.34Zm3.3-5.51c-.49,0-.99.56-.99,1.14,0,.43.26.7.66.7.53,0,.94-.49.94-1.14,0-.41-.26-.7-.61-.7Z"/>
  <path d="m121.93,145.38l.12.34.54-.36c.63-.39.68-.43.8-.43.17,0,.31.17.31.39,0,.12-.07.51-.14.75l-1.12,4.08c-.14.53-.22.99-.22,1.31,0,.41.19.66.51.66.44,0,1.05-.36,2.72-1.6l-.17-.31-.44.29c-.49.32-.88.51-1.04.51-.12,0-.22-.17-.22-.34s.03-.32.12-.68l1.31-5.17c.07-.29.1-.48.1-.61,0-.29-.15-.44-.43-.44-.37,0-1,.36-2.28,1.26l-.48.34Zm3.3-5.51c-.49,0-.99.56-.99,1.14,0,.43.26.7.66.7.53,0,.94-.49.94-1.14,0-.41-.26-.7-.61-.7Z"/>
  <path d="m126.68,195.73v-1.2h-4.9v-4.86h-1.2v4.86h-4.9v1.2h4.9v4.92h1.2v-4.92h4.9Z"/>
  <path d="m242.17,130c.58.43,1.62,1.03,3.24,1.03,2.19,0,4.11-1.87,4.11-3.79,0-1.2-.75-1.96-1.5-2.29-1.05-.46-2.98-.36-2.98-1.89,0-.94,1.05-2.08,2.59-2.08,1.41,0,1.95.6,2.34.96l.48-1.24c-.88-.54-1.56-.72-2.61-.72-2.29,0-4.06,1.83-4.06,3.48,0,1.32.94,1.95,1.51,2.19.58.24,1.57.39,2.05.6.48.22.91.69.91,1.41,0,1.08-1.09,2.35-2.65,2.35-1.77,0-2.73-1.02-2.94-1.24l-.49,1.24Zm8.71.7h1.17c.67-3.21.75-3.61.87-4,.19-.63.76-1.9,1.9-1.9.58,0,1.21.19,1.21.99,0,.19-.03.39-.07.58l-.91,4.33h1.17l.93-4.36c.06-.31.12-.64.12-.96,0-1.05-.6-1.5-1.66-1.5s-1.87.58-2.37,1.06l1.08-5.07h-1.14l-2.29,10.83Zm7.62-2.53c0,1.54,1.06,2.7,2.64,2.7,2.04,0,4.11-1.96,4.11-4.27,0-1.59-1.05-2.8-2.61-2.8-2.11,0-4.14,2.19-4.14,4.38Zm1.2-.1c0-1.66,1.11-3.34,2.74-3.34,1,0,1.66.67,1.66,1.78,0,1.54-1.11,3.4-2.76,3.4-.67,0-1.65-.37-1.65-1.84Zm6.03,2.64h1.12c.64-3,.72-3.4.85-3.75.39-.96,1.44-2.02,2.94-2.07l.21-1c-.55.01-1.68.09-2.94,1.42l.28-1.35h-1.05l-1.42,6.75Zm5.41-5.79h1.26c-.93,4.42-.94,4.3-.94,4.8,0,.55.18,1.15.9,1.15s1.5-.15,2.35-.57l-.04-.88c-.3.19-.82.49-1.44.49-.16,0-.6-.04-.6-.7,0-.31.01-.24.85-4.29h2.13l.18-.88h-2.11l.4-1.89h-1.05l-.4,1.89h-1.29l-.19.88Zm5.11,5.79h1.17c.67-3.21.75-3.61.87-4,.19-.63.76-1.9,1.9-1.9.58,0,1.21.19,1.21.99,0,.19-.03.39-.07.58l-.91,4.33h1.17l.93-4.36c.06-.31.12-.64.12-.96,0-1.05-.6-1.5-1.66-1.5s-1.87.58-2.37,1.06l1.08-5.07h-1.14l-2.29,10.83Zm7.53-1.27c0,.57.27,1.44,1.33,1.44,1.23,0,2.05-.34,2.65-.69l-.1.52h1.14l.87-4.12c.06-.34.12-.51.12-.82,0-.9-.55-1.96-2.02-1.96-1.02,0-1.77.28-2.49.66l-.12,1c.51-.28,1.26-.76,2.43-.76.82,0,1.02.72,1.02,1.17,0,.24-.03.36-.19,1.17-.61,0-1.93.06-3.06.51-1.2.46-1.57,1.14-1.57,1.89Zm1.12-.28c0-.34.27-.72.91-.96.69-.25,1.54-.36,2.41-.37-.19.97-.22,1.08-.27,1.2-.22.57-.97.93-1.87.93-.75,0-1.18-.37-1.18-.79Zm6.3,1.56h1.17c.67-3.21.75-3.61.87-4,.19-.63.76-1.9,1.9-1.9.58,0,1.21.19,1.21.99,0,.19-.03.39-.07.58l-.91,4.33h1.17l.93-4.36c.06-.31.12-.64.12-.96,0-1.05-.6-1.5-1.66-1.5s-1.89.6-2.41,1.12l.21-1.05h-1.09l-1.42,6.75Zm7.68-2.32c0,1.15.57,2.49,1.93,2.49,1.06,0,1.89-.52,2.43-.94l-.16.78h1.18l2.29-10.83h-1.12l-1.02,4.81c-.33-.3-.93-.81-2.04-.81-1.78,0-3.49,2.2-3.49,4.5Zm1.18-.18c0-1.96,1.36-3.4,2.82-3.4.91,0,1.26.69,1.26.84,0,.22-.15.79-.61,2.97-.06.3-.03.3-.42.69-.33.34-.85.64-1.45.64-.66,0-1.59-.36-1.59-1.74Z"/>
  <path d="m242.17,240c.58.43,1.62,1.03,3.24,1.03,2.19,0,4.11-1.87,4.11-3.79,0-1.2-.75-1.96-1.5-2.29-1.05-.46-2.98-.36-2.98-1.89,0-.94,1.05-2.08,2.59-2.08,1.41,0,1.95.6,2.34.96l.48-1.24c-.88-.54-1.56-.72-2.61-.72-2.29,0-4.06,1.83-4.06,3.48,0,1.32.94,1.95,1.51,2.19.58.24,1.57.39,2.05.6.48.22.91.69.91,1.41,0,1.08-1.09,2.35-2.65,2.35-1.77,0-2.73-1.02-2.94-1.24l-.49,1.24Zm8.71.7h1.17c.67-3.21.75-3.61.87-4,.19-.63.76-1.9,1.9-1.9.58,0,1.21.19,1.21.99,0,.19-.03.39-.07.58l-.91,4.33h1.17l.93-4.36c.06-.31.12-.64.12-.96,0-1.05-.6-1.5-1.66-1.5s-1.87.58-2.37,1.06l1.08-5.07h-1.14l-2.29,10.83Zm7.62-2.53c0,1.54,1.06,2.7,2.64,2.7,2.04,0,4.11-1.96,4.11-4.27,0-1.59-1.05-2.8-2.61-2.8-2.11,0-4.14,2.19-4.14,4.38Zm1.2-.1c0-1.66,1.11-3.34,2.74-3.34,1,0,1.66.67,1.66,1.78,0,1.54-1.11,3.4-2.76,3.4-.67,0-1.65-.37-1.65-1.84Zm6.03,2.64h1.12c.64-3,.72-3.4.85-3.75.39-.96,1.44-2.02,2.94-2.07l.21-1c-.55.01-1.68.09-2.94,1.42l.28-1.35h-1.05l-1.42,6.75Zm5.41-5.79h1.26c-.93,4.42-.94,4.3-.94,4.8,0,.55.18,1.15.9,1.15s1.5-.15,2.35-.57l-.04-.88c-.3.19-.82.49-1.44.49-.16,0-.6-.04-.6-.7,0-.31.01-.24.85-4.29h2.13l.18-.88h-2.11l.4-1.89h-1.05l-.4,1.89h-1.29l-.19.88Zm5.11,5.79h1.17c.67-3.21.75-3.61.87-4,.19-.63.76-1.9,1.9-1.9.58,0,1.21.19,1.21.99,0,.19-.03.39-.07.58l-.91,4.33h1.17l.93-4.36c.06-.31.12-.64.12-.96,0-1.05-.6-1.5-1.66-1.5s-1.87.58-2.37,1.06l1.08-5.07h-1.14l-2.29,10.83Zm7.53-1.27c0,.57.27,1.44,1.33,1.44,1.23,0,2.05-.34,2.65-.69l-.1.52h1.14l.87-4.12c.06-.34.12-.51.12-.82,0-.9-.55-1.96-2.02-1.96-1.02,0-1.77.28-2.49.66l-.12,1c.51-.28,1.26-.76,2.43-.76.82,0,1.02.72,1.02,1.17,0,.24-.03.36-.19,1.17-.61,0-1.93.06-3.06.51-1.2.46-1.57,1.14-1.57,1.89Zm1.12-.28c0-.34.27-.72.91-.96.69-.25,1.54-.36,2.41-.37-.19.97-.22,1.08-.27,1.2-.22.57-.97.93-1.87.93-.75,0-1.18-.37-1.18-.79Zm6.3,1.56h1.17c.67-3.21.75-3.61.87-4,.19-.63.76-1.9,1.9-1.9.58,0,1.21.19,1.21.99,0,.19-.03.39-.07.58l-.91,4.33h1.17l.93-4.36c.06-.31.12-.64.12-.96,0-1.05-.6-1.5-1.66-1.5s-1.89.6-2.41,1.12l.21-1.05h-1.09l-1.42,6.75Zm7.68-2.32c0,1.15.57,2.49,1.93,2.49,1.06,0,1.89-.52,2.43-.94l-.16.78h1.18l2.29-10.83h-1.12l-1.02,4.81c-.33-.3-.93-.81-2.04-.81-1.78,0-3.49,2.2-3.49,4.5Zm1.18-.18c0-1.96,1.36-3.4,2.82-3.4.91,0,1.26.69,1.26.84,0,.22-.15.79-.61,2.97-.06.3-.03.3-.42.69-.33.34-.85.64-1.45.64-.66,0-1.59-.36-1.59-1.74Z"/>
  <path d="m214.48,171.23v-1.44h-13.19v1.44h13.19Zm0,5.21v-1.44h-13.19v1.44h13.19Z"/>
  <path d="m218.48,281.23v-1.44h-13.19v1.44h13.19Zm0,5.21v-1.44h-13.19v1.44h13.19Z"/>
  <path d="m429.35,15.5c0,2.88,1.96,5.53,4.92,5.53,1.26,0,1.86-.19,2.91-.82l-.09-1.05c-.75.48-1.26.91-2.8.91-2.05,0-3.58-2.04-3.58-4.57s1.53-4.57,3.54-4.57c1.18,0,1.81.34,2.55.79l.22-1.24c-1.33-.49-2.01-.51-2.97-.51-2.14,0-4.69,2.13-4.69,5.53Zm9.04,1.89c0,2.04,1.57,3.48,3.28,3.48s3.3-1.42,3.3-3.46c0-1.87-1.38-3.61-3.3-3.61-1.77,0-3.28,1.56-3.28,3.6Zm1.17-.15c0-1.81,1.15-2.52,2.11-2.52s2.11.69,2.11,2.52-1.11,2.67-2.11,2.67-2.11-.78-2.11-2.67Zm7.09,6.39h1.17v-3.61c.49.46,1.14.85,2.02.85,1.45,0,2.79-1.41,2.79-3.52,0-1.78-.94-3.46-2.37-3.46-.51,0-1.53.1-2.49.88v-.73h-1.12v9.6Zm1.17-4.81v-3.12c.09-.1.6-.85,1.59-.85,1.23,0,2.04,1.21,2.04,2.53,0,1.59-1.12,2.58-2.17,2.58-.88,0-1.45-.78-1.45-1.14Zm5.16-4.78l2.8,6.4c.06.12.07.18.07.25,0,.06-.01.13-.06.24-.64,1.56-.76,2.01-1.39,2.01-.25,0-.58-.09-1.09-.25l.07.97c.36.09.81.12,1.09.12.69,0,1.12-.34,1.72-1.72l3.25-8.02h-1.12c-.99,2.46-1.96,4.9-1.99,5.92-.13-.85-.13-1.26-2.17-5.92h-1.18Zm7.92,6.67h1.12v-6.67h-1.12v6.67Zm-.1-8.85h1.35v-1.33h-1.35v1.33Zm3.67,8.85h1.17v-3.6c0-1.11.37-2.31,1.53-2.31,1.47,0,1.47,1.12,1.47,1.69v4.21h1.17v-4.32c0-1.05-.13-2.5-2.05-2.5-1.32,0-1.98.85-2.19,1.12v-1.05h-1.09v6.75Zm6.96,1.06c0,1.15,1.48,2.02,3.33,2.02s3.33-.87,3.33-2.04c0-.18-.03-.37-.07-.55-.42-1.5-2.25-1.53-3.24-1.53h-1.12c-.72,0-.84-.51-.84-.79,0-.1.01-.25.16-.55.33.21.7.45,1.36.45,1.39,0,2.4-1.17,2.4-2.44,0-.64-.19-1.08-.58-1.6l.13.12c.27-.01.73-.06,1.12-.06.3,0,.58.01.88.04l-.16-.94c-.81,0-1.6.15-2.35.46l.03.03c-.49-.34-.91-.49-1.47-.49-1.23,0-2.38.99-2.38,2.44,0,.3.04.9.49,1.48h0c-.27.37-.43.78-.43,1.27s.13.79.37,1.14c-.58.34-.96.93-.96,1.54Zm1.05,0c0-.43.33-.94.94-1h.43s.94-.01.94-.01c1.62,0,2.23.42,2.23,1.03,0,.69-1.08,1.15-2.29,1.15-.82,0-2.26-.33-2.26-1.17Zm.52-5.44c0-1.27.79-1.59,1.33-1.59.81,0,1.35.6,1.35,1.57,0,1.27-.79,1.59-1.33,1.59-.81,0-1.35-.6-1.35-1.57Z"/>
  <path d="m508.46,42.03v-.51l-.88-.05c-.94-.05-1.11-.24-1.11-1.12v-10.27l-4.1,1.73.12.85,2.55-1.12v8.81c0,.88-.19,1.07-1.11,1.12l-.95.05v.51q2.62-.05,2.81-.05c.53,0,2.4.05,2.67.05Z"/>
  <path d="m508.46,82.03v-.51l-.88-.05c-.94-.05-1.11-.24-1.11-1.12v-10.27l-4.1,1.73.12.85,2.55-1.12v8.81c0,.88-.19,1.07-1.11,1.12l-.95.05v.51q2.62-.05,2.81-.05c.53,0,2.4.05,2.67.05Z"/>
  <path d="m408.46,62.03v-.51l-.88-.05c-.94-.05-1.11-.24-1.11-1.12v-10.27l-4.1,1.73.12.85,2.55-1.12v8.81c0,.88-.19,1.07-1.11,1.12l-.95.05v.51q2.62-.05,2.81-.05c.53,0,2.4.05,2.67.05Z"/>
  <path d="m402.8,130.7h3.72c.25,0,.51,0,.76-.03,1.71-.16,3.22-1.29,3.22-2.79,0-1.41-1.44-2.38-2.94-2.62,1.72-.43,2.52-1.41,2.52-2.35,0-1.05-1.05-2.61-3.96-2.61h-3.33v10.41Zm1.26-.84v-4.11h1.8c.25,0,.51-.01.76.01,1.41.13,2.65.97,2.65,2.1,0,.79-.82,1.99-3.09,1.99h-2.13Zm0-5.04v-3.69h1.72c2.31,0,3.12,1.06,3.12,1.78,0,.9-1.05,1.9-3.04,1.9h-1.8Zm8.52,5.88h1.12v-3.09c0-2.19,1.66-2.7,2.55-2.73v-1c-1.59.03-2.38,1.05-2.62,1.42v-1.35h-1.05v6.75Zm4.36-3.31c0,2.04,1.57,3.48,3.28,3.48s3.3-1.42,3.3-3.46c0-1.87-1.38-3.61-3.3-3.61-1.77,0-3.28,1.56-3.28,3.6Zm1.17-.15c0-1.81,1.15-2.52,2.11-2.52s2.11.69,2.11,2.52-1.11,2.67-2.11,2.67-2.11-.78-2.11-2.67Zm6.54,1.77c0,.69.45,1.86,1.71,1.86,1.65,0,2.47-.67,2.49-.69v.52h1.14v-4.57c-.07-1.26-1.06-2.34-2.49-2.34-.94,0-1.63.24-2.35.66l.09,1c.49-.34,1.12-.76,2.25-.76.19,0,.58.01.94.45.37.45.37.96.39,1.38v.51c-1.54.01-4.17.39-4.17,1.98Zm1.09-.01c0-.94,1.99-1.17,3.07-1.18v.94c0,.97-1.03,1.18-1.68,1.18-.81,0-1.39-.4-1.39-.94Zm5.97-1.6c0,1.78,1.05,3.48,2.58,3.48.99,0,1.71-.45,2.22-.94v.78h1.18v-10.83h-1.14v4.81c-.52-.42-1.23-.82-2.17-.82-1.48,0-2.67,1.54-2.67,3.52Zm1.17-.01c0-1.96,1.3-2.58,2.17-2.58h.03c.16,0,.64.01,1.11.45.27.25.31.34.31.58v2.86c0,.46-.7,1.24-1.6,1.24-.81,0-2.02-.58-2.02-2.56Zm6.58-.01c0,1.92,1.41,3.51,3.25,3.51,1.03,0,1.77-.33,2.44-.76l-.07-1c-.48.33-1.18.81-2.35.81-1.26,0-2.1-1.09-2.1-2.55,0-1.3.66-2.61,2.11-2.61,1.18,0,1.57.31,2.16.69l.18-.99c-.91-.52-1.39-.66-2.32-.66-2.1,0-3.3,1.83-3.3,3.57Zm6.79,1.65c0,.69.45,1.86,1.71,1.86,1.65,0,2.47-.67,2.49-.69v.52h1.14v-4.57c-.07-1.26-1.06-2.34-2.49-2.34-.94,0-1.63.24-2.35.66l.09,1c.49-.34,1.12-.76,2.25-.76.19,0,.58.01.94.45.37.45.37.96.39,1.38v.51c-1.54.01-4.17.39-4.17,1.98Zm1.09-.01c0-.94,1.99-1.17,3.07-1.18v.94c0,.97-1.03,1.18-1.68,1.18-.81,0-1.39-.4-1.39-.94Zm5.85,1.2c1.12.61,2.04.67,2.55.67,2.01,0,2.44-1.24,2.44-2.07,0-.97-.69-1.6-1.3-1.87-.93-.42-2.53-.22-2.53-1.32,0-.37.22-.91,1.26-.91s1.56.27,2.16.55l.16-.99c-.82-.34-1.35-.46-2.19-.46-2.04,0-2.46,1.18-2.46,1.98,0,1.05.9,1.63,1.56,1.84.46.15,1.11.22,1.44.33.3.09.84.39.84.96,0,.4-.27,1.02-1.39,1.02-1.21,0-1.93-.51-2.35-.75l-.18,1.02Zm5.61-5.28h1.26v4.03c0,1.65.73,1.92,1.23,1.92.67,0,1.44-.15,2.22-.57l-.24-.88c-.21.15-.67.49-1.32.49-.78,0-.81-.88-.81-1.3v-3.69h2.11v-.88h-2.11v-1.89h-1.05v1.89h-1.29v.88Zm10.8,4.09c0,.69.45,1.86,1.71,1.86,1.65,0,2.47-.67,2.49-.69v.52h1.14v-4.57c-.07-1.26-1.06-2.34-2.49-2.34-.94,0-1.63.24-2.35.66l.09,1c.49-.34,1.12-.76,2.25-.76.19,0,.58.01.94.45.37.45.37.96.39,1.38v.51c-1.54.01-4.17.39-4.17,1.98Zm1.09-.01c0-.94,1.99-1.17,3.07-1.18v.94c0,.97-1.03,1.18-1.68,1.18-.81,0-1.39-.4-1.39-.94Zm6.64,1.71h1.17v-3.6c0-1.11.37-2.31,1.53-2.31,1.47,0,1.47,1.12,1.47,1.69v4.21h1.17v-4.32c0-1.05-.13-2.5-2.05-2.5-1.32,0-1.98.85-2.19,1.12v-1.05h-1.09v6.75Zm7.08-3.31c0,1.78,1.05,3.48,2.58,3.48.99,0,1.71-.45,2.22-.94v.78h1.18v-10.83h-1.14v4.81c-.52-.42-1.23-.82-2.17-.82-1.48,0-2.67,1.54-2.67,3.52Zm1.17-.01c0-1.96,1.3-2.58,2.17-2.58h.03c.16,0,.64.01,1.11.45.27.25.31.34.31.58v2.86c0,.46-.7,1.24-1.6,1.24-.81,0-2.02-.58-2.02-2.56Zm12.48,3.33h3.72c.24,0,.48,0,.72-.03,2.11-.24,4.12-2.2,4.12-5.1,0-1.8-.81-3.6-2.29-4.57-.96-.63-1.77-.7-2.58-.7h-3.69v10.41Zm1.3-.84v-8.73h2.14c2.52,0,3.81,2.04,3.81,4.45,0,1.03-.25,2.07-.88,2.89-1.03,1.36-2.44,1.38-2.92,1.38h-2.14Zm9.31.84h1.12v-6.67h-1.12v6.67Zm-.1-8.85h1.35v-1.33h-1.35v1.33Zm2.88,8.34c1.12.61,2.04.67,2.55.67,2.01,0,2.44-1.24,2.44-2.07,0-.97-.69-1.6-1.3-1.87-.93-.42-2.53-.22-2.53-1.32,0-.37.22-.91,1.26-.91s1.56.27,2.16.55l.16-.99c-.82-.34-1.35-.46-2.19-.46-2.04,0-2.46,1.18-2.46,1.98,0,1.05.9,1.63,1.56,1.84.46.15,1.11.22,1.44.33.3.09.84.39.84.96,0,.4-.27,1.02-1.39,1.02-1.21,0-1.93-.51-2.35-.75l-.18,1.02Zm5.61-5.28h1.26v4.03c0,1.65.73,1.92,1.23,1.92.67,0,1.44-.15,2.22-.57l-.24-.88c-.21.15-.67.49-1.32.49-.78,0-.81-.88-.81-1.3v-3.69h2.11v-.88h-2.11v-1.89h-1.05v1.89h-1.29v.88Zm6.36,5.79h1.12v-3.09c0-2.19,1.66-2.7,2.55-2.73v-1c-1.59.03-2.38,1.05-2.62,1.42v-1.35h-1.05v6.75Zm5.13,0h1.12v-6.67h-1.12v6.67Zm-.1-8.85h1.35v-1.33h-1.35v1.33Zm3.69,8.85h1.17v-.69c.51.46,1.12.85,2.01.85,1.48,0,2.8-1.45,2.8-3.52,0-1.8-.97-3.46-2.46-3.46-.46,0-1.44.1-2.4.87v-4.87h-1.12v10.83Zm1.17-1.99v-2.8c0-.55.82-1.11,1.6-1.11s2.02.57,2.02,2.56-1.29,2.59-2.14,2.59c-.43,0-.88-.18-1.23-.6-.19-.28-.25-.25-.25-.64Zm6.57.16c0,.78,0,1.99,1.57,1.99.82,0,1.84-.21,2.62-.88v.72h1.14v-6.67h-1.17v4.2c0,.15,0,.28-.01.43-.07.64-.66,1.36-1.78,1.36-1.02,0-1.18-.33-1.2-.97v-5.02h-1.17v4.84Zm6.82-3.96h1.26v4.03c0,1.65.73,1.92,1.23,1.92.67,0,1.44-.15,2.22-.57l-.24-.88c-.21.15-.67.49-1.32.49-.78,0-.81-.88-.81-1.3v-3.69h2.11v-.88h-2.11v-1.89h-1.05v1.89h-1.29v.88Zm5.65,2.4c0,1.86,1.3,3.55,3.27,3.55.94,0,1.72-.33,2.37-.76l-.09-.99c-.66.48-1.33.82-2.28.82-1.14,0-2.16-.99-2.22-2.53h4.65v-.43c-.13-2.56-1.6-3.18-2.67-3.18-1.59,0-3.03,1.51-3.03,3.52Zm1.12-.73c.16-.73.76-1.86,1.9-1.86.43,0,1.56.19,1.81,1.86h-3.72Z"/>
  <path d="m553.93,235.38l.12.34.54-.36c.63-.39.68-.43.8-.43.17,0,.31.17.31.39,0,.12-.07.51-.14.75l-1.12,4.08c-.14.53-.22.99-.22,1.31,0,.41.19.66.51.66.44,0,1.05-.36,2.72-1.6l-.17-.31-.44.29c-.49.32-.88.51-1.04.51-.12,0-.22-.17-.22-.34s.03-.32.12-.68l1.31-5.17c.07-.29.1-.48.1-.61,0-.29-.15-.44-.43-.44-.37,0-1,.36-2.28,1.26l-.48.34Zm3.3-5.51c-.49,0-.99.56-.99,1.14,0,.43.26.7.66.7.53,0,.94-.49.94-1.14,0-.41-.26-.7-.61-.7Z"/>
  <path d="m553.93,275.38l.12.34.54-.36c.63-.39.68-.43.8-.43.17,0,.31.17.31.39,0,.12-.07.51-.14.75l-1.12,4.08c-.14.53-.22.99-.22,1.31,0,.41.19.66.51.66.44,0,1.05-.36,2.72-1.6l-.17-.31-.44.29c-.49.32-.88.51-1.04.51-.12,0-.22-.17-.22-.34s.03-.32.12-.68l1.31-5.17c.07-.29.1-.48.1-.61,0-.29-.15-.44-.43-.44-.37,0-1,.36-2.28,1.26l-.48.34Zm3.3-5.51c-.49,0-.99.56-.99,1.14,0,.43.26.7.66.7.53,0,.94-.49.94-1.14,0-.41-.26-.7-.61-.7Z"/>
  <path d="m461.93,255.38l.12.34.54-.36c.63-.39.68-.43.8-.43.17,0,.31.17.31.39,0,.12-.07.51-.14.75l-1.12,4.08c-.14.53-.22.99-.22,1.31,0,.41.19.66.51.66.44,0,1.05-.36,2.72-1.6l-.17-.31-.44.29c-.49.32-.88.51-1.04.51-.12,0-.22-.17-.22-.34s.03-.32.12-.68l1.31-5.17c.07-.29.1-.48.1-.61,0-.29-.15-.44-.43-.44-.37,0-1,.36-2.28,1.26l-.48.34Zm3.3-5.51c-.49,0-.99.56-.99,1.14,0,.43.26.7.66.7.53,0,.94-.49.94-1.14,0-.41-.26-.7-.61-.7Z"/>
  <path d="m401.93,155.38l.12.34.54-.36c.63-.39.68-.43.8-.43.17,0,.31.17.31.39,0,.12-.07.51-.14.75l-1.12,4.08c-.14.53-.22.99-.22,1.31,0,.41.19.66.51.66.44,0,1.05-.36,2.72-1.6l-.17-.31-.44.29c-.49.32-.88.51-1.04.51-.12,0-.22-.17-.22-.34s.03-.32.12-.68l1.31-5.17c.07-.29.1-.48.1-.61,0-.29-.15-.44-.43-.44-.37,0-1,.36-2.28,1.26l-.48.34Zm3.3-5.51c-.49,0-.99.56-.99,1.14,0,.43.26.7.66.7.53,0,.94-.49.94-1.14,0-.41-.26-.7-.61-.7Z"/>
  <path d="m557.93,155.38l.12.34.54-.36c.63-.39.68-.43.8-.43.17,0,.31.17.31.39,0,.12-.07.51-.14.75l-1.12,4.08c-.14.53-.22.99-.22,1.31,0,.41.19.66.51.66.44,0,1.05-.36,2.72-1.6l-.17-.31-.44.29c-.49.32-.88.51-1.04.51-.12,0-.22-.17-.22-.34s.03-.32.12-.68l1.31-5.17c.07-.29.1-.48.1-.61,0-.29-.15-.44-.43-.44-.37,0-1,.36-2.28,1.26l-.48.34Zm3.3-5.51c-.49,0-.99.56-.99,1.14,0,.43.26.7.66.7.53,0,.94-.49.94-1.14,0-.41-.26-.7-.61-.7Z"/>
  <path d="m557.93,195.38l.12.34.54-.36c.63-.39.68-.43.8-.43.17,0,.31.17.31.39,0,.12-.07.51-.14.75l-1.12,4.08c-.14.53-.22.99-.22,1.31,0,.41.19.66.51.66.44,0,1.05-.36,2.72-1.6l-.17-.31-.44.29c-.49.32-.88.51-1.04.51-.12,0-.22-.17-.22-.34s.03-.32.12-.68l1.31-5.17c.07-.29.1-.48.1-.61,0-.29-.15-.44-.43-.44-.37,0-1,.36-2.28,1.26l-.48.34Zm3.3-5.51c-.49,0-.99.56-.99,1.14,0,.43.26.7.66.7.53,0,.94-.49.94-1.14,0-.41-.26-.7-.61-.7Z"/>
  <path d="m439.48,261.23v-1.44h-13.19v1.44h13.19Zm0,5.21v-1.44h-13.19v1.44h13.19Z"/>
</svg>